M48
;Layer_Color=9474304
;FILE_FORMAT=2:4
INCH
;TYPE=PLATED
T1F00S00C0.0100
T2F00S00C0.0315
T3F00S00C0.1299
%
T01
X042362Y011693
X042638
Y011968
Y012244
X042362
Y011968
X042913
X043189
Y012244
X042913
Y012520
X043189
Y012795
Y013071
X042913
Y012795
X042638
X042362
Y013071
X042638
Y013346
X042362
X042913
X043189
X042638Y012520
X042362
X042913Y011693
X043189
X037020Y018150
X037148Y018337
X036811Y018898
X036457Y019094
X036024
X035709
X035354
X035276Y019370
X034921
Y019094
X034492Y019613
X033661Y019528
X033425Y019449
X033189
X032555Y019213
X032244Y019213
X031870Y019213
X031653Y018504
X031400Y018268
X032087Y018386
Y018150
X032323
Y018386
X032205Y017598
X033031Y017874
X033661Y019921
Y020315
Y020709
X033819Y021260
X034134
X033976Y021417
X035591Y021102
X035236Y020630
X036063Y020591
X036102Y020315
X036890Y020236
X037835Y020157
Y019921
X037677Y019252
X037953Y019193
X037874Y020744
X036821Y022653
X036570Y022650
X036580Y022880
X036857Y022890
X035669Y022795
Y023031
X035787Y023543
Y023780
X036063
Y023543
X035270Y023590
Y023840
X034930
Y023550
X035315Y024685
Y024961
Y025236
Y025512
X035591
X035866
Y025236
X035591
Y024961
X035866
Y024685
X035591
X036142
Y024961
X036417
X036693
Y024685
X036417
Y025236
X036693
Y025512
X036417
X036142
Y025236
X036969
Y025512
Y024961
Y024685
X035476Y022087
X032811Y022909
X031476Y023228
X031575Y019882
X032283Y019961
Y020236
Y020512
X030354Y020472
X030079
Y020197
Y019921
X030354
Y020197
X029803
X029528
Y019921
X029803
Y019646
X029528
Y019370
Y019094
X029803
Y019370
X030079
X030354
Y019094
X030079
Y018819
X030354
X029803
X029528
X030079Y019646
X030354
X031024Y019213
X029803Y020472
X029528
X029402Y021175
Y021451
Y021726
Y022002
X029126
Y021726
X028851
Y022002
X028575
Y021726
Y021451
Y021175
X028851
Y021451
X029126
Y021175
X029677
X029953
Y021451
X029677
Y021726
Y022002
X029953
Y021726
X030229
Y022002
Y021451
Y021175
X028709Y022595
Y022871
Y023146
Y023422
X028433
X028157
Y023146
X028433
Y022871
Y022595
X028157
Y022871
X027882
Y022595
X027606
X027331
Y022871
X027606
Y023146
X027331
Y023422
X027606
X027882
Y023146
X027055
Y023422
Y022871
Y022595
X027086Y017572
Y017296
X026811
Y017572
X026535
Y017296
Y017021
Y016745
X026811
Y017021
X027086
Y016745
X027362
Y017021
Y017296
Y017572
X027637
Y017296
X027913
Y017572
X028189
Y017296
Y017021
Y016745
X027913
X027637
Y017021
X027913
X029564Y017441
T02
X027886Y012008
Y012795
Y013583
Y014373
Y015163
X030118
Y014373
Y013583
Y012795
Y012008
X032417
Y012795
Y013583
Y014373
Y015163
X034767
Y014373
Y013583
Y012795
Y012008
X037205
Y012795
Y013583
Y014373
Y015163
X039562Y017323
X040352
X041142
X041929
X042717
X042719Y019882
X041932
X041144
X040354
X039564
X039562Y022441
X040352
X041142
X041929
X042717
X042719Y025000
X041932
X041144
X040354
X039564
T03
X040551Y011811
X027559Y024803
M30
