M48
;Layer_Color=9474304
;FILE_FORMAT=2:4
INCH
;TYPE=PLATED
T1F00S00C0.0100
T2F00S00C0.0315
T3F00S00C0.1020
T4F00S00C0.1299
%
T01
X031400Y018268
X031653Y018504
X032087Y018386
Y018150
X032323
Y018386
X032244Y019213
X032555Y019213
X031870
X031575Y019882
X032283Y019961
Y020236
Y020512
X033661Y020315
Y020709
X033819Y021260
X034134
X033976Y021417
X033661Y019921
Y019528
X033425Y019449
X033189
X034492Y019613
X034921Y019370
Y019094
X035354
X035709
X036024
X036457
X036811Y018898
X037148Y018337
X037020Y018150
X037677Y019252
X037953Y019193
X037835Y019921
Y020157
X037874Y020744
X036890Y020236
X036102Y020315
X036063Y020591
X035236Y020630
X035591Y021102
X035476Y022087
X035669Y022795
Y023031
X035787Y023543
Y023780
X036063
Y023543
X035270Y023590
Y023840
X034930
Y023550
X035315Y024685
Y024961
Y025236
Y025512
X035591
X035866
Y025236
X035591
Y024961
X035866
Y024685
X035591
X036142
Y024961
X036417
X036693
Y024685
X036417
Y025236
X036693
Y025512
X036417
X036142
Y025236
X036969
Y025512
Y024961
Y024685
X036857Y022890
X036821Y022653
X036570Y022650
X036580Y022880
X032811Y022909
X031476Y023228
X032205Y017598
X033031Y017874
X035276Y019370
X031024Y019213
X029564Y017441
X028189Y017572
Y017296
Y017021
Y016745
X027913
X027637
Y017021
X027913
Y017296
X027637
Y017572
X027913
X027362
Y017296
X027086
X026811
Y017572
X027086
X026535
Y017296
Y017021
Y016745
X026811
Y017021
X027086
Y016745
X027362
Y017021
X027248Y022590
X026972
Y022866
X027248
Y023141
X026972
Y023417
X027248
X027523
Y023141
Y022866
Y022590
X027799
X028074
Y022866
X027799
Y023141
Y023417
X028074
Y023141
X028350
Y023417
Y022866
Y022590
X026696
Y022866
Y023141
Y023417
T02
X027886Y012008
Y012795
Y013583
Y014373
Y015163
X030118
Y014373
Y013583
Y012795
Y012008
X032417
Y012795
Y013583
Y014373
Y015163
X034767
Y014373
Y013583
Y012795
Y012008
X037205
Y012795
Y013583
Y014373
Y015163
X039562Y017323
X040352
X041142
X041929
X042717
X042719Y019882
X041932
X041144
X040354
X039564
X039562Y022441
X040352
X041142
X041929
X042717
X042719Y025000
X041932
X041144
X040354
X039564
T03
X042913Y012205
Y014764
T04
X039930Y011850
X027559Y024803
M30
