G04 Layer_Color=8421504*
%FSAX25Y25*%
%MOIN*%
G70*
G01*
G75*
%ADD10R,0.01772X0.02165*%
%ADD11R,0.03150X0.02756*%
%ADD12R,0.02047X0.01968*%
%ADD13R,0.02165X0.01772*%
%ADD14R,0.03740X0.10236*%
%ADD15R,0.03740X0.09842*%
%ADD16R,0.03200X0.03600*%
%ADD17R,0.02756X0.03543*%
%ADD18R,0.03543X0.00984*%
%ADD19R,0.05866X0.09449*%
G04:AMPARAMS|DCode=20|XSize=25mil|YSize=50mil|CornerRadius=3.13mil|HoleSize=0mil|Usage=FLASHONLY|Rotation=180.000|XOffset=0mil|YOffset=0mil|HoleType=Round|Shape=RoundedRectangle|*
%AMROUNDEDRECTD20*
21,1,0.02500,0.04375,0,0,180.0*
21,1,0.01875,0.05000,0,0,180.0*
1,1,0.00625,-0.00937,0.02187*
1,1,0.00625,0.00937,0.02187*
1,1,0.00625,0.00937,-0.02187*
1,1,0.00625,-0.00937,-0.02187*
%
%ADD20ROUNDEDRECTD20*%
%ADD21R,0.02500X0.02500*%
%ADD22O,0.05315X0.01772*%
%ADD23R,0.01968X0.02047*%
G04:AMPARAMS|DCode=24|XSize=82.68mil|YSize=228.35mil|CornerRadius=41.34mil|HoleSize=0mil|Usage=FLASHONLY|Rotation=0.000|XOffset=0mil|YOffset=0mil|HoleType=Round|Shape=RoundedRectangle|*
%AMROUNDEDRECTD24*
21,1,0.08268,0.14567,0,0,0.0*
21,1,0.00000,0.22835,0,0,0.0*
1,1,0.08268,0.00000,-0.07283*
1,1,0.08268,0.00000,-0.07283*
1,1,0.08268,0.00000,0.07283*
1,1,0.08268,0.00000,0.07283*
%
%ADD24ROUNDEDRECTD24*%
%ADD25R,0.04724X0.03543*%
%ADD26R,0.03543X0.04724*%
D10*
X0375772Y0275700D02*
D03*
X0372228D02*
D03*
X0364228D02*
D03*
X0367772D02*
D03*
D11*
X0377300Y0260750D02*
D03*
Y0267050D02*
D03*
X0367642Y0260484D02*
D03*
Y0266783D02*
D03*
D12*
X0415000Y0284343D02*
D03*
Y0281114D02*
D03*
X0405500Y0303114D02*
D03*
Y0299886D02*
D03*
X0409000Y0281000D02*
D03*
Y0284228D02*
D03*
D13*
X0336992Y0261000D02*
D03*
Y0264543D02*
D03*
D14*
X0401012Y0351000D02*
D03*
X0383012D02*
D03*
D15*
X0389988D02*
D03*
X0371988D02*
D03*
D16*
X0407760Y0345563D02*
D03*
X0415300D02*
D03*
X0411500Y0353900D02*
D03*
D17*
X0399256Y0302500D02*
D03*
X0393744D02*
D03*
D18*
X0343008Y0268437D02*
D03*
Y0266469D02*
D03*
Y0264500D02*
D03*
Y0262532D02*
D03*
Y0260563D02*
D03*
X0353992Y0268437D02*
D03*
Y0266469D02*
D03*
Y0264500D02*
D03*
Y0262532D02*
D03*
Y0260563D02*
D03*
D19*
X0348500Y0264500D02*
D03*
D20*
X0368252Y0296000D02*
D03*
X0364748D02*
D03*
X0377752D02*
D03*
X0374248D02*
D03*
X0368252Y0287000D02*
D03*
X0364748D02*
D03*
X0377752D02*
D03*
X0374248D02*
D03*
D21*
X0414500Y0339500D02*
D03*
Y0334500D02*
D03*
Y0329500D02*
D03*
Y0324500D02*
D03*
Y0319500D02*
D03*
Y0314500D02*
D03*
Y0309500D02*
D03*
X0409500Y0339500D02*
D03*
Y0334500D02*
D03*
Y0329500D02*
D03*
Y0324500D02*
D03*
Y0319500D02*
D03*
Y0314500D02*
D03*
Y0309500D02*
D03*
X0404500Y0339500D02*
D03*
Y0334500D02*
D03*
Y0329500D02*
D03*
Y0324500D02*
D03*
Y0319500D02*
D03*
Y0314500D02*
D03*
Y0309500D02*
D03*
X0399500Y0339500D02*
D03*
Y0334500D02*
D03*
Y0329500D02*
D03*
Y0324500D02*
D03*
Y0319500D02*
D03*
Y0314500D02*
D03*
Y0309500D02*
D03*
X0394500Y0339500D02*
D03*
Y0334500D02*
D03*
Y0329500D02*
D03*
Y0324500D02*
D03*
Y0319500D02*
D03*
Y0314500D02*
D03*
Y0309500D02*
D03*
X0389500Y0339500D02*
D03*
Y0334500D02*
D03*
Y0329500D02*
D03*
Y0324500D02*
D03*
Y0319500D02*
D03*
Y0314500D02*
D03*
Y0309500D02*
D03*
X0384500Y0339500D02*
D03*
Y0334500D02*
D03*
Y0329500D02*
D03*
Y0324500D02*
D03*
Y0319500D02*
D03*
Y0314500D02*
D03*
Y0309500D02*
D03*
X0379500Y0339500D02*
D03*
Y0334500D02*
D03*
Y0329500D02*
D03*
Y0324500D02*
D03*
Y0319500D02*
D03*
Y0314500D02*
D03*
Y0309500D02*
D03*
X0374500Y0339500D02*
D03*
Y0334500D02*
D03*
Y0329500D02*
D03*
Y0324500D02*
D03*
Y0319500D02*
D03*
Y0314500D02*
D03*
Y0309500D02*
D03*
X0369500Y0339500D02*
D03*
Y0334500D02*
D03*
Y0329500D02*
D03*
Y0324500D02*
D03*
Y0319500D02*
D03*
Y0314500D02*
D03*
Y0309500D02*
D03*
X0364500Y0339500D02*
D03*
Y0334500D02*
D03*
Y0329500D02*
D03*
Y0324500D02*
D03*
Y0319500D02*
D03*
Y0314500D02*
D03*
Y0309500D02*
D03*
D22*
X0385240Y0289339D02*
D03*
Y0286780D02*
D03*
Y0284221D02*
D03*
Y0281661D02*
D03*
X0402760Y0289339D02*
D03*
Y0286780D02*
D03*
Y0284221D02*
D03*
Y0281661D02*
D03*
D23*
X0355500Y0276000D02*
D03*
X0352272D02*
D03*
D24*
X0339823Y0293000D02*
D03*
X0355177D02*
D03*
D25*
X0354000Y0337634D02*
D03*
Y0329366D02*
D03*
D26*
X0337866Y0276000D02*
D03*
X0346134D02*
D03*
M02*
