G04 Layer_Color=8421504*
%FSAX25Y25*%
%MOIN*%
G70*
G01*
G75*
%ADD10R,0.03543X0.04724*%
%ADD11R,0.04724X0.03543*%
G04:AMPARAMS|DCode=12|XSize=82.68mil|YSize=228.35mil|CornerRadius=41.34mil|HoleSize=0mil|Usage=FLASHONLY|Rotation=0.000|XOffset=0mil|YOffset=0mil|HoleType=Round|Shape=RoundedRectangle|*
%AMROUNDEDRECTD12*
21,1,0.08268,0.14567,0,0,0.0*
21,1,0.00000,0.22835,0,0,0.0*
1,1,0.08268,0.00000,-0.07283*
1,1,0.08268,0.00000,-0.07283*
1,1,0.08268,0.00000,0.07283*
1,1,0.08268,0.00000,0.07283*
%
%ADD12ROUNDEDRECTD12*%
%ADD13R,0.01968X0.02047*%
%ADD14O,0.05315X0.01772*%
%ADD15R,0.02500X0.02500*%
%ADD16R,0.03740X0.10236*%
%ADD17R,0.03740X0.09842*%
%ADD18R,0.02047X0.01968*%
G04:AMPARAMS|DCode=19|XSize=25mil|YSize=50mil|CornerRadius=3.13mil|HoleSize=0mil|Usage=FLASHONLY|Rotation=180.000|XOffset=0mil|YOffset=0mil|HoleType=Round|Shape=RoundedRectangle|*
%AMROUNDEDRECTD19*
21,1,0.02500,0.04375,0,0,180.0*
21,1,0.01875,0.05000,0,0,180.0*
1,1,0.00625,-0.00937,0.02187*
1,1,0.00625,0.00937,0.02187*
1,1,0.00625,0.00937,-0.02187*
1,1,0.00625,-0.00937,-0.02187*
%
%ADD19ROUNDEDRECTD19*%
%ADD20R,0.05866X0.09449*%
%ADD21R,0.03543X0.00984*%
%ADD22R,0.02756X0.03543*%
%ADD23R,0.03200X0.03600*%
%ADD24R,0.02165X0.01772*%
G36*
X0355375Y0304417D02*
X0355762Y0304417D01*
X0356523Y0304266D01*
X0357239Y0303969D01*
X0357884Y0303538D01*
X0358432Y0302990D01*
X0358863Y0302345D01*
X0359160Y0301628D01*
X0359311Y0300868D01*
Y0300480D01*
X0359311Y0285520D01*
X0359311Y0285520D01*
X0359311Y0285132D01*
X0359160Y0284371D01*
X0358863Y0283655D01*
X0358432Y0283010D01*
X0357884Y0282462D01*
X0357239Y0282031D01*
X0356522Y0281734D01*
X0355762Y0281583D01*
X0355374Y0281583D01*
X0351043Y0281582D01*
Y0304417D01*
X0355374Y0304417D01*
X0355375Y0304417D01*
D02*
G37*
G36*
X0343957Y0281583D02*
X0339626Y0281583D01*
X0339238Y0281583D01*
X0338478Y0281734D01*
X0337761Y0282031D01*
X0337117Y0282462D01*
X0336568Y0283010D01*
X0336137Y0283655D01*
X0335840Y0284371D01*
X0335689Y0285132D01*
X0335689Y0285520D01*
X0335689Y0285520D01*
X0335689Y0300481D01*
X0335689Y0300868D01*
X0335840Y0301629D01*
X0336137Y0302345D01*
X0336568Y0302990D01*
X0337116Y0303538D01*
X0337761Y0303969D01*
X0338477Y0304266D01*
X0339238Y0304417D01*
X0339626D01*
X0339626Y0304417D01*
X0343957Y0304417D01*
Y0281583D01*
D02*
G37*
D10*
X0346134Y0276000D02*
D03*
X0337866D02*
D03*
D11*
X0354000Y0329366D02*
D03*
Y0337634D02*
D03*
D12*
X0355177Y0293000D02*
D03*
X0339823D02*
D03*
D13*
X0352272Y0276000D02*
D03*
X0355500D02*
D03*
D14*
X0402760Y0281661D02*
D03*
Y0284221D02*
D03*
Y0286780D02*
D03*
Y0289339D02*
D03*
X0385240Y0281661D02*
D03*
Y0284221D02*
D03*
Y0286780D02*
D03*
Y0289339D02*
D03*
D15*
X0364500Y0309500D02*
D03*
Y0314500D02*
D03*
Y0319500D02*
D03*
Y0324500D02*
D03*
Y0329500D02*
D03*
Y0334500D02*
D03*
Y0339500D02*
D03*
X0369500Y0309500D02*
D03*
Y0314500D02*
D03*
Y0319500D02*
D03*
Y0324500D02*
D03*
Y0329500D02*
D03*
Y0334500D02*
D03*
Y0339500D02*
D03*
X0374500Y0309500D02*
D03*
Y0314500D02*
D03*
Y0319500D02*
D03*
Y0324500D02*
D03*
Y0329500D02*
D03*
Y0334500D02*
D03*
Y0339500D02*
D03*
X0379500Y0309500D02*
D03*
Y0314500D02*
D03*
Y0319500D02*
D03*
Y0324500D02*
D03*
Y0329500D02*
D03*
Y0334500D02*
D03*
Y0339500D02*
D03*
X0384500Y0309500D02*
D03*
Y0314500D02*
D03*
Y0319500D02*
D03*
Y0324500D02*
D03*
Y0329500D02*
D03*
Y0334500D02*
D03*
Y0339500D02*
D03*
X0389500Y0309500D02*
D03*
Y0314500D02*
D03*
Y0319500D02*
D03*
Y0324500D02*
D03*
Y0329500D02*
D03*
Y0334500D02*
D03*
Y0339500D02*
D03*
X0394500Y0309500D02*
D03*
Y0314500D02*
D03*
Y0319500D02*
D03*
Y0324500D02*
D03*
Y0329500D02*
D03*
Y0334500D02*
D03*
Y0339500D02*
D03*
X0399500Y0309500D02*
D03*
Y0314500D02*
D03*
Y0319500D02*
D03*
Y0324500D02*
D03*
Y0329500D02*
D03*
Y0334500D02*
D03*
Y0339500D02*
D03*
X0404500Y0309500D02*
D03*
Y0314500D02*
D03*
Y0319500D02*
D03*
Y0324500D02*
D03*
Y0329500D02*
D03*
Y0334500D02*
D03*
Y0339500D02*
D03*
X0409500Y0309500D02*
D03*
Y0314500D02*
D03*
Y0319500D02*
D03*
Y0324500D02*
D03*
Y0329500D02*
D03*
Y0334500D02*
D03*
Y0339500D02*
D03*
X0414500Y0309500D02*
D03*
Y0314500D02*
D03*
Y0319500D02*
D03*
Y0324500D02*
D03*
Y0329500D02*
D03*
Y0334500D02*
D03*
Y0339500D02*
D03*
D16*
X0383012Y0351000D02*
D03*
X0401012D02*
D03*
D17*
X0371988D02*
D03*
X0389988D02*
D03*
D18*
X0409000Y0284228D02*
D03*
Y0281000D02*
D03*
X0405500Y0299886D02*
D03*
Y0303114D02*
D03*
X0415000Y0281114D02*
D03*
Y0284343D02*
D03*
D19*
X0374248Y0287000D02*
D03*
X0377752D02*
D03*
X0364748D02*
D03*
X0368252D02*
D03*
X0374248Y0296000D02*
D03*
X0377752D02*
D03*
X0364748D02*
D03*
X0368252D02*
D03*
D20*
X0348500Y0264500D02*
D03*
D21*
X0353992Y0260563D02*
D03*
Y0262532D02*
D03*
Y0264500D02*
D03*
Y0266469D02*
D03*
Y0268437D02*
D03*
X0343008Y0260563D02*
D03*
Y0262532D02*
D03*
Y0264500D02*
D03*
Y0266469D02*
D03*
Y0268437D02*
D03*
D22*
X0393744Y0302500D02*
D03*
X0399256D02*
D03*
D23*
X0411500Y0353900D02*
D03*
X0415300Y0345563D02*
D03*
X0407760D02*
D03*
D24*
X0336992Y0264543D02*
D03*
Y0261000D02*
D03*
M02*
