G04 Layer_Color=16711935*
%FSAX25Y25*%
%MOIN*%
G70*
G01*
G75*
%ADD54C,0.15800*%
%ADD55C,0.07100*%
%ADD56C,0.01200*%
D54*
X0338000Y0370000D02*
D03*
X0411000Y0266000D02*
D03*
D55*
X0337500Y0348500D02*
D03*
Y0340626D02*
D03*
Y0332752D02*
D03*
Y0324852D02*
D03*
Y0316952D02*
D03*
X0404500Y0370500D02*
D03*
X0396626D02*
D03*
D56*
X0396900Y0316900D02*
D03*
X0401900D02*
D03*
X0406800Y0317000D02*
D03*
X0407000Y0322100D02*
D03*
X0401900Y0321800D02*
D03*
X0396800Y0322100D02*
D03*
X0386800Y0337200D02*
D03*
X0386900Y0326900D02*
D03*
X0381900Y0321800D02*
D03*
X0386800Y0317300D02*
D03*
X0381700Y0312200D02*
D03*
X0376900Y0316900D02*
D03*
X0371900Y0322100D02*
D03*
Y0312000D02*
D03*
X0366900Y0317200D02*
D03*
X0379500Y0324500D02*
D03*
X0358631Y0262500D02*
D03*
X0414500Y0314500D02*
D03*
X0399500Y0309500D02*
D03*
X0409500D02*
D03*
Y0329500D02*
D03*
Y0334500D02*
D03*
X0414500Y0329500D02*
D03*
Y0334500D02*
D03*
Y0339500D02*
D03*
X0409500D02*
D03*
X0404500D02*
D03*
X0394500Y0329500D02*
D03*
X0399500D02*
D03*
X0404500D02*
D03*
Y0334500D02*
D03*
X0399500D02*
D03*
X0394500D02*
D03*
X0399500Y0339500D02*
D03*
X0394500D02*
D03*
X0374500Y0329500D02*
D03*
X0379500Y0334500D02*
D03*
X0374500D02*
D03*
X0369500D02*
D03*
X0364500D02*
D03*
X0379500Y0339500D02*
D03*
X0374500D02*
D03*
X0369500D02*
D03*
X0364500D02*
D03*
X0368300Y0291500D02*
D03*
X0364100D02*
D03*
X0361100D02*
D03*
Y0293700D02*
D03*
X0353000Y0364000D02*
D03*
X0357000D02*
D03*
X0361000D02*
D03*
X0365000D02*
D03*
X0369000D02*
D03*
X0373000D02*
D03*
X0377000D02*
D03*
Y0360000D02*
D03*
X0373000D02*
D03*
X0369000D02*
D03*
X0365000D02*
D03*
X0361000D02*
D03*
X0357000D02*
D03*
X0353000D02*
D03*
X0386000Y0262000D02*
D03*
X0390000D02*
D03*
X0394000D02*
D03*
X0398000D02*
D03*
X0386000Y0266000D02*
D03*
X0390000D02*
D03*
X0394000D02*
D03*
X0398000D02*
D03*
X0386000Y0270000D02*
D03*
X0390000D02*
D03*
X0394000D02*
D03*
X0398000D02*
D03*
X0354000Y0329366D02*
D03*
X0344500Y0331000D02*
D03*
Y0334500D02*
D03*
Y0338000D02*
D03*
Y0341500D02*
D03*
X0391500Y0371000D02*
D03*
X0397000Y0362000D02*
D03*
X0391500D02*
D03*
Y0366500D02*
D03*
X0385500Y0361500D02*
D03*
X0389988Y0351000D02*
D03*
X0383012D02*
D03*
X0394500Y0309500D02*
D03*
X0414500D02*
D03*
X0409500Y0314500D02*
D03*
X0404500Y0324500D02*
D03*
X0414500D02*
D03*
X0409500D02*
D03*
X0404500Y0314500D02*
D03*
X0399500D02*
D03*
Y0324500D02*
D03*
X0394500D02*
D03*
Y0314500D02*
D03*
X0389500Y0324500D02*
D03*
X0384500Y0334500D02*
D03*
Y0339500D02*
D03*
X0389500D02*
D03*
Y0334500D02*
D03*
Y0329500D02*
D03*
X0384500D02*
D03*
Y0319500D02*
D03*
Y0314500D02*
D03*
X0384000Y0309500D02*
D03*
X0379500D02*
D03*
Y0314500D02*
D03*
Y0319500D02*
D03*
X0374500Y0324500D02*
D03*
Y0319500D02*
D03*
Y0314500D02*
D03*
Y0309500D02*
D03*
X0369500D02*
D03*
X0364500D02*
D03*
Y0314500D02*
D03*
X0369500D02*
D03*
Y0319500D02*
D03*
X0364500D02*
D03*
Y0324500D02*
D03*
X0369500D02*
D03*
Y0329500D02*
D03*
X0364500D02*
D03*
X0336992Y0261000D02*
D03*
X0346000Y0274500D02*
D03*
Y0277000D02*
D03*
X0349500Y0265500D02*
D03*
X0347500D02*
D03*
X0349500Y0268000D02*
D03*
X0347500D02*
D03*
X0414500Y0319500D02*
D03*
X0379500Y0329000D02*
D03*
X0389500Y0309500D02*
D03*
X0340000Y0284000D02*
D03*
X0367642Y0260484D02*
D03*
X0377300Y0260750D02*
D03*
X0390000Y0274000D02*
D03*
X0386000D02*
D03*
X0382202Y0284000D02*
D03*
X0382000Y0281000D02*
D03*
X0392700Y0276500D02*
D03*
X0398000Y0274000D02*
D03*
X0394000D02*
D03*
X0404500Y0309500D02*
D03*
X0402760Y0281661D02*
D03*
X0402300Y0296346D02*
D03*
X0338400Y0270400D02*
D03*
X0340400Y0266500D02*
D03*
M02*
