G04 Layer_Physical_Order=2*
G04 Layer_Color=16711680*
%FSAX25Y25*%
%MOIN*%
G70*
G01*
G75*
%ADD27C,0.01000*%
%ADD28C,0.15000*%
%ADD29C,0.06300*%
%ADD30C,0.02000*%
G36*
X0419000Y0377867D02*
X0419332Y0377801D01*
X0419613Y0377613D01*
X0419801Y0377332D01*
X0419867Y0377000D01*
X0419878Y0377000D01*
Y0257500D01*
X0419879Y0257499D01*
X0419768Y0257232D01*
X0419501Y0257121D01*
X0419500Y0257121D01*
X0330121D01*
Y0366496D01*
X0330622Y0366621D01*
X0331233Y0365478D01*
X0332245Y0364245D01*
X0333478Y0363232D01*
X0334885Y0362480D01*
X0336412Y0362017D01*
X0338000Y0361861D01*
X0339588Y0362017D01*
X0341115Y0362480D01*
X0342522Y0363232D01*
X0343755Y0364245D01*
X0344767Y0365478D01*
X0345520Y0366885D01*
X0345983Y0368412D01*
X0346139Y0370000D01*
X0345983Y0371588D01*
X0345520Y0373115D01*
X0344767Y0374522D01*
X0343755Y0375755D01*
X0342522Y0376767D01*
X0341379Y0377379D01*
X0341504Y0377878D01*
X0419000D01*
Y0377867D01*
D02*
G37*
%LPC*%
G36*
X0404500Y0331131D02*
X0403876Y0331007D01*
X0403346Y0330654D01*
X0402993Y0330124D01*
X0402869Y0329500D01*
X0402993Y0328876D01*
X0403346Y0328346D01*
X0403876Y0327993D01*
X0404500Y0327869D01*
X0405124Y0327993D01*
X0405653Y0328346D01*
X0406007Y0328876D01*
X0406131Y0329500D01*
X0406007Y0330124D01*
X0405653Y0330654D01*
X0405124Y0331007D01*
X0404500Y0331131D01*
D02*
G37*
G36*
X0399500D02*
X0398876Y0331007D01*
X0398346Y0330654D01*
X0397993Y0330124D01*
X0397869Y0329500D01*
X0397993Y0328876D01*
X0398346Y0328346D01*
X0398876Y0327993D01*
X0399500Y0327869D01*
X0400124Y0327993D01*
X0400654Y0328346D01*
X0401007Y0328876D01*
X0401131Y0329500D01*
X0401007Y0330124D01*
X0400654Y0330654D01*
X0400124Y0331007D01*
X0399500Y0331131D01*
D02*
G37*
G36*
X0374500D02*
X0373876Y0331007D01*
X0373346Y0330654D01*
X0372993Y0330124D01*
X0372869Y0329500D01*
X0372993Y0328876D01*
X0373346Y0328346D01*
X0373876Y0327993D01*
X0374500Y0327869D01*
X0375124Y0327993D01*
X0375654Y0328346D01*
X0376007Y0328876D01*
X0376131Y0329500D01*
X0376007Y0330124D01*
X0375654Y0330654D01*
X0375124Y0331007D01*
X0374500Y0331131D01*
D02*
G37*
G36*
X0394500D02*
X0393876Y0331007D01*
X0393347Y0330654D01*
X0392993Y0330124D01*
X0392869Y0329500D01*
X0392993Y0328876D01*
X0393347Y0328346D01*
X0393876Y0327993D01*
X0394500Y0327869D01*
X0395124Y0327993D01*
X0395654Y0328346D01*
X0396007Y0328876D01*
X0396131Y0329500D01*
X0396007Y0330124D01*
X0395654Y0330654D01*
X0395124Y0331007D01*
X0394500Y0331131D01*
D02*
G37*
G36*
X0409500D02*
X0408876Y0331007D01*
X0408347Y0330654D01*
X0407993Y0330124D01*
X0407869Y0329500D01*
X0407993Y0328876D01*
X0408347Y0328346D01*
X0408876Y0327993D01*
X0409500Y0327869D01*
X0410124Y0327993D01*
X0410653Y0328346D01*
X0411007Y0328876D01*
X0411131Y0329500D01*
X0411007Y0330124D01*
X0410653Y0330654D01*
X0410124Y0331007D01*
X0409500Y0331131D01*
D02*
G37*
G36*
X0369500Y0336131D02*
X0368876Y0336007D01*
X0368347Y0335653D01*
X0367993Y0335124D01*
X0367869Y0334500D01*
X0367993Y0333876D01*
X0368347Y0333347D01*
X0368876Y0332993D01*
X0369500Y0332869D01*
X0370124Y0332993D01*
X0370654Y0333347D01*
X0371007Y0333876D01*
X0371131Y0334500D01*
X0371007Y0335124D01*
X0370654Y0335653D01*
X0370124Y0336007D01*
X0369500Y0336131D01*
D02*
G37*
G36*
X0374500D02*
X0373876Y0336007D01*
X0373346Y0335653D01*
X0372993Y0335124D01*
X0372869Y0334500D01*
X0372993Y0333876D01*
X0373346Y0333347D01*
X0373876Y0332993D01*
X0374500Y0332869D01*
X0375124Y0332993D01*
X0375654Y0333347D01*
X0376007Y0333876D01*
X0376131Y0334500D01*
X0376007Y0335124D01*
X0375654Y0335653D01*
X0375124Y0336007D01*
X0374500Y0336131D01*
D02*
G37*
G36*
X0414500Y0331131D02*
X0413876Y0331007D01*
X0413346Y0330654D01*
X0412993Y0330124D01*
X0412869Y0329500D01*
X0412993Y0328876D01*
X0413346Y0328346D01*
X0413876Y0327993D01*
X0414500Y0327869D01*
X0415124Y0327993D01*
X0415654Y0328346D01*
X0416007Y0328876D01*
X0416131Y0329500D01*
X0416007Y0330124D01*
X0415654Y0330654D01*
X0415124Y0331007D01*
X0414500Y0331131D01*
D02*
G37*
G36*
X0364500Y0336131D02*
X0363876Y0336007D01*
X0363347Y0335653D01*
X0362993Y0335124D01*
X0362869Y0334500D01*
X0362993Y0333876D01*
X0363347Y0333347D01*
X0363876Y0332993D01*
X0364500Y0332869D01*
X0365124Y0332993D01*
X0365653Y0333347D01*
X0366007Y0333876D01*
X0366131Y0334500D01*
X0366007Y0335124D01*
X0365653Y0335653D01*
X0365124Y0336007D01*
X0364500Y0336131D01*
D02*
G37*
G36*
X0379500Y0330631D02*
X0378876Y0330507D01*
X0378346Y0330153D01*
X0377993Y0329624D01*
X0377869Y0329000D01*
X0377993Y0328376D01*
X0378346Y0327847D01*
X0378876Y0327493D01*
X0379500Y0327369D01*
X0379538Y0327376D01*
X0388207Y0318707D01*
X0388207Y0318707D01*
X0388379Y0318592D01*
Y0310675D01*
X0388347Y0310653D01*
X0387993Y0310124D01*
X0387869Y0309500D01*
X0387993Y0308876D01*
X0388347Y0308347D01*
X0388876Y0307993D01*
X0389500Y0307869D01*
X0390124Y0307993D01*
X0390653Y0308347D01*
X0391007Y0308876D01*
X0391131Y0309500D01*
X0391007Y0310124D01*
X0390653Y0310653D01*
X0390621Y0310675D01*
Y0318378D01*
X0413325D01*
X0413346Y0318347D01*
X0413876Y0317993D01*
X0414500Y0317869D01*
X0415124Y0317993D01*
X0415654Y0318347D01*
X0416007Y0318876D01*
X0416131Y0319500D01*
X0416007Y0320124D01*
X0415654Y0320654D01*
X0415124Y0321007D01*
X0414500Y0321131D01*
X0413876Y0321007D01*
X0413346Y0320654D01*
X0413325Y0320621D01*
X0389465D01*
X0381124Y0328962D01*
X0381131Y0329000D01*
X0381007Y0329624D01*
X0380654Y0330153D01*
X0380124Y0330507D01*
X0379500Y0330631D01*
D02*
G37*
G36*
X0402300Y0297978D02*
X0401676Y0297854D01*
X0401147Y0297500D01*
X0400793Y0296971D01*
X0400669Y0296346D01*
X0400793Y0295722D01*
X0401147Y0295193D01*
X0401179Y0295171D01*
Y0286565D01*
X0392738Y0278124D01*
X0392700Y0278131D01*
X0392076Y0278007D01*
X0391547Y0277654D01*
X0391193Y0277124D01*
X0391069Y0276500D01*
X0391193Y0275876D01*
X0391547Y0275346D01*
X0392076Y0274993D01*
X0392700Y0274869D01*
X0393324Y0274993D01*
X0393853Y0275346D01*
X0394207Y0275876D01*
X0394331Y0276500D01*
X0394324Y0276538D01*
X0403093Y0285307D01*
X0403336Y0285671D01*
X0403422Y0286100D01*
X0403421Y0286100D01*
Y0295171D01*
X0403453Y0295193D01*
X0403807Y0295722D01*
X0403931Y0296346D01*
X0403807Y0296971D01*
X0403453Y0297500D01*
X0402924Y0297854D01*
X0402300Y0297978D01*
D02*
G37*
G36*
X0341554Y0339626D02*
X0337500D01*
X0333446D01*
X0333457Y0339543D01*
X0333875Y0338533D01*
X0334540Y0337666D01*
X0335407Y0337001D01*
X0336030Y0336743D01*
Y0336202D01*
X0335609Y0336028D01*
X0334825Y0335426D01*
X0334224Y0334643D01*
X0333846Y0333731D01*
X0333718Y0332752D01*
X0333846Y0331773D01*
X0334224Y0330861D01*
X0334825Y0330078D01*
X0335609Y0329476D01*
X0336521Y0329099D01*
X0336858Y0329054D01*
Y0328550D01*
X0336521Y0328505D01*
X0335609Y0328128D01*
X0334825Y0327526D01*
X0334224Y0326743D01*
X0333846Y0325831D01*
X0333718Y0324852D01*
X0333846Y0323873D01*
X0334224Y0322961D01*
X0334825Y0322178D01*
X0335609Y0321576D01*
X0336521Y0321199D01*
X0336858Y0321154D01*
Y0320650D01*
X0336521Y0320605D01*
X0335609Y0320228D01*
X0334825Y0319626D01*
X0334224Y0318843D01*
X0333846Y0317931D01*
X0333718Y0316952D01*
X0333846Y0315973D01*
X0334224Y0315061D01*
X0334825Y0314278D01*
X0335609Y0313676D01*
X0336521Y0313299D01*
X0337500Y0313170D01*
X0338479Y0313299D01*
X0339391Y0313676D01*
X0340175Y0314278D01*
X0340776Y0315061D01*
X0341094Y0315830D01*
X0345816D01*
X0380415Y0281231D01*
X0380369Y0281000D01*
X0380493Y0280376D01*
X0380847Y0279847D01*
X0381376Y0279493D01*
X0382000Y0279369D01*
X0382624Y0279493D01*
X0383154Y0279847D01*
X0383507Y0280376D01*
X0383631Y0281000D01*
X0383507Y0281624D01*
X0383154Y0282154D01*
X0383186Y0282733D01*
X0383355Y0282846D01*
X0383709Y0283376D01*
X0383833Y0284000D01*
X0383709Y0284624D01*
X0383355Y0285154D01*
X0383324Y0285175D01*
Y0286798D01*
X0383324Y0286798D01*
X0383238Y0287227D01*
X0382995Y0287591D01*
X0382995Y0287591D01*
X0344941Y0325645D01*
X0344577Y0325888D01*
X0344148Y0325974D01*
X0344148Y0325974D01*
X0341094D01*
X0340776Y0326743D01*
X0340175Y0327526D01*
X0339391Y0328128D01*
X0338479Y0328505D01*
X0338142Y0328550D01*
Y0329054D01*
X0338479Y0329099D01*
X0339391Y0329476D01*
X0340175Y0330078D01*
X0340776Y0330861D01*
X0341154Y0331773D01*
X0341282Y0332752D01*
X0341154Y0333731D01*
X0340776Y0334643D01*
X0340175Y0335426D01*
X0339391Y0336028D01*
X0338970Y0336202D01*
Y0336743D01*
X0339593Y0337001D01*
X0340460Y0337666D01*
X0341125Y0338533D01*
X0341543Y0339543D01*
X0341554Y0339626D01*
D02*
G37*
G36*
X0411000Y0274139D02*
X0409412Y0273983D01*
X0407885Y0273520D01*
X0406478Y0272767D01*
X0405245Y0271755D01*
X0404233Y0270522D01*
X0403480Y0269115D01*
X0403017Y0267588D01*
X0402861Y0266000D01*
X0403017Y0264412D01*
X0403480Y0262885D01*
X0404233Y0261478D01*
X0405245Y0260245D01*
X0406478Y0259232D01*
X0407885Y0258480D01*
X0409412Y0258017D01*
X0411000Y0257861D01*
X0412588Y0258017D01*
X0414115Y0258480D01*
X0415522Y0259232D01*
X0416755Y0260245D01*
X0417767Y0261478D01*
X0418520Y0262885D01*
X0418983Y0264412D01*
X0419139Y0266000D01*
X0418983Y0267588D01*
X0418520Y0269115D01*
X0417767Y0270522D01*
X0416755Y0271755D01*
X0415522Y0272767D01*
X0414115Y0273520D01*
X0412588Y0273983D01*
X0411000Y0274139D01*
D02*
G37*
G36*
X0340400Y0268131D02*
X0339776Y0268007D01*
X0339247Y0267653D01*
X0338893Y0267124D01*
X0338769Y0266500D01*
X0338893Y0265876D01*
X0339247Y0265347D01*
X0339776Y0264993D01*
X0340400Y0264869D01*
X0340453Y0264879D01*
X0343625Y0261707D01*
X0343625Y0261707D01*
X0343989Y0261464D01*
X0344418Y0261379D01*
X0357456D01*
X0357478Y0261347D01*
X0358007Y0260993D01*
X0358631Y0260869D01*
X0359256Y0260993D01*
X0359785Y0261347D01*
X0360139Y0261876D01*
X0360263Y0262500D01*
X0360139Y0263124D01*
X0359785Y0263653D01*
X0359256Y0264007D01*
X0358631Y0264131D01*
X0358007Y0264007D01*
X0357478Y0263653D01*
X0357456Y0263621D01*
X0344883D01*
X0342027Y0266477D01*
X0342031Y0266500D01*
X0341907Y0267124D01*
X0341553Y0267653D01*
X0341024Y0268007D01*
X0340400Y0268131D01*
D02*
G37*
G36*
X0340000Y0285631D02*
X0339376Y0285507D01*
X0338846Y0285154D01*
X0338493Y0284624D01*
X0338369Y0284000D01*
X0338376Y0283962D01*
X0337607Y0283193D01*
X0337364Y0282829D01*
X0337278Y0282400D01*
X0337279Y0282400D01*
Y0271575D01*
X0337246Y0271553D01*
X0336893Y0271024D01*
X0336769Y0270400D01*
X0336893Y0269776D01*
X0337246Y0269247D01*
X0337776Y0268893D01*
X0338400Y0268769D01*
X0339024Y0268893D01*
X0339553Y0269247D01*
X0339907Y0269776D01*
X0340031Y0270400D01*
X0339907Y0271024D01*
X0339553Y0271553D01*
X0339522Y0271575D01*
Y0281935D01*
X0339962Y0282376D01*
X0340000Y0282369D01*
X0340624Y0282493D01*
X0341154Y0282846D01*
X0341507Y0283376D01*
X0341631Y0284000D01*
X0341507Y0284624D01*
X0341154Y0285154D01*
X0340624Y0285507D01*
X0340000Y0285631D01*
D02*
G37*
G36*
X0409500Y0311131D02*
X0408876Y0311007D01*
X0408347Y0310653D01*
X0407993Y0310124D01*
X0407869Y0309500D01*
X0407993Y0308876D01*
X0408347Y0308347D01*
X0408876Y0307993D01*
X0409500Y0307869D01*
X0410124Y0307993D01*
X0410653Y0308347D01*
X0411007Y0308876D01*
X0411131Y0309500D01*
X0411007Y0310124D01*
X0410653Y0310653D01*
X0410124Y0311007D01*
X0409500Y0311131D01*
D02*
G37*
G36*
X0414500Y0316131D02*
X0413876Y0316007D01*
X0413346Y0315653D01*
X0412993Y0315124D01*
X0412869Y0314500D01*
X0412993Y0313876D01*
X0413346Y0313347D01*
X0413876Y0312993D01*
X0414500Y0312869D01*
X0415124Y0312993D01*
X0415654Y0313347D01*
X0416007Y0313876D01*
X0416131Y0314500D01*
X0416007Y0315124D01*
X0415654Y0315653D01*
X0415124Y0316007D01*
X0414500Y0316131D01*
D02*
G37*
G36*
X0399500Y0311131D02*
X0398876Y0311007D01*
X0398346Y0310653D01*
X0397993Y0310124D01*
X0397869Y0309500D01*
X0397993Y0308876D01*
X0398346Y0308347D01*
X0398876Y0307993D01*
X0399500Y0307869D01*
X0400124Y0307993D01*
X0400654Y0308347D01*
X0401007Y0308876D01*
X0401131Y0309500D01*
X0401007Y0310124D01*
X0400654Y0310653D01*
X0400124Y0311007D01*
X0399500Y0311131D01*
D02*
G37*
G36*
X0404500D02*
X0403876Y0311007D01*
X0403346Y0310653D01*
X0402993Y0310124D01*
X0402869Y0309500D01*
X0402993Y0308876D01*
X0403346Y0308347D01*
X0403876Y0307993D01*
X0404500Y0307869D01*
X0405124Y0307993D01*
X0405653Y0308347D01*
X0406007Y0308876D01*
X0406131Y0309500D01*
X0406007Y0310124D01*
X0405653Y0310653D01*
X0405124Y0311007D01*
X0404500Y0311131D01*
D02*
G37*
G36*
Y0341131D02*
X0403876Y0341007D01*
X0403346Y0340653D01*
X0402993Y0340124D01*
X0402869Y0339500D01*
X0402993Y0338876D01*
X0403346Y0338347D01*
X0403876Y0337993D01*
X0404500Y0337869D01*
X0405124Y0337993D01*
X0405653Y0338347D01*
X0406007Y0338876D01*
X0406131Y0339500D01*
X0406007Y0340124D01*
X0405653Y0340653D01*
X0405124Y0341007D01*
X0404500Y0341131D01*
D02*
G37*
G36*
X0409500D02*
X0408876Y0341007D01*
X0408347Y0340653D01*
X0407993Y0340124D01*
X0407869Y0339500D01*
X0407993Y0338876D01*
X0408347Y0338347D01*
X0408876Y0337993D01*
X0409500Y0337869D01*
X0410124Y0337993D01*
X0410653Y0338347D01*
X0411007Y0338876D01*
X0411131Y0339500D01*
X0411007Y0340124D01*
X0410653Y0340653D01*
X0410124Y0341007D01*
X0409500Y0341131D01*
D02*
G37*
G36*
X0394500D02*
X0393876Y0341007D01*
X0393347Y0340653D01*
X0392993Y0340124D01*
X0392869Y0339500D01*
X0392993Y0338876D01*
X0393347Y0338347D01*
X0393876Y0337993D01*
X0394500Y0337869D01*
X0395124Y0337993D01*
X0395654Y0338347D01*
X0396007Y0338876D01*
X0396131Y0339500D01*
X0396007Y0340124D01*
X0395654Y0340653D01*
X0395124Y0341007D01*
X0394500Y0341131D01*
D02*
G37*
G36*
X0399500D02*
X0398876Y0341007D01*
X0398346Y0340653D01*
X0397993Y0340124D01*
X0397869Y0339500D01*
X0397993Y0338876D01*
X0398346Y0338347D01*
X0398876Y0337993D01*
X0399500Y0337869D01*
X0400124Y0337993D01*
X0400654Y0338347D01*
X0401007Y0338876D01*
X0401131Y0339500D01*
X0401007Y0340124D01*
X0400654Y0340653D01*
X0400124Y0341007D01*
X0399500Y0341131D01*
D02*
G37*
G36*
X0414500D02*
X0413876Y0341007D01*
X0413346Y0340653D01*
X0412993Y0340124D01*
X0412869Y0339500D01*
X0412993Y0338876D01*
X0413346Y0338347D01*
X0413876Y0337993D01*
X0414500Y0337869D01*
X0415124Y0337993D01*
X0415654Y0338347D01*
X0416007Y0338876D01*
X0416131Y0339500D01*
X0416007Y0340124D01*
X0415654Y0340653D01*
X0415124Y0341007D01*
X0414500Y0341131D01*
D02*
G37*
G36*
X0397626Y0374554D02*
Y0370500D01*
Y0366446D01*
X0397709Y0366457D01*
X0398719Y0366875D01*
X0399586Y0367540D01*
X0400251Y0368407D01*
X0400509Y0369030D01*
X0401050D01*
X0401224Y0368609D01*
X0401826Y0367826D01*
X0402609Y0367224D01*
X0403521Y0366846D01*
X0404500Y0366718D01*
X0405479Y0366846D01*
X0406391Y0367224D01*
X0407174Y0367826D01*
X0407776Y0368609D01*
X0408153Y0369521D01*
X0408282Y0370500D01*
X0408153Y0371479D01*
X0407776Y0372391D01*
X0407174Y0373175D01*
X0406391Y0373776D01*
X0405479Y0374153D01*
X0404500Y0374282D01*
X0403521Y0374153D01*
X0402609Y0373776D01*
X0401826Y0373175D01*
X0401224Y0372391D01*
X0401050Y0371970D01*
X0400509D01*
X0400251Y0372593D01*
X0399586Y0373460D01*
X0398719Y0374125D01*
X0397709Y0374543D01*
X0397626Y0374554D01*
D02*
G37*
G36*
X0395626D02*
X0395543Y0374543D01*
X0394533Y0374125D01*
X0393666Y0373460D01*
X0393001Y0372593D01*
X0392583Y0371583D01*
X0392572Y0371500D01*
X0395626D01*
Y0374554D01*
D02*
G37*
G36*
X0337500Y0352282D02*
X0336521Y0352153D01*
X0335609Y0351776D01*
X0334825Y0351174D01*
X0334224Y0350391D01*
X0333846Y0349479D01*
X0333718Y0348500D01*
X0333846Y0347521D01*
X0334224Y0346609D01*
X0334825Y0345826D01*
X0335609Y0345224D01*
X0336030Y0345050D01*
Y0344509D01*
X0335407Y0344251D01*
X0334540Y0343586D01*
X0333875Y0342719D01*
X0333457Y0341709D01*
X0333446Y0341626D01*
X0337500D01*
X0341554D01*
X0341543Y0341709D01*
X0341125Y0342719D01*
X0340460Y0343586D01*
X0339593Y0344251D01*
X0338970Y0344509D01*
Y0345050D01*
X0339391Y0345224D01*
X0340175Y0345826D01*
X0340776Y0346609D01*
X0341154Y0347521D01*
X0341282Y0348500D01*
X0341154Y0349479D01*
X0340776Y0350391D01*
X0340175Y0351174D01*
X0339391Y0351776D01*
X0338479Y0352153D01*
X0337500Y0352282D01*
D02*
G37*
G36*
X0395626Y0369500D02*
X0392572D01*
X0392583Y0369417D01*
X0393001Y0368407D01*
X0393666Y0367540D01*
X0394533Y0366875D01*
X0395543Y0366457D01*
X0395626Y0366446D01*
Y0369500D01*
D02*
G37*
G36*
X0379500Y0341131D02*
X0378876Y0341007D01*
X0378346Y0340653D01*
X0377993Y0340124D01*
X0377869Y0339500D01*
X0377993Y0338876D01*
X0378346Y0338347D01*
X0378876Y0337993D01*
X0379500Y0337869D01*
X0380124Y0337993D01*
X0380654Y0338347D01*
X0381007Y0338876D01*
X0381131Y0339500D01*
X0381007Y0340124D01*
X0380654Y0340653D01*
X0380124Y0341007D01*
X0379500Y0341131D01*
D02*
G37*
G36*
X0399500Y0336131D02*
X0398876Y0336007D01*
X0398346Y0335653D01*
X0397993Y0335124D01*
X0397869Y0334500D01*
X0397993Y0333876D01*
X0398346Y0333347D01*
X0398876Y0332993D01*
X0399500Y0332869D01*
X0400124Y0332993D01*
X0400654Y0333347D01*
X0401007Y0333876D01*
X0401131Y0334500D01*
X0401007Y0335124D01*
X0400654Y0335653D01*
X0400124Y0336007D01*
X0399500Y0336131D01*
D02*
G37*
G36*
X0404500D02*
X0403876Y0336007D01*
X0403346Y0335653D01*
X0402993Y0335124D01*
X0402869Y0334500D01*
X0402993Y0333876D01*
X0403346Y0333347D01*
X0403876Y0332993D01*
X0404500Y0332869D01*
X0405124Y0332993D01*
X0405653Y0333347D01*
X0406007Y0333876D01*
X0406131Y0334500D01*
X0406007Y0335124D01*
X0405653Y0335653D01*
X0405124Y0336007D01*
X0404500Y0336131D01*
D02*
G37*
G36*
X0379500D02*
X0378876Y0336007D01*
X0378346Y0335653D01*
X0377993Y0335124D01*
X0377869Y0334500D01*
X0377993Y0333876D01*
X0378346Y0333347D01*
X0378876Y0332993D01*
X0379500Y0332869D01*
X0380124Y0332993D01*
X0380654Y0333347D01*
X0381007Y0333876D01*
X0381131Y0334500D01*
X0381007Y0335124D01*
X0380654Y0335653D01*
X0380124Y0336007D01*
X0379500Y0336131D01*
D02*
G37*
G36*
X0394500D02*
X0393876Y0336007D01*
X0393347Y0335653D01*
X0392993Y0335124D01*
X0392869Y0334500D01*
X0392993Y0333876D01*
X0393347Y0333347D01*
X0393876Y0332993D01*
X0394500Y0332869D01*
X0395124Y0332993D01*
X0395654Y0333347D01*
X0396007Y0333876D01*
X0396131Y0334500D01*
X0396007Y0335124D01*
X0395654Y0335653D01*
X0395124Y0336007D01*
X0394500Y0336131D01*
D02*
G37*
G36*
X0409500D02*
X0408876Y0336007D01*
X0408347Y0335653D01*
X0407993Y0335124D01*
X0407869Y0334500D01*
X0407993Y0333876D01*
X0408347Y0333347D01*
X0408876Y0332993D01*
X0409500Y0332869D01*
X0410124Y0332993D01*
X0410653Y0333347D01*
X0411007Y0333876D01*
X0411131Y0334500D01*
X0411007Y0335124D01*
X0410653Y0335653D01*
X0410124Y0336007D01*
X0409500Y0336131D01*
D02*
G37*
G36*
X0369500Y0341131D02*
X0368876Y0341007D01*
X0368347Y0340653D01*
X0367993Y0340124D01*
X0367869Y0339500D01*
X0367993Y0338876D01*
X0368347Y0338347D01*
X0368876Y0337993D01*
X0369500Y0337869D01*
X0370124Y0337993D01*
X0370654Y0338347D01*
X0371007Y0338876D01*
X0371131Y0339500D01*
X0371007Y0340124D01*
X0370654Y0340653D01*
X0370124Y0341007D01*
X0369500Y0341131D01*
D02*
G37*
G36*
X0374500D02*
X0373876Y0341007D01*
X0373346Y0340653D01*
X0372993Y0340124D01*
X0372869Y0339500D01*
X0372993Y0338876D01*
X0373346Y0338347D01*
X0373876Y0337993D01*
X0374500Y0337869D01*
X0375124Y0337993D01*
X0375654Y0338347D01*
X0376007Y0338876D01*
X0376131Y0339500D01*
X0376007Y0340124D01*
X0375654Y0340653D01*
X0375124Y0341007D01*
X0374500Y0341131D01*
D02*
G37*
G36*
X0414500Y0336131D02*
X0413876Y0336007D01*
X0413346Y0335653D01*
X0412993Y0335124D01*
X0412869Y0334500D01*
X0412993Y0333876D01*
X0413346Y0333347D01*
X0413876Y0332993D01*
X0414500Y0332869D01*
X0415124Y0332993D01*
X0415654Y0333347D01*
X0416007Y0333876D01*
X0416131Y0334500D01*
X0416007Y0335124D01*
X0415654Y0335653D01*
X0415124Y0336007D01*
X0414500Y0336131D01*
D02*
G37*
G36*
X0364500Y0341131D02*
X0363876Y0341007D01*
X0363347Y0340653D01*
X0362993Y0340124D01*
X0362869Y0339500D01*
X0362993Y0338876D01*
X0363347Y0338347D01*
X0363876Y0337993D01*
X0364500Y0337869D01*
X0365124Y0337993D01*
X0365653Y0338347D01*
X0366007Y0338876D01*
X0366131Y0339500D01*
X0366007Y0340124D01*
X0365653Y0340653D01*
X0365124Y0341007D01*
X0364500Y0341131D01*
D02*
G37*
%LPD*%
D27*
X0392700Y0276500D02*
X0402300Y0286100D01*
X0338400Y0282400D02*
X0340000Y0284000D01*
X0340518Y0266400D02*
X0344418Y0262500D01*
X0358631D01*
X0344148Y0324852D02*
X0382202Y0286798D01*
X0337500Y0316952D02*
X0346280D01*
X0337500Y0324852D02*
X0344148D01*
X0379500Y0329000D02*
X0389000Y0319500D01*
X0414500D01*
X0389500Y0309500D02*
Y0319000D01*
X0381600Y0281900D02*
X0382000Y0281500D01*
X0381332Y0281900D02*
X0381600D01*
X0346280Y0316952D02*
X0381332Y0281900D01*
X0382202Y0284000D02*
Y0286798D01*
X0382000Y0281000D02*
Y0281500D01*
X0402300Y0286100D02*
Y0296346D01*
X0338400Y0270400D02*
Y0282400D01*
X0340518Y0266400D02*
X0340618Y0266500D01*
X0340400D02*
X0340618D01*
X0340400D02*
Y0266518D01*
D28*
X0338000Y0370000D02*
D03*
X0411000Y0266000D02*
D03*
D29*
X0337500Y0348500D02*
D03*
Y0340626D02*
D03*
Y0332752D02*
D03*
Y0324852D02*
D03*
Y0316952D02*
D03*
X0404500Y0370500D02*
D03*
X0396626D02*
D03*
D30*
X0396900Y0316900D02*
D03*
X0401900D02*
D03*
X0406800Y0317000D02*
D03*
X0407000Y0322100D02*
D03*
X0401900Y0321800D02*
D03*
X0396800Y0322100D02*
D03*
X0386800Y0337200D02*
D03*
X0386900Y0326900D02*
D03*
X0381900Y0321800D02*
D03*
X0386800Y0317300D02*
D03*
X0381700Y0312200D02*
D03*
X0376900Y0316900D02*
D03*
X0371900Y0322100D02*
D03*
Y0312000D02*
D03*
X0366900Y0317200D02*
D03*
X0379500Y0324500D02*
D03*
X0358631Y0262500D02*
D03*
X0414500Y0314500D02*
D03*
X0399500Y0309500D02*
D03*
X0409500D02*
D03*
Y0329500D02*
D03*
Y0334500D02*
D03*
X0414500Y0329500D02*
D03*
Y0334500D02*
D03*
Y0339500D02*
D03*
X0409500D02*
D03*
X0404500D02*
D03*
X0394500Y0329500D02*
D03*
X0399500D02*
D03*
X0404500D02*
D03*
Y0334500D02*
D03*
X0399500D02*
D03*
X0394500D02*
D03*
X0399500Y0339500D02*
D03*
X0394500D02*
D03*
X0374500Y0329500D02*
D03*
X0379500Y0334500D02*
D03*
X0374500D02*
D03*
X0369500D02*
D03*
X0364500D02*
D03*
X0379500Y0339500D02*
D03*
X0374500D02*
D03*
X0369500D02*
D03*
X0364500D02*
D03*
X0368300Y0291500D02*
D03*
X0364100D02*
D03*
X0361100D02*
D03*
Y0293700D02*
D03*
X0353000Y0364000D02*
D03*
X0357000D02*
D03*
X0361000D02*
D03*
X0365000D02*
D03*
X0369000D02*
D03*
X0373000D02*
D03*
X0377000D02*
D03*
Y0360000D02*
D03*
X0373000D02*
D03*
X0369000D02*
D03*
X0365000D02*
D03*
X0361000D02*
D03*
X0357000D02*
D03*
X0353000D02*
D03*
X0386000Y0262000D02*
D03*
X0390000D02*
D03*
X0394000D02*
D03*
X0398000D02*
D03*
X0386000Y0266000D02*
D03*
X0390000D02*
D03*
X0394000D02*
D03*
X0398000D02*
D03*
X0386000Y0270000D02*
D03*
X0390000D02*
D03*
X0394000D02*
D03*
X0398000D02*
D03*
X0354000Y0329366D02*
D03*
X0344500Y0331000D02*
D03*
Y0334500D02*
D03*
Y0338000D02*
D03*
Y0341500D02*
D03*
X0391500Y0371000D02*
D03*
X0397000Y0362000D02*
D03*
X0391500D02*
D03*
Y0366500D02*
D03*
X0385500Y0361500D02*
D03*
X0389988Y0351000D02*
D03*
X0383012D02*
D03*
X0394500Y0309500D02*
D03*
X0414500D02*
D03*
X0409500Y0314500D02*
D03*
X0404500Y0324500D02*
D03*
X0414500D02*
D03*
X0409500D02*
D03*
X0404500Y0314500D02*
D03*
X0399500D02*
D03*
Y0324500D02*
D03*
X0394500D02*
D03*
Y0314500D02*
D03*
X0389500Y0324500D02*
D03*
X0384500Y0334500D02*
D03*
Y0339500D02*
D03*
X0389500D02*
D03*
Y0334500D02*
D03*
Y0329500D02*
D03*
X0384500D02*
D03*
Y0319500D02*
D03*
Y0314500D02*
D03*
X0384000Y0309500D02*
D03*
X0379500D02*
D03*
Y0314500D02*
D03*
Y0319500D02*
D03*
X0374500Y0324500D02*
D03*
Y0319500D02*
D03*
Y0314500D02*
D03*
Y0309500D02*
D03*
X0369500D02*
D03*
X0364500D02*
D03*
Y0314500D02*
D03*
X0369500D02*
D03*
Y0319500D02*
D03*
X0364500D02*
D03*
Y0324500D02*
D03*
X0369500D02*
D03*
Y0329500D02*
D03*
X0364500D02*
D03*
X0336992Y0261000D02*
D03*
X0346000Y0274500D02*
D03*
Y0277000D02*
D03*
X0349500Y0265500D02*
D03*
X0347500D02*
D03*
X0349500Y0268000D02*
D03*
X0347500D02*
D03*
X0414500Y0319500D02*
D03*
X0379500Y0329000D02*
D03*
X0389500Y0309500D02*
D03*
X0340000Y0284000D02*
D03*
X0367642Y0260484D02*
D03*
X0377300Y0260750D02*
D03*
X0390000Y0274000D02*
D03*
X0386000D02*
D03*
X0382202Y0284000D02*
D03*
X0382000Y0281000D02*
D03*
X0392700Y0276500D02*
D03*
X0398000Y0274000D02*
D03*
X0394000D02*
D03*
X0404500Y0309500D02*
D03*
X0402760Y0281661D02*
D03*
X0402300Y0296346D02*
D03*
X0338400Y0270400D02*
D03*
X0340400Y0266500D02*
D03*
M02*
