G04 Layer_Color=8388736*
%FSAX25Y25*%
%MOIN*%
G70*
G01*
G75*
G04:AMPARAMS|DCode=19|XSize=25mil|YSize=50mil|CornerRadius=3.13mil|HoleSize=0mil|Usage=FLASHONLY|Rotation=180.000|XOffset=0mil|YOffset=0mil|HoleType=Round|Shape=RoundedRectangle|*
%AMROUNDEDRECTD19*
21,1,0.02500,0.04375,0,0,180.0*
21,1,0.01875,0.05000,0,0,180.0*
1,1,0.00625,-0.00937,0.02187*
1,1,0.00625,0.00937,0.02187*
1,1,0.00625,0.00937,-0.02187*
1,1,0.00625,-0.00937,-0.02187*
%
%ADD19ROUNDEDRECTD19*%
%ADD38R,0.04343X0.05524*%
%ADD39R,0.05524X0.04343*%
G04:AMPARAMS|DCode=40|XSize=90.68mil|YSize=236.35mil|CornerRadius=45.34mil|HoleSize=0mil|Usage=FLASHONLY|Rotation=0.000|XOffset=0mil|YOffset=0mil|HoleType=Round|Shape=RoundedRectangle|*
%AMROUNDEDRECTD40*
21,1,0.09068,0.14567,0,0,0.0*
21,1,0.00000,0.23635,0,0,0.0*
1,1,0.09068,0.00000,-0.07283*
1,1,0.09068,0.00000,-0.07283*
1,1,0.09068,0.00000,0.07283*
1,1,0.09068,0.00000,0.07283*
%
%ADD40ROUNDEDRECTD40*%
%ADD41R,0.02768X0.02847*%
%ADD42O,0.06115X0.02572*%
%ADD43R,0.03300X0.03300*%
%ADD44R,0.04540X0.11036*%
%ADD45R,0.04540X0.10642*%
%ADD46R,0.02847X0.02768*%
%ADD47R,0.06666X0.10249*%
%ADD48R,0.04343X0.01784*%
%ADD49R,0.03556X0.04343*%
%ADD50R,0.04000X0.04400*%
%ADD51R,0.02965X0.02572*%
%ADD52R,0.02572X0.02965*%
%ADD53R,0.03950X0.03556*%
%ADD54C,0.15800*%
%ADD55C,0.07100*%
%ADD56C,0.01200*%
D19*
X0374248Y0287000D02*
D03*
X0377752D02*
D03*
X0364748D02*
D03*
X0368252D02*
D03*
X0374248Y0296000D02*
D03*
X0377752D02*
D03*
X0364748D02*
D03*
X0368252D02*
D03*
D38*
X0346134Y0276000D02*
D03*
X0337866D02*
D03*
D39*
X0354000Y0329366D02*
D03*
Y0337634D02*
D03*
D40*
X0355177Y0293000D02*
D03*
X0339823D02*
D03*
D41*
X0352272Y0276000D02*
D03*
X0355500D02*
D03*
D42*
X0402760Y0281661D02*
D03*
Y0284221D02*
D03*
Y0286780D02*
D03*
Y0289339D02*
D03*
X0385240Y0281661D02*
D03*
Y0284221D02*
D03*
Y0286780D02*
D03*
Y0289339D02*
D03*
D43*
X0364500Y0309500D02*
D03*
Y0314500D02*
D03*
Y0319500D02*
D03*
Y0324500D02*
D03*
Y0329500D02*
D03*
Y0334500D02*
D03*
Y0339500D02*
D03*
X0369500Y0309500D02*
D03*
Y0314500D02*
D03*
Y0319500D02*
D03*
Y0324500D02*
D03*
Y0329500D02*
D03*
Y0334500D02*
D03*
Y0339500D02*
D03*
X0374500Y0309500D02*
D03*
Y0314500D02*
D03*
Y0319500D02*
D03*
Y0324500D02*
D03*
Y0329500D02*
D03*
Y0334500D02*
D03*
Y0339500D02*
D03*
X0379500Y0309500D02*
D03*
Y0314500D02*
D03*
Y0319500D02*
D03*
Y0324500D02*
D03*
Y0329500D02*
D03*
Y0334500D02*
D03*
Y0339500D02*
D03*
X0384500Y0309500D02*
D03*
Y0314500D02*
D03*
Y0319500D02*
D03*
Y0324500D02*
D03*
Y0329500D02*
D03*
Y0334500D02*
D03*
Y0339500D02*
D03*
X0389500Y0309500D02*
D03*
Y0314500D02*
D03*
Y0319500D02*
D03*
Y0324500D02*
D03*
Y0329500D02*
D03*
Y0334500D02*
D03*
Y0339500D02*
D03*
X0394500Y0309500D02*
D03*
Y0314500D02*
D03*
Y0319500D02*
D03*
Y0324500D02*
D03*
Y0329500D02*
D03*
Y0334500D02*
D03*
Y0339500D02*
D03*
X0399500Y0309500D02*
D03*
Y0314500D02*
D03*
Y0319500D02*
D03*
Y0324500D02*
D03*
Y0329500D02*
D03*
Y0334500D02*
D03*
Y0339500D02*
D03*
X0404500Y0309500D02*
D03*
Y0314500D02*
D03*
Y0319500D02*
D03*
Y0324500D02*
D03*
Y0329500D02*
D03*
Y0334500D02*
D03*
Y0339500D02*
D03*
X0409500Y0309500D02*
D03*
Y0314500D02*
D03*
Y0319500D02*
D03*
Y0324500D02*
D03*
Y0329500D02*
D03*
Y0334500D02*
D03*
Y0339500D02*
D03*
X0414500Y0309500D02*
D03*
Y0314500D02*
D03*
Y0319500D02*
D03*
Y0324500D02*
D03*
Y0329500D02*
D03*
Y0334500D02*
D03*
Y0339500D02*
D03*
D44*
X0383012Y0351000D02*
D03*
X0401012D02*
D03*
D45*
X0371988D02*
D03*
X0389988D02*
D03*
D46*
X0409000Y0284228D02*
D03*
Y0281000D02*
D03*
X0405500Y0299886D02*
D03*
Y0303114D02*
D03*
X0415000Y0281114D02*
D03*
Y0284343D02*
D03*
D47*
X0348500Y0264500D02*
D03*
D48*
X0353992Y0260563D02*
D03*
Y0262532D02*
D03*
Y0264500D02*
D03*
Y0266469D02*
D03*
Y0268437D02*
D03*
X0343008Y0260563D02*
D03*
Y0262532D02*
D03*
Y0264500D02*
D03*
Y0266469D02*
D03*
Y0268437D02*
D03*
D49*
X0393744Y0302500D02*
D03*
X0399256D02*
D03*
D50*
X0411500Y0353900D02*
D03*
X0415300Y0345563D02*
D03*
X0407760D02*
D03*
D51*
X0336992Y0264543D02*
D03*
Y0261000D02*
D03*
D52*
X0367772Y0275700D02*
D03*
X0364228D02*
D03*
X0372228D02*
D03*
X0375772D02*
D03*
D53*
X0367642Y0266783D02*
D03*
Y0260484D02*
D03*
X0377300Y0267050D02*
D03*
Y0260750D02*
D03*
D54*
X0338000Y0370000D02*
D03*
X0411000Y0266000D02*
D03*
D55*
X0337500Y0348500D02*
D03*
Y0340626D02*
D03*
Y0332752D02*
D03*
Y0324852D02*
D03*
Y0316952D02*
D03*
X0404500Y0370500D02*
D03*
X0396626D02*
D03*
D56*
X0396900Y0316900D02*
D03*
X0401900D02*
D03*
X0406800Y0317000D02*
D03*
X0407000Y0322100D02*
D03*
X0401900Y0321800D02*
D03*
X0396800Y0322100D02*
D03*
X0386800Y0337200D02*
D03*
X0386900Y0326900D02*
D03*
X0381900Y0321800D02*
D03*
X0386800Y0317300D02*
D03*
X0381700Y0312200D02*
D03*
X0376900Y0316900D02*
D03*
X0371900Y0322100D02*
D03*
Y0312000D02*
D03*
X0366900Y0317200D02*
D03*
X0379500Y0324500D02*
D03*
X0358631Y0262500D02*
D03*
X0414500Y0314500D02*
D03*
X0399500Y0309500D02*
D03*
X0409500D02*
D03*
Y0329500D02*
D03*
Y0334500D02*
D03*
X0414500Y0329500D02*
D03*
Y0334500D02*
D03*
Y0339500D02*
D03*
X0409500D02*
D03*
X0404500D02*
D03*
X0394500Y0329500D02*
D03*
X0399500D02*
D03*
X0404500D02*
D03*
Y0334500D02*
D03*
X0399500D02*
D03*
X0394500D02*
D03*
X0399500Y0339500D02*
D03*
X0394500D02*
D03*
X0374500Y0329500D02*
D03*
X0379500Y0334500D02*
D03*
X0374500D02*
D03*
X0369500D02*
D03*
X0364500D02*
D03*
X0379500Y0339500D02*
D03*
X0374500D02*
D03*
X0369500D02*
D03*
X0364500D02*
D03*
X0368300Y0291500D02*
D03*
X0364100D02*
D03*
X0361100D02*
D03*
Y0293700D02*
D03*
X0353000Y0364000D02*
D03*
X0357000D02*
D03*
X0361000D02*
D03*
X0365000D02*
D03*
X0369000D02*
D03*
X0373000D02*
D03*
X0377000D02*
D03*
Y0360000D02*
D03*
X0373000D02*
D03*
X0369000D02*
D03*
X0365000D02*
D03*
X0361000D02*
D03*
X0357000D02*
D03*
X0353000D02*
D03*
X0386000Y0262000D02*
D03*
X0390000D02*
D03*
X0394000D02*
D03*
X0398000D02*
D03*
X0386000Y0266000D02*
D03*
X0390000D02*
D03*
X0394000D02*
D03*
X0398000D02*
D03*
X0386000Y0270000D02*
D03*
X0390000D02*
D03*
X0394000D02*
D03*
X0398000D02*
D03*
X0354000Y0329366D02*
D03*
X0344500Y0331000D02*
D03*
Y0334500D02*
D03*
Y0338000D02*
D03*
Y0341500D02*
D03*
X0391500Y0371000D02*
D03*
X0397000Y0362000D02*
D03*
X0391500D02*
D03*
Y0366500D02*
D03*
X0385500Y0361500D02*
D03*
X0389988Y0351000D02*
D03*
X0383012D02*
D03*
X0394500Y0309500D02*
D03*
X0414500D02*
D03*
X0409500Y0314500D02*
D03*
X0404500Y0324500D02*
D03*
X0414500D02*
D03*
X0409500D02*
D03*
X0404500Y0314500D02*
D03*
X0399500D02*
D03*
Y0324500D02*
D03*
X0394500D02*
D03*
Y0314500D02*
D03*
X0389500Y0324500D02*
D03*
X0384500Y0334500D02*
D03*
Y0339500D02*
D03*
X0389500D02*
D03*
Y0334500D02*
D03*
Y0329500D02*
D03*
X0384500D02*
D03*
Y0319500D02*
D03*
Y0314500D02*
D03*
X0384000Y0309500D02*
D03*
X0379500D02*
D03*
Y0314500D02*
D03*
Y0319500D02*
D03*
X0374500Y0324500D02*
D03*
Y0319500D02*
D03*
Y0314500D02*
D03*
Y0309500D02*
D03*
X0369500D02*
D03*
X0364500D02*
D03*
Y0314500D02*
D03*
X0369500D02*
D03*
Y0319500D02*
D03*
X0364500D02*
D03*
Y0324500D02*
D03*
X0369500D02*
D03*
Y0329500D02*
D03*
X0364500D02*
D03*
X0336992Y0261000D02*
D03*
X0346000Y0274500D02*
D03*
Y0277000D02*
D03*
X0349500Y0265500D02*
D03*
X0347500D02*
D03*
X0349500Y0268000D02*
D03*
X0347500D02*
D03*
X0414500Y0319500D02*
D03*
X0379500Y0329000D02*
D03*
X0389500Y0309500D02*
D03*
X0340000Y0284000D02*
D03*
X0367642Y0260484D02*
D03*
X0377300Y0260750D02*
D03*
X0390000Y0274000D02*
D03*
X0386000D02*
D03*
X0382202Y0284000D02*
D03*
X0382000Y0281000D02*
D03*
X0392700Y0276500D02*
D03*
X0398000Y0274000D02*
D03*
X0394000D02*
D03*
X0404500Y0309500D02*
D03*
X0402760Y0281661D02*
D03*
X0402300Y0296346D02*
D03*
X0338400Y0270400D02*
D03*
X0340400Y0266500D02*
D03*
M02*
