G04 Layer_Physical_Order=1*
G04 Layer_Color=255*
%FSAX25Y25*%
%MOIN*%
G70*
G01*
G75*
%ADD10R,0.03543X0.04724*%
%ADD11R,0.04724X0.03543*%
G04:AMPARAMS|DCode=12|XSize=82.68mil|YSize=228.35mil|CornerRadius=41.34mil|HoleSize=0mil|Usage=FLASHONLY|Rotation=0.000|XOffset=0mil|YOffset=0mil|HoleType=Round|Shape=RoundedRectangle|*
%AMROUNDEDRECTD12*
21,1,0.08268,0.14567,0,0,0.0*
21,1,0.00000,0.22835,0,0,0.0*
1,1,0.08268,0.00000,-0.07283*
1,1,0.08268,0.00000,-0.07283*
1,1,0.08268,0.00000,0.07283*
1,1,0.08268,0.00000,0.07283*
%
%ADD12ROUNDEDRECTD12*%
%ADD13R,0.01968X0.02047*%
%ADD14O,0.05315X0.01772*%
%ADD15R,0.02500X0.02500*%
%ADD16R,0.03740X0.10236*%
%ADD17R,0.03740X0.09842*%
%ADD18R,0.02047X0.01968*%
G04:AMPARAMS|DCode=19|XSize=25mil|YSize=50mil|CornerRadius=3.13mil|HoleSize=0mil|Usage=FLASHONLY|Rotation=180.000|XOffset=0mil|YOffset=0mil|HoleType=Round|Shape=RoundedRectangle|*
%AMROUNDEDRECTD19*
21,1,0.02500,0.04375,0,0,180.0*
21,1,0.01875,0.05000,0,0,180.0*
1,1,0.00625,-0.00937,0.02187*
1,1,0.00625,0.00937,0.02187*
1,1,0.00625,0.00937,-0.02187*
1,1,0.00625,-0.00937,-0.02187*
%
%ADD19ROUNDEDRECTD19*%
%ADD20R,0.05866X0.09449*%
%ADD21R,0.03543X0.00984*%
%ADD22R,0.02756X0.03543*%
%ADD23R,0.03200X0.03600*%
%ADD24R,0.02165X0.01772*%
%ADD25C,0.01000*%
%ADD26C,0.15000*%
%ADD27C,0.06300*%
%ADD28C,0.02000*%
G36*
X0419878Y0376535D02*
Y0348193D01*
X0419378Y0347993D01*
X0419000Y0348149D01*
X0411500D01*
X0411041Y0347959D01*
X0410851Y0347500D01*
Y0343149D01*
X0410296D01*
X0409962Y0343649D01*
X0410009Y0343763D01*
Y0347363D01*
X0409819Y0347822D01*
X0409360Y0348012D01*
X0406160D01*
X0405701Y0347822D01*
X0405510Y0347363D01*
Y0344900D01*
X0403707Y0343096D01*
X0403464Y0342732D01*
X0403378Y0342303D01*
X0403378Y0342303D01*
Y0341806D01*
X0403145Y0341681D01*
X0402649Y0341983D01*
Y0344731D01*
X0403459Y0345541D01*
X0403649Y0346000D01*
Y0356725D01*
X0404149Y0356932D01*
X0409541Y0351541D01*
X0410000Y0351351D01*
X0413000D01*
X0413459Y0351541D01*
X0413488Y0351611D01*
X0413559Y0351641D01*
X0413749Y0352100D01*
Y0355700D01*
X0413649Y0355941D01*
Y0368000D01*
X0413459Y0368459D01*
X0407959Y0373959D01*
X0407500Y0374149D01*
X0405489D01*
X0405479Y0374153D01*
X0404500Y0374282D01*
X0403521Y0374153D01*
X0403511Y0374149D01*
X0402500D01*
X0402041Y0373959D01*
X0401041Y0372959D01*
X0400851Y0372500D01*
Y0372452D01*
X0400351Y0372353D01*
X0400251Y0372593D01*
X0399586Y0373460D01*
X0398719Y0374125D01*
X0397709Y0374543D01*
X0397626Y0374554D01*
Y0373500D01*
X0398500D01*
X0399500Y0372500D01*
X0399500Y0367474D01*
X0399586Y0367540D01*
X0400251Y0368407D01*
X0400351Y0368647D01*
X0400851Y0368548D01*
Y0360500D01*
X0401041Y0360041D01*
X0402932Y0358149D01*
X0402725Y0357649D01*
X0393000D01*
X0392541Y0357459D01*
X0392471Y0357290D01*
X0392318Y0356996D01*
X0392000Y0356958D01*
X0392000Y0344941D01*
X0392351Y0344649D01*
Y0328000D01*
X0392541Y0327541D01*
X0393000Y0327351D01*
X0406000D01*
X0406459Y0327541D01*
X0406649Y0328000D01*
Y0336500D01*
X0406459Y0336959D01*
X0406000Y0337149D01*
X0405968D01*
X0405868Y0337649D01*
X0406209Y0337791D01*
X0406399Y0338250D01*
Y0340750D01*
X0406209Y0341209D01*
X0405759Y0341396D01*
X0405740Y0341473D01*
X0405682Y0341899D01*
X0406643Y0342860D01*
X0406963Y0342832D01*
X0407351Y0342500D01*
Y0328000D01*
X0407541Y0327541D01*
X0408000Y0327351D01*
X0416000D01*
X0416459Y0327541D01*
X0416649Y0328000D01*
Y0340231D01*
X0419378Y0342960D01*
X0419760Y0342873D01*
X0419878Y0342807D01*
Y0267676D01*
X0419378Y0267652D01*
X0419377Y0267666D01*
X0418891Y0269269D01*
X0418102Y0270745D01*
X0417039Y0272040D01*
X0415745Y0273102D01*
X0414268Y0273891D01*
X0412666Y0274377D01*
X0412000Y0274443D01*
Y0266000D01*
X0411000D01*
Y0265000D01*
X0402557D01*
X0402623Y0264334D01*
X0403109Y0262731D01*
X0403898Y0261255D01*
X0404960Y0259961D01*
X0406255Y0258898D01*
X0407731Y0258109D01*
X0409334Y0257623D01*
X0409348Y0257622D01*
X0409324Y0257121D01*
X0330465D01*
X0330121Y0257465D01*
Y0365679D01*
X0330607Y0365801D01*
X0330898Y0365255D01*
X0331961Y0363961D01*
X0333255Y0362898D01*
X0334731Y0362109D01*
X0336334Y0361623D01*
X0337000Y0361557D01*
Y0370000D01*
X0338000D01*
Y0371000D01*
X0346443D01*
X0346377Y0371666D01*
X0345891Y0373269D01*
X0345102Y0374745D01*
X0344040Y0376040D01*
X0342745Y0377102D01*
X0342199Y0377393D01*
X0342321Y0377878D01*
X0418535D01*
X0419878Y0376535D01*
D02*
G37*
G36*
X0419000Y0343500D02*
X0416000Y0340500D01*
Y0328000D01*
X0408000D01*
Y0342500D01*
X0411500D01*
Y0347500D01*
X0419000D01*
Y0343500D01*
D02*
G37*
G36*
X0403000Y0346000D02*
X0402000Y0345000D01*
Y0336500D01*
X0406000D01*
Y0328000D01*
X0393000D01*
Y0357000D01*
X0403000D01*
Y0346000D01*
D02*
G37*
G36*
X0413000Y0368000D02*
Y0352000D01*
X0410000D01*
X0401500Y0360500D01*
Y0372500D01*
X0402500Y0373500D01*
X0407500D01*
X0413000Y0368000D01*
D02*
G37*
%LPC*%
G36*
X0417040Y0280114D02*
X0416000D01*
Y0279110D01*
X0416024D01*
X0416414Y0279188D01*
X0416745Y0279409D01*
X0416966Y0279740D01*
X0417040Y0280114D01*
D02*
G37*
G36*
X0401760Y0280661D02*
X0399388D01*
X0399628Y0280302D01*
X0400252Y0279885D01*
X0400988Y0279739D01*
X0401760D01*
Y0280661D01*
D02*
G37*
G36*
X0414000Y0280114D02*
X0412960D01*
X0413034Y0279740D01*
X0413255Y0279409D01*
X0413586Y0279188D01*
X0413976Y0279110D01*
X0414000D01*
Y0280114D01*
D02*
G37*
G36*
X0411040Y0280000D02*
X0410000D01*
Y0278996D01*
X0410024D01*
X0410414Y0279074D01*
X0410745Y0279295D01*
X0410966Y0279626D01*
X0411040Y0280000D01*
D02*
G37*
G36*
X0408000D02*
X0406960D01*
X0407034Y0279626D01*
X0407255Y0279295D01*
X0407586Y0279074D01*
X0407976Y0278996D01*
X0408000D01*
Y0280000D01*
D02*
G37*
G36*
X0395122Y0305291D02*
X0394744D01*
Y0303500D01*
X0396142D01*
Y0304272D01*
X0396064Y0304662D01*
X0395843Y0304993D01*
X0395512Y0305214D01*
X0395122Y0305291D01*
D02*
G37*
G36*
X0362573Y0307500D02*
X0362860Y0307308D01*
X0363250Y0307230D01*
X0363500D01*
Y0307500D01*
X0362573D01*
D02*
G37*
G36*
X0392744Y0305291D02*
X0392366D01*
X0391976Y0305214D01*
X0391645Y0304993D01*
X0391424Y0304662D01*
X0391347Y0304272D01*
Y0303500D01*
X0392744D01*
Y0305291D01*
D02*
G37*
G36*
X0406131Y0280661D02*
X0403760D01*
Y0279739D01*
X0404531D01*
X0405267Y0279885D01*
X0405891Y0280302D01*
X0406131Y0280661D01*
D02*
G37*
G36*
X0400750Y0311399D02*
X0398250D01*
X0397791Y0311209D01*
X0397601Y0310750D01*
Y0308250D01*
X0397791Y0307791D01*
X0398250Y0307601D01*
X0398378D01*
Y0304921D01*
X0397878D01*
X0397419Y0304731D01*
X0397229Y0304272D01*
Y0300728D01*
X0397419Y0300269D01*
X0397878Y0300079D01*
X0400634D01*
X0401093Y0300269D01*
X0401283Y0300728D01*
Y0304272D01*
X0401093Y0304731D01*
X0400634Y0304921D01*
X0400622D01*
Y0307601D01*
X0400750D01*
X0401209Y0307791D01*
X0401399Y0308250D01*
Y0310750D01*
X0401209Y0311209D01*
X0400750Y0311399D01*
D02*
G37*
G36*
X0410000Y0274443D02*
X0409334Y0274377D01*
X0407731Y0273891D01*
X0406255Y0273102D01*
X0404960Y0272040D01*
X0403898Y0270745D01*
X0403109Y0269269D01*
X0402623Y0267666D01*
X0402557Y0267000D01*
X0410000D01*
Y0274443D01*
D02*
G37*
G36*
X0345134Y0275000D02*
X0343343D01*
Y0273638D01*
X0343420Y0273248D01*
X0343641Y0272917D01*
X0343972Y0272696D01*
X0344362Y0272618D01*
X0345134D01*
Y0275000D01*
D02*
G37*
G36*
X0339072Y0260000D02*
X0337992D01*
Y0259095D01*
X0338075D01*
X0338465Y0259172D01*
X0338796Y0259393D01*
X0339017Y0259724D01*
X0339072Y0260000D01*
D02*
G37*
G36*
X0342008Y0259563D02*
X0340373D01*
X0340515Y0259350D01*
X0340846Y0259129D01*
X0341236Y0259051D01*
X0342008D01*
Y0259563D01*
D02*
G37*
G36*
X0335992Y0260000D02*
X0334913D01*
X0334967Y0259724D01*
X0335189Y0259393D01*
X0335519Y0259172D01*
X0335910Y0259095D01*
X0335992D01*
Y0260000D01*
D02*
G37*
G36*
X0351272Y0278040D02*
X0350897Y0277966D01*
X0350566Y0277745D01*
X0350345Y0277414D01*
X0350268Y0277024D01*
Y0277000D01*
X0351272D01*
Y0278040D01*
D02*
G37*
G36*
X0347905Y0279382D02*
X0347134D01*
Y0277000D01*
X0348925D01*
Y0278362D01*
X0348847Y0278752D01*
X0348626Y0279083D01*
X0348296Y0279304D01*
X0347905Y0279382D01*
D02*
G37*
G36*
X0345134D02*
X0344362D01*
X0343972Y0279304D01*
X0343641Y0279083D01*
X0343420Y0278752D01*
X0343343Y0278362D01*
Y0277000D01*
X0345134D01*
Y0279382D01*
D02*
G37*
G36*
X0348925Y0275000D02*
X0347134D01*
Y0272618D01*
X0347905D01*
X0348296Y0272696D01*
X0348626Y0272917D01*
X0348847Y0273248D01*
X0348925Y0273638D01*
Y0275000D01*
D02*
G37*
G36*
X0351272D02*
X0350268D01*
Y0274976D01*
X0350345Y0274586D01*
X0350566Y0274255D01*
X0350897Y0274034D01*
X0351272Y0273960D01*
Y0275000D01*
D02*
G37*
G36*
X0365500Y0307500D02*
Y0307230D01*
X0365750D01*
X0366140Y0307308D01*
X0366427Y0307500D01*
X0365500D01*
D02*
G37*
G36*
X0416428Y0307500D02*
X0415500D01*
Y0307230D01*
X0415750D01*
X0416140Y0307308D01*
X0416428Y0307500D01*
D02*
G37*
G36*
X0390750Y0311399D02*
X0388250D01*
X0387791Y0311209D01*
X0387601Y0310750D01*
Y0308250D01*
X0387791Y0307791D01*
X0388250Y0307601D01*
X0390750D01*
X0391209Y0307791D01*
X0391399Y0308250D01*
Y0310750D01*
X0391209Y0311209D01*
X0390750Y0311399D01*
D02*
G37*
G36*
X0413500Y0307500D02*
X0412572D01*
X0412860Y0307308D01*
X0413250Y0307230D01*
X0413500D01*
Y0307500D01*
D02*
G37*
G36*
X0393500Y0307500D02*
X0392572D01*
X0392860Y0307308D01*
X0393250Y0307230D01*
X0393500D01*
Y0307500D01*
D02*
G37*
G36*
X0396427Y0307500D02*
X0395500D01*
Y0307230D01*
X0395750D01*
X0396140Y0307308D01*
X0396427Y0307500D01*
D02*
G37*
G36*
X0415750Y0321399D02*
X0413250D01*
X0412791Y0321209D01*
X0412601Y0320750D01*
Y0318250D01*
X0412791Y0317791D01*
X0413250Y0317601D01*
X0415750D01*
X0416209Y0317791D01*
X0416399Y0318250D01*
Y0320750D01*
X0416209Y0321209D01*
X0415750Y0321399D01*
D02*
G37*
G36*
X0346443Y0369000D02*
X0339000D01*
Y0361557D01*
X0339666Y0361623D01*
X0341269Y0362109D01*
X0342745Y0362898D01*
X0344040Y0363961D01*
X0345102Y0365255D01*
X0345891Y0366731D01*
X0346377Y0368334D01*
X0346443Y0369000D01*
D02*
G37*
G36*
X0395626Y0374554D02*
X0395543Y0374543D01*
X0394533Y0374125D01*
X0393719Y0373500D01*
X0395626D01*
Y0374554D01*
D02*
G37*
G36*
X0341500Y0357649D02*
X0341041Y0357459D01*
X0333041Y0349459D01*
X0332851Y0349000D01*
Y0345437D01*
X0332207Y0344793D01*
X0331964Y0344429D01*
X0331878Y0344000D01*
X0331878Y0344000D01*
Y0280866D01*
X0331878Y0280866D01*
X0331964Y0280437D01*
X0332207Y0280073D01*
X0335445Y0276835D01*
Y0273638D01*
X0335635Y0273179D01*
X0336094Y0272988D01*
X0336744D01*
Y0269052D01*
X0336744Y0269052D01*
X0336830Y0268623D01*
X0337073Y0268259D01*
X0338538Y0266795D01*
X0338538Y0266378D01*
X0338105Y0266066D01*
X0338075Y0266079D01*
X0335910D01*
X0335450Y0265888D01*
X0335260Y0265429D01*
Y0263658D01*
X0335405Y0263307D01*
X0335441Y0263158D01*
X0335335Y0262705D01*
X0335189Y0262607D01*
X0334967Y0262276D01*
X0334913Y0262000D01*
X0336992D01*
X0339072D01*
X0339017Y0262276D01*
X0338796Y0262607D01*
X0338745Y0263157D01*
X0338923Y0263422D01*
X0340321D01*
X0340587Y0263024D01*
Y0262039D01*
X0340657Y0261871D01*
X0340515Y0261776D01*
X0340373Y0261563D01*
X0340818D01*
X0341236Y0261390D01*
X0343008D01*
Y0260563D01*
X0344008D01*
Y0259051D01*
X0344779D01*
X0344840Y0259063D01*
X0344846Y0259055D01*
X0345177Y0258834D01*
X0345567Y0258756D01*
X0347500D01*
Y0264500D01*
Y0270244D01*
X0345567D01*
X0345177Y0270166D01*
X0344879Y0269968D01*
X0344829Y0269946D01*
X0344269Y0269981D01*
X0344153Y0270153D01*
X0343624Y0270507D01*
X0343000Y0270631D01*
X0342376Y0270507D01*
X0341846Y0270153D01*
X0341493Y0269624D01*
X0341484Y0269579D01*
X0341236D01*
X0340777Y0269388D01*
X0340587Y0268929D01*
Y0268625D01*
X0340087Y0268418D01*
X0338988Y0269517D01*
Y0272988D01*
X0339638D01*
X0340097Y0273179D01*
X0340287Y0273638D01*
Y0278362D01*
X0340097Y0278821D01*
X0339638Y0279012D01*
X0336440D01*
X0334121Y0281331D01*
Y0314373D01*
X0334622Y0314543D01*
X0334825Y0314278D01*
X0335609Y0313676D01*
X0336521Y0313299D01*
X0337500Y0313170D01*
X0338479Y0313299D01*
X0339391Y0313676D01*
X0340175Y0314278D01*
X0340378Y0314543D01*
X0340879Y0314373D01*
Y0309500D01*
X0340878Y0309500D01*
X0340964Y0309071D01*
X0341207Y0308707D01*
X0344553Y0305361D01*
X0344548Y0305352D01*
X0344548D01*
X0344270Y0304937D01*
X0343957Y0305067D01*
X0339626Y0305067D01*
X0339626Y0305066D01*
X0339238D01*
X0339177Y0305041D01*
X0339111Y0305054D01*
X0338351Y0304903D01*
X0338296Y0304866D01*
X0338229D01*
X0337513Y0304569D01*
X0337466Y0304522D01*
X0337400Y0304509D01*
X0336755Y0304078D01*
X0336719Y0304023D01*
X0336657Y0303997D01*
X0336109Y0303449D01*
X0336083Y0303388D01*
X0336028Y0303351D01*
X0335597Y0302706D01*
X0335584Y0302641D01*
X0335537Y0302594D01*
X0335240Y0301877D01*
Y0301811D01*
X0335204Y0301755D01*
X0335052Y0300995D01*
X0335065Y0300930D01*
X0335040Y0300868D01*
X0335040Y0300481D01*
X0335040Y0285520D01*
X0335040Y0285520D01*
X0335040Y0285520D01*
X0335040Y0285132D01*
X0335065Y0285070D01*
X0335052Y0285005D01*
X0335203Y0284244D01*
X0335240Y0284189D01*
Y0284123D01*
X0335537Y0283406D01*
X0335584Y0283359D01*
X0335597Y0283294D01*
X0336028Y0282649D01*
X0336083Y0282612D01*
X0336109Y0282551D01*
X0336657Y0282002D01*
X0336719Y0281977D01*
X0336756Y0281922D01*
X0337401Y0281491D01*
X0337466Y0281478D01*
X0337513Y0281431D01*
X0338229Y0281134D01*
X0338296D01*
X0338351Y0281097D01*
X0339112Y0280946D01*
X0339177Y0280959D01*
X0339238Y0280933D01*
X0339626Y0280933D01*
X0343957Y0280933D01*
X0343957Y0280933D01*
X0343957Y0280933D01*
X0344193Y0281031D01*
X0344413Y0281122D01*
X0344416Y0281123D01*
X0344606Y0281583D01*
X0344606Y0281583D01*
Y0304417D01*
X0344590Y0304456D01*
X0344978Y0304825D01*
X0345189Y0304724D01*
X0345553Y0304481D01*
X0345983Y0304396D01*
X0345983Y0304396D01*
X0350394D01*
Y0281582D01*
X0350473Y0281392D01*
X0350583Y0281126D01*
X0350584Y0281123D01*
X0351043Y0280933D01*
X0351043Y0280933D01*
X0354025Y0280933D01*
X0354379Y0280579D01*
Y0278032D01*
X0354231Y0277926D01*
X0353878Y0277810D01*
X0353646Y0277966D01*
X0353272Y0278040D01*
Y0276000D01*
Y0273960D01*
X0353646Y0274034D01*
X0353878Y0274190D01*
X0354231Y0274074D01*
X0354379Y0273968D01*
Y0271393D01*
X0354378Y0271393D01*
X0354464Y0270964D01*
X0354707Y0270600D01*
X0354896Y0270411D01*
X0354705Y0269949D01*
X0352221D01*
X0352160Y0269937D01*
X0352154Y0269945D01*
X0351823Y0270166D01*
X0351433Y0270244D01*
X0349500D01*
Y0264500D01*
Y0258756D01*
X0351433D01*
X0351823Y0258834D01*
X0352154Y0259055D01*
X0352375Y0259385D01*
X0352382Y0259421D01*
X0355764D01*
X0356223Y0259612D01*
X0356413Y0260071D01*
Y0260591D01*
X0356800Y0260909D01*
X0357000Y0260869D01*
X0357624Y0260993D01*
X0358154Y0261347D01*
X0358507Y0261876D01*
X0358631Y0262500D01*
X0358507Y0263124D01*
X0358154Y0263653D01*
X0357636Y0264000D01*
X0357562Y0264053D01*
X0357473Y0264544D01*
X0357657Y0264728D01*
X0357657Y0264728D01*
X0357900Y0265092D01*
X0357985Y0265521D01*
X0357985Y0265521D01*
Y0270029D01*
X0357985Y0270029D01*
X0357900Y0270458D01*
X0357657Y0270822D01*
X0356622Y0271858D01*
Y0274384D01*
X0356943Y0274517D01*
X0357134Y0274976D01*
Y0277024D01*
X0356943Y0277483D01*
X0356622Y0277616D01*
Y0281091D01*
X0356649Y0281097D01*
X0356704Y0281134D01*
X0356771D01*
X0357487Y0281431D01*
X0357535Y0281478D01*
X0357600Y0281491D01*
X0358244Y0281922D01*
X0358281Y0281977D01*
X0358343Y0282002D01*
X0358891Y0282551D01*
X0358917Y0282612D01*
X0358972Y0282649D01*
X0359403Y0283294D01*
X0359416Y0283359D01*
X0359463Y0283406D01*
X0359760Y0284123D01*
Y0284189D01*
X0359797Y0284245D01*
X0359948Y0285005D01*
X0359935Y0285071D01*
X0359961Y0285132D01*
X0359961Y0285520D01*
X0359961Y0285520D01*
Y0285977D01*
X0360422Y0286169D01*
X0363984Y0282607D01*
X0363984Y0282607D01*
X0364348Y0282364D01*
X0364777Y0282278D01*
X0371741D01*
X0375913Y0278107D01*
X0375913Y0278107D01*
X0376276Y0277864D01*
X0376706Y0277778D01*
X0376706Y0277779D01*
X0390900D01*
X0390900Y0277778D01*
X0391329Y0277864D01*
X0391693Y0278107D01*
X0396807Y0283221D01*
X0399161D01*
X0399428Y0282721D01*
X0399388Y0282661D01*
X0402760D01*
Y0281661D01*
D01*
Y0282661D01*
X0406131D01*
X0406091Y0282721D01*
X0406359Y0283221D01*
X0407127D01*
X0407279Y0282721D01*
X0407255Y0282705D01*
X0407034Y0282374D01*
X0406960Y0282000D01*
X0409000D01*
X0411040D01*
X0410966Y0282374D01*
X0410745Y0282705D01*
X0410721Y0282721D01*
X0410873Y0283221D01*
X0412968D01*
X0413073Y0283074D01*
X0413190Y0282721D01*
X0413034Y0282489D01*
X0412960Y0282114D01*
X0415000D01*
X0417040D01*
X0416966Y0282489D01*
X0416745Y0282819D01*
X0416514Y0282974D01*
X0416673Y0283358D01*
Y0285327D01*
X0416483Y0285786D01*
X0416024Y0285976D01*
X0413976D01*
X0413517Y0285786D01*
X0413384Y0285464D01*
X0410569D01*
X0410483Y0285672D01*
X0410024Y0285862D01*
X0407976D01*
X0407517Y0285672D01*
X0407431Y0285464D01*
X0406041D01*
X0405774Y0285964D01*
X0405931Y0286200D01*
X0406046Y0286780D01*
X0405931Y0287359D01*
X0405692Y0287717D01*
X0405863Y0288157D01*
X0405913Y0288217D01*
X0406260D01*
X0406260Y0288217D01*
X0406689Y0288302D01*
X0407053Y0288545D01*
X0418893Y0300386D01*
X0418893Y0300386D01*
X0419136Y0300750D01*
X0419222Y0301179D01*
X0419222Y0301179D01*
Y0313100D01*
X0419222Y0313100D01*
X0419136Y0313529D01*
X0418893Y0313893D01*
X0418893Y0313893D01*
X0417493Y0315293D01*
X0417129Y0315536D01*
X0416700Y0315622D01*
X0416399Y0315750D01*
X0416209Y0316209D01*
X0415750Y0316399D01*
X0413250D01*
X0412791Y0316209D01*
X0412601Y0315750D01*
Y0313250D01*
X0412778Y0312822D01*
X0412822Y0312778D01*
X0413250Y0312601D01*
X0415750D01*
X0416209Y0312791D01*
X0416679Y0312795D01*
X0416978Y0312532D01*
Y0312000D01*
X0417000D01*
Y0307500D01*
X0416611D01*
X0416978Y0307389D01*
Y0301643D01*
X0405795Y0290460D01*
X0405527D01*
X0405111Y0290738D01*
X0404531Y0290854D01*
X0400988D01*
X0400408Y0290738D01*
X0399917Y0290410D01*
X0399588Y0289918D01*
X0399473Y0289339D01*
X0399588Y0288759D01*
X0399832Y0288395D01*
X0399884Y0288059D01*
X0399832Y0287723D01*
X0399588Y0287359D01*
X0399473Y0286780D01*
X0399588Y0286200D01*
X0399746Y0285964D01*
X0399479Y0285464D01*
X0396343D01*
X0396343Y0285464D01*
X0395913Y0285379D01*
X0395550Y0285136D01*
X0395550Y0285136D01*
X0390435Y0280022D01*
X0388132D01*
X0387980Y0280521D01*
X0388083Y0280590D01*
X0388411Y0281082D01*
X0388527Y0281661D01*
X0388411Y0282241D01*
X0388083Y0282733D01*
Y0283149D01*
X0388411Y0283641D01*
X0388527Y0284221D01*
X0388411Y0284800D01*
X0388168Y0285164D01*
X0388116Y0285500D01*
X0388168Y0285836D01*
X0388411Y0286200D01*
X0388527Y0286780D01*
X0388411Y0287359D01*
X0388168Y0287723D01*
X0388116Y0288059D01*
X0388168Y0288395D01*
X0388411Y0288759D01*
X0388527Y0289339D01*
X0388411Y0289918D01*
X0388083Y0290410D01*
X0387592Y0290738D01*
X0387012Y0290854D01*
X0383469D01*
X0382889Y0290738D01*
X0382473Y0290460D01*
X0382126D01*
X0381224Y0291363D01*
Y0298773D01*
X0381224Y0298773D01*
X0381138Y0299202D01*
X0380895Y0299566D01*
X0380895Y0299566D01*
X0379668Y0300793D01*
X0379304Y0301036D01*
X0378875Y0301122D01*
X0378874Y0301121D01*
X0374248D01*
X0373819Y0301036D01*
X0373455Y0300793D01*
X0373212Y0300429D01*
X0373127Y0300000D01*
Y0299081D01*
X0372955Y0299047D01*
X0372653Y0298845D01*
X0372451Y0298544D01*
X0372380Y0298187D01*
Y0297122D01*
X0370120D01*
Y0298187D01*
X0370049Y0298544D01*
X0369847Y0298845D01*
X0369546Y0299047D01*
X0369190Y0299118D01*
X0367315D01*
X0366958Y0299047D01*
X0366856Y0298978D01*
X0366500Y0298886D01*
X0366144Y0298978D01*
X0366041Y0299047D01*
X0365686Y0299118D01*
X0363810D01*
X0363454Y0299047D01*
X0363153Y0298845D01*
X0362951Y0298544D01*
X0362880Y0298187D01*
Y0297122D01*
X0359961D01*
X0359961Y0300868D01*
X0359935Y0300929D01*
X0359948Y0300994D01*
X0359797Y0301755D01*
X0359760Y0301810D01*
X0359760Y0301877D01*
X0359463Y0302593D01*
X0359416Y0302640D01*
X0359403Y0302706D01*
X0358972Y0303350D01*
X0358917Y0303387D01*
X0358892Y0303449D01*
X0358445Y0303896D01*
X0358580Y0304367D01*
X0358590Y0304384D01*
X0358601Y0304396D01*
X0384518D01*
X0392207Y0296707D01*
X0392207Y0296707D01*
X0392571Y0296464D01*
X0393000Y0296378D01*
X0393000Y0296378D01*
X0407000D01*
X0407000Y0296378D01*
X0407429Y0296464D01*
X0407793Y0296707D01*
X0410293Y0299207D01*
X0410293Y0299207D01*
X0410536Y0299571D01*
X0410622Y0300000D01*
Y0307601D01*
X0410750D01*
X0411209Y0307791D01*
X0411399Y0308250D01*
Y0310750D01*
X0411222Y0311178D01*
X0411178Y0311222D01*
X0410750Y0311399D01*
X0408250D01*
X0407791Y0311209D01*
X0407601Y0310750D01*
Y0308250D01*
X0407791Y0307791D01*
X0408250Y0307601D01*
X0408379D01*
Y0300465D01*
X0408005Y0300091D01*
X0407543Y0300283D01*
Y0300870D01*
X0407466Y0301260D01*
X0407245Y0301591D01*
X0407014Y0301745D01*
X0407173Y0302130D01*
Y0304099D01*
X0406983Y0304558D01*
X0406524Y0304748D01*
X0405621D01*
Y0307601D01*
X0405750D01*
X0406209Y0307791D01*
X0406399Y0308250D01*
Y0310750D01*
X0406209Y0311209D01*
X0405750Y0311399D01*
X0403250D01*
X0402791Y0311209D01*
X0402601Y0310750D01*
Y0308250D01*
X0402791Y0307791D01*
X0403250Y0307601D01*
X0403378D01*
Y0304114D01*
X0403378Y0304114D01*
X0403464Y0303685D01*
X0403707Y0303321D01*
X0403827Y0303201D01*
Y0302130D01*
X0403986Y0301745D01*
X0403755Y0301591D01*
X0403534Y0301260D01*
X0403460Y0300886D01*
X0405500D01*
Y0298886D01*
X0403444D01*
X0403227Y0298622D01*
X0393465D01*
X0392839Y0299247D01*
X0393031Y0299709D01*
X0395122D01*
X0395512Y0299786D01*
X0395843Y0300007D01*
X0396064Y0300338D01*
X0396142Y0300728D01*
Y0301500D01*
X0391347D01*
Y0301393D01*
X0390884Y0301202D01*
X0385776Y0306311D01*
X0385412Y0306554D01*
X0384982Y0306639D01*
X0384982Y0306639D01*
X0346447D01*
X0343122Y0309965D01*
Y0328252D01*
X0343122Y0328252D01*
X0343036Y0328681D01*
X0342793Y0329045D01*
X0342793Y0329045D01*
X0340835Y0331003D01*
X0341154Y0331773D01*
X0341282Y0332752D01*
X0341154Y0333731D01*
X0340776Y0334643D01*
X0340175Y0335426D01*
X0339391Y0336028D01*
X0338970Y0336202D01*
Y0336730D01*
X0338500Y0337200D01*
X0336300D01*
X0334400Y0339100D01*
Y0342200D01*
X0336200Y0344000D01*
X0340165D01*
X0340284Y0344351D01*
X0348851D01*
Y0337100D01*
X0349041Y0336641D01*
X0353024Y0332657D01*
X0352817Y0332157D01*
X0351943D01*
X0352600Y0331500D01*
X0357310Y0331500D01*
X0357304Y0331528D01*
X0357155Y0331750D01*
X0357286Y0332130D01*
X0357377Y0332251D01*
X0363105Y0332250D01*
X0363154Y0331750D01*
X0362860Y0331692D01*
X0362573Y0331500D01*
X0371500Y0331500D01*
X0371500Y0325800D01*
X0383000D01*
Y0341856D01*
X0382649Y0342107D01*
Y0344000D01*
X0382499Y0344362D01*
X0382709Y0344862D01*
X0383000D01*
Y0345000D01*
X0380393D01*
X0380286Y0344649D01*
X0374849Y0344649D01*
Y0357000D01*
X0374659Y0357459D01*
X0374200Y0357649D01*
X0341500Y0357649D01*
D02*
G37*
G36*
X0413500Y0322500D02*
X0412572D01*
X0412860Y0322308D01*
X0413250Y0322230D01*
X0413500D01*
Y0322500D01*
D02*
G37*
G36*
X0416428D02*
X0415500D01*
Y0322230D01*
X0415750D01*
X0416140Y0322308D01*
X0416428Y0322500D01*
D02*
G37*
G36*
X0370500Y0307500D02*
Y0307230D01*
X0370750D01*
X0371140Y0307308D01*
X0371427Y0307500D01*
X0370500D01*
D02*
G37*
G36*
X0367572D02*
X0367860Y0307308D01*
X0368250Y0307230D01*
X0368500D01*
Y0307500D01*
X0367572D01*
D02*
G37*
G36*
X0372572D02*
X0372860Y0307308D01*
X0373250Y0307230D01*
X0373500D01*
Y0307500D01*
X0372572D01*
D02*
G37*
G36*
X0375500Y0307500D02*
Y0307230D01*
X0375750D01*
X0376140Y0307308D01*
X0376428Y0307500D01*
X0375500D01*
D02*
G37*
G36*
X0385500Y0307500D02*
Y0307230D01*
X0385750D01*
X0386140Y0307308D01*
X0386427Y0307500D01*
X0385500D01*
D02*
G37*
G36*
X0382573Y0307500D02*
X0382860Y0307308D01*
X0383250Y0307230D01*
X0383500D01*
Y0307500D01*
X0382573Y0307500D01*
D02*
G37*
G36*
X0377572D02*
X0377860Y0307308D01*
X0378250Y0307230D01*
X0378500D01*
Y0307500D01*
X0377572D01*
D02*
G37*
G36*
X0380500D02*
Y0307230D01*
X0380750D01*
X0381140Y0307308D01*
X0381428Y0307500D01*
X0380500D01*
D02*
G37*
%LPD*%
G36*
X0374200Y0357000D02*
Y0344000D01*
X0382000Y0344000D01*
X0382000Y0327000D01*
X0372500Y0327000D01*
X0372500Y0332900D01*
X0353700Y0332900D01*
X0349500Y0337100D01*
Y0345000D01*
X0333500D01*
Y0349000D01*
X0341500Y0357000D01*
X0374200Y0357000D01*
D02*
G37*
G36*
X0355375Y0304417D02*
X0355762Y0304417D01*
X0356523Y0304266D01*
X0357239Y0303969D01*
X0357884Y0303538D01*
X0358432Y0302990D01*
X0358863Y0302345D01*
X0359160Y0301628D01*
X0359311Y0300868D01*
Y0300480D01*
X0359311Y0285520D01*
X0359311Y0285520D01*
X0359311Y0285132D01*
X0359160Y0284371D01*
X0358863Y0283655D01*
X0358432Y0283010D01*
X0357884Y0282462D01*
X0357239Y0282031D01*
X0356522Y0281734D01*
X0355762Y0281583D01*
X0355374Y0281583D01*
X0351043Y0281582D01*
Y0304417D01*
X0355374Y0304417D01*
X0355375Y0304417D01*
D02*
G37*
G36*
X0343957Y0281583D02*
X0339626Y0281583D01*
X0339238Y0281583D01*
X0338478Y0281734D01*
X0337761Y0282031D01*
X0337117Y0282462D01*
X0336568Y0283010D01*
X0336137Y0283655D01*
X0335840Y0284371D01*
X0335689Y0285132D01*
X0335689Y0285520D01*
X0335689Y0285520D01*
X0335689Y0300481D01*
X0335689Y0300868D01*
X0335840Y0301629D01*
X0336137Y0302345D01*
X0336568Y0302990D01*
X0337116Y0303538D01*
X0337761Y0303969D01*
X0338477Y0304266D01*
X0339238Y0304417D01*
X0339626D01*
X0339626Y0304417D01*
X0343957Y0304417D01*
Y0281583D01*
D02*
G37*
G36*
X0378752Y0292423D02*
X0378980Y0292235D01*
Y0290978D01*
X0378867Y0290801D01*
X0378752Y0290703D01*
Y0287000D01*
X0376752D01*
Y0290513D01*
X0376302Y0290424D01*
X0375868Y0290134D01*
X0375851Y0290109D01*
X0375541Y0290047D01*
X0375185Y0290118D01*
X0373310D01*
X0372955Y0290047D01*
X0372653Y0289845D01*
X0372451Y0289544D01*
X0372380Y0289188D01*
Y0288122D01*
X0370120D01*
Y0289188D01*
X0370049Y0289544D01*
X0369847Y0289845D01*
X0369546Y0290047D01*
X0369190Y0290118D01*
X0367315D01*
X0366958Y0290047D01*
X0366856Y0289979D01*
X0366500Y0289886D01*
X0366144Y0289979D01*
X0366041Y0290047D01*
X0365686Y0290118D01*
X0363810D01*
X0363455Y0290047D01*
X0363153Y0289845D01*
X0362951Y0289544D01*
X0362880Y0289188D01*
Y0287537D01*
X0362418Y0287345D01*
X0359961Y0289803D01*
X0359961Y0294879D01*
X0362880D01*
Y0293812D01*
X0362951Y0293457D01*
X0363153Y0293155D01*
X0363454Y0292953D01*
X0363810Y0292882D01*
X0365686D01*
X0366041Y0292953D01*
X0366144Y0293021D01*
X0366500Y0293114D01*
X0366856Y0293021D01*
X0366958Y0292953D01*
X0367315Y0292882D01*
X0369190D01*
X0369546Y0292953D01*
X0369847Y0293155D01*
X0370049Y0293457D01*
X0370120Y0293812D01*
Y0294879D01*
X0372380D01*
Y0293812D01*
X0372451Y0293457D01*
X0372653Y0293155D01*
X0372955Y0292953D01*
X0373310Y0292882D01*
X0375185D01*
X0375541Y0292953D01*
X0375851Y0292891D01*
X0375868Y0292866D01*
X0376302Y0292576D01*
X0376752Y0292487D01*
Y0296000D01*
X0378752D01*
Y0292423D01*
D02*
G37*
D10*
X0346134Y0276000D02*
D03*
X0337866D02*
D03*
D11*
X0354000Y0329366D02*
D03*
Y0337634D02*
D03*
D12*
X0355177Y0293000D02*
D03*
X0339823D02*
D03*
D13*
X0352272Y0276000D02*
D03*
X0355500D02*
D03*
D14*
X0402760Y0281661D02*
D03*
Y0284221D02*
D03*
Y0286780D02*
D03*
Y0289339D02*
D03*
X0385240Y0281661D02*
D03*
Y0284221D02*
D03*
Y0286780D02*
D03*
Y0289339D02*
D03*
D15*
X0364500Y0309500D02*
D03*
Y0314500D02*
D03*
Y0319500D02*
D03*
Y0324500D02*
D03*
Y0329500D02*
D03*
Y0334500D02*
D03*
Y0339500D02*
D03*
X0369500Y0309500D02*
D03*
Y0314500D02*
D03*
Y0319500D02*
D03*
Y0324500D02*
D03*
Y0329500D02*
D03*
Y0334500D02*
D03*
Y0339500D02*
D03*
X0374500Y0309500D02*
D03*
Y0314500D02*
D03*
Y0319500D02*
D03*
Y0324500D02*
D03*
Y0329500D02*
D03*
Y0334500D02*
D03*
Y0339500D02*
D03*
X0379500Y0309500D02*
D03*
Y0314500D02*
D03*
Y0319500D02*
D03*
Y0324500D02*
D03*
Y0329500D02*
D03*
Y0334500D02*
D03*
Y0339500D02*
D03*
X0384500Y0309500D02*
D03*
Y0314500D02*
D03*
Y0319500D02*
D03*
Y0324500D02*
D03*
Y0329500D02*
D03*
Y0334500D02*
D03*
Y0339500D02*
D03*
X0389500Y0309500D02*
D03*
Y0314500D02*
D03*
Y0319500D02*
D03*
Y0324500D02*
D03*
Y0329500D02*
D03*
Y0334500D02*
D03*
Y0339500D02*
D03*
X0394500Y0309500D02*
D03*
Y0314500D02*
D03*
Y0319500D02*
D03*
Y0324500D02*
D03*
Y0329500D02*
D03*
Y0334500D02*
D03*
Y0339500D02*
D03*
X0399500Y0309500D02*
D03*
Y0314500D02*
D03*
Y0319500D02*
D03*
Y0324500D02*
D03*
Y0329500D02*
D03*
Y0334500D02*
D03*
Y0339500D02*
D03*
X0404500Y0309500D02*
D03*
Y0314500D02*
D03*
Y0319500D02*
D03*
Y0324500D02*
D03*
Y0329500D02*
D03*
Y0334500D02*
D03*
Y0339500D02*
D03*
X0409500Y0309500D02*
D03*
Y0314500D02*
D03*
Y0319500D02*
D03*
Y0324500D02*
D03*
Y0329500D02*
D03*
Y0334500D02*
D03*
Y0339500D02*
D03*
X0414500Y0309500D02*
D03*
Y0314500D02*
D03*
Y0319500D02*
D03*
Y0324500D02*
D03*
Y0329500D02*
D03*
Y0334500D02*
D03*
Y0339500D02*
D03*
D16*
X0383012Y0351000D02*
D03*
X0401012D02*
D03*
D17*
X0371988D02*
D03*
X0389988D02*
D03*
D18*
X0409000Y0284228D02*
D03*
Y0281000D02*
D03*
X0405500Y0299886D02*
D03*
Y0303114D02*
D03*
X0415000Y0281114D02*
D03*
Y0284343D02*
D03*
D19*
X0374248Y0287000D02*
D03*
X0377752D02*
D03*
X0364748D02*
D03*
X0368252D02*
D03*
X0374248Y0296000D02*
D03*
X0377752D02*
D03*
X0364748D02*
D03*
X0368252D02*
D03*
D20*
X0348500Y0264500D02*
D03*
D21*
X0353992Y0260563D02*
D03*
Y0262532D02*
D03*
Y0264500D02*
D03*
Y0266469D02*
D03*
Y0268437D02*
D03*
X0343008Y0260563D02*
D03*
Y0262532D02*
D03*
Y0264500D02*
D03*
Y0266469D02*
D03*
Y0268437D02*
D03*
D22*
X0393744Y0302500D02*
D03*
X0399256D02*
D03*
D23*
X0411500Y0353900D02*
D03*
X0415300Y0345563D02*
D03*
X0407760D02*
D03*
D24*
X0336992Y0264543D02*
D03*
Y0261000D02*
D03*
D25*
X0397422Y0299628D02*
X0405500D01*
X0342000Y0309500D02*
Y0328252D01*
X0337500Y0332752D02*
X0342000Y0328252D01*
X0402760Y0284343D02*
X0415000D01*
X0396343D02*
X0402760D01*
X0355500Y0292677D02*
X0364777Y0283400D01*
X0390900Y0278900D02*
X0396343Y0284343D01*
X0376706Y0278900D02*
X0390900D01*
X0402760Y0284343D02*
Y0286780D01*
Y0284221D02*
Y0284343D01*
X0355177Y0293000D02*
X0355500Y0292677D01*
X0372206Y0283400D02*
X0376706Y0278900D01*
X0364777Y0283400D02*
X0372206D01*
X0404500Y0339500D02*
Y0342303D01*
X0407760Y0345563D01*
X0416700Y0314500D02*
X0418100Y0313100D01*
X0414500Y0314500D02*
X0416700D01*
X0418100Y0301179D02*
Y0313100D01*
X0406260Y0289339D02*
X0418100Y0301179D01*
X0409500Y0300000D02*
Y0309500D01*
X0407000Y0297500D02*
X0409500Y0300000D01*
X0393000Y0297500D02*
X0407000D01*
X0384982Y0305518D02*
X0393000Y0297500D01*
X0345983Y0305518D02*
X0384982D01*
X0384500Y0309500D02*
X0391500Y0302500D01*
X0393744D01*
X0394500Y0303256D02*
Y0309500D01*
X0393744Y0302500D02*
X0394551D01*
X0397422Y0299628D01*
X0405500D02*
Y0299886D01*
X0404500Y0304114D02*
X0405500Y0303114D01*
X0404500Y0304114D02*
Y0309500D01*
X0393744Y0302500D02*
X0394500Y0303256D01*
X0399256Y0302500D02*
X0399500Y0302744D01*
Y0309500D01*
X0333000Y0344000D02*
X0337500Y0348500D01*
X0333000Y0280866D02*
Y0344000D01*
X0342000Y0309500D02*
X0345983Y0305518D01*
X0382661Y0281661D02*
X0385240D01*
X0382000Y0281000D02*
X0382661Y0281661D01*
X0382202Y0284000D02*
X0385020D01*
X0385240Y0284221D01*
X0380102Y0284227D02*
Y0285373D01*
X0379275Y0283400D02*
X0380102Y0284227D01*
Y0285373D02*
X0381509Y0286780D01*
X0333000Y0280866D02*
X0337866Y0276000D01*
Y0269052D02*
X0340275Y0266643D01*
X0337866Y0269052D02*
Y0276000D01*
X0355500D02*
Y0292677D01*
X0355843Y0264500D02*
X0356864Y0265521D01*
X0353992Y0264500D02*
X0355843D01*
X0355500Y0271393D02*
Y0276000D01*
Y0271393D02*
X0356864Y0270029D01*
Y0265521D02*
Y0270029D01*
X0354024Y0262500D02*
X0357000D01*
X0353992Y0262532D02*
X0354024Y0262500D01*
X0350876Y0268437D02*
X0353992D01*
X0350500Y0268061D02*
X0350876Y0268437D01*
X0343008Y0260563D02*
X0346500D01*
X0340275Y0266643D02*
X0342833D01*
X0343008Y0266469D01*
X0336992Y0264543D02*
X0342464D01*
X0343000Y0268429D02*
Y0269000D01*
X0374248Y0296000D02*
Y0300000D01*
X0378875D01*
X0380102Y0298773D01*
Y0290898D02*
Y0298773D01*
X0377752Y0287000D02*
Y0296000D01*
X0368252D02*
X0374248D01*
X0343000Y0268429D02*
X0343008Y0268437D01*
X0381661Y0289339D02*
X0385240D01*
X0380102Y0290898D02*
X0381661Y0289339D01*
X0374468Y0283400D02*
Y0286780D01*
Y0283400D02*
X0379275D01*
X0381509Y0286780D02*
X0385240D01*
X0374248Y0287000D02*
X0374468Y0286780D01*
X0355177Y0293000D02*
X0358177Y0296000D01*
X0364748D01*
X0368252Y0287000D02*
X0374248D01*
X0402760Y0289339D02*
X0406260D01*
X0342464Y0264543D02*
X0342508Y0264500D01*
D26*
X0338000Y0370000D02*
D03*
X0411000Y0266000D02*
D03*
D27*
X0337500Y0348500D02*
D03*
Y0340626D02*
D03*
Y0332752D02*
D03*
Y0324852D02*
D03*
Y0316952D02*
D03*
X0404500Y0370500D02*
D03*
X0396626D02*
D03*
D28*
X0368300Y0291500D02*
D03*
X0364100D02*
D03*
X0361100D02*
D03*
Y0293700D02*
D03*
X0353000Y0364000D02*
D03*
X0357000D02*
D03*
X0361000D02*
D03*
X0365000D02*
D03*
X0369000D02*
D03*
X0373000D02*
D03*
X0377000D02*
D03*
Y0360000D02*
D03*
X0373000D02*
D03*
X0369000D02*
D03*
X0365000D02*
D03*
X0361000D02*
D03*
X0357000D02*
D03*
X0353000D02*
D03*
X0374000Y0262000D02*
D03*
X0378000D02*
D03*
X0382000D02*
D03*
X0386000D02*
D03*
X0390000D02*
D03*
X0394000D02*
D03*
X0398000D02*
D03*
X0374000Y0266000D02*
D03*
X0378000D02*
D03*
X0382000D02*
D03*
X0386000D02*
D03*
X0390000D02*
D03*
X0394000D02*
D03*
X0398000D02*
D03*
X0374000Y0270000D02*
D03*
X0378000D02*
D03*
X0382000D02*
D03*
X0386000D02*
D03*
X0390000D02*
D03*
X0394000D02*
D03*
X0398000D02*
D03*
Y0274000D02*
D03*
X0394000D02*
D03*
X0390000D02*
D03*
X0386000D02*
D03*
X0382000D02*
D03*
X0378000D02*
D03*
X0374000D02*
D03*
X0354000Y0329366D02*
D03*
X0344500Y0331000D02*
D03*
Y0334500D02*
D03*
Y0338000D02*
D03*
Y0341500D02*
D03*
X0391500Y0371000D02*
D03*
X0397000Y0362000D02*
D03*
X0391500D02*
D03*
Y0366500D02*
D03*
X0385500Y0361500D02*
D03*
X0389988Y0351000D02*
D03*
X0383012D02*
D03*
X0394500Y0309500D02*
D03*
X0414500D02*
D03*
X0409500Y0314500D02*
D03*
X0404500Y0324500D02*
D03*
X0414500D02*
D03*
X0409500D02*
D03*
X0404500Y0314500D02*
D03*
X0399500D02*
D03*
Y0324500D02*
D03*
X0394500D02*
D03*
Y0314500D02*
D03*
X0389500Y0324500D02*
D03*
X0384500Y0334500D02*
D03*
Y0339500D02*
D03*
X0389500D02*
D03*
Y0334500D02*
D03*
Y0329500D02*
D03*
X0384500D02*
D03*
Y0319500D02*
D03*
Y0314500D02*
D03*
X0384000Y0309500D02*
D03*
X0379500D02*
D03*
Y0314500D02*
D03*
Y0319500D02*
D03*
Y0324500D02*
D03*
X0374500D02*
D03*
Y0319500D02*
D03*
Y0314500D02*
D03*
Y0309500D02*
D03*
X0369500D02*
D03*
X0364500D02*
D03*
Y0314500D02*
D03*
X0369500D02*
D03*
Y0319500D02*
D03*
X0364500D02*
D03*
Y0324500D02*
D03*
X0369500D02*
D03*
Y0329500D02*
D03*
X0364500D02*
D03*
X0402760Y0281661D02*
D03*
X0336992Y0261000D02*
D03*
X0346000Y0274500D02*
D03*
Y0277000D02*
D03*
X0349500Y0265500D02*
D03*
X0347500D02*
D03*
X0349500Y0268000D02*
D03*
X0347500D02*
D03*
X0414500Y0319500D02*
D03*
X0379500Y0329000D02*
D03*
X0389500Y0309500D02*
D03*
X0382000Y0281000D02*
D03*
X0382202Y0284000D02*
D03*
X0357000Y0262500D02*
D03*
X0340275Y0266643D02*
D03*
X0343000Y0269000D02*
D03*
X0340000Y0284000D02*
D03*
M02*
