G04 Layer_Color=8388736*
%FSAX25Y25*%
%MOIN*%
G70*
G01*
G75*
G04:AMPARAMS|DCode=18|XSize=25mil|YSize=50mil|CornerRadius=3.13mil|HoleSize=0mil|Usage=FLASHONLY|Rotation=180.000|XOffset=0mil|YOffset=0mil|HoleType=Round|Shape=RoundedRectangle|*
%AMROUNDEDRECTD18*
21,1,0.02500,0.04375,0,0,180.0*
21,1,0.01875,0.05000,0,0,180.0*
1,1,0.00625,-0.00937,0.02187*
1,1,0.00625,0.00937,0.02187*
1,1,0.00625,0.00937,-0.02187*
1,1,0.00625,-0.00937,-0.02187*
%
%ADD18ROUNDEDRECTD18*%
%ADD36R,0.02847X0.02768*%
%ADD37R,0.02965X0.02572*%
%ADD38R,0.04540X0.11036*%
%ADD39R,0.04540X0.10642*%
%ADD40R,0.04000X0.04400*%
%ADD41R,0.03556X0.04343*%
%ADD42R,0.04343X0.01784*%
%ADD43R,0.06666X0.10249*%
%ADD44R,0.03300X0.03300*%
%ADD45O,0.06115X0.02572*%
%ADD46R,0.02768X0.02847*%
G04:AMPARAMS|DCode=47|XSize=90.68mil|YSize=236.35mil|CornerRadius=45.34mil|HoleSize=0mil|Usage=FLASHONLY|Rotation=0.000|XOffset=0mil|YOffset=0mil|HoleType=Round|Shape=RoundedRectangle|*
%AMROUNDEDRECTD47*
21,1,0.09068,0.14567,0,0,0.0*
21,1,0.00000,0.23635,0,0,0.0*
1,1,0.09068,0.00000,-0.07283*
1,1,0.09068,0.00000,-0.07283*
1,1,0.09068,0.00000,0.07283*
1,1,0.09068,0.00000,0.07283*
%
%ADD47ROUNDEDRECTD47*%
%ADD48R,0.05524X0.04343*%
%ADD49R,0.04343X0.05524*%
%ADD50C,0.07100*%
%ADD51C,0.15800*%
%ADD52C,0.01200*%
G36*
X0355375Y0304818D02*
X0355375Y0304818D01*
X0355763Y0304818D01*
X0355776Y0304817D01*
X0355789D01*
X0355802Y0304816D01*
X0355815Y0304815D01*
X0355828Y0304812D01*
X0355841Y0304811D01*
X0356601Y0304659D01*
X0356614Y0304656D01*
X0356627Y0304653D01*
X0356639Y0304649D01*
X0356652Y0304645D01*
X0356664Y0304641D01*
X0356676Y0304636D01*
X0357393Y0304339D01*
X0357405Y0304334D01*
X0357417Y0304329D01*
X0357428Y0304322D01*
X0357440Y0304316D01*
X0357451Y0304309D01*
X0357462Y0304302D01*
X0358107Y0303871D01*
X0358117Y0303863D01*
X0358128Y0303856D01*
X0358138Y0303848D01*
X0358148Y0303839D01*
X0358158Y0303830D01*
X0358168Y0303821D01*
X0358716Y0303273D01*
X0358724Y0303263D01*
X0358734Y0303254D01*
X0358742Y0303244D01*
X0358750Y0303234D01*
X0358758Y0303223D01*
X0358766Y0303212D01*
X0359196Y0302568D01*
X0359203Y0302556D01*
X0359210Y0302545D01*
X0359216Y0302534D01*
X0359223Y0302522D01*
X0359228Y0302510D01*
X0359233Y0302498D01*
X0359530Y0301782D01*
X0359534Y0301769D01*
X0359539Y0301757D01*
X0359543Y0301745D01*
X0359547Y0301732D01*
X0359550Y0301719D01*
X0359553Y0301707D01*
X0359704Y0300946D01*
X0359706Y0300933D01*
X0359708Y0300920D01*
X0359709Y0300907D01*
X0359711Y0300894D01*
Y0300881D01*
X0359712Y0300868D01*
Y0300480D01*
X0359712Y0285520D01*
X0359712Y0285519D01*
X0359712Y0285132D01*
X0359711Y0285119D01*
Y0285106D01*
X0359709Y0285093D01*
X0359708Y0285080D01*
X0359706Y0285067D01*
X0359704Y0285054D01*
X0359553Y0284293D01*
X0359549Y0284280D01*
X0359547Y0284268D01*
X0359543Y0284255D01*
X0359539Y0284243D01*
X0359534Y0284230D01*
X0359530Y0284218D01*
X0359233Y0283502D01*
X0359227Y0283490D01*
X0359223Y0283478D01*
X0359216Y0283466D01*
X0359210Y0283454D01*
X0359203Y0283444D01*
X0359196Y0283432D01*
X0358765Y0282787D01*
X0358757Y0282777D01*
X0358750Y0282766D01*
X0358741Y0282756D01*
X0358733Y0282746D01*
X0358724Y0282737D01*
X0358716Y0282727D01*
X0358167Y0282178D01*
X0358157Y0282170D01*
X0358148Y0282160D01*
X0358138Y0282152D01*
X0358128Y0282144D01*
X0358117Y0282136D01*
X0358106Y0282128D01*
X0357462Y0281698D01*
X0357450Y0281691D01*
X0357439Y0281684D01*
X0357428Y0281678D01*
X0357416Y0281671D01*
X0357404Y0281666D01*
X0357392Y0281661D01*
X0356676Y0281364D01*
X0356663Y0281359D01*
X0356651Y0281354D01*
X0356639Y0281351D01*
X0356626Y0281347D01*
X0356613Y0281344D01*
X0356601Y0281341D01*
X0355840Y0281189D01*
X0355827Y0281188D01*
X0355814Y0281185D01*
X0355801Y0281184D01*
X0355788Y0281183D01*
X0355775D01*
X0355762Y0281182D01*
X0355374Y0281182D01*
X0355374D01*
X0355374D01*
X0351043Y0281182D01*
X0351043D01*
D01*
X0350991Y0281185D01*
X0350940Y0281195D01*
X0350923Y0281201D01*
X0350890Y0281212D01*
X0350843Y0281235D01*
X0350799Y0281264D01*
X0350760Y0281299D01*
Y0281299D01*
X0350760D01*
X0350725Y0281338D01*
X0350696Y0281382D01*
X0350673Y0281429D01*
X0350662Y0281462D01*
X0350656Y0281479D01*
X0350646Y0281530D01*
X0350642Y0281582D01*
Y0281582D01*
D01*
Y0304417D01*
X0350643Y0304431D01*
X0350646Y0304469D01*
X0350656Y0304521D01*
Y0304521D01*
X0350656Y0304521D01*
X0350662Y0304538D01*
X0350673Y0304570D01*
X0350696Y0304617D01*
D01*
X0350696Y0304618D01*
X0350708Y0304635D01*
X0350725Y0304661D01*
X0350760Y0304700D01*
X0350760Y0304700D01*
X0350760Y0304700D01*
X0350799Y0304735D01*
X0350825Y0304752D01*
X0350843Y0304764D01*
X0350843Y0304764D01*
D01*
X0350890Y0304787D01*
X0350922Y0304798D01*
X0350939Y0304804D01*
X0350939Y0304804D01*
X0350940D01*
X0350991Y0304815D01*
X0351029Y0304817D01*
X0351043Y0304818D01*
X0355374Y0304818D01*
X0355375Y0304818D01*
D02*
G37*
G36*
X0344009Y0304815D02*
X0344060Y0304804D01*
X0344110Y0304787D01*
X0344157Y0304764D01*
X0344201Y0304735D01*
X0344240Y0304701D01*
X0344275Y0304661D01*
X0344304Y0304618D01*
X0344327Y0304571D01*
X0344344Y0304521D01*
X0344354Y0304469D01*
X0344357Y0304417D01*
Y0281583D01*
Y0281583D01*
Y0281583D01*
X0344354Y0281530D01*
X0344344Y0281479D01*
X0344333Y0281445D01*
X0344327Y0281429D01*
X0344304Y0281382D01*
D01*
X0344304Y0281382D01*
X0344289Y0281360D01*
X0344275Y0281339D01*
X0344240Y0281299D01*
X0344240D01*
Y0281299D01*
X0344201Y0281265D01*
X0344179Y0281250D01*
X0344157Y0281236D01*
X0344157Y0281236D01*
D01*
X0344110Y0281212D01*
X0344094Y0281207D01*
X0344060Y0281195D01*
X0344009Y0281185D01*
X0343957Y0281182D01*
X0343957D01*
X0343957D01*
X0339626Y0281182D01*
X0339238Y0281182D01*
X0339225Y0281183D01*
X0339212D01*
X0339199Y0281185D01*
X0339186Y0281185D01*
X0339173Y0281188D01*
X0339160Y0281190D01*
X0338400Y0281341D01*
X0338387Y0281344D01*
X0338374Y0281347D01*
X0338362Y0281351D01*
X0338349Y0281354D01*
X0338337Y0281360D01*
X0338324Y0281364D01*
X0337608Y0281661D01*
X0337596Y0281666D01*
X0337584Y0281671D01*
X0337573Y0281678D01*
X0337561Y0281684D01*
X0337550Y0281691D01*
X0337539Y0281698D01*
X0336894Y0282128D01*
X0336883Y0282136D01*
X0336873Y0282144D01*
X0336863Y0282152D01*
X0336852Y0282160D01*
X0336843Y0282170D01*
X0336833Y0282178D01*
X0336285Y0282727D01*
X0336276Y0282736D01*
X0336267Y0282746D01*
X0336259Y0282756D01*
X0336250Y0282766D01*
X0336243Y0282777D01*
X0336235Y0282787D01*
X0335804Y0283432D01*
X0335797Y0283443D01*
X0335790Y0283454D01*
X0335784Y0283466D01*
X0335778Y0283477D01*
X0335773Y0283490D01*
X0335767Y0283501D01*
X0335470Y0284218D01*
X0335466Y0284230D01*
X0335461Y0284242D01*
X0335457Y0284255D01*
X0335453Y0284267D01*
X0335451Y0284280D01*
X0335447Y0284293D01*
X0335296Y0285054D01*
X0335294Y0285067D01*
X0335292Y0285079D01*
X0335291Y0285093D01*
X0335289Y0285105D01*
Y0285119D01*
X0335288Y0285132D01*
X0335288Y0285519D01*
X0335288Y0285520D01*
X0335288Y0300481D01*
D01*
Y0300481D01*
X0335288Y0300868D01*
X0335289Y0300881D01*
Y0300894D01*
X0335291Y0300907D01*
X0335292Y0300921D01*
X0335294Y0300934D01*
X0335296Y0300946D01*
X0335447Y0301707D01*
X0335451Y0301720D01*
X0335453Y0301732D01*
X0335457Y0301745D01*
X0335461Y0301758D01*
X0335466Y0301770D01*
X0335470Y0301782D01*
X0335767Y0302499D01*
X0335773Y0302510D01*
X0335778Y0302522D01*
X0335784Y0302534D01*
X0335790Y0302546D01*
X0335797Y0302556D01*
X0335804Y0302568D01*
X0336235Y0303213D01*
X0336243Y0303223D01*
X0336250Y0303234D01*
X0336259Y0303244D01*
X0336267Y0303254D01*
X0336276Y0303263D01*
X0336285Y0303273D01*
X0336833Y0303822D01*
X0336843Y0303830D01*
X0336852Y0303840D01*
X0336862Y0303848D01*
X0336872Y0303856D01*
X0336883Y0303864D01*
X0336894Y0303871D01*
X0337538Y0304302D01*
X0337550Y0304309D01*
X0337561Y0304316D01*
X0337573Y0304322D01*
X0337584Y0304329D01*
X0337596Y0304334D01*
X0337608Y0304339D01*
X0338324Y0304636D01*
X0338337Y0304640D01*
X0338349Y0304645D01*
X0338361Y0304649D01*
X0338374Y0304653D01*
X0338387Y0304656D01*
X0338399Y0304659D01*
X0339160Y0304810D01*
X0339173Y0304812D01*
X0339186Y0304815D01*
X0339199Y0304815D01*
X0339212Y0304817D01*
X0339225D01*
X0339238Y0304818D01*
X0339621D01*
X0339621Y0304818D01*
X0339622Y0304818D01*
X0339625D01*
X0339626Y0304818D01*
X0343957Y0304818D01*
X0344009Y0304815D01*
D02*
G37*
D18*
X0368252Y0296000D02*
D03*
X0364748D02*
D03*
X0377752D02*
D03*
X0374248D02*
D03*
X0368252Y0287000D02*
D03*
X0364748D02*
D03*
X0377752D02*
D03*
X0374248D02*
D03*
D36*
X0415000Y0284343D02*
D03*
Y0281114D02*
D03*
X0405500Y0303114D02*
D03*
Y0299886D02*
D03*
X0409000Y0281000D02*
D03*
Y0284228D02*
D03*
D37*
X0336992Y0261000D02*
D03*
Y0264543D02*
D03*
D38*
X0401012Y0351000D02*
D03*
X0383012D02*
D03*
D39*
X0389988D02*
D03*
X0371988D02*
D03*
D40*
X0407760Y0345563D02*
D03*
X0415300D02*
D03*
X0411500Y0353900D02*
D03*
D41*
X0399256Y0302500D02*
D03*
X0393744D02*
D03*
D42*
X0343008Y0268437D02*
D03*
Y0266469D02*
D03*
Y0264500D02*
D03*
Y0262532D02*
D03*
Y0260563D02*
D03*
X0353992Y0268437D02*
D03*
Y0266469D02*
D03*
Y0264500D02*
D03*
Y0262532D02*
D03*
Y0260563D02*
D03*
D43*
X0348500Y0264500D02*
D03*
D44*
X0414500Y0339500D02*
D03*
Y0334500D02*
D03*
Y0329500D02*
D03*
Y0324500D02*
D03*
Y0319500D02*
D03*
Y0314500D02*
D03*
Y0309500D02*
D03*
X0409500Y0339500D02*
D03*
Y0334500D02*
D03*
Y0329500D02*
D03*
Y0324500D02*
D03*
Y0319500D02*
D03*
Y0314500D02*
D03*
Y0309500D02*
D03*
X0404500Y0339500D02*
D03*
Y0334500D02*
D03*
Y0329500D02*
D03*
Y0324500D02*
D03*
Y0319500D02*
D03*
Y0314500D02*
D03*
Y0309500D02*
D03*
X0399500Y0339500D02*
D03*
Y0334500D02*
D03*
Y0329500D02*
D03*
Y0324500D02*
D03*
Y0319500D02*
D03*
Y0314500D02*
D03*
Y0309500D02*
D03*
X0394500Y0339500D02*
D03*
Y0334500D02*
D03*
Y0329500D02*
D03*
Y0324500D02*
D03*
Y0319500D02*
D03*
Y0314500D02*
D03*
Y0309500D02*
D03*
X0389500Y0339500D02*
D03*
Y0334500D02*
D03*
Y0329500D02*
D03*
Y0324500D02*
D03*
Y0319500D02*
D03*
Y0314500D02*
D03*
Y0309500D02*
D03*
X0384500Y0339500D02*
D03*
Y0334500D02*
D03*
Y0329500D02*
D03*
Y0324500D02*
D03*
Y0319500D02*
D03*
Y0314500D02*
D03*
Y0309500D02*
D03*
X0379500Y0339500D02*
D03*
Y0334500D02*
D03*
Y0329500D02*
D03*
Y0324500D02*
D03*
Y0319500D02*
D03*
Y0314500D02*
D03*
Y0309500D02*
D03*
X0374500Y0339500D02*
D03*
Y0334500D02*
D03*
Y0329500D02*
D03*
Y0324500D02*
D03*
Y0319500D02*
D03*
Y0314500D02*
D03*
Y0309500D02*
D03*
X0369500Y0339500D02*
D03*
Y0334500D02*
D03*
Y0329500D02*
D03*
Y0324500D02*
D03*
Y0319500D02*
D03*
Y0314500D02*
D03*
Y0309500D02*
D03*
X0364500Y0339500D02*
D03*
Y0334500D02*
D03*
Y0329500D02*
D03*
Y0324500D02*
D03*
Y0319500D02*
D03*
Y0314500D02*
D03*
Y0309500D02*
D03*
D45*
X0385240Y0289339D02*
D03*
Y0286780D02*
D03*
Y0284221D02*
D03*
Y0281661D02*
D03*
X0402760Y0289339D02*
D03*
Y0286780D02*
D03*
Y0284221D02*
D03*
Y0281661D02*
D03*
D46*
X0355500Y0276000D02*
D03*
X0352272D02*
D03*
D47*
X0339823Y0293000D02*
D03*
X0355177D02*
D03*
D48*
X0354000Y0337634D02*
D03*
Y0329366D02*
D03*
D49*
X0337866Y0276000D02*
D03*
X0346134D02*
D03*
D50*
X0396626Y0370500D02*
D03*
X0404500D02*
D03*
X0337500Y0316952D02*
D03*
Y0324852D02*
D03*
Y0332752D02*
D03*
Y0340626D02*
D03*
Y0348500D02*
D03*
D51*
X0411000Y0266000D02*
D03*
X0338000Y0370000D02*
D03*
D52*
X0340000Y0284000D02*
D03*
X0343000Y0269000D02*
D03*
X0340275Y0266643D02*
D03*
X0357000Y0262500D02*
D03*
X0382202Y0284000D02*
D03*
X0382000Y0281000D02*
D03*
X0389500Y0309500D02*
D03*
X0379500Y0329000D02*
D03*
X0414500Y0319500D02*
D03*
X0347500Y0268000D02*
D03*
X0349500D02*
D03*
X0347500Y0265500D02*
D03*
X0349500D02*
D03*
X0346000Y0277000D02*
D03*
Y0274500D02*
D03*
X0336992Y0261000D02*
D03*
X0402760Y0281661D02*
D03*
X0364500Y0329500D02*
D03*
X0369500D02*
D03*
Y0324500D02*
D03*
X0364500D02*
D03*
Y0319500D02*
D03*
X0369500D02*
D03*
Y0314500D02*
D03*
X0364500D02*
D03*
Y0309500D02*
D03*
X0369500D02*
D03*
X0374500D02*
D03*
Y0314500D02*
D03*
Y0319500D02*
D03*
Y0324500D02*
D03*
X0379500D02*
D03*
Y0319500D02*
D03*
Y0314500D02*
D03*
Y0309500D02*
D03*
X0384000D02*
D03*
X0384500Y0314500D02*
D03*
Y0319500D02*
D03*
Y0329500D02*
D03*
X0389500D02*
D03*
Y0334500D02*
D03*
Y0339500D02*
D03*
X0384500D02*
D03*
Y0334500D02*
D03*
X0389500Y0324500D02*
D03*
X0394500Y0314500D02*
D03*
Y0324500D02*
D03*
X0399500D02*
D03*
Y0314500D02*
D03*
X0404500D02*
D03*
X0409500Y0324500D02*
D03*
X0414500D02*
D03*
X0404500D02*
D03*
X0409500Y0314500D02*
D03*
X0414500Y0309500D02*
D03*
X0394500D02*
D03*
X0383012Y0351000D02*
D03*
X0389988D02*
D03*
X0385500Y0361500D02*
D03*
X0391500Y0366500D02*
D03*
Y0362000D02*
D03*
X0397000D02*
D03*
X0391500Y0371000D02*
D03*
X0344500Y0341500D02*
D03*
Y0338000D02*
D03*
Y0334500D02*
D03*
Y0331000D02*
D03*
X0354000Y0329366D02*
D03*
X0374000Y0274000D02*
D03*
X0378000D02*
D03*
X0382000D02*
D03*
X0386000D02*
D03*
X0390000D02*
D03*
X0394000D02*
D03*
X0398000D02*
D03*
Y0270000D02*
D03*
X0394000D02*
D03*
X0390000D02*
D03*
X0386000D02*
D03*
X0382000D02*
D03*
X0378000D02*
D03*
X0374000D02*
D03*
X0398000Y0266000D02*
D03*
X0394000D02*
D03*
X0390000D02*
D03*
X0386000D02*
D03*
X0382000D02*
D03*
X0378000D02*
D03*
X0374000D02*
D03*
X0398000Y0262000D02*
D03*
X0394000D02*
D03*
X0390000D02*
D03*
X0386000D02*
D03*
X0382000D02*
D03*
X0378000D02*
D03*
X0374000D02*
D03*
X0353000Y0360000D02*
D03*
X0357000D02*
D03*
X0361000D02*
D03*
X0365000D02*
D03*
X0369000D02*
D03*
X0373000D02*
D03*
X0377000D02*
D03*
Y0364000D02*
D03*
X0373000D02*
D03*
X0369000D02*
D03*
X0365000D02*
D03*
X0361000D02*
D03*
X0357000D02*
D03*
X0353000D02*
D03*
X0361100Y0293700D02*
D03*
Y0291500D02*
D03*
X0364100D02*
D03*
X0368300D02*
D03*
M02*
