G04 Layer_Color=65535*
%FSAX25Y25*%
%MOIN*%
G70*
G01*
G75*
%ADD25C,0.01000*%
%ADD29C,0.00394*%
%ADD30C,0.00984*%
%ADD31C,0.02362*%
%ADD32C,0.00500*%
%ADD33C,0.00800*%
%ADD34C,0.00787*%
%ADD35C,0.00799*%
G36*
X0371710Y0376855D02*
X0372067D01*
Y0376658D01*
X0371710D01*
Y0375100D01*
X0371483D01*
Y0376658D01*
X0371175D01*
Y0376855D01*
X0371483D01*
Y0377507D01*
X0371710D01*
Y0376855D01*
D02*
G37*
G36*
X0370814Y0375100D02*
X0370588D01*
Y0376855D01*
X0370814D01*
Y0375100D01*
D02*
G37*
G36*
X0356408Y0370229D02*
Y0370227D01*
Y0370218D01*
Y0370204D01*
Y0370188D01*
X0356405Y0370167D01*
Y0370142D01*
X0356403Y0370114D01*
X0356401Y0370087D01*
X0356394Y0370023D01*
X0356382Y0369961D01*
X0356369Y0369899D01*
X0356360Y0369872D01*
X0356348Y0369847D01*
Y0369844D01*
X0356346Y0369842D01*
X0356341Y0369835D01*
X0356337Y0369826D01*
X0356323Y0369803D01*
X0356305Y0369773D01*
X0356279Y0369741D01*
X0356247Y0369707D01*
X0356211Y0369675D01*
X0356169Y0369645D01*
X0356167D01*
X0356165Y0369643D01*
X0356158Y0369638D01*
X0356149Y0369634D01*
X0356137Y0369629D01*
X0356121Y0369622D01*
X0356087Y0369611D01*
X0356044Y0369597D01*
X0355993Y0369585D01*
X0355936Y0369576D01*
X0355872Y0369574D01*
X0355853D01*
X0355842Y0369576D01*
X0355826D01*
X0355810Y0369579D01*
X0355766Y0369583D01*
X0355721Y0369592D01*
X0355670Y0369604D01*
X0355620Y0369622D01*
X0355572Y0369645D01*
X0355569D01*
X0355567Y0369650D01*
X0355553Y0369659D01*
X0355531Y0369675D01*
X0355505Y0369698D01*
X0355476Y0369727D01*
X0355446Y0369762D01*
X0355418Y0369803D01*
X0355393Y0369849D01*
Y0369851D01*
X0355391Y0369856D01*
X0355388Y0369863D01*
X0355384Y0369874D01*
X0355379Y0369888D01*
X0355375Y0369904D01*
X0355370Y0369924D01*
X0355366Y0369947D01*
X0355359Y0369972D01*
X0355354Y0370002D01*
X0355350Y0370034D01*
X0355345Y0370069D01*
X0355340Y0370108D01*
X0355338Y0370149D01*
X0355336Y0370192D01*
Y0370240D01*
Y0370831D01*
X0355494D01*
Y0370259D01*
Y0370256D01*
Y0370250D01*
Y0370238D01*
Y0370224D01*
Y0370208D01*
X0355496Y0370188D01*
Y0370144D01*
X0355499Y0370096D01*
X0355503Y0370048D01*
X0355508Y0370005D01*
X0355510Y0369986D01*
X0355515Y0369970D01*
Y0369968D01*
X0355517Y0369966D01*
X0355521Y0369952D01*
X0355531Y0369931D01*
X0355544Y0369906D01*
X0355560Y0369876D01*
X0355583Y0369847D01*
X0355611Y0369819D01*
X0355643Y0369792D01*
X0355647Y0369789D01*
X0355661Y0369782D01*
X0355679Y0369771D01*
X0355707Y0369760D01*
X0355741Y0369748D01*
X0355780Y0369737D01*
X0355824Y0369730D01*
X0355872Y0369727D01*
X0355895D01*
X0355918Y0369730D01*
X0355950Y0369734D01*
X0355984Y0369743D01*
X0356023Y0369753D01*
X0356060Y0369769D01*
X0356096Y0369789D01*
X0356101Y0369792D01*
X0356112Y0369801D01*
X0356126Y0369814D01*
X0356147Y0369835D01*
X0356167Y0369858D01*
X0356188Y0369888D01*
X0356206Y0369920D01*
X0356222Y0369956D01*
X0356224Y0369961D01*
X0356227Y0369970D01*
X0356229Y0369979D01*
X0356231Y0369991D01*
X0356234Y0370005D01*
X0356236Y0370021D01*
X0356238Y0370039D01*
X0356240Y0370062D01*
Y0370087D01*
X0356243Y0370114D01*
X0356245Y0370144D01*
X0356247Y0370179D01*
Y0370218D01*
Y0370259D01*
Y0370831D01*
X0356408D01*
Y0370229D01*
D02*
G37*
G36*
X0358066Y0370861D02*
X0358082D01*
X0358118Y0370854D01*
X0358159Y0370847D01*
X0358205Y0370836D01*
X0358253Y0370820D01*
X0358299Y0370797D01*
X0358301D01*
X0358304Y0370795D01*
X0358311Y0370790D01*
X0358320Y0370785D01*
X0358343Y0370770D01*
X0358372Y0370749D01*
X0358404Y0370721D01*
X0358441Y0370689D01*
X0358478Y0370650D01*
X0358514Y0370605D01*
Y0370831D01*
X0358672D01*
Y0369606D01*
X0358514D01*
Y0369812D01*
X0358510Y0369810D01*
X0358496Y0369794D01*
X0358475Y0369773D01*
X0358448Y0369748D01*
X0358416Y0369718D01*
X0358377Y0369689D01*
X0358336Y0369659D01*
X0358290Y0369634D01*
X0358288D01*
X0358285Y0369631D01*
X0358278Y0369629D01*
X0358269Y0369624D01*
X0358244Y0369615D01*
X0358212Y0369604D01*
X0358171Y0369592D01*
X0358125Y0369583D01*
X0358075Y0369576D01*
X0358022Y0369574D01*
X0358011D01*
X0357997Y0369576D01*
X0357979D01*
X0357956Y0369581D01*
X0357930Y0369583D01*
X0357901Y0369590D01*
X0357871Y0369597D01*
X0357837Y0369608D01*
X0357800Y0369620D01*
X0357763Y0369636D01*
X0357727Y0369654D01*
X0357690Y0369675D01*
X0357651Y0369700D01*
X0357614Y0369730D01*
X0357580Y0369762D01*
X0357578Y0369764D01*
X0357573Y0369771D01*
X0357564Y0369780D01*
X0357553Y0369796D01*
X0357537Y0369814D01*
X0357523Y0369835D01*
X0357505Y0369860D01*
X0357488Y0369890D01*
X0357472Y0369922D01*
X0357454Y0369956D01*
X0357440Y0369993D01*
X0357427Y0370034D01*
X0357413Y0370078D01*
X0357404Y0370124D01*
X0357399Y0370169D01*
X0357397Y0370220D01*
Y0370222D01*
Y0370231D01*
X0357399Y0370245D01*
Y0370263D01*
X0357401Y0370286D01*
X0357406Y0370314D01*
X0357413Y0370343D01*
X0357420Y0370376D01*
X0357429Y0370410D01*
X0357443Y0370447D01*
X0357456Y0370485D01*
X0357475Y0370524D01*
X0357495Y0370561D01*
X0357521Y0370600D01*
X0357548Y0370637D01*
X0357580Y0370673D01*
X0357582Y0370676D01*
X0357589Y0370682D01*
X0357598Y0370692D01*
X0357612Y0370703D01*
X0357630Y0370717D01*
X0357653Y0370733D01*
X0357679Y0370751D01*
X0357706Y0370770D01*
X0357736Y0370785D01*
X0357770Y0370804D01*
X0357807Y0370820D01*
X0357846Y0370834D01*
X0357889Y0370845D01*
X0357933Y0370854D01*
X0357979Y0370861D01*
X0358027Y0370863D01*
X0358052D01*
X0358066Y0370861D01*
D02*
G37*
G36*
X0366729Y0369606D02*
X0366548D01*
X0366291Y0370149D01*
X0365572D01*
X0365316Y0369606D01*
X0365132D01*
X0365916Y0371262D01*
X0365957D01*
X0366729Y0369606D01*
D02*
G37*
G36*
X0375096Y0371259D02*
X0375117D01*
X0375160Y0371255D01*
X0375208Y0371250D01*
X0375259Y0371241D01*
X0375307Y0371230D01*
X0375350Y0371214D01*
X0375353D01*
X0375355Y0371211D01*
X0375369Y0371205D01*
X0375387Y0371193D01*
X0375410Y0371179D01*
X0375437Y0371159D01*
X0375465Y0371134D01*
X0375492Y0371104D01*
X0375518Y0371070D01*
X0375520Y0371065D01*
X0375527Y0371053D01*
X0375538Y0371033D01*
X0375550Y0371008D01*
X0375559Y0370976D01*
X0375570Y0370939D01*
X0375577Y0370900D01*
X0375580Y0370856D01*
Y0370854D01*
Y0370852D01*
Y0370838D01*
X0375577Y0370817D01*
X0375573Y0370790D01*
X0375566Y0370758D01*
X0375557Y0370726D01*
X0375543Y0370689D01*
X0375524Y0370655D01*
X0375522Y0370650D01*
X0375515Y0370639D01*
X0375502Y0370623D01*
X0375486Y0370602D01*
X0375463Y0370579D01*
X0375437Y0370554D01*
X0375405Y0370531D01*
X0375369Y0370508D01*
X0375371D01*
X0375373Y0370506D01*
X0375380Y0370504D01*
X0375389Y0370501D01*
X0375412Y0370492D01*
X0375442Y0370479D01*
X0375474Y0370465D01*
X0375506Y0370447D01*
X0375538Y0370426D01*
X0375566Y0370405D01*
X0375568Y0370403D01*
X0375577Y0370394D01*
X0375591Y0370382D01*
X0375607Y0370364D01*
X0375623Y0370343D01*
X0375641Y0370318D01*
X0375660Y0370291D01*
X0375676Y0370261D01*
X0375678Y0370256D01*
X0375682Y0370247D01*
X0375687Y0370229D01*
X0375696Y0370208D01*
X0375703Y0370181D01*
X0375708Y0370151D01*
X0375712Y0370117D01*
X0375715Y0370080D01*
Y0370078D01*
Y0370071D01*
Y0370062D01*
X0375712Y0370048D01*
X0375710Y0370030D01*
X0375708Y0370009D01*
X0375703Y0369989D01*
X0375696Y0369963D01*
X0375678Y0369911D01*
X0375666Y0369883D01*
X0375653Y0369853D01*
X0375637Y0369826D01*
X0375616Y0369798D01*
X0375593Y0369771D01*
X0375568Y0369743D01*
X0375566Y0369741D01*
X0375561Y0369737D01*
X0375552Y0369730D01*
X0375540Y0369723D01*
X0375527Y0369711D01*
X0375508Y0369700D01*
X0375488Y0369689D01*
X0375465Y0369675D01*
X0375437Y0369661D01*
X0375408Y0369650D01*
X0375376Y0369638D01*
X0375341Y0369627D01*
X0375305Y0369620D01*
X0375263Y0369613D01*
X0375222Y0369608D01*
X0375176Y0369606D01*
X0374723D01*
Y0371262D01*
X0375080D01*
X0375096Y0371259D01*
D02*
G37*
G36*
X0373335Y0369606D02*
X0373308D01*
X0372914Y0370483D01*
X0372522Y0369606D01*
X0372488D01*
X0371970Y0370831D01*
X0372133D01*
X0372506Y0369943D01*
X0372898Y0370831D01*
X0372925D01*
X0373322Y0369943D01*
X0373704Y0370831D01*
X0373867D01*
X0373335Y0369606D01*
D02*
G37*
G36*
X0366459Y0376855D02*
X0366816D01*
Y0376658D01*
X0366459D01*
Y0375100D01*
X0366232D01*
Y0376658D01*
X0365924D01*
Y0376855D01*
X0366232D01*
Y0377507D01*
X0366459D01*
Y0376855D01*
D02*
G37*
G36*
X0364658Y0376897D02*
X0364681D01*
X0364733Y0376888D01*
X0364792Y0376878D01*
X0364858Y0376861D01*
X0364927Y0376838D01*
X0364992Y0376806D01*
X0364996D01*
X0364999Y0376802D01*
X0365009Y0376796D01*
X0365022Y0376789D01*
X0365055Y0376766D01*
X0365097Y0376737D01*
X0365143Y0376697D01*
X0365196Y0376651D01*
X0365248Y0376596D01*
X0365301Y0376530D01*
Y0376855D01*
X0365527D01*
Y0375100D01*
X0365301D01*
Y0375395D01*
X0365294Y0375392D01*
X0365274Y0375369D01*
X0365245Y0375339D01*
X0365206Y0375303D01*
X0365160Y0375261D01*
X0365104Y0375218D01*
X0365045Y0375175D01*
X0364979Y0375139D01*
X0364976D01*
X0364973Y0375136D01*
X0364963Y0375133D01*
X0364950Y0375126D01*
X0364914Y0375113D01*
X0364868Y0375097D01*
X0364809Y0375080D01*
X0364743Y0375067D01*
X0364671Y0375057D01*
X0364595Y0375054D01*
X0364579D01*
X0364559Y0375057D01*
X0364533D01*
X0364500Y0375064D01*
X0364464Y0375067D01*
X0364422Y0375077D01*
X0364379Y0375087D01*
X0364330Y0375103D01*
X0364277Y0375120D01*
X0364225Y0375143D01*
X0364172Y0375169D01*
X0364120Y0375198D01*
X0364064Y0375235D01*
X0364012Y0375277D01*
X0363962Y0375323D01*
X0363959Y0375326D01*
X0363953Y0375336D01*
X0363939Y0375349D01*
X0363923Y0375372D01*
X0363900Y0375398D01*
X0363880Y0375428D01*
X0363854Y0375464D01*
X0363831Y0375507D01*
X0363808Y0375553D01*
X0363782Y0375602D01*
X0363762Y0375654D01*
X0363743Y0375713D01*
X0363723Y0375776D01*
X0363710Y0375841D01*
X0363703Y0375907D01*
X0363700Y0375979D01*
Y0375982D01*
Y0375995D01*
X0363703Y0376015D01*
Y0376041D01*
X0363707Y0376074D01*
X0363713Y0376114D01*
X0363723Y0376156D01*
X0363733Y0376202D01*
X0363746Y0376251D01*
X0363766Y0376304D01*
X0363785Y0376360D01*
X0363811Y0376415D01*
X0363841Y0376468D01*
X0363877Y0376523D01*
X0363916Y0376576D01*
X0363962Y0376628D01*
X0363966Y0376632D01*
X0363976Y0376642D01*
X0363989Y0376655D01*
X0364008Y0376671D01*
X0364035Y0376691D01*
X0364067Y0376714D01*
X0364103Y0376740D01*
X0364143Y0376766D01*
X0364185Y0376789D01*
X0364235Y0376815D01*
X0364287Y0376838D01*
X0364343Y0376858D01*
X0364405Y0376874D01*
X0364468Y0376888D01*
X0364533Y0376897D01*
X0364602Y0376901D01*
X0364638D01*
X0364658Y0376897D01*
D02*
G37*
G36*
X0370152Y0375100D02*
X0369925D01*
Y0377531D01*
X0370152D01*
Y0375100D01*
D02*
G37*
G36*
X0369489D02*
X0369263D01*
Y0377531D01*
X0369489D01*
Y0375100D01*
D02*
G37*
G36*
X0363037Y0369606D02*
X0362877D01*
X0362712Y0370790D01*
X0362126Y0369606D01*
X0362082D01*
X0361491Y0370799D01*
X0361329Y0369606D01*
X0361171D01*
X0361404Y0371262D01*
X0361434D01*
X0362105Y0369904D01*
X0362776Y0371262D01*
X0362799D01*
X0363037Y0369606D01*
D02*
G37*
G36*
X0365856Y0367097D02*
X0365675D01*
X0365419Y0367640D01*
X0364700D01*
X0364443Y0367097D01*
X0364260D01*
X0365043Y0368753D01*
X0365084D01*
X0365856Y0367097D01*
D02*
G37*
G36*
X0367686Y0368751D02*
X0367743D01*
X0367807Y0368746D01*
X0367871Y0368741D01*
X0367901Y0368739D01*
X0367929Y0368737D01*
X0367951Y0368732D01*
X0367972Y0368728D01*
X0367974D01*
X0367979Y0368725D01*
X0367986Y0368723D01*
X0367995Y0368721D01*
X0368022Y0368709D01*
X0368055Y0368696D01*
X0368091Y0368677D01*
X0368130Y0368652D01*
X0368167Y0368620D01*
X0368203Y0368583D01*
Y0368581D01*
X0368208Y0368579D01*
X0368213Y0368572D01*
X0368217Y0368565D01*
X0368233Y0368540D01*
X0368249Y0368510D01*
X0368265Y0368469D01*
X0368281Y0368423D01*
X0368290Y0368371D01*
X0368295Y0368311D01*
Y0368309D01*
Y0368304D01*
Y0368295D01*
X0368293Y0368283D01*
Y0368270D01*
X0368290Y0368251D01*
X0368284Y0368215D01*
X0368274Y0368171D01*
X0368258Y0368125D01*
X0368235Y0368080D01*
X0368206Y0368036D01*
X0368201Y0368032D01*
X0368190Y0368020D01*
X0368169Y0368002D01*
X0368144Y0367979D01*
X0368109Y0367954D01*
X0368068Y0367931D01*
X0368020Y0367910D01*
X0367965Y0367892D01*
X0367961D01*
X0367954Y0367890D01*
X0367942Y0367887D01*
X0367931Y0367885D01*
X0367913D01*
X0367894Y0367883D01*
X0367871Y0367880D01*
X0367844Y0367878D01*
X0367814Y0367876D01*
X0367780Y0367874D01*
X0367741Y0367871D01*
X0367697Y0367869D01*
X0367652D01*
X0367599Y0367867D01*
X0367427D01*
Y0367097D01*
X0367262D01*
Y0368753D01*
X0367658D01*
X0367686Y0368751D01*
D02*
G37*
G36*
X0361890Y0368792D02*
X0361910Y0368790D01*
X0361936Y0368787D01*
X0361963Y0368785D01*
X0362023Y0368776D01*
X0362089Y0368762D01*
X0362158Y0368741D01*
X0362229Y0368716D01*
X0362231D01*
X0362238Y0368712D01*
X0362247Y0368709D01*
X0362261Y0368703D01*
X0362277Y0368693D01*
X0362298Y0368684D01*
X0362320Y0368670D01*
X0362343Y0368657D01*
X0362398Y0368625D01*
X0362460Y0368581D01*
X0362526Y0368533D01*
X0362593Y0368474D01*
X0362462Y0368352D01*
X0362460Y0368354D01*
X0362456Y0368359D01*
X0362449Y0368366D01*
X0362439Y0368375D01*
X0362426Y0368387D01*
X0362410Y0368398D01*
X0362373Y0368428D01*
X0362327Y0368462D01*
X0362277Y0368496D01*
X0362220Y0368529D01*
X0362160Y0368558D01*
X0362158D01*
X0362153Y0368561D01*
X0362144Y0368565D01*
X0362133Y0368570D01*
X0362117Y0368574D01*
X0362101Y0368581D01*
X0362080Y0368588D01*
X0362059Y0368595D01*
X0362009Y0368606D01*
X0361956Y0368618D01*
X0361899Y0368627D01*
X0361840Y0368629D01*
X0361821D01*
X0361807Y0368627D01*
X0361789D01*
X0361769Y0368625D01*
X0361746Y0368622D01*
X0361720Y0368618D01*
X0361663Y0368606D01*
X0361601Y0368588D01*
X0361535Y0368565D01*
X0361469Y0368533D01*
X0361466D01*
X0361462Y0368529D01*
X0361452Y0368524D01*
X0361441Y0368515D01*
X0361425Y0368506D01*
X0361409Y0368494D01*
X0361370Y0368464D01*
X0361327Y0368428D01*
X0361281Y0368382D01*
X0361237Y0368332D01*
X0361198Y0368272D01*
Y0368270D01*
X0361194Y0368265D01*
X0361189Y0368256D01*
X0361182Y0368245D01*
X0361175Y0368229D01*
X0361169Y0368210D01*
X0361159Y0368192D01*
X0361150Y0368169D01*
X0361132Y0368116D01*
X0361118Y0368059D01*
X0361107Y0367995D01*
X0361102Y0367929D01*
Y0367926D01*
Y0367919D01*
Y0367910D01*
X0361104Y0367896D01*
Y0367880D01*
X0361107Y0367860D01*
X0361111Y0367837D01*
X0361114Y0367814D01*
X0361127Y0367759D01*
X0361143Y0367700D01*
X0361169Y0367635D01*
X0361182Y0367603D01*
X0361201Y0367571D01*
X0361203Y0367569D01*
X0361205Y0367564D01*
X0361212Y0367555D01*
X0361219Y0367544D01*
X0361230Y0367530D01*
X0361242Y0367514D01*
X0361274Y0367475D01*
X0361313Y0367434D01*
X0361361Y0367390D01*
X0361416Y0367347D01*
X0361478Y0367308D01*
X0361480D01*
X0361487Y0367303D01*
X0361496Y0367299D01*
X0361510Y0367294D01*
X0361526Y0367287D01*
X0361544Y0367278D01*
X0361567Y0367269D01*
X0361592Y0367262D01*
X0361620Y0367253D01*
X0361649Y0367244D01*
X0361716Y0367228D01*
X0361787Y0367219D01*
X0361865Y0367214D01*
X0361890D01*
X0361908Y0367216D01*
X0361929Y0367219D01*
X0361954Y0367221D01*
X0361984Y0367226D01*
X0362014Y0367232D01*
X0362082Y0367248D01*
X0362117Y0367260D01*
X0362153Y0367273D01*
X0362190Y0367290D01*
X0362227Y0367310D01*
X0362261Y0367331D01*
X0362295Y0367356D01*
X0362298Y0367358D01*
X0362302Y0367363D01*
X0362311Y0367372D01*
X0362323Y0367381D01*
X0362336Y0367397D01*
X0362352Y0367413D01*
X0362371Y0367434D01*
X0362387Y0367457D01*
X0362405Y0367482D01*
X0362423Y0367512D01*
X0362442Y0367542D01*
X0362458Y0367573D01*
X0362474Y0367610D01*
X0362488Y0367647D01*
X0362499Y0367688D01*
X0362506Y0367729D01*
X0361979D01*
Y0367892D01*
X0362691D01*
Y0367887D01*
Y0367876D01*
X0362689Y0367855D01*
X0362687Y0367828D01*
X0362684Y0367796D01*
X0362678Y0367759D01*
X0362671Y0367716D01*
X0362662Y0367672D01*
X0362650Y0367624D01*
X0362634Y0367573D01*
X0362616Y0367523D01*
X0362593Y0367473D01*
X0362568Y0367420D01*
X0362538Y0367372D01*
X0362501Y0367324D01*
X0362462Y0367280D01*
X0362460Y0367278D01*
X0362451Y0367271D01*
X0362439Y0367260D01*
X0362421Y0367246D01*
X0362398Y0367228D01*
X0362371Y0367209D01*
X0362339Y0367189D01*
X0362302Y0367168D01*
X0362263Y0367148D01*
X0362217Y0367127D01*
X0362167Y0367109D01*
X0362114Y0367090D01*
X0362057Y0367077D01*
X0361995Y0367065D01*
X0361929Y0367058D01*
X0361860Y0367056D01*
X0361840D01*
X0361817Y0367058D01*
X0361785Y0367061D01*
X0361746Y0367065D01*
X0361700Y0367072D01*
X0361649Y0367081D01*
X0361597Y0367095D01*
X0361540Y0367111D01*
X0361480Y0367132D01*
X0361420Y0367157D01*
X0361359Y0367186D01*
X0361299Y0367223D01*
X0361240Y0367264D01*
X0361185Y0367313D01*
X0361132Y0367367D01*
X0361130Y0367370D01*
X0361123Y0367379D01*
X0361114Y0367393D01*
X0361100Y0367411D01*
X0361084Y0367434D01*
X0361068Y0367461D01*
X0361049Y0367491D01*
X0361031Y0367528D01*
X0361011Y0367567D01*
X0360992Y0367610D01*
X0360976Y0367656D01*
X0360960Y0367704D01*
X0360946Y0367754D01*
X0360937Y0367809D01*
X0360930Y0367867D01*
X0360928Y0367924D01*
Y0367926D01*
Y0367935D01*
Y0367947D01*
X0360930Y0367965D01*
X0360933Y0367986D01*
X0360935Y0368009D01*
X0360937Y0368036D01*
X0360942Y0368068D01*
X0360949Y0368100D01*
X0360956Y0368135D01*
X0360978Y0368208D01*
X0360990Y0368247D01*
X0361006Y0368286D01*
X0361024Y0368322D01*
X0361045Y0368361D01*
X0361047Y0368364D01*
X0361049Y0368371D01*
X0361056Y0368382D01*
X0361068Y0368396D01*
X0361079Y0368412D01*
X0361093Y0368432D01*
X0361111Y0368453D01*
X0361130Y0368478D01*
X0361153Y0368503D01*
X0361175Y0368529D01*
X0361230Y0368581D01*
X0361294Y0368634D01*
X0361368Y0368680D01*
X0361370Y0368682D01*
X0361377Y0368684D01*
X0361388Y0368691D01*
X0361404Y0368698D01*
X0361423Y0368707D01*
X0361448Y0368716D01*
X0361473Y0368725D01*
X0361503Y0368737D01*
X0361537Y0368748D01*
X0361572Y0368758D01*
X0361611Y0368767D01*
X0361652Y0368776D01*
X0361741Y0368790D01*
X0361787Y0368792D01*
X0361835Y0368794D01*
X0361872D01*
X0361890Y0368792D01*
D02*
G37*
G36*
X0362709Y0377527D02*
X0362752Y0377521D01*
X0362798Y0377511D01*
X0362850Y0377494D01*
X0362906Y0377475D01*
X0362962Y0377445D01*
X0362965D01*
X0362969Y0377442D01*
X0362988Y0377429D01*
X0363018Y0377406D01*
X0363057Y0377376D01*
X0363103Y0377334D01*
X0363156Y0377281D01*
X0363215Y0377216D01*
X0363244Y0377176D01*
X0363274Y0377137D01*
X0363077Y0376993D01*
Y0376996D01*
X0363070Y0376999D01*
X0363054Y0377022D01*
X0363031Y0377052D01*
X0362998Y0377088D01*
X0362962Y0377127D01*
X0362923Y0377166D01*
X0362883Y0377199D01*
X0362847Y0377225D01*
X0362844Y0377229D01*
X0362831Y0377235D01*
X0362811Y0377245D01*
X0362788Y0377255D01*
X0362755Y0377265D01*
X0362723Y0377275D01*
X0362683Y0377281D01*
X0362641Y0377285D01*
X0362618D01*
X0362591Y0377281D01*
X0362559Y0377275D01*
X0362519Y0377261D01*
X0362480Y0377248D01*
X0362440Y0377225D01*
X0362404Y0377196D01*
X0362401Y0377193D01*
X0362391Y0377180D01*
X0362375Y0377160D01*
X0362362Y0377137D01*
X0362345Y0377104D01*
X0362329Y0377068D01*
X0362319Y0377029D01*
X0362316Y0376983D01*
Y0376979D01*
Y0376970D01*
X0362319Y0376953D01*
Y0376934D01*
X0362322Y0376911D01*
X0362329Y0376888D01*
X0362345Y0376832D01*
X0362349Y0376829D01*
X0362352Y0376819D01*
X0362362Y0376806D01*
X0362372Y0376786D01*
X0362388Y0376763D01*
X0362408Y0376737D01*
X0362434Y0376707D01*
X0362463Y0376674D01*
X0362467Y0376671D01*
X0362477Y0376665D01*
X0362493Y0376651D01*
X0362519Y0376628D01*
X0362539Y0376612D01*
X0362562Y0376596D01*
X0362585Y0376576D01*
X0362614Y0376556D01*
X0362647Y0376530D01*
X0362683Y0376504D01*
X0362726Y0376471D01*
X0362772Y0376438D01*
X0362775Y0376435D01*
X0362785Y0376428D01*
X0362801Y0376415D01*
X0362821Y0376399D01*
X0362847Y0376379D01*
X0362877Y0376356D01*
X0362939Y0376301D01*
X0363011Y0376238D01*
X0363080Y0376169D01*
X0363142Y0376100D01*
X0363172Y0376064D01*
X0363195Y0376031D01*
Y0376028D01*
X0363201Y0376025D01*
X0363205Y0376015D01*
X0363215Y0376002D01*
X0363231Y0375966D01*
X0363254Y0375920D01*
X0363277Y0375868D01*
X0363293Y0375809D01*
X0363306Y0375743D01*
X0363313Y0375677D01*
Y0375674D01*
Y0375667D01*
Y0375651D01*
X0363310Y0375635D01*
X0363306Y0375612D01*
X0363303Y0375585D01*
X0363290Y0375523D01*
X0363264Y0375454D01*
X0363251Y0375418D01*
X0363231Y0375379D01*
X0363208Y0375339D01*
X0363182Y0375303D01*
X0363152Y0375264D01*
X0363116Y0375228D01*
X0363113Y0375225D01*
X0363106Y0375221D01*
X0363096Y0375212D01*
X0363080Y0375198D01*
X0363060Y0375185D01*
X0363041Y0375169D01*
X0363011Y0375152D01*
X0362982Y0375136D01*
X0362949Y0375116D01*
X0362913Y0375100D01*
X0362831Y0375071D01*
X0362785Y0375057D01*
X0362739Y0375047D01*
X0362690Y0375044D01*
X0362637Y0375041D01*
X0362618D01*
X0362601Y0375044D01*
X0362581D01*
X0362559Y0375047D01*
X0362506Y0375054D01*
X0362447Y0375067D01*
X0362381Y0375087D01*
X0362313Y0375116D01*
X0362244Y0375152D01*
X0362240D01*
X0362237Y0375159D01*
X0362227Y0375166D01*
X0362214Y0375175D01*
X0362181Y0375202D01*
X0362139Y0375244D01*
X0362116Y0375271D01*
X0362089Y0375297D01*
X0362063Y0375330D01*
X0362034Y0375366D01*
X0362007Y0375402D01*
X0361978Y0375444D01*
X0361952Y0375490D01*
X0361922Y0375539D01*
X0362122Y0375661D01*
X0362126Y0375658D01*
X0362132Y0375644D01*
X0362145Y0375625D01*
X0362162Y0375599D01*
X0362181Y0375569D01*
X0362204Y0375536D01*
X0362234Y0375503D01*
X0362263Y0375467D01*
X0362335Y0375395D01*
X0362378Y0375362D01*
X0362421Y0375333D01*
X0362467Y0375307D01*
X0362513Y0375287D01*
X0362562Y0375274D01*
X0362614Y0375271D01*
X0362634D01*
X0362657Y0375274D01*
X0362690Y0375277D01*
X0362723Y0375284D01*
X0362762Y0375293D01*
X0362801Y0375307D01*
X0362841Y0375323D01*
X0362844Y0375326D01*
X0362857Y0375333D01*
X0362877Y0375346D01*
X0362900Y0375362D01*
X0362926Y0375382D01*
X0362952Y0375408D01*
X0362978Y0375438D01*
X0363001Y0375471D01*
X0363005Y0375474D01*
X0363011Y0375487D01*
X0363018Y0375507D01*
X0363031Y0375533D01*
X0363041Y0375563D01*
X0363047Y0375595D01*
X0363054Y0375631D01*
X0363057Y0375671D01*
Y0375677D01*
Y0375690D01*
X0363054Y0375717D01*
X0363047Y0375746D01*
X0363037Y0375782D01*
X0363021Y0375822D01*
X0363001Y0375861D01*
X0362975Y0375904D01*
Y0375907D01*
X0362969Y0375910D01*
X0362962Y0375920D01*
X0362952Y0375933D01*
X0362926Y0375966D01*
X0362906Y0375989D01*
X0362883Y0376012D01*
X0362857Y0376038D01*
X0362827Y0376068D01*
X0362795Y0376097D01*
X0362755Y0376133D01*
X0362716Y0376166D01*
X0362670Y0376205D01*
X0362621Y0376245D01*
X0362568Y0376284D01*
X0362565Y0376287D01*
X0362555Y0376294D01*
X0362539Y0376307D01*
X0362519Y0376320D01*
X0362496Y0376340D01*
X0362470Y0376360D01*
X0362411Y0376409D01*
X0362345Y0376465D01*
X0362286Y0376517D01*
X0362260Y0376543D01*
X0362234Y0376566D01*
X0362214Y0376589D01*
X0362198Y0376609D01*
Y0376612D01*
X0362191Y0376615D01*
X0362188Y0376625D01*
X0362178Y0376638D01*
X0362158Y0376671D01*
X0362135Y0376717D01*
X0362112Y0376773D01*
X0362093Y0376832D01*
X0362080Y0376901D01*
X0362073Y0376973D01*
Y0376976D01*
Y0376979D01*
Y0376999D01*
X0362076Y0377029D01*
X0362083Y0377065D01*
X0362089Y0377111D01*
X0362103Y0377157D01*
X0362122Y0377206D01*
X0362145Y0377255D01*
X0362149Y0377261D01*
X0362158Y0377275D01*
X0362175Y0377301D01*
X0362201Y0377327D01*
X0362231Y0377360D01*
X0362267Y0377393D01*
X0362309Y0377426D01*
X0362355Y0377455D01*
X0362362Y0377458D01*
X0362378Y0377468D01*
X0362408Y0377478D01*
X0362444Y0377494D01*
X0362486Y0377507D01*
X0362536Y0377517D01*
X0362588Y0377527D01*
X0362647Y0377531D01*
X0362677D01*
X0362709Y0377527D01*
D02*
G37*
G36*
X0370726Y0377573D02*
X0370745Y0377570D01*
X0370765Y0377563D01*
X0370788Y0377553D01*
X0370808Y0377540D01*
X0370831Y0377521D01*
X0370834Y0377517D01*
X0370841Y0377511D01*
X0370847Y0377498D01*
X0370860Y0377485D01*
X0370870Y0377465D01*
X0370877Y0377442D01*
X0370883Y0377416D01*
X0370886Y0377386D01*
Y0377383D01*
Y0377373D01*
X0370883Y0377360D01*
X0370880Y0377340D01*
X0370873Y0377321D01*
X0370864Y0377298D01*
X0370850Y0377278D01*
X0370831Y0377255D01*
X0370827Y0377252D01*
X0370821Y0377248D01*
X0370808Y0377239D01*
X0370795Y0377229D01*
X0370775Y0377219D01*
X0370752Y0377212D01*
X0370726Y0377206D01*
X0370700Y0377203D01*
X0370686D01*
X0370673Y0377206D01*
X0370654Y0377209D01*
X0370634Y0377216D01*
X0370611Y0377225D01*
X0370591Y0377239D01*
X0370568Y0377255D01*
X0370565Y0377258D01*
X0370562Y0377265D01*
X0370552Y0377278D01*
X0370542Y0377291D01*
X0370532Y0377311D01*
X0370526Y0377334D01*
X0370519Y0377360D01*
X0370516Y0377386D01*
Y0377389D01*
Y0377399D01*
X0370519Y0377416D01*
X0370522Y0377432D01*
X0370529Y0377455D01*
X0370539Y0377475D01*
X0370552Y0377498D01*
X0370568Y0377521D01*
X0370572Y0377524D01*
X0370578Y0377531D01*
X0370591Y0377537D01*
X0370604Y0377550D01*
X0370624Y0377560D01*
X0370647Y0377567D01*
X0370673Y0377573D01*
X0370700Y0377576D01*
X0370713D01*
X0370726Y0377573D01*
D02*
G37*
G36*
X0363465Y0368751D02*
X0363495D01*
X0363557Y0368748D01*
X0363619Y0368744D01*
X0363649Y0368741D01*
X0363676Y0368737D01*
X0363699Y0368735D01*
X0363720Y0368730D01*
X0363722D01*
X0363726Y0368728D01*
X0363733Y0368725D01*
X0363745Y0368723D01*
X0363770Y0368714D01*
X0363804Y0368698D01*
X0363843Y0368680D01*
X0363882Y0368654D01*
X0363921Y0368622D01*
X0363958Y0368583D01*
Y0368581D01*
X0363962Y0368579D01*
X0363967Y0368572D01*
X0363971Y0368563D01*
X0363987Y0368540D01*
X0364006Y0368508D01*
X0364022Y0368469D01*
X0364038Y0368423D01*
X0364047Y0368371D01*
X0364052Y0368311D01*
Y0368309D01*
Y0368304D01*
Y0368297D01*
Y0368288D01*
X0364049Y0368263D01*
X0364045Y0368231D01*
X0364036Y0368194D01*
X0364024Y0368153D01*
X0364008Y0368112D01*
X0363987Y0368073D01*
X0363985Y0368068D01*
X0363976Y0368057D01*
X0363960Y0368038D01*
X0363942Y0368016D01*
X0363914Y0367990D01*
X0363882Y0367963D01*
X0363845Y0367940D01*
X0363804Y0367917D01*
X0363802D01*
X0363800Y0367915D01*
X0363793Y0367913D01*
X0363784Y0367908D01*
X0363770Y0367906D01*
X0363756Y0367901D01*
X0363740Y0367896D01*
X0363720Y0367892D01*
X0363699Y0367885D01*
X0363674Y0367880D01*
X0363646Y0367876D01*
X0363619Y0367874D01*
X0363587Y0367869D01*
X0363552Y0367867D01*
X0363479Y0367864D01*
X0364074Y0367097D01*
X0363868D01*
X0363273Y0367864D01*
X0363181D01*
Y0367097D01*
X0363017D01*
Y0368753D01*
X0363438D01*
X0363465Y0368751D01*
D02*
G37*
G36*
X0371238Y0370861D02*
X0371260Y0370859D01*
X0371286Y0370856D01*
X0371318Y0370852D01*
X0371352Y0370843D01*
X0371389Y0370834D01*
X0371428Y0370822D01*
X0371467Y0370806D01*
X0371510Y0370785D01*
X0371551Y0370763D01*
X0371593Y0370735D01*
X0371632Y0370703D01*
X0371670Y0370666D01*
X0371707Y0370625D01*
X0371709Y0370623D01*
X0371714Y0370618D01*
X0371719Y0370607D01*
X0371728Y0370595D01*
X0371739Y0370579D01*
X0371751Y0370559D01*
X0371762Y0370536D01*
X0371776Y0370508D01*
X0371787Y0370481D01*
X0371801Y0370449D01*
X0371812Y0370414D01*
X0371822Y0370378D01*
X0371831Y0370337D01*
X0371838Y0370295D01*
X0371842Y0370252D01*
X0371845Y0370206D01*
X0370743D01*
Y0370204D01*
Y0370197D01*
Y0370185D01*
X0370745Y0370169D01*
X0370748Y0370151D01*
X0370750Y0370130D01*
X0370754Y0370108D01*
X0370761Y0370082D01*
X0370777Y0370025D01*
X0370800Y0369966D01*
X0370816Y0369938D01*
X0370832Y0369908D01*
X0370853Y0369881D01*
X0370876Y0369853D01*
X0370878Y0369851D01*
X0370883Y0369847D01*
X0370889Y0369842D01*
X0370899Y0369833D01*
X0370912Y0369821D01*
X0370929Y0369810D01*
X0370947Y0369798D01*
X0370967Y0369787D01*
X0371013Y0369762D01*
X0371070Y0369739D01*
X0371100Y0369730D01*
X0371132Y0369725D01*
X0371167Y0369721D01*
X0371203Y0369718D01*
X0371219D01*
X0371238Y0369721D01*
X0371260Y0369723D01*
X0371288Y0369725D01*
X0371320Y0369732D01*
X0371352Y0369739D01*
X0371384Y0369750D01*
X0371389Y0369753D01*
X0371400Y0369757D01*
X0371416Y0369764D01*
X0371437Y0369773D01*
X0371460Y0369785D01*
X0371485Y0369801D01*
X0371510Y0369817D01*
X0371535Y0369835D01*
X0371538Y0369837D01*
X0371547Y0369847D01*
X0371558Y0369858D01*
X0371574Y0369879D01*
X0371595Y0369901D01*
X0371618Y0369934D01*
X0371643Y0369970D01*
X0371668Y0370011D01*
X0371803Y0369940D01*
Y0369938D01*
X0371801Y0369936D01*
X0371796Y0369929D01*
X0371792Y0369920D01*
X0371778Y0369895D01*
X0371760Y0369867D01*
X0371737Y0369833D01*
X0371712Y0369798D01*
X0371682Y0369764D01*
X0371650Y0369732D01*
X0371645Y0369730D01*
X0371636Y0369718D01*
X0371618Y0369705D01*
X0371595Y0369689D01*
X0371565Y0369668D01*
X0371533Y0369650D01*
X0371496Y0369629D01*
X0371458Y0369613D01*
X0371453Y0369611D01*
X0371439Y0369606D01*
X0371416Y0369602D01*
X0371389Y0369595D01*
X0371352Y0369585D01*
X0371311Y0369581D01*
X0371265Y0369576D01*
X0371217Y0369574D01*
X0371203D01*
X0371187Y0369576D01*
X0371167D01*
X0371141Y0369581D01*
X0371114Y0369585D01*
X0371082Y0369590D01*
X0371045Y0369599D01*
X0371009Y0369608D01*
X0370970Y0369622D01*
X0370931Y0369638D01*
X0370892Y0369656D01*
X0370853Y0369679D01*
X0370816Y0369705D01*
X0370782Y0369734D01*
X0370748Y0369769D01*
X0370745Y0369771D01*
X0370741Y0369778D01*
X0370731Y0369789D01*
X0370722Y0369803D01*
X0370709Y0369821D01*
X0370695Y0369844D01*
X0370679Y0369869D01*
X0370665Y0369899D01*
X0370649Y0369929D01*
X0370633Y0369963D01*
X0370619Y0370002D01*
X0370606Y0370041D01*
X0370596Y0370082D01*
X0370587Y0370124D01*
X0370583Y0370169D01*
X0370580Y0370215D01*
Y0370218D01*
Y0370227D01*
Y0370238D01*
X0370583Y0370254D01*
X0370585Y0370275D01*
X0370587Y0370298D01*
X0370592Y0370325D01*
X0370599Y0370355D01*
X0370615Y0370419D01*
X0370626Y0370453D01*
X0370640Y0370488D01*
X0370656Y0370524D01*
X0370677Y0370559D01*
X0370697Y0370595D01*
X0370722Y0370630D01*
X0370725Y0370632D01*
X0370731Y0370639D01*
X0370741Y0370650D01*
X0370754Y0370666D01*
X0370773Y0370685D01*
X0370796Y0370703D01*
X0370821Y0370726D01*
X0370851Y0370747D01*
X0370885Y0370770D01*
X0370922Y0370790D01*
X0370960Y0370808D01*
X0371004Y0370827D01*
X0371050Y0370843D01*
X0371100Y0370854D01*
X0371153Y0370861D01*
X0371208Y0370863D01*
X0371222D01*
X0371238Y0370861D01*
D02*
G37*
G36*
X0376209Y0369851D02*
X0376223Y0369849D01*
X0376239Y0369844D01*
X0376255Y0369835D01*
X0376271Y0369826D01*
X0376287Y0369812D01*
X0376289Y0369810D01*
X0376294Y0369805D01*
X0376301Y0369796D01*
X0376308Y0369785D01*
X0376315Y0369771D01*
X0376321Y0369753D01*
X0376326Y0369734D01*
X0376328Y0369714D01*
Y0369711D01*
Y0369705D01*
X0376326Y0369693D01*
X0376324Y0369679D01*
X0376319Y0369663D01*
X0376310Y0369647D01*
X0376301Y0369629D01*
X0376287Y0369613D01*
X0376285Y0369611D01*
X0376280Y0369606D01*
X0376271Y0369602D01*
X0376260Y0369595D01*
X0376246Y0369585D01*
X0376227Y0369581D01*
X0376209Y0369576D01*
X0376189Y0369574D01*
X0376179D01*
X0376168Y0369576D01*
X0376154Y0369579D01*
X0376140Y0369583D01*
X0376122Y0369590D01*
X0376106Y0369599D01*
X0376090Y0369613D01*
X0376088Y0369615D01*
X0376083Y0369620D01*
X0376079Y0369629D01*
X0376072Y0369640D01*
X0376063Y0369656D01*
X0376058Y0369673D01*
X0376054Y0369693D01*
X0376051Y0369714D01*
Y0369716D01*
Y0369723D01*
X0376054Y0369734D01*
X0376056Y0369748D01*
X0376060Y0369764D01*
X0376067Y0369780D01*
X0376076Y0369796D01*
X0376090Y0369812D01*
X0376092Y0369814D01*
X0376097Y0369819D01*
X0376106Y0369826D01*
X0376118Y0369833D01*
X0376131Y0369840D01*
X0376150Y0369847D01*
X0376168Y0369851D01*
X0376189Y0369853D01*
X0376198D01*
X0376209Y0369851D01*
D02*
G37*
G36*
X0353719Y0369606D02*
X0353538D01*
X0353282Y0370149D01*
X0352563D01*
X0352306Y0369606D01*
X0352123D01*
X0352906Y0371262D01*
X0352947D01*
X0353719Y0369606D01*
D02*
G37*
G36*
X0366491Y0368792D02*
X0366520Y0368787D01*
X0366552Y0368780D01*
X0366589Y0368769D01*
X0366628Y0368755D01*
X0366667Y0368735D01*
X0366669D01*
X0366671Y0368732D01*
X0366685Y0368723D01*
X0366706Y0368707D01*
X0366733Y0368687D01*
X0366765Y0368657D01*
X0366802Y0368620D01*
X0366843Y0368574D01*
X0366864Y0368547D01*
X0366884Y0368519D01*
X0366747Y0368419D01*
Y0368421D01*
X0366742Y0368423D01*
X0366731Y0368439D01*
X0366715Y0368460D01*
X0366692Y0368485D01*
X0366667Y0368512D01*
X0366639Y0368540D01*
X0366612Y0368563D01*
X0366587Y0368581D01*
X0366584Y0368583D01*
X0366575Y0368588D01*
X0366561Y0368595D01*
X0366545Y0368602D01*
X0366523Y0368609D01*
X0366500Y0368616D01*
X0366472Y0368620D01*
X0366442Y0368622D01*
X0366426D01*
X0366408Y0368620D01*
X0366385Y0368616D01*
X0366358Y0368606D01*
X0366330Y0368597D01*
X0366303Y0368581D01*
X0366278Y0368561D01*
X0366275Y0368558D01*
X0366268Y0368549D01*
X0366257Y0368535D01*
X0366248Y0368519D01*
X0366236Y0368496D01*
X0366225Y0368471D01*
X0366218Y0368444D01*
X0366216Y0368412D01*
Y0368409D01*
Y0368403D01*
X0366218Y0368391D01*
Y0368377D01*
X0366220Y0368361D01*
X0366225Y0368345D01*
X0366236Y0368306D01*
X0366238Y0368304D01*
X0366241Y0368297D01*
X0366248Y0368288D01*
X0366255Y0368274D01*
X0366266Y0368258D01*
X0366280Y0368240D01*
X0366298Y0368219D01*
X0366319Y0368196D01*
X0366321Y0368194D01*
X0366328Y0368190D01*
X0366339Y0368180D01*
X0366358Y0368164D01*
X0366371Y0368153D01*
X0366387Y0368142D01*
X0366403Y0368128D01*
X0366424Y0368114D01*
X0366447Y0368096D01*
X0366472Y0368077D01*
X0366502Y0368054D01*
X0366534Y0368032D01*
X0366536Y0368029D01*
X0366543Y0368025D01*
X0366555Y0368016D01*
X0366568Y0368004D01*
X0366587Y0367990D01*
X0366607Y0367974D01*
X0366651Y0367935D01*
X0366701Y0367892D01*
X0366749Y0367844D01*
X0366793Y0367796D01*
X0366813Y0367771D01*
X0366829Y0367748D01*
Y0367745D01*
X0366834Y0367743D01*
X0366836Y0367736D01*
X0366843Y0367727D01*
X0366855Y0367702D01*
X0366871Y0367670D01*
X0366887Y0367633D01*
X0366898Y0367592D01*
X0366907Y0367546D01*
X0366912Y0367500D01*
Y0367498D01*
Y0367493D01*
Y0367482D01*
X0366910Y0367471D01*
X0366907Y0367455D01*
X0366905Y0367436D01*
X0366896Y0367393D01*
X0366878Y0367344D01*
X0366868Y0367319D01*
X0366855Y0367292D01*
X0366839Y0367264D01*
X0366820Y0367239D01*
X0366800Y0367212D01*
X0366774Y0367186D01*
X0366772Y0367184D01*
X0366768Y0367182D01*
X0366761Y0367175D01*
X0366749Y0367166D01*
X0366736Y0367157D01*
X0366722Y0367145D01*
X0366701Y0367134D01*
X0366681Y0367122D01*
X0366658Y0367109D01*
X0366632Y0367097D01*
X0366575Y0367077D01*
X0366543Y0367068D01*
X0366511Y0367061D01*
X0366477Y0367058D01*
X0366440Y0367056D01*
X0366426D01*
X0366415Y0367058D01*
X0366401D01*
X0366385Y0367061D01*
X0366349Y0367065D01*
X0366307Y0367074D01*
X0366262Y0367088D01*
X0366213Y0367109D01*
X0366165Y0367134D01*
X0366163D01*
X0366161Y0367138D01*
X0366154Y0367143D01*
X0366145Y0367150D01*
X0366122Y0367168D01*
X0366092Y0367198D01*
X0366076Y0367216D01*
X0366058Y0367235D01*
X0366039Y0367257D01*
X0366019Y0367283D01*
X0366000Y0367308D01*
X0365980Y0367338D01*
X0365962Y0367370D01*
X0365941Y0367404D01*
X0366080Y0367489D01*
X0366083Y0367487D01*
X0366087Y0367477D01*
X0366097Y0367464D01*
X0366108Y0367445D01*
X0366122Y0367425D01*
X0366138Y0367402D01*
X0366158Y0367379D01*
X0366179Y0367354D01*
X0366229Y0367303D01*
X0366259Y0367280D01*
X0366289Y0367260D01*
X0366321Y0367242D01*
X0366353Y0367228D01*
X0366387Y0367219D01*
X0366424Y0367216D01*
X0366438D01*
X0366454Y0367219D01*
X0366477Y0367221D01*
X0366500Y0367226D01*
X0366527Y0367232D01*
X0366555Y0367242D01*
X0366582Y0367253D01*
X0366584Y0367255D01*
X0366594Y0367260D01*
X0366607Y0367269D01*
X0366623Y0367280D01*
X0366642Y0367294D01*
X0366660Y0367313D01*
X0366678Y0367333D01*
X0366694Y0367356D01*
X0366697Y0367358D01*
X0366701Y0367367D01*
X0366706Y0367381D01*
X0366715Y0367400D01*
X0366722Y0367420D01*
X0366726Y0367443D01*
X0366731Y0367468D01*
X0366733Y0367496D01*
Y0367500D01*
Y0367509D01*
X0366731Y0367528D01*
X0366726Y0367548D01*
X0366720Y0367573D01*
X0366708Y0367601D01*
X0366694Y0367629D01*
X0366676Y0367658D01*
Y0367661D01*
X0366671Y0367663D01*
X0366667Y0367670D01*
X0366660Y0367679D01*
X0366642Y0367702D01*
X0366628Y0367718D01*
X0366612Y0367734D01*
X0366594Y0367752D01*
X0366573Y0367773D01*
X0366550Y0367793D01*
X0366523Y0367819D01*
X0366495Y0367842D01*
X0366463Y0367869D01*
X0366429Y0367896D01*
X0366392Y0367924D01*
X0366390Y0367926D01*
X0366383Y0367931D01*
X0366371Y0367940D01*
X0366358Y0367949D01*
X0366342Y0367963D01*
X0366323Y0367977D01*
X0366282Y0368011D01*
X0366236Y0368050D01*
X0366195Y0368087D01*
X0366177Y0368105D01*
X0366158Y0368121D01*
X0366145Y0368137D01*
X0366133Y0368151D01*
Y0368153D01*
X0366129Y0368155D01*
X0366126Y0368162D01*
X0366120Y0368171D01*
X0366106Y0368194D01*
X0366090Y0368226D01*
X0366074Y0368265D01*
X0366060Y0368306D01*
X0366051Y0368354D01*
X0366046Y0368405D01*
Y0368407D01*
Y0368409D01*
Y0368423D01*
X0366049Y0368444D01*
X0366053Y0368469D01*
X0366058Y0368501D01*
X0366067Y0368533D01*
X0366080Y0368567D01*
X0366097Y0368602D01*
X0366099Y0368606D01*
X0366106Y0368616D01*
X0366117Y0368634D01*
X0366136Y0368652D01*
X0366156Y0368675D01*
X0366181Y0368698D01*
X0366211Y0368721D01*
X0366243Y0368741D01*
X0366248Y0368744D01*
X0366259Y0368751D01*
X0366280Y0368758D01*
X0366305Y0368769D01*
X0366335Y0368778D01*
X0366369Y0368785D01*
X0366406Y0368792D01*
X0366447Y0368794D01*
X0366467D01*
X0366491Y0368792D01*
D02*
G37*
G36*
X0359632Y0370861D02*
X0359646D01*
X0359680Y0370856D01*
X0359719Y0370850D01*
X0359762Y0370838D01*
X0359806Y0370824D01*
X0359852Y0370806D01*
X0359854D01*
X0359856Y0370804D01*
X0359863Y0370799D01*
X0359872Y0370795D01*
X0359895Y0370781D01*
X0359925Y0370760D01*
X0359962Y0370735D01*
X0360001Y0370703D01*
X0360042Y0370664D01*
X0360083Y0370618D01*
Y0370831D01*
X0360241D01*
Y0369853D01*
Y0369851D01*
Y0369842D01*
Y0369828D01*
Y0369812D01*
X0360239Y0369789D01*
Y0369766D01*
X0360237Y0369739D01*
Y0369711D01*
X0360230Y0369650D01*
X0360223Y0369588D01*
X0360211Y0369528D01*
X0360204Y0369501D01*
X0360195Y0369478D01*
Y0369476D01*
X0360193Y0369471D01*
X0360188Y0369462D01*
X0360184Y0369450D01*
X0360177Y0369437D01*
X0360168Y0369421D01*
X0360145Y0369382D01*
X0360115Y0369340D01*
X0360079Y0369297D01*
X0360033Y0369253D01*
X0359980Y0369217D01*
X0359978D01*
X0359973Y0369212D01*
X0359964Y0369208D01*
X0359952Y0369203D01*
X0359939Y0369196D01*
X0359920Y0369187D01*
X0359900Y0369180D01*
X0359877Y0369171D01*
X0359852Y0369162D01*
X0359822Y0369155D01*
X0359760Y0369139D01*
X0359689Y0369130D01*
X0359611Y0369125D01*
X0359584D01*
X0359570Y0369127D01*
X0359554D01*
X0359517Y0369132D01*
X0359472Y0369137D01*
X0359426Y0369144D01*
X0359375Y0369155D01*
X0359327Y0369171D01*
X0359325D01*
X0359323Y0369173D01*
X0359316Y0369176D01*
X0359307Y0369180D01*
X0359284Y0369189D01*
X0359254Y0369203D01*
X0359222Y0369219D01*
X0359188Y0369240D01*
X0359156Y0369263D01*
X0359123Y0369290D01*
X0359121Y0369295D01*
X0359110Y0369304D01*
X0359096Y0369322D01*
X0359075Y0369345D01*
X0359055Y0369377D01*
X0359030Y0369414D01*
X0359004Y0369457D01*
X0358979Y0369508D01*
X0359151D01*
Y0369505D01*
X0359153Y0369503D01*
X0359162Y0369489D01*
X0359178Y0369466D01*
X0359199Y0369441D01*
X0359224Y0369411D01*
X0359256Y0369382D01*
X0359291Y0369354D01*
X0359330Y0369329D01*
X0359332D01*
X0359334Y0369327D01*
X0359341Y0369324D01*
X0359350Y0369320D01*
X0359373Y0369311D01*
X0359405Y0369299D01*
X0359444Y0369288D01*
X0359492Y0369279D01*
X0359545Y0369272D01*
X0359604Y0369269D01*
X0359632D01*
X0359646Y0369272D01*
X0359662D01*
X0359698Y0369276D01*
X0359742Y0369285D01*
X0359785Y0369295D01*
X0359831Y0369311D01*
X0359875Y0369331D01*
X0359877D01*
X0359879Y0369334D01*
X0359893Y0369343D01*
X0359914Y0369354D01*
X0359936Y0369373D01*
X0359964Y0369395D01*
X0359989Y0369421D01*
X0360014Y0369450D01*
X0360035Y0369482D01*
X0360037Y0369487D01*
X0360042Y0369501D01*
X0360046Y0369510D01*
X0360051Y0369521D01*
X0360055Y0369537D01*
X0360060Y0369553D01*
X0360062Y0369572D01*
X0360067Y0369595D01*
X0360072Y0369618D01*
X0360076Y0369645D01*
X0360079Y0369675D01*
X0360081Y0369705D01*
X0360083Y0369739D01*
Y0369776D01*
Y0369835D01*
X0360079Y0369833D01*
X0360067Y0369819D01*
X0360049Y0369798D01*
X0360021Y0369773D01*
X0359989Y0369746D01*
X0359952Y0369718D01*
X0359911Y0369691D01*
X0359863Y0369666D01*
X0359861D01*
X0359859Y0369663D01*
X0359849Y0369661D01*
X0359840Y0369656D01*
X0359829Y0369652D01*
X0359815Y0369647D01*
X0359781Y0369636D01*
X0359739Y0369624D01*
X0359694Y0369615D01*
X0359643Y0369608D01*
X0359591Y0369606D01*
X0359575D01*
X0359561Y0369608D01*
X0359547D01*
X0359529Y0369611D01*
X0359508Y0369613D01*
X0359488Y0369618D01*
X0359439Y0369627D01*
X0359385Y0369640D01*
X0359330Y0369661D01*
X0359272Y0369689D01*
X0359270D01*
X0359265Y0369693D01*
X0359259Y0369698D01*
X0359247Y0369705D01*
X0359222Y0369723D01*
X0359188Y0369748D01*
X0359151Y0369780D01*
X0359112Y0369819D01*
X0359075Y0369865D01*
X0359043Y0369915D01*
Y0369918D01*
X0359041Y0369922D01*
X0359036Y0369929D01*
X0359032Y0369940D01*
X0359025Y0369954D01*
X0359018Y0369970D01*
X0359011Y0369986D01*
X0359004Y0370007D01*
X0358988Y0370053D01*
X0358977Y0370108D01*
X0358968Y0370165D01*
X0358963Y0370227D01*
Y0370229D01*
Y0370234D01*
Y0370243D01*
X0358965Y0370256D01*
Y0370270D01*
X0358968Y0370289D01*
X0358975Y0370330D01*
X0358984Y0370378D01*
X0358998Y0370430D01*
X0359018Y0370488D01*
X0359046Y0370543D01*
Y0370545D01*
X0359050Y0370550D01*
X0359055Y0370556D01*
X0359062Y0370568D01*
X0359080Y0370595D01*
X0359107Y0370627D01*
X0359140Y0370664D01*
X0359181Y0370703D01*
X0359227Y0370742D01*
X0359279Y0370776D01*
X0359281D01*
X0359286Y0370781D01*
X0359295Y0370785D01*
X0359304Y0370790D01*
X0359320Y0370797D01*
X0359336Y0370804D01*
X0359355Y0370811D01*
X0359375Y0370820D01*
X0359423Y0370836D01*
X0359476Y0370850D01*
X0359533Y0370859D01*
X0359595Y0370863D01*
X0359618D01*
X0359632Y0370861D01*
D02*
G37*
G36*
X0363529Y0369851D02*
X0363543Y0369849D01*
X0363559Y0369844D01*
X0363575Y0369835D01*
X0363591Y0369826D01*
X0363607Y0369812D01*
X0363610Y0369810D01*
X0363614Y0369805D01*
X0363621Y0369796D01*
X0363628Y0369785D01*
X0363635Y0369771D01*
X0363642Y0369753D01*
X0363646Y0369734D01*
X0363649Y0369714D01*
Y0369711D01*
Y0369705D01*
X0363646Y0369693D01*
X0363644Y0369679D01*
X0363639Y0369663D01*
X0363630Y0369647D01*
X0363621Y0369629D01*
X0363607Y0369613D01*
X0363605Y0369611D01*
X0363600Y0369606D01*
X0363591Y0369602D01*
X0363580Y0369595D01*
X0363566Y0369585D01*
X0363548Y0369581D01*
X0363529Y0369576D01*
X0363509Y0369574D01*
X0363500D01*
X0363488Y0369576D01*
X0363474Y0369579D01*
X0363461Y0369583D01*
X0363442Y0369590D01*
X0363426Y0369599D01*
X0363410Y0369613D01*
X0363408Y0369615D01*
X0363404Y0369620D01*
X0363399Y0369629D01*
X0363392Y0369640D01*
X0363383Y0369656D01*
X0363378Y0369673D01*
X0363374Y0369693D01*
X0363371Y0369714D01*
Y0369716D01*
Y0369723D01*
X0363374Y0369734D01*
X0363376Y0369748D01*
X0363381Y0369764D01*
X0363387Y0369780D01*
X0363397Y0369796D01*
X0363410Y0369812D01*
X0363413Y0369814D01*
X0363417Y0369819D01*
X0363426Y0369826D01*
X0363438Y0369833D01*
X0363452Y0369840D01*
X0363470Y0369847D01*
X0363488Y0369851D01*
X0363509Y0369853D01*
X0363518D01*
X0363529Y0369851D01*
D02*
G37*
G36*
X0358796Y0372115D02*
X0358631D01*
Y0373608D01*
X0358370D01*
X0358469Y0373771D01*
X0358796D01*
Y0372115D01*
D02*
G37*
G36*
X0364759D02*
X0364594D01*
Y0373608D01*
X0364333D01*
X0364432Y0373771D01*
X0364759D01*
Y0372115D01*
D02*
G37*
G36*
X0366987Y0373810D02*
X0367006Y0373807D01*
X0367029Y0373805D01*
X0367054Y0373800D01*
X0367081Y0373794D01*
X0367141Y0373775D01*
X0367171Y0373764D01*
X0367203Y0373750D01*
X0367232Y0373732D01*
X0367262Y0373711D01*
X0367292Y0373688D01*
X0367319Y0373663D01*
X0367322Y0373661D01*
X0367326Y0373656D01*
X0367333Y0373649D01*
X0367342Y0373638D01*
X0367352Y0373624D01*
X0367365Y0373606D01*
X0367377Y0373587D01*
X0367390Y0373565D01*
X0367404Y0373539D01*
X0367416Y0373514D01*
X0367439Y0373455D01*
X0367448Y0373423D01*
X0367455Y0373388D01*
X0367459Y0373352D01*
X0367461Y0373315D01*
Y0373313D01*
Y0373308D01*
Y0373301D01*
Y0373292D01*
X0367459Y0373278D01*
X0367457Y0373265D01*
X0367452Y0373230D01*
X0367445Y0373189D01*
X0367432Y0373146D01*
X0367416Y0373097D01*
X0367393Y0373052D01*
Y0373049D01*
X0367390Y0373047D01*
X0367386Y0373038D01*
X0367379Y0373029D01*
X0367372Y0373017D01*
X0367361Y0373001D01*
X0367349Y0372983D01*
X0367336Y0372965D01*
X0367319Y0372942D01*
X0367299Y0372917D01*
X0367278Y0372889D01*
X0367255Y0372859D01*
X0367228Y0372827D01*
X0367198Y0372793D01*
X0367166Y0372756D01*
X0367132Y0372717D01*
X0366717Y0372273D01*
X0367484D01*
Y0372115D01*
X0366360D01*
X0366992Y0372797D01*
X0366994Y0372800D01*
X0367001Y0372807D01*
X0367010Y0372818D01*
X0367024Y0372832D01*
X0367038Y0372848D01*
X0367056Y0372868D01*
X0367095Y0372912D01*
X0367139Y0372962D01*
X0367177Y0373013D01*
X0367214Y0373061D01*
X0367230Y0373081D01*
X0367242Y0373102D01*
Y0373104D01*
X0367244Y0373107D01*
X0367251Y0373120D01*
X0367260Y0373139D01*
X0367271Y0373166D01*
X0367283Y0373198D01*
X0367292Y0373233D01*
X0367299Y0373271D01*
X0367301Y0373313D01*
Y0373315D01*
Y0373320D01*
Y0373326D01*
X0367299Y0373336D01*
X0367297Y0373363D01*
X0367287Y0373395D01*
X0367276Y0373432D01*
X0367258Y0373473D01*
X0367230Y0373514D01*
X0367214Y0373535D01*
X0367196Y0373553D01*
X0367194Y0373555D01*
X0367191Y0373558D01*
X0367184Y0373562D01*
X0367177Y0373569D01*
X0367155Y0373585D01*
X0367125Y0373606D01*
X0367086Y0373624D01*
X0367042Y0373640D01*
X0366994Y0373652D01*
X0366967Y0373656D01*
X0366923D01*
X0366914Y0373654D01*
X0366900D01*
X0366884Y0373652D01*
X0366848Y0373642D01*
X0366807Y0373631D01*
X0366761Y0373610D01*
X0366717Y0373585D01*
X0366697Y0373567D01*
X0366676Y0373549D01*
Y0373546D01*
X0366671Y0373544D01*
X0366667Y0373537D01*
X0366660Y0373530D01*
X0366651Y0373519D01*
X0366642Y0373505D01*
X0366621Y0373473D01*
X0366600Y0373429D01*
X0366582Y0373379D01*
X0366566Y0373320D01*
X0366557Y0373253D01*
X0366399D01*
Y0373255D01*
Y0373265D01*
X0366401Y0373276D01*
Y0373294D01*
X0366406Y0373315D01*
X0366408Y0373338D01*
X0366415Y0373365D01*
X0366422Y0373395D01*
X0366440Y0373457D01*
X0366454Y0373491D01*
X0366470Y0373526D01*
X0366488Y0373558D01*
X0366509Y0373592D01*
X0366534Y0373624D01*
X0366561Y0373654D01*
X0366564Y0373656D01*
X0366568Y0373661D01*
X0366578Y0373668D01*
X0366589Y0373679D01*
X0366605Y0373691D01*
X0366623Y0373704D01*
X0366644Y0373718D01*
X0366669Y0373734D01*
X0366697Y0373748D01*
X0366726Y0373762D01*
X0366758Y0373775D01*
X0366790Y0373787D01*
X0366827Y0373798D01*
X0366866Y0373805D01*
X0366907Y0373810D01*
X0366949Y0373812D01*
X0366971D01*
X0366987Y0373810D01*
D02*
G37*
G36*
X0368226D02*
X0368240D01*
X0368256Y0373807D01*
X0368295Y0373800D01*
X0368341Y0373789D01*
X0368389Y0373773D01*
X0368439Y0373750D01*
X0368490Y0373718D01*
X0368492D01*
X0368496Y0373713D01*
X0368503Y0373709D01*
X0368510Y0373700D01*
X0368535Y0373679D01*
X0368565Y0373647D01*
X0368597Y0373608D01*
X0368632Y0373560D01*
X0368666Y0373505D01*
X0368696Y0373439D01*
Y0373436D01*
X0368698Y0373429D01*
X0368703Y0373420D01*
X0368707Y0373404D01*
X0368714Y0373386D01*
X0368721Y0373363D01*
X0368728Y0373338D01*
X0368735Y0373308D01*
X0368741Y0373274D01*
X0368748Y0373235D01*
X0368755Y0373196D01*
X0368762Y0373150D01*
X0368767Y0373104D01*
X0368771Y0373052D01*
X0368774Y0372999D01*
Y0372942D01*
Y0372937D01*
Y0372928D01*
Y0372912D01*
Y0372891D01*
X0368771Y0372864D01*
X0368769Y0372834D01*
X0368767Y0372800D01*
X0368764Y0372763D01*
X0368755Y0372683D01*
X0368741Y0372601D01*
X0368723Y0372520D01*
X0368712Y0372481D01*
X0368698Y0372445D01*
Y0372443D01*
X0368696Y0372438D01*
X0368691Y0372427D01*
X0368684Y0372415D01*
X0368677Y0372399D01*
X0368668Y0372383D01*
X0368643Y0372342D01*
X0368613Y0372296D01*
X0368579Y0372250D01*
X0368538Y0372207D01*
X0368490Y0372168D01*
X0368487D01*
X0368483Y0372163D01*
X0368476Y0372159D01*
X0368467Y0372154D01*
X0368455Y0372147D01*
X0368439Y0372138D01*
X0368405Y0372122D01*
X0368361Y0372104D01*
X0368311Y0372088D01*
X0368258Y0372078D01*
X0368199Y0372074D01*
X0368183D01*
X0368171Y0372076D01*
X0368158D01*
X0368142Y0372078D01*
X0368103Y0372085D01*
X0368059Y0372097D01*
X0368009Y0372111D01*
X0367961Y0372133D01*
X0367910Y0372163D01*
X0367908D01*
X0367906Y0372168D01*
X0367899Y0372172D01*
X0367890Y0372182D01*
X0367867Y0372202D01*
X0367839Y0372232D01*
X0367807Y0372271D01*
X0367775Y0372317D01*
X0367743Y0372372D01*
X0367713Y0372436D01*
Y0372438D01*
X0367711Y0372445D01*
X0367706Y0372454D01*
X0367702Y0372470D01*
X0367697Y0372488D01*
X0367690Y0372511D01*
X0367684Y0372536D01*
X0367679Y0372566D01*
X0367672Y0372601D01*
X0367665Y0372639D01*
X0367658Y0372681D01*
X0367654Y0372726D01*
X0367649Y0372775D01*
X0367645Y0372827D01*
X0367642Y0372882D01*
Y0372942D01*
Y0372946D01*
Y0372955D01*
Y0372974D01*
X0367645Y0372997D01*
Y0373024D01*
X0367647Y0373054D01*
X0367649Y0373091D01*
X0367652Y0373127D01*
X0367658Y0373210D01*
X0367672Y0373294D01*
X0367688Y0373375D01*
X0367700Y0373413D01*
X0367711Y0373448D01*
Y0373450D01*
X0367713Y0373455D01*
X0367718Y0373464D01*
X0367725Y0373478D01*
X0367732Y0373491D01*
X0367741Y0373510D01*
X0367764Y0373549D01*
X0367791Y0373592D01*
X0367826Y0373638D01*
X0367864Y0373679D01*
X0367910Y0373718D01*
X0367913D01*
X0367917Y0373723D01*
X0367924Y0373727D01*
X0367933Y0373732D01*
X0367945Y0373741D01*
X0367958Y0373748D01*
X0367995Y0373766D01*
X0368036Y0373782D01*
X0368087Y0373798D01*
X0368142Y0373807D01*
X0368199Y0373812D01*
X0368215D01*
X0368226Y0373810D01*
D02*
G37*
G36*
X0370457Y0372074D02*
X0370317Y0372143D01*
X0371082Y0373613D01*
X0370292D01*
Y0373771D01*
X0371341D01*
X0370457Y0372074D01*
D02*
G37*
G36*
X0359689Y0372360D02*
X0359703Y0372358D01*
X0359719Y0372353D01*
X0359735Y0372344D01*
X0359751Y0372335D01*
X0359767Y0372321D01*
X0359769Y0372319D01*
X0359774Y0372314D01*
X0359781Y0372305D01*
X0359788Y0372294D01*
X0359794Y0372280D01*
X0359801Y0372262D01*
X0359806Y0372243D01*
X0359808Y0372223D01*
Y0372220D01*
Y0372214D01*
X0359806Y0372202D01*
X0359804Y0372188D01*
X0359799Y0372172D01*
X0359790Y0372156D01*
X0359781Y0372138D01*
X0359767Y0372122D01*
X0359765Y0372120D01*
X0359760Y0372115D01*
X0359751Y0372111D01*
X0359739Y0372104D01*
X0359726Y0372094D01*
X0359707Y0372090D01*
X0359689Y0372085D01*
X0359668Y0372083D01*
X0359659D01*
X0359648Y0372085D01*
X0359634Y0372088D01*
X0359620Y0372092D01*
X0359602Y0372099D01*
X0359586Y0372108D01*
X0359570Y0372122D01*
X0359568Y0372124D01*
X0359563Y0372129D01*
X0359559Y0372138D01*
X0359552Y0372149D01*
X0359543Y0372165D01*
X0359538Y0372182D01*
X0359533Y0372202D01*
X0359531Y0372223D01*
Y0372225D01*
Y0372232D01*
X0359533Y0372243D01*
X0359536Y0372257D01*
X0359540Y0372273D01*
X0359547Y0372289D01*
X0359556Y0372305D01*
X0359570Y0372321D01*
X0359572Y0372323D01*
X0359577Y0372328D01*
X0359586Y0372335D01*
X0359598Y0372342D01*
X0359611Y0372349D01*
X0359630Y0372356D01*
X0359648Y0372360D01*
X0359668Y0372362D01*
X0359678D01*
X0359689Y0372360D01*
D02*
G37*
G36*
X0368010Y0376897D02*
X0368043Y0376894D01*
X0368079Y0376891D01*
X0368125Y0376884D01*
X0368174Y0376871D01*
X0368226Y0376858D01*
X0368282Y0376842D01*
X0368338Y0376819D01*
X0368400Y0376789D01*
X0368459Y0376756D01*
X0368518Y0376717D01*
X0368574Y0376671D01*
X0368630Y0376619D01*
X0368682Y0376560D01*
X0368686Y0376556D01*
X0368692Y0376550D01*
X0368699Y0376533D01*
X0368712Y0376517D01*
X0368728Y0376494D01*
X0368745Y0376465D01*
X0368761Y0376432D01*
X0368781Y0376392D01*
X0368797Y0376353D01*
X0368817Y0376307D01*
X0368833Y0376258D01*
X0368846Y0376205D01*
X0368859Y0376146D01*
X0368869Y0376087D01*
X0368876Y0376025D01*
X0368879Y0375959D01*
X0367301D01*
Y0375956D01*
Y0375946D01*
Y0375930D01*
X0367305Y0375907D01*
X0367308Y0375881D01*
X0367311Y0375851D01*
X0367318Y0375818D01*
X0367328Y0375782D01*
X0367351Y0375700D01*
X0367383Y0375615D01*
X0367406Y0375576D01*
X0367429Y0375533D01*
X0367459Y0375494D01*
X0367492Y0375454D01*
X0367495Y0375451D01*
X0367501Y0375444D01*
X0367511Y0375438D01*
X0367525Y0375425D01*
X0367544Y0375408D01*
X0367567Y0375392D01*
X0367593Y0375376D01*
X0367623Y0375359D01*
X0367688Y0375323D01*
X0367771Y0375290D01*
X0367813Y0375277D01*
X0367859Y0375271D01*
X0367908Y0375264D01*
X0367961Y0375261D01*
X0367984D01*
X0368010Y0375264D01*
X0368043Y0375267D01*
X0368082Y0375271D01*
X0368128Y0375280D01*
X0368174Y0375290D01*
X0368220Y0375307D01*
X0368226Y0375310D01*
X0368243Y0375317D01*
X0368266Y0375326D01*
X0368295Y0375339D01*
X0368328Y0375356D01*
X0368364Y0375379D01*
X0368400Y0375402D01*
X0368436Y0375428D01*
X0368440Y0375431D01*
X0368453Y0375444D01*
X0368469Y0375461D01*
X0368492Y0375490D01*
X0368522Y0375523D01*
X0368554Y0375569D01*
X0368590Y0375622D01*
X0368627Y0375681D01*
X0368820Y0375579D01*
Y0375576D01*
X0368817Y0375572D01*
X0368810Y0375563D01*
X0368804Y0375549D01*
X0368784Y0375513D01*
X0368758Y0375474D01*
X0368725Y0375425D01*
X0368689Y0375376D01*
X0368646Y0375326D01*
X0368600Y0375280D01*
X0368594Y0375277D01*
X0368581Y0375261D01*
X0368554Y0375241D01*
X0368522Y0375218D01*
X0368479Y0375189D01*
X0368433Y0375162D01*
X0368381Y0375133D01*
X0368325Y0375110D01*
X0368318Y0375107D01*
X0368299Y0375100D01*
X0368266Y0375093D01*
X0368226Y0375084D01*
X0368174Y0375071D01*
X0368115Y0375064D01*
X0368049Y0375057D01*
X0367980Y0375054D01*
X0367961D01*
X0367938Y0375057D01*
X0367908D01*
X0367872Y0375064D01*
X0367833Y0375071D01*
X0367787Y0375077D01*
X0367734Y0375090D01*
X0367682Y0375103D01*
X0367626Y0375123D01*
X0367570Y0375146D01*
X0367515Y0375172D01*
X0367459Y0375205D01*
X0367406Y0375241D01*
X0367357Y0375284D01*
X0367308Y0375333D01*
X0367305Y0375336D01*
X0367298Y0375346D01*
X0367285Y0375362D01*
X0367272Y0375382D01*
X0367252Y0375408D01*
X0367233Y0375441D01*
X0367210Y0375477D01*
X0367190Y0375520D01*
X0367167Y0375563D01*
X0367144Y0375612D01*
X0367124Y0375667D01*
X0367105Y0375723D01*
X0367091Y0375782D01*
X0367078Y0375841D01*
X0367072Y0375907D01*
X0367069Y0375973D01*
Y0375976D01*
Y0375989D01*
Y0376005D01*
X0367072Y0376028D01*
X0367075Y0376058D01*
X0367078Y0376091D01*
X0367085Y0376130D01*
X0367095Y0376173D01*
X0367118Y0376264D01*
X0367134Y0376314D01*
X0367154Y0376363D01*
X0367177Y0376415D01*
X0367206Y0376465D01*
X0367236Y0376517D01*
X0367272Y0376566D01*
X0367275Y0376569D01*
X0367285Y0376579D01*
X0367298Y0376596D01*
X0367318Y0376619D01*
X0367344Y0376645D01*
X0367377Y0376671D01*
X0367413Y0376704D01*
X0367456Y0376733D01*
X0367505Y0376766D01*
X0367557Y0376796D01*
X0367613Y0376822D01*
X0367675Y0376848D01*
X0367741Y0376871D01*
X0367813Y0376888D01*
X0367889Y0376897D01*
X0367967Y0376901D01*
X0367987D01*
X0368010Y0376897D01*
D02*
G37*
G36*
X0357246Y0372115D02*
X0357209D01*
X0356499Y0373771D01*
X0356678D01*
X0357230Y0372484D01*
X0357788Y0373771D01*
X0357967D01*
X0357246Y0372115D01*
D02*
G37*
G36*
X0363222Y0306784D02*
X0359972D01*
Y0310033D01*
X0363222Y0306784D01*
D02*
G37*
G36*
X0369600Y0372115D02*
X0369435D01*
Y0373608D01*
X0369174D01*
X0369273Y0373771D01*
X0369600D01*
Y0372115D01*
D02*
G37*
G36*
X0355736Y0375333D02*
X0356648D01*
Y0375100D01*
X0355500D01*
Y0377471D01*
X0355736D01*
Y0375333D01*
D02*
G37*
G36*
X0373261Y0376897D02*
X0373294Y0376894D01*
X0373330Y0376891D01*
X0373376Y0376884D01*
X0373425Y0376871D01*
X0373478Y0376858D01*
X0373533Y0376842D01*
X0373589Y0376819D01*
X0373652Y0376789D01*
X0373711Y0376756D01*
X0373770Y0376717D01*
X0373825Y0376671D01*
X0373881Y0376619D01*
X0373934Y0376560D01*
X0373937Y0376556D01*
X0373943Y0376550D01*
X0373950Y0376533D01*
X0373963Y0376517D01*
X0373979Y0376494D01*
X0373996Y0376465D01*
X0374012Y0376432D01*
X0374032Y0376392D01*
X0374048Y0376353D01*
X0374068Y0376307D01*
X0374084Y0376258D01*
X0374098Y0376205D01*
X0374111Y0376146D01*
X0374121Y0376087D01*
X0374127Y0376025D01*
X0374130Y0375959D01*
X0372553D01*
Y0375956D01*
Y0375946D01*
Y0375930D01*
X0372556Y0375907D01*
X0372559Y0375881D01*
X0372563Y0375851D01*
X0372569Y0375818D01*
X0372579Y0375782D01*
X0372602Y0375700D01*
X0372635Y0375615D01*
X0372658Y0375576D01*
X0372681Y0375533D01*
X0372710Y0375494D01*
X0372743Y0375454D01*
X0372746Y0375451D01*
X0372753Y0375444D01*
X0372763Y0375438D01*
X0372776Y0375425D01*
X0372795Y0375408D01*
X0372818Y0375392D01*
X0372845Y0375376D01*
X0372874Y0375359D01*
X0372940Y0375323D01*
X0373022Y0375290D01*
X0373064Y0375277D01*
X0373110Y0375271D01*
X0373160Y0375264D01*
X0373212Y0375261D01*
X0373235D01*
X0373261Y0375264D01*
X0373294Y0375267D01*
X0373333Y0375271D01*
X0373379Y0375280D01*
X0373425Y0375290D01*
X0373471Y0375307D01*
X0373478Y0375310D01*
X0373494Y0375317D01*
X0373517Y0375326D01*
X0373547Y0375339D01*
X0373579Y0375356D01*
X0373615Y0375379D01*
X0373652Y0375402D01*
X0373688Y0375428D01*
X0373691Y0375431D01*
X0373704Y0375444D01*
X0373720Y0375461D01*
X0373743Y0375490D01*
X0373773Y0375523D01*
X0373806Y0375569D01*
X0373842Y0375622D01*
X0373878Y0375681D01*
X0374071Y0375579D01*
Y0375576D01*
X0374068Y0375572D01*
X0374061Y0375563D01*
X0374055Y0375549D01*
X0374035Y0375513D01*
X0374009Y0375474D01*
X0373976Y0375425D01*
X0373940Y0375376D01*
X0373898Y0375326D01*
X0373852Y0375280D01*
X0373845Y0375277D01*
X0373832Y0375261D01*
X0373806Y0375241D01*
X0373773Y0375218D01*
X0373730Y0375189D01*
X0373684Y0375162D01*
X0373632Y0375133D01*
X0373576Y0375110D01*
X0373569Y0375107D01*
X0373550Y0375100D01*
X0373517Y0375093D01*
X0373478Y0375084D01*
X0373425Y0375071D01*
X0373366Y0375064D01*
X0373301Y0375057D01*
X0373232Y0375054D01*
X0373212D01*
X0373189Y0375057D01*
X0373160D01*
X0373123Y0375064D01*
X0373084Y0375071D01*
X0373038Y0375077D01*
X0372986Y0375090D01*
X0372933Y0375103D01*
X0372877Y0375123D01*
X0372822Y0375146D01*
X0372766Y0375172D01*
X0372710Y0375205D01*
X0372658Y0375241D01*
X0372608Y0375284D01*
X0372559Y0375333D01*
X0372556Y0375336D01*
X0372549Y0375346D01*
X0372536Y0375362D01*
X0372523Y0375382D01*
X0372503Y0375408D01*
X0372484Y0375441D01*
X0372461Y0375477D01*
X0372441Y0375520D01*
X0372418Y0375563D01*
X0372395Y0375612D01*
X0372376Y0375667D01*
X0372356Y0375723D01*
X0372343Y0375782D01*
X0372330Y0375841D01*
X0372323Y0375907D01*
X0372320Y0375973D01*
Y0375976D01*
Y0375989D01*
Y0376005D01*
X0372323Y0376028D01*
X0372326Y0376058D01*
X0372330Y0376091D01*
X0372336Y0376130D01*
X0372346Y0376173D01*
X0372369Y0376264D01*
X0372385Y0376314D01*
X0372405Y0376363D01*
X0372428Y0376415D01*
X0372458Y0376465D01*
X0372487Y0376517D01*
X0372523Y0376566D01*
X0372527Y0376569D01*
X0372536Y0376579D01*
X0372549Y0376596D01*
X0372569Y0376619D01*
X0372595Y0376645D01*
X0372628Y0376671D01*
X0372664Y0376704D01*
X0372707Y0376733D01*
X0372756Y0376766D01*
X0372809Y0376796D01*
X0372864Y0376822D01*
X0372927Y0376848D01*
X0372992Y0376871D01*
X0373064Y0376888D01*
X0373140Y0376897D01*
X0373219Y0376901D01*
X0373238D01*
X0373261Y0376897D01*
D02*
G37*
G36*
X0358386Y0377239D02*
X0357265D01*
Y0376497D01*
X0358377D01*
Y0376264D01*
X0357265D01*
Y0375333D01*
X0358377D01*
Y0375100D01*
X0357029D01*
Y0377471D01*
X0358386D01*
Y0377239D01*
D02*
G37*
G36*
X0359416Y0377468D02*
X0359466D01*
X0359521Y0377465D01*
X0359584Y0377462D01*
X0359708Y0377449D01*
X0359836Y0377435D01*
X0359898Y0377426D01*
X0359958Y0377412D01*
X0360010Y0377399D01*
X0360059Y0377383D01*
X0360063D01*
X0360076Y0377376D01*
X0360092Y0377370D01*
X0360115Y0377360D01*
X0360144Y0377347D01*
X0360177Y0377330D01*
X0360217Y0377311D01*
X0360256Y0377288D01*
X0360299Y0377258D01*
X0360341Y0377229D01*
X0360387Y0377196D01*
X0360433Y0377157D01*
X0360476Y0377117D01*
X0360518Y0377071D01*
X0360558Y0377019D01*
X0360597Y0376966D01*
X0360600Y0376963D01*
X0360607Y0376953D01*
X0360617Y0376937D01*
X0360627Y0376914D01*
X0360643Y0376884D01*
X0360659Y0376852D01*
X0360676Y0376809D01*
X0360696Y0376766D01*
X0360715Y0376717D01*
X0360732Y0376661D01*
X0360748Y0376602D01*
X0360764Y0376540D01*
X0360774Y0376474D01*
X0360784Y0376405D01*
X0360791Y0376330D01*
X0360794Y0376255D01*
Y0376251D01*
Y0376238D01*
Y0376219D01*
X0360791Y0376196D01*
Y0376163D01*
X0360787Y0376127D01*
X0360781Y0376087D01*
X0360774Y0376041D01*
X0360758Y0375943D01*
X0360728Y0375838D01*
X0360692Y0375730D01*
X0360666Y0375677D01*
X0360640Y0375625D01*
X0360636Y0375622D01*
X0360633Y0375612D01*
X0360623Y0375599D01*
X0360613Y0375582D01*
X0360597Y0375559D01*
X0360577Y0375533D01*
X0360531Y0375474D01*
X0360476Y0375408D01*
X0360407Y0375343D01*
X0360328Y0375280D01*
X0360285Y0375254D01*
X0360240Y0375228D01*
X0360236D01*
X0360230Y0375221D01*
X0360213Y0375215D01*
X0360194Y0375208D01*
X0360171Y0375198D01*
X0360138Y0375189D01*
X0360102Y0375175D01*
X0360063Y0375166D01*
X0360017Y0375152D01*
X0359964Y0375139D01*
X0359908Y0375130D01*
X0359846Y0375120D01*
X0359780Y0375113D01*
X0359708Y0375107D01*
X0359633Y0375100D01*
X0358796D01*
Y0377471D01*
X0359374D01*
X0359416Y0377468D01*
D02*
G37*
G36*
X0357202Y0370861D02*
X0357218Y0370859D01*
X0357239Y0370852D01*
X0357264Y0370845D01*
X0357289Y0370834D01*
X0357317Y0370820D01*
X0357234Y0370687D01*
X0357232D01*
X0357225Y0370692D01*
X0357216Y0370694D01*
X0357205Y0370698D01*
X0357177Y0370705D01*
X0357150Y0370710D01*
X0357136D01*
X0357122Y0370708D01*
X0357101Y0370701D01*
X0357079Y0370694D01*
X0357053Y0370682D01*
X0357026Y0370666D01*
X0356998Y0370643D01*
X0356996Y0370641D01*
X0356987Y0370632D01*
X0356973Y0370616D01*
X0356957Y0370595D01*
X0356939Y0370566D01*
X0356921Y0370531D01*
X0356902Y0370490D01*
X0356886Y0370442D01*
Y0370440D01*
Y0370437D01*
X0356884Y0370430D01*
X0356882Y0370421D01*
X0356879Y0370408D01*
X0356877Y0370392D01*
X0356875Y0370373D01*
X0356872Y0370350D01*
X0356870Y0370325D01*
X0356868Y0370293D01*
X0356866Y0370259D01*
X0356863Y0370220D01*
X0356861Y0370179D01*
Y0370130D01*
X0356859Y0370078D01*
Y0370021D01*
Y0369606D01*
X0356698D01*
Y0370831D01*
X0356859D01*
Y0370653D01*
X0356861Y0370655D01*
X0356870Y0370669D01*
X0356886Y0370687D01*
X0356905Y0370710D01*
X0356927Y0370737D01*
X0356953Y0370763D01*
X0356980Y0370788D01*
X0357010Y0370811D01*
X0357014Y0370813D01*
X0357024Y0370820D01*
X0357040Y0370827D01*
X0357060Y0370838D01*
X0357085Y0370847D01*
X0357115Y0370854D01*
X0357145Y0370861D01*
X0357177Y0370863D01*
X0357189D01*
X0357202Y0370861D01*
D02*
G37*
G36*
X0354614Y0370859D02*
X0354649Y0370854D01*
X0354685Y0370845D01*
X0354727Y0370834D01*
X0354768Y0370815D01*
X0354809Y0370792D01*
X0354812D01*
X0354814Y0370790D01*
X0354827Y0370781D01*
X0354846Y0370765D01*
X0354869Y0370744D01*
X0354894Y0370717D01*
X0354919Y0370685D01*
X0354944Y0370646D01*
X0354965Y0370605D01*
Y0370602D01*
X0354967Y0370600D01*
X0354970Y0370593D01*
X0354974Y0370582D01*
X0354976Y0370570D01*
X0354981Y0370554D01*
X0354985Y0370536D01*
X0354992Y0370513D01*
X0354997Y0370490D01*
X0355001Y0370463D01*
X0355006Y0370433D01*
X0355008Y0370398D01*
X0355013Y0370362D01*
X0355015Y0370323D01*
X0355017Y0370282D01*
Y0370236D01*
Y0369606D01*
X0354859D01*
Y0370190D01*
Y0370192D01*
Y0370199D01*
Y0370211D01*
Y0370224D01*
Y0370243D01*
Y0370261D01*
X0354857Y0370305D01*
X0354855Y0370353D01*
X0354853Y0370401D01*
X0354848Y0370442D01*
X0354843Y0370460D01*
X0354841Y0370474D01*
Y0370476D01*
X0354839Y0370479D01*
Y0370485D01*
X0354837Y0370495D01*
X0354827Y0370515D01*
X0354818Y0370543D01*
X0354805Y0370572D01*
X0354786Y0370602D01*
X0354763Y0370632D01*
X0354736Y0370657D01*
X0354734Y0370659D01*
X0354722Y0370666D01*
X0354706Y0370678D01*
X0354683Y0370689D01*
X0354653Y0370698D01*
X0354619Y0370710D01*
X0354580Y0370717D01*
X0354534Y0370719D01*
X0354521D01*
X0354511Y0370717D01*
X0354498D01*
X0354484Y0370714D01*
X0354450Y0370708D01*
X0354408Y0370696D01*
X0354367Y0370678D01*
X0354321Y0370655D01*
X0354278Y0370623D01*
X0354276D01*
X0354273Y0370618D01*
X0354260Y0370607D01*
X0354241Y0370586D01*
X0354218Y0370559D01*
X0354193Y0370524D01*
X0354168Y0370485D01*
X0354145Y0370440D01*
X0354129Y0370389D01*
Y0370385D01*
X0354127Y0370380D01*
Y0370371D01*
X0354124Y0370362D01*
X0354122Y0370348D01*
X0354120Y0370332D01*
Y0370314D01*
X0354118Y0370291D01*
X0354115Y0370268D01*
X0354113Y0370240D01*
X0354111Y0370211D01*
Y0370176D01*
X0354108Y0370140D01*
Y0370098D01*
Y0370055D01*
Y0369606D01*
X0353950D01*
Y0370831D01*
X0354108D01*
Y0370612D01*
X0354111Y0370614D01*
X0354113Y0370616D01*
X0354118Y0370623D01*
X0354124Y0370632D01*
X0354145Y0370655D01*
X0354170Y0370682D01*
X0354200Y0370712D01*
X0354237Y0370744D01*
X0354276Y0370774D01*
X0354317Y0370799D01*
X0354319D01*
X0354321Y0370801D01*
X0354328Y0370806D01*
X0354337Y0370808D01*
X0354360Y0370820D01*
X0354390Y0370831D01*
X0354429Y0370843D01*
X0354470Y0370854D01*
X0354516Y0370861D01*
X0354566Y0370863D01*
X0354589D01*
X0354614Y0370859D01*
D02*
G37*
G36*
X0367624D02*
X0367658Y0370854D01*
X0367695Y0370845D01*
X0367736Y0370834D01*
X0367777Y0370815D01*
X0367819Y0370792D01*
X0367821D01*
X0367823Y0370790D01*
X0367837Y0370781D01*
X0367855Y0370765D01*
X0367878Y0370744D01*
X0367903Y0370717D01*
X0367929Y0370685D01*
X0367954Y0370646D01*
X0367974Y0370605D01*
Y0370602D01*
X0367977Y0370600D01*
X0367979Y0370593D01*
X0367984Y0370582D01*
X0367986Y0370570D01*
X0367990Y0370554D01*
X0367995Y0370536D01*
X0368002Y0370513D01*
X0368006Y0370490D01*
X0368011Y0370463D01*
X0368016Y0370433D01*
X0368018Y0370398D01*
X0368022Y0370362D01*
X0368025Y0370323D01*
X0368027Y0370282D01*
Y0370236D01*
Y0369606D01*
X0367869D01*
Y0370190D01*
Y0370192D01*
Y0370199D01*
Y0370211D01*
Y0370224D01*
Y0370243D01*
Y0370261D01*
X0367867Y0370305D01*
X0367864Y0370353D01*
X0367862Y0370401D01*
X0367858Y0370442D01*
X0367853Y0370460D01*
X0367851Y0370474D01*
Y0370476D01*
X0367848Y0370479D01*
Y0370485D01*
X0367846Y0370495D01*
X0367837Y0370515D01*
X0367828Y0370543D01*
X0367814Y0370572D01*
X0367796Y0370602D01*
X0367773Y0370632D01*
X0367745Y0370657D01*
X0367743Y0370659D01*
X0367732Y0370666D01*
X0367716Y0370678D01*
X0367693Y0370689D01*
X0367663Y0370698D01*
X0367629Y0370710D01*
X0367590Y0370717D01*
X0367544Y0370719D01*
X0367530D01*
X0367521Y0370717D01*
X0367507D01*
X0367494Y0370714D01*
X0367459Y0370708D01*
X0367418Y0370696D01*
X0367377Y0370678D01*
X0367331Y0370655D01*
X0367287Y0370623D01*
X0367285D01*
X0367283Y0370618D01*
X0367269Y0370607D01*
X0367251Y0370586D01*
X0367228Y0370559D01*
X0367203Y0370524D01*
X0367177Y0370485D01*
X0367155Y0370440D01*
X0367139Y0370389D01*
Y0370385D01*
X0367136Y0370380D01*
Y0370371D01*
X0367134Y0370362D01*
X0367132Y0370348D01*
X0367129Y0370332D01*
Y0370314D01*
X0367127Y0370291D01*
X0367125Y0370268D01*
X0367123Y0370240D01*
X0367120Y0370211D01*
Y0370176D01*
X0367118Y0370140D01*
Y0370098D01*
Y0370055D01*
Y0369606D01*
X0366960D01*
Y0370831D01*
X0367118D01*
Y0370612D01*
X0367120Y0370614D01*
X0367123Y0370616D01*
X0367127Y0370623D01*
X0367134Y0370632D01*
X0367155Y0370655D01*
X0367180Y0370682D01*
X0367210Y0370712D01*
X0367246Y0370744D01*
X0367285Y0370774D01*
X0367326Y0370799D01*
X0367329D01*
X0367331Y0370801D01*
X0367338Y0370806D01*
X0367347Y0370808D01*
X0367370Y0370820D01*
X0367400Y0370831D01*
X0367439Y0370843D01*
X0367480Y0370854D01*
X0367526Y0370861D01*
X0367576Y0370863D01*
X0367599D01*
X0367624Y0370859D01*
D02*
G37*
G36*
X0369589Y0369606D02*
X0369431D01*
Y0369812D01*
X0369426Y0369810D01*
X0369412Y0369794D01*
X0369392Y0369773D01*
X0369364Y0369748D01*
X0369332Y0369718D01*
X0369293Y0369689D01*
X0369252Y0369659D01*
X0369206Y0369634D01*
X0369204D01*
X0369202Y0369631D01*
X0369195Y0369629D01*
X0369186Y0369624D01*
X0369161Y0369615D01*
X0369128Y0369604D01*
X0369087Y0369592D01*
X0369041Y0369583D01*
X0368991Y0369576D01*
X0368938Y0369574D01*
X0368927D01*
X0368913Y0369576D01*
X0368895D01*
X0368872Y0369581D01*
X0368847Y0369583D01*
X0368817Y0369590D01*
X0368787Y0369597D01*
X0368753Y0369608D01*
X0368716Y0369620D01*
X0368680Y0369636D01*
X0368643Y0369654D01*
X0368606Y0369675D01*
X0368567Y0369700D01*
X0368531Y0369730D01*
X0368496Y0369762D01*
X0368494Y0369764D01*
X0368490Y0369771D01*
X0368480Y0369780D01*
X0368469Y0369796D01*
X0368453Y0369814D01*
X0368439Y0369835D01*
X0368421Y0369860D01*
X0368405Y0369890D01*
X0368389Y0369922D01*
X0368371Y0369956D01*
X0368357Y0369993D01*
X0368343Y0370034D01*
X0368329Y0370078D01*
X0368320Y0370124D01*
X0368316Y0370169D01*
X0368313Y0370220D01*
Y0370222D01*
Y0370231D01*
X0368316Y0370245D01*
Y0370263D01*
X0368318Y0370286D01*
X0368322Y0370314D01*
X0368329Y0370343D01*
X0368336Y0370376D01*
X0368345Y0370410D01*
X0368359Y0370447D01*
X0368373Y0370485D01*
X0368391Y0370524D01*
X0368412Y0370561D01*
X0368437Y0370600D01*
X0368464Y0370637D01*
X0368496Y0370673D01*
X0368499Y0370676D01*
X0368506Y0370682D01*
X0368515Y0370692D01*
X0368529Y0370703D01*
X0368547Y0370717D01*
X0368570Y0370733D01*
X0368595Y0370751D01*
X0368622Y0370770D01*
X0368652Y0370785D01*
X0368687Y0370804D01*
X0368723Y0370820D01*
X0368762Y0370834D01*
X0368806Y0370845D01*
X0368849Y0370854D01*
X0368895Y0370861D01*
X0368943Y0370863D01*
X0368968D01*
X0368982Y0370861D01*
X0368998D01*
X0369035Y0370854D01*
X0369076Y0370847D01*
X0369122Y0370836D01*
X0369170Y0370820D01*
X0369215Y0370797D01*
X0369218D01*
X0369220Y0370795D01*
X0369227Y0370790D01*
X0369236Y0370785D01*
X0369259Y0370770D01*
X0369289Y0370749D01*
X0369321Y0370721D01*
X0369357Y0370689D01*
X0369394Y0370650D01*
X0369431Y0370605D01*
Y0371303D01*
X0369589D01*
Y0369606D01*
D02*
G37*
G36*
X0365535Y0371891D02*
X0365364D01*
X0366051Y0373812D01*
X0366225D01*
X0365535Y0371891D01*
D02*
G37*
G36*
X0360617Y0373810D02*
X0360630D01*
X0360646Y0373807D01*
X0360685Y0373800D01*
X0360731Y0373789D01*
X0360779Y0373773D01*
X0360830Y0373750D01*
X0360880Y0373718D01*
X0360882D01*
X0360887Y0373713D01*
X0360894Y0373709D01*
X0360901Y0373700D01*
X0360926Y0373679D01*
X0360956Y0373647D01*
X0360988Y0373608D01*
X0361022Y0373560D01*
X0361056Y0373505D01*
X0361086Y0373439D01*
Y0373436D01*
X0361088Y0373429D01*
X0361093Y0373420D01*
X0361098Y0373404D01*
X0361104Y0373386D01*
X0361111Y0373363D01*
X0361118Y0373338D01*
X0361125Y0373308D01*
X0361132Y0373274D01*
X0361139Y0373235D01*
X0361146Y0373196D01*
X0361153Y0373150D01*
X0361157Y0373104D01*
X0361162Y0373052D01*
X0361164Y0372999D01*
Y0372942D01*
Y0372937D01*
Y0372928D01*
Y0372912D01*
Y0372891D01*
X0361162Y0372864D01*
X0361159Y0372834D01*
X0361157Y0372800D01*
X0361155Y0372763D01*
X0361146Y0372683D01*
X0361132Y0372601D01*
X0361114Y0372520D01*
X0361102Y0372481D01*
X0361088Y0372445D01*
Y0372443D01*
X0361086Y0372438D01*
X0361082Y0372427D01*
X0361075Y0372415D01*
X0361068Y0372399D01*
X0361059Y0372383D01*
X0361033Y0372342D01*
X0361004Y0372296D01*
X0360969Y0372250D01*
X0360928Y0372207D01*
X0360880Y0372168D01*
X0360878D01*
X0360873Y0372163D01*
X0360866Y0372159D01*
X0360857Y0372154D01*
X0360846Y0372147D01*
X0360830Y0372138D01*
X0360795Y0372122D01*
X0360752Y0372104D01*
X0360701Y0372088D01*
X0360649Y0372078D01*
X0360589Y0372074D01*
X0360573D01*
X0360562Y0372076D01*
X0360548D01*
X0360532Y0372078D01*
X0360493Y0372085D01*
X0360449Y0372097D01*
X0360399Y0372111D01*
X0360351Y0372133D01*
X0360301Y0372163D01*
X0360298D01*
X0360296Y0372168D01*
X0360289Y0372172D01*
X0360280Y0372182D01*
X0360257Y0372202D01*
X0360230Y0372232D01*
X0360197Y0372271D01*
X0360166Y0372317D01*
X0360133Y0372372D01*
X0360104Y0372436D01*
Y0372438D01*
X0360101Y0372445D01*
X0360097Y0372454D01*
X0360092Y0372470D01*
X0360088Y0372488D01*
X0360081Y0372511D01*
X0360074Y0372536D01*
X0360069Y0372566D01*
X0360062Y0372601D01*
X0360055Y0372639D01*
X0360049Y0372681D01*
X0360044Y0372726D01*
X0360039Y0372775D01*
X0360035Y0372827D01*
X0360033Y0372882D01*
Y0372942D01*
Y0372946D01*
Y0372955D01*
Y0372974D01*
X0360035Y0372997D01*
Y0373024D01*
X0360037Y0373054D01*
X0360039Y0373091D01*
X0360042Y0373127D01*
X0360049Y0373210D01*
X0360062Y0373294D01*
X0360079Y0373375D01*
X0360090Y0373413D01*
X0360101Y0373448D01*
Y0373450D01*
X0360104Y0373455D01*
X0360108Y0373464D01*
X0360115Y0373478D01*
X0360122Y0373491D01*
X0360131Y0373510D01*
X0360154Y0373549D01*
X0360181Y0373592D01*
X0360216Y0373638D01*
X0360255Y0373679D01*
X0360301Y0373718D01*
X0360303D01*
X0360308Y0373723D01*
X0360314Y0373727D01*
X0360324Y0373732D01*
X0360335Y0373741D01*
X0360349Y0373748D01*
X0360385Y0373766D01*
X0360426Y0373782D01*
X0360477Y0373798D01*
X0360532Y0373807D01*
X0360589Y0373812D01*
X0360605D01*
X0360617Y0373810D01*
D02*
G37*
G36*
X0363385D02*
X0363399D01*
X0363415Y0373807D01*
X0363454Y0373800D01*
X0363500Y0373789D01*
X0363548Y0373773D01*
X0363598Y0373750D01*
X0363649Y0373718D01*
X0363651D01*
X0363655Y0373713D01*
X0363662Y0373709D01*
X0363669Y0373700D01*
X0363694Y0373679D01*
X0363724Y0373647D01*
X0363756Y0373608D01*
X0363790Y0373560D01*
X0363825Y0373505D01*
X0363855Y0373439D01*
Y0373436D01*
X0363857Y0373429D01*
X0363861Y0373420D01*
X0363866Y0373404D01*
X0363873Y0373386D01*
X0363880Y0373363D01*
X0363887Y0373338D01*
X0363894Y0373308D01*
X0363900Y0373274D01*
X0363907Y0373235D01*
X0363914Y0373196D01*
X0363921Y0373150D01*
X0363926Y0373104D01*
X0363930Y0373052D01*
X0363932Y0372999D01*
Y0372942D01*
Y0372937D01*
Y0372928D01*
Y0372912D01*
Y0372891D01*
X0363930Y0372864D01*
X0363928Y0372834D01*
X0363926Y0372800D01*
X0363923Y0372763D01*
X0363914Y0372683D01*
X0363900Y0372601D01*
X0363882Y0372520D01*
X0363871Y0372481D01*
X0363857Y0372445D01*
Y0372443D01*
X0363855Y0372438D01*
X0363850Y0372427D01*
X0363843Y0372415D01*
X0363836Y0372399D01*
X0363827Y0372383D01*
X0363802Y0372342D01*
X0363772Y0372296D01*
X0363738Y0372250D01*
X0363697Y0372207D01*
X0363649Y0372168D01*
X0363646D01*
X0363642Y0372163D01*
X0363635Y0372159D01*
X0363626Y0372154D01*
X0363614Y0372147D01*
X0363598Y0372138D01*
X0363564Y0372122D01*
X0363520Y0372104D01*
X0363470Y0372088D01*
X0363417Y0372078D01*
X0363358Y0372074D01*
X0363342D01*
X0363330Y0372076D01*
X0363316D01*
X0363300Y0372078D01*
X0363262Y0372085D01*
X0363218Y0372097D01*
X0363168Y0372111D01*
X0363120Y0372133D01*
X0363069Y0372163D01*
X0363067D01*
X0363065Y0372168D01*
X0363058Y0372172D01*
X0363049Y0372182D01*
X0363026Y0372202D01*
X0362998Y0372232D01*
X0362966Y0372271D01*
X0362934Y0372317D01*
X0362902Y0372372D01*
X0362872Y0372436D01*
Y0372438D01*
X0362870Y0372445D01*
X0362865Y0372454D01*
X0362861Y0372470D01*
X0362856Y0372488D01*
X0362849Y0372511D01*
X0362842Y0372536D01*
X0362838Y0372566D01*
X0362831Y0372601D01*
X0362824Y0372639D01*
X0362817Y0372681D01*
X0362813Y0372726D01*
X0362808Y0372775D01*
X0362804Y0372827D01*
X0362801Y0372882D01*
Y0372942D01*
Y0372946D01*
Y0372955D01*
Y0372974D01*
X0362804Y0372997D01*
Y0373024D01*
X0362806Y0373054D01*
X0362808Y0373091D01*
X0362810Y0373127D01*
X0362817Y0373210D01*
X0362831Y0373294D01*
X0362847Y0373375D01*
X0362859Y0373413D01*
X0362870Y0373448D01*
Y0373450D01*
X0362872Y0373455D01*
X0362877Y0373464D01*
X0362884Y0373478D01*
X0362891Y0373491D01*
X0362900Y0373510D01*
X0362923Y0373549D01*
X0362950Y0373592D01*
X0362984Y0373638D01*
X0363023Y0373679D01*
X0363069Y0373718D01*
X0363071D01*
X0363076Y0373723D01*
X0363083Y0373727D01*
X0363092Y0373732D01*
X0363104Y0373741D01*
X0363117Y0373748D01*
X0363154Y0373766D01*
X0363195Y0373782D01*
X0363246Y0373798D01*
X0363300Y0373807D01*
X0363358Y0373812D01*
X0363374D01*
X0363385Y0373810D01*
D02*
G37*
G36*
X0370390Y0370861D02*
X0370406Y0370859D01*
X0370427Y0370852D01*
X0370452Y0370845D01*
X0370477Y0370834D01*
X0370505Y0370820D01*
X0370422Y0370687D01*
X0370420D01*
X0370413Y0370692D01*
X0370404Y0370694D01*
X0370393Y0370698D01*
X0370365Y0370705D01*
X0370338Y0370710D01*
X0370324D01*
X0370310Y0370708D01*
X0370290Y0370701D01*
X0370267Y0370694D01*
X0370241Y0370682D01*
X0370214Y0370666D01*
X0370186Y0370643D01*
X0370184Y0370641D01*
X0370175Y0370632D01*
X0370161Y0370616D01*
X0370145Y0370595D01*
X0370127Y0370566D01*
X0370109Y0370531D01*
X0370090Y0370490D01*
X0370074Y0370442D01*
Y0370440D01*
Y0370437D01*
X0370072Y0370430D01*
X0370070Y0370421D01*
X0370067Y0370408D01*
X0370065Y0370392D01*
X0370063Y0370373D01*
X0370061Y0370350D01*
X0370058Y0370325D01*
X0370056Y0370293D01*
X0370054Y0370259D01*
X0370051Y0370220D01*
X0370049Y0370179D01*
Y0370130D01*
X0370047Y0370078D01*
Y0370021D01*
Y0369606D01*
X0369886D01*
Y0370831D01*
X0370047D01*
Y0370653D01*
X0370049Y0370655D01*
X0370058Y0370669D01*
X0370074Y0370687D01*
X0370093Y0370710D01*
X0370115Y0370737D01*
X0370141Y0370763D01*
X0370168Y0370788D01*
X0370198Y0370811D01*
X0370202Y0370813D01*
X0370212Y0370820D01*
X0370228Y0370827D01*
X0370248Y0370838D01*
X0370273Y0370847D01*
X0370303Y0370854D01*
X0370333Y0370861D01*
X0370365Y0370863D01*
X0370377D01*
X0370390Y0370861D01*
D02*
G37*
G36*
X0362584Y0373842D02*
X0362581Y0373835D01*
X0362575Y0373821D01*
X0362568Y0373805D01*
X0362559Y0373782D01*
X0362547Y0373757D01*
X0362536Y0373727D01*
X0362522Y0373693D01*
X0362508Y0373656D01*
X0362492Y0373615D01*
X0362478Y0373571D01*
X0362462Y0373526D01*
X0362449Y0373475D01*
X0362435Y0373425D01*
X0362407Y0373315D01*
Y0373313D01*
X0362405Y0373301D01*
X0362401Y0373285D01*
X0362398Y0373262D01*
X0362394Y0373235D01*
X0362387Y0373203D01*
X0362382Y0373166D01*
X0362375Y0373125D01*
X0362368Y0373079D01*
X0362364Y0373031D01*
X0362359Y0372978D01*
X0362352Y0372926D01*
X0362346Y0372811D01*
X0362343Y0372692D01*
Y0372690D01*
Y0372678D01*
Y0372662D01*
Y0372642D01*
X0362346Y0372614D01*
Y0372585D01*
X0362348Y0372548D01*
X0362350Y0372509D01*
X0362352Y0372468D01*
X0362355Y0372422D01*
X0362364Y0372326D01*
X0362375Y0372223D01*
X0362391Y0372120D01*
Y0372117D01*
X0362394Y0372108D01*
X0362396Y0372092D01*
X0362401Y0372074D01*
X0362405Y0372049D01*
X0362412Y0372021D01*
X0362419Y0371991D01*
X0362428Y0371957D01*
X0362437Y0371918D01*
X0362449Y0371882D01*
X0362472Y0371799D01*
X0362499Y0371717D01*
X0362531Y0371634D01*
X0362357D01*
Y0371637D01*
X0362352Y0371643D01*
X0362348Y0371655D01*
X0362343Y0371671D01*
X0362336Y0371689D01*
X0362327Y0371712D01*
X0362318Y0371740D01*
X0362309Y0371769D01*
X0362298Y0371801D01*
X0362288Y0371838D01*
X0362277Y0371877D01*
X0362265Y0371918D01*
X0362254Y0371962D01*
X0362245Y0372007D01*
X0362224Y0372106D01*
Y0372108D01*
X0362222Y0372117D01*
X0362220Y0372133D01*
X0362217Y0372152D01*
X0362213Y0372177D01*
X0362208Y0372207D01*
X0362204Y0372241D01*
X0362201Y0372278D01*
X0362197Y0372319D01*
X0362192Y0372362D01*
X0362188Y0372408D01*
X0362183Y0372459D01*
X0362178Y0372562D01*
X0362176Y0372669D01*
Y0372674D01*
Y0372683D01*
Y0372701D01*
Y0372724D01*
X0362178Y0372752D01*
Y0372786D01*
X0362181Y0372825D01*
X0362183Y0372866D01*
X0362185Y0372912D01*
X0362190Y0372960D01*
X0362194Y0373010D01*
X0362201Y0373065D01*
X0362215Y0373175D01*
X0362233Y0373288D01*
Y0373292D01*
X0362236Y0373301D01*
X0362240Y0373317D01*
X0362245Y0373338D01*
X0362249Y0373365D01*
X0362259Y0373395D01*
X0362265Y0373432D01*
X0362277Y0373471D01*
X0362288Y0373512D01*
X0362300Y0373555D01*
X0362330Y0373649D01*
X0362364Y0373745D01*
X0362403Y0373844D01*
X0362586D01*
X0362584Y0373842D01*
D02*
G37*
G36*
X0371771D02*
X0371776Y0373835D01*
X0371778Y0373823D01*
X0371785Y0373807D01*
X0371792Y0373789D01*
X0371801Y0373766D01*
X0371808Y0373739D01*
X0371819Y0373709D01*
X0371828Y0373677D01*
X0371840Y0373640D01*
X0371851Y0373601D01*
X0371861Y0373560D01*
X0371872Y0373514D01*
X0371883Y0373468D01*
X0371902Y0373370D01*
Y0373368D01*
X0371904Y0373358D01*
X0371906Y0373342D01*
X0371909Y0373322D01*
X0371913Y0373299D01*
X0371918Y0373269D01*
X0371922Y0373235D01*
X0371927Y0373198D01*
X0371932Y0373157D01*
X0371936Y0373111D01*
X0371941Y0373065D01*
X0371945Y0373017D01*
X0371950Y0372912D01*
X0371952Y0372804D01*
Y0372800D01*
Y0372791D01*
Y0372772D01*
Y0372749D01*
X0371950Y0372722D01*
Y0372688D01*
X0371948Y0372651D01*
X0371945Y0372610D01*
X0371941Y0372564D01*
X0371938Y0372516D01*
X0371934Y0372463D01*
X0371927Y0372410D01*
X0371913Y0372301D01*
X0371893Y0372188D01*
Y0372186D01*
X0371890Y0372175D01*
X0371886Y0372159D01*
X0371881Y0372138D01*
X0371877Y0372111D01*
X0371870Y0372081D01*
X0371861Y0372046D01*
X0371851Y0372007D01*
X0371840Y0371966D01*
X0371826Y0371923D01*
X0371799Y0371829D01*
X0371764Y0371733D01*
X0371725Y0371634D01*
X0371542D01*
X0371545Y0371637D01*
X0371547Y0371646D01*
X0371554Y0371657D01*
X0371561Y0371675D01*
X0371570Y0371696D01*
X0371581Y0371721D01*
X0371593Y0371751D01*
X0371606Y0371785D01*
X0371620Y0371822D01*
X0371634Y0371863D01*
X0371648Y0371907D01*
X0371664Y0371953D01*
X0371677Y0372001D01*
X0371691Y0372053D01*
X0371719Y0372161D01*
Y0372165D01*
X0371721Y0372175D01*
X0371725Y0372191D01*
X0371730Y0372214D01*
X0371734Y0372241D01*
X0371739Y0372273D01*
X0371746Y0372310D01*
X0371753Y0372353D01*
X0371758Y0372397D01*
X0371764Y0372445D01*
X0371769Y0372498D01*
X0371776Y0372550D01*
X0371783Y0372665D01*
X0371785Y0372784D01*
Y0372788D01*
Y0372797D01*
Y0372814D01*
Y0372834D01*
X0371783Y0372862D01*
Y0372891D01*
X0371780Y0372928D01*
X0371778Y0372967D01*
X0371776Y0373010D01*
X0371774Y0373054D01*
X0371764Y0373150D01*
X0371751Y0373253D01*
X0371734Y0373356D01*
Y0373358D01*
X0371732Y0373368D01*
X0371730Y0373384D01*
X0371725Y0373402D01*
X0371721Y0373427D01*
X0371714Y0373455D01*
X0371707Y0373487D01*
X0371698Y0373521D01*
X0371689Y0373558D01*
X0371680Y0373597D01*
X0371654Y0373679D01*
X0371629Y0373762D01*
X0371597Y0373844D01*
X0371771D01*
Y0373842D01*
D02*
G37*
%LPC*%
G36*
X0358038Y0370712D02*
X0358015D01*
X0357990Y0370710D01*
X0357958Y0370703D01*
X0357921Y0370696D01*
X0357880Y0370685D01*
X0357839Y0370669D01*
X0357795Y0370646D01*
X0357793D01*
X0357791Y0370643D01*
X0357777Y0370634D01*
X0357756Y0370618D01*
X0357731Y0370600D01*
X0357704Y0370572D01*
X0357674Y0370540D01*
X0357646Y0370504D01*
X0357619Y0370463D01*
Y0370460D01*
X0357617Y0370458D01*
X0357612Y0370451D01*
X0357610Y0370442D01*
X0357598Y0370419D01*
X0357587Y0370387D01*
X0357575Y0370350D01*
X0357564Y0370309D01*
X0357557Y0370263D01*
X0357555Y0370215D01*
Y0370213D01*
Y0370211D01*
Y0370204D01*
Y0370192D01*
X0357559Y0370169D01*
X0357564Y0370137D01*
X0357571Y0370098D01*
X0357582Y0370057D01*
X0357598Y0370014D01*
X0357619Y0369968D01*
Y0369966D01*
X0357621Y0369963D01*
X0357630Y0369947D01*
X0357646Y0369927D01*
X0357667Y0369899D01*
X0357692Y0369869D01*
X0357722Y0369840D01*
X0357759Y0369810D01*
X0357798Y0369782D01*
X0357800D01*
X0357802Y0369780D01*
X0357809Y0369776D01*
X0357818Y0369773D01*
X0357839Y0369762D01*
X0357871Y0369750D01*
X0357905Y0369739D01*
X0357946Y0369727D01*
X0357990Y0369721D01*
X0358038Y0369718D01*
X0358061D01*
X0358084Y0369723D01*
X0358116Y0369727D01*
X0358155Y0369734D01*
X0358194Y0369746D01*
X0358237Y0369762D01*
X0358281Y0369782D01*
X0358283D01*
X0358285Y0369785D01*
X0358299Y0369794D01*
X0358322Y0369810D01*
X0358347Y0369831D01*
X0358375Y0369856D01*
X0358404Y0369885D01*
X0358434Y0369920D01*
X0358459Y0369959D01*
Y0369961D01*
X0358462Y0369963D01*
X0358466Y0369970D01*
X0358469Y0369979D01*
X0358480Y0370002D01*
X0358491Y0370032D01*
X0358503Y0370069D01*
X0358514Y0370112D01*
X0358521Y0370160D01*
X0358524Y0370211D01*
Y0370213D01*
Y0370220D01*
Y0370231D01*
X0358521Y0370247D01*
X0358519Y0370266D01*
X0358517Y0370286D01*
X0358512Y0370309D01*
X0358505Y0370334D01*
X0358489Y0370392D01*
X0358478Y0370421D01*
X0358464Y0370451D01*
X0358448Y0370481D01*
X0358427Y0370511D01*
X0358407Y0370540D01*
X0358382Y0370568D01*
X0358379Y0370570D01*
X0358375Y0370575D01*
X0358368Y0370582D01*
X0358356Y0370591D01*
X0358343Y0370602D01*
X0358327Y0370614D01*
X0358308Y0370627D01*
X0358285Y0370641D01*
X0358262Y0370653D01*
X0358237Y0370666D01*
X0358178Y0370689D01*
X0358146Y0370698D01*
X0358111Y0370705D01*
X0358075Y0370710D01*
X0358038Y0370712D01*
D02*
G37*
G36*
X0365934Y0370911D02*
X0365650Y0370311D01*
X0366218D01*
X0365934Y0370911D01*
D02*
G37*
G36*
X0375076Y0371099D02*
X0374886D01*
Y0370570D01*
X0375021D01*
X0375039Y0370572D01*
X0375076Y0370575D01*
X0375117Y0370577D01*
X0375158Y0370584D01*
X0375197Y0370591D01*
X0375231Y0370600D01*
X0375236Y0370602D01*
X0375245Y0370607D01*
X0375261Y0370614D01*
X0375279Y0370625D01*
X0375300Y0370639D01*
X0375321Y0370657D01*
X0375344Y0370678D01*
X0375362Y0370701D01*
X0375364Y0370703D01*
X0375369Y0370712D01*
X0375378Y0370728D01*
X0375387Y0370747D01*
X0375394Y0370770D01*
X0375403Y0370797D01*
X0375408Y0370824D01*
X0375410Y0370856D01*
Y0370859D01*
Y0370861D01*
X0375408Y0370875D01*
X0375405Y0370895D01*
X0375401Y0370921D01*
X0375389Y0370948D01*
X0375376Y0370978D01*
X0375357Y0371008D01*
X0375330Y0371033D01*
X0375325Y0371035D01*
X0375314Y0371044D01*
X0375295Y0371053D01*
X0375268Y0371067D01*
X0375234Y0371079D01*
X0375188Y0371090D01*
X0375137Y0371097D01*
X0375076Y0371099D01*
D02*
G37*
G36*
X0375050Y0370403D02*
X0374886D01*
Y0369769D01*
X0375135D01*
X0375151Y0369771D01*
X0375192Y0369773D01*
X0375236Y0369778D01*
X0375279Y0369782D01*
X0375321Y0369792D01*
X0375341Y0369796D01*
X0375357Y0369803D01*
X0375362Y0369805D01*
X0375371Y0369810D01*
X0375387Y0369819D01*
X0375405Y0369831D01*
X0375428Y0369844D01*
X0375451Y0369865D01*
X0375472Y0369885D01*
X0375492Y0369913D01*
X0375495Y0369918D01*
X0375502Y0369927D01*
X0375508Y0369943D01*
X0375520Y0369961D01*
X0375529Y0369986D01*
X0375536Y0370014D01*
X0375543Y0370046D01*
X0375545Y0370078D01*
Y0370080D01*
Y0370082D01*
Y0370096D01*
X0375540Y0370117D01*
X0375536Y0370142D01*
X0375527Y0370172D01*
X0375515Y0370204D01*
X0375497Y0370236D01*
X0375472Y0370268D01*
X0375469Y0370272D01*
X0375458Y0370282D01*
X0375442Y0370295D01*
X0375419Y0370314D01*
X0375392Y0370332D01*
X0375357Y0370350D01*
X0375318Y0370369D01*
X0375273Y0370382D01*
X0375268D01*
X0375257Y0370385D01*
X0375247Y0370387D01*
X0375234Y0370389D01*
X0375220Y0370392D01*
X0375204Y0370394D01*
X0375186D01*
X0375163Y0370396D01*
X0375140Y0370398D01*
X0375112Y0370401D01*
X0375082D01*
X0375050Y0370403D01*
D02*
G37*
G36*
X0364618Y0376684D02*
X0364586D01*
X0364549Y0376681D01*
X0364504Y0376671D01*
X0364451Y0376661D01*
X0364392Y0376645D01*
X0364333Y0376622D01*
X0364271Y0376589D01*
X0364267D01*
X0364264Y0376586D01*
X0364245Y0376573D01*
X0364215Y0376550D01*
X0364179Y0376523D01*
X0364140Y0376484D01*
X0364097Y0376438D01*
X0364057Y0376386D01*
X0364018Y0376327D01*
Y0376323D01*
X0364015Y0376320D01*
X0364008Y0376310D01*
X0364005Y0376297D01*
X0363989Y0376264D01*
X0363972Y0376219D01*
X0363956Y0376166D01*
X0363939Y0376107D01*
X0363930Y0376041D01*
X0363926Y0375973D01*
Y0375969D01*
Y0375966D01*
Y0375956D01*
Y0375940D01*
X0363933Y0375907D01*
X0363939Y0375861D01*
X0363949Y0375805D01*
X0363966Y0375746D01*
X0363989Y0375684D01*
X0364018Y0375618D01*
Y0375615D01*
X0364021Y0375612D01*
X0364035Y0375589D01*
X0364057Y0375559D01*
X0364087Y0375520D01*
X0364123Y0375477D01*
X0364166Y0375435D01*
X0364218Y0375392D01*
X0364274Y0375353D01*
X0364277D01*
X0364281Y0375349D01*
X0364290Y0375343D01*
X0364303Y0375339D01*
X0364333Y0375323D01*
X0364379Y0375307D01*
X0364428Y0375290D01*
X0364487Y0375274D01*
X0364549Y0375264D01*
X0364618Y0375261D01*
X0364651D01*
X0364684Y0375267D01*
X0364730Y0375274D01*
X0364786Y0375284D01*
X0364841Y0375300D01*
X0364904Y0375323D01*
X0364966Y0375353D01*
X0364969D01*
X0364973Y0375356D01*
X0364992Y0375369D01*
X0365025Y0375392D01*
X0365061Y0375421D01*
X0365101Y0375458D01*
X0365143Y0375500D01*
X0365186Y0375549D01*
X0365222Y0375605D01*
Y0375608D01*
X0365225Y0375612D01*
X0365232Y0375622D01*
X0365235Y0375635D01*
X0365251Y0375667D01*
X0365268Y0375710D01*
X0365284Y0375763D01*
X0365301Y0375825D01*
X0365311Y0375894D01*
X0365314Y0375966D01*
Y0375969D01*
Y0375979D01*
Y0375995D01*
X0365311Y0376018D01*
X0365307Y0376045D01*
X0365304Y0376074D01*
X0365297Y0376107D01*
X0365287Y0376143D01*
X0365265Y0376225D01*
X0365248Y0376268D01*
X0365229Y0376310D01*
X0365206Y0376353D01*
X0365176Y0376396D01*
X0365146Y0376438D01*
X0365110Y0376478D01*
X0365107Y0376481D01*
X0365101Y0376487D01*
X0365091Y0376497D01*
X0365074Y0376510D01*
X0365055Y0376527D01*
X0365032Y0376543D01*
X0365005Y0376563D01*
X0364973Y0376583D01*
X0364940Y0376599D01*
X0364904Y0376619D01*
X0364819Y0376651D01*
X0364773Y0376665D01*
X0364723Y0376674D01*
X0364671Y0376681D01*
X0364618Y0376684D01*
D02*
G37*
G36*
X0365061Y0368403D02*
X0364777Y0367803D01*
X0365345D01*
X0365061Y0368403D01*
D02*
G37*
G36*
X0367718Y0368590D02*
X0367427D01*
Y0368029D01*
X0367706Y0368025D01*
X0367748D01*
X0367764Y0368027D01*
X0367800Y0368029D01*
X0367842Y0368032D01*
X0367883Y0368038D01*
X0367922Y0368045D01*
X0367954Y0368054D01*
X0367958Y0368057D01*
X0367968Y0368061D01*
X0367981Y0368068D01*
X0368000Y0368080D01*
X0368020Y0368093D01*
X0368041Y0368112D01*
X0368061Y0368132D01*
X0368080Y0368155D01*
X0368082Y0368158D01*
X0368087Y0368167D01*
X0368093Y0368180D01*
X0368103Y0368201D01*
X0368112Y0368224D01*
X0368119Y0368249D01*
X0368123Y0368279D01*
X0368126Y0368309D01*
Y0368313D01*
Y0368322D01*
X0368123Y0368338D01*
X0368121Y0368359D01*
X0368114Y0368384D01*
X0368107Y0368409D01*
X0368096Y0368437D01*
X0368080Y0368462D01*
X0368077Y0368464D01*
X0368071Y0368474D01*
X0368061Y0368485D01*
X0368048Y0368501D01*
X0368032Y0368517D01*
X0368011Y0368533D01*
X0367986Y0368547D01*
X0367961Y0368561D01*
X0367958Y0368563D01*
X0367947Y0368565D01*
X0367929Y0368570D01*
X0367903Y0368577D01*
X0367869Y0368581D01*
X0367828Y0368586D01*
X0367777Y0368588D01*
X0367718Y0368590D01*
D02*
G37*
G36*
X0363504D02*
X0363181D01*
Y0368027D01*
X0363465Y0368025D01*
X0363507D01*
X0363523Y0368027D01*
X0363559Y0368029D01*
X0363598Y0368032D01*
X0363639Y0368038D01*
X0363678Y0368045D01*
X0363713Y0368054D01*
X0363717Y0368057D01*
X0363726Y0368061D01*
X0363740Y0368068D01*
X0363758Y0368080D01*
X0363779Y0368093D01*
X0363800Y0368112D01*
X0363818Y0368132D01*
X0363836Y0368155D01*
X0363839Y0368158D01*
X0363843Y0368167D01*
X0363850Y0368183D01*
X0363859Y0368201D01*
X0363868Y0368224D01*
X0363875Y0368251D01*
X0363880Y0368279D01*
X0363882Y0368311D01*
Y0368316D01*
Y0368325D01*
X0363880Y0368341D01*
X0363878Y0368361D01*
X0363871Y0368384D01*
X0363864Y0368409D01*
X0363852Y0368437D01*
X0363836Y0368462D01*
X0363834Y0368464D01*
X0363827Y0368474D01*
X0363818Y0368485D01*
X0363804Y0368501D01*
X0363788Y0368517D01*
X0363768Y0368533D01*
X0363742Y0368547D01*
X0363717Y0368561D01*
X0363715Y0368563D01*
X0363703Y0368565D01*
X0363685Y0368570D01*
X0363660Y0368577D01*
X0363626Y0368581D01*
X0363582Y0368586D01*
X0363532Y0368588D01*
X0363504Y0368590D01*
D02*
G37*
G36*
X0371210Y0370712D02*
X0371192D01*
X0371180Y0370710D01*
X0371164Y0370708D01*
X0371146Y0370705D01*
X0371105Y0370698D01*
X0371054Y0370685D01*
X0371004Y0370664D01*
X0370977Y0370650D01*
X0370951Y0370634D01*
X0370926Y0370616D01*
X0370901Y0370595D01*
X0370896Y0370591D01*
X0370885Y0370579D01*
X0370869Y0370559D01*
X0370848Y0370531D01*
X0370825Y0370497D01*
X0370800Y0370453D01*
X0370777Y0370403D01*
X0370757Y0370343D01*
X0371670D01*
Y0370346D01*
X0371668Y0370348D01*
Y0370355D01*
X0371664Y0370364D01*
X0371657Y0370387D01*
X0371648Y0370414D01*
X0371634Y0370447D01*
X0371618Y0370481D01*
X0371599Y0370513D01*
X0371576Y0370543D01*
X0371574Y0370545D01*
X0371565Y0370556D01*
X0371554Y0370570D01*
X0371535Y0370586D01*
X0371512Y0370605D01*
X0371485Y0370625D01*
X0371453Y0370646D01*
X0371418Y0370664D01*
X0371414Y0370666D01*
X0371403Y0370671D01*
X0371382Y0370680D01*
X0371357Y0370689D01*
X0371325Y0370696D01*
X0371290Y0370705D01*
X0371251Y0370710D01*
X0371210Y0370712D01*
D02*
G37*
G36*
X0352924Y0370911D02*
X0352641Y0370311D01*
X0353208D01*
X0352924Y0370911D01*
D02*
G37*
G36*
X0359616Y0370712D02*
X0359593D01*
X0359568Y0370710D01*
X0359533Y0370703D01*
X0359494Y0370696D01*
X0359453Y0370685D01*
X0359410Y0370669D01*
X0359366Y0370646D01*
X0359364D01*
X0359362Y0370643D01*
X0359348Y0370634D01*
X0359327Y0370621D01*
X0359300Y0370600D01*
X0359272Y0370575D01*
X0359243Y0370543D01*
X0359213Y0370508D01*
X0359185Y0370467D01*
Y0370465D01*
X0359183Y0370463D01*
X0359178Y0370456D01*
X0359176Y0370447D01*
X0359165Y0370424D01*
X0359153Y0370394D01*
X0359142Y0370357D01*
X0359130Y0370314D01*
X0359123Y0370268D01*
X0359121Y0370220D01*
Y0370218D01*
Y0370211D01*
Y0370201D01*
X0359123Y0370185D01*
X0359126Y0370169D01*
X0359128Y0370149D01*
X0359133Y0370126D01*
X0359137Y0370103D01*
X0359153Y0370050D01*
X0359165Y0370023D01*
X0359178Y0369993D01*
X0359194Y0369966D01*
X0359213Y0369938D01*
X0359233Y0369911D01*
X0359256Y0369885D01*
X0359259Y0369883D01*
X0359263Y0369881D01*
X0359270Y0369874D01*
X0359281Y0369865D01*
X0359295Y0369856D01*
X0359311Y0369844D01*
X0359330Y0369833D01*
X0359350Y0369821D01*
X0359375Y0369808D01*
X0359401Y0369796D01*
X0359430Y0369785D01*
X0359460Y0369776D01*
X0359494Y0369766D01*
X0359529Y0369760D01*
X0359568Y0369757D01*
X0359607Y0369755D01*
X0359627D01*
X0359643Y0369757D01*
X0359662Y0369760D01*
X0359682Y0369762D01*
X0359707Y0369766D01*
X0359733Y0369771D01*
X0359788Y0369787D01*
X0359817Y0369798D01*
X0359847Y0369810D01*
X0359875Y0369826D01*
X0359904Y0369842D01*
X0359932Y0369863D01*
X0359957Y0369885D01*
X0359959Y0369888D01*
X0359964Y0369892D01*
X0359968Y0369899D01*
X0359978Y0369908D01*
X0359987Y0369922D01*
X0359998Y0369938D01*
X0360012Y0369956D01*
X0360023Y0369977D01*
X0360035Y0370000D01*
X0360049Y0370027D01*
X0360060Y0370055D01*
X0360069Y0370085D01*
X0360079Y0370119D01*
X0360085Y0370153D01*
X0360088Y0370190D01*
X0360090Y0370229D01*
Y0370231D01*
Y0370236D01*
Y0370243D01*
Y0370252D01*
X0360088Y0370277D01*
X0360083Y0370311D01*
X0360074Y0370350D01*
X0360065Y0370389D01*
X0360049Y0370433D01*
X0360028Y0370474D01*
Y0370476D01*
X0360026Y0370479D01*
X0360017Y0370492D01*
X0360003Y0370513D01*
X0359982Y0370538D01*
X0359959Y0370566D01*
X0359930Y0370593D01*
X0359893Y0370623D01*
X0359854Y0370648D01*
X0359852D01*
X0359849Y0370650D01*
X0359843Y0370655D01*
X0359836Y0370657D01*
X0359813Y0370669D01*
X0359783Y0370680D01*
X0359749Y0370692D01*
X0359707Y0370703D01*
X0359664Y0370710D01*
X0359616Y0370712D01*
D02*
G37*
G36*
X0368203Y0373656D02*
X0368185D01*
X0368164Y0373652D01*
X0368137Y0373647D01*
X0368105Y0373638D01*
X0368068Y0373624D01*
X0368032Y0373606D01*
X0367995Y0373581D01*
X0367990Y0373578D01*
X0367979Y0373567D01*
X0367963Y0373551D01*
X0367940Y0373526D01*
X0367917Y0373496D01*
X0367892Y0373457D01*
X0367869Y0373413D01*
X0367848Y0373363D01*
Y0373361D01*
X0367846Y0373356D01*
X0367844Y0373347D01*
X0367842Y0373336D01*
X0367837Y0373322D01*
X0367832Y0373304D01*
X0367828Y0373283D01*
X0367823Y0373258D01*
X0367819Y0373228D01*
X0367814Y0373198D01*
X0367810Y0373162D01*
X0367805Y0373125D01*
X0367803Y0373084D01*
X0367800Y0373038D01*
X0367798Y0372990D01*
Y0372939D01*
Y0372937D01*
Y0372928D01*
Y0372912D01*
Y0372894D01*
X0367800Y0372871D01*
Y0372843D01*
X0367803Y0372814D01*
X0367805Y0372781D01*
X0367810Y0372713D01*
X0367819Y0372642D01*
X0367830Y0372573D01*
X0367837Y0372543D01*
X0367846Y0372514D01*
Y0372511D01*
X0367848Y0372507D01*
X0367851Y0372500D01*
X0367855Y0372491D01*
X0367867Y0372463D01*
X0367883Y0372433D01*
X0367906Y0372397D01*
X0367931Y0372360D01*
X0367961Y0372326D01*
X0367995Y0372296D01*
X0367997D01*
X0368000Y0372294D01*
X0368013Y0372285D01*
X0368032Y0372273D01*
X0368059Y0372259D01*
X0368089Y0372246D01*
X0368126Y0372234D01*
X0368162Y0372225D01*
X0368203Y0372223D01*
X0368208D01*
X0368222Y0372225D01*
X0368242Y0372227D01*
X0368270Y0372232D01*
X0368302Y0372241D01*
X0368336Y0372252D01*
X0368373Y0372271D01*
X0368409Y0372294D01*
X0368414Y0372298D01*
X0368425Y0372307D01*
X0368442Y0372323D01*
X0368464Y0372349D01*
X0368487Y0372378D01*
X0368510Y0372417D01*
X0368533Y0372461D01*
X0368554Y0372511D01*
Y0372514D01*
X0368556Y0372520D01*
X0368561Y0372530D01*
X0368563Y0372543D01*
X0368570Y0372559D01*
X0368574Y0372580D01*
X0368579Y0372605D01*
X0368586Y0372633D01*
X0368593Y0372662D01*
X0368597Y0372694D01*
X0368604Y0372729D01*
X0368609Y0372768D01*
X0368611Y0372807D01*
X0368616Y0372850D01*
X0368618Y0372939D01*
Y0372942D01*
Y0372951D01*
Y0372965D01*
Y0372981D01*
X0368616Y0373001D01*
Y0373026D01*
X0368613Y0373054D01*
X0368611Y0373084D01*
X0368604Y0373148D01*
X0368593Y0373217D01*
X0368579Y0373285D01*
X0368561Y0373347D01*
Y0373349D01*
X0368558Y0373354D01*
X0368556Y0373363D01*
X0368551Y0373372D01*
X0368545Y0373386D01*
X0368538Y0373402D01*
X0368522Y0373436D01*
X0368499Y0373475D01*
X0368474Y0373514D01*
X0368442Y0373549D01*
X0368407Y0373581D01*
X0368403Y0373583D01*
X0368391Y0373592D01*
X0368371Y0373604D01*
X0368345Y0373620D01*
X0368316Y0373633D01*
X0368281Y0373645D01*
X0368242Y0373654D01*
X0368203Y0373656D01*
D02*
G37*
G36*
X0367971Y0376684D02*
X0367944D01*
X0367928Y0376681D01*
X0367905Y0376678D01*
X0367879Y0376674D01*
X0367820Y0376665D01*
X0367747Y0376645D01*
X0367675Y0376615D01*
X0367636Y0376596D01*
X0367600Y0376573D01*
X0367564Y0376547D01*
X0367528Y0376517D01*
X0367521Y0376510D01*
X0367505Y0376494D01*
X0367482Y0376465D01*
X0367452Y0376425D01*
X0367420Y0376376D01*
X0367383Y0376314D01*
X0367351Y0376241D01*
X0367321Y0376156D01*
X0368630D01*
Y0376159D01*
X0368627Y0376163D01*
Y0376173D01*
X0368620Y0376186D01*
X0368610Y0376219D01*
X0368597Y0376258D01*
X0368577Y0376304D01*
X0368554Y0376353D01*
X0368528Y0376399D01*
X0368495Y0376442D01*
X0368492Y0376445D01*
X0368479Y0376461D01*
X0368463Y0376481D01*
X0368436Y0376504D01*
X0368404Y0376530D01*
X0368364Y0376560D01*
X0368318Y0376589D01*
X0368269Y0376615D01*
X0368263Y0376619D01*
X0368246Y0376625D01*
X0368217Y0376638D01*
X0368180Y0376651D01*
X0368135Y0376661D01*
X0368085Y0376674D01*
X0368030Y0376681D01*
X0367971Y0376684D01*
D02*
G37*
G36*
X0373222D02*
X0373196D01*
X0373179Y0376681D01*
X0373156Y0376678D01*
X0373130Y0376674D01*
X0373071Y0376665D01*
X0372999Y0376645D01*
X0372927Y0376615D01*
X0372887Y0376596D01*
X0372851Y0376573D01*
X0372815Y0376547D01*
X0372779Y0376517D01*
X0372773Y0376510D01*
X0372756Y0376494D01*
X0372733Y0376465D01*
X0372704Y0376425D01*
X0372671Y0376376D01*
X0372635Y0376314D01*
X0372602Y0376241D01*
X0372572Y0376156D01*
X0373881D01*
Y0376159D01*
X0373878Y0376163D01*
Y0376173D01*
X0373871Y0376186D01*
X0373861Y0376219D01*
X0373848Y0376258D01*
X0373829Y0376304D01*
X0373806Y0376353D01*
X0373779Y0376399D01*
X0373747Y0376442D01*
X0373743Y0376445D01*
X0373730Y0376461D01*
X0373714Y0376481D01*
X0373688Y0376504D01*
X0373655Y0376530D01*
X0373615Y0376560D01*
X0373569Y0376589D01*
X0373520Y0376615D01*
X0373514Y0376619D01*
X0373497Y0376625D01*
X0373468Y0376638D01*
X0373432Y0376651D01*
X0373386Y0376661D01*
X0373337Y0376674D01*
X0373281Y0376681D01*
X0373222Y0376684D01*
D02*
G37*
G36*
X0359282Y0377239D02*
X0359023D01*
Y0375323D01*
X0359374D01*
X0359416Y0375326D01*
X0359462D01*
X0359511Y0375330D01*
X0359564D01*
X0359679Y0375336D01*
X0359790Y0375349D01*
X0359843Y0375356D01*
X0359892Y0375362D01*
X0359938Y0375372D01*
X0359977Y0375382D01*
X0359981D01*
X0359990Y0375385D01*
X0360003Y0375392D01*
X0360020Y0375398D01*
X0360043Y0375408D01*
X0360069Y0375421D01*
X0360128Y0375454D01*
X0360197Y0375497D01*
X0360266Y0375553D01*
X0360335Y0375618D01*
X0360397Y0375697D01*
X0360400Y0375700D01*
X0360404Y0375707D01*
X0360410Y0375720D01*
X0360420Y0375736D01*
X0360433Y0375759D01*
X0360446Y0375785D01*
X0360459Y0375815D01*
X0360476Y0375851D01*
X0360489Y0375890D01*
X0360502Y0375930D01*
X0360515Y0375976D01*
X0360528Y0376025D01*
X0360545Y0376130D01*
X0360551Y0376189D01*
Y0376248D01*
Y0376251D01*
Y0376264D01*
Y0376281D01*
X0360548Y0376307D01*
X0360545Y0376337D01*
X0360541Y0376369D01*
X0360538Y0376409D01*
X0360531Y0376451D01*
X0360512Y0376543D01*
X0360482Y0376642D01*
X0360463Y0376691D01*
X0360440Y0376740D01*
X0360413Y0376789D01*
X0360384Y0376835D01*
X0360381Y0376838D01*
X0360377Y0376845D01*
X0360367Y0376858D01*
X0360354Y0376874D01*
X0360335Y0376894D01*
X0360315Y0376917D01*
X0360292Y0376940D01*
X0360263Y0376970D01*
X0360233Y0376996D01*
X0360197Y0377022D01*
X0360161Y0377052D01*
X0360118Y0377078D01*
X0360026Y0377130D01*
X0359974Y0377150D01*
X0359921Y0377170D01*
X0359918D01*
X0359912Y0377173D01*
X0359898Y0377176D01*
X0359879Y0377180D01*
X0359856Y0377186D01*
X0359823Y0377193D01*
X0359787Y0377199D01*
X0359748Y0377206D01*
X0359698Y0377209D01*
X0359646Y0377216D01*
X0359584Y0377222D01*
X0359518Y0377229D01*
X0359446Y0377232D01*
X0359367Y0377235D01*
X0359282Y0377239D01*
D02*
G37*
G36*
X0368954Y0370712D02*
X0368932D01*
X0368906Y0370710D01*
X0368874Y0370703D01*
X0368838Y0370696D01*
X0368796Y0370685D01*
X0368755Y0370669D01*
X0368712Y0370646D01*
X0368709D01*
X0368707Y0370643D01*
X0368693Y0370634D01*
X0368673Y0370618D01*
X0368648Y0370600D01*
X0368620Y0370572D01*
X0368590Y0370540D01*
X0368563Y0370504D01*
X0368535Y0370463D01*
Y0370460D01*
X0368533Y0370458D01*
X0368529Y0370451D01*
X0368526Y0370442D01*
X0368515Y0370419D01*
X0368503Y0370387D01*
X0368492Y0370350D01*
X0368480Y0370309D01*
X0368474Y0370263D01*
X0368471Y0370215D01*
Y0370213D01*
Y0370211D01*
Y0370204D01*
Y0370192D01*
X0368476Y0370169D01*
X0368480Y0370137D01*
X0368487Y0370098D01*
X0368499Y0370057D01*
X0368515Y0370014D01*
X0368535Y0369968D01*
Y0369966D01*
X0368538Y0369963D01*
X0368547Y0369947D01*
X0368563Y0369927D01*
X0368583Y0369899D01*
X0368609Y0369869D01*
X0368638Y0369840D01*
X0368675Y0369810D01*
X0368714Y0369782D01*
X0368716D01*
X0368719Y0369780D01*
X0368725Y0369776D01*
X0368735Y0369773D01*
X0368755Y0369762D01*
X0368787Y0369750D01*
X0368822Y0369739D01*
X0368863Y0369727D01*
X0368906Y0369721D01*
X0368954Y0369718D01*
X0368977D01*
X0369000Y0369723D01*
X0369032Y0369727D01*
X0369071Y0369734D01*
X0369110Y0369746D01*
X0369154Y0369762D01*
X0369197Y0369782D01*
X0369199D01*
X0369202Y0369785D01*
X0369215Y0369794D01*
X0369238Y0369810D01*
X0369264Y0369831D01*
X0369291Y0369856D01*
X0369321Y0369885D01*
X0369351Y0369920D01*
X0369376Y0369959D01*
Y0369961D01*
X0369378Y0369963D01*
X0369383Y0369970D01*
X0369385Y0369979D01*
X0369396Y0370002D01*
X0369408Y0370032D01*
X0369419Y0370069D01*
X0369431Y0370112D01*
X0369438Y0370160D01*
X0369440Y0370211D01*
Y0370213D01*
Y0370220D01*
Y0370231D01*
X0369438Y0370247D01*
X0369435Y0370266D01*
X0369433Y0370286D01*
X0369428Y0370309D01*
X0369422Y0370334D01*
X0369406Y0370392D01*
X0369394Y0370421D01*
X0369380Y0370451D01*
X0369364Y0370481D01*
X0369344Y0370511D01*
X0369323Y0370540D01*
X0369298Y0370568D01*
X0369296Y0370570D01*
X0369291Y0370575D01*
X0369284Y0370582D01*
X0369273Y0370591D01*
X0369259Y0370602D01*
X0369243Y0370614D01*
X0369225Y0370627D01*
X0369202Y0370641D01*
X0369179Y0370653D01*
X0369154Y0370666D01*
X0369094Y0370689D01*
X0369062Y0370698D01*
X0369028Y0370705D01*
X0368991Y0370710D01*
X0368954Y0370712D01*
D02*
G37*
G36*
X0360594Y0373656D02*
X0360575D01*
X0360555Y0373652D01*
X0360527Y0373647D01*
X0360495Y0373638D01*
X0360459Y0373624D01*
X0360422Y0373606D01*
X0360385Y0373581D01*
X0360381Y0373578D01*
X0360369Y0373567D01*
X0360353Y0373551D01*
X0360330Y0373526D01*
X0360308Y0373496D01*
X0360282Y0373457D01*
X0360259Y0373413D01*
X0360239Y0373363D01*
Y0373361D01*
X0360237Y0373356D01*
X0360234Y0373347D01*
X0360232Y0373336D01*
X0360227Y0373322D01*
X0360223Y0373304D01*
X0360218Y0373283D01*
X0360214Y0373258D01*
X0360209Y0373228D01*
X0360204Y0373198D01*
X0360200Y0373162D01*
X0360195Y0373125D01*
X0360193Y0373084D01*
X0360191Y0373038D01*
X0360188Y0372990D01*
Y0372939D01*
Y0372937D01*
Y0372928D01*
Y0372912D01*
Y0372894D01*
X0360191Y0372871D01*
Y0372843D01*
X0360193Y0372814D01*
X0360195Y0372781D01*
X0360200Y0372713D01*
X0360209Y0372642D01*
X0360220Y0372573D01*
X0360227Y0372543D01*
X0360237Y0372514D01*
Y0372511D01*
X0360239Y0372507D01*
X0360241Y0372500D01*
X0360246Y0372491D01*
X0360257Y0372463D01*
X0360273Y0372433D01*
X0360296Y0372397D01*
X0360321Y0372360D01*
X0360351Y0372326D01*
X0360385Y0372296D01*
X0360388D01*
X0360390Y0372294D01*
X0360404Y0372285D01*
X0360422Y0372273D01*
X0360449Y0372259D01*
X0360479Y0372246D01*
X0360516Y0372234D01*
X0360553Y0372225D01*
X0360594Y0372223D01*
X0360598D01*
X0360612Y0372225D01*
X0360633Y0372227D01*
X0360660Y0372232D01*
X0360692Y0372241D01*
X0360726Y0372252D01*
X0360763Y0372271D01*
X0360800Y0372294D01*
X0360804Y0372298D01*
X0360816Y0372307D01*
X0360832Y0372323D01*
X0360855Y0372349D01*
X0360878Y0372378D01*
X0360901Y0372417D01*
X0360924Y0372461D01*
X0360944Y0372511D01*
Y0372514D01*
X0360946Y0372520D01*
X0360951Y0372530D01*
X0360953Y0372543D01*
X0360960Y0372559D01*
X0360965Y0372580D01*
X0360969Y0372605D01*
X0360976Y0372633D01*
X0360983Y0372662D01*
X0360988Y0372694D01*
X0360995Y0372729D01*
X0360999Y0372768D01*
X0361001Y0372807D01*
X0361006Y0372850D01*
X0361008Y0372939D01*
Y0372942D01*
Y0372951D01*
Y0372965D01*
Y0372981D01*
X0361006Y0373001D01*
Y0373026D01*
X0361004Y0373054D01*
X0361001Y0373084D01*
X0360995Y0373148D01*
X0360983Y0373217D01*
X0360969Y0373285D01*
X0360951Y0373347D01*
Y0373349D01*
X0360949Y0373354D01*
X0360946Y0373363D01*
X0360942Y0373372D01*
X0360935Y0373386D01*
X0360928Y0373402D01*
X0360912Y0373436D01*
X0360889Y0373475D01*
X0360864Y0373514D01*
X0360832Y0373549D01*
X0360798Y0373581D01*
X0360793Y0373583D01*
X0360782Y0373592D01*
X0360761Y0373604D01*
X0360736Y0373620D01*
X0360706Y0373633D01*
X0360672Y0373645D01*
X0360633Y0373654D01*
X0360594Y0373656D01*
D02*
G37*
G36*
X0363362D02*
X0363344D01*
X0363323Y0373652D01*
X0363296Y0373647D01*
X0363264Y0373638D01*
X0363227Y0373624D01*
X0363191Y0373606D01*
X0363154Y0373581D01*
X0363149Y0373578D01*
X0363138Y0373567D01*
X0363122Y0373551D01*
X0363099Y0373526D01*
X0363076Y0373496D01*
X0363051Y0373457D01*
X0363028Y0373413D01*
X0363007Y0373363D01*
Y0373361D01*
X0363005Y0373356D01*
X0363003Y0373347D01*
X0363000Y0373336D01*
X0362996Y0373322D01*
X0362991Y0373304D01*
X0362987Y0373283D01*
X0362982Y0373258D01*
X0362978Y0373228D01*
X0362973Y0373198D01*
X0362968Y0373162D01*
X0362964Y0373125D01*
X0362962Y0373084D01*
X0362959Y0373038D01*
X0362957Y0372990D01*
Y0372939D01*
Y0372937D01*
Y0372928D01*
Y0372912D01*
Y0372894D01*
X0362959Y0372871D01*
Y0372843D01*
X0362962Y0372814D01*
X0362964Y0372781D01*
X0362968Y0372713D01*
X0362978Y0372642D01*
X0362989Y0372573D01*
X0362996Y0372543D01*
X0363005Y0372514D01*
Y0372511D01*
X0363007Y0372507D01*
X0363010Y0372500D01*
X0363014Y0372491D01*
X0363026Y0372463D01*
X0363042Y0372433D01*
X0363065Y0372397D01*
X0363090Y0372360D01*
X0363120Y0372326D01*
X0363154Y0372296D01*
X0363156D01*
X0363158Y0372294D01*
X0363172Y0372285D01*
X0363191Y0372273D01*
X0363218Y0372259D01*
X0363248Y0372246D01*
X0363284Y0372234D01*
X0363321Y0372225D01*
X0363362Y0372223D01*
X0363367D01*
X0363381Y0372225D01*
X0363401Y0372227D01*
X0363429Y0372232D01*
X0363461Y0372241D01*
X0363495Y0372252D01*
X0363532Y0372271D01*
X0363568Y0372294D01*
X0363573Y0372298D01*
X0363584Y0372307D01*
X0363600Y0372323D01*
X0363623Y0372349D01*
X0363646Y0372378D01*
X0363669Y0372417D01*
X0363692Y0372461D01*
X0363713Y0372511D01*
Y0372514D01*
X0363715Y0372520D01*
X0363720Y0372530D01*
X0363722Y0372543D01*
X0363729Y0372559D01*
X0363733Y0372580D01*
X0363738Y0372605D01*
X0363745Y0372633D01*
X0363752Y0372662D01*
X0363756Y0372694D01*
X0363763Y0372729D01*
X0363768Y0372768D01*
X0363770Y0372807D01*
X0363774Y0372850D01*
X0363777Y0372939D01*
Y0372942D01*
Y0372951D01*
Y0372965D01*
Y0372981D01*
X0363774Y0373001D01*
Y0373026D01*
X0363772Y0373054D01*
X0363770Y0373084D01*
X0363763Y0373148D01*
X0363752Y0373217D01*
X0363738Y0373285D01*
X0363720Y0373347D01*
Y0373349D01*
X0363717Y0373354D01*
X0363715Y0373363D01*
X0363710Y0373372D01*
X0363703Y0373386D01*
X0363697Y0373402D01*
X0363681Y0373436D01*
X0363658Y0373475D01*
X0363632Y0373514D01*
X0363600Y0373549D01*
X0363566Y0373581D01*
X0363562Y0373583D01*
X0363550Y0373592D01*
X0363529Y0373604D01*
X0363504Y0373620D01*
X0363474Y0373633D01*
X0363440Y0373645D01*
X0363401Y0373654D01*
X0363362Y0373656D01*
D02*
G37*
%LPD*%
D25*
X0336205Y0262772D02*
X0337780D01*
X0351500Y0333000D02*
X0356500D01*
X0351500Y0334000D02*
X0356500D01*
Y0333000D02*
Y0334000D01*
X0351500Y0333000D02*
Y0334000D01*
X0393000Y0346000D02*
X0398000D01*
X0393000Y0356000D02*
X0398000D01*
X0393000Y0346000D02*
Y0356000D01*
X0398000Y0346000D02*
Y0356000D01*
X0396106Y0304075D02*
X0396894D01*
X0396106Y0300925D02*
X0396894D01*
Y0304075D01*
X0396106Y0300925D02*
Y0304075D01*
X0380000Y0346000D02*
Y0356000D01*
X0375000Y0346000D02*
Y0356000D01*
X0380000D01*
X0375000Y0346000D02*
X0380000D01*
X0342500Y0273500D02*
Y0278500D01*
X0341500Y0273500D02*
Y0278500D01*
X0342500D01*
X0341500Y0273500D02*
X0342500D01*
X0345138Y0281583D02*
X0349862D01*
X0345138Y0304417D02*
X0349862D01*
D29*
X0340429Y0271193D02*
G03*
X0340429Y0271193I-0000197J0000000D01*
G01*
D30*
X0385732Y0292587D02*
G03*
X0385732Y0292587I-0000492J0000000D01*
G01*
D31*
X0394590Y0287665D02*
G03*
X0394590Y0287665I-0001181J0000000D01*
G01*
D32*
X0414000Y0282729D02*
X0416000D01*
X0404500Y0301500D02*
X0406500D01*
X0408000Y0282614D02*
X0410000D01*
X0353886Y0275000D02*
Y0277000D01*
X0331967Y0277166D02*
X0331633Y0277499D01*
X0330967D01*
X0330634Y0277166D01*
Y0275833D01*
X0330967Y0275500D01*
X0331633D01*
X0331967Y0275833D01*
X0332633Y0275500D02*
X0333300D01*
X0332966D01*
Y0277499D01*
X0332633Y0277166D01*
X0410333Y0302666D02*
X0410000Y0302999D01*
X0409333D01*
X0409000Y0302666D01*
Y0301333D01*
X0409333Y0301000D01*
X0410000D01*
X0410333Y0301333D01*
X0412332Y0301000D02*
X0410999D01*
X0412332Y0302333D01*
Y0302666D01*
X0411999Y0302999D01*
X0411333D01*
X0410999Y0302666D01*
X0353833Y0324666D02*
X0353500Y0324999D01*
X0352833D01*
X0352500Y0324666D01*
Y0323333D01*
X0352833Y0323000D01*
X0353500D01*
X0353833Y0323333D01*
X0354499Y0324666D02*
X0354833Y0324999D01*
X0355499D01*
X0355832Y0324666D01*
Y0324333D01*
X0355499Y0324000D01*
X0355166D01*
X0355499D01*
X0355832Y0323666D01*
Y0323333D01*
X0355499Y0323000D01*
X0354833D01*
X0354499Y0323333D01*
X0385083Y0358666D02*
X0384750Y0358999D01*
X0384083D01*
X0383750Y0358666D01*
Y0357333D01*
X0384083Y0357000D01*
X0384750D01*
X0385083Y0357333D01*
X0386749Y0357000D02*
Y0358999D01*
X0385749Y0358000D01*
X0387082D01*
X0359719Y0276666D02*
X0359385Y0276999D01*
X0358719D01*
X0358386Y0276666D01*
Y0275333D01*
X0358719Y0275000D01*
X0359385D01*
X0359719Y0275333D01*
X0361718Y0276999D02*
X0360385D01*
Y0276000D01*
X0361052Y0276333D01*
X0361385D01*
X0361718Y0276000D01*
Y0275333D01*
X0361385Y0275000D01*
X0360718D01*
X0360385Y0275333D01*
X0408333Y0277666D02*
X0408000Y0277999D01*
X0407333D01*
X0407000Y0277666D01*
Y0276333D01*
X0407333Y0276000D01*
X0408000D01*
X0408333Y0276333D01*
X0410332Y0277999D02*
X0409666Y0277666D01*
X0408999Y0277000D01*
Y0276333D01*
X0409333Y0276000D01*
X0409999D01*
X0410332Y0276333D01*
Y0276666D01*
X0409999Y0277000D01*
X0408999D01*
X0414833Y0277666D02*
X0414500Y0277999D01*
X0413833D01*
X0413500Y0277666D01*
Y0276333D01*
X0413833Y0276000D01*
X0414500D01*
X0414833Y0276333D01*
X0415499Y0277999D02*
X0416832D01*
Y0277666D01*
X0415499Y0276333D01*
Y0276000D01*
X0364333Y0302999D02*
X0363666D01*
X0364000D01*
Y0301333D01*
X0363666Y0301000D01*
X0363333D01*
X0363000Y0301333D01*
X0364999Y0301000D02*
Y0302999D01*
X0365666Y0302333D01*
X0366332Y0302999D01*
Y0301000D01*
X0366999D02*
Y0302999D01*
X0367998D01*
X0368332Y0302666D01*
Y0302000D01*
X0367998Y0301666D01*
X0366999D01*
X0368998Y0301000D02*
X0369665D01*
X0369331D01*
Y0302999D01*
X0368998Y0302666D01*
X0374081Y0302999D02*
X0373414D01*
X0373748D01*
Y0301333D01*
X0373414Y0301000D01*
X0373081D01*
X0372748Y0301333D01*
X0374747Y0301000D02*
Y0302999D01*
X0375414Y0302333D01*
X0376080Y0302999D01*
Y0301000D01*
X0376747D02*
Y0302999D01*
X0377746D01*
X0378080Y0302666D01*
Y0302000D01*
X0377746Y0301666D01*
X0376747D01*
X0380079Y0301000D02*
X0378746D01*
X0380079Y0302333D01*
Y0302666D01*
X0379746Y0302999D01*
X0379079D01*
X0378746Y0302666D01*
X0363581Y0282499D02*
X0362914D01*
X0363248D01*
Y0280833D01*
X0362914Y0280500D01*
X0362581D01*
X0362248Y0280833D01*
X0364247Y0280500D02*
Y0282499D01*
X0364914Y0281833D01*
X0365580Y0282499D01*
Y0280500D01*
X0366247D02*
Y0282499D01*
X0367246D01*
X0367580Y0282166D01*
Y0281500D01*
X0367246Y0281166D01*
X0366247D01*
X0368246Y0282166D02*
X0368579Y0282499D01*
X0369246D01*
X0369579Y0282166D01*
Y0281833D01*
X0369246Y0281500D01*
X0368913D01*
X0369246D01*
X0369579Y0281166D01*
Y0280833D01*
X0369246Y0280500D01*
X0368579D01*
X0368246Y0280833D01*
X0373581Y0282499D02*
X0372914D01*
X0373248D01*
Y0280833D01*
X0372914Y0280500D01*
X0372581D01*
X0372248Y0280833D01*
X0374247Y0280500D02*
Y0282499D01*
X0374914Y0281833D01*
X0375580Y0282499D01*
Y0280500D01*
X0376247D02*
Y0282499D01*
X0377246D01*
X0377580Y0282166D01*
Y0281500D01*
X0377246Y0281166D01*
X0376247D01*
X0379246Y0280500D02*
Y0282499D01*
X0378246Y0281500D01*
X0379579D01*
X0330500Y0359451D02*
X0331166D01*
X0330833D01*
Y0357452D01*
X0330500D01*
X0331166D01*
X0332166D02*
Y0359451D01*
X0333499Y0357452D01*
Y0359451D01*
X0415000Y0375999D02*
X0414333D01*
X0414000Y0375666D01*
Y0374333D01*
X0414333Y0374000D01*
X0415000D01*
X0415333Y0374333D01*
Y0375666D01*
X0415000Y0375999D01*
X0415999D02*
Y0374333D01*
X0416333Y0374000D01*
X0416999D01*
X0417332Y0374333D01*
Y0375999D01*
X0417999D02*
X0419332D01*
X0418665D01*
Y0374000D01*
X0331500Y0303499D02*
Y0301500D01*
X0332833D01*
X0333499D02*
X0334166D01*
X0333833D01*
Y0303499D01*
X0333499Y0303166D01*
X0406833Y0355833D02*
Y0357166D01*
X0406500Y0357499D01*
X0405833D01*
X0405500Y0357166D01*
Y0355833D01*
X0405833Y0355500D01*
X0406500D01*
X0406166Y0356166D02*
X0406833Y0355500D01*
X0406500D02*
X0406833Y0355833D01*
X0407499Y0355500D02*
X0408166D01*
X0407833D01*
Y0357499D01*
X0407499Y0357166D01*
X0335500Y0267500D02*
Y0269499D01*
X0336500D01*
X0336833Y0269166D01*
Y0268500D01*
X0336500Y0268166D01*
X0335500D01*
X0336166D02*
X0336833Y0267500D01*
X0337499D02*
X0338166D01*
X0337833D01*
Y0269499D01*
X0337499Y0269166D01*
X0396500Y0297000D02*
Y0298999D01*
X0397500D01*
X0397833Y0298666D01*
Y0298000D01*
X0397500Y0297666D01*
X0396500D01*
X0397166D02*
X0397833Y0297000D01*
X0398499Y0298666D02*
X0398833Y0298999D01*
X0399499D01*
X0399832Y0298666D01*
Y0298333D01*
X0399499Y0298000D01*
X0399166D01*
X0399499D01*
X0399832Y0297666D01*
Y0297333D01*
X0399499Y0297000D01*
X0398833D01*
X0398499Y0297333D01*
X0359500Y0345999D02*
Y0344333D01*
X0359833Y0344000D01*
X0360500D01*
X0360833Y0344333D01*
Y0345999D01*
X0361499Y0344000D02*
X0362166D01*
X0361833D01*
Y0345999D01*
X0361499Y0345666D01*
X0383000Y0297499D02*
Y0295833D01*
X0383333Y0295500D01*
X0384000D01*
X0384333Y0295833D01*
Y0297499D01*
X0386332Y0295500D02*
X0384999D01*
X0386332Y0296833D01*
Y0297166D01*
X0385999Y0297499D01*
X0385333D01*
X0384999Y0297166D01*
X0357500Y0259499D02*
Y0257833D01*
X0357833Y0257500D01*
X0358500D01*
X0358833Y0257833D01*
Y0259499D01*
X0359499Y0259166D02*
X0359833Y0259499D01*
X0360499D01*
X0360832Y0259166D01*
Y0258833D01*
X0360499Y0258500D01*
X0360166D01*
X0360499D01*
X0360832Y0258166D01*
Y0257833D01*
X0360499Y0257500D01*
X0359833D01*
X0359499Y0257833D01*
X0371833Y0358666D02*
X0371500Y0358999D01*
X0370833D01*
X0370500Y0358666D01*
Y0357333D01*
X0370833Y0357000D01*
X0371500D01*
X0371833Y0357333D01*
X0372499Y0358666D02*
X0372833Y0358999D01*
X0373499D01*
X0373832Y0358666D01*
Y0358333D01*
X0373499Y0358000D01*
X0373832Y0357666D01*
Y0357333D01*
X0373499Y0357000D01*
X0372833D01*
X0372499Y0357333D01*
Y0357666D01*
X0372833Y0358000D01*
X0372499Y0358333D01*
Y0358666D01*
X0372833Y0358000D02*
X0373499D01*
D33*
X0405988Y0352300D02*
X0408350D01*
X0405988Y0349106D02*
Y0352300D01*
X0414700D02*
X0417100D01*
Y0349106D02*
Y0352300D01*
X0388752Y0359500D02*
Y0377284D01*
X0404500Y0375316D02*
Y0377284D01*
X0396626Y0375316D02*
Y0377284D01*
Y0375316D02*
X0404500D01*
X0388752Y0377284D02*
X0396626D01*
X0388752Y0359500D02*
X0412177D01*
Y0377284D01*
X0330716Y0309252D02*
X0348500D01*
X0330716Y0336689D02*
X0332684D01*
X0330716Y0328752D02*
X0332684D01*
Y0336689D01*
X0330716D02*
Y0356177D01*
Y0309252D02*
Y0328752D01*
X0348500Y0309252D02*
Y0356177D01*
X0330716D02*
X0348500D01*
D34*
X0341807Y0270504D02*
Y0271193D01*
Y0257807D02*
Y0258496D01*
X0355193Y0270504D02*
Y0271193D01*
Y0257807D02*
Y0258496D01*
X0341807Y0271193D02*
X0344386D01*
X0352614D02*
X0355193D01*
X0341807Y0257807D02*
X0344386D01*
X0352614D02*
X0355193D01*
X0419028Y0306783D02*
Y0342217D01*
X0359972Y0306783D02*
Y0342217D01*
X0419028D01*
X0359972Y0306783D02*
X0419028D01*
X0359972Y0310033D02*
X0363222Y0306783D01*
X0389472Y0279398D02*
Y0291602D01*
X0398528Y0279398D02*
Y0291602D01*
X0389472D02*
X0398528D01*
X0389472Y0279398D02*
X0398528D01*
D35*
X0362957Y0299150D02*
X0370043D01*
Y0292850D02*
Y0299150D01*
X0362957Y0292850D02*
X0370043D01*
X0362957D02*
Y0299150D01*
X0372457D02*
X0379543D01*
Y0292850D02*
Y0299150D01*
X0372457Y0292850D02*
X0379543D01*
X0372457D02*
Y0299150D01*
X0362957Y0290150D02*
X0370043D01*
Y0283850D02*
Y0290150D01*
X0362957Y0283850D02*
X0370043D01*
X0362957D02*
Y0290150D01*
X0372457D02*
X0379543D01*
Y0283850D02*
Y0290150D01*
X0372457Y0283850D02*
X0379543D01*
X0372457D02*
Y0290150D01*
X0404500Y0377284D02*
X0412177D01*
M02*
