G04 Layer_Physical_Order=1*
G04 Layer_Color=255*
%FSAX25Y25*%
%MOIN*%
G70*
G01*
G75*
%ADD10R,0.01772X0.02165*%
%ADD11R,0.02165X0.01772*%
%ADD12R,0.02047X0.01968*%
%ADD13R,0.02559X0.03937*%
G04:AMPARAMS|DCode=14|XSize=82.68mil|YSize=228.35mil|CornerRadius=41.34mil|HoleSize=0mil|Usage=FLASHONLY|Rotation=0.000|XOffset=0mil|YOffset=0mil|HoleType=Round|Shape=RoundedRectangle|*
%AMROUNDEDRECTD14*
21,1,0.08268,0.14567,0,0,0.0*
21,1,0.00000,0.22835,0,0,0.0*
1,1,0.08268,0.00000,-0.07283*
1,1,0.08268,0.00000,-0.07283*
1,1,0.08268,0.00000,0.07283*
1,1,0.08268,0.00000,0.07283*
%
%ADD14ROUNDEDRECTD14*%
%ADD15R,0.03543X0.04724*%
%ADD16R,0.03543X0.00984*%
%ADD17R,0.05866X0.09449*%
%ADD18R,0.06300X0.05500*%
%ADD19R,0.01968X0.02047*%
%ADD20R,0.07500X0.07500*%
%ADD21R,0.07500X0.07100*%
%ADD22R,0.05600X0.01400*%
%ADD23R,0.04331X0.07874*%
%ADD24O,0.06102X0.00984*%
%ADD25O,0.00984X0.06102*%
%ADD26C,0.01000*%
%ADD27C,0.03937*%
%ADD28C,0.15748*%
%ADD29C,0.06300*%
%ADD30C,0.02000*%
G36*
X0438466Y0258299D02*
X0438445Y0257874D01*
Y0107480D01*
X0262854D01*
X0262854Y0258662D01*
X0438121Y0258662D01*
X0438466Y0258299D01*
D02*
G37*
%LPC*%
G36*
X0320472Y0195508D02*
X0319701D01*
Y0193126D01*
X0321492D01*
Y0194488D01*
X0321414Y0194878D01*
X0321193Y0195209D01*
X0320863Y0195430D01*
X0320472Y0195508D01*
D02*
G37*
G36*
X0274616Y0208259D02*
X0267116D01*
X0266657Y0208069D01*
X0266467Y0207610D01*
Y0200110D01*
X0266657Y0199651D01*
X0267116Y0199460D01*
X0274616D01*
X0275075Y0199651D01*
X0275266Y0200110D01*
Y0207610D01*
X0275075Y0208069D01*
X0274616Y0208259D01*
D02*
G37*
G36*
X0317701Y0195508D02*
X0316929D01*
X0316539Y0195430D01*
X0316208Y0195209D01*
X0315987Y0194878D01*
X0315910Y0194488D01*
Y0193126D01*
X0317701D01*
Y0195508D01*
D02*
G37*
G36*
X0285126Y0192660D02*
X0282366D01*
Y0191940D01*
X0284166D01*
X0284556Y0192018D01*
X0284887Y0192239D01*
X0285108Y0192570D01*
X0285126Y0192660D01*
D02*
G37*
G36*
X0324551Y0194166D02*
X0324177Y0194091D01*
X0323846Y0193870D01*
X0323625Y0193540D01*
X0323547Y0193149D01*
Y0193126D01*
X0324551D01*
Y0194166D01*
D02*
G37*
G36*
X0274616Y0218808D02*
X0267116D01*
X0266657Y0218617D01*
X0266467Y0218158D01*
Y0211058D01*
X0266657Y0210599D01*
X0267116Y0210409D01*
X0274616D01*
X0275075Y0210599D01*
X0275266Y0211058D01*
Y0218158D01*
X0275075Y0218617D01*
X0274616Y0218808D01*
D02*
G37*
G36*
X0371375Y0226533D02*
X0368205D01*
Y0223764D01*
X0370355D01*
X0370745Y0223841D01*
X0371076Y0224062D01*
X0371297Y0224393D01*
X0371375Y0224783D01*
Y0226533D01*
D02*
G37*
G36*
X0337697Y0231752D02*
X0335138D01*
X0334679Y0231562D01*
X0334488Y0231102D01*
Y0227165D01*
X0334679Y0226706D01*
X0335138Y0226516D01*
X0337697D01*
X0338156Y0226706D01*
X0338346Y0227165D01*
Y0231102D01*
X0338156Y0231562D01*
X0337697Y0231752D01*
D02*
G37*
G36*
X0366205Y0226533D02*
X0363035D01*
Y0224783D01*
X0363113Y0224393D01*
X0363334Y0224062D01*
X0363665Y0223841D01*
X0364055Y0223764D01*
X0366205D01*
Y0226533D01*
D02*
G37*
G36*
X0374484Y0219866D02*
X0373480D01*
Y0218826D01*
X0373855Y0218901D01*
X0374185Y0219122D01*
X0374406Y0219452D01*
X0374484Y0219843D01*
Y0219866D01*
D02*
G37*
G36*
X0373480Y0222906D02*
Y0221866D01*
X0374484D01*
Y0221890D01*
X0374406Y0222280D01*
X0374185Y0222611D01*
X0373855Y0222832D01*
X0373480Y0222906D01*
D02*
G37*
G36*
X0315555Y0175772D02*
X0313920D01*
X0314062Y0175559D01*
X0314393Y0175338D01*
X0314783Y0175260D01*
X0315555D01*
Y0175772D01*
D02*
G37*
G36*
X0274616Y0187259D02*
X0267116D01*
X0266657Y0187069D01*
X0266467Y0186610D01*
Y0179510D01*
X0266657Y0179051D01*
X0267116Y0178860D01*
X0274616D01*
X0275075Y0179051D01*
X0275266Y0179510D01*
Y0186610D01*
X0275075Y0187069D01*
X0274616Y0187259D01*
D02*
G37*
G36*
X0312709Y0175969D02*
X0311630D01*
Y0175063D01*
X0311713D01*
X0312103Y0175141D01*
X0312434Y0175362D01*
X0312655Y0175692D01*
X0312709Y0175969D01*
D02*
G37*
G36*
X0405512Y0126625D02*
X0403851Y0126462D01*
X0402253Y0125977D01*
X0400781Y0125190D01*
X0399491Y0124131D01*
X0398432Y0122841D01*
X0397645Y0121369D01*
X0397160Y0119771D01*
X0396997Y0118110D01*
X0397160Y0116449D01*
X0397645Y0114852D01*
X0398432Y0113380D01*
X0399491Y0112089D01*
X0400781Y0111030D01*
X0402253Y0110243D01*
X0403851Y0109759D01*
X0405512Y0109595D01*
X0407173Y0109759D01*
X0408770Y0110243D01*
X0410243Y0111030D01*
X0411533Y0112089D01*
X0412592Y0113380D01*
X0413379Y0114852D01*
X0413863Y0116449D01*
X0414027Y0118110D01*
X0413863Y0119771D01*
X0413379Y0121369D01*
X0412592Y0122841D01*
X0411533Y0124131D01*
X0410243Y0125190D01*
X0408770Y0125977D01*
X0407173Y0126462D01*
X0405512Y0126625D01*
D02*
G37*
G36*
X0309630Y0175969D02*
X0308550D01*
X0308605Y0175692D01*
X0308826Y0175362D01*
X0309157Y0175141D01*
X0309547Y0175063D01*
X0309630D01*
Y0175969D01*
D02*
G37*
G36*
X0312205Y0195138D02*
X0308662D01*
X0308202Y0194947D01*
X0308012Y0194488D01*
Y0189764D01*
X0308202Y0189304D01*
X0308662Y0189114D01*
X0309312D01*
Y0186948D01*
X0309312Y0186948D01*
X0309397Y0186519D01*
X0309640Y0186155D01*
X0312491Y0183304D01*
X0312490Y0183301D01*
X0312366Y0182677D01*
X0312455Y0182227D01*
X0312024Y0181918D01*
X0311713Y0182047D01*
X0309547D01*
X0309088Y0181857D01*
X0308898Y0181398D01*
Y0179626D01*
X0309043Y0179276D01*
X0309079Y0179126D01*
X0308973Y0178673D01*
X0308826Y0178575D01*
X0308605Y0178244D01*
X0308550Y0177969D01*
X0310630D01*
X0312709D01*
X0312655Y0178244D01*
X0312434Y0178575D01*
X0312383Y0179125D01*
X0312560Y0179390D01*
X0314029D01*
X0314134Y0179232D01*
Y0178248D01*
X0314204Y0178079D01*
X0314062Y0177985D01*
X0313920Y0177772D01*
X0314365D01*
X0314783Y0177599D01*
X0316555D01*
Y0176772D01*
X0317555D01*
Y0175260D01*
X0318327D01*
X0318387Y0175272D01*
X0318393Y0175263D01*
X0318724Y0175042D01*
X0319114Y0174965D01*
X0321047D01*
Y0180709D01*
Y0186453D01*
X0319114D01*
X0318724Y0186375D01*
X0318393Y0186154D01*
X0318354Y0186096D01*
X0317755Y0186093D01*
X0317688Y0186193D01*
X0317159Y0186546D01*
X0316535Y0186670D01*
X0315911Y0186546D01*
X0315381Y0186193D01*
X0315110Y0185787D01*
X0314783D01*
X0314324Y0185597D01*
X0314252Y0185423D01*
X0313672Y0185295D01*
X0311555Y0187413D01*
Y0189114D01*
X0312205D01*
X0312664Y0189304D01*
X0312854Y0189764D01*
Y0194488D01*
X0312664Y0194947D01*
X0312205Y0195138D01*
D02*
G37*
G36*
X0324551Y0191126D02*
X0323547D01*
Y0191102D01*
X0323625Y0190712D01*
X0323846Y0190381D01*
X0324177Y0190160D01*
X0324551Y0190086D01*
Y0191126D01*
D02*
G37*
G36*
X0280366Y0192660D02*
X0277606D01*
X0277624Y0192570D01*
X0277845Y0192239D01*
X0278176Y0192018D01*
X0278566Y0191940D01*
X0280366D01*
Y0192660D01*
D02*
G37*
G36*
X0274616Y0198259D02*
X0267116D01*
X0266657Y0198069D01*
X0266467Y0197610D01*
Y0190110D01*
X0266657Y0189651D01*
X0267116Y0189460D01*
X0274616D01*
X0275075Y0189651D01*
X0275266Y0190110D01*
Y0197610D01*
X0275075Y0198069D01*
X0274616Y0198259D01*
D02*
G37*
G36*
X0317701Y0191126D02*
X0315910D01*
Y0189764D01*
X0315987Y0189374D01*
X0316208Y0189043D01*
X0316539Y0188822D01*
X0316929Y0188744D01*
X0317701D01*
Y0191126D01*
D02*
G37*
G36*
X0321492D02*
X0319701D01*
Y0188744D01*
X0320472D01*
X0320863Y0188822D01*
X0321193Y0189043D01*
X0321414Y0189374D01*
X0321492Y0189764D01*
Y0191126D01*
D02*
G37*
G36*
X0370355Y0231303D02*
X0368205D01*
Y0228533D01*
X0371375D01*
Y0230283D01*
X0371297Y0230674D01*
X0371076Y0231004D01*
X0370745Y0231225D01*
X0370355Y0231303D01*
D02*
G37*
G36*
X0354055Y0240803D02*
X0351905D01*
Y0238033D01*
X0355075D01*
Y0239783D01*
X0354997Y0240174D01*
X0354776Y0240504D01*
X0354445Y0240725D01*
X0354055Y0240803D01*
D02*
G37*
G36*
X0275590Y0256546D02*
X0273929Y0256383D01*
X0272332Y0255898D01*
X0270860Y0255112D01*
X0269569Y0254052D01*
X0268511Y0252762D01*
X0267724Y0251290D01*
X0267239Y0249693D01*
X0267075Y0248031D01*
X0267239Y0246370D01*
X0267724Y0244773D01*
X0268511Y0243301D01*
X0269569Y0242010D01*
X0270860Y0240951D01*
X0272332Y0240165D01*
X0273929Y0239680D01*
X0275590Y0239516D01*
X0277252Y0239680D01*
X0278849Y0240165D01*
X0280321Y0240951D01*
X0281612Y0242010D01*
X0282670Y0243301D01*
X0283457Y0244773D01*
X0283942Y0246370D01*
X0284106Y0248031D01*
X0283942Y0249693D01*
X0283457Y0251290D01*
X0282670Y0252762D01*
X0281612Y0254052D01*
X0280321Y0255112D01*
X0278849Y0255898D01*
X0277252Y0256383D01*
X0275590Y0256546D01*
D02*
G37*
G36*
X0335417Y0244276D02*
X0334118D01*
Y0243307D01*
X0334196Y0242917D01*
X0334417Y0242586D01*
X0334748Y0242365D01*
X0335138Y0242288D01*
X0335417D01*
Y0244276D01*
D02*
G37*
G36*
X0349905Y0240803D02*
X0347755D01*
X0347365Y0240725D01*
X0347034Y0240504D01*
X0346813Y0240174D01*
X0346736Y0239783D01*
Y0238033D01*
X0349905D01*
Y0240803D01*
D02*
G37*
G36*
X0317307Y0234363D02*
X0317031Y0234308D01*
X0316700Y0234087D01*
X0316602Y0233941D01*
X0316149Y0233835D01*
X0316000Y0233870D01*
X0315650Y0234016D01*
X0313878D01*
X0313419Y0233825D01*
X0313229Y0233366D01*
Y0232767D01*
X0313132Y0232283D01*
X0313140Y0232246D01*
X0311150Y0230255D01*
X0308622D01*
Y0231102D01*
X0308432Y0231562D01*
X0307973Y0231752D01*
X0305413D01*
X0304954Y0231562D01*
X0304764Y0231102D01*
Y0227165D01*
X0304954Y0226706D01*
X0305413Y0226516D01*
X0307973D01*
X0308432Y0226706D01*
X0308622Y0227165D01*
Y0228012D01*
X0311614D01*
X0311614Y0228012D01*
X0312043Y0228098D01*
X0312407Y0228341D01*
X0314618Y0230551D01*
X0315650D01*
X0316000Y0230697D01*
X0316149Y0230732D01*
X0316602Y0230626D01*
X0316700Y0230480D01*
X0317031Y0230259D01*
X0317307Y0230204D01*
Y0232283D01*
Y0234363D01*
D02*
G37*
G36*
X0342307Y0235901D02*
X0342284D01*
X0341893Y0235824D01*
X0341563Y0235603D01*
X0341341Y0235272D01*
X0341267Y0234898D01*
X0342307D01*
Y0235901D01*
D02*
G37*
G36*
X0344331D02*
X0344307D01*
Y0234898D01*
X0345347D01*
X0345273Y0235272D01*
X0345052Y0235603D01*
X0344721Y0235824D01*
X0344331Y0235901D01*
D02*
G37*
G36*
X0420317Y0254054D02*
Y0250000D01*
Y0245946D01*
X0420401Y0245957D01*
X0421410Y0246375D01*
X0422277Y0247040D01*
X0422942Y0247907D01*
X0423200Y0248530D01*
X0423741D01*
X0423916Y0248109D01*
X0424517Y0247325D01*
X0424601Y0247261D01*
Y0227168D01*
X0424491Y0227084D01*
X0423890Y0226301D01*
X0423715Y0225880D01*
X0423174D01*
X0422916Y0226502D01*
X0422251Y0227369D01*
X0421384Y0228034D01*
X0420375Y0228453D01*
X0420291Y0228464D01*
Y0224409D01*
Y0220355D01*
X0420375Y0220366D01*
X0421384Y0220784D01*
X0422251Y0221450D01*
X0422916Y0222317D01*
X0423174Y0222939D01*
X0423715D01*
X0423890Y0222518D01*
X0424491Y0221735D01*
X0424601Y0221651D01*
Y0201558D01*
X0424517Y0201494D01*
X0423916Y0200710D01*
X0423741Y0200289D01*
X0423200D01*
X0422942Y0200912D01*
X0422277Y0201779D01*
X0421410Y0202444D01*
X0420401Y0202862D01*
X0420317Y0202873D01*
Y0198819D01*
Y0194765D01*
X0420401Y0194776D01*
X0421410Y0195194D01*
X0422277Y0195859D01*
X0422942Y0196726D01*
X0423200Y0197349D01*
X0423741D01*
X0423916Y0196928D01*
X0424517Y0196144D01*
X0424601Y0196080D01*
Y0175987D01*
X0424491Y0175903D01*
X0423890Y0175120D01*
X0423715Y0174699D01*
X0423174D01*
X0422916Y0175321D01*
X0422251Y0176188D01*
X0421384Y0176853D01*
X0420375Y0177272D01*
X0420291Y0177283D01*
Y0173228D01*
Y0169174D01*
X0420375Y0169185D01*
X0421384Y0169603D01*
X0422251Y0170269D01*
X0422916Y0171135D01*
X0423174Y0171758D01*
X0423715D01*
X0423890Y0171337D01*
X0424491Y0170554D01*
X0424601Y0170470D01*
Y0168816D01*
X0408403Y0152618D01*
X0405315D01*
X0404856Y0152428D01*
X0404665Y0151968D01*
Y0148880D01*
X0378454Y0122669D01*
X0374786D01*
X0374722Y0122753D01*
X0373938Y0123354D01*
X0373518Y0123529D01*
Y0124070D01*
X0374140Y0124328D01*
X0375007Y0124993D01*
X0375672Y0125860D01*
X0376090Y0126869D01*
X0376101Y0126953D01*
X0372047D01*
X0367993D01*
X0368004Y0126869D01*
X0368422Y0125860D01*
X0369087Y0124993D01*
X0369954Y0124328D01*
X0370577Y0124070D01*
Y0123529D01*
X0370156Y0123354D01*
X0369373Y0122753D01*
X0369308Y0122669D01*
X0350408D01*
X0350344Y0122753D01*
X0349561Y0123354D01*
X0349140Y0123529D01*
Y0124070D01*
X0349762Y0124328D01*
X0350629Y0124993D01*
X0351294Y0125860D01*
X0351713Y0126869D01*
X0351724Y0126953D01*
X0347669D01*
X0343615D01*
X0343626Y0126869D01*
X0344044Y0125860D01*
X0344710Y0124993D01*
X0345577Y0124328D01*
X0346199Y0124070D01*
Y0123529D01*
X0345778Y0123354D01*
X0344995Y0122753D01*
X0344931Y0122669D01*
X0326908D01*
X0326844Y0122753D01*
X0326061Y0123354D01*
X0325640Y0123529D01*
Y0124070D01*
X0326262Y0124328D01*
X0327129Y0124993D01*
X0327794Y0125860D01*
X0328213Y0126869D01*
X0328224Y0126953D01*
X0324169D01*
X0320115D01*
X0320126Y0126869D01*
X0320544Y0125860D01*
X0321210Y0124993D01*
X0322077Y0124328D01*
X0322699Y0124070D01*
Y0123529D01*
X0322278Y0123354D01*
X0321495Y0122753D01*
X0321430Y0122669D01*
X0303920D01*
X0303856Y0122753D01*
X0303072Y0123354D01*
X0302652Y0123529D01*
Y0124070D01*
X0303274Y0124328D01*
X0304141Y0124993D01*
X0304806Y0125860D01*
X0305224Y0126869D01*
X0305235Y0126953D01*
X0301181D01*
X0297127D01*
X0297138Y0126869D01*
X0297556Y0125860D01*
X0298221Y0124993D01*
X0299088Y0124328D01*
X0299711Y0124070D01*
Y0123529D01*
X0299290Y0123354D01*
X0298507Y0122753D01*
X0298442Y0122669D01*
X0281603D01*
X0281539Y0122753D01*
X0280755Y0123354D01*
X0280334Y0123529D01*
Y0124070D01*
X0280957Y0124328D01*
X0281824Y0124993D01*
X0282489Y0125860D01*
X0282907Y0126869D01*
X0282918Y0126953D01*
X0278864D01*
Y0128953D01*
X0282918D01*
X0282907Y0129036D01*
X0282489Y0130046D01*
X0281824Y0130913D01*
X0280957Y0131578D01*
X0280334Y0131836D01*
Y0132377D01*
X0280755Y0132551D01*
X0281539Y0133152D01*
X0282140Y0133936D01*
X0282518Y0134848D01*
X0282646Y0135827D01*
X0282518Y0136806D01*
X0282140Y0137718D01*
X0281539Y0138501D01*
X0280755Y0139102D01*
X0279843Y0139480D01*
X0279506Y0139525D01*
Y0140029D01*
X0279843Y0140073D01*
X0280755Y0140451D01*
X0281539Y0141052D01*
X0282140Y0141836D01*
X0282459Y0142605D01*
X0297587D01*
X0297906Y0141836D01*
X0298507Y0141052D01*
X0299290Y0140451D01*
X0300202Y0140073D01*
X0300539Y0140029D01*
Y0139525D01*
X0300202Y0139480D01*
X0299290Y0139102D01*
X0298507Y0138501D01*
X0297906Y0137718D01*
X0297528Y0136806D01*
X0297399Y0135827D01*
X0297528Y0134848D01*
X0297906Y0133936D01*
X0298507Y0133152D01*
X0299290Y0132551D01*
X0299711Y0132377D01*
Y0131836D01*
X0299088Y0131578D01*
X0298221Y0130913D01*
X0297556Y0130046D01*
X0297138Y0129036D01*
X0297127Y0128953D01*
X0301181D01*
X0305235D01*
X0305224Y0129036D01*
X0304806Y0130046D01*
X0304141Y0130913D01*
X0303274Y0131578D01*
X0302652Y0131836D01*
Y0132377D01*
X0303072Y0132551D01*
X0303856Y0133152D01*
X0304457Y0133936D01*
X0304835Y0134848D01*
X0304964Y0135827D01*
X0304835Y0136806D01*
X0304457Y0137718D01*
X0303856Y0138501D01*
X0303072Y0139102D01*
X0302160Y0139480D01*
X0301823Y0139525D01*
Y0140029D01*
X0302160Y0140073D01*
X0303072Y0140451D01*
X0303856Y0141052D01*
X0304457Y0141836D01*
X0304776Y0142605D01*
X0320575D01*
X0320894Y0141836D01*
X0321495Y0141052D01*
X0322278Y0140451D01*
X0323190Y0140073D01*
X0323527Y0140029D01*
Y0139525D01*
X0323190Y0139480D01*
X0322278Y0139102D01*
X0321495Y0138501D01*
X0320894Y0137718D01*
X0320516Y0136806D01*
X0320387Y0135827D01*
X0320516Y0134848D01*
X0320894Y0133936D01*
X0321495Y0133152D01*
X0322278Y0132551D01*
X0322699Y0132377D01*
Y0131836D01*
X0322077Y0131578D01*
X0321210Y0130913D01*
X0320544Y0130046D01*
X0320126Y0129036D01*
X0320115Y0128953D01*
X0324169D01*
X0328224D01*
X0328213Y0129036D01*
X0327794Y0130046D01*
X0327129Y0130913D01*
X0326262Y0131578D01*
X0325640Y0131836D01*
Y0132377D01*
X0326061Y0132551D01*
X0326844Y0133152D01*
X0327445Y0133936D01*
X0327823Y0134848D01*
X0327952Y0135827D01*
X0327823Y0136806D01*
X0327445Y0137718D01*
X0326844Y0138501D01*
X0326061Y0139102D01*
X0325148Y0139480D01*
X0324811Y0139525D01*
Y0140029D01*
X0325148Y0140073D01*
X0326061Y0140451D01*
X0326844Y0141052D01*
X0327445Y0141836D01*
X0327764Y0142605D01*
X0344075D01*
X0344394Y0141836D01*
X0344995Y0141052D01*
X0345778Y0140451D01*
X0346691Y0140073D01*
X0347027Y0140029D01*
Y0139525D01*
X0346691Y0139480D01*
X0345778Y0139102D01*
X0344995Y0138501D01*
X0344394Y0137718D01*
X0344016Y0136806D01*
X0343887Y0135827D01*
X0344016Y0134848D01*
X0344394Y0133936D01*
X0344995Y0133152D01*
X0345778Y0132551D01*
X0346199Y0132377D01*
Y0131836D01*
X0345577Y0131578D01*
X0344710Y0130913D01*
X0344044Y0130046D01*
X0343626Y0129036D01*
X0343615Y0128953D01*
X0347669D01*
X0351724D01*
X0351713Y0129036D01*
X0351294Y0130046D01*
X0350629Y0130913D01*
X0349762Y0131578D01*
X0349140Y0131836D01*
Y0132377D01*
X0349561Y0132551D01*
X0350344Y0133152D01*
X0350945Y0133936D01*
X0351323Y0134848D01*
X0351452Y0135827D01*
X0351323Y0136806D01*
X0350945Y0137718D01*
X0350344Y0138501D01*
X0349561Y0139102D01*
X0348648Y0139480D01*
X0348311Y0139525D01*
Y0140029D01*
X0348648Y0140073D01*
X0349561Y0140451D01*
X0350344Y0141052D01*
X0350945Y0141836D01*
X0351264Y0142605D01*
X0368453D01*
X0368772Y0141836D01*
X0369373Y0141052D01*
X0370156Y0140451D01*
X0371068Y0140073D01*
X0371405Y0140029D01*
Y0139525D01*
X0371068Y0139480D01*
X0370156Y0139102D01*
X0369373Y0138501D01*
X0368772Y0137718D01*
X0368394Y0136806D01*
X0368265Y0135827D01*
X0368394Y0134848D01*
X0368772Y0133936D01*
X0369373Y0133152D01*
X0370156Y0132551D01*
X0370577Y0132377D01*
Y0131836D01*
X0369954Y0131578D01*
X0369087Y0130913D01*
X0368422Y0130046D01*
X0368004Y0129036D01*
X0367993Y0128953D01*
X0372047D01*
X0376101D01*
X0376090Y0129036D01*
X0375672Y0130046D01*
X0375007Y0130913D01*
X0374140Y0131578D01*
X0373518Y0131836D01*
Y0132377D01*
X0373938Y0132551D01*
X0374722Y0133152D01*
X0375323Y0133936D01*
X0375701Y0134848D01*
X0375830Y0135827D01*
X0375701Y0136806D01*
X0375323Y0137718D01*
X0374722Y0138501D01*
X0373938Y0139102D01*
X0373026Y0139480D01*
X0372689Y0139525D01*
Y0140029D01*
X0373026Y0140073D01*
X0373938Y0140451D01*
X0374722Y0141052D01*
X0375323Y0141836D01*
X0375701Y0142748D01*
X0375830Y0143727D01*
X0375803Y0143928D01*
X0401769Y0169894D01*
X0402538Y0169575D01*
X0403517Y0169446D01*
X0404496Y0169575D01*
X0405409Y0169953D01*
X0406192Y0170554D01*
X0406793Y0171337D01*
X0407171Y0172249D01*
X0407215Y0172586D01*
X0407720D01*
X0407764Y0172249D01*
X0408142Y0171337D01*
X0408743Y0170554D01*
X0409526Y0169953D01*
X0410438Y0169575D01*
X0411417Y0169446D01*
X0412396Y0169575D01*
X0413309Y0169953D01*
X0414092Y0170554D01*
X0414693Y0171337D01*
X0414867Y0171758D01*
X0415409D01*
X0415666Y0171135D01*
X0416332Y0170269D01*
X0417199Y0169603D01*
X0418208Y0169185D01*
X0418291Y0169174D01*
Y0173228D01*
Y0177283D01*
X0418208Y0177272D01*
X0417199Y0176853D01*
X0416332Y0176188D01*
X0415666Y0175321D01*
X0415409Y0174699D01*
X0414867D01*
X0414693Y0175120D01*
X0414092Y0175903D01*
X0413309Y0176504D01*
X0412396Y0176882D01*
X0411417Y0177011D01*
X0410438Y0176882D01*
X0409526Y0176504D01*
X0408743Y0175903D01*
X0408142Y0175120D01*
X0407764Y0174207D01*
X0407720Y0173870D01*
X0407215D01*
X0407171Y0174207D01*
X0406793Y0175120D01*
X0406192Y0175903D01*
X0405409Y0176504D01*
X0404665Y0176812D01*
Y0195225D01*
X0405435Y0195543D01*
X0406218Y0196144D01*
X0406819Y0196928D01*
X0407197Y0197840D01*
X0407241Y0198177D01*
X0407746D01*
X0407790Y0197840D01*
X0408168Y0196928D01*
X0408769Y0196144D01*
X0409552Y0195543D01*
X0410464Y0195166D01*
X0411443Y0195037D01*
X0412422Y0195166D01*
X0413335Y0195543D01*
X0414118Y0196144D01*
X0414719Y0196928D01*
X0414893Y0197349D01*
X0415435D01*
X0415692Y0196726D01*
X0416358Y0195859D01*
X0417225Y0195194D01*
X0418234Y0194776D01*
X0418317Y0194765D01*
Y0198819D01*
Y0202873D01*
X0418234Y0202862D01*
X0417225Y0202444D01*
X0416358Y0201779D01*
X0415692Y0200912D01*
X0415435Y0200289D01*
X0414893D01*
X0414719Y0200710D01*
X0414118Y0201494D01*
X0413335Y0202095D01*
X0412422Y0202472D01*
X0411443Y0202601D01*
X0410464Y0202472D01*
X0409552Y0202095D01*
X0408769Y0201494D01*
X0408168Y0200710D01*
X0407790Y0199798D01*
X0407746Y0199461D01*
X0407241D01*
X0407197Y0199798D01*
X0406819Y0200710D01*
X0406218Y0201494D01*
X0405435Y0202095D01*
X0404639Y0202424D01*
Y0220815D01*
X0405409Y0221134D01*
X0406192Y0221735D01*
X0406793Y0222518D01*
X0407171Y0223430D01*
X0407215Y0223767D01*
X0407720D01*
X0407764Y0223430D01*
X0408142Y0222518D01*
X0408743Y0221735D01*
X0409526Y0221134D01*
X0410438Y0220756D01*
X0411417Y0220627D01*
X0412396Y0220756D01*
X0413309Y0221134D01*
X0414092Y0221735D01*
X0414693Y0222518D01*
X0414867Y0222939D01*
X0415409D01*
X0415666Y0222317D01*
X0416332Y0221450D01*
X0417199Y0220784D01*
X0418208Y0220366D01*
X0418291Y0220355D01*
Y0224409D01*
Y0228464D01*
X0418208Y0228453D01*
X0417199Y0228034D01*
X0416332Y0227369D01*
X0415666Y0226502D01*
X0415409Y0225880D01*
X0414867D01*
X0414693Y0226301D01*
X0414092Y0227084D01*
X0413309Y0227685D01*
X0412396Y0228063D01*
X0411417Y0228192D01*
X0410438Y0228063D01*
X0409526Y0227685D01*
X0408743Y0227084D01*
X0408142Y0226301D01*
X0407764Y0225388D01*
X0407720Y0225051D01*
X0407215D01*
X0407171Y0225388D01*
X0406793Y0226301D01*
X0406192Y0227084D01*
X0405409Y0227685D01*
X0404665Y0227993D01*
Y0246406D01*
X0405435Y0246724D01*
X0406218Y0247325D01*
X0406819Y0248109D01*
X0407197Y0249021D01*
X0407241Y0249358D01*
X0407746D01*
X0407790Y0249021D01*
X0408168Y0248109D01*
X0408769Y0247325D01*
X0409552Y0246724D01*
X0410464Y0246346D01*
X0411443Y0246218D01*
X0412422Y0246346D01*
X0413335Y0246724D01*
X0414118Y0247325D01*
X0414719Y0248109D01*
X0414893Y0248530D01*
X0415435D01*
X0415692Y0247907D01*
X0416358Y0247040D01*
X0417225Y0246375D01*
X0418234Y0245957D01*
X0418317Y0245946D01*
Y0250000D01*
Y0254054D01*
X0418234Y0254043D01*
X0417225Y0253625D01*
X0416358Y0252960D01*
X0415692Y0252093D01*
X0415435Y0251470D01*
X0414893D01*
X0414719Y0251891D01*
X0414118Y0252675D01*
X0413335Y0253276D01*
X0412422Y0253654D01*
X0411443Y0253782D01*
X0410464Y0253654D01*
X0409552Y0253276D01*
X0408769Y0252675D01*
X0408168Y0251891D01*
X0407790Y0250979D01*
X0407746Y0250642D01*
X0407241D01*
X0407197Y0250979D01*
X0406819Y0251891D01*
X0406218Y0252675D01*
X0405435Y0253276D01*
X0404522Y0253654D01*
X0403543Y0253782D01*
X0402564Y0253654D01*
X0401652Y0253276D01*
X0400869Y0252675D01*
X0400268Y0251891D01*
X0399890Y0250979D01*
X0399846Y0250642D01*
X0399341D01*
X0399297Y0250979D01*
X0398919Y0251891D01*
X0398318Y0252675D01*
X0397535Y0253276D01*
X0396622Y0253654D01*
X0395643Y0253782D01*
X0394664Y0253654D01*
X0393752Y0253276D01*
X0392969Y0252675D01*
X0392368Y0251891D01*
X0391990Y0250979D01*
X0391861Y0250000D01*
X0391990Y0249021D01*
X0392368Y0248109D01*
X0392969Y0247325D01*
X0393752Y0246724D01*
X0394522Y0246406D01*
Y0228015D01*
X0393726Y0227685D01*
X0392943Y0227084D01*
X0392342Y0226301D01*
X0391964Y0225388D01*
X0391835Y0224409D01*
X0391964Y0223430D01*
X0392342Y0222518D01*
X0392943Y0221735D01*
X0393726Y0221134D01*
X0394522Y0220804D01*
Y0202413D01*
X0393752Y0202095D01*
X0392969Y0201494D01*
X0392368Y0200710D01*
X0391990Y0199798D01*
X0391861Y0198819D01*
X0391990Y0197840D01*
X0392309Y0197070D01*
X0384942Y0189704D01*
X0381162D01*
X0381069Y0189928D01*
X0380949Y0189978D01*
X0380930Y0189993D01*
Y0190526D01*
X0381069Y0190584D01*
X0381260Y0191043D01*
Y0192815D01*
X0381069Y0193274D01*
X0380610Y0193464D01*
Y0193937D01*
X0381069Y0194127D01*
X0381260Y0194587D01*
Y0195618D01*
X0381895Y0196254D01*
X0381895Y0196254D01*
X0382138Y0196618D01*
X0382224Y0197047D01*
X0382224Y0197047D01*
Y0208642D01*
X0382224Y0208642D01*
X0382138Y0209071D01*
X0381895Y0209435D01*
X0381895Y0209435D01*
X0381013Y0210318D01*
X0380649Y0210561D01*
X0380413Y0210608D01*
Y0211654D01*
X0380223Y0212113D01*
X0379764Y0212303D01*
X0377717D01*
X0377257Y0212113D01*
X0377124Y0211791D01*
X0373563D01*
X0373134Y0211706D01*
X0372966Y0211593D01*
X0369499Y0215059D01*
X0370045Y0215604D01*
X0370045Y0215604D01*
X0370288Y0215968D01*
X0370374Y0216398D01*
X0370374Y0216398D01*
Y0218834D01*
X0370520Y0218939D01*
X0370874Y0219056D01*
X0371106Y0218901D01*
X0371480Y0218826D01*
Y0220866D01*
Y0222906D01*
X0371106Y0222832D01*
X0370775Y0222611D01*
X0370621Y0222380D01*
X0370236Y0222539D01*
X0368268D01*
X0367809Y0222349D01*
X0367618Y0221890D01*
Y0219843D01*
X0367809Y0219383D01*
X0367932Y0219332D01*
X0367982Y0218788D01*
X0367913Y0218732D01*
X0367487Y0218647D01*
X0367269Y0218501D01*
X0366929Y0218441D01*
X0366589Y0218501D01*
X0366371Y0218647D01*
X0365945Y0218732D01*
X0365519Y0218647D01*
X0365301Y0218501D01*
X0364961Y0218441D01*
X0364620Y0218501D01*
X0364403Y0218647D01*
X0363976Y0218732D01*
X0363550Y0218647D01*
X0363333Y0218501D01*
X0362992Y0218441D01*
X0362652Y0218501D01*
X0362434Y0218647D01*
X0362008Y0218732D01*
X0361661Y0218663D01*
X0361396Y0218788D01*
X0361161Y0218967D01*
Y0229403D01*
X0362602Y0230844D01*
X0363085Y0230672D01*
X0363107Y0230642D01*
X0363035Y0230283D01*
Y0228533D01*
X0366205D01*
Y0231303D01*
X0364055D01*
X0363697Y0231232D01*
X0363666Y0231254D01*
X0363495Y0231737D01*
X0365392Y0233634D01*
X0369018D01*
X0369193Y0233459D01*
X0369193Y0233459D01*
X0369557Y0233216D01*
X0369987Y0233130D01*
X0372771D01*
X0372877Y0232983D01*
X0372993Y0232630D01*
X0372837Y0232398D01*
X0372763Y0232024D01*
X0374803D01*
X0376843D01*
X0376769Y0232398D01*
X0376548Y0232729D01*
X0376317Y0232883D01*
X0376476Y0233268D01*
Y0235236D01*
X0376286Y0235695D01*
X0375827Y0235886D01*
X0373780D01*
X0373320Y0235695D01*
X0373187Y0235373D01*
X0371005D01*
Y0239783D01*
X0370814Y0240243D01*
X0370355Y0240433D01*
X0364055D01*
X0363596Y0240243D01*
X0363406Y0239783D01*
Y0234820D01*
X0359246Y0230661D01*
X0359003Y0230297D01*
X0358918Y0229868D01*
X0358918Y0229868D01*
Y0222569D01*
X0358418Y0222362D01*
X0354705Y0226075D01*
Y0230283D01*
X0354514Y0230743D01*
X0354055Y0230933D01*
X0347755D01*
X0347296Y0230743D01*
X0347106Y0230283D01*
Y0229164D01*
X0346606Y0228957D01*
X0344980Y0230582D01*
Y0231654D01*
X0344821Y0232038D01*
X0345052Y0232192D01*
X0345273Y0232523D01*
X0345347Y0232898D01*
X0343307D01*
X0341267D01*
X0341341Y0232523D01*
X0341563Y0232192D01*
X0341793Y0232038D01*
X0341634Y0231654D01*
Y0229685D01*
X0341824Y0229226D01*
X0342284Y0229036D01*
X0343355D01*
X0345650Y0226740D01*
X0345650Y0226740D01*
X0346014Y0226497D01*
X0346443Y0226412D01*
X0347106D01*
Y0224783D01*
X0347296Y0224324D01*
X0347755Y0224134D01*
X0353473D01*
X0354236Y0223371D01*
X0354045Y0222909D01*
X0353780D01*
X0353389Y0222832D01*
X0353059Y0222611D01*
X0352904Y0222380D01*
X0352520Y0222539D01*
X0350551D01*
X0350092Y0222349D01*
X0349942Y0221988D01*
X0343110D01*
X0343110Y0221988D01*
X0342681Y0221902D01*
X0342317Y0221659D01*
X0342317Y0221659D01*
X0335757Y0215099D01*
X0335295Y0215290D01*
Y0216136D01*
X0335270Y0216197D01*
X0335283Y0216262D01*
X0335131Y0217023D01*
X0335094Y0217078D01*
X0335094Y0217145D01*
X0334798Y0217861D01*
X0334751Y0217908D01*
X0334738Y0217973D01*
X0334307Y0218618D01*
X0334252Y0218655D01*
X0334226Y0218717D01*
X0333678Y0219265D01*
X0333616Y0219290D01*
X0333580Y0219346D01*
X0332935Y0219777D01*
X0332870Y0219790D01*
X0332823Y0219837D01*
X0332106Y0220134D01*
X0332040Y0220134D01*
X0331984Y0220171D01*
X0331224Y0220322D01*
X0331159Y0220309D01*
X0331097Y0220335D01*
X0330709Y0220335D01*
X0330709Y0220335D01*
X0330709Y0220335D01*
X0326378Y0220334D01*
X0326149Y0220239D01*
X0325919Y0220144D01*
X0325919Y0220144D01*
X0325919Y0220144D01*
X0325823Y0219913D01*
X0325729Y0219685D01*
Y0209389D01*
X0321513D01*
Y0220141D01*
X0321427Y0220570D01*
X0321184Y0220934D01*
X0321184Y0220934D01*
X0320540Y0221578D01*
X0320176Y0221821D01*
X0319747Y0221907D01*
X0319747Y0221907D01*
X0307239D01*
X0300354Y0228791D01*
Y0231102D01*
X0300164Y0231562D01*
X0299705Y0231752D01*
X0297146D01*
X0296686Y0231562D01*
X0296496Y0231102D01*
Y0227165D01*
X0296686Y0226706D01*
X0297146Y0226516D01*
X0299457D01*
X0305981Y0219992D01*
X0305981Y0219992D01*
X0306345Y0219749D01*
X0306774Y0219664D01*
X0306774Y0219664D01*
X0311734D01*
X0311745Y0219650D01*
X0311754Y0219637D01*
X0311890Y0219163D01*
X0311443Y0218717D01*
X0311418Y0218655D01*
X0311363Y0218618D01*
X0310932Y0217974D01*
X0310919Y0217909D01*
X0310872Y0217862D01*
X0310575Y0217145D01*
Y0217078D01*
X0310538Y0217023D01*
X0310387Y0216263D01*
X0310400Y0216197D01*
X0310374Y0216136D01*
X0310374Y0215748D01*
X0310374Y0200787D01*
X0310374Y0200787D01*
X0310374Y0200787D01*
X0310374Y0200399D01*
X0310400Y0200338D01*
X0310387Y0200273D01*
X0310538Y0199512D01*
X0310575Y0199457D01*
Y0199390D01*
X0310872Y0198674D01*
X0310919Y0198627D01*
X0310932Y0198562D01*
X0311363Y0197917D01*
X0311418Y0197880D01*
X0311443Y0197818D01*
X0311992Y0197270D01*
X0312053Y0197245D01*
X0312090Y0197189D01*
X0312735Y0196758D01*
X0312800Y0196746D01*
X0312847Y0196698D01*
X0313564Y0196402D01*
X0313630D01*
X0313686Y0196365D01*
X0314446Y0196214D01*
X0314512Y0196227D01*
X0314573Y0196201D01*
X0314961Y0196201D01*
X0319291Y0196201D01*
X0319291Y0196201D01*
X0319718Y0196378D01*
X0319750Y0196391D01*
Y0196391D01*
X0319751D01*
X0319752Y0196394D01*
X0319941Y0196850D01*
X0319941Y0196850D01*
Y0206726D01*
X0320391Y0207146D01*
X0325729D01*
Y0196850D01*
X0325729Y0196850D01*
X0325903Y0196430D01*
X0325919Y0196391D01*
X0325919D01*
Y0196391D01*
X0325922Y0196390D01*
X0326378Y0196201D01*
X0326378Y0196201D01*
X0327304Y0196201D01*
X0327658Y0195847D01*
Y0194158D01*
X0327511Y0194053D01*
X0327158Y0193936D01*
X0326926Y0194091D01*
X0326551Y0194166D01*
Y0192126D01*
Y0190086D01*
X0326926Y0190160D01*
X0327256Y0190381D01*
X0327411Y0190612D01*
X0327795Y0190453D01*
X0328866D01*
X0329290Y0190030D01*
Y0187008D01*
X0329290Y0187008D01*
X0329290Y0187008D01*
Y0186157D01*
X0328539D01*
Y0184646D01*
X0326539D01*
Y0186157D01*
X0325768D01*
X0325707Y0186145D01*
X0325701Y0186154D01*
X0325371Y0186375D01*
X0324980Y0186453D01*
X0323047D01*
Y0180709D01*
Y0174965D01*
X0324980D01*
X0325371Y0175042D01*
X0325701Y0175263D01*
X0325922Y0175594D01*
X0325929Y0175630D01*
X0329311D01*
X0329770Y0175820D01*
X0329960Y0176280D01*
Y0176818D01*
X0330314Y0177108D01*
X0330939Y0177233D01*
X0331468Y0177586D01*
X0331821Y0178115D01*
X0331946Y0178740D01*
X0331821Y0179364D01*
X0331468Y0179893D01*
X0331108Y0180134D01*
X0330978Y0180710D01*
X0331204Y0180937D01*
X0331204Y0180937D01*
X0331447Y0181300D01*
X0331533Y0181729D01*
X0331533Y0181730D01*
Y0185847D01*
X0333423D01*
X0333556Y0185525D01*
X0334016Y0185335D01*
X0336063D01*
X0336522Y0185525D01*
X0336655Y0185847D01*
X0339823D01*
X0339823Y0185847D01*
X0340252Y0185932D01*
X0340616Y0186176D01*
X0341705Y0187264D01*
X0344794D01*
X0345187Y0186871D01*
X0345187Y0186871D01*
X0345277Y0186420D01*
X0345231Y0186351D01*
X0345146Y0185925D01*
Y0180807D01*
X0345231Y0180381D01*
X0345472Y0180020D01*
X0345834Y0179778D01*
X0346260Y0179694D01*
X0346686Y0179778D01*
X0346904Y0179924D01*
X0347244Y0179985D01*
X0347585Y0179924D01*
X0347802Y0179778D01*
X0348228Y0179694D01*
X0348655Y0179778D01*
X0348872Y0179924D01*
X0349213Y0179985D01*
X0349553Y0179924D01*
X0349771Y0179778D01*
X0350197Y0179694D01*
X0350623Y0179778D01*
X0350841Y0179924D01*
X0351181Y0179985D01*
X0351521Y0179924D01*
X0351739Y0179778D01*
X0352165Y0179694D01*
X0352592Y0179778D01*
X0352809Y0179924D01*
X0353150Y0179985D01*
X0353490Y0179924D01*
X0353708Y0179778D01*
X0354134Y0179694D01*
X0354560Y0179778D01*
X0354778Y0179924D01*
X0355118Y0179985D01*
X0355458Y0179924D01*
X0355676Y0179778D01*
X0356102Y0179694D01*
X0356528Y0179778D01*
X0356746Y0179924D01*
X0357087Y0179985D01*
X0357427Y0179924D01*
X0357645Y0179778D01*
X0357782Y0179572D01*
X0357737Y0179343D01*
X0357737Y0179343D01*
Y0175257D01*
X0357513Y0175164D01*
X0357323Y0174705D01*
X0356850D01*
X0356660Y0175164D01*
X0356201Y0175354D01*
X0354429D01*
X0353970Y0175164D01*
X0353780Y0174705D01*
Y0174289D01*
X0349929Y0170438D01*
X0309302D01*
X0292436Y0187304D01*
Y0193967D01*
X0292436Y0193967D01*
X0292351Y0194396D01*
X0292108Y0194760D01*
X0292108Y0194760D01*
X0285415Y0201453D01*
X0285051Y0201696D01*
X0284816Y0201743D01*
Y0202119D01*
X0284625Y0202578D01*
X0284625Y0202819D01*
X0284816Y0203278D01*
Y0204678D01*
X0284625Y0205137D01*
X0284166Y0205327D01*
X0278566D01*
X0278107Y0205137D01*
X0277917Y0204678D01*
Y0203278D01*
X0278107Y0202819D01*
X0278107Y0202578D01*
X0277917Y0202119D01*
Y0200719D01*
X0278001Y0200516D01*
X0278081Y0200139D01*
X0278001Y0199763D01*
X0277917Y0199560D01*
Y0198160D01*
X0278015Y0197922D01*
X0278081Y0197560D01*
X0278015Y0197197D01*
X0277917Y0196960D01*
Y0195560D01*
X0278057Y0195222D01*
X0277845Y0195081D01*
X0277624Y0194750D01*
X0277606Y0194660D01*
X0285126D01*
X0285108Y0194750D01*
X0284887Y0195081D01*
X0284762Y0195165D01*
X0284867Y0195603D01*
X0285328Y0195767D01*
X0288593Y0192502D01*
Y0185839D01*
X0288593Y0185839D01*
X0288679Y0185410D01*
X0288922Y0185046D01*
X0307044Y0166924D01*
X0307044Y0166923D01*
X0307408Y0166680D01*
X0307837Y0166595D01*
X0357733D01*
X0357907Y0166175D01*
X0358366Y0165984D01*
X0360138D01*
X0360597Y0166175D01*
X0360787Y0166634D01*
X0361260D01*
X0361450Y0166175D01*
X0361909Y0165984D01*
X0363681D01*
X0364140Y0166175D01*
X0364331Y0166634D01*
Y0168799D01*
X0364140Y0169258D01*
X0363917Y0169351D01*
Y0171890D01*
X0364075D01*
X0364534Y0172080D01*
X0364724Y0172539D01*
X0365197D01*
X0365387Y0172080D01*
X0365846Y0171890D01*
X0367618D01*
X0368077Y0172080D01*
X0368267Y0172539D01*
Y0173571D01*
X0375498Y0180801D01*
X0375498Y0180801D01*
X0375741Y0181165D01*
X0375826Y0181595D01*
X0375826Y0181595D01*
Y0181808D01*
X0376247Y0181982D01*
X0376396Y0182343D01*
X0377953D01*
X0377953Y0182343D01*
X0378382Y0182428D01*
X0378746Y0182671D01*
X0379578Y0183504D01*
X0380610D01*
X0381069Y0183694D01*
X0381260Y0184153D01*
Y0185925D01*
X0381069Y0186384D01*
X0380610Y0186574D01*
Y0187047D01*
X0381069Y0187238D01*
X0381162Y0187461D01*
X0385407D01*
X0385407Y0187461D01*
X0385836Y0187546D01*
X0386200Y0187789D01*
X0393895Y0195484D01*
X0394496Y0195235D01*
Y0176823D01*
X0393726Y0176504D01*
X0392943Y0175903D01*
X0392342Y0175120D01*
X0391964Y0174207D01*
X0391835Y0173228D01*
X0391964Y0172249D01*
X0392283Y0171480D01*
X0375081Y0154278D01*
X0374722Y0154301D01*
X0373938Y0154902D01*
X0373026Y0155280D01*
X0372047Y0155409D01*
X0371068Y0155280D01*
X0370156Y0154902D01*
X0369373Y0154301D01*
X0368772Y0153518D01*
X0368453Y0152748D01*
X0351264D01*
X0350945Y0153518D01*
X0350344Y0154301D01*
X0349561Y0154902D01*
X0348648Y0155280D01*
X0347669Y0155409D01*
X0346691Y0155280D01*
X0345778Y0154902D01*
X0344995Y0154301D01*
X0344394Y0153518D01*
X0344075Y0152748D01*
X0327764D01*
X0327445Y0153518D01*
X0326844Y0154301D01*
X0326061Y0154902D01*
X0325148Y0155280D01*
X0324169Y0155409D01*
X0323190Y0155280D01*
X0322278Y0154902D01*
X0321495Y0154301D01*
X0320894Y0153518D01*
X0320575Y0152748D01*
X0304776D01*
X0304457Y0153518D01*
X0303856Y0154301D01*
X0303072Y0154902D01*
X0302160Y0155280D01*
X0301181Y0155409D01*
X0300202Y0155280D01*
X0299290Y0154902D01*
X0298507Y0154301D01*
X0297906Y0153518D01*
X0297587Y0152748D01*
X0282459D01*
X0282140Y0153518D01*
X0281539Y0154301D01*
X0280755Y0154902D01*
X0279843Y0155280D01*
X0278864Y0155409D01*
X0277885Y0155280D01*
X0276973Y0154902D01*
X0276190Y0154301D01*
X0275588Y0153518D01*
X0275211Y0152606D01*
X0275082Y0151627D01*
X0275211Y0150648D01*
X0275588Y0149736D01*
X0276190Y0148952D01*
X0276973Y0148351D01*
X0277885Y0147973D01*
X0278222Y0147929D01*
Y0147425D01*
X0277885Y0147380D01*
X0276973Y0147002D01*
X0276190Y0146401D01*
X0275588Y0145618D01*
X0275211Y0144706D01*
X0275082Y0143727D01*
X0275211Y0142748D01*
X0275588Y0141836D01*
X0276190Y0141052D01*
X0276973Y0140451D01*
X0277885Y0140073D01*
X0278222Y0140029D01*
Y0139525D01*
X0277885Y0139480D01*
X0276973Y0139102D01*
X0276190Y0138501D01*
X0275588Y0137718D01*
X0275211Y0136806D01*
X0275082Y0135827D01*
X0275211Y0134848D01*
X0275588Y0133936D01*
X0276190Y0133152D01*
X0276973Y0132551D01*
X0277394Y0132377D01*
Y0131836D01*
X0276771Y0131578D01*
X0275904Y0130913D01*
X0275239Y0130046D01*
X0274821Y0129036D01*
X0274733Y0128367D01*
X0274205Y0128188D01*
X0271594Y0130799D01*
Y0151110D01*
X0293772Y0173288D01*
X0294461D01*
X0294483Y0173256D01*
X0295012Y0172902D01*
X0295636Y0172778D01*
X0296261Y0172902D01*
X0296790Y0173256D01*
X0297144Y0173785D01*
X0297268Y0174409D01*
X0297144Y0175034D01*
X0296790Y0175563D01*
X0296261Y0175917D01*
X0295636Y0176041D01*
X0295012Y0175917D01*
X0294483Y0175563D01*
X0294461Y0175531D01*
X0293307D01*
X0292878Y0175446D01*
X0292514Y0175203D01*
X0292514Y0175203D01*
X0269679Y0152368D01*
X0269436Y0152004D01*
X0269351Y0151575D01*
X0269351Y0151575D01*
Y0130334D01*
X0269351Y0130334D01*
X0269436Y0129905D01*
X0269679Y0129541D01*
X0275990Y0123230D01*
X0276190Y0122753D01*
X0275588Y0121970D01*
X0275211Y0121058D01*
X0275082Y0120079D01*
X0275211Y0119100D01*
X0275588Y0118188D01*
X0276190Y0117404D01*
X0276973Y0116803D01*
X0277885Y0116425D01*
X0278864Y0116296D01*
X0279843Y0116425D01*
X0280755Y0116803D01*
X0281539Y0117404D01*
X0281603Y0117488D01*
X0298442D01*
X0298507Y0117404D01*
X0299290Y0116803D01*
X0300202Y0116425D01*
X0301181Y0116296D01*
X0302160Y0116425D01*
X0303072Y0116803D01*
X0303856Y0117404D01*
X0303920Y0117488D01*
X0321430D01*
X0321495Y0117404D01*
X0322278Y0116803D01*
X0323190Y0116425D01*
X0324169Y0116296D01*
X0325148Y0116425D01*
X0326061Y0116803D01*
X0326844Y0117404D01*
X0326908Y0117488D01*
X0344931D01*
X0344995Y0117404D01*
X0345778Y0116803D01*
X0346691Y0116425D01*
X0347669Y0116296D01*
X0348648Y0116425D01*
X0349561Y0116803D01*
X0350344Y0117404D01*
X0350408Y0117488D01*
X0369308D01*
X0369373Y0117404D01*
X0370156Y0116803D01*
X0371068Y0116425D01*
X0372047Y0116296D01*
X0373026Y0116425D01*
X0373938Y0116803D01*
X0374722Y0117404D01*
X0374786Y0117488D01*
X0379528D01*
X0380198Y0117576D01*
X0380823Y0117835D01*
X0381360Y0118247D01*
X0406558Y0143445D01*
X0409646D01*
X0410105Y0143635D01*
X0410295Y0144094D01*
Y0147182D01*
X0414243Y0151130D01*
X0414705Y0150939D01*
Y0144095D01*
X0414717Y0144066D01*
X0414708Y0144036D01*
X0414810Y0143840D01*
X0414895Y0143635D01*
X0414924Y0143623D01*
X0414939Y0143596D01*
X0422025Y0137690D01*
X0422236Y0137624D01*
X0422441Y0137540D01*
X0434252Y0137540D01*
X0434711Y0137730D01*
X0434901Y0138189D01*
Y0157874D01*
X0434711Y0158333D01*
X0434252Y0158523D01*
X0422441Y0158523D01*
X0422236Y0158439D01*
X0422002Y0158889D01*
X0429023Y0165911D01*
X0429435Y0166447D01*
X0429694Y0167072D01*
X0429782Y0167743D01*
Y0170510D01*
X0429840Y0170554D01*
X0430441Y0171337D01*
X0430819Y0172249D01*
X0430948Y0173228D01*
X0430819Y0174207D01*
X0430441Y0175120D01*
X0429840Y0175903D01*
X0429782Y0175947D01*
Y0196080D01*
X0429866Y0196144D01*
X0430467Y0196928D01*
X0430845Y0197840D01*
X0430974Y0198819D01*
X0430845Y0199798D01*
X0430467Y0200710D01*
X0429866Y0201494D01*
X0429782Y0201558D01*
Y0221691D01*
X0429840Y0221735D01*
X0430441Y0222518D01*
X0430819Y0223430D01*
X0430948Y0224409D01*
X0430819Y0225388D01*
X0430441Y0226301D01*
X0429840Y0227084D01*
X0429782Y0227128D01*
Y0247261D01*
X0429866Y0247325D01*
X0430467Y0248109D01*
X0430845Y0249021D01*
X0430974Y0250000D01*
X0430845Y0250979D01*
X0430467Y0251891D01*
X0429866Y0252675D01*
X0429083Y0253276D01*
X0428170Y0253654D01*
X0427191Y0253782D01*
X0426212Y0253654D01*
X0425300Y0253276D01*
X0424517Y0252675D01*
X0423916Y0251891D01*
X0423741Y0251470D01*
X0423200D01*
X0422942Y0252093D01*
X0422277Y0252960D01*
X0421410Y0253625D01*
X0420401Y0254043D01*
X0420317Y0254054D01*
D02*
G37*
G36*
X0335417Y0248264D02*
X0335138D01*
X0334748Y0248186D01*
X0334417Y0247965D01*
X0334196Y0247634D01*
X0334118Y0247244D01*
Y0246276D01*
X0335417D01*
Y0248264D01*
D02*
G37*
G36*
X0337697D02*
X0337417D01*
Y0246276D01*
X0338716D01*
Y0247244D01*
X0338639Y0247634D01*
X0338418Y0247965D01*
X0338087Y0248186D01*
X0337697Y0248264D01*
D02*
G37*
G36*
X0329429Y0247894D02*
X0326870D01*
X0326411Y0247703D01*
X0326221Y0247244D01*
Y0243307D01*
X0326411Y0242848D01*
X0326870Y0242658D01*
X0329429D01*
X0329888Y0242848D01*
X0330079Y0243307D01*
Y0247244D01*
X0329888Y0247703D01*
X0329429Y0247894D01*
D02*
G37*
G36*
X0338716Y0244276D02*
X0337417D01*
Y0242288D01*
X0337697D01*
X0338087Y0242365D01*
X0338418Y0242586D01*
X0338639Y0242917D01*
X0338716Y0243307D01*
Y0244276D01*
D02*
G37*
G36*
X0299705Y0247894D02*
X0297146D01*
X0296686Y0247703D01*
X0296496Y0247244D01*
Y0243307D01*
X0296686Y0242848D01*
X0297146Y0242658D01*
X0299705D01*
X0300164Y0242848D01*
X0300354Y0243307D01*
Y0247244D01*
X0300164Y0247703D01*
X0299705Y0247894D01*
D02*
G37*
G36*
X0307973D02*
X0305413D01*
X0304954Y0247703D01*
X0304764Y0247244D01*
Y0243307D01*
X0304954Y0242848D01*
X0305413Y0242658D01*
X0307973D01*
X0308432Y0242848D01*
X0308622Y0243307D01*
Y0247244D01*
X0308432Y0247703D01*
X0307973Y0247894D01*
D02*
G37*
G36*
X0329429Y0231752D02*
X0326870D01*
X0326411Y0231562D01*
X0326221Y0231102D01*
Y0230216D01*
X0324866D01*
X0324761Y0230363D01*
X0324645Y0230716D01*
X0324800Y0230948D01*
X0324875Y0231323D01*
X0322835D01*
X0320795D01*
X0320869Y0230948D01*
X0321090Y0230618D01*
X0321321Y0230463D01*
X0321162Y0230079D01*
Y0228110D01*
X0321352Y0227651D01*
X0321811Y0227461D01*
X0323858D01*
X0324318Y0227651D01*
X0324451Y0227973D01*
X0326221D01*
Y0227165D01*
X0326411Y0226706D01*
X0326870Y0226516D01*
X0329429D01*
X0329888Y0226706D01*
X0330079Y0227165D01*
Y0231102D01*
X0329888Y0231562D01*
X0329429Y0231752D01*
D02*
G37*
G36*
X0349905Y0236033D02*
X0346736D01*
Y0234283D01*
X0346813Y0233893D01*
X0347034Y0233562D01*
X0347365Y0233341D01*
X0347755Y0233264D01*
X0349905D01*
Y0236033D01*
D02*
G37*
G36*
X0355075D02*
X0351905D01*
Y0233264D01*
X0354055D01*
X0354445Y0233341D01*
X0354776Y0233562D01*
X0354997Y0233893D01*
X0355075Y0234283D01*
Y0236033D01*
D02*
G37*
G36*
X0373803Y0230024D02*
X0372763D01*
X0372837Y0229649D01*
X0373059Y0229318D01*
X0373389Y0229097D01*
X0373780Y0229020D01*
X0373803D01*
Y0230024D01*
D02*
G37*
G36*
X0376843D02*
X0375803D01*
Y0229020D01*
X0375827D01*
X0376217Y0229097D01*
X0376548Y0229318D01*
X0376769Y0229649D01*
X0376843Y0230024D01*
D02*
G37*
G36*
X0320213Y0231283D02*
X0319307D01*
Y0230204D01*
X0319583Y0230259D01*
X0319914Y0230480D01*
X0320135Y0230811D01*
X0320213Y0231201D01*
Y0231283D01*
D02*
G37*
G36*
X0319307Y0234363D02*
Y0233283D01*
X0320213D01*
Y0233366D01*
X0320135Y0233756D01*
X0319914Y0234087D01*
X0319583Y0234308D01*
X0319307Y0234363D01*
D02*
G37*
G36*
X0321835Y0234327D02*
X0321811D01*
X0321421Y0234249D01*
X0321090Y0234028D01*
X0320869Y0233697D01*
X0320795Y0233323D01*
X0321835D01*
Y0234327D01*
D02*
G37*
G36*
X0323858D02*
X0323835D01*
Y0233323D01*
X0324875D01*
X0324800Y0233697D01*
X0324579Y0234028D01*
X0324248Y0234249D01*
X0323858Y0234327D01*
D02*
G37*
%LPD*%
G36*
X0330709Y0219685D02*
X0331097Y0219685D01*
X0331858Y0219534D01*
X0332574Y0219237D01*
X0333219Y0218806D01*
X0333767Y0218257D01*
X0334198Y0217613D01*
X0334494Y0216896D01*
X0334646Y0216136D01*
Y0215748D01*
X0334646Y0200788D01*
X0334646Y0200788D01*
X0334646Y0200400D01*
X0334494Y0199639D01*
X0334198Y0198923D01*
X0333767Y0198278D01*
X0333218Y0197729D01*
X0332574Y0197299D01*
X0331857Y0197002D01*
X0331096Y0196850D01*
X0330709Y0196850D01*
X0326378Y0196850D01*
Y0219685D01*
X0330709Y0219685D01*
X0330709Y0219685D01*
D02*
G37*
G36*
X0422441Y0157874D02*
X0434252Y0157874D01*
Y0138189D01*
X0422441Y0138189D01*
Y0138189D01*
X0415354Y0144095D01*
Y0151969D01*
X0422441Y0157874D01*
Y0157874D01*
X0422441D01*
D01*
D01*
D02*
G37*
G36*
X0319291Y0196850D02*
X0314961Y0196851D01*
X0314573Y0196851D01*
X0313812Y0197002D01*
X0313096Y0197299D01*
X0312451Y0197729D01*
X0311903Y0198278D01*
X0311472Y0198923D01*
X0311175Y0199639D01*
X0311024Y0200399D01*
X0311024Y0200787D01*
X0311024Y0200787D01*
X0311024Y0215748D01*
X0311024Y0216136D01*
X0311175Y0216897D01*
X0311472Y0217613D01*
X0311903Y0218258D01*
X0312451Y0218806D01*
X0313096Y0219237D01*
X0313812Y0219533D01*
X0314573Y0219685D01*
X0314960D01*
X0314961Y0219685D01*
X0319291Y0219685D01*
Y0196850D01*
D02*
G37*
G36*
X0369864Y0211522D02*
X0369746Y0210933D01*
X0369587Y0210827D01*
X0369345Y0210466D01*
X0369260Y0210039D01*
X0369345Y0209613D01*
X0369380Y0209560D01*
X0369298Y0209146D01*
X0369248Y0209071D01*
X0369858D01*
X0369948Y0209011D01*
X0370374Y0208926D01*
X0372893D01*
X0372933Y0208918D01*
Y0207216D01*
X0370374D01*
X0369948Y0207131D01*
X0369857Y0207071D01*
X0369248D01*
X0369298Y0206995D01*
X0369380Y0206581D01*
X0369345Y0206528D01*
X0369260Y0206102D01*
X0369264Y0206084D01*
X0368854Y0205584D01*
X0367061D01*
X0367061Y0205584D01*
X0366631Y0205498D01*
X0366268Y0205255D01*
X0366267Y0205255D01*
X0353581Y0192569D01*
X0353543Y0192576D01*
X0352919Y0192452D01*
X0352390Y0192098D01*
X0352036Y0191569D01*
X0351912Y0190945D01*
X0352036Y0190321D01*
X0352245Y0190007D01*
X0351983Y0189507D01*
X0348442D01*
X0348442Y0189507D01*
X0348013Y0189422D01*
X0347649Y0189179D01*
X0347649Y0189179D01*
X0347256Y0188785D01*
X0346445D01*
X0346052Y0189179D01*
X0345688Y0189422D01*
X0345586Y0189442D01*
X0345585Y0189443D01*
X0345259Y0189508D01*
X0341240D01*
Y0191209D01*
X0343799D01*
X0344226Y0191294D01*
X0344316Y0191354D01*
X0344926D01*
X0344875Y0191430D01*
X0344793Y0191844D01*
X0344828Y0191897D01*
X0344913Y0192323D01*
X0344828Y0192749D01*
X0344683Y0192967D01*
X0344622Y0193307D01*
X0344683Y0193648D01*
X0344828Y0193865D01*
X0344913Y0194291D01*
X0344901Y0194348D01*
X0344921Y0194497D01*
X0345545Y0194621D01*
X0346075Y0194975D01*
X0346428Y0195504D01*
X0346552Y0196128D01*
X0346457Y0196607D01*
X0346747Y0197107D01*
X0356102D01*
X0356102Y0197107D01*
X0356532Y0197192D01*
X0356895Y0197435D01*
X0360986Y0201526D01*
X0361024Y0201518D01*
X0361648Y0201642D01*
X0362177Y0201996D01*
X0362531Y0202525D01*
X0362655Y0203150D01*
X0362531Y0203774D01*
X0362177Y0204303D01*
X0362082Y0204367D01*
X0361784Y0204752D01*
X0361954Y0205008D01*
X0362137Y0205281D01*
X0362261Y0205906D01*
X0362137Y0206530D01*
X0361784Y0207059D01*
X0361420Y0207302D01*
X0361571Y0207802D01*
X0364620D01*
X0364620Y0207802D01*
X0365049Y0207887D01*
X0365413Y0208131D01*
X0368330Y0211047D01*
X0368330Y0211047D01*
X0368573Y0211411D01*
X0368623Y0211660D01*
X0368701Y0211713D01*
X0368807Y0211872D01*
X0369396Y0211990D01*
X0369864Y0211522D01*
D02*
G37*
G36*
X0379740Y0205437D02*
X0379764D01*
X0379981Y0205259D01*
Y0197512D01*
X0379477Y0197008D01*
X0378445D01*
X0377986Y0196818D01*
X0377795Y0196358D01*
Y0194587D01*
X0377925Y0194274D01*
X0377521Y0193942D01*
X0377395Y0194027D01*
X0376771Y0194151D01*
X0376541Y0194615D01*
X0376521Y0194718D01*
X0376375Y0194935D01*
X0376315Y0195276D01*
X0376375Y0195616D01*
X0376521Y0195834D01*
X0376606Y0196260D01*
X0376521Y0196686D01*
X0376375Y0196904D01*
X0376315Y0197244D01*
X0376375Y0197584D01*
X0376521Y0197802D01*
X0376606Y0198228D01*
X0376521Y0198654D01*
X0376375Y0198872D01*
X0376315Y0199213D01*
X0376375Y0199553D01*
X0376521Y0199771D01*
X0376606Y0200197D01*
X0376521Y0200623D01*
X0376375Y0200841D01*
X0376315Y0201181D01*
X0376375Y0201521D01*
X0376521Y0201739D01*
X0376606Y0202165D01*
X0376521Y0202591D01*
X0376375Y0202809D01*
X0376315Y0203150D01*
X0376375Y0203490D01*
X0376521Y0203708D01*
X0376606Y0204134D01*
X0376521Y0204560D01*
X0376375Y0204778D01*
X0376315Y0205118D01*
X0376375Y0205458D01*
X0376477Y0205611D01*
X0376827Y0205695D01*
X0377037Y0205708D01*
X0377326Y0205515D01*
X0377717Y0205437D01*
X0377740D01*
Y0207441D01*
X0379740D01*
Y0205437D01*
D02*
G37*
G36*
X0366800Y0183326D02*
Y0180807D01*
X0366884Y0180381D01*
X0366945Y0180291D01*
Y0179681D01*
X0367021Y0179731D01*
X0367434Y0179814D01*
X0367487Y0179778D01*
X0367913Y0179694D01*
X0368340Y0179778D01*
X0368701Y0180020D01*
X0368942Y0180381D01*
X0369027Y0180807D01*
Y0182665D01*
X0369071Y0182694D01*
X0369571Y0182441D01*
X0369649Y0182051D01*
X0369870Y0181720D01*
X0370200Y0181499D01*
X0370591Y0181421D01*
X0372238D01*
X0372446Y0180921D01*
X0366878Y0175354D01*
X0365846D01*
X0365387Y0175164D01*
X0365197Y0174705D01*
X0364724D01*
X0364534Y0175164D01*
X0364311Y0175257D01*
Y0179343D01*
X0364311Y0179343D01*
X0364308Y0179357D01*
X0364691Y0179767D01*
X0364869Y0179731D01*
X0364945Y0179681D01*
Y0180290D01*
X0365005Y0180381D01*
X0365090Y0180807D01*
Y0183366D01*
X0366792D01*
X0366800Y0183326D01*
D02*
G37*
G36*
X0350092Y0219383D02*
X0350151Y0219359D01*
X0350249Y0218777D01*
X0350197Y0218732D01*
X0349771Y0218647D01*
X0349553Y0218501D01*
X0349213Y0218441D01*
X0348872Y0218501D01*
X0348655Y0218647D01*
X0348228Y0218732D01*
X0347802Y0218647D01*
X0347585Y0218501D01*
X0347244Y0218441D01*
X0346904Y0218501D01*
X0346686Y0218647D01*
X0346260Y0218732D01*
X0345834Y0218647D01*
X0345472Y0218405D01*
X0345231Y0218044D01*
X0345146Y0217618D01*
Y0212500D01*
X0345231Y0212074D01*
X0345472Y0211713D01*
X0345834Y0211471D01*
X0346260Y0211386D01*
X0346686Y0211471D01*
X0346904Y0211617D01*
X0347244Y0211677D01*
X0347585Y0211617D01*
X0347802Y0211471D01*
X0348228Y0211386D01*
X0348655Y0211471D01*
X0348872Y0211617D01*
X0349213Y0211677D01*
X0349553Y0211617D01*
X0349771Y0211471D01*
X0350197Y0211386D01*
X0350544Y0211455D01*
X0350663Y0211446D01*
X0351091Y0211182D01*
X0351129Y0210988D01*
X0351372Y0210624D01*
X0353866Y0208131D01*
X0353866Y0208131D01*
X0354230Y0207887D01*
X0354659Y0207802D01*
X0359688D01*
X0359840Y0207302D01*
X0359476Y0207059D01*
X0359123Y0206530D01*
X0358999Y0205906D01*
X0359006Y0205868D01*
X0354457Y0201318D01*
X0345148D01*
X0344968Y0201555D01*
X0344844Y0201818D01*
X0344913Y0202165D01*
X0344828Y0202591D01*
X0344683Y0202809D01*
X0344622Y0203150D01*
X0344683Y0203490D01*
X0344828Y0203708D01*
X0344913Y0204134D01*
X0344828Y0204560D01*
X0344683Y0204778D01*
X0344622Y0205118D01*
X0344683Y0205458D01*
X0344828Y0205676D01*
X0344913Y0206102D01*
X0344828Y0206528D01*
X0344683Y0206746D01*
X0344622Y0207087D01*
X0344683Y0207427D01*
X0344828Y0207645D01*
X0344913Y0208071D01*
X0344828Y0208497D01*
X0344683Y0208715D01*
X0344622Y0209055D01*
X0344683Y0209396D01*
X0344828Y0209613D01*
X0344913Y0210039D01*
X0344828Y0210466D01*
X0344587Y0210827D01*
X0344225Y0211068D01*
X0343799Y0211153D01*
X0338681D01*
X0338255Y0211068D01*
X0337894Y0210827D01*
X0337652Y0210466D01*
X0337568Y0210039D01*
X0337652Y0209613D01*
X0337798Y0209396D01*
X0337859Y0209055D01*
X0337798Y0208715D01*
X0337652Y0208497D01*
X0337568Y0208071D01*
X0337652Y0207645D01*
X0337798Y0207427D01*
X0337859Y0207087D01*
X0337798Y0206746D01*
X0337652Y0206528D01*
X0337568Y0206102D01*
X0337652Y0205676D01*
X0337798Y0205458D01*
X0337859Y0205118D01*
X0337798Y0204778D01*
X0337652Y0204560D01*
X0337568Y0204134D01*
X0337652Y0203708D01*
X0337798Y0203490D01*
X0337859Y0203150D01*
X0337798Y0202809D01*
X0337652Y0202591D01*
X0337568Y0202165D01*
X0337652Y0201739D01*
X0337798Y0201521D01*
X0337859Y0201181D01*
X0337798Y0200841D01*
X0337652Y0200623D01*
X0337568Y0200197D01*
X0337652Y0199771D01*
X0337798Y0199553D01*
X0337859Y0199213D01*
X0337798Y0198872D01*
X0337652Y0198654D01*
X0337568Y0198228D01*
X0337652Y0197802D01*
X0337798Y0197584D01*
X0337859Y0197244D01*
X0337798Y0196904D01*
X0337652Y0196686D01*
X0337568Y0196260D01*
X0337652Y0195834D01*
X0337798Y0195616D01*
X0337859Y0195276D01*
X0337798Y0194935D01*
X0337652Y0194718D01*
X0337568Y0194291D01*
X0337652Y0193865D01*
X0337798Y0193648D01*
X0337859Y0193307D01*
X0337798Y0192967D01*
X0337652Y0192749D01*
X0337568Y0192323D01*
X0337652Y0191897D01*
X0337688Y0191844D01*
X0337605Y0191430D01*
X0337557Y0191358D01*
X0337026Y0191463D01*
X0337005Y0191571D01*
X0336784Y0191902D01*
X0336453Y0192123D01*
X0336063Y0192201D01*
X0336039D01*
Y0190197D01*
X0335039D01*
Y0189197D01*
X0332999D01*
X0333074Y0188822D01*
X0333229Y0188590D01*
X0333113Y0188237D01*
X0333008Y0188090D01*
X0331533D01*
Y0190494D01*
X0331533Y0190494D01*
X0331447Y0190924D01*
X0331204Y0191287D01*
X0331204Y0191287D01*
X0330413Y0192078D01*
Y0193149D01*
X0330223Y0193609D01*
X0329901Y0193742D01*
Y0196201D01*
X0330709Y0196201D01*
X0330709Y0196201D01*
X0330709Y0196201D01*
X0331096Y0196201D01*
X0331158Y0196226D01*
X0331223Y0196213D01*
X0331984Y0196365D01*
X0332039Y0196402D01*
X0332106D01*
X0332822Y0196698D01*
X0332869Y0196746D01*
X0332934Y0196758D01*
X0333579Y0197189D01*
X0333616Y0197245D01*
X0333678Y0197270D01*
X0334226Y0197819D01*
X0334251Y0197880D01*
X0334307Y0197917D01*
X0334738Y0198562D01*
X0334751Y0198627D01*
X0334798Y0198674D01*
X0335094Y0199391D01*
Y0199457D01*
X0335131Y0199512D01*
X0335283Y0200273D01*
X0335270Y0200338D01*
X0335295Y0200400D01*
X0335295Y0200787D01*
X0335295Y0200788D01*
X0335295Y0211465D01*
X0343575Y0219745D01*
X0349942D01*
X0350092Y0219383D01*
D02*
G37*
%LPC*%
G36*
X0334039Y0192201D02*
X0334016D01*
X0333626Y0192123D01*
X0333295Y0191902D01*
X0333074Y0191571D01*
X0332999Y0191197D01*
X0334039D01*
Y0192201D01*
D02*
G37*
%LPD*%
D10*
X0366732Y0173622D02*
D03*
X0363189D02*
D03*
X0362795Y0167717D02*
D03*
X0359252D02*
D03*
X0358858Y0173622D02*
D03*
X0355315D02*
D03*
X0314764Y0232283D02*
D03*
X0318307D02*
D03*
D11*
X0379528Y0195472D02*
D03*
Y0191929D02*
D03*
X0379527Y0185039D02*
D03*
Y0188583D02*
D03*
X0310630Y0180512D02*
D03*
Y0176969D02*
D03*
D12*
X0335039Y0186969D02*
D03*
Y0190197D02*
D03*
X0322835Y0232323D02*
D03*
Y0229095D02*
D03*
X0378740Y0210669D02*
D03*
Y0207441D02*
D03*
X0374803Y0234252D02*
D03*
Y0231024D02*
D03*
X0343307Y0230669D02*
D03*
Y0233898D02*
D03*
D13*
X0328150Y0229134D02*
D03*
X0336417D02*
D03*
X0328150Y0245276D02*
D03*
X0336417D02*
D03*
X0306693D02*
D03*
X0298425D02*
D03*
X0306693Y0229134D02*
D03*
X0298425D02*
D03*
D14*
X0315158Y0208268D02*
D03*
X0330512D02*
D03*
D15*
X0310433Y0192126D02*
D03*
X0318701D02*
D03*
D16*
X0316555Y0184646D02*
D03*
Y0182677D02*
D03*
Y0180709D02*
D03*
Y0178740D02*
D03*
Y0176772D02*
D03*
X0327539Y0184646D02*
D03*
Y0182677D02*
D03*
Y0180709D02*
D03*
Y0178740D02*
D03*
Y0176772D02*
D03*
D17*
X0322047Y0180709D02*
D03*
D18*
X0367205Y0227533D02*
D03*
X0350905D02*
D03*
Y0237033D02*
D03*
X0367205D02*
D03*
D19*
X0328779Y0192126D02*
D03*
X0325551D02*
D03*
X0374803Y0183465D02*
D03*
X0371575D02*
D03*
X0369252Y0220866D02*
D03*
X0372480D02*
D03*
X0351535D02*
D03*
X0354764D02*
D03*
D20*
X0270866Y0193860D02*
D03*
Y0203860D02*
D03*
D21*
Y0183060D02*
D03*
Y0214608D02*
D03*
D22*
X0281366Y0196260D02*
D03*
Y0198860D02*
D03*
Y0201419D02*
D03*
Y0193660D02*
D03*
Y0203978D02*
D03*
D23*
X0417716Y0148031D02*
D03*
X0407480D02*
D03*
D24*
X0372933Y0210039D02*
D03*
Y0208071D02*
D03*
Y0206102D02*
D03*
Y0204134D02*
D03*
Y0202165D02*
D03*
Y0200197D02*
D03*
Y0198228D02*
D03*
Y0196260D02*
D03*
Y0194291D02*
D03*
Y0192323D02*
D03*
Y0190354D02*
D03*
Y0188386D02*
D03*
X0341240D02*
D03*
Y0190354D02*
D03*
Y0192323D02*
D03*
Y0194291D02*
D03*
Y0196260D02*
D03*
Y0198228D02*
D03*
Y0200197D02*
D03*
Y0202165D02*
D03*
Y0204134D02*
D03*
Y0206102D02*
D03*
Y0208071D02*
D03*
Y0210039D02*
D03*
D25*
X0367913Y0183366D02*
D03*
X0365945D02*
D03*
X0363976D02*
D03*
X0362008D02*
D03*
X0360039D02*
D03*
X0358071D02*
D03*
X0356102D02*
D03*
X0354134D02*
D03*
X0352165D02*
D03*
X0350197D02*
D03*
X0348228D02*
D03*
X0346260D02*
D03*
Y0215059D02*
D03*
X0348228D02*
D03*
X0350197D02*
D03*
X0352165D02*
D03*
X0354134D02*
D03*
X0356102D02*
D03*
X0358071D02*
D03*
X0360039D02*
D03*
X0362008D02*
D03*
X0363976D02*
D03*
X0365945D02*
D03*
X0367913D02*
D03*
D26*
X0322047Y0181005D02*
X0325312Y0184269D01*
X0318307Y0232283D02*
X0323425D01*
X0366313Y0180156D02*
Y0183366D01*
X0369513Y0180156D02*
Y0182900D01*
X0346443Y0237033D02*
X0350905D01*
X0367205Y0227533D02*
X0368572Y0228900D01*
X0373309Y0207695D02*
X0378740D01*
X0368572Y0228900D02*
X0370695Y0231024D01*
X0289715Y0185839D02*
X0307837Y0167717D01*
X0289715Y0185839D02*
Y0192967D01*
X0307837Y0167717D02*
X0359252D01*
X0284622Y0198060D02*
X0289715Y0192967D01*
X0282166Y0198060D02*
X0284622D01*
X0281366Y0198860D02*
X0282166Y0198060D01*
X0291315Y0186839D02*
Y0193967D01*
X0284622Y0200660D02*
X0291315Y0193967D01*
X0282125Y0200660D02*
X0284622D01*
X0281366Y0201419D02*
X0282125Y0200660D01*
X0277104Y0123703D02*
X0278864D01*
X0293307Y0174409D02*
X0295636D01*
X0270472Y0151575D02*
X0293307Y0174409D01*
X0270472Y0130334D02*
Y0151575D01*
Y0130334D02*
X0277104Y0123703D01*
X0377952Y0190731D02*
X0379527D01*
X0395643Y0198819D02*
Y0250000D01*
X0278864Y0120079D02*
Y0123703D01*
X0291315Y0186839D02*
X0308837Y0169317D01*
X0345258Y0188386D02*
X0345981Y0187664D01*
X0341240Y0188386D02*
X0345258D01*
X0345981Y0187664D02*
X0347720D01*
X0353543Y0190945D02*
X0367061Y0204462D01*
X0372605D01*
X0372933Y0204134D01*
X0356102Y0198228D02*
X0361024Y0203150D01*
X0354921Y0200197D02*
X0360630Y0205906D01*
X0357087Y0190945D02*
X0366338Y0200197D01*
X0367520Y0198228D02*
X0372933D01*
X0360236Y0190945D02*
X0367520Y0198228D01*
X0366338Y0200197D02*
X0372933D01*
X0368112Y0188979D02*
Y0192313D01*
X0366604Y0187517D02*
X0367913Y0186208D01*
X0366604Y0187517D02*
X0366604D01*
X0366009Y0188112D02*
X0366604Y0187517D01*
X0364567Y0190945D02*
Y0191030D01*
X0348442Y0188386D02*
X0365736D01*
X0341240Y0198228D02*
X0356102D01*
X0341240Y0200197D02*
X0354921D01*
X0330512Y0208268D02*
X0343110Y0220866D01*
X0354659Y0208924D02*
X0364620D01*
X0352165Y0211417D02*
X0354659Y0208924D01*
X0352165Y0211417D02*
Y0215059D01*
X0355906Y0211024D02*
Y0214568D01*
X0364567Y0191030D02*
X0369428Y0195891D01*
X0368112Y0192313D02*
X0370091Y0194291D01*
X0369428Y0195891D02*
X0372565D01*
X0366009Y0188112D02*
Y0188112D01*
X0365736Y0188386D02*
X0366009Y0188112D01*
X0372565Y0195891D02*
X0372933Y0196260D01*
X0367537Y0211841D02*
Y0215059D01*
X0373659Y0183366D02*
Y0185827D01*
X0370091Y0194291D02*
X0372933D01*
X0376574Y0192323D02*
X0376771Y0192519D01*
X0379527Y0191929D02*
X0379527Y0191929D01*
X0379527Y0190731D02*
Y0191929D01*
X0377641Y0190419D02*
X0377952Y0190731D01*
X0375901Y0190419D02*
X0377641D01*
X0375598Y0190723D02*
X0375901Y0190419D01*
X0373301Y0190723D02*
X0375598D01*
X0372933Y0192323D02*
X0376574D01*
X0372933Y0190354D02*
X0373301Y0190723D01*
X0373130Y0188583D02*
X0379528D01*
X0316535Y0184666D02*
Y0185039D01*
X0313997Y0182677D02*
X0316555D01*
X0313997D02*
Y0183384D01*
X0347720Y0187664D02*
X0348442Y0188386D01*
X0344423Y0196128D02*
X0344921D01*
X0344291Y0196260D02*
X0344423Y0196128D01*
X0344291Y0196260D02*
X0344291Y0196260D01*
X0341240Y0196260D02*
X0344291D01*
X0367913Y0183563D02*
Y0186208D01*
X0370178Y0185827D02*
X0373659D01*
X0367913Y0183563D02*
X0370178Y0185827D01*
X0385407Y0188583D02*
X0395617Y0198793D01*
Y0173228D02*
Y0198793D01*
X0403543Y0173254D02*
Y0198819D01*
X0381102Y0197047D02*
Y0208642D01*
X0379527Y0191929D02*
X0379528D01*
X0379527Y0188583D02*
X0385407D01*
X0308837Y0169317D02*
X0350394D01*
X0362008Y0183366D02*
X0362384Y0182990D01*
Y0180148D02*
Y0182990D01*
Y0180148D02*
X0363189Y0179343D01*
Y0173622D02*
Y0179343D01*
X0374705Y0181595D02*
Y0183366D01*
X0366732Y0173622D02*
X0374705Y0181595D01*
X0362795Y0173228D02*
X0363189Y0173622D01*
X0362795Y0167717D02*
Y0173228D01*
X0359663Y0182990D02*
X0360039Y0183366D01*
X0359663Y0180148D02*
Y0182990D01*
X0358858Y0179343D02*
X0359663Y0180148D01*
X0358858Y0173622D02*
Y0179343D01*
X0310630Y0180512D02*
X0316358D01*
X0318782Y0177148D02*
X0322047Y0180413D01*
X0316932Y0177148D02*
X0318782D01*
X0316555Y0176772D02*
X0316932Y0177148D01*
X0327540Y0178740D02*
X0330314D01*
X0330411Y0181729D02*
Y0187008D01*
X0329767Y0181085D02*
X0330411Y0181729D01*
X0327916Y0181085D02*
X0329767D01*
X0354699Y0173622D02*
X0355315D01*
X0350394Y0169317D02*
X0354699Y0173622D01*
X0360039Y0215059D02*
Y0229868D01*
X0367205Y0237033D01*
X0358071Y0215059D02*
Y0221123D01*
X0351660Y0227533D02*
X0358071Y0221123D01*
X0350905Y0227533D02*
X0351660D01*
X0355726Y0214304D02*
Y0214388D01*
X0355906Y0214568D01*
X0364620Y0208924D02*
X0367537Y0211841D01*
X0354510Y0215436D02*
Y0220613D01*
X0354134Y0215059D02*
X0354510Y0215436D01*
Y0220613D02*
X0354764Y0220866D01*
X0351789Y0215436D02*
Y0220613D01*
X0351535Y0220866D02*
X0351789Y0220613D01*
X0328110Y0229095D02*
X0328150Y0229134D01*
X0372736Y0202362D02*
X0372933Y0202165D01*
X0368898Y0202362D02*
X0372736D01*
X0320391Y0208268D02*
X0330512D01*
X0320391D02*
Y0220141D01*
X0319747Y0220785D02*
X0320391Y0220141D01*
X0306774Y0220785D02*
X0319747D01*
X0298425Y0229134D02*
X0306774Y0220785D01*
X0343110Y0220866D02*
X0351535D01*
X0330411Y0187008D02*
Y0190494D01*
Y0187008D02*
X0330450Y0186969D01*
X0335039D01*
X0278864Y0143727D02*
X0301181D01*
X0277252D02*
X0278864D01*
Y0151627D02*
X0301181D01*
X0277252D02*
X0278864D01*
X0379527Y0195472D02*
X0381102Y0197047D01*
X0380220Y0209525D02*
X0381102Y0208642D01*
X0379884Y0209525D02*
X0380220D01*
X0378740Y0210669D02*
X0379884Y0209525D01*
X0341083Y0190197D02*
X0341240Y0190354D01*
X0335039Y0190197D02*
X0341083D01*
X0367537Y0215059D02*
X0367913D01*
Y0183366D02*
Y0183563D01*
X0339823Y0186969D02*
X0341240Y0188386D01*
X0335039Y0186969D02*
X0339823D01*
X0367913Y0215059D02*
X0372933Y0210039D01*
Y0188386D02*
X0373130Y0188583D01*
X0365945Y0183366D02*
X0366313D01*
Y0180156D02*
X0367254Y0179215D01*
X0368573D01*
X0369513Y0180156D01*
Y0182900D02*
X0369980Y0183366D01*
X0371476D01*
X0371575Y0183465D01*
X0373659Y0183366D02*
X0374705D01*
X0374803Y0183465D01*
X0377953D01*
X0379528Y0185039D01*
X0372933Y0208071D02*
X0373309Y0207695D01*
X0378740Y0207441D02*
Y0207695D01*
X0372933Y0210039D02*
X0373563Y0210669D01*
X0378740D01*
X0367913Y0215059D02*
X0369252Y0216398D01*
Y0220866D01*
X0351789Y0215436D02*
X0352165Y0215059D01*
X0322835Y0229095D02*
X0328110D01*
X0306693Y0229134D02*
X0311614D01*
X0314764Y0232283D01*
X0323425D02*
X0336417Y0245276D01*
X0343307Y0230669D02*
X0346443Y0227533D01*
X0350905D01*
X0343307Y0233898D02*
X0346443Y0237033D01*
X0370695Y0231024D02*
X0374803D01*
X0369987Y0234252D02*
X0374803D01*
X0367205Y0237033D02*
X0369987Y0234252D01*
X0328779Y0206535D02*
X0330512Y0208268D01*
X0328779Y0192126D02*
Y0206535D01*
Y0192126D02*
X0330411Y0190494D01*
X0327539Y0180709D02*
X0327916Y0181085D01*
X0316358Y0180512D02*
X0316555Y0180709D01*
X0310630Y0176969D02*
X0310827Y0176772D01*
X0316555D01*
X0322047Y0180413D02*
Y0180709D01*
Y0181005D01*
X0325312Y0184269D02*
X0327163D01*
X0327539Y0184646D01*
Y0178740D02*
X0327540Y0178740D01*
X0316555Y0182677D02*
X0316555Y0182677D01*
X0310433Y0186948D02*
X0313997Y0183384D01*
X0315158Y0208268D02*
X0315748Y0207677D01*
Y0198819D02*
Y0207677D01*
X0316535Y0184666D02*
X0316555Y0184646D01*
X0316555Y0184646D01*
X0310433Y0186948D02*
Y0192126D01*
X0372047Y0143727D02*
X0374016D01*
X0403517Y0173228D01*
X0374016Y0151627D02*
X0395617Y0173228D01*
X0372047Y0151627D02*
X0374016D01*
X0347669Y0143727D02*
X0372047D01*
X0324169D02*
X0347669D01*
X0301181D02*
X0324169D01*
X0347669Y0151627D02*
X0372047D01*
X0324169D02*
X0347669D01*
X0301181D02*
X0324169D01*
X0419291Y0173228D02*
X0419317Y0173254D01*
X0395617Y0198793D02*
X0395643Y0198819D01*
X0403517Y0173228D02*
X0403543Y0173254D01*
X0403517Y0198845D02*
X0403543Y0198819D01*
X0403517Y0198845D02*
Y0224409D01*
X0403543Y0224435D01*
Y0250000D01*
D27*
X0419317Y0198819D02*
Y0250000D01*
X0427191Y0198819D02*
Y0250000D01*
Y0167743D02*
Y0198819D01*
X0278864Y0127953D02*
X0301181D01*
X0278864Y0120079D02*
X0301181D01*
X0347669Y0127953D02*
X0372047D01*
X0324169D02*
X0347669D01*
X0301181D02*
X0324169D01*
X0419317Y0173254D02*
Y0198819D01*
X0347669Y0120079D02*
X0372047D01*
X0324169D02*
X0347669D01*
X0301181D02*
X0324169D01*
X0372047D02*
X0379528D01*
X0407480Y0148031D01*
X0427191Y0167743D01*
D28*
X0405512Y0118110D02*
D03*
X0275590Y0248031D02*
D03*
D29*
X0395643Y0250000D02*
D03*
X0403543D02*
D03*
X0411443D02*
D03*
X0419317D02*
D03*
X0427191D02*
D03*
X0372047Y0151627D02*
D03*
Y0143727D02*
D03*
Y0135827D02*
D03*
Y0127953D02*
D03*
Y0120079D02*
D03*
X0395617Y0224409D02*
D03*
X0403517D02*
D03*
X0411417D02*
D03*
X0419291D02*
D03*
X0427165D02*
D03*
X0395643Y0198819D02*
D03*
X0403543D02*
D03*
X0411443D02*
D03*
X0419317D02*
D03*
X0427191D02*
D03*
X0395617Y0173228D02*
D03*
X0403517D02*
D03*
X0411417D02*
D03*
X0419291D02*
D03*
X0427165D02*
D03*
X0347669Y0151627D02*
D03*
Y0143727D02*
D03*
Y0135827D02*
D03*
Y0127953D02*
D03*
Y0120079D02*
D03*
X0324169Y0151627D02*
D03*
Y0143727D02*
D03*
Y0135827D02*
D03*
Y0127953D02*
D03*
Y0120079D02*
D03*
X0301181Y0151627D02*
D03*
Y0143727D02*
D03*
Y0135827D02*
D03*
Y0127953D02*
D03*
Y0120079D02*
D03*
X0278864Y0151627D02*
D03*
Y0143727D02*
D03*
Y0135827D02*
D03*
Y0127953D02*
D03*
Y0120079D02*
D03*
D30*
X0268106Y0170206D02*
D03*
X0270861Y0172962D02*
D03*
X0273617Y0175718D02*
D03*
X0276373Y0167450D02*
D03*
X0279129D02*
D03*
X0281885D02*
D03*
X0265350Y0172962D02*
D03*
X0268106Y0167450D02*
D03*
Y0175718D02*
D03*
Y0172962D02*
D03*
X0265350Y0167450D02*
D03*
Y0175718D02*
D03*
Y0170206D02*
D03*
X0273617Y0172962D02*
D03*
Y0170206D02*
D03*
X0270861Y0167450D02*
D03*
Y0170206D02*
D03*
Y0175718D02*
D03*
X0276373Y0170206D02*
D03*
Y0172962D02*
D03*
X0273617Y0167450D02*
D03*
X0276373Y0175718D02*
D03*
X0281885D02*
D03*
Y0172962D02*
D03*
Y0170206D02*
D03*
X0279129Y0175718D02*
D03*
Y0172962D02*
D03*
Y0170206D02*
D03*
X0288506Y0214506D02*
D03*
X0291261Y0217262D02*
D03*
X0294017Y0220018D02*
D03*
X0296773Y0211750D02*
D03*
X0299529D02*
D03*
X0302285D02*
D03*
X0285750Y0217262D02*
D03*
X0288506Y0211750D02*
D03*
Y0220018D02*
D03*
Y0217262D02*
D03*
X0285750Y0211750D02*
D03*
Y0220018D02*
D03*
Y0214506D02*
D03*
X0294017Y0217262D02*
D03*
Y0214506D02*
D03*
X0291261Y0211750D02*
D03*
Y0214506D02*
D03*
Y0220018D02*
D03*
X0296773Y0214506D02*
D03*
Y0217262D02*
D03*
X0294017Y0211750D02*
D03*
X0296773Y0220018D02*
D03*
X0302285D02*
D03*
Y0217262D02*
D03*
Y0214506D02*
D03*
X0299529Y0220018D02*
D03*
Y0217262D02*
D03*
Y0214506D02*
D03*
X0273306Y0228706D02*
D03*
X0276061Y0231462D02*
D03*
X0278817Y0234218D02*
D03*
X0281573Y0225950D02*
D03*
X0284329D02*
D03*
X0287085D02*
D03*
X0270550Y0231462D02*
D03*
X0273306Y0225950D02*
D03*
Y0234218D02*
D03*
Y0231462D02*
D03*
X0270550Y0225950D02*
D03*
Y0234218D02*
D03*
Y0228706D02*
D03*
X0278817Y0231462D02*
D03*
Y0228706D02*
D03*
X0276061Y0225950D02*
D03*
Y0228706D02*
D03*
Y0234218D02*
D03*
X0281573Y0228706D02*
D03*
Y0231462D02*
D03*
X0278817Y0225950D02*
D03*
X0281573Y0234218D02*
D03*
X0287085D02*
D03*
Y0231462D02*
D03*
Y0228706D02*
D03*
X0284329Y0234218D02*
D03*
Y0231462D02*
D03*
Y0228706D02*
D03*
X0368205Y0226533D02*
D03*
X0365700Y0226500D02*
D03*
X0365800Y0228800D02*
D03*
X0368572Y0228900D02*
D03*
X0352700Y0235900D02*
D03*
Y0238400D02*
D03*
X0349300Y0235500D02*
D03*
Y0238400D02*
D03*
X0360630Y0237795D02*
D03*
X0357874D02*
D03*
X0354764Y0220866D02*
D03*
X0356693Y0230315D02*
D03*
Y0227953D02*
D03*
X0357874Y0235433D02*
D03*
X0360630D02*
D03*
X0378346Y0201575D02*
D03*
Y0199213D02*
D03*
X0378740Y0207441D02*
D03*
X0370200Y0181499D02*
D03*
X0371476Y0183366D02*
D03*
X0349213Y0190945D02*
D03*
Y0193701D02*
D03*
X0352756D02*
D03*
X0322047Y0175984D02*
D03*
X0322835Y0199606D02*
D03*
Y0202362D02*
D03*
Y0205118D02*
D03*
X0322441Y0192126D02*
D03*
X0325551Y0192126D02*
D03*
X0318701D02*
D03*
X0323228Y0181496D02*
D03*
X0320866D02*
D03*
X0323228Y0183858D02*
D03*
X0320866D02*
D03*
X0366929Y0249606D02*
D03*
Y0252362D02*
D03*
Y0255118D02*
D03*
X0369685Y0249606D02*
D03*
Y0252362D02*
D03*
Y0255118D02*
D03*
X0364173D02*
D03*
X0361417Y0246850D02*
D03*
X0364173Y0252362D02*
D03*
Y0249606D02*
D03*
X0358661Y0255118D02*
D03*
Y0249606D02*
D03*
Y0246850D02*
D03*
X0361417Y0249606D02*
D03*
Y0252362D02*
D03*
X0353150Y0249606D02*
D03*
Y0255118D02*
D03*
Y0246850D02*
D03*
X0355906Y0252362D02*
D03*
Y0255118D02*
D03*
Y0246850D02*
D03*
X0353150Y0252362D02*
D03*
X0369685Y0246850D02*
D03*
X0366929D02*
D03*
X0364173D02*
D03*
X0361417Y0255118D02*
D03*
X0358661Y0252362D02*
D03*
X0355906Y0249606D02*
D03*
X0298031Y0201969D02*
D03*
X0300787Y0199213D02*
D03*
X0303543Y0196457D02*
D03*
X0295276Y0193701D02*
D03*
Y0190945D02*
D03*
Y0188189D02*
D03*
X0300787Y0204724D02*
D03*
X0295276Y0201969D02*
D03*
X0303543D02*
D03*
X0300787D02*
D03*
X0295276Y0204724D02*
D03*
X0303543D02*
D03*
X0298031D02*
D03*
X0300787Y0196457D02*
D03*
X0298031D02*
D03*
X0295276Y0199213D02*
D03*
X0298031D02*
D03*
X0303543D02*
D03*
X0298031Y0193701D02*
D03*
X0300787D02*
D03*
X0295276Y0196457D02*
D03*
X0303543Y0193701D02*
D03*
Y0188189D02*
D03*
X0300787D02*
D03*
X0298031D02*
D03*
X0303543Y0190945D02*
D03*
X0300787D02*
D03*
X0298031D02*
D03*
X0426378Y0119685D02*
D03*
X0429134D02*
D03*
X0431890D02*
D03*
X0426378Y0116929D02*
D03*
X0429134D02*
D03*
X0431890D02*
D03*
Y0122441D02*
D03*
X0423622Y0125197D02*
D03*
X0429134Y0122441D02*
D03*
X0426378D02*
D03*
X0431890Y0127953D02*
D03*
X0426378D02*
D03*
X0423622D02*
D03*
X0426378Y0125197D02*
D03*
X0429134D02*
D03*
X0426378Y0133465D02*
D03*
X0431890D02*
D03*
X0423622D02*
D03*
X0429134Y0130709D02*
D03*
X0431890D02*
D03*
X0423622D02*
D03*
X0429134Y0133465D02*
D03*
X0423622Y0116929D02*
D03*
Y0119685D02*
D03*
Y0122441D02*
D03*
X0431890Y0125197D02*
D03*
X0429134Y0127953D02*
D03*
X0426378Y0130709D02*
D03*
X0331890Y0194488D02*
D03*
X0334252D02*
D03*
X0336614Y0195276D02*
D03*
Y0199213D02*
D03*
Y0203150D02*
D03*
Y0207087D02*
D03*
X0341339Y0212598D02*
D03*
X0338189D02*
D03*
X0339764Y0214173D02*
D03*
X0352362Y0206299D02*
D03*
X0295636Y0174409D02*
D03*
X0310236Y0192126D02*
D03*
X0353543Y0190945D02*
D03*
X0361024Y0203150D02*
D03*
X0360630Y0205906D02*
D03*
X0368112Y0188979D02*
D03*
X0364567Y0190945D02*
D03*
X0357087D02*
D03*
X0355906Y0211024D02*
D03*
X0360236Y0190945D02*
D03*
X0376771Y0192519D02*
D03*
X0379527Y0191929D02*
D03*
X0316535Y0185039D02*
D03*
X0313997Y0182677D02*
D03*
X0344921Y0196128D02*
D03*
X0330314Y0178740D02*
D03*
X0328110Y0229095D02*
D03*
X0368898Y0202362D02*
D03*
X0314764Y0232283D02*
D03*
X0315748Y0198819D02*
D03*
M02*
