G04 Layer_Physical_Order=1*
G04 Layer_Color=255*
%FSAX25Y25*%
%MOIN*%
G70*
G01*
G75*
%ADD10R,0.01772X0.02165*%
%ADD11R,0.02165X0.01772*%
%ADD12R,0.02047X0.01968*%
%ADD13R,0.02559X0.03937*%
G04:AMPARAMS|DCode=14|XSize=82.68mil|YSize=228.35mil|CornerRadius=41.34mil|HoleSize=0mil|Usage=FLASHONLY|Rotation=0.000|XOffset=0mil|YOffset=0mil|HoleType=Round|Shape=RoundedRectangle|*
%AMROUNDEDRECTD14*
21,1,0.08268,0.14567,0,0,0.0*
21,1,0.00000,0.22835,0,0,0.0*
1,1,0.08268,0.00000,-0.07283*
1,1,0.08268,0.00000,-0.07283*
1,1,0.08268,0.00000,0.07283*
1,1,0.08268,0.00000,0.07283*
%
%ADD14ROUNDEDRECTD14*%
%ADD15R,0.03543X0.04724*%
%ADD16R,0.03543X0.00984*%
%ADD17R,0.05866X0.09449*%
%ADD18R,0.06300X0.05500*%
%ADD19R,0.01968X0.02047*%
%ADD20O,0.06102X0.00984*%
%ADD21O,0.00984X0.06102*%
%ADD22R,0.07500X0.07500*%
%ADD23R,0.07500X0.07100*%
%ADD24R,0.05600X0.01400*%
%ADD25R,0.04331X0.07874*%
%ADD26C,0.01000*%
%ADD27C,0.03937*%
%ADD28C,0.07874*%
%ADD29C,0.15748*%
%ADD30C,0.06300*%
%ADD31C,0.02000*%
G36*
X0437175Y0152024D02*
X0436690Y0151903D01*
X0436381Y0152480D01*
X0435297Y0153801D01*
X0433976Y0154885D01*
X0432469Y0155690D01*
X0430834Y0156186D01*
X0429134Y0156354D01*
X0427433Y0156186D01*
X0425798Y0155690D01*
X0424292Y0154885D01*
X0422971Y0153801D01*
X0421887Y0152480D01*
X0421852Y0152416D01*
X0418110D01*
X0417918Y0152390D01*
X0413703D01*
X0413391Y0152328D01*
X0413126Y0152152D01*
X0412949Y0151887D01*
X0412887Y0151575D01*
Y0143701D01*
X0412949Y0143389D01*
X0413126Y0143124D01*
X0413391Y0142947D01*
X0413703Y0142885D01*
X0417919D01*
X0418110Y0142860D01*
X0421852D01*
X0421887Y0142796D01*
X0422971Y0141475D01*
X0424292Y0140391D01*
X0425798Y0139585D01*
X0427433Y0139089D01*
X0429134Y0138922D01*
X0430834Y0139089D01*
X0432469Y0139585D01*
X0433976Y0140391D01*
X0435297Y0141475D01*
X0436381Y0142796D01*
X0436690Y0143373D01*
X0437175Y0143251D01*
Y0126858D01*
X0436690Y0126736D01*
X0436548Y0127001D01*
X0435439Y0128352D01*
X0434088Y0129461D01*
X0432546Y0130285D01*
X0430873Y0130793D01*
X0430134Y0130866D01*
Y0122047D01*
Y0113229D01*
X0430873Y0113302D01*
X0432546Y0113809D01*
X0434088Y0114633D01*
X0435439Y0115742D01*
X0436548Y0117093D01*
X0436690Y0117358D01*
X0437175Y0117236D01*
Y0108526D01*
X0264325D01*
Y0257275D01*
X0437175D01*
Y0152024D01*
D02*
G37*
%LPC*%
G36*
X0317701Y0195508D02*
X0316929D01*
X0316539Y0195430D01*
X0316208Y0195209D01*
X0315987Y0194878D01*
X0315910Y0194488D01*
Y0193126D01*
X0317701D01*
Y0195508D01*
D02*
G37*
G36*
X0320472D02*
X0319701D01*
Y0193126D01*
X0321492D01*
Y0194488D01*
X0321414Y0194878D01*
X0321193Y0195209D01*
X0320863Y0195430D01*
X0320472Y0195508D01*
D02*
G37*
G36*
X0280366Y0192660D02*
X0277606D01*
X0277624Y0192570D01*
X0277845Y0192239D01*
X0278176Y0192018D01*
X0278566Y0191940D01*
X0280366D01*
Y0192660D01*
D02*
G37*
G36*
X0285126D02*
X0282366D01*
Y0191940D01*
X0284166D01*
X0284556Y0192018D01*
X0284887Y0192239D01*
X0285108Y0192570D01*
X0285126Y0192660D01*
D02*
G37*
G36*
X0324551Y0194166D02*
X0324177Y0194091D01*
X0323846Y0193870D01*
X0323625Y0193540D01*
X0323547Y0193149D01*
Y0193126D01*
X0324551D01*
Y0194166D01*
D02*
G37*
G36*
X0274616Y0208425D02*
X0267116D01*
X0266804Y0208363D01*
X0266539Y0208187D01*
X0266363Y0207922D01*
X0266301Y0207610D01*
Y0200110D01*
X0266363Y0199798D01*
X0266539Y0199533D01*
X0266804Y0199356D01*
X0267116Y0199294D01*
X0274616D01*
X0274928Y0199356D01*
X0275193Y0199533D01*
X0275370Y0199798D01*
X0275432Y0200110D01*
Y0207610D01*
X0275370Y0207922D01*
X0275193Y0208187D01*
X0274928Y0208363D01*
X0274616Y0208425D01*
D02*
G37*
G36*
X0366205Y0226533D02*
X0363035D01*
Y0224783D01*
X0363113Y0224393D01*
X0363334Y0224062D01*
X0363665Y0223841D01*
X0364055Y0223764D01*
X0366205D01*
Y0226533D01*
D02*
G37*
G36*
X0371375D02*
X0368205D01*
Y0223764D01*
X0370355D01*
X0370745Y0223841D01*
X0371076Y0224062D01*
X0371297Y0224393D01*
X0371375Y0224783D01*
Y0226533D01*
D02*
G37*
G36*
X0373480Y0222906D02*
Y0221866D01*
X0374484D01*
Y0221890D01*
X0374406Y0222280D01*
X0374185Y0222611D01*
X0373855Y0222832D01*
X0373480Y0222906D01*
D02*
G37*
G36*
X0274616Y0218974D02*
X0267116D01*
X0266804Y0218912D01*
X0266539Y0218735D01*
X0266363Y0218470D01*
X0266301Y0218158D01*
Y0211058D01*
X0266363Y0210746D01*
X0266539Y0210481D01*
X0266804Y0210304D01*
X0267116Y0210242D01*
X0274616D01*
X0274928Y0210304D01*
X0275193Y0210481D01*
X0275370Y0210746D01*
X0275432Y0211058D01*
Y0218158D01*
X0275370Y0218470D01*
X0275193Y0218735D01*
X0274928Y0218912D01*
X0274616Y0218974D01*
D02*
G37*
G36*
X0374484Y0219866D02*
X0373480D01*
Y0218826D01*
X0373855Y0218901D01*
X0374185Y0219122D01*
X0374406Y0219452D01*
X0374484Y0219843D01*
Y0219866D01*
D02*
G37*
G36*
X0324551Y0191126D02*
X0323547D01*
Y0191102D01*
X0323625Y0190712D01*
X0323846Y0190381D01*
X0324177Y0190160D01*
X0324551Y0190086D01*
Y0191126D01*
D02*
G37*
G36*
X0309630Y0175969D02*
X0308550D01*
X0308605Y0175692D01*
X0308826Y0175362D01*
X0309157Y0175141D01*
X0309547Y0175063D01*
X0309630D01*
Y0175969D01*
D02*
G37*
G36*
X0312709D02*
X0311630D01*
Y0175063D01*
X0311713D01*
X0312103Y0175141D01*
X0312434Y0175362D01*
X0312655Y0175692D01*
X0312709Y0175969D01*
D02*
G37*
G36*
X0428134Y0130866D02*
X0427394Y0130793D01*
X0425722Y0130285D01*
X0424180Y0129461D01*
X0422829Y0128352D01*
X0421720Y0127001D01*
X0420896Y0125460D01*
X0420388Y0123787D01*
X0420315Y0123047D01*
X0428134D01*
Y0130866D01*
D02*
G37*
G36*
X0399300Y0127216D02*
X0397600Y0127049D01*
X0395965Y0126552D01*
X0394458Y0125747D01*
X0393137Y0124663D01*
X0392053Y0123342D01*
X0391248Y0121835D01*
X0390752Y0120200D01*
X0390584Y0118500D01*
X0390752Y0116800D01*
X0391248Y0115164D01*
X0392053Y0113658D01*
X0393137Y0112337D01*
X0394458Y0111253D01*
X0395965Y0110448D01*
X0397600Y0109951D01*
X0399300Y0109784D01*
X0401000Y0109951D01*
X0402635Y0110448D01*
X0404142Y0111253D01*
X0405463Y0112337D01*
X0406547Y0113658D01*
X0407352Y0115164D01*
X0407849Y0116800D01*
X0408016Y0118500D01*
X0407849Y0120200D01*
X0407352Y0121835D01*
X0406547Y0123342D01*
X0405463Y0124663D01*
X0404142Y0125747D01*
X0402635Y0126552D01*
X0401000Y0127049D01*
X0399300Y0127216D01*
D02*
G37*
G36*
X0428134Y0121047D02*
X0420315D01*
X0420388Y0120308D01*
X0420896Y0118635D01*
X0421720Y0117093D01*
X0422829Y0115742D01*
X0424180Y0114633D01*
X0425722Y0113809D01*
X0427394Y0113302D01*
X0428134Y0113229D01*
Y0121047D01*
D02*
G37*
G36*
X0315555Y0175772D02*
X0313920D01*
X0314062Y0175559D01*
X0314393Y0175338D01*
X0314783Y0175260D01*
X0315555D01*
Y0175772D01*
D02*
G37*
G36*
X0321492Y0191126D02*
X0319701D01*
Y0188744D01*
X0320472D01*
X0320863Y0188822D01*
X0321193Y0189043D01*
X0321414Y0189374D01*
X0321492Y0189764D01*
Y0191126D01*
D02*
G37*
G36*
X0274616Y0198425D02*
X0267116D01*
X0266804Y0198363D01*
X0266539Y0198187D01*
X0266363Y0197922D01*
X0266301Y0197610D01*
Y0190110D01*
X0266363Y0189798D01*
X0266539Y0189533D01*
X0266804Y0189356D01*
X0267116Y0189294D01*
X0274616D01*
X0274928Y0189356D01*
X0275193Y0189533D01*
X0275370Y0189798D01*
X0275432Y0190110D01*
Y0197610D01*
X0275370Y0197922D01*
X0275193Y0198187D01*
X0274928Y0198363D01*
X0274616Y0198425D01*
D02*
G37*
G36*
X0317701Y0191126D02*
X0315910D01*
Y0189764D01*
X0315987Y0189374D01*
X0316208Y0189043D01*
X0316539Y0188822D01*
X0316929Y0188744D01*
X0317701D01*
Y0191126D01*
D02*
G37*
G36*
X0274616Y0187425D02*
X0267116D01*
X0266804Y0187363D01*
X0266539Y0187187D01*
X0266363Y0186922D01*
X0266301Y0186610D01*
Y0179510D01*
X0266363Y0179198D01*
X0266539Y0178933D01*
X0266804Y0178756D01*
X0267116Y0178694D01*
X0274616D01*
X0274928Y0178756D01*
X0275193Y0178933D01*
X0275370Y0179198D01*
X0275432Y0179510D01*
Y0186610D01*
X0275370Y0186922D01*
X0275193Y0187187D01*
X0274928Y0187363D01*
X0274616Y0187425D01*
D02*
G37*
G36*
X0312205Y0195304D02*
X0308662D01*
X0308349Y0195242D01*
X0308085Y0195065D01*
X0307908Y0194800D01*
X0307846Y0194488D01*
Y0189764D01*
X0307908Y0189452D01*
X0308085Y0189187D01*
X0308349Y0189010D01*
X0308662Y0188948D01*
X0309108D01*
Y0186948D01*
X0309209Y0186441D01*
X0309496Y0186011D01*
X0312273Y0183234D01*
X0312162Y0182677D01*
X0312176Y0182606D01*
X0311746Y0182207D01*
X0311713Y0182213D01*
X0309547D01*
X0309235Y0182151D01*
X0308970Y0181974D01*
X0308794Y0181710D01*
X0308732Y0181398D01*
Y0179626D01*
X0308794Y0179314D01*
X0308970Y0179049D01*
X0308832Y0178593D01*
X0308812Y0178554D01*
X0308605Y0178244D01*
X0308550Y0177969D01*
X0310630D01*
X0312709D01*
X0312655Y0178244D01*
X0312448Y0178554D01*
X0312428Y0178593D01*
X0312400Y0178686D01*
X0312770Y0179186D01*
X0313968D01*
Y0178248D01*
X0314030Y0177936D01*
X0314030Y0177936D01*
X0313920Y0177772D01*
X0314139D01*
X0314207Y0177671D01*
X0314471Y0177494D01*
X0314783Y0177432D01*
X0316555D01*
Y0176772D01*
X0317555D01*
Y0175260D01*
X0318327D01*
X0318387Y0175272D01*
X0318393Y0175263D01*
X0318724Y0175042D01*
X0319114Y0174965D01*
X0321047D01*
Y0180709D01*
Y0186453D01*
X0319114D01*
X0318724Y0186375D01*
X0318393Y0186154D01*
X0317873Y0186276D01*
X0317833Y0186337D01*
X0317237Y0186735D01*
X0316535Y0186874D01*
X0315832Y0186735D01*
X0315237Y0186337D01*
X0314981Y0185953D01*
X0314783D01*
X0314471Y0185891D01*
X0314207Y0185715D01*
X0313600Y0185656D01*
X0311759Y0187497D01*
Y0188948D01*
X0312205D01*
X0312517Y0189010D01*
X0312782Y0189187D01*
X0312958Y0189452D01*
X0313020Y0189764D01*
Y0194488D01*
X0312958Y0194800D01*
X0312782Y0195065D01*
X0312517Y0195242D01*
X0312205Y0195304D01*
D02*
G37*
G36*
X0337697Y0231918D02*
X0335138D01*
X0334826Y0231856D01*
X0334561Y0231679D01*
X0334384Y0231415D01*
X0334322Y0231102D01*
Y0227165D01*
X0334384Y0226853D01*
X0334561Y0226589D01*
X0334826Y0226412D01*
X0335138Y0226350D01*
X0337697D01*
X0338009Y0226412D01*
X0338274Y0226589D01*
X0338450Y0226853D01*
X0338512Y0227165D01*
Y0231102D01*
X0338450Y0231415D01*
X0338274Y0231679D01*
X0338009Y0231856D01*
X0337697Y0231918D01*
D02*
G37*
G36*
X0354055Y0240803D02*
X0351905D01*
Y0238033D01*
X0355075D01*
Y0239783D01*
X0354997Y0240174D01*
X0354776Y0240504D01*
X0354445Y0240725D01*
X0354055Y0240803D01*
D02*
G37*
G36*
X0275590Y0256748D02*
X0273890Y0256580D01*
X0272255Y0256084D01*
X0270748Y0255279D01*
X0269427Y0254195D01*
X0268343Y0252874D01*
X0267538Y0251367D01*
X0267042Y0249732D01*
X0266875Y0248031D01*
X0267042Y0246331D01*
X0267538Y0244696D01*
X0268343Y0243189D01*
X0269427Y0241868D01*
X0270748Y0240784D01*
X0272255Y0239979D01*
X0273890Y0239483D01*
X0275590Y0239316D01*
X0277291Y0239483D01*
X0278926Y0239979D01*
X0280433Y0240784D01*
X0281754Y0241868D01*
X0282838Y0243189D01*
X0283643Y0244696D01*
X0284139Y0246331D01*
X0284307Y0248031D01*
X0284139Y0249732D01*
X0283643Y0251367D01*
X0282838Y0252874D01*
X0281754Y0254195D01*
X0280433Y0255279D01*
X0278926Y0256084D01*
X0277291Y0256580D01*
X0275590Y0256748D01*
D02*
G37*
G36*
X0335417Y0244276D02*
X0334118D01*
Y0243307D01*
X0334196Y0242917D01*
X0334417Y0242586D01*
X0334748Y0242365D01*
X0335138Y0242288D01*
X0335417D01*
Y0244276D01*
D02*
G37*
G36*
X0349905Y0240803D02*
X0347755D01*
X0347365Y0240725D01*
X0347034Y0240504D01*
X0346813Y0240174D01*
X0346736Y0239783D01*
Y0238033D01*
X0349905D01*
Y0240803D01*
D02*
G37*
G36*
X0317307Y0234363D02*
X0317031Y0234308D01*
X0316722Y0234101D01*
X0316682Y0234082D01*
X0316226Y0233943D01*
X0315962Y0234120D01*
X0315650Y0234182D01*
X0313878D01*
X0313566Y0234120D01*
X0313301Y0233943D01*
X0313124Y0233678D01*
X0313062Y0233366D01*
Y0232956D01*
X0312938Y0232332D01*
X0311065Y0230459D01*
X0308788D01*
Y0231102D01*
X0308726Y0231415D01*
X0308549Y0231679D01*
X0308285Y0231856D01*
X0307973Y0231918D01*
X0305413D01*
X0305101Y0231856D01*
X0304837Y0231679D01*
X0304660Y0231415D01*
X0304598Y0231102D01*
Y0227165D01*
X0304660Y0226853D01*
X0304837Y0226589D01*
X0305101Y0226412D01*
X0305413Y0226350D01*
X0307973D01*
X0308285Y0226412D01*
X0308549Y0226589D01*
X0308726Y0226853D01*
X0308788Y0227165D01*
Y0227808D01*
X0311614D01*
X0312121Y0227909D01*
X0312551Y0228197D01*
X0314740Y0230385D01*
X0315650D01*
X0315962Y0230447D01*
X0316226Y0230624D01*
X0316682Y0230485D01*
X0316722Y0230466D01*
X0317031Y0230259D01*
X0317307Y0230204D01*
Y0232283D01*
Y0234363D01*
D02*
G37*
G36*
X0342307Y0235901D02*
X0342284D01*
X0341893Y0235824D01*
X0341563Y0235603D01*
X0341341Y0235272D01*
X0341267Y0234898D01*
X0342307D01*
Y0235901D01*
D02*
G37*
G36*
X0344331D02*
X0344307D01*
Y0234898D01*
X0345347D01*
X0345273Y0235272D01*
X0345052Y0235603D01*
X0344721Y0235824D01*
X0344331Y0235901D01*
D02*
G37*
G36*
X0420317Y0254054D02*
Y0250000D01*
Y0245946D01*
X0420401Y0245957D01*
X0421410Y0246375D01*
X0422277Y0247040D01*
X0422942Y0247907D01*
X0423092Y0248268D01*
X0423633D01*
X0423741Y0248008D01*
X0424374Y0247183D01*
X0424399Y0247164D01*
Y0227266D01*
X0424348Y0227227D01*
X0423715Y0226401D01*
X0423607Y0226141D01*
X0423066D01*
X0422916Y0226502D01*
X0422251Y0227369D01*
X0421384Y0228034D01*
X0420375Y0228453D01*
X0420291Y0228464D01*
Y0224409D01*
Y0220355D01*
X0420375Y0220366D01*
X0421384Y0220784D01*
X0422251Y0221450D01*
X0422916Y0222317D01*
X0423066Y0222678D01*
X0423607D01*
X0423715Y0222417D01*
X0424348Y0221592D01*
X0424399Y0221553D01*
Y0201655D01*
X0424374Y0201636D01*
X0423741Y0200811D01*
X0423633Y0200551D01*
X0423092D01*
X0422942Y0200912D01*
X0422277Y0201779D01*
X0421410Y0202444D01*
X0420401Y0202862D01*
X0420317Y0202873D01*
Y0198819D01*
Y0194765D01*
X0420401Y0194776D01*
X0421410Y0195194D01*
X0422277Y0195859D01*
X0422942Y0196726D01*
X0423092Y0197087D01*
X0423633D01*
X0423741Y0196827D01*
X0424374Y0196002D01*
X0424399Y0195983D01*
Y0176084D01*
X0424348Y0176046D01*
X0423715Y0175220D01*
X0423607Y0174960D01*
X0423066D01*
X0422916Y0175321D01*
X0422251Y0176188D01*
X0421384Y0176853D01*
X0420375Y0177272D01*
X0420291Y0177283D01*
Y0173228D01*
X0418291D01*
Y0177283D01*
X0418208Y0177272D01*
X0417199Y0176853D01*
X0416332Y0176188D01*
X0415666Y0175321D01*
X0415517Y0174960D01*
X0414976D01*
X0414868Y0175220D01*
X0414235Y0176046D01*
X0413409Y0176679D01*
X0412449Y0177077D01*
X0411417Y0177213D01*
X0410386Y0177077D01*
X0409425Y0176679D01*
X0408600Y0176046D01*
X0407967Y0175220D01*
X0407738Y0174667D01*
X0407197D01*
X0406968Y0175220D01*
X0406335Y0176046D01*
X0405509Y0176679D01*
X0404869Y0176944D01*
Y0195093D01*
X0405535Y0195369D01*
X0406361Y0196002D01*
X0406994Y0196827D01*
X0407223Y0197380D01*
X0407764D01*
X0407993Y0196827D01*
X0408626Y0196002D01*
X0409451Y0195369D01*
X0410412Y0194971D01*
X0411443Y0194835D01*
X0412475Y0194971D01*
X0413435Y0195369D01*
X0414261Y0196002D01*
X0414894Y0196827D01*
X0415002Y0197087D01*
X0415543D01*
X0415692Y0196726D01*
X0416358Y0195859D01*
X0417225Y0195194D01*
X0418234Y0194776D01*
X0418317Y0194765D01*
Y0198819D01*
Y0202873D01*
X0418234Y0202862D01*
X0417225Y0202444D01*
X0416358Y0201779D01*
X0415692Y0200912D01*
X0415543Y0200551D01*
X0415002D01*
X0414894Y0200811D01*
X0414261Y0201636D01*
X0413435Y0202269D01*
X0412475Y0202667D01*
X0411443Y0202803D01*
X0410412Y0202667D01*
X0409451Y0202269D01*
X0408626Y0201636D01*
X0407993Y0200811D01*
X0407764Y0200258D01*
X0407223D01*
X0406994Y0200811D01*
X0406361Y0201636D01*
X0405535Y0202269D01*
X0404843Y0202556D01*
Y0220683D01*
X0405509Y0220959D01*
X0406335Y0221592D01*
X0406968Y0222417D01*
X0407197Y0222970D01*
X0407738D01*
X0407967Y0222417D01*
X0408600Y0221592D01*
X0409425Y0220959D01*
X0410386Y0220561D01*
X0411417Y0220425D01*
X0412449Y0220561D01*
X0413409Y0220959D01*
X0414235Y0221592D01*
X0414868Y0222417D01*
X0414976Y0222678D01*
X0415517D01*
X0415666Y0222317D01*
X0416332Y0221450D01*
X0417199Y0220784D01*
X0418208Y0220366D01*
X0418291Y0220355D01*
Y0224409D01*
Y0228464D01*
X0418208Y0228453D01*
X0417199Y0228034D01*
X0416332Y0227369D01*
X0415666Y0226502D01*
X0415517Y0226141D01*
X0414976D01*
X0414868Y0226401D01*
X0414235Y0227227D01*
X0413409Y0227860D01*
X0412449Y0228258D01*
X0411417Y0228394D01*
X0410386Y0228258D01*
X0409425Y0227860D01*
X0408600Y0227227D01*
X0407967Y0226401D01*
X0407738Y0225848D01*
X0407197D01*
X0406968Y0226401D01*
X0406335Y0227227D01*
X0405509Y0227860D01*
X0404869Y0228125D01*
Y0246274D01*
X0405535Y0246550D01*
X0406361Y0247183D01*
X0406994Y0248008D01*
X0407223Y0248561D01*
X0407764D01*
X0407993Y0248008D01*
X0408626Y0247183D01*
X0409451Y0246550D01*
X0410412Y0246152D01*
X0411443Y0246016D01*
X0412475Y0246152D01*
X0413435Y0246550D01*
X0414261Y0247183D01*
X0414894Y0248008D01*
X0415002Y0248268D01*
X0415543D01*
X0415692Y0247907D01*
X0416358Y0247040D01*
X0417225Y0246375D01*
X0418234Y0245957D01*
X0418317Y0245946D01*
Y0250000D01*
Y0254054D01*
X0418234Y0254043D01*
X0417225Y0253625D01*
X0416358Y0252960D01*
X0415692Y0252093D01*
X0415543Y0251732D01*
X0415002D01*
X0414894Y0251992D01*
X0414261Y0252817D01*
X0413435Y0253450D01*
X0412475Y0253848D01*
X0411443Y0253984D01*
X0410412Y0253848D01*
X0409451Y0253450D01*
X0408626Y0252817D01*
X0407993Y0251992D01*
X0407764Y0251439D01*
X0407223D01*
X0406994Y0251992D01*
X0406361Y0252817D01*
X0405535Y0253450D01*
X0404575Y0253848D01*
X0403543Y0253984D01*
X0402512Y0253848D01*
X0401551Y0253450D01*
X0400726Y0252817D01*
X0400093Y0251992D01*
X0399864Y0251439D01*
X0399323D01*
X0399094Y0251992D01*
X0398461Y0252817D01*
X0397635Y0253450D01*
X0396675Y0253848D01*
X0395643Y0253984D01*
X0394612Y0253848D01*
X0393651Y0253450D01*
X0392826Y0252817D01*
X0392193Y0251992D01*
X0391795Y0251031D01*
X0391659Y0250000D01*
X0391795Y0248969D01*
X0392193Y0248008D01*
X0392826Y0247183D01*
X0393651Y0246550D01*
X0394318Y0246274D01*
Y0228147D01*
X0393625Y0227860D01*
X0392800Y0227227D01*
X0392167Y0226401D01*
X0391769Y0225441D01*
X0391633Y0224409D01*
X0391769Y0223378D01*
X0392167Y0222417D01*
X0392800Y0221592D01*
X0393625Y0220959D01*
X0394318Y0220672D01*
Y0202545D01*
X0393651Y0202269D01*
X0392826Y0201636D01*
X0392193Y0200811D01*
X0391795Y0199850D01*
X0391659Y0198819D01*
X0391795Y0197788D01*
X0392071Y0197121D01*
X0384858Y0189908D01*
X0381279D01*
X0381270Y0189921D01*
X0381187Y0190467D01*
X0381364Y0190731D01*
X0381426Y0191043D01*
Y0192815D01*
X0381364Y0193127D01*
X0381187Y0193392D01*
X0381160Y0193409D01*
Y0193992D01*
X0381187Y0194010D01*
X0381364Y0194274D01*
X0381426Y0194587D01*
Y0195496D01*
X0382040Y0196110D01*
X0382327Y0196540D01*
X0382428Y0197047D01*
Y0208642D01*
X0382428Y0208642D01*
X0382327Y0209150D01*
X0382040Y0209580D01*
X0381157Y0210462D01*
X0380727Y0210750D01*
X0380579Y0210779D01*
Y0211654D01*
X0380517Y0211966D01*
X0380341Y0212230D01*
X0380076Y0212407D01*
X0379764Y0212469D01*
X0377717D01*
X0377404Y0212407D01*
X0377140Y0212230D01*
X0376982Y0211995D01*
X0373563D01*
X0373056Y0211894D01*
X0372994Y0211853D01*
X0369788Y0215059D01*
X0370189Y0215460D01*
X0370477Y0215890D01*
X0370578Y0216398D01*
Y0218652D01*
X0371077Y0218919D01*
X0371106Y0218901D01*
X0371480Y0218826D01*
Y0220866D01*
Y0222906D01*
X0371106Y0222832D01*
X0370775Y0222611D01*
X0370720Y0222529D01*
X0370548Y0222643D01*
X0370236Y0222706D01*
X0368268D01*
X0367956Y0222643D01*
X0367691Y0222467D01*
X0367514Y0222202D01*
X0367452Y0221890D01*
Y0219843D01*
X0367514Y0219530D01*
X0367611Y0219385D01*
X0367512Y0218974D01*
X0367429Y0218839D01*
X0367409Y0218835D01*
X0367325Y0218779D01*
X0366929Y0218577D01*
X0366534Y0218779D01*
X0366449Y0218835D01*
X0365945Y0218935D01*
X0365441Y0218835D01*
X0365356Y0218779D01*
X0364961Y0218577D01*
X0364565Y0218779D01*
X0364481Y0218835D01*
X0363976Y0218935D01*
X0363472Y0218835D01*
X0363388Y0218779D01*
X0362992Y0218577D01*
X0362597Y0218779D01*
X0362512Y0218835D01*
X0362008Y0218935D01*
X0361865Y0218907D01*
X0361365Y0219298D01*
Y0229319D01*
X0362574Y0230528D01*
X0363033Y0230285D01*
X0363035Y0230282D01*
Y0228533D01*
X0366205D01*
Y0231303D01*
X0364056D01*
X0364054Y0231306D01*
X0363810Y0231764D01*
X0365514Y0233468D01*
X0368896D01*
X0369049Y0233315D01*
X0369479Y0233027D01*
X0369987Y0232927D01*
X0372589D01*
X0372857Y0232427D01*
X0372837Y0232398D01*
X0372763Y0232024D01*
X0374803D01*
X0376843D01*
X0376769Y0232398D01*
X0376548Y0232729D01*
X0376466Y0232784D01*
X0376580Y0232956D01*
X0376642Y0233268D01*
Y0235236D01*
X0376580Y0235548D01*
X0376403Y0235813D01*
X0376139Y0235990D01*
X0375827Y0236052D01*
X0373780D01*
X0373467Y0235990D01*
X0373203Y0235813D01*
X0373045Y0235577D01*
X0371171D01*
Y0239783D01*
X0371109Y0240095D01*
X0370932Y0240360D01*
X0370667Y0240537D01*
X0370355Y0240599D01*
X0364055D01*
X0363743Y0240537D01*
X0363478Y0240360D01*
X0363301Y0240095D01*
X0363239Y0239783D01*
Y0234942D01*
X0359102Y0230805D01*
X0358815Y0230375D01*
X0358714Y0229868D01*
Y0223007D01*
X0358252Y0222816D01*
X0354871Y0226197D01*
Y0230283D01*
X0354809Y0230595D01*
X0354632Y0230860D01*
X0354367Y0231037D01*
X0354055Y0231099D01*
X0347755D01*
X0347443Y0231037D01*
X0347178Y0230860D01*
X0347002Y0230595D01*
X0346939Y0230283D01*
Y0229565D01*
X0346478Y0229374D01*
X0345146Y0230705D01*
Y0231654D01*
X0345084Y0231966D01*
X0344970Y0232137D01*
X0345052Y0232192D01*
X0345273Y0232523D01*
X0345347Y0232898D01*
X0343307D01*
X0341267D01*
X0341341Y0232523D01*
X0341563Y0232192D01*
X0341645Y0232137D01*
X0341530Y0231966D01*
X0341468Y0231654D01*
Y0229685D01*
X0341530Y0229373D01*
X0341707Y0229108D01*
X0341971Y0228932D01*
X0342284Y0228870D01*
X0343232D01*
X0345506Y0226596D01*
X0345936Y0226309D01*
X0346443Y0226208D01*
X0346939D01*
Y0224783D01*
X0347002Y0224471D01*
X0347178Y0224207D01*
X0347443Y0224030D01*
X0347755Y0223968D01*
X0353351D01*
X0353964Y0223355D01*
X0353912Y0223229D01*
X0353715Y0222897D01*
X0353389Y0222832D01*
X0353059Y0222611D01*
X0353004Y0222529D01*
X0352832Y0222643D01*
X0352520Y0222706D01*
X0350551D01*
X0350239Y0222643D01*
X0349974Y0222467D01*
X0349798Y0222202D01*
X0349796Y0222192D01*
X0343110D01*
X0342603Y0222091D01*
X0342173Y0221803D01*
X0335983Y0215614D01*
X0335538Y0215734D01*
X0335461Y0215799D01*
Y0216136D01*
X0335446Y0216214D01*
Y0216295D01*
X0335295Y0217055D01*
X0335264Y0217129D01*
X0335248Y0217208D01*
X0334951Y0217925D01*
X0334907Y0217991D01*
X0334876Y0218066D01*
X0334445Y0218711D01*
X0334388Y0218767D01*
X0334344Y0218834D01*
X0333795Y0219383D01*
X0333729Y0219427D01*
X0333672Y0219484D01*
X0333027Y0219915D01*
X0332953Y0219946D01*
X0332886Y0219990D01*
X0332170Y0220287D01*
X0332091Y0220303D01*
X0332017Y0220334D01*
X0331256Y0220485D01*
X0331176Y0220485D01*
X0331097Y0220501D01*
X0330715Y0220501D01*
X0330512Y0220528D01*
X0330309Y0220501D01*
X0326378Y0220500D01*
X0326203Y0220466D01*
X0326066Y0220438D01*
X0326066Y0220438D01*
X0326066Y0220438D01*
X0325923Y0220343D01*
X0325801Y0220262D01*
X0325801Y0220262D01*
X0325801Y0220262D01*
X0325720Y0220140D01*
X0325624Y0219997D01*
X0325624Y0219997D01*
X0325624Y0219997D01*
X0325597Y0219859D01*
X0325562Y0219685D01*
Y0215755D01*
X0325535Y0215551D01*
Y0209593D01*
X0321717D01*
Y0220141D01*
X0321616Y0220648D01*
X0321329Y0221078D01*
X0320684Y0221722D01*
X0320254Y0222010D01*
X0319747Y0222111D01*
X0307323D01*
X0300520Y0228913D01*
Y0231102D01*
X0300458Y0231415D01*
X0300281Y0231679D01*
X0300017Y0231856D01*
X0299705Y0231918D01*
X0297146D01*
X0296833Y0231856D01*
X0296569Y0231679D01*
X0296392Y0231415D01*
X0296330Y0231102D01*
Y0227165D01*
X0296392Y0226853D01*
X0296569Y0226589D01*
X0296833Y0226412D01*
X0297146Y0226350D01*
X0299335D01*
X0305837Y0219848D01*
X0306267Y0219561D01*
X0306774Y0219460D01*
X0311244D01*
X0311451Y0218960D01*
X0311326Y0218834D01*
X0311281Y0218768D01*
X0311225Y0218711D01*
X0310794Y0218066D01*
X0310763Y0217992D01*
X0310718Y0217925D01*
X0310421Y0217209D01*
X0310406Y0217130D01*
X0310375Y0217056D01*
X0310224Y0216295D01*
Y0216215D01*
X0310208Y0216136D01*
X0310208Y0215757D01*
X0310181Y0215551D01*
Y0200984D01*
X0310208Y0200779D01*
X0310208Y0200399D01*
X0310224Y0200321D01*
Y0200240D01*
X0310375Y0199480D01*
X0310406Y0199406D01*
X0310421Y0199327D01*
X0310718Y0198610D01*
X0310763Y0198544D01*
X0310794Y0198469D01*
X0311225Y0197825D01*
X0311281Y0197768D01*
X0311326Y0197701D01*
X0311874Y0197153D01*
X0311941Y0197108D01*
X0311998Y0197051D01*
X0312643Y0196620D01*
X0312717Y0196590D01*
X0312784Y0196545D01*
X0313500Y0196248D01*
X0313579Y0196232D01*
X0313653Y0196202D01*
X0314414Y0196051D01*
X0314494D01*
X0314573Y0196035D01*
X0314952Y0196035D01*
X0315158Y0196008D01*
X0315363Y0196035D01*
X0319291Y0196035D01*
X0319603Y0196097D01*
X0319868Y0196274D01*
X0319868Y0196274D01*
X0320045Y0196538D01*
X0320107Y0196850D01*
Y0200780D01*
X0320134Y0200984D01*
Y0206731D01*
X0320391Y0206942D01*
X0325535D01*
Y0200984D01*
X0325562Y0200780D01*
Y0196850D01*
X0325624Y0196538D01*
X0325801Y0196273D01*
X0325801Y0196273D01*
X0326066Y0196097D01*
X0326378Y0196035D01*
X0327100Y0196035D01*
X0327454Y0195681D01*
Y0194340D01*
X0326954Y0194073D01*
X0326926Y0194091D01*
X0326551Y0194166D01*
Y0192126D01*
Y0190086D01*
X0326926Y0190160D01*
X0327256Y0190381D01*
X0327311Y0190463D01*
X0327483Y0190349D01*
X0327795Y0190287D01*
X0328744D01*
X0329086Y0189945D01*
Y0186157D01*
X0328539D01*
Y0184646D01*
X0326539D01*
Y0186157D01*
X0325768D01*
X0325707Y0186145D01*
X0325701Y0186154D01*
X0325371Y0186375D01*
X0324980Y0186453D01*
X0323047D01*
Y0180709D01*
Y0174965D01*
X0324980D01*
X0325371Y0175042D01*
X0325701Y0175263D01*
X0325835Y0175464D01*
X0329311D01*
X0329623Y0175526D01*
X0329888Y0175703D01*
X0330065Y0175967D01*
X0330127Y0176280D01*
Y0176751D01*
X0330314Y0176904D01*
X0331017Y0177044D01*
X0331612Y0177442D01*
X0332010Y0178038D01*
X0332150Y0178740D01*
X0332010Y0179442D01*
X0331612Y0180037D01*
X0331425Y0180162D01*
X0331348Y0180792D01*
X0331636Y0181222D01*
X0331737Y0181729D01*
Y0185643D01*
X0333281D01*
X0333439Y0185407D01*
X0333703Y0185231D01*
X0334016Y0185169D01*
X0336063D01*
X0336375Y0185231D01*
X0336640Y0185407D01*
X0336797Y0185643D01*
X0339823D01*
X0340330Y0185744D01*
X0340760Y0186031D01*
X0341789Y0187060D01*
X0344709D01*
X0345043Y0186726D01*
X0345089Y0186498D01*
X0345043Y0186429D01*
X0344942Y0185925D01*
Y0180807D01*
X0345043Y0180303D01*
X0345328Y0179876D01*
X0345756Y0179590D01*
X0346260Y0179490D01*
X0346764Y0179590D01*
X0346849Y0179647D01*
X0347244Y0179849D01*
X0347640Y0179647D01*
X0347724Y0179590D01*
X0348228Y0179490D01*
X0348733Y0179590D01*
X0348817Y0179646D01*
X0349213Y0179849D01*
X0349608Y0179646D01*
X0349693Y0179590D01*
X0350197Y0179490D01*
X0350701Y0179590D01*
X0350786Y0179647D01*
X0351181Y0179849D01*
X0351577Y0179647D01*
X0351661Y0179590D01*
X0352165Y0179490D01*
X0352670Y0179590D01*
X0352754Y0179646D01*
X0353150Y0179849D01*
X0353545Y0179646D01*
X0353630Y0179590D01*
X0354134Y0179490D01*
X0354638Y0179590D01*
X0354723Y0179647D01*
X0355118Y0179849D01*
X0355514Y0179647D01*
X0355598Y0179590D01*
X0356102Y0179490D01*
X0356607Y0179590D01*
X0356691Y0179646D01*
X0357087Y0179849D01*
X0357482Y0179646D01*
X0357567Y0179590D01*
X0357578Y0179572D01*
X0357533Y0179343D01*
Y0175373D01*
X0357396Y0175282D01*
X0357378Y0175255D01*
X0356795D01*
X0356778Y0175282D01*
X0356513Y0175458D01*
X0356201Y0175520D01*
X0354429D01*
X0354117Y0175458D01*
X0353852Y0175282D01*
X0353676Y0175017D01*
X0353613Y0174705D01*
Y0174411D01*
X0349845Y0170642D01*
X0309386D01*
X0292640Y0187388D01*
Y0193967D01*
X0292539Y0194474D01*
X0292252Y0194904D01*
X0285559Y0201597D01*
X0285129Y0201884D01*
X0284982Y0201914D01*
Y0202119D01*
X0284920Y0202431D01*
X0284743Y0202696D01*
Y0202701D01*
X0284920Y0202966D01*
X0284982Y0203278D01*
Y0204678D01*
X0284920Y0204990D01*
X0284743Y0205255D01*
X0284478Y0205432D01*
X0284166Y0205494D01*
X0278566D01*
X0278254Y0205432D01*
X0277989Y0205255D01*
X0277813Y0204990D01*
X0277750Y0204678D01*
Y0203278D01*
X0277813Y0202966D01*
X0277989Y0202701D01*
Y0202696D01*
X0277813Y0202431D01*
X0277750Y0202119D01*
Y0200719D01*
X0277813Y0200407D01*
X0277989Y0200142D01*
Y0200137D01*
X0277813Y0199872D01*
X0277750Y0199560D01*
Y0198160D01*
X0277813Y0197848D01*
X0277989Y0197583D01*
Y0197537D01*
X0277813Y0197272D01*
X0277750Y0196960D01*
Y0195560D01*
X0277813Y0195248D01*
X0277900Y0195117D01*
X0277845Y0195081D01*
X0277624Y0194750D01*
X0277606Y0194660D01*
X0285126D01*
X0285108Y0194750D01*
X0285093Y0194773D01*
X0285161Y0194939D01*
X0285750Y0195057D01*
X0288389Y0192418D01*
Y0185839D01*
X0288490Y0185332D01*
X0288777Y0184902D01*
X0306900Y0166779D01*
X0307330Y0166492D01*
X0307837Y0166391D01*
X0357599D01*
X0357613Y0166322D01*
X0357789Y0166057D01*
X0358054Y0165880D01*
X0358366Y0165818D01*
X0360138D01*
X0360450Y0165880D01*
X0360715Y0166057D01*
X0360732Y0166084D01*
X0361315D01*
X0361333Y0166057D01*
X0361597Y0165880D01*
X0361909Y0165818D01*
X0363681D01*
X0363993Y0165880D01*
X0364258Y0166057D01*
X0364435Y0166322D01*
X0364497Y0166634D01*
Y0168799D01*
X0364435Y0169111D01*
X0364258Y0169376D01*
X0364121Y0169468D01*
Y0171733D01*
X0364387Y0171786D01*
X0364652Y0171963D01*
X0364669Y0171989D01*
X0365252D01*
X0365270Y0171963D01*
X0365534Y0171786D01*
X0365846Y0171724D01*
X0367618D01*
X0367930Y0171786D01*
X0368195Y0171963D01*
X0368372Y0172227D01*
X0368434Y0172539D01*
Y0173449D01*
X0375642Y0180657D01*
X0375929Y0181087D01*
X0376030Y0181595D01*
Y0181674D01*
X0376100Y0181687D01*
X0376364Y0181864D01*
X0376541Y0182129D01*
X0376543Y0182139D01*
X0377953D01*
X0378460Y0182240D01*
X0378890Y0182527D01*
X0379701Y0183338D01*
X0380610D01*
X0380922Y0183400D01*
X0381187Y0183577D01*
X0381364Y0183841D01*
X0381426Y0184153D01*
Y0185925D01*
X0381364Y0186237D01*
X0381187Y0186502D01*
X0381310Y0186961D01*
X0381596Y0187257D01*
X0385407D01*
X0385914Y0187358D01*
X0386344Y0187645D01*
X0393792Y0195093D01*
X0394292Y0194886D01*
Y0176955D01*
X0393625Y0176679D01*
X0392800Y0176046D01*
X0392167Y0175220D01*
X0391769Y0174260D01*
X0391633Y0173228D01*
X0391769Y0172197D01*
X0392045Y0171531D01*
X0374953Y0154438D01*
X0374864Y0154444D01*
X0374039Y0155077D01*
X0373078Y0155475D01*
X0372047Y0155611D01*
X0371016Y0155475D01*
X0370055Y0155077D01*
X0369230Y0154444D01*
X0368597Y0153619D01*
X0368321Y0152952D01*
X0351396D01*
X0351120Y0153619D01*
X0350487Y0154444D01*
X0349661Y0155077D01*
X0348701Y0155475D01*
X0347669Y0155611D01*
X0346638Y0155475D01*
X0345677Y0155077D01*
X0344852Y0154444D01*
X0344219Y0153619D01*
X0343943Y0152952D01*
X0327896D01*
X0327620Y0153619D01*
X0326987Y0154444D01*
X0326161Y0155077D01*
X0325201Y0155475D01*
X0324169Y0155611D01*
X0323138Y0155475D01*
X0322177Y0155077D01*
X0321352Y0154444D01*
X0320719Y0153619D01*
X0320443Y0152952D01*
X0304908D01*
X0304631Y0153619D01*
X0303998Y0154444D01*
X0303173Y0155077D01*
X0302212Y0155475D01*
X0301181Y0155611D01*
X0300150Y0155475D01*
X0299189Y0155077D01*
X0298364Y0154444D01*
X0297731Y0153619D01*
X0297455Y0152952D01*
X0282591D01*
X0282314Y0153619D01*
X0281681Y0154444D01*
X0280856Y0155077D01*
X0279895Y0155475D01*
X0278864Y0155611D01*
X0277833Y0155475D01*
X0276872Y0155077D01*
X0276047Y0154444D01*
X0275414Y0153619D01*
X0275016Y0152658D01*
X0274880Y0151627D01*
X0275016Y0150596D01*
X0275414Y0149635D01*
X0276047Y0148810D01*
X0276872Y0148177D01*
X0277425Y0147947D01*
Y0147406D01*
X0276872Y0147177D01*
X0276047Y0146544D01*
X0275414Y0145719D01*
X0275016Y0144758D01*
X0274880Y0143727D01*
X0275016Y0142696D01*
X0275414Y0141735D01*
X0276047Y0140910D01*
X0276872Y0140277D01*
X0277425Y0140047D01*
Y0139506D01*
X0276872Y0139277D01*
X0276047Y0138644D01*
X0275414Y0137819D01*
X0275016Y0136858D01*
X0274880Y0135827D01*
X0275016Y0134796D01*
X0275414Y0133835D01*
X0276047Y0133010D01*
X0276872Y0132377D01*
X0277133Y0132269D01*
Y0131727D01*
X0276771Y0131578D01*
X0275904Y0130913D01*
X0275239Y0130046D01*
X0274821Y0129036D01*
X0274758Y0128557D01*
X0274285Y0128397D01*
X0271798Y0130883D01*
Y0151026D01*
X0293856Y0173084D01*
X0294380D01*
X0294934Y0172714D01*
X0295636Y0172574D01*
X0296339Y0172714D01*
X0296934Y0173112D01*
X0297332Y0173707D01*
X0297472Y0174409D01*
X0297332Y0175112D01*
X0296934Y0175707D01*
X0296339Y0176105D01*
X0295636Y0176245D01*
X0294934Y0176105D01*
X0294380Y0175735D01*
X0293307D01*
X0292800Y0175634D01*
X0292370Y0175347D01*
X0269535Y0152512D01*
X0269248Y0152082D01*
X0269147Y0151575D01*
Y0130334D01*
X0269248Y0129827D01*
X0269535Y0129397D01*
X0276042Y0122890D01*
X0275414Y0122071D01*
X0275016Y0121110D01*
X0274880Y0120079D01*
X0275016Y0119048D01*
X0275414Y0118087D01*
X0276047Y0117262D01*
X0276872Y0116629D01*
X0277833Y0116230D01*
X0278864Y0116095D01*
X0279895Y0116230D01*
X0280856Y0116629D01*
X0281681Y0117262D01*
X0281700Y0117286D01*
X0298345D01*
X0298364Y0117262D01*
X0299189Y0116629D01*
X0300150Y0116230D01*
X0301181Y0116095D01*
X0302212Y0116230D01*
X0303173Y0116629D01*
X0303998Y0117262D01*
X0304017Y0117286D01*
X0321333D01*
X0321352Y0117262D01*
X0322177Y0116629D01*
X0323138Y0116230D01*
X0324169Y0116095D01*
X0325201Y0116230D01*
X0326161Y0116629D01*
X0326987Y0117262D01*
X0327006Y0117286D01*
X0344833D01*
X0344852Y0117262D01*
X0345677Y0116629D01*
X0346638Y0116230D01*
X0347669Y0116095D01*
X0348701Y0116230D01*
X0349661Y0116629D01*
X0350487Y0117262D01*
X0350506Y0117286D01*
X0369211D01*
X0369230Y0117262D01*
X0370055Y0116629D01*
X0371016Y0116230D01*
X0372047Y0116095D01*
X0373078Y0116230D01*
X0374039Y0116629D01*
X0374864Y0117262D01*
X0374883Y0117286D01*
X0375079D01*
X0375801Y0117382D01*
X0376475Y0117660D01*
X0377053Y0118104D01*
X0402230Y0143281D01*
X0402310Y0143298D01*
X0402846Y0143190D01*
X0402890Y0143124D01*
X0403155Y0142947D01*
X0403467Y0142885D01*
X0407797D01*
X0408110Y0142947D01*
X0408374Y0143124D01*
X0408551Y0143389D01*
X0408613Y0143701D01*
Y0149664D01*
X0428423Y0169474D01*
X0429157Y0169778D01*
X0429983Y0170411D01*
X0430616Y0171236D01*
X0431014Y0172197D01*
X0431149Y0173228D01*
X0431014Y0174260D01*
X0430616Y0175220D01*
X0429984Y0176044D01*
Y0195983D01*
X0430009Y0196002D01*
X0430642Y0196827D01*
X0431040Y0197788D01*
X0431176Y0198819D01*
X0431040Y0199850D01*
X0430642Y0200811D01*
X0430009Y0201636D01*
X0429984Y0201655D01*
Y0221594D01*
X0430616Y0222417D01*
X0431014Y0223378D01*
X0431149Y0224409D01*
X0431014Y0225441D01*
X0430616Y0226401D01*
X0429984Y0227225D01*
Y0247164D01*
X0430009Y0247183D01*
X0430642Y0248008D01*
X0431040Y0248969D01*
X0431176Y0250000D01*
X0431040Y0251031D01*
X0430642Y0251992D01*
X0430009Y0252817D01*
X0429183Y0253450D01*
X0428223Y0253848D01*
X0427191Y0253984D01*
X0426160Y0253848D01*
X0425199Y0253450D01*
X0424374Y0252817D01*
X0423741Y0251992D01*
X0423633Y0251732D01*
X0423092D01*
X0422942Y0252093D01*
X0422277Y0252960D01*
X0421410Y0253625D01*
X0420401Y0254043D01*
X0420317Y0254054D01*
D02*
G37*
G36*
X0335417Y0248264D02*
X0335138D01*
X0334748Y0248186D01*
X0334417Y0247965D01*
X0334196Y0247634D01*
X0334118Y0247244D01*
Y0246276D01*
X0335417D01*
Y0248264D01*
D02*
G37*
G36*
X0337697D02*
X0337417D01*
Y0246276D01*
X0338716D01*
Y0247244D01*
X0338639Y0247634D01*
X0338418Y0247965D01*
X0338087Y0248186D01*
X0337697Y0248264D01*
D02*
G37*
G36*
X0329429Y0248060D02*
X0326870D01*
X0326558Y0247998D01*
X0326293Y0247821D01*
X0326116Y0247556D01*
X0326054Y0247244D01*
Y0243307D01*
X0326116Y0242995D01*
X0326293Y0242730D01*
X0326558Y0242554D01*
X0326870Y0242492D01*
X0329429D01*
X0329741Y0242554D01*
X0330006Y0242730D01*
X0330183Y0242995D01*
X0330245Y0243307D01*
Y0247244D01*
X0330183Y0247556D01*
X0330006Y0247821D01*
X0329741Y0247998D01*
X0329429Y0248060D01*
D02*
G37*
G36*
X0338716Y0244276D02*
X0337417D01*
Y0242288D01*
X0337697D01*
X0338087Y0242365D01*
X0338418Y0242586D01*
X0338639Y0242917D01*
X0338716Y0243307D01*
Y0244276D01*
D02*
G37*
G36*
X0299705Y0248060D02*
X0297146D01*
X0296833Y0247998D01*
X0296569Y0247821D01*
X0296392Y0247556D01*
X0296330Y0247244D01*
Y0243307D01*
X0296392Y0242995D01*
X0296569Y0242730D01*
X0296833Y0242554D01*
X0297146Y0242492D01*
X0299705D01*
X0300017Y0242554D01*
X0300281Y0242730D01*
X0300458Y0242995D01*
X0300520Y0243307D01*
Y0247244D01*
X0300458Y0247556D01*
X0300281Y0247821D01*
X0300017Y0247998D01*
X0299705Y0248060D01*
D02*
G37*
G36*
X0307973D02*
X0305413D01*
X0305101Y0247998D01*
X0304837Y0247821D01*
X0304660Y0247556D01*
X0304598Y0247244D01*
Y0243307D01*
X0304660Y0242995D01*
X0304837Y0242730D01*
X0305101Y0242554D01*
X0305413Y0242492D01*
X0307973D01*
X0308285Y0242554D01*
X0308549Y0242730D01*
X0308726Y0242995D01*
X0308788Y0243307D01*
Y0247244D01*
X0308726Y0247556D01*
X0308549Y0247821D01*
X0308285Y0247998D01*
X0307973Y0248060D01*
D02*
G37*
G36*
X0323858Y0234327D02*
X0323835D01*
Y0233323D01*
X0324875D01*
X0324800Y0233697D01*
X0324579Y0234028D01*
X0324248Y0234249D01*
X0323858Y0234327D01*
D02*
G37*
G36*
X0320213Y0231283D02*
X0319307D01*
Y0230204D01*
X0319583Y0230259D01*
X0319914Y0230480D01*
X0320135Y0230811D01*
X0320213Y0231201D01*
Y0231283D01*
D02*
G37*
G36*
X0376843Y0230024D02*
X0375803D01*
Y0229020D01*
X0375827D01*
X0376217Y0229097D01*
X0376548Y0229318D01*
X0376769Y0229649D01*
X0376843Y0230024D01*
D02*
G37*
G36*
X0329429Y0231918D02*
X0326870D01*
X0326558Y0231856D01*
X0326293Y0231679D01*
X0326116Y0231415D01*
X0326054Y0231102D01*
Y0230420D01*
X0325048D01*
X0324781Y0230920D01*
X0324800Y0230948D01*
X0324875Y0231323D01*
X0322835D01*
X0320795D01*
X0320869Y0230948D01*
X0321090Y0230618D01*
X0321172Y0230563D01*
X0321057Y0230391D01*
X0320995Y0230079D01*
Y0228110D01*
X0321057Y0227798D01*
X0321234Y0227533D01*
X0321499Y0227357D01*
X0321811Y0227294D01*
X0323858D01*
X0324170Y0227357D01*
X0324435Y0227533D01*
X0324592Y0227769D01*
X0326054D01*
Y0227165D01*
X0326116Y0226853D01*
X0326293Y0226589D01*
X0326558Y0226412D01*
X0326870Y0226350D01*
X0329429D01*
X0329741Y0226412D01*
X0330006Y0226589D01*
X0330183Y0226853D01*
X0330245Y0227165D01*
Y0231102D01*
X0330183Y0231415D01*
X0330006Y0231679D01*
X0329741Y0231856D01*
X0329429Y0231918D01*
D02*
G37*
G36*
X0349905Y0236033D02*
X0346736D01*
Y0234283D01*
X0346813Y0233893D01*
X0347034Y0233562D01*
X0347365Y0233341D01*
X0347755Y0233264D01*
X0349905D01*
Y0236033D01*
D02*
G37*
G36*
X0373803Y0230024D02*
X0372763D01*
X0372837Y0229649D01*
X0373059Y0229318D01*
X0373389Y0229097D01*
X0373780Y0229020D01*
X0373803D01*
Y0230024D01*
D02*
G37*
G36*
X0370355Y0231303D02*
X0368205D01*
Y0228533D01*
X0371375D01*
Y0230283D01*
X0371297Y0230674D01*
X0371076Y0231004D01*
X0370745Y0231225D01*
X0370355Y0231303D01*
D02*
G37*
G36*
X0321835Y0234327D02*
X0321811D01*
X0321421Y0234249D01*
X0321090Y0234028D01*
X0320869Y0233697D01*
X0320795Y0233323D01*
X0321835D01*
Y0234327D01*
D02*
G37*
G36*
X0355075Y0236033D02*
X0351905D01*
Y0233264D01*
X0354055D01*
X0354445Y0233341D01*
X0354776Y0233562D01*
X0354997Y0233893D01*
X0355075Y0234283D01*
Y0236033D01*
D02*
G37*
G36*
X0319307Y0234363D02*
Y0233283D01*
X0320213D01*
Y0233366D01*
X0320135Y0233756D01*
X0319914Y0234087D01*
X0319583Y0234308D01*
X0319307Y0234363D01*
D02*
G37*
%LPD*%
G36*
X0349600Y0219327D02*
X0349623Y0219206D01*
X0349620Y0219128D01*
X0349475Y0218710D01*
X0349213Y0218577D01*
X0348817Y0218779D01*
X0348733Y0218835D01*
X0348228Y0218935D01*
X0347724Y0218835D01*
X0347640Y0218779D01*
X0347244Y0218577D01*
X0346849Y0218779D01*
X0346764Y0218835D01*
X0346260Y0218935D01*
X0345756Y0218835D01*
X0345328Y0218550D01*
X0345043Y0218122D01*
X0344942Y0217618D01*
Y0212500D01*
X0345043Y0211996D01*
X0345328Y0211568D01*
X0345756Y0211283D01*
X0346260Y0211182D01*
X0346764Y0211283D01*
X0346849Y0211339D01*
X0347244Y0211541D01*
X0347640Y0211339D01*
X0347724Y0211283D01*
X0348228Y0211182D01*
X0348733Y0211283D01*
X0348817Y0211339D01*
X0349213Y0211541D01*
X0349608Y0211339D01*
X0349693Y0211283D01*
X0350197Y0211182D01*
X0350701Y0211283D01*
X0350940Y0210913D01*
X0350940Y0210913D01*
X0350941Y0210910D01*
X0350941Y0210910D01*
X0351228Y0210480D01*
X0353722Y0207986D01*
X0354152Y0207699D01*
X0354659Y0207598D01*
X0359092D01*
X0359262Y0207098D01*
X0358934Y0206608D01*
X0358804Y0205955D01*
X0354372Y0201522D01*
X0345479D01*
X0345088Y0202022D01*
X0345117Y0202165D01*
X0345016Y0202670D01*
X0344960Y0202754D01*
X0344758Y0203150D01*
X0344960Y0203545D01*
X0345016Y0203630D01*
X0345117Y0204134D01*
X0345016Y0204638D01*
X0344960Y0204722D01*
X0344758Y0205118D01*
X0344960Y0205514D01*
X0345016Y0205598D01*
X0345117Y0206102D01*
X0345016Y0206607D01*
X0344960Y0206691D01*
X0344758Y0207087D01*
X0344960Y0207482D01*
X0345016Y0207567D01*
X0345117Y0208071D01*
X0345016Y0208575D01*
X0344960Y0208660D01*
X0344758Y0209055D01*
X0344960Y0209451D01*
X0345016Y0209535D01*
X0345117Y0210039D01*
X0345016Y0210544D01*
X0344731Y0210971D01*
X0344303Y0211257D01*
X0343799Y0211357D01*
X0338681D01*
X0338177Y0211257D01*
X0337750Y0210971D01*
X0337464Y0210544D01*
X0337364Y0210039D01*
X0337464Y0209535D01*
X0337521Y0209451D01*
X0337723Y0209055D01*
X0337521Y0208660D01*
X0337464Y0208575D01*
X0337364Y0208071D01*
X0337464Y0207567D01*
X0337520Y0207482D01*
X0337723Y0207087D01*
X0337520Y0206691D01*
X0337464Y0206607D01*
X0337364Y0206102D01*
X0337464Y0205598D01*
X0337521Y0205514D01*
X0337723Y0205118D01*
X0337521Y0204722D01*
X0337464Y0204638D01*
X0337364Y0204134D01*
X0337464Y0203630D01*
X0337520Y0203545D01*
X0337723Y0203150D01*
X0337520Y0202754D01*
X0337464Y0202670D01*
X0337364Y0202165D01*
X0337464Y0201661D01*
X0337521Y0201577D01*
X0337723Y0201181D01*
X0337521Y0200785D01*
X0337464Y0200701D01*
X0337364Y0200197D01*
X0337464Y0199693D01*
X0337520Y0199608D01*
X0337723Y0199213D01*
X0337520Y0198817D01*
X0337464Y0198732D01*
X0337364Y0198228D01*
X0337464Y0197724D01*
X0337521Y0197640D01*
X0337723Y0197244D01*
X0337521Y0196848D01*
X0337464Y0196764D01*
X0337364Y0196260D01*
X0337464Y0195756D01*
X0337520Y0195671D01*
X0337723Y0195276D01*
X0337520Y0194880D01*
X0337464Y0194796D01*
X0337364Y0194291D01*
X0337464Y0193787D01*
X0337521Y0193703D01*
X0337723Y0193307D01*
X0337521Y0192912D01*
X0337464Y0192827D01*
X0337364Y0192323D01*
X0337450Y0191889D01*
X0337422Y0191844D01*
X0336919Y0191809D01*
X0336813Y0191859D01*
X0336784Y0191902D01*
X0336453Y0192123D01*
X0336063Y0192201D01*
X0336039D01*
Y0190197D01*
X0335039D01*
Y0189197D01*
X0332999D01*
X0333074Y0188822D01*
X0333093Y0188794D01*
X0332825Y0188294D01*
X0331737D01*
Y0190494D01*
X0331636Y0191001D01*
X0331348Y0191431D01*
X0330579Y0192201D01*
Y0193149D01*
X0330517Y0193462D01*
X0330341Y0193726D01*
X0330105Y0193884D01*
Y0195619D01*
X0330512Y0196008D01*
X0330715Y0196035D01*
X0331096Y0196035D01*
X0331175Y0196050D01*
X0331256Y0196050D01*
X0332016Y0196202D01*
X0332090Y0196232D01*
X0332169Y0196248D01*
X0332886Y0196545D01*
X0332952Y0196590D01*
X0333027Y0196620D01*
X0333671Y0197051D01*
X0333728Y0197108D01*
X0333795Y0197153D01*
X0334344Y0197701D01*
X0334388Y0197768D01*
X0334445Y0197825D01*
X0334876Y0198469D01*
X0334907Y0198544D01*
X0334951Y0198610D01*
X0335248Y0199327D01*
X0335264Y0199406D01*
X0335294Y0199480D01*
X0335446Y0200241D01*
Y0200321D01*
X0335461Y0200400D01*
X0335461Y0200780D01*
X0335488Y0200984D01*
Y0211370D01*
X0343659Y0219541D01*
X0349436D01*
X0349600Y0219327D01*
D02*
G37*
G36*
X0407967Y0171236D02*
X0408600Y0170411D01*
X0409425Y0169778D01*
X0410386Y0169380D01*
X0411417Y0169244D01*
X0412449Y0169380D01*
X0413409Y0169778D01*
X0414235Y0170411D01*
X0414868Y0171236D01*
X0414976Y0171497D01*
X0415517D01*
X0415666Y0171135D01*
X0416332Y0170269D01*
X0417199Y0169603D01*
X0418208Y0169185D01*
X0419291Y0169043D01*
X0419444Y0169063D01*
X0419665Y0168614D01*
X0403435Y0152384D01*
X0403155Y0152328D01*
X0402890Y0152152D01*
X0402713Y0151887D01*
X0402657Y0151606D01*
X0374345Y0123294D01*
X0374039Y0123529D01*
X0373779Y0123637D01*
Y0124178D01*
X0374140Y0124328D01*
X0375007Y0124993D01*
X0375672Y0125860D01*
X0376090Y0126869D01*
X0376101Y0126953D01*
X0372047D01*
X0367993D01*
X0368004Y0126869D01*
X0368422Y0125860D01*
X0369087Y0124993D01*
X0369954Y0124328D01*
X0370316Y0124178D01*
Y0123637D01*
X0370055Y0123529D01*
X0369230Y0122896D01*
X0369211Y0122871D01*
X0350506D01*
X0350487Y0122896D01*
X0349661Y0123529D01*
X0349401Y0123637D01*
Y0124178D01*
X0349762Y0124328D01*
X0350629Y0124993D01*
X0351294Y0125860D01*
X0351713Y0126869D01*
X0351724Y0126953D01*
X0347669D01*
X0343615D01*
X0343626Y0126869D01*
X0344044Y0125860D01*
X0344710Y0124993D01*
X0345577Y0124328D01*
X0345938Y0124178D01*
Y0123637D01*
X0345677Y0123529D01*
X0344852Y0122896D01*
X0344833Y0122871D01*
X0327006D01*
X0326987Y0122896D01*
X0326161Y0123529D01*
X0325901Y0123637D01*
Y0124178D01*
X0326262Y0124328D01*
X0327129Y0124993D01*
X0327794Y0125860D01*
X0328213Y0126869D01*
X0328224Y0126953D01*
X0324169D01*
X0320115D01*
X0320126Y0126869D01*
X0320544Y0125860D01*
X0321210Y0124993D01*
X0322077Y0124328D01*
X0322438Y0124178D01*
Y0123637D01*
X0322177Y0123529D01*
X0321352Y0122896D01*
X0321333Y0122871D01*
X0304017D01*
X0303998Y0122896D01*
X0303173Y0123529D01*
X0302913Y0123637D01*
Y0124178D01*
X0303274Y0124328D01*
X0304141Y0124993D01*
X0304806Y0125860D01*
X0305224Y0126869D01*
X0305235Y0126953D01*
X0301181D01*
X0297127D01*
X0297138Y0126869D01*
X0297556Y0125860D01*
X0298221Y0124993D01*
X0299088Y0124328D01*
X0299449Y0124178D01*
Y0123637D01*
X0299189Y0123529D01*
X0298364Y0122896D01*
X0298345Y0122871D01*
X0281700D01*
X0281681Y0122896D01*
X0280856Y0123529D01*
X0280596Y0123637D01*
Y0124178D01*
X0280957Y0124328D01*
X0281824Y0124993D01*
X0282489Y0125860D01*
X0282907Y0126869D01*
X0282918Y0126953D01*
X0278864D01*
Y0128953D01*
X0282918D01*
X0282907Y0129036D01*
X0282489Y0130046D01*
X0281824Y0130913D01*
X0280957Y0131578D01*
X0280596Y0131727D01*
Y0132269D01*
X0280856Y0132377D01*
X0281681Y0133010D01*
X0282314Y0133835D01*
X0282713Y0134796D01*
X0282848Y0135827D01*
X0282713Y0136858D01*
X0282314Y0137819D01*
X0281681Y0138644D01*
X0280856Y0139277D01*
X0280303Y0139506D01*
Y0140047D01*
X0280856Y0140277D01*
X0281681Y0140910D01*
X0282314Y0141735D01*
X0282591Y0142401D01*
X0297455D01*
X0297731Y0141735D01*
X0298364Y0140910D01*
X0299189Y0140277D01*
X0299742Y0140047D01*
Y0139506D01*
X0299189Y0139277D01*
X0298364Y0138644D01*
X0297731Y0137819D01*
X0297333Y0136858D01*
X0297197Y0135827D01*
X0297333Y0134796D01*
X0297731Y0133835D01*
X0298364Y0133010D01*
X0299189Y0132377D01*
X0299449Y0132269D01*
Y0131727D01*
X0299088Y0131578D01*
X0298221Y0130913D01*
X0297556Y0130046D01*
X0297138Y0129036D01*
X0297127Y0128953D01*
X0301181D01*
X0305235D01*
X0305224Y0129036D01*
X0304806Y0130046D01*
X0304141Y0130913D01*
X0303274Y0131578D01*
X0302913Y0131727D01*
Y0132269D01*
X0303173Y0132377D01*
X0303998Y0133010D01*
X0304631Y0133835D01*
X0305030Y0134796D01*
X0305165Y0135827D01*
X0305030Y0136858D01*
X0304631Y0137819D01*
X0303998Y0138644D01*
X0303173Y0139277D01*
X0302620Y0139506D01*
Y0140047D01*
X0303173Y0140277D01*
X0303998Y0140910D01*
X0304631Y0141735D01*
X0304908Y0142401D01*
X0320443D01*
X0320719Y0141735D01*
X0321352Y0140910D01*
X0322177Y0140277D01*
X0322730Y0140047D01*
Y0139506D01*
X0322177Y0139277D01*
X0321352Y0138644D01*
X0320719Y0137819D01*
X0320321Y0136858D01*
X0320185Y0135827D01*
X0320321Y0134796D01*
X0320719Y0133835D01*
X0321352Y0133010D01*
X0322177Y0132377D01*
X0322438Y0132269D01*
Y0131727D01*
X0322077Y0131578D01*
X0321210Y0130913D01*
X0320544Y0130046D01*
X0320126Y0129036D01*
X0320115Y0128953D01*
X0324169D01*
X0328224D01*
X0328213Y0129036D01*
X0327794Y0130046D01*
X0327129Y0130913D01*
X0326262Y0131578D01*
X0325901Y0131727D01*
Y0132269D01*
X0326161Y0132377D01*
X0326987Y0133010D01*
X0327620Y0133835D01*
X0328018Y0134796D01*
X0328153Y0135827D01*
X0328018Y0136858D01*
X0327620Y0137819D01*
X0326987Y0138644D01*
X0326161Y0139277D01*
X0325608Y0139506D01*
Y0140047D01*
X0326161Y0140277D01*
X0326987Y0140910D01*
X0327620Y0141735D01*
X0327896Y0142401D01*
X0343943D01*
X0344219Y0141735D01*
X0344852Y0140910D01*
X0345677Y0140277D01*
X0346230Y0140047D01*
Y0139506D01*
X0345677Y0139277D01*
X0344852Y0138644D01*
X0344219Y0137819D01*
X0343821Y0136858D01*
X0343685Y0135827D01*
X0343821Y0134796D01*
X0344219Y0133835D01*
X0344852Y0133010D01*
X0345677Y0132377D01*
X0345938Y0132269D01*
Y0131727D01*
X0345577Y0131578D01*
X0344710Y0130913D01*
X0344044Y0130046D01*
X0343626Y0129036D01*
X0343615Y0128953D01*
X0347669D01*
X0351724D01*
X0351713Y0129036D01*
X0351294Y0130046D01*
X0350629Y0130913D01*
X0349762Y0131578D01*
X0349401Y0131727D01*
Y0132269D01*
X0349661Y0132377D01*
X0350487Y0133010D01*
X0351120Y0133835D01*
X0351518Y0134796D01*
X0351654Y0135827D01*
X0351518Y0136858D01*
X0351120Y0137819D01*
X0350487Y0138644D01*
X0349661Y0139277D01*
X0349108Y0139506D01*
Y0140047D01*
X0349661Y0140277D01*
X0350487Y0140910D01*
X0351120Y0141735D01*
X0351396Y0142401D01*
X0368321D01*
X0368597Y0141735D01*
X0369230Y0140910D01*
X0370055Y0140277D01*
X0370608Y0140047D01*
Y0139506D01*
X0370055Y0139277D01*
X0369230Y0138644D01*
X0368597Y0137819D01*
X0368199Y0136858D01*
X0368063Y0135827D01*
X0368199Y0134796D01*
X0368597Y0133835D01*
X0369230Y0133010D01*
X0370055Y0132377D01*
X0370316Y0132269D01*
Y0131727D01*
X0369954Y0131578D01*
X0369087Y0130913D01*
X0368422Y0130046D01*
X0368004Y0129036D01*
X0367993Y0128953D01*
X0372047D01*
X0376101D01*
X0376090Y0129036D01*
X0375672Y0130046D01*
X0375007Y0130913D01*
X0374140Y0131578D01*
X0373779Y0131727D01*
Y0132269D01*
X0374039Y0132377D01*
X0374864Y0133010D01*
X0375498Y0133835D01*
X0375896Y0134796D01*
X0376031Y0135827D01*
X0375896Y0136858D01*
X0375498Y0137819D01*
X0374864Y0138644D01*
X0374039Y0139277D01*
X0373486Y0139506D01*
Y0140047D01*
X0374039Y0140277D01*
X0374864Y0140910D01*
X0375498Y0141735D01*
X0375896Y0142696D01*
X0376031Y0143727D01*
X0376015Y0143851D01*
X0401820Y0169656D01*
X0402486Y0169380D01*
X0403517Y0169244D01*
X0404549Y0169380D01*
X0405509Y0169778D01*
X0406335Y0170411D01*
X0406968Y0171236D01*
X0407197Y0171789D01*
X0407738D01*
X0407967Y0171236D01*
D02*
G37*
G36*
X0330709Y0219685D02*
X0331097Y0219685D01*
X0331858Y0219534D01*
X0332574Y0219237D01*
X0333219Y0218806D01*
X0333767Y0218257D01*
X0334198Y0217613D01*
X0334494Y0216896D01*
X0334646Y0216136D01*
Y0215748D01*
X0334646Y0200788D01*
X0334646Y0200788D01*
X0334646Y0200400D01*
X0334494Y0199639D01*
X0334198Y0198923D01*
X0333767Y0198278D01*
X0333218Y0197729D01*
X0332574Y0197299D01*
X0331857Y0197002D01*
X0331096Y0196850D01*
X0330709Y0196850D01*
X0326378Y0196850D01*
Y0219685D01*
X0330709Y0219685D01*
X0330709Y0219685D01*
D02*
G37*
G36*
X0361218Y0201201D02*
X0361416Y0200692D01*
X0353494Y0192770D01*
X0352841Y0192640D01*
X0352246Y0192243D01*
X0351848Y0191647D01*
X0351708Y0190945D01*
X0351848Y0190243D01*
X0351908Y0190152D01*
X0351672Y0189711D01*
X0348442D01*
X0347935Y0189610D01*
X0347505Y0189323D01*
X0347171Y0188989D01*
X0346530D01*
X0346196Y0189323D01*
X0345766Y0189610D01*
X0345648Y0189634D01*
X0345261Y0189755D01*
X0345290Y0190198D01*
X0345321Y0190354D01*
X0345205Y0190937D01*
X0344875Y0191430D01*
X0344848Y0191567D01*
X0345016Y0191819D01*
X0345117Y0192323D01*
X0345016Y0192827D01*
X0344960Y0192912D01*
X0344758Y0193307D01*
X0344960Y0193703D01*
X0345016Y0193787D01*
X0345117Y0194291D01*
X0345109Y0194331D01*
X0345623Y0194433D01*
X0346219Y0194831D01*
X0346617Y0195426D01*
X0346756Y0196128D01*
X0346702Y0196403D01*
X0347112Y0196903D01*
X0356102D01*
X0356610Y0197004D01*
X0357040Y0197291D01*
X0360961Y0201212D01*
X0361218Y0201201D01*
D02*
G37*
G36*
X0319291Y0196850D02*
X0314961Y0196851D01*
X0314573Y0196851D01*
X0313812Y0197002D01*
X0313096Y0197299D01*
X0312451Y0197729D01*
X0311903Y0198278D01*
X0311472Y0198923D01*
X0311175Y0199639D01*
X0311024Y0200399D01*
X0311024Y0200787D01*
X0311024Y0200787D01*
X0311024Y0215748D01*
X0311024Y0216136D01*
X0311175Y0216897D01*
X0311472Y0217613D01*
X0311903Y0218258D01*
X0312451Y0218806D01*
X0313096Y0219237D01*
X0313812Y0219533D01*
X0314573Y0219685D01*
X0314960D01*
X0314961Y0219685D01*
X0319291Y0219685D01*
Y0196850D01*
D02*
G37*
G36*
X0379740Y0205437D02*
X0379764D01*
X0379777Y0205426D01*
Y0197596D01*
X0379355Y0197174D01*
X0378445D01*
X0378133Y0197112D01*
X0377868Y0196935D01*
X0377691Y0196670D01*
X0377629Y0196358D01*
Y0194666D01*
X0377443Y0194456D01*
X0377266Y0194332D01*
X0376771Y0194487D01*
X0376709Y0194796D01*
X0376653Y0194880D01*
X0376451Y0195276D01*
X0376653Y0195671D01*
X0376709Y0195756D01*
X0376810Y0196260D01*
X0376709Y0196764D01*
X0376653Y0196848D01*
X0376451Y0197244D01*
X0376653Y0197640D01*
X0376709Y0197724D01*
X0376810Y0198228D01*
X0376709Y0198732D01*
X0376653Y0198817D01*
X0376451Y0199213D01*
X0376653Y0199608D01*
X0376709Y0199693D01*
X0376810Y0200197D01*
X0376709Y0200701D01*
X0376653Y0200785D01*
X0376451Y0201181D01*
X0376653Y0201577D01*
X0376709Y0201661D01*
X0376810Y0202165D01*
X0376709Y0202670D01*
X0376653Y0202754D01*
X0376451Y0203150D01*
X0376653Y0203545D01*
X0376709Y0203630D01*
X0376810Y0204134D01*
X0376709Y0204638D01*
X0376653Y0204722D01*
X0376451Y0205118D01*
X0376623Y0205455D01*
X0376810Y0205596D01*
X0377217Y0205588D01*
X0377326Y0205515D01*
X0377717Y0205437D01*
X0377740D01*
Y0207441D01*
X0379740D01*
Y0205437D01*
D02*
G37*
G36*
X0369335Y0211469D02*
X0369343Y0211461D01*
X0369442Y0210971D01*
X0369157Y0210544D01*
X0369057Y0210039D01*
X0369157Y0209535D01*
X0369325Y0209283D01*
X0369298Y0209146D01*
X0369248Y0209071D01*
X0369497D01*
X0369870Y0208822D01*
X0370374Y0208722D01*
X0372893D01*
X0372933Y0208714D01*
Y0207420D01*
X0370374D01*
X0369870Y0207320D01*
X0369497Y0207071D01*
X0369248D01*
X0369298Y0206995D01*
X0369325Y0206859D01*
X0369157Y0206607D01*
X0369057Y0206102D01*
X0368798Y0205788D01*
X0367061D01*
X0366553Y0205687D01*
X0366123Y0205399D01*
X0363243Y0202519D01*
X0362783Y0202766D01*
X0362859Y0203150D01*
X0362719Y0203852D01*
X0362321Y0204447D01*
X0361975Y0204679D01*
X0362326Y0205203D01*
X0362465Y0205906D01*
X0362326Y0206608D01*
X0361998Y0207098D01*
X0362168Y0207598D01*
X0364620D01*
X0365127Y0207699D01*
X0365557Y0207986D01*
X0368474Y0210903D01*
X0368761Y0211333D01*
X0368765Y0211350D01*
X0369191Y0211498D01*
X0369335Y0211469D01*
D02*
G37*
%LPC*%
G36*
X0334039Y0192201D02*
X0334016D01*
X0333626Y0192123D01*
X0333295Y0191902D01*
X0333074Y0191571D01*
X0332999Y0191197D01*
X0334039D01*
Y0192201D01*
D02*
G37*
%LPD*%
D10*
X0366732Y0173622D02*
D03*
X0363189D02*
D03*
X0362795Y0167717D02*
D03*
X0359252D02*
D03*
X0358858Y0173622D02*
D03*
X0355315D02*
D03*
X0314764Y0232283D02*
D03*
X0318307D02*
D03*
D11*
X0379528Y0195472D02*
D03*
Y0191929D02*
D03*
X0379527Y0185039D02*
D03*
Y0188583D02*
D03*
X0310630Y0180512D02*
D03*
Y0176969D02*
D03*
D12*
X0335039Y0186969D02*
D03*
Y0190197D02*
D03*
X0322835Y0232323D02*
D03*
Y0229095D02*
D03*
X0378740Y0210669D02*
D03*
Y0207441D02*
D03*
X0374803Y0234252D02*
D03*
Y0231024D02*
D03*
X0343307Y0230669D02*
D03*
Y0233898D02*
D03*
D13*
X0328150Y0229134D02*
D03*
X0336417D02*
D03*
X0328150Y0245276D02*
D03*
X0336417D02*
D03*
X0306693D02*
D03*
X0298425D02*
D03*
X0306693Y0229134D02*
D03*
X0298425D02*
D03*
D14*
X0315158Y0208268D02*
D03*
X0330512D02*
D03*
D15*
X0310433Y0192126D02*
D03*
X0318701D02*
D03*
D16*
X0316555Y0184646D02*
D03*
Y0182677D02*
D03*
Y0180709D02*
D03*
Y0178740D02*
D03*
Y0176772D02*
D03*
X0327539Y0184646D02*
D03*
Y0182677D02*
D03*
Y0180709D02*
D03*
Y0178740D02*
D03*
Y0176772D02*
D03*
D17*
X0322047Y0180709D02*
D03*
D18*
X0367205Y0227533D02*
D03*
X0350905D02*
D03*
Y0237033D02*
D03*
X0367205D02*
D03*
D19*
X0328779Y0192126D02*
D03*
X0325551D02*
D03*
X0374803Y0183465D02*
D03*
X0371575D02*
D03*
X0369252Y0220866D02*
D03*
X0372480D02*
D03*
X0351535D02*
D03*
X0354764D02*
D03*
D20*
X0372933Y0210039D02*
D03*
Y0208071D02*
D03*
Y0206102D02*
D03*
Y0204134D02*
D03*
Y0202165D02*
D03*
Y0200197D02*
D03*
Y0198228D02*
D03*
Y0196260D02*
D03*
Y0194291D02*
D03*
Y0192323D02*
D03*
Y0190354D02*
D03*
Y0188386D02*
D03*
X0341240D02*
D03*
Y0190354D02*
D03*
Y0192323D02*
D03*
Y0194291D02*
D03*
Y0196260D02*
D03*
Y0198228D02*
D03*
Y0200197D02*
D03*
Y0202165D02*
D03*
Y0204134D02*
D03*
Y0206102D02*
D03*
Y0208071D02*
D03*
Y0210039D02*
D03*
D21*
X0367913Y0183366D02*
D03*
X0365945D02*
D03*
X0363976D02*
D03*
X0362008D02*
D03*
X0360039D02*
D03*
X0358071D02*
D03*
X0356102D02*
D03*
X0354134D02*
D03*
X0352165D02*
D03*
X0350197D02*
D03*
X0348228D02*
D03*
X0346260D02*
D03*
Y0215059D02*
D03*
X0348228D02*
D03*
X0350197D02*
D03*
X0352165D02*
D03*
X0354134D02*
D03*
X0356102D02*
D03*
X0358071D02*
D03*
X0360039D02*
D03*
X0362008D02*
D03*
X0363976D02*
D03*
X0365945D02*
D03*
X0367913D02*
D03*
D22*
X0270866Y0193860D02*
D03*
Y0203860D02*
D03*
D23*
Y0183060D02*
D03*
Y0214608D02*
D03*
D24*
X0281366Y0196260D02*
D03*
Y0198860D02*
D03*
Y0201419D02*
D03*
Y0193660D02*
D03*
Y0203978D02*
D03*
D25*
X0415868Y0147638D02*
D03*
X0405632D02*
D03*
D26*
X0367205Y0227533D02*
X0368572Y0228900D01*
X0346443Y0237033D02*
X0350905D01*
X0373309Y0207695D02*
X0378740D01*
X0366313Y0180156D02*
Y0183366D01*
X0369513Y0180156D02*
Y0182900D01*
X0318307Y0232283D02*
X0323425D01*
X0322047Y0181005D02*
X0325312Y0184269D01*
X0373659Y0183366D02*
Y0185827D01*
X0377952Y0190731D02*
X0379527D01*
X0395643Y0198819D02*
Y0250000D01*
X0277104Y0123703D02*
X0278864D01*
X0417716Y0148031D02*
X0418110Y0147638D01*
X0368572Y0228900D02*
X0370695Y0231024D01*
X0289715Y0185839D02*
X0307837Y0167717D01*
X0289715Y0185839D02*
Y0192967D01*
X0307837Y0167717D02*
X0359252D01*
X0284622Y0198060D02*
X0289715Y0192967D01*
X0282166Y0198060D02*
X0284622D01*
X0281366Y0198860D02*
X0282166Y0198060D01*
X0291315Y0186839D02*
Y0193967D01*
X0284622Y0200660D02*
X0291315Y0193967D01*
X0282125Y0200660D02*
X0284622D01*
X0281366Y0201419D02*
X0282125Y0200660D01*
X0293307Y0174409D02*
X0295636D01*
X0270472Y0151575D02*
X0293307Y0174409D01*
X0270472Y0130334D02*
Y0151575D01*
Y0130334D02*
X0277104Y0123703D01*
X0278864Y0120079D02*
Y0123703D01*
X0291315Y0186839D02*
X0308837Y0169317D01*
X0345258Y0188386D02*
X0345981Y0187664D01*
X0341240Y0188386D02*
X0345258D01*
X0345981Y0187664D02*
X0347720D01*
X0353543Y0190945D02*
X0367061Y0204462D01*
X0372605D01*
X0372933Y0204134D01*
X0356102Y0198228D02*
X0361024Y0203150D01*
X0354921Y0200197D02*
X0360630Y0205906D01*
X0357087Y0190945D02*
X0366338Y0200197D01*
X0367520Y0198228D02*
X0372933D01*
X0360236Y0190945D02*
X0367520Y0198228D01*
X0366338Y0200197D02*
X0372933D01*
X0368112Y0188979D02*
Y0192313D01*
X0366604Y0187517D02*
X0367913Y0186208D01*
X0366604Y0187517D02*
X0366604D01*
X0366009Y0188112D02*
X0366604Y0187517D01*
X0364567Y0190945D02*
Y0191030D01*
X0348442Y0188386D02*
X0365736D01*
X0341240Y0198228D02*
X0356102D01*
X0341240Y0200197D02*
X0354921D01*
X0330512Y0208268D02*
X0343110Y0220866D01*
X0354659Y0208924D02*
X0364620D01*
X0352165Y0211417D02*
X0354659Y0208924D01*
X0352165Y0211417D02*
Y0215059D01*
X0355906Y0211024D02*
Y0214568D01*
X0364567Y0191030D02*
X0369428Y0195891D01*
X0368112Y0192313D02*
X0370091Y0194291D01*
X0369428Y0195891D02*
X0372565D01*
X0366009Y0188112D02*
Y0188112D01*
X0365736Y0188386D02*
X0366009Y0188112D01*
X0372565Y0195891D02*
X0372933Y0196260D01*
X0367537Y0211841D02*
Y0215059D01*
X0370091Y0194291D02*
X0372933D01*
X0376574Y0192323D02*
X0376771Y0192519D01*
X0379527Y0191929D02*
X0379527Y0191929D01*
X0379527Y0190731D02*
Y0191929D01*
X0377641Y0190419D02*
X0377952Y0190731D01*
X0375901Y0190419D02*
X0377641D01*
X0375598Y0190723D02*
X0375901Y0190419D01*
X0373301Y0190723D02*
X0375598D01*
X0372933Y0192323D02*
X0376574D01*
X0372933Y0190354D02*
X0373301Y0190723D01*
X0373130Y0188583D02*
X0379528D01*
X0316535Y0184666D02*
Y0185039D01*
X0313997Y0182677D02*
X0316555D01*
X0313997D02*
Y0183384D01*
X0347720Y0187664D02*
X0348442Y0188386D01*
X0344423Y0196128D02*
X0344921D01*
X0344291Y0196260D02*
X0344423Y0196128D01*
X0344291Y0196260D02*
X0344291Y0196260D01*
X0341240Y0196260D02*
X0344291D01*
X0367913Y0183563D02*
Y0186208D01*
X0370178Y0185827D02*
X0373659D01*
X0367913Y0183563D02*
X0370178Y0185827D01*
X0385407Y0188583D02*
X0395617Y0198793D01*
Y0173228D02*
Y0198793D01*
X0403543Y0173254D02*
Y0198819D01*
X0381102Y0197047D02*
Y0208642D01*
X0379527Y0191929D02*
X0379528D01*
X0379527Y0188583D02*
X0385407D01*
X0308837Y0169317D02*
X0350394D01*
X0362008Y0183366D02*
X0362384Y0182990D01*
Y0180148D02*
Y0182990D01*
Y0180148D02*
X0363189Y0179343D01*
Y0173622D02*
Y0179343D01*
X0374705Y0181595D02*
Y0183366D01*
X0366732Y0173622D02*
X0374705Y0181595D01*
X0362795Y0173228D02*
X0363189Y0173622D01*
X0362795Y0167717D02*
Y0173228D01*
X0359663Y0182990D02*
X0360039Y0183366D01*
X0359663Y0180148D02*
Y0182990D01*
X0358858Y0179343D02*
X0359663Y0180148D01*
X0358858Y0173622D02*
Y0179343D01*
X0310630Y0180512D02*
X0316358D01*
X0318782Y0177148D02*
X0322047Y0180413D01*
X0316932Y0177148D02*
X0318782D01*
X0316555Y0176772D02*
X0316932Y0177148D01*
X0327540Y0178740D02*
X0330314D01*
X0330411Y0181729D02*
Y0187008D01*
X0329767Y0181085D02*
X0330411Y0181729D01*
X0327916Y0181085D02*
X0329767D01*
X0354699Y0173622D02*
X0355315D01*
X0350394Y0169317D02*
X0354699Y0173622D01*
X0360039Y0215059D02*
Y0229868D01*
X0367205Y0237033D01*
X0358071Y0215059D02*
Y0221123D01*
X0351660Y0227533D02*
X0358071Y0221123D01*
X0350905Y0227533D02*
X0351660D01*
X0355726Y0214304D02*
Y0214388D01*
X0355906Y0214568D01*
X0364620Y0208924D02*
X0367537Y0211841D01*
X0354510Y0215436D02*
Y0220613D01*
X0354134Y0215059D02*
X0354510Y0215436D01*
Y0220613D02*
X0354764Y0220866D01*
X0351789Y0215436D02*
Y0220613D01*
X0351535Y0220866D02*
X0351789Y0220613D01*
X0328110Y0229095D02*
X0328150Y0229134D01*
X0372736Y0202362D02*
X0372933Y0202165D01*
X0368898Y0202362D02*
X0372736D01*
X0320391Y0208268D02*
X0330512D01*
X0320391D02*
Y0220141D01*
X0319747Y0220785D02*
X0320391Y0220141D01*
X0306774Y0220785D02*
X0319747D01*
X0298425Y0229134D02*
X0306774Y0220785D01*
X0343110Y0220866D02*
X0351535D01*
X0330411Y0187008D02*
Y0190494D01*
Y0187008D02*
X0330450Y0186969D01*
X0335039D01*
X0278864Y0143727D02*
X0301181D01*
X0277252D02*
X0278864D01*
Y0151627D02*
X0301181D01*
X0277252D02*
X0278864D01*
X0379527Y0195472D02*
X0381102Y0197047D01*
X0380220Y0209525D02*
X0381102Y0208642D01*
X0379884Y0209525D02*
X0380220D01*
X0378740Y0210669D02*
X0379884Y0209525D01*
X0341083Y0190197D02*
X0341240Y0190354D01*
X0335039Y0190197D02*
X0341083D01*
X0367537Y0215059D02*
X0367913D01*
Y0183366D02*
Y0183563D01*
X0339823Y0186969D02*
X0341240Y0188386D01*
X0335039Y0186969D02*
X0339823D01*
X0367913Y0215059D02*
X0372933Y0210039D01*
Y0188386D02*
X0373130Y0188583D01*
X0365945Y0183366D02*
X0366313D01*
Y0180156D02*
X0367254Y0179215D01*
X0368573D01*
X0369513Y0180156D01*
Y0182900D02*
X0369980Y0183366D01*
X0371476D01*
X0371575Y0183465D01*
X0373659Y0183366D02*
X0374705D01*
X0374803Y0183465D01*
X0377953D01*
X0379528Y0185039D01*
X0372933Y0208071D02*
X0373309Y0207695D01*
X0378740Y0207441D02*
Y0207695D01*
X0372933Y0210039D02*
X0373563Y0210669D01*
X0378740D01*
X0367913Y0215059D02*
X0369252Y0216398D01*
Y0220866D01*
X0351789Y0215436D02*
X0352165Y0215059D01*
X0322835Y0229095D02*
X0328110D01*
X0306693Y0229134D02*
X0311614D01*
X0314764Y0232283D01*
X0323425D02*
X0336417Y0245276D01*
X0343307Y0230669D02*
X0346443Y0227533D01*
X0350905D01*
X0343307Y0233898D02*
X0346443Y0237033D01*
X0370695Y0231024D02*
X0374803D01*
X0369987Y0234252D02*
X0374803D01*
X0367205Y0237033D02*
X0369987Y0234252D01*
X0328779Y0206535D02*
X0330512Y0208268D01*
X0328779Y0192126D02*
Y0206535D01*
Y0192126D02*
X0330411Y0190494D01*
X0327539Y0180709D02*
X0327916Y0181085D01*
X0316358Y0180512D02*
X0316555Y0180709D01*
X0310630Y0176969D02*
X0310827Y0176772D01*
X0316555D01*
X0322047Y0180413D02*
Y0180709D01*
Y0181005D01*
X0325312Y0184269D02*
X0327163D01*
X0327539Y0184646D01*
Y0178740D02*
X0327540Y0178740D01*
X0316555Y0182677D02*
X0316555Y0182677D01*
X0310433Y0186948D02*
X0313997Y0183384D01*
X0315158Y0208268D02*
X0315748Y0207677D01*
Y0198819D02*
Y0207677D01*
X0316535Y0184666D02*
X0316555Y0184646D01*
X0316555Y0184646D01*
X0310433Y0186948D02*
Y0192126D01*
X0372047Y0143727D02*
X0374016D01*
X0403517Y0173228D01*
X0374016Y0151627D02*
X0395617Y0173228D01*
X0372047Y0151627D02*
X0374016D01*
X0347669Y0143727D02*
X0372047D01*
X0324169D02*
X0347669D01*
X0301181D02*
X0324169D01*
X0347669Y0151627D02*
X0372047D01*
X0324169D02*
X0347669D01*
X0301181D02*
X0324169D01*
X0419291Y0173228D02*
X0419317Y0173254D01*
X0395617Y0198793D02*
X0395643Y0198819D01*
X0403517Y0173228D02*
X0403543Y0173254D01*
X0403517Y0198845D02*
X0403543Y0198819D01*
X0403517Y0198845D02*
Y0224409D01*
X0403543Y0224435D01*
Y0250000D01*
D27*
X0419317Y0198819D02*
Y0250000D01*
X0427191Y0198819D02*
Y0250000D01*
Y0172191D02*
Y0198819D01*
X0375079Y0120079D02*
X0427191Y0172191D01*
X0372047Y0120079D02*
X0375079D01*
X0278864Y0127953D02*
X0301181D01*
X0278864Y0120079D02*
X0301181D01*
X0347669Y0127953D02*
X0372047D01*
X0324169D02*
X0347669D01*
X0301181D02*
X0324169D01*
X0419317Y0173254D02*
Y0198819D01*
X0347669Y0120079D02*
X0372047D01*
X0324169D02*
X0347669D01*
X0301181D02*
X0324169D01*
D28*
X0418110Y0147638D02*
X0429134D01*
D29*
Y0122047D02*
D03*
X0399300Y0118500D02*
D03*
X0275590Y0248031D02*
D03*
X0429134Y0147638D02*
D03*
D30*
X0395643Y0250000D02*
D03*
X0403543D02*
D03*
X0411443D02*
D03*
X0419317D02*
D03*
X0427191D02*
D03*
X0372047Y0151627D02*
D03*
Y0143727D02*
D03*
Y0135827D02*
D03*
Y0127953D02*
D03*
Y0120079D02*
D03*
X0395617Y0224409D02*
D03*
X0403517D02*
D03*
X0411417D02*
D03*
X0419291D02*
D03*
X0427165D02*
D03*
X0395643Y0198819D02*
D03*
X0403543D02*
D03*
X0411443D02*
D03*
X0419317D02*
D03*
X0427191D02*
D03*
X0395617Y0173228D02*
D03*
X0403517D02*
D03*
X0411417D02*
D03*
X0419291D02*
D03*
X0427165D02*
D03*
X0347669Y0151627D02*
D03*
Y0143727D02*
D03*
Y0135827D02*
D03*
Y0127953D02*
D03*
Y0120079D02*
D03*
X0324169Y0151627D02*
D03*
Y0143727D02*
D03*
Y0135827D02*
D03*
Y0127953D02*
D03*
Y0120079D02*
D03*
X0301181Y0151627D02*
D03*
Y0143727D02*
D03*
Y0135827D02*
D03*
Y0127953D02*
D03*
Y0120079D02*
D03*
X0278864Y0151627D02*
D03*
Y0143727D02*
D03*
Y0135827D02*
D03*
Y0127953D02*
D03*
Y0120079D02*
D03*
D31*
X0268106Y0170206D02*
D03*
X0270861Y0172962D02*
D03*
X0273617Y0175718D02*
D03*
X0276373Y0167450D02*
D03*
X0279129D02*
D03*
X0281885D02*
D03*
X0265350Y0172962D02*
D03*
X0268106Y0167450D02*
D03*
Y0175718D02*
D03*
Y0172962D02*
D03*
X0265350Y0167450D02*
D03*
Y0175718D02*
D03*
Y0170206D02*
D03*
X0273617Y0172962D02*
D03*
Y0170206D02*
D03*
X0270861Y0167450D02*
D03*
Y0170206D02*
D03*
Y0175718D02*
D03*
X0276373Y0170206D02*
D03*
Y0172962D02*
D03*
X0273617Y0167450D02*
D03*
X0276373Y0175718D02*
D03*
X0281885D02*
D03*
Y0172962D02*
D03*
Y0170206D02*
D03*
X0279129Y0175718D02*
D03*
Y0172962D02*
D03*
Y0170206D02*
D03*
X0269721Y0228656D02*
D03*
X0272476Y0231412D02*
D03*
X0275232Y0234168D02*
D03*
X0277988Y0225900D02*
D03*
X0280744D02*
D03*
X0283500D02*
D03*
X0266965Y0231412D02*
D03*
X0269721Y0225900D02*
D03*
Y0234168D02*
D03*
Y0231412D02*
D03*
X0266965Y0225900D02*
D03*
Y0234168D02*
D03*
Y0228656D02*
D03*
X0275232Y0231412D02*
D03*
Y0228656D02*
D03*
X0272476Y0225900D02*
D03*
Y0228656D02*
D03*
Y0234168D02*
D03*
X0277988Y0228656D02*
D03*
Y0231412D02*
D03*
X0275232Y0225900D02*
D03*
X0277988Y0234168D02*
D03*
X0283500D02*
D03*
Y0231412D02*
D03*
Y0228656D02*
D03*
X0280744Y0234168D02*
D03*
Y0231412D02*
D03*
Y0228656D02*
D03*
X0368205Y0226533D02*
D03*
X0365700Y0226500D02*
D03*
X0365800Y0228800D02*
D03*
X0368572Y0228900D02*
D03*
X0352700Y0235900D02*
D03*
Y0238400D02*
D03*
X0349300Y0235500D02*
D03*
Y0238400D02*
D03*
X0360630Y0237795D02*
D03*
X0357874D02*
D03*
X0354764Y0220866D02*
D03*
X0356693Y0230315D02*
D03*
Y0227953D02*
D03*
X0357874Y0235433D02*
D03*
X0360630D02*
D03*
X0378346Y0201575D02*
D03*
Y0199213D02*
D03*
X0378740Y0207441D02*
D03*
X0370200Y0181499D02*
D03*
X0371476Y0183366D02*
D03*
X0349213Y0190945D02*
D03*
Y0193701D02*
D03*
X0352756D02*
D03*
X0322047Y0175984D02*
D03*
X0322835Y0199606D02*
D03*
Y0202362D02*
D03*
Y0205118D02*
D03*
X0322441Y0192126D02*
D03*
X0325551Y0192126D02*
D03*
X0318701D02*
D03*
X0323228Y0181496D02*
D03*
X0320866D02*
D03*
X0323228Y0183858D02*
D03*
X0320866D02*
D03*
X0366929Y0249606D02*
D03*
Y0252362D02*
D03*
Y0255118D02*
D03*
X0369685Y0249606D02*
D03*
Y0252362D02*
D03*
Y0255118D02*
D03*
X0364173D02*
D03*
X0361417Y0246850D02*
D03*
X0364173Y0252362D02*
D03*
Y0249606D02*
D03*
X0358661Y0255118D02*
D03*
Y0249606D02*
D03*
Y0246850D02*
D03*
X0361417Y0249606D02*
D03*
Y0252362D02*
D03*
X0353150Y0249606D02*
D03*
Y0255118D02*
D03*
Y0246850D02*
D03*
X0355906Y0252362D02*
D03*
Y0255118D02*
D03*
Y0246850D02*
D03*
X0353150Y0252362D02*
D03*
X0369685Y0246850D02*
D03*
X0366929D02*
D03*
X0364173D02*
D03*
X0361417Y0255118D02*
D03*
X0358661Y0252362D02*
D03*
X0355906Y0249606D02*
D03*
X0331890Y0194488D02*
D03*
X0334252D02*
D03*
X0336614Y0195276D02*
D03*
Y0199213D02*
D03*
Y0203150D02*
D03*
Y0207087D02*
D03*
X0341339Y0212598D02*
D03*
X0338189D02*
D03*
X0339764Y0214173D02*
D03*
X0352362Y0206299D02*
D03*
X0295636Y0174409D02*
D03*
X0310236Y0192126D02*
D03*
X0353543Y0190945D02*
D03*
X0361024Y0203150D02*
D03*
X0360630Y0205906D02*
D03*
X0368112Y0188979D02*
D03*
X0364567Y0190945D02*
D03*
X0357087D02*
D03*
X0355906Y0211024D02*
D03*
X0360236Y0190945D02*
D03*
X0376771Y0192519D02*
D03*
X0379527Y0191929D02*
D03*
X0316535Y0185039D02*
D03*
X0313997Y0182677D02*
D03*
X0344921Y0196128D02*
D03*
X0330314Y0178740D02*
D03*
X0328110Y0229095D02*
D03*
X0368898Y0202362D02*
D03*
X0314764Y0232283D02*
D03*
X0315748Y0198819D02*
D03*
M02*
