G04 Layer_Color=8388736*
%FSAX25Y25*%
%MOIN*%
G70*
G01*
G75*
%ADD37R,0.02572X0.02965*%
%ADD38R,0.02965X0.02572*%
%ADD39R,0.02847X0.02768*%
%ADD40R,0.03359X0.04737*%
G04:AMPARAMS|DCode=41|XSize=90.68mil|YSize=236.35mil|CornerRadius=45.34mil|HoleSize=0mil|Usage=FLASHONLY|Rotation=0.000|XOffset=0mil|YOffset=0mil|HoleType=Round|Shape=RoundedRectangle|*
%AMROUNDEDRECTD41*
21,1,0.09068,0.14567,0,0,0.0*
21,1,0.00000,0.23635,0,0,0.0*
1,1,0.09068,0.00000,-0.07283*
1,1,0.09068,0.00000,-0.07283*
1,1,0.09068,0.00000,0.07283*
1,1,0.09068,0.00000,0.07283*
%
%ADD41ROUNDEDRECTD41*%
%ADD42R,0.04343X0.05524*%
%ADD43R,0.04343X0.01784*%
%ADD44R,0.06666X0.10249*%
%ADD45R,0.07100X0.06300*%
%ADD46R,0.02768X0.02847*%
%ADD47R,0.08300X0.08300*%
%ADD48R,0.08300X0.07900*%
%ADD49R,0.06400X0.02200*%
%ADD50R,0.05131X0.08674*%
%ADD51O,0.06902X0.01784*%
%ADD52O,0.01784X0.06902*%
%ADD53C,0.16548*%
%ADD54C,0.07100*%
%ADD55C,0.01200*%
%ADD56C,0.01800*%
G36*
X0434252Y0158275D02*
X0434304Y0158271D01*
X0434356Y0158261D01*
X0434405Y0158244D01*
X0434452Y0158221D01*
X0434496Y0158192D01*
X0434535Y0158158D01*
X0434570Y0158118D01*
X0434599Y0158074D01*
X0434622Y0158027D01*
X0434639Y0157978D01*
X0434649Y0157926D01*
X0434653Y0157874D01*
Y0138189D01*
X0434649Y0138137D01*
X0434639Y0138085D01*
X0434622Y0138036D01*
X0434599Y0137988D01*
X0434570Y0137945D01*
X0434535Y0137906D01*
X0434496Y0137871D01*
X0434452Y0137842D01*
X0434405Y0137819D01*
X0434356Y0137802D01*
X0434304Y0137792D01*
X0434252Y0137788D01*
X0422441Y0137788D01*
X0422389Y0137792D01*
X0422337Y0137802D01*
X0422288Y0137819D01*
X0422240Y0137842D01*
X0422197Y0137871D01*
X0422157Y0137906D01*
X0422123Y0137945D01*
X0422094Y0137989D01*
X0422071Y0138036D01*
X0422054Y0138085D01*
X0422044Y0138137D01*
X0422040Y0138189D01*
Y0157874D01*
X0422044Y0157926D01*
X0422054Y0157978D01*
X0422071Y0158027D01*
X0422094Y0158074D01*
X0422123Y0158118D01*
X0422157Y0158158D01*
X0422197Y0158192D01*
X0422240Y0158221D01*
X0422288Y0158244D01*
X0422337Y0158261D01*
X0422389Y0158272D01*
X0422441Y0158275D01*
X0434252Y0158275D01*
D02*
G37*
G36*
X0434252Y0135440D02*
X0434304Y0135437D01*
X0434356Y0135427D01*
X0434405Y0135410D01*
X0434452Y0135387D01*
X0434496Y0135357D01*
X0434535Y0135323D01*
X0434570Y0135283D01*
X0434599Y0135240D01*
X0434622Y0135193D01*
X0434639Y0135143D01*
X0434649Y0135092D01*
X0434653Y0135039D01*
Y0115354D01*
X0434649Y0115302D01*
X0434639Y0115251D01*
X0434622Y0115201D01*
X0434599Y0115154D01*
X0434570Y0115110D01*
X0434535Y0115071D01*
X0434496Y0115036D01*
X0434452Y0115007D01*
X0434405Y0114984D01*
X0434356Y0114967D01*
X0434304Y0114957D01*
X0434252Y0114953D01*
X0422441Y0114953D01*
X0422389Y0114957D01*
X0422337Y0114967D01*
X0422288Y0114984D01*
X0422240Y0115007D01*
X0422197Y0115036D01*
X0422157Y0115071D01*
X0422123Y0115110D01*
X0422094Y0115154D01*
X0422071Y0115201D01*
X0422054Y0115251D01*
X0422044Y0115302D01*
X0422040Y0115354D01*
Y0135039D01*
X0422044Y0135092D01*
X0422054Y0135143D01*
X0422071Y0135193D01*
X0422094Y0135240D01*
X0422123Y0135283D01*
X0422157Y0135323D01*
X0422197Y0135357D01*
X0422240Y0135387D01*
X0422288Y0135410D01*
X0422337Y0135427D01*
X0422389Y0135437D01*
X0422441Y0135440D01*
X0434252Y0135440D01*
D02*
G37*
G36*
X0319344Y0220082D02*
X0319395Y0220072D01*
X0319445Y0220055D01*
X0319492Y0220032D01*
X0319535Y0220003D01*
X0319575Y0219968D01*
X0319609Y0219929D01*
X0319638Y0219885D01*
X0319662Y0219838D01*
X0319678Y0219789D01*
X0319689Y0219737D01*
X0319692Y0219685D01*
Y0196850D01*
Y0196850D01*
Y0196850D01*
X0319689Y0196798D01*
X0319678Y0196747D01*
X0319667Y0196713D01*
X0319662Y0196697D01*
X0319638Y0196650D01*
D01*
X0319638Y0196650D01*
X0319624Y0196628D01*
X0319609Y0196606D01*
X0319575Y0196567D01*
X0319575D01*
Y0196567D01*
X0319535Y0196532D01*
X0319514Y0196518D01*
X0319492Y0196503D01*
X0319492Y0196503D01*
D01*
X0319445Y0196480D01*
X0319429Y0196475D01*
X0319395Y0196463D01*
X0319344Y0196453D01*
X0319291Y0196449D01*
X0319291D01*
X0319291D01*
X0314961Y0196450D01*
X0314573Y0196450D01*
X0314560Y0196450D01*
X0314547D01*
X0314534Y0196452D01*
X0314521Y0196453D01*
X0314508Y0196456D01*
X0314495Y0196457D01*
X0313734Y0196609D01*
X0313721Y0196612D01*
X0313709Y0196615D01*
X0313696Y0196619D01*
X0313684Y0196622D01*
X0313671Y0196627D01*
X0313659Y0196631D01*
X0312943Y0196928D01*
X0312931Y0196934D01*
X0312919Y0196939D01*
X0312907Y0196946D01*
X0312895Y0196951D01*
X0312885Y0196959D01*
X0312873Y0196965D01*
X0312228Y0197396D01*
X0312218Y0197404D01*
X0312207Y0197411D01*
X0312197Y0197420D01*
X0312187Y0197428D01*
X0312178Y0197437D01*
X0312168Y0197446D01*
X0311619Y0197994D01*
X0311611Y0198004D01*
X0311601Y0198013D01*
X0311593Y0198024D01*
X0311585Y0198034D01*
X0311577Y0198045D01*
X0311569Y0198055D01*
X0311139Y0198700D01*
X0311132Y0198711D01*
X0311125Y0198722D01*
X0311119Y0198734D01*
X0311112Y0198745D01*
X0311107Y0198757D01*
X0311102Y0198769D01*
X0310805Y0199486D01*
X0310801Y0199498D01*
X0310795Y0199510D01*
X0310792Y0199523D01*
X0310788Y0199535D01*
X0310785Y0199548D01*
X0310782Y0199561D01*
X0310630Y0200321D01*
X0310629Y0200334D01*
X0310626Y0200347D01*
X0310625Y0200360D01*
X0310624Y0200373D01*
Y0200386D01*
X0310623Y0200399D01*
X0310623Y0200787D01*
X0310623Y0200787D01*
X0310623Y0215748D01*
D01*
Y0215748D01*
X0310623Y0216136D01*
X0310624Y0216149D01*
Y0216162D01*
X0310626Y0216175D01*
X0310626Y0216188D01*
X0310629Y0216201D01*
X0310631Y0216214D01*
X0310782Y0216975D01*
X0310785Y0216987D01*
X0310788Y0217000D01*
X0310792Y0217013D01*
X0310795Y0217025D01*
X0310801Y0217038D01*
X0310805Y0217050D01*
X0311102Y0217766D01*
X0311107Y0217778D01*
X0311112Y0217790D01*
X0311119Y0217802D01*
X0311125Y0217813D01*
X0311132Y0217824D01*
X0311139Y0217836D01*
X0311569Y0218480D01*
X0311577Y0218491D01*
X0311585Y0218502D01*
X0311593Y0218512D01*
X0311601Y0218522D01*
X0311611Y0218531D01*
X0311619Y0218541D01*
X0312168Y0219089D01*
X0312177Y0219098D01*
X0312187Y0219107D01*
X0312197Y0219115D01*
X0312207Y0219124D01*
X0312218Y0219131D01*
X0312228Y0219139D01*
X0312873Y0219570D01*
X0312884Y0219577D01*
X0312895Y0219584D01*
X0312907Y0219590D01*
X0312918Y0219596D01*
X0312930Y0219601D01*
X0312942Y0219607D01*
X0313659Y0219904D01*
X0313671Y0219908D01*
X0313683Y0219913D01*
X0313696Y0219917D01*
X0313708Y0219921D01*
X0313721Y0219923D01*
X0313734Y0219927D01*
X0314494Y0220078D01*
X0314508Y0220080D01*
X0314520Y0220082D01*
X0314533Y0220083D01*
X0314546Y0220085D01*
X0314560D01*
X0314573Y0220086D01*
X0314956D01*
X0314956Y0220086D01*
X0314956Y0220086D01*
X0314960D01*
X0314961Y0220086D01*
X0319291Y0220086D01*
X0319344Y0220082D01*
D02*
G37*
G36*
X0330709Y0220086D02*
X0330709Y0220086D01*
X0331097Y0220086D01*
X0331110Y0220085D01*
X0331123D01*
X0331136Y0220083D01*
X0331149Y0220082D01*
X0331162Y0220080D01*
X0331175Y0220078D01*
X0331936Y0219927D01*
X0331948Y0219923D01*
X0331961Y0219921D01*
X0331974Y0219917D01*
X0331986Y0219913D01*
X0331998Y0219908D01*
X0332011Y0219904D01*
X0332727Y0219607D01*
X0332739Y0219601D01*
X0332751Y0219596D01*
X0332763Y0219590D01*
X0332774Y0219584D01*
X0332785Y0219577D01*
X0332797Y0219570D01*
X0333441Y0219139D01*
X0333452Y0219131D01*
X0333463Y0219124D01*
X0333473Y0219115D01*
X0333483Y0219107D01*
X0333492Y0219098D01*
X0333502Y0219089D01*
X0334050Y0218541D01*
X0334059Y0218531D01*
X0334068Y0218522D01*
X0334076Y0218511D01*
X0334085Y0218501D01*
X0334092Y0218491D01*
X0334100Y0218480D01*
X0334531Y0217835D01*
X0334538Y0217824D01*
X0334545Y0217813D01*
X0334551Y0217801D01*
X0334557Y0217790D01*
X0334562Y0217778D01*
X0334568Y0217766D01*
X0334865Y0217050D01*
X0334869Y0217037D01*
X0334874Y0217025D01*
X0334877Y0217012D01*
X0334882Y0217000D01*
X0334884Y0216987D01*
X0334888Y0216974D01*
X0335039Y0216214D01*
X0335041Y0216201D01*
X0335043Y0216188D01*
X0335044Y0216175D01*
X0335046Y0216162D01*
Y0216149D01*
X0335047Y0216136D01*
Y0215748D01*
X0335047Y0200788D01*
X0335047Y0200787D01*
X0335047Y0200400D01*
X0335046Y0200387D01*
Y0200374D01*
X0335044Y0200361D01*
X0335043Y0200347D01*
X0335041Y0200335D01*
X0335039Y0200322D01*
X0334888Y0199561D01*
X0334884Y0199548D01*
X0334882Y0199535D01*
X0334877Y0199523D01*
X0334874Y0199510D01*
X0334869Y0199498D01*
X0334865Y0199486D01*
X0334568Y0198769D01*
X0334562Y0198758D01*
X0334557Y0198745D01*
X0334550Y0198734D01*
X0334545Y0198722D01*
X0334537Y0198711D01*
X0334531Y0198700D01*
X0334100Y0198055D01*
X0334092Y0198045D01*
X0334085Y0198034D01*
X0334076Y0198024D01*
X0334068Y0198013D01*
X0334059Y0198004D01*
X0334050Y0197994D01*
X0333502Y0197446D01*
X0333492Y0197437D01*
X0333483Y0197428D01*
X0333472Y0197420D01*
X0333462Y0197411D01*
X0333452Y0197404D01*
X0333441Y0197396D01*
X0332796Y0196965D01*
X0332785Y0196959D01*
X0332774Y0196951D01*
X0332762Y0196946D01*
X0332751Y0196939D01*
X0332739Y0196934D01*
X0332727Y0196928D01*
X0332010Y0196631D01*
X0331998Y0196627D01*
X0331986Y0196622D01*
X0331973Y0196619D01*
X0331961Y0196615D01*
X0331948Y0196612D01*
X0331935Y0196608D01*
X0331175Y0196457D01*
X0331162Y0196456D01*
X0331149Y0196453D01*
X0331136Y0196452D01*
X0331123Y0196450D01*
X0331109D01*
X0331096Y0196449D01*
X0330709Y0196449D01*
X0330709D01*
X0330709D01*
X0326378Y0196449D01*
X0326378D01*
D01*
X0326326Y0196453D01*
X0326274Y0196463D01*
X0326257Y0196469D01*
X0326224Y0196480D01*
X0326178Y0196503D01*
X0326134Y0196532D01*
X0326095Y0196567D01*
Y0196567D01*
X0326095D01*
X0326060Y0196606D01*
X0326031Y0196650D01*
X0326008Y0196697D01*
X0325996Y0196730D01*
X0325991Y0196746D01*
X0325980Y0196798D01*
X0325977Y0196850D01*
Y0196850D01*
D01*
Y0219685D01*
X0325978Y0219698D01*
X0325980Y0219737D01*
X0325991Y0219789D01*
Y0219789D01*
X0325991Y0219789D01*
X0325997Y0219806D01*
X0326008Y0219838D01*
X0326031Y0219885D01*
D01*
X0326031Y0219885D01*
X0326043Y0219903D01*
X0326060Y0219929D01*
X0326095Y0219968D01*
X0326095Y0219968D01*
X0326095Y0219968D01*
X0326134Y0220003D01*
X0326160Y0220020D01*
X0326178Y0220032D01*
X0326178Y0220032D01*
D01*
X0326224Y0220055D01*
X0326256Y0220066D01*
X0326274Y0220072D01*
X0326274Y0220072D01*
X0326274D01*
X0326326Y0220082D01*
X0326364Y0220085D01*
X0326378Y0220086D01*
X0330709Y0220086D01*
X0330709Y0220086D01*
D02*
G37*
D37*
X0366732Y0173622D02*
D03*
X0363189D02*
D03*
X0362795Y0167717D02*
D03*
X0359252D02*
D03*
X0358858Y0173622D02*
D03*
X0355315D02*
D03*
X0314764Y0232283D02*
D03*
X0318307D02*
D03*
D38*
X0379528Y0195472D02*
D03*
Y0191929D02*
D03*
X0379527Y0185039D02*
D03*
Y0188583D02*
D03*
X0310630Y0180512D02*
D03*
Y0176969D02*
D03*
D39*
X0335039Y0186969D02*
D03*
Y0190197D02*
D03*
X0322835Y0232323D02*
D03*
Y0229095D02*
D03*
X0378740Y0210669D02*
D03*
Y0207441D02*
D03*
X0374803Y0234252D02*
D03*
Y0231024D02*
D03*
X0343307Y0230669D02*
D03*
Y0233898D02*
D03*
D40*
X0328150Y0229134D02*
D03*
X0336417D02*
D03*
X0328150Y0245276D02*
D03*
X0336417D02*
D03*
X0306693D02*
D03*
X0298425D02*
D03*
X0306693Y0229134D02*
D03*
X0298425D02*
D03*
D41*
X0315158Y0208268D02*
D03*
X0330512D02*
D03*
D42*
X0310433Y0192126D02*
D03*
X0318701D02*
D03*
D43*
X0316555Y0184646D02*
D03*
Y0182677D02*
D03*
Y0180709D02*
D03*
Y0178740D02*
D03*
Y0176772D02*
D03*
X0327539Y0184646D02*
D03*
Y0182677D02*
D03*
Y0180709D02*
D03*
Y0178740D02*
D03*
Y0176772D02*
D03*
D44*
X0322047Y0180709D02*
D03*
D45*
X0367205Y0227533D02*
D03*
X0350905D02*
D03*
Y0237033D02*
D03*
X0367205D02*
D03*
D46*
X0328779Y0192126D02*
D03*
X0325551D02*
D03*
X0374803Y0183465D02*
D03*
X0371575D02*
D03*
X0369252Y0220866D02*
D03*
X0372480D02*
D03*
X0351535D02*
D03*
X0354764D02*
D03*
D47*
X0270866Y0193860D02*
D03*
Y0203860D02*
D03*
D48*
Y0183060D02*
D03*
Y0214608D02*
D03*
D49*
X0281366Y0196260D02*
D03*
Y0198860D02*
D03*
Y0201419D02*
D03*
Y0193660D02*
D03*
Y0203978D02*
D03*
D50*
X0417716Y0148031D02*
D03*
X0407480D02*
D03*
D51*
X0372933Y0210039D02*
D03*
Y0208071D02*
D03*
Y0206102D02*
D03*
Y0204134D02*
D03*
Y0202165D02*
D03*
Y0200197D02*
D03*
Y0198228D02*
D03*
Y0196260D02*
D03*
Y0194291D02*
D03*
Y0192323D02*
D03*
Y0190354D02*
D03*
Y0188386D02*
D03*
X0341240D02*
D03*
Y0190354D02*
D03*
Y0192323D02*
D03*
Y0194291D02*
D03*
Y0196260D02*
D03*
Y0198228D02*
D03*
Y0200197D02*
D03*
Y0202165D02*
D03*
Y0204134D02*
D03*
Y0206102D02*
D03*
Y0208071D02*
D03*
Y0210039D02*
D03*
D52*
X0367913Y0183366D02*
D03*
X0365945D02*
D03*
X0363976D02*
D03*
X0362008D02*
D03*
X0360039D02*
D03*
X0358071D02*
D03*
X0356102D02*
D03*
X0354134D02*
D03*
X0352165D02*
D03*
X0350197D02*
D03*
X0348228D02*
D03*
X0346260D02*
D03*
Y0215059D02*
D03*
X0348228D02*
D03*
X0350197D02*
D03*
X0352165D02*
D03*
X0354134D02*
D03*
X0356102D02*
D03*
X0358071D02*
D03*
X0360039D02*
D03*
X0362008D02*
D03*
X0363976D02*
D03*
X0365945D02*
D03*
X0367913D02*
D03*
D53*
X0405512Y0118110D02*
D03*
X0275590Y0248031D02*
D03*
D54*
X0395643Y0250000D02*
D03*
X0403543D02*
D03*
X0411443D02*
D03*
X0419317D02*
D03*
X0427191D02*
D03*
X0372047Y0151627D02*
D03*
Y0143727D02*
D03*
Y0135827D02*
D03*
Y0127953D02*
D03*
Y0120079D02*
D03*
X0395617Y0224409D02*
D03*
X0403517D02*
D03*
X0411417D02*
D03*
X0419291D02*
D03*
X0427165D02*
D03*
X0395643Y0198819D02*
D03*
X0403543D02*
D03*
X0411443D02*
D03*
X0419317D02*
D03*
X0427191D02*
D03*
X0395617Y0173228D02*
D03*
X0403517D02*
D03*
X0411417D02*
D03*
X0419291D02*
D03*
X0427165D02*
D03*
X0347669Y0151627D02*
D03*
Y0143727D02*
D03*
Y0135827D02*
D03*
Y0127953D02*
D03*
Y0120079D02*
D03*
X0324169Y0151627D02*
D03*
Y0143727D02*
D03*
Y0135827D02*
D03*
Y0127953D02*
D03*
Y0120079D02*
D03*
X0301181Y0151627D02*
D03*
Y0143727D02*
D03*
Y0135827D02*
D03*
Y0127953D02*
D03*
Y0120079D02*
D03*
X0278864Y0151627D02*
D03*
Y0143727D02*
D03*
Y0135827D02*
D03*
Y0127953D02*
D03*
Y0120079D02*
D03*
D55*
X0268106Y0170206D02*
D03*
X0270861Y0172962D02*
D03*
X0273617Y0175718D02*
D03*
X0276373Y0167450D02*
D03*
X0279129D02*
D03*
X0281885D02*
D03*
X0265350Y0172962D02*
D03*
X0268106Y0167450D02*
D03*
Y0175718D02*
D03*
Y0172962D02*
D03*
X0265350Y0167450D02*
D03*
Y0175718D02*
D03*
Y0170206D02*
D03*
X0273617Y0172962D02*
D03*
Y0170206D02*
D03*
X0270861Y0167450D02*
D03*
Y0170206D02*
D03*
Y0175718D02*
D03*
X0276373Y0170206D02*
D03*
Y0172962D02*
D03*
X0273617Y0167450D02*
D03*
X0276373Y0175718D02*
D03*
X0281885D02*
D03*
Y0172962D02*
D03*
Y0170206D02*
D03*
X0279129Y0175718D02*
D03*
Y0172962D02*
D03*
Y0170206D02*
D03*
X0288506Y0214506D02*
D03*
X0291261Y0217262D02*
D03*
X0294017Y0220018D02*
D03*
X0296773Y0211750D02*
D03*
X0299529D02*
D03*
X0302285D02*
D03*
X0285750Y0217262D02*
D03*
X0288506Y0211750D02*
D03*
Y0220018D02*
D03*
Y0217262D02*
D03*
X0285750Y0211750D02*
D03*
Y0220018D02*
D03*
Y0214506D02*
D03*
X0294017Y0217262D02*
D03*
Y0214506D02*
D03*
X0291261Y0211750D02*
D03*
Y0214506D02*
D03*
Y0220018D02*
D03*
X0296773Y0214506D02*
D03*
Y0217262D02*
D03*
X0294017Y0211750D02*
D03*
X0296773Y0220018D02*
D03*
X0302285D02*
D03*
Y0217262D02*
D03*
Y0214506D02*
D03*
X0299529Y0220018D02*
D03*
Y0217262D02*
D03*
Y0214506D02*
D03*
X0273306Y0228706D02*
D03*
X0276061Y0231462D02*
D03*
X0278817Y0234218D02*
D03*
X0281573Y0225950D02*
D03*
X0284329D02*
D03*
X0287085D02*
D03*
X0270550Y0231462D02*
D03*
X0273306Y0225950D02*
D03*
Y0234218D02*
D03*
Y0231462D02*
D03*
X0270550Y0225950D02*
D03*
Y0234218D02*
D03*
Y0228706D02*
D03*
X0278817Y0231462D02*
D03*
Y0228706D02*
D03*
X0276061Y0225950D02*
D03*
Y0228706D02*
D03*
Y0234218D02*
D03*
X0281573Y0228706D02*
D03*
Y0231462D02*
D03*
X0278817Y0225950D02*
D03*
X0281573Y0234218D02*
D03*
X0287085D02*
D03*
Y0231462D02*
D03*
Y0228706D02*
D03*
X0284329Y0234218D02*
D03*
Y0231462D02*
D03*
Y0228706D02*
D03*
X0368205Y0226533D02*
D03*
X0365700Y0226500D02*
D03*
X0365800Y0228800D02*
D03*
X0368572Y0228900D02*
D03*
X0352700Y0235900D02*
D03*
Y0238400D02*
D03*
X0349300Y0235500D02*
D03*
Y0238400D02*
D03*
X0360630Y0237795D02*
D03*
X0357874D02*
D03*
X0354764Y0220866D02*
D03*
X0356693Y0230315D02*
D03*
Y0227953D02*
D03*
X0357874Y0235433D02*
D03*
X0360630D02*
D03*
X0378346Y0201575D02*
D03*
Y0199213D02*
D03*
X0378740Y0207441D02*
D03*
X0370200Y0181499D02*
D03*
X0371476Y0183366D02*
D03*
X0349213Y0190945D02*
D03*
Y0193701D02*
D03*
X0352756D02*
D03*
X0322047Y0175984D02*
D03*
X0322835Y0199606D02*
D03*
Y0202362D02*
D03*
Y0205118D02*
D03*
X0322441Y0192126D02*
D03*
X0325551Y0192126D02*
D03*
X0318701D02*
D03*
X0323228Y0181496D02*
D03*
X0320866D02*
D03*
X0323228Y0183858D02*
D03*
X0320866D02*
D03*
X0366929Y0249606D02*
D03*
Y0252362D02*
D03*
Y0255118D02*
D03*
X0369685Y0249606D02*
D03*
Y0252362D02*
D03*
Y0255118D02*
D03*
X0364173D02*
D03*
X0361417Y0246850D02*
D03*
X0364173Y0252362D02*
D03*
Y0249606D02*
D03*
X0358661Y0255118D02*
D03*
Y0249606D02*
D03*
Y0246850D02*
D03*
X0361417Y0249606D02*
D03*
Y0252362D02*
D03*
X0353150Y0249606D02*
D03*
Y0255118D02*
D03*
Y0246850D02*
D03*
X0355906Y0252362D02*
D03*
Y0255118D02*
D03*
Y0246850D02*
D03*
X0353150Y0252362D02*
D03*
X0369685Y0246850D02*
D03*
X0366929D02*
D03*
X0364173D02*
D03*
X0361417Y0255118D02*
D03*
X0358661Y0252362D02*
D03*
X0355906Y0249606D02*
D03*
X0298031Y0201969D02*
D03*
X0300787Y0199213D02*
D03*
X0303543Y0196457D02*
D03*
X0295276Y0193701D02*
D03*
Y0190945D02*
D03*
Y0188189D02*
D03*
X0300787Y0204724D02*
D03*
X0295276Y0201969D02*
D03*
X0303543D02*
D03*
X0300787D02*
D03*
X0295276Y0204724D02*
D03*
X0303543D02*
D03*
X0298031D02*
D03*
X0300787Y0196457D02*
D03*
X0298031D02*
D03*
X0295276Y0199213D02*
D03*
X0298031D02*
D03*
X0303543D02*
D03*
X0298031Y0193701D02*
D03*
X0300787D02*
D03*
X0295276Y0196457D02*
D03*
X0303543Y0193701D02*
D03*
Y0188189D02*
D03*
X0300787D02*
D03*
X0298031D02*
D03*
X0303543Y0190945D02*
D03*
X0300787D02*
D03*
X0298031D02*
D03*
X0426378Y0119685D02*
D03*
X0429134D02*
D03*
X0431890D02*
D03*
X0426378Y0116929D02*
D03*
X0429134D02*
D03*
X0431890D02*
D03*
Y0122441D02*
D03*
X0423622Y0125197D02*
D03*
X0429134Y0122441D02*
D03*
X0426378D02*
D03*
X0431890Y0127953D02*
D03*
X0426378D02*
D03*
X0423622D02*
D03*
X0426378Y0125197D02*
D03*
X0429134D02*
D03*
X0426378Y0133465D02*
D03*
X0431890D02*
D03*
X0423622D02*
D03*
X0429134Y0130709D02*
D03*
X0431890D02*
D03*
X0423622D02*
D03*
X0429134Y0133465D02*
D03*
X0423622Y0116929D02*
D03*
Y0119685D02*
D03*
Y0122441D02*
D03*
X0431890Y0125197D02*
D03*
X0429134Y0127953D02*
D03*
X0426378Y0130709D02*
D03*
X0331890Y0194488D02*
D03*
X0334252D02*
D03*
X0336614Y0195276D02*
D03*
Y0199213D02*
D03*
Y0203150D02*
D03*
Y0207087D02*
D03*
X0341339Y0212598D02*
D03*
X0338189D02*
D03*
X0339764Y0214173D02*
D03*
X0295636Y0174409D02*
D03*
X0310236Y0192126D02*
D03*
X0353543Y0190945D02*
D03*
X0361024Y0203150D02*
D03*
X0360630Y0205906D02*
D03*
X0368112Y0188979D02*
D03*
X0364567Y0190945D02*
D03*
X0357087D02*
D03*
X0355906Y0211024D02*
D03*
X0360236Y0190945D02*
D03*
X0376771Y0192519D02*
D03*
X0379527Y0191929D02*
D03*
X0316535Y0185039D02*
D03*
X0313997Y0182677D02*
D03*
X0344921Y0196128D02*
D03*
X0330314Y0178740D02*
D03*
X0328110Y0229095D02*
D03*
X0368898Y0202362D02*
D03*
X0314764Y0232283D02*
D03*
X0315748Y0198819D02*
D03*
D56*
X0352362Y0206299D02*
D03*
M02*
