G04 Layer_Physical_Order=2*
G04 Layer_Color=16711680*
%FSAX25Y25*%
%MOIN*%
G70*
G01*
G75*
%ADD26C,0.01000*%
%ADD29C,0.15748*%
%ADD30C,0.06300*%
%ADD31C,0.02000*%
G36*
X0438349Y0258656D02*
X0438328Y0258231D01*
Y0124030D01*
X0437828Y0123956D01*
X0437372Y0125460D01*
X0436548Y0127001D01*
X0435439Y0128352D01*
X0434088Y0129461D01*
X0432546Y0130285D01*
X0430873Y0130793D01*
X0430134Y0130866D01*
Y0122047D01*
Y0113229D01*
X0430873Y0113302D01*
X0432546Y0113809D01*
X0434088Y0114633D01*
X0435439Y0115742D01*
X0436548Y0117093D01*
X0437372Y0118635D01*
X0437828Y0120139D01*
X0438328Y0120064D01*
Y0107837D01*
X0262738D01*
X0262738Y0259018D01*
X0438005Y0259018D01*
X0438349Y0258656D01*
D02*
G37*
%LPC*%
G36*
X0428134Y0130866D02*
X0427394Y0130793D01*
X0425722Y0130285D01*
X0424180Y0129461D01*
X0422829Y0128352D01*
X0421720Y0127001D01*
X0420896Y0125460D01*
X0420388Y0123787D01*
X0420315Y0123047D01*
X0428134D01*
Y0130866D01*
D02*
G37*
G36*
X0376101Y0126953D02*
X0372047D01*
X0367993D01*
X0368004Y0126869D01*
X0368422Y0125860D01*
X0369087Y0124993D01*
X0369954Y0124328D01*
X0370577Y0124070D01*
Y0123529D01*
X0370156Y0123354D01*
X0369373Y0122753D01*
X0368772Y0121970D01*
X0368394Y0121058D01*
X0368265Y0120079D01*
X0368394Y0119100D01*
X0368772Y0118188D01*
X0369373Y0117404D01*
X0370156Y0116803D01*
X0371068Y0116425D01*
X0372047Y0116296D01*
X0373026Y0116425D01*
X0373938Y0116803D01*
X0374722Y0117404D01*
X0375323Y0118188D01*
X0375701Y0119100D01*
X0375830Y0120079D01*
X0375701Y0121058D01*
X0375323Y0121970D01*
X0374722Y0122753D01*
X0373938Y0123354D01*
X0373518Y0123529D01*
Y0124070D01*
X0374140Y0124328D01*
X0375007Y0124993D01*
X0375672Y0125860D01*
X0376090Y0126869D01*
X0376101Y0126953D01*
D02*
G37*
G36*
X0368112Y0190610D02*
X0367488Y0190486D01*
X0366959Y0190132D01*
X0366605Y0189603D01*
X0366481Y0188979D01*
X0366605Y0188355D01*
X0366676Y0188249D01*
Y0140077D01*
X0366676Y0140077D01*
X0366761Y0139648D01*
X0367004Y0139284D01*
X0368712Y0137575D01*
X0368394Y0136806D01*
X0368265Y0135827D01*
X0368394Y0134848D01*
X0368772Y0133936D01*
X0369373Y0133152D01*
X0370156Y0132551D01*
X0370577Y0132377D01*
Y0131836D01*
X0369954Y0131578D01*
X0369087Y0130913D01*
X0368422Y0130046D01*
X0368004Y0129036D01*
X0367993Y0128953D01*
X0372047D01*
X0376101D01*
X0376090Y0129036D01*
X0375672Y0130046D01*
X0375007Y0130913D01*
X0374140Y0131578D01*
X0373518Y0131836D01*
Y0132377D01*
X0373938Y0132551D01*
X0374722Y0133152D01*
X0375323Y0133936D01*
X0375701Y0134848D01*
X0375830Y0135827D01*
X0375701Y0136806D01*
X0375323Y0137718D01*
X0374722Y0138501D01*
X0373938Y0139102D01*
X0373026Y0139480D01*
X0372689Y0139525D01*
Y0140029D01*
X0373026Y0140073D01*
X0373938Y0140451D01*
X0374722Y0141052D01*
X0375323Y0141836D01*
X0375701Y0142748D01*
X0375830Y0143727D01*
X0375701Y0144706D01*
X0375323Y0145618D01*
X0374722Y0146401D01*
X0373938Y0147002D01*
X0373026Y0147380D01*
X0372689Y0147425D01*
Y0147929D01*
X0373026Y0147973D01*
X0373938Y0148351D01*
X0374722Y0148952D01*
X0375323Y0149736D01*
X0375701Y0150648D01*
X0375830Y0151627D01*
X0375701Y0152606D01*
X0375323Y0153518D01*
X0374722Y0154301D01*
X0373938Y0154902D01*
X0373026Y0155280D01*
X0372047Y0155409D01*
X0371068Y0155280D01*
X0370156Y0154902D01*
X0369419Y0154337D01*
X0369040Y0154414D01*
X0368919Y0154455D01*
Y0187593D01*
X0369266Y0187826D01*
X0369620Y0188355D01*
X0369744Y0188979D01*
X0369620Y0189603D01*
X0369266Y0190132D01*
X0368737Y0190486D01*
X0368112Y0190610D01*
D02*
G37*
G36*
X0429134Y0156153D02*
X0427473Y0155989D01*
X0425875Y0155505D01*
X0424403Y0154718D01*
X0423113Y0153659D01*
X0422054Y0152368D01*
X0421267Y0150896D01*
X0420783Y0149299D01*
X0420619Y0147638D01*
X0420783Y0145977D01*
X0421267Y0144379D01*
X0422054Y0142907D01*
X0423113Y0141617D01*
X0424403Y0140558D01*
X0425875Y0139771D01*
X0427473Y0139286D01*
X0429134Y0139123D01*
X0430795Y0139286D01*
X0432392Y0139771D01*
X0433864Y0140558D01*
X0435155Y0141617D01*
X0436214Y0142907D01*
X0437001Y0144379D01*
X0437485Y0145977D01*
X0437649Y0147638D01*
X0437485Y0149299D01*
X0437001Y0150896D01*
X0436214Y0152368D01*
X0435155Y0153659D01*
X0433864Y0154718D01*
X0432392Y0155505D01*
X0430795Y0155989D01*
X0429134Y0156153D01*
D02*
G37*
G36*
X0351724Y0126953D02*
X0347669D01*
X0343615D01*
X0343626Y0126869D01*
X0344044Y0125860D01*
X0344710Y0124993D01*
X0345577Y0124328D01*
X0346199Y0124070D01*
Y0123529D01*
X0345778Y0123354D01*
X0344995Y0122753D01*
X0344394Y0121970D01*
X0344016Y0121058D01*
X0343887Y0120079D01*
X0344016Y0119100D01*
X0344394Y0118188D01*
X0344995Y0117404D01*
X0345778Y0116803D01*
X0346691Y0116425D01*
X0347669Y0116296D01*
X0348648Y0116425D01*
X0349561Y0116803D01*
X0350344Y0117404D01*
X0350945Y0118188D01*
X0351323Y0119100D01*
X0351452Y0120079D01*
X0351323Y0121058D01*
X0350945Y0121970D01*
X0350344Y0122753D01*
X0349561Y0123354D01*
X0349140Y0123529D01*
Y0124070D01*
X0349762Y0124328D01*
X0350629Y0124993D01*
X0351294Y0125860D01*
X0351713Y0126869D01*
X0351724Y0126953D01*
D02*
G37*
G36*
X0428134Y0121047D02*
X0420315D01*
X0420388Y0120308D01*
X0420896Y0118635D01*
X0421720Y0117093D01*
X0422829Y0115742D01*
X0424180Y0114633D01*
X0425722Y0113809D01*
X0427394Y0113302D01*
X0428134Y0113229D01*
Y0121047D01*
D02*
G37*
G36*
X0399300Y0127015D02*
X0397639Y0126851D01*
X0396041Y0126367D01*
X0394569Y0125580D01*
X0393279Y0124521D01*
X0392220Y0123231D01*
X0391433Y0121758D01*
X0390949Y0120161D01*
X0390785Y0118500D01*
X0390949Y0116839D01*
X0391433Y0115242D01*
X0392220Y0113769D01*
X0393279Y0112479D01*
X0394569Y0111420D01*
X0396041Y0110633D01*
X0397639Y0110149D01*
X0399300Y0109985D01*
X0400961Y0110149D01*
X0402559Y0110633D01*
X0404031Y0111420D01*
X0405321Y0112479D01*
X0406380Y0113769D01*
X0407167Y0115242D01*
X0407651Y0116839D01*
X0407815Y0118500D01*
X0407651Y0120161D01*
X0407167Y0121758D01*
X0406380Y0123231D01*
X0405321Y0124521D01*
X0404031Y0125580D01*
X0402559Y0126367D01*
X0400961Y0126851D01*
X0399300Y0127015D01*
D02*
G37*
G36*
X0282918Y0126953D02*
X0278864D01*
X0274810D01*
X0274821Y0126869D01*
X0275239Y0125860D01*
X0275904Y0124993D01*
X0276771Y0124328D01*
X0277394Y0124070D01*
Y0123529D01*
X0276973Y0123354D01*
X0276190Y0122753D01*
X0275588Y0121970D01*
X0275211Y0121058D01*
X0275082Y0120079D01*
X0275211Y0119100D01*
X0275588Y0118188D01*
X0276190Y0117404D01*
X0276973Y0116803D01*
X0277885Y0116425D01*
X0278864Y0116296D01*
X0279843Y0116425D01*
X0280755Y0116803D01*
X0281539Y0117404D01*
X0282140Y0118188D01*
X0282518Y0119100D01*
X0282646Y0120079D01*
X0282518Y0121058D01*
X0282140Y0121970D01*
X0281539Y0122753D01*
X0280755Y0123354D01*
X0280334Y0123529D01*
Y0124070D01*
X0280957Y0124328D01*
X0281824Y0124993D01*
X0282489Y0125860D01*
X0282907Y0126869D01*
X0282918Y0126953D01*
D02*
G37*
G36*
X0328224Y0126953D02*
X0324169D01*
X0320115D01*
X0320126Y0126869D01*
X0320544Y0125860D01*
X0321210Y0124993D01*
X0322077Y0124328D01*
X0322699Y0124070D01*
Y0123529D01*
X0322278Y0123354D01*
X0321495Y0122753D01*
X0320894Y0121970D01*
X0320516Y0121058D01*
X0320387Y0120079D01*
X0320516Y0119100D01*
X0320894Y0118188D01*
X0321495Y0117404D01*
X0322278Y0116803D01*
X0323190Y0116425D01*
X0324169Y0116296D01*
X0325148Y0116425D01*
X0326061Y0116803D01*
X0326844Y0117404D01*
X0327445Y0118188D01*
X0327823Y0119100D01*
X0327952Y0120079D01*
X0327823Y0121058D01*
X0327445Y0121970D01*
X0326844Y0122753D01*
X0326061Y0123354D01*
X0325640Y0123529D01*
Y0124070D01*
X0326262Y0124328D01*
X0327129Y0124993D01*
X0327794Y0125860D01*
X0328213Y0126869D01*
X0328224Y0126953D01*
D02*
G37*
G36*
X0305235D02*
X0301181D01*
X0297127D01*
X0297138Y0126869D01*
X0297556Y0125860D01*
X0298221Y0124993D01*
X0299088Y0124328D01*
X0299711Y0124070D01*
Y0123529D01*
X0299290Y0123354D01*
X0298507Y0122753D01*
X0297906Y0121970D01*
X0297528Y0121058D01*
X0297399Y0120079D01*
X0297528Y0119100D01*
X0297906Y0118188D01*
X0298507Y0117404D01*
X0299290Y0116803D01*
X0300202Y0116425D01*
X0301181Y0116296D01*
X0302160Y0116425D01*
X0303072Y0116803D01*
X0303856Y0117404D01*
X0304457Y0118188D01*
X0304835Y0119100D01*
X0304964Y0120079D01*
X0304835Y0121058D01*
X0304457Y0121970D01*
X0303856Y0122753D01*
X0303072Y0123354D01*
X0302652Y0123529D01*
Y0124070D01*
X0303274Y0124328D01*
X0304141Y0124993D01*
X0304806Y0125860D01*
X0305224Y0126869D01*
X0305235Y0126953D01*
D02*
G37*
G36*
X0420291Y0228464D02*
Y0224409D01*
Y0220355D01*
X0420375Y0220366D01*
X0421384Y0220784D01*
X0422251Y0221450D01*
X0422916Y0222317D01*
X0423174Y0222939D01*
X0423715D01*
X0423890Y0222518D01*
X0424491Y0221735D01*
X0425274Y0221134D01*
X0426186Y0220756D01*
X0427165Y0220627D01*
X0428144Y0220756D01*
X0429057Y0221134D01*
X0429840Y0221735D01*
X0430441Y0222518D01*
X0430819Y0223430D01*
X0430948Y0224409D01*
X0430819Y0225388D01*
X0430441Y0226301D01*
X0429840Y0227084D01*
X0429057Y0227685D01*
X0428144Y0228063D01*
X0427165Y0228192D01*
X0426186Y0228063D01*
X0425274Y0227685D01*
X0424491Y0227084D01*
X0423890Y0226301D01*
X0423715Y0225880D01*
X0423174D01*
X0422916Y0226502D01*
X0422251Y0227369D01*
X0421384Y0228034D01*
X0420375Y0228453D01*
X0420291Y0228464D01*
D02*
G37*
G36*
X0328110Y0230726D02*
X0327486Y0230602D01*
X0326957Y0230248D01*
X0326603Y0229719D01*
X0326479Y0229095D01*
X0326603Y0228470D01*
X0326957Y0227941D01*
X0327486Y0227587D01*
X0328110Y0227463D01*
X0328148Y0227471D01*
X0345388Y0210231D01*
X0345388Y0210231D01*
X0345752Y0209987D01*
X0346181Y0209902D01*
X0354731D01*
X0354752Y0209870D01*
X0355281Y0209516D01*
X0355906Y0209392D01*
X0356530Y0209516D01*
X0357059Y0209870D01*
X0357413Y0210399D01*
X0357537Y0211024D01*
X0357413Y0211648D01*
X0357059Y0212177D01*
X0356530Y0212531D01*
X0355906Y0212655D01*
X0355281Y0212531D01*
X0354752Y0212177D01*
X0354731Y0212145D01*
X0346645D01*
X0329734Y0229057D01*
X0329741Y0229095D01*
X0329617Y0229719D01*
X0329264Y0230248D01*
X0328734Y0230602D01*
X0328110Y0230726D01*
D02*
G37*
G36*
X0275590Y0256546D02*
X0273929Y0256383D01*
X0272332Y0255898D01*
X0270860Y0255112D01*
X0269569Y0254052D01*
X0268511Y0252762D01*
X0267724Y0251290D01*
X0267239Y0249693D01*
X0267075Y0248031D01*
X0267239Y0246370D01*
X0267724Y0244773D01*
X0268511Y0243301D01*
X0269569Y0242010D01*
X0270860Y0240951D01*
X0272332Y0240165D01*
X0273929Y0239680D01*
X0275590Y0239516D01*
X0277252Y0239680D01*
X0278849Y0240165D01*
X0280321Y0240951D01*
X0281612Y0242010D01*
X0282670Y0243301D01*
X0283457Y0244773D01*
X0283942Y0246370D01*
X0284106Y0248031D01*
X0283942Y0249693D01*
X0283457Y0251290D01*
X0282670Y0252762D01*
X0281612Y0254052D01*
X0280321Y0255112D01*
X0278849Y0255898D01*
X0277252Y0256383D01*
X0275590Y0256546D01*
D02*
G37*
G36*
X0418317Y0254054D02*
X0418234Y0254043D01*
X0417225Y0253625D01*
X0416358Y0252960D01*
X0415692Y0252093D01*
X0415435Y0251470D01*
X0414893D01*
X0414719Y0251891D01*
X0414118Y0252675D01*
X0413335Y0253276D01*
X0412422Y0253654D01*
X0411443Y0253782D01*
X0410464Y0253654D01*
X0409552Y0253276D01*
X0408769Y0252675D01*
X0408168Y0251891D01*
X0407790Y0250979D01*
X0407746Y0250642D01*
X0407241D01*
X0407197Y0250979D01*
X0406819Y0251891D01*
X0406218Y0252675D01*
X0405435Y0253276D01*
X0404522Y0253654D01*
X0403543Y0253782D01*
X0402564Y0253654D01*
X0401652Y0253276D01*
X0400869Y0252675D01*
X0400268Y0251891D01*
X0399890Y0250979D01*
X0399846Y0250642D01*
X0399341D01*
X0399297Y0250979D01*
X0398919Y0251891D01*
X0398318Y0252675D01*
X0397535Y0253276D01*
X0396622Y0253654D01*
X0395643Y0253782D01*
X0394664Y0253654D01*
X0393752Y0253276D01*
X0392969Y0252675D01*
X0392368Y0251891D01*
X0391990Y0250979D01*
X0391861Y0250000D01*
X0391990Y0249021D01*
X0392368Y0248109D01*
X0392969Y0247325D01*
X0393752Y0246724D01*
X0394664Y0246346D01*
X0395643Y0246218D01*
X0396622Y0246346D01*
X0397535Y0246724D01*
X0398318Y0247325D01*
X0398919Y0248109D01*
X0399297Y0249021D01*
X0399341Y0249358D01*
X0399846D01*
X0399890Y0249021D01*
X0400268Y0248109D01*
X0400869Y0247325D01*
X0401652Y0246724D01*
X0402564Y0246346D01*
X0403543Y0246218D01*
X0404522Y0246346D01*
X0405435Y0246724D01*
X0406218Y0247325D01*
X0406819Y0248109D01*
X0407197Y0249021D01*
X0407241Y0249358D01*
X0407746D01*
X0407790Y0249021D01*
X0408109Y0248251D01*
X0367041Y0207184D01*
X0361597D01*
X0361254Y0207413D01*
X0360630Y0207537D01*
X0360006Y0207413D01*
X0359476Y0207059D01*
X0359123Y0206530D01*
X0358999Y0205906D01*
X0359123Y0205281D01*
X0359476Y0204752D01*
X0359572Y0204688D01*
X0359870Y0204303D01*
X0359699Y0204047D01*
X0359516Y0203774D01*
X0359392Y0203150D01*
X0359487Y0202671D01*
X0359197Y0202171D01*
X0346462D01*
X0316388Y0232246D01*
X0316395Y0232283D01*
X0316271Y0232908D01*
X0315917Y0233437D01*
X0315388Y0233791D01*
X0314764Y0233915D01*
X0314139Y0233791D01*
X0313610Y0233437D01*
X0313257Y0232908D01*
X0313132Y0232283D01*
X0313257Y0231659D01*
X0313610Y0231130D01*
X0314139Y0230776D01*
X0314764Y0230652D01*
X0314802Y0230660D01*
X0345204Y0200257D01*
X0345205Y0200256D01*
X0345568Y0200013D01*
X0345998Y0199928D01*
X0345998Y0199928D01*
X0361893D01*
X0361894Y0199928D01*
X0362323Y0200013D01*
X0362686Y0200256D01*
X0363671Y0201241D01*
X0367723D01*
X0367744Y0201209D01*
X0368273Y0200855D01*
X0368898Y0200731D01*
X0369522Y0200855D01*
X0370051Y0201209D01*
X0370405Y0201738D01*
X0370529Y0202362D01*
X0370434Y0202841D01*
X0370724Y0203341D01*
X0390372D01*
X0390563Y0202879D01*
X0384935Y0197250D01*
X0346096D01*
X0346075Y0197282D01*
X0345545Y0197636D01*
X0344921Y0197760D01*
X0344297Y0197636D01*
X0343767Y0197282D01*
X0343414Y0196753D01*
X0343290Y0196128D01*
X0343414Y0195504D01*
X0343767Y0194975D01*
X0344297Y0194621D01*
X0344921Y0194497D01*
X0345545Y0194621D01*
X0346075Y0194975D01*
X0346096Y0195007D01*
X0385399D01*
X0385399Y0195007D01*
X0385828Y0195092D01*
X0386192Y0195335D01*
X0392300Y0201443D01*
X0392677Y0201113D01*
X0392368Y0200710D01*
X0391990Y0199798D01*
X0391861Y0198819D01*
X0391990Y0197840D01*
X0392368Y0196928D01*
X0392969Y0196144D01*
X0393752Y0195543D01*
X0394664Y0195166D01*
X0395643Y0195037D01*
X0396622Y0195166D01*
X0397535Y0195543D01*
X0398318Y0196144D01*
X0398919Y0196928D01*
X0399297Y0197840D01*
X0399341Y0198177D01*
X0399846D01*
X0399890Y0197840D01*
X0400209Y0197070D01*
X0396189Y0193051D01*
X0380702D01*
X0380681Y0193083D01*
X0380152Y0193436D01*
X0379527Y0193561D01*
X0378903Y0193436D01*
X0378720Y0193314D01*
X0378313Y0193157D01*
X0378079Y0193441D01*
X0377924Y0193673D01*
X0377395Y0194027D01*
X0376771Y0194151D01*
X0376147Y0194027D01*
X0375617Y0193673D01*
X0375264Y0193144D01*
X0375140Y0192519D01*
X0375264Y0191895D01*
X0375617Y0191366D01*
X0375735Y0191287D01*
X0375735Y0191287D01*
X0375978Y0190923D01*
X0377865Y0189036D01*
X0377865Y0189036D01*
X0378228Y0188793D01*
X0378658Y0188708D01*
X0378658Y0188708D01*
X0394352D01*
X0408083Y0174977D01*
X0407764Y0174207D01*
X0407720Y0173870D01*
X0407215D01*
X0407171Y0174207D01*
X0406793Y0175120D01*
X0406192Y0175903D01*
X0405409Y0176504D01*
X0404496Y0176882D01*
X0403517Y0177011D01*
X0402538Y0176882D01*
X0401626Y0176504D01*
X0400843Y0175903D01*
X0400242Y0175120D01*
X0399864Y0174207D01*
X0399820Y0173870D01*
X0399315D01*
X0399271Y0174207D01*
X0398893Y0175120D01*
X0398292Y0175903D01*
X0397509Y0176504D01*
X0396596Y0176882D01*
X0395617Y0177011D01*
X0394638Y0176882D01*
X0393726Y0176504D01*
X0392943Y0175903D01*
X0392342Y0175120D01*
X0391964Y0174207D01*
X0391835Y0173228D01*
X0391964Y0172249D01*
X0392342Y0171337D01*
X0392943Y0170554D01*
X0393726Y0169953D01*
X0394638Y0169575D01*
X0395617Y0169446D01*
X0396596Y0169575D01*
X0397509Y0169953D01*
X0398292Y0170554D01*
X0398893Y0171337D01*
X0399271Y0172249D01*
X0399315Y0172586D01*
X0399820D01*
X0399864Y0172249D01*
X0400242Y0171337D01*
X0400843Y0170554D01*
X0401626Y0169953D01*
X0402538Y0169575D01*
X0403517Y0169446D01*
X0404496Y0169575D01*
X0405409Y0169953D01*
X0406192Y0170554D01*
X0406793Y0171337D01*
X0407171Y0172249D01*
X0407215Y0172586D01*
X0407720D01*
X0407764Y0172249D01*
X0408142Y0171337D01*
X0408743Y0170554D01*
X0409526Y0169953D01*
X0410438Y0169575D01*
X0411417Y0169446D01*
X0412396Y0169575D01*
X0413309Y0169953D01*
X0414092Y0170554D01*
X0414693Y0171337D01*
X0414867Y0171758D01*
X0415409D01*
X0415666Y0171135D01*
X0416332Y0170269D01*
X0417199Y0169603D01*
X0418208Y0169185D01*
X0418291Y0169174D01*
Y0173228D01*
Y0177283D01*
X0418208Y0177272D01*
X0417199Y0176853D01*
X0416332Y0176188D01*
X0415666Y0175321D01*
X0415409Y0174699D01*
X0414867D01*
X0414693Y0175120D01*
X0414092Y0175903D01*
X0413309Y0176504D01*
X0412396Y0176882D01*
X0411417Y0177011D01*
X0410438Y0176882D01*
X0409669Y0176563D01*
X0395924Y0190308D01*
X0396131Y0190808D01*
X0396654D01*
X0396654Y0190808D01*
X0397083Y0190893D01*
X0397447Y0191136D01*
X0401795Y0195484D01*
X0402564Y0195166D01*
X0403543Y0195037D01*
X0404522Y0195166D01*
X0405435Y0195543D01*
X0406218Y0196144D01*
X0406819Y0196928D01*
X0407197Y0197840D01*
X0407241Y0198177D01*
X0407746D01*
X0407790Y0197840D01*
X0408168Y0196928D01*
X0408769Y0196144D01*
X0409552Y0195543D01*
X0410464Y0195166D01*
X0411443Y0195037D01*
X0412422Y0195166D01*
X0413335Y0195543D01*
X0414118Y0196144D01*
X0414719Y0196928D01*
X0414893Y0197349D01*
X0415435D01*
X0415692Y0196726D01*
X0416358Y0195859D01*
X0417225Y0195194D01*
X0418234Y0194776D01*
X0418317Y0194765D01*
Y0198819D01*
Y0202873D01*
X0418234Y0202862D01*
X0417225Y0202444D01*
X0416358Y0201779D01*
X0415692Y0200912D01*
X0415435Y0200289D01*
X0414893D01*
X0414719Y0200710D01*
X0414118Y0201494D01*
X0413335Y0202095D01*
X0412422Y0202472D01*
X0411443Y0202601D01*
X0410464Y0202472D01*
X0409695Y0202154D01*
X0407906Y0203943D01*
X0407542Y0204186D01*
X0407113Y0204271D01*
X0407113Y0204271D01*
X0405512D01*
X0405512Y0204271D01*
X0405106Y0204191D01*
X0393438D01*
X0393247Y0204653D01*
X0409669Y0221075D01*
X0410438Y0220756D01*
X0411417Y0220627D01*
X0412396Y0220756D01*
X0413309Y0221134D01*
X0414092Y0221735D01*
X0414693Y0222518D01*
X0414867Y0222939D01*
X0415409D01*
X0415666Y0222317D01*
X0416332Y0221450D01*
X0417199Y0220784D01*
X0418208Y0220366D01*
X0418291Y0220355D01*
Y0224409D01*
Y0228464D01*
X0418208Y0228453D01*
X0417199Y0228034D01*
X0416332Y0227369D01*
X0415666Y0226502D01*
X0415409Y0225880D01*
X0414867D01*
X0414693Y0226301D01*
X0414092Y0227084D01*
X0413309Y0227685D01*
X0412396Y0228063D01*
X0411417Y0228192D01*
X0410438Y0228063D01*
X0409526Y0227685D01*
X0408743Y0227084D01*
X0408142Y0226301D01*
X0407764Y0225388D01*
X0407720Y0225051D01*
X0407215D01*
X0407171Y0225388D01*
X0406793Y0226301D01*
X0406192Y0227084D01*
X0405409Y0227685D01*
X0404496Y0228063D01*
X0403517Y0228192D01*
X0402538Y0228063D01*
X0401626Y0227685D01*
X0400843Y0227084D01*
X0400242Y0226301D01*
X0399864Y0225388D01*
X0399820Y0225051D01*
X0399315D01*
X0399271Y0225388D01*
X0398893Y0226301D01*
X0398292Y0227084D01*
X0397509Y0227685D01*
X0396596Y0228063D01*
X0395617Y0228192D01*
X0394638Y0228063D01*
X0393726Y0227685D01*
X0392943Y0227084D01*
X0392342Y0226301D01*
X0391964Y0225388D01*
X0391835Y0224409D01*
X0391964Y0223430D01*
X0392342Y0222518D01*
X0392943Y0221735D01*
X0393726Y0221134D01*
X0394638Y0220756D01*
X0395617Y0220627D01*
X0396596Y0220756D01*
X0397509Y0221134D01*
X0398292Y0221735D01*
X0398893Y0222518D01*
X0399271Y0223430D01*
X0399315Y0223767D01*
X0399820D01*
X0399864Y0223430D01*
X0400242Y0222518D01*
X0400843Y0221735D01*
X0401626Y0221134D01*
X0402538Y0220756D01*
X0403517Y0220627D01*
X0404496Y0220756D01*
X0405409Y0221134D01*
X0406192Y0221735D01*
X0406793Y0222518D01*
X0407171Y0223430D01*
X0407215Y0223767D01*
X0407720D01*
X0407764Y0223430D01*
X0408083Y0222661D01*
X0391006Y0205584D01*
X0369267D01*
X0369075Y0206046D01*
X0409695Y0246665D01*
X0410464Y0246346D01*
X0411443Y0246218D01*
X0412422Y0246346D01*
X0413335Y0246724D01*
X0414118Y0247325D01*
X0414719Y0248109D01*
X0414893Y0248530D01*
X0415435D01*
X0415692Y0247907D01*
X0416358Y0247040D01*
X0417225Y0246375D01*
X0418234Y0245957D01*
X0418317Y0245946D01*
Y0250000D01*
Y0254054D01*
D02*
G37*
G36*
X0420317D02*
Y0250000D01*
Y0245946D01*
X0420401Y0245957D01*
X0421410Y0246375D01*
X0422277Y0247040D01*
X0422942Y0247907D01*
X0423200Y0248530D01*
X0423741D01*
X0423916Y0248109D01*
X0424517Y0247325D01*
X0425300Y0246724D01*
X0426212Y0246346D01*
X0427191Y0246218D01*
X0428170Y0246346D01*
X0429083Y0246724D01*
X0429866Y0247325D01*
X0430467Y0248109D01*
X0430845Y0249021D01*
X0430974Y0250000D01*
X0430845Y0250979D01*
X0430467Y0251891D01*
X0429866Y0252675D01*
X0429083Y0253276D01*
X0428170Y0253654D01*
X0427191Y0253782D01*
X0426212Y0253654D01*
X0425300Y0253276D01*
X0424517Y0252675D01*
X0423916Y0251891D01*
X0423741Y0251470D01*
X0423200D01*
X0422942Y0252093D01*
X0422277Y0252960D01*
X0421410Y0253625D01*
X0420401Y0254043D01*
X0420317Y0254054D01*
D02*
G37*
G36*
Y0202873D02*
Y0198819D01*
Y0194765D01*
X0420401Y0194776D01*
X0421410Y0195194D01*
X0422277Y0195859D01*
X0422942Y0196726D01*
X0423200Y0197349D01*
X0423741D01*
X0423916Y0196928D01*
X0424517Y0196144D01*
X0425300Y0195543D01*
X0426212Y0195166D01*
X0427191Y0195037D01*
X0428170Y0195166D01*
X0429083Y0195543D01*
X0429866Y0196144D01*
X0430467Y0196928D01*
X0430845Y0197840D01*
X0430974Y0198819D01*
X0430845Y0199798D01*
X0430467Y0200710D01*
X0429866Y0201494D01*
X0429083Y0202095D01*
X0428170Y0202472D01*
X0427191Y0202601D01*
X0426212Y0202472D01*
X0425300Y0202095D01*
X0424517Y0201494D01*
X0423916Y0200710D01*
X0423741Y0200289D01*
X0423200D01*
X0422942Y0200912D01*
X0422277Y0201779D01*
X0421410Y0202444D01*
X0420401Y0202862D01*
X0420317Y0202873D01*
D02*
G37*
G36*
X0420291Y0177283D02*
Y0173228D01*
Y0169174D01*
X0420375Y0169185D01*
X0421384Y0169603D01*
X0422251Y0170269D01*
X0422916Y0171135D01*
X0423174Y0171758D01*
X0423715D01*
X0423890Y0171337D01*
X0424491Y0170554D01*
X0425274Y0169953D01*
X0426186Y0169575D01*
X0427165Y0169446D01*
X0428144Y0169575D01*
X0429057Y0169953D01*
X0429840Y0170554D01*
X0430441Y0171337D01*
X0430819Y0172249D01*
X0430948Y0173228D01*
X0430819Y0174207D01*
X0430441Y0175120D01*
X0429840Y0175903D01*
X0429057Y0176504D01*
X0428144Y0176882D01*
X0427165Y0177011D01*
X0426186Y0176882D01*
X0425274Y0176504D01*
X0424491Y0175903D01*
X0423890Y0175120D01*
X0423715Y0174699D01*
X0423174D01*
X0422916Y0175321D01*
X0422251Y0176188D01*
X0421384Y0176853D01*
X0420375Y0177272D01*
X0420291Y0177283D01*
D02*
G37*
G36*
X0364567Y0192576D02*
X0363943Y0192452D01*
X0363413Y0192098D01*
X0363060Y0191569D01*
X0362936Y0190945D01*
X0363060Y0190321D01*
X0363413Y0189791D01*
X0363445Y0189770D01*
Y0153189D01*
X0349418Y0139162D01*
X0348648Y0139480D01*
X0348311Y0139525D01*
Y0140029D01*
X0348648Y0140073D01*
X0349561Y0140451D01*
X0350344Y0141052D01*
X0350945Y0141836D01*
X0351323Y0142748D01*
X0351452Y0143727D01*
X0351323Y0144706D01*
X0350945Y0145618D01*
X0350344Y0146401D01*
X0349561Y0147002D01*
X0348648Y0147380D01*
X0348311Y0147425D01*
Y0147929D01*
X0348648Y0147973D01*
X0349561Y0148351D01*
X0350344Y0148952D01*
X0350945Y0149736D01*
X0351323Y0150648D01*
X0351452Y0151627D01*
X0351323Y0152606D01*
X0350945Y0153518D01*
X0350344Y0154301D01*
X0349561Y0154902D01*
X0348648Y0155280D01*
X0347669Y0155409D01*
X0346691Y0155280D01*
X0345778Y0154902D01*
X0344995Y0154301D01*
X0344394Y0153518D01*
X0344016Y0152606D01*
X0343887Y0151627D01*
X0344016Y0150648D01*
X0344394Y0149736D01*
X0344995Y0148952D01*
X0345778Y0148351D01*
X0346691Y0147973D01*
X0347027Y0147929D01*
Y0147425D01*
X0346691Y0147380D01*
X0345778Y0147002D01*
X0344995Y0146401D01*
X0344394Y0145618D01*
X0344016Y0144706D01*
X0343887Y0143727D01*
X0344016Y0142748D01*
X0344394Y0141836D01*
X0344995Y0141052D01*
X0345778Y0140451D01*
X0346691Y0140073D01*
X0347027Y0140029D01*
Y0139525D01*
X0346691Y0139480D01*
X0345778Y0139102D01*
X0344995Y0138501D01*
X0344394Y0137718D01*
X0344016Y0136806D01*
X0343887Y0135827D01*
X0344016Y0134848D01*
X0344394Y0133936D01*
X0344995Y0133152D01*
X0345778Y0132551D01*
X0346199Y0132377D01*
Y0131836D01*
X0345577Y0131578D01*
X0344710Y0130913D01*
X0344044Y0130046D01*
X0343626Y0129036D01*
X0343615Y0128953D01*
X0347669D01*
X0351724D01*
X0351713Y0129036D01*
X0351294Y0130046D01*
X0350629Y0130913D01*
X0349762Y0131578D01*
X0349140Y0131836D01*
Y0132377D01*
X0349561Y0132551D01*
X0350344Y0133152D01*
X0350945Y0133936D01*
X0351323Y0134848D01*
X0351452Y0135827D01*
X0351323Y0136806D01*
X0351004Y0137575D01*
X0365360Y0151931D01*
X0365360Y0151931D01*
X0365603Y0152295D01*
X0365688Y0152724D01*
X0365688Y0152724D01*
Y0189770D01*
X0365721Y0189791D01*
X0366074Y0190321D01*
X0366198Y0190945D01*
X0366074Y0191569D01*
X0365721Y0192098D01*
X0365191Y0192452D01*
X0364567Y0192576D01*
D02*
G37*
G36*
X0310236Y0193757D02*
X0309612Y0193633D01*
X0309083Y0193280D01*
X0308729Y0192750D01*
X0308605Y0192126D01*
X0308729Y0191502D01*
X0309083Y0190972D01*
X0309115Y0190951D01*
Y0189047D01*
X0296030Y0175962D01*
X0295636Y0176041D01*
X0295012Y0175917D01*
X0294483Y0175563D01*
X0294129Y0175034D01*
X0294005Y0174409D01*
X0294129Y0173785D01*
X0294483Y0173256D01*
X0295012Y0172902D01*
X0295636Y0172778D01*
X0296261Y0172902D01*
X0296790Y0173256D01*
X0297144Y0173785D01*
X0297173Y0173933D01*
X0311029Y0187790D01*
X0311029Y0187790D01*
X0311272Y0188154D01*
X0311358Y0188583D01*
Y0190951D01*
X0311390Y0190972D01*
X0311743Y0191502D01*
X0311868Y0192126D01*
X0311743Y0192750D01*
X0311390Y0193280D01*
X0310860Y0193633D01*
X0310236Y0193757D01*
D02*
G37*
G36*
X0360236Y0192576D02*
X0359612Y0192452D01*
X0359083Y0192098D01*
X0358962Y0191918D01*
X0358361D01*
X0358240Y0192098D01*
X0357711Y0192452D01*
X0357087Y0192576D01*
X0356462Y0192452D01*
X0355933Y0192098D01*
X0355579Y0191569D01*
X0355570Y0191521D01*
X0355060D01*
X0355050Y0191569D01*
X0354697Y0192098D01*
X0354168Y0192452D01*
X0353543Y0192576D01*
X0352919Y0192452D01*
X0352390Y0192098D01*
X0352036Y0191569D01*
X0351912Y0190945D01*
X0351920Y0190907D01*
X0318011Y0156998D01*
X0299421D01*
X0298992Y0156913D01*
X0298628Y0156670D01*
X0298628Y0156670D01*
X0280928Y0138970D01*
X0280755Y0139102D01*
X0279843Y0139480D01*
X0279506Y0139525D01*
Y0140029D01*
X0279843Y0140073D01*
X0280755Y0140451D01*
X0281539Y0141052D01*
X0282140Y0141836D01*
X0282518Y0142748D01*
X0282646Y0143727D01*
X0282518Y0144706D01*
X0282140Y0145618D01*
X0281539Y0146401D01*
X0280755Y0147002D01*
X0279843Y0147380D01*
X0279506Y0147425D01*
Y0147929D01*
X0279843Y0147973D01*
X0280755Y0148351D01*
X0281539Y0148952D01*
X0282140Y0149736D01*
X0282518Y0150648D01*
X0282646Y0151627D01*
X0282518Y0152606D01*
X0282140Y0153518D01*
X0281539Y0154301D01*
X0280755Y0154902D01*
X0279843Y0155280D01*
X0278864Y0155409D01*
X0277885Y0155280D01*
X0276973Y0154902D01*
X0276190Y0154301D01*
X0275588Y0153518D01*
X0275211Y0152606D01*
X0275082Y0151627D01*
X0275211Y0150648D01*
X0275588Y0149736D01*
X0276190Y0148952D01*
X0276973Y0148351D01*
X0277885Y0147973D01*
X0278222Y0147929D01*
Y0147425D01*
X0277885Y0147380D01*
X0276973Y0147002D01*
X0276190Y0146401D01*
X0275588Y0145618D01*
X0275211Y0144706D01*
X0275082Y0143727D01*
X0275211Y0142748D01*
X0275588Y0141836D01*
X0276190Y0141052D01*
X0276973Y0140451D01*
X0277885Y0140073D01*
X0278222Y0140029D01*
Y0139525D01*
X0277885Y0139480D01*
X0276973Y0139102D01*
X0276190Y0138501D01*
X0275588Y0137718D01*
X0275211Y0136806D01*
X0275082Y0135827D01*
X0275211Y0134848D01*
X0275588Y0133936D01*
X0276190Y0133152D01*
X0276973Y0132551D01*
X0277394Y0132377D01*
Y0131836D01*
X0276771Y0131578D01*
X0275904Y0130913D01*
X0275239Y0130046D01*
X0274821Y0129036D01*
X0274810Y0128953D01*
X0278864D01*
X0282918D01*
X0282907Y0129036D01*
X0282489Y0130046D01*
X0281824Y0130913D01*
X0280957Y0131578D01*
X0280334Y0131836D01*
Y0132377D01*
X0280755Y0132551D01*
X0281539Y0133152D01*
X0282140Y0133936D01*
X0282518Y0134848D01*
X0282646Y0135827D01*
X0282518Y0136806D01*
X0282347Y0137217D01*
X0296969Y0151839D01*
X0297084Y0151782D01*
X0297406Y0151569D01*
X0297528Y0150648D01*
X0297906Y0149736D01*
X0298507Y0148952D01*
X0299290Y0148351D01*
X0300202Y0147973D01*
X0300539Y0147929D01*
Y0147425D01*
X0300202Y0147380D01*
X0299290Y0147002D01*
X0298507Y0146401D01*
X0297906Y0145618D01*
X0297528Y0144706D01*
X0297399Y0143727D01*
X0297528Y0142748D01*
X0297906Y0141836D01*
X0298507Y0141052D01*
X0299290Y0140451D01*
X0300202Y0140073D01*
X0300539Y0140029D01*
Y0139525D01*
X0300202Y0139480D01*
X0299290Y0139102D01*
X0298507Y0138501D01*
X0297906Y0137718D01*
X0297528Y0136806D01*
X0297399Y0135827D01*
X0297528Y0134848D01*
X0297906Y0133936D01*
X0298507Y0133152D01*
X0299290Y0132551D01*
X0299711Y0132377D01*
Y0131836D01*
X0299088Y0131578D01*
X0298221Y0130913D01*
X0297556Y0130046D01*
X0297138Y0129036D01*
X0297127Y0128953D01*
X0301181D01*
X0305235D01*
X0305224Y0129036D01*
X0304806Y0130046D01*
X0304141Y0130913D01*
X0303274Y0131578D01*
X0302652Y0131836D01*
Y0132377D01*
X0303072Y0132551D01*
X0303856Y0133152D01*
X0304457Y0133936D01*
X0304835Y0134848D01*
X0304964Y0135827D01*
X0304835Y0136806D01*
X0304747Y0137019D01*
X0319963Y0152235D01*
X0320436Y0152001D01*
X0320387Y0151627D01*
X0320516Y0150648D01*
X0320894Y0149736D01*
X0321495Y0148952D01*
X0322278Y0148351D01*
X0323190Y0147973D01*
X0323527Y0147929D01*
Y0147425D01*
X0323190Y0147380D01*
X0322278Y0147002D01*
X0321495Y0146401D01*
X0320894Y0145618D01*
X0320516Y0144706D01*
X0320387Y0143727D01*
X0320516Y0142748D01*
X0320894Y0141836D01*
X0321495Y0141052D01*
X0322278Y0140451D01*
X0323190Y0140073D01*
X0323527Y0140029D01*
Y0139525D01*
X0323190Y0139480D01*
X0322278Y0139102D01*
X0321495Y0138501D01*
X0320894Y0137718D01*
X0320516Y0136806D01*
X0320387Y0135827D01*
X0320516Y0134848D01*
X0320894Y0133936D01*
X0321495Y0133152D01*
X0322278Y0132551D01*
X0322699Y0132377D01*
Y0131836D01*
X0322077Y0131578D01*
X0321210Y0130913D01*
X0320544Y0130046D01*
X0320126Y0129036D01*
X0320115Y0128953D01*
X0324169D01*
X0328224D01*
X0328213Y0129036D01*
X0327794Y0130046D01*
X0327129Y0130913D01*
X0326262Y0131578D01*
X0325640Y0131836D01*
Y0132377D01*
X0326061Y0132551D01*
X0326844Y0133152D01*
X0327445Y0133936D01*
X0327823Y0134848D01*
X0327952Y0135827D01*
X0327823Y0136806D01*
X0327504Y0137575D01*
X0361029Y0171100D01*
X0361029Y0171101D01*
X0361272Y0171464D01*
X0361358Y0171894D01*
X0361358Y0171894D01*
Y0189770D01*
X0361390Y0189791D01*
X0361743Y0190321D01*
X0361868Y0190945D01*
X0361743Y0191569D01*
X0361390Y0192098D01*
X0360860Y0192452D01*
X0360236Y0192576D01*
D02*
G37*
G36*
X0315748Y0200450D02*
X0315124Y0200326D01*
X0314595Y0199972D01*
X0314241Y0199443D01*
X0314117Y0198819D01*
X0314241Y0198195D01*
X0314595Y0197665D01*
X0315124Y0197312D01*
X0315413Y0197254D01*
Y0186214D01*
X0315381Y0186193D01*
X0315028Y0185663D01*
X0314903Y0185039D01*
X0315005Y0184529D01*
X0314690Y0184236D01*
X0314602Y0184188D01*
X0313997Y0184309D01*
X0313373Y0184184D01*
X0312843Y0183831D01*
X0312490Y0183301D01*
X0312366Y0182677D01*
X0312490Y0182053D01*
X0312843Y0181524D01*
X0313373Y0181170D01*
X0313997Y0181046D01*
X0314035Y0181053D01*
X0317141Y0177947D01*
X0317141Y0177947D01*
X0317505Y0177704D01*
X0317934Y0177618D01*
X0329139D01*
X0329161Y0177586D01*
X0329690Y0177233D01*
X0330314Y0177108D01*
X0330939Y0177233D01*
X0331468Y0177586D01*
X0331821Y0178115D01*
X0331946Y0178740D01*
X0331821Y0179364D01*
X0331468Y0179893D01*
X0330939Y0180247D01*
X0330314Y0180371D01*
X0329690Y0180247D01*
X0329161Y0179893D01*
X0329139Y0179861D01*
X0318399D01*
X0315621Y0182640D01*
X0315628Y0182677D01*
X0315527Y0183187D01*
X0315841Y0183481D01*
X0315930Y0183528D01*
X0316535Y0183408D01*
X0317159Y0183532D01*
X0317688Y0183886D01*
X0318042Y0184415D01*
X0318166Y0185039D01*
X0318042Y0185663D01*
X0317688Y0186193D01*
X0317656Y0186214D01*
Y0198032D01*
X0317656Y0198032D01*
X0317571Y0198461D01*
X0317369Y0198764D01*
X0317379Y0198819D01*
X0317255Y0199443D01*
X0316902Y0199972D01*
X0316372Y0200326D01*
X0315748Y0200450D01*
D02*
G37*
%LPD*%
D26*
X0295636Y0174409D02*
X0296063D01*
X0310236Y0188583D01*
Y0192126D01*
X0278864Y0135827D02*
X0279371D01*
X0299421Y0155877D01*
X0318475D01*
X0353543Y0190945D01*
X0313997Y0182677D02*
X0317934Y0178740D01*
X0330314D01*
X0344921Y0196128D02*
X0385399D01*
X0361024Y0203150D02*
X0361731D01*
X0360630Y0205906D02*
X0360787Y0206062D01*
X0345998Y0201050D02*
X0361894D01*
X0363206Y0202362D01*
X0368898D01*
X0363043Y0204462D02*
X0391470D01*
X0360787Y0206062D02*
X0367506D01*
X0361731Y0203150D02*
X0363043Y0204462D01*
X0367506Y0206062D02*
X0411443Y0250000D01*
X0367797Y0188664D02*
X0368112Y0188979D01*
X0364567Y0152724D02*
Y0190945D01*
X0301181Y0135827D02*
X0301969D01*
X0357087Y0190945D01*
X0314764Y0232283D02*
X0345998Y0201050D01*
X0346181Y0211024D02*
X0355906D01*
X0385399Y0196128D02*
X0392340Y0203069D01*
X0360236Y0171894D02*
Y0190945D01*
X0324169Y0135827D02*
X0360236Y0171894D01*
X0347669Y0135827D02*
X0364567Y0152724D01*
X0367797Y0140077D02*
X0372047Y0135827D01*
X0367797Y0140077D02*
Y0188664D01*
X0376771Y0191716D02*
Y0192519D01*
X0379527Y0191929D02*
X0396654D01*
X0394817Y0189829D02*
X0411417Y0173228D01*
X0378658Y0189829D02*
X0394817D01*
X0376771Y0191716D02*
X0378658Y0189829D01*
X0316535Y0185039D02*
Y0198032D01*
X0315748Y0198819D02*
X0316535Y0198032D01*
X0407113Y0203150D02*
X0411443Y0198819D01*
X0405512Y0203150D02*
X0407113D01*
X0405431Y0203069D02*
X0405512Y0203150D01*
X0392340Y0203069D02*
X0405431D01*
X0396654Y0191929D02*
X0403543Y0198819D01*
X0391470Y0204462D02*
X0411417Y0224409D01*
X0328110Y0229095D02*
X0346181Y0211024D01*
D29*
X0429134Y0122047D02*
D03*
X0399300Y0118500D02*
D03*
X0275590Y0248031D02*
D03*
X0429134Y0147638D02*
D03*
D30*
X0395643Y0250000D02*
D03*
X0403543D02*
D03*
X0411443D02*
D03*
X0419317D02*
D03*
X0427191D02*
D03*
X0372047Y0151627D02*
D03*
Y0143727D02*
D03*
Y0135827D02*
D03*
Y0127953D02*
D03*
Y0120079D02*
D03*
X0395617Y0224409D02*
D03*
X0403517D02*
D03*
X0411417D02*
D03*
X0419291D02*
D03*
X0427165D02*
D03*
X0395643Y0198819D02*
D03*
X0403543D02*
D03*
X0411443D02*
D03*
X0419317D02*
D03*
X0427191D02*
D03*
X0395617Y0173228D02*
D03*
X0403517D02*
D03*
X0411417D02*
D03*
X0419291D02*
D03*
X0427165D02*
D03*
X0347669Y0151627D02*
D03*
Y0143727D02*
D03*
Y0135827D02*
D03*
Y0127953D02*
D03*
Y0120079D02*
D03*
X0324169Y0151627D02*
D03*
Y0143727D02*
D03*
Y0135827D02*
D03*
Y0127953D02*
D03*
Y0120079D02*
D03*
X0301181Y0151627D02*
D03*
Y0143727D02*
D03*
Y0135827D02*
D03*
Y0127953D02*
D03*
Y0120079D02*
D03*
X0278864Y0151627D02*
D03*
Y0143727D02*
D03*
Y0135827D02*
D03*
Y0127953D02*
D03*
Y0120079D02*
D03*
D31*
X0268106Y0170206D02*
D03*
X0270861Y0172962D02*
D03*
X0273617Y0175718D02*
D03*
X0276373Y0167450D02*
D03*
X0279129D02*
D03*
X0281885D02*
D03*
X0265350Y0172962D02*
D03*
X0268106Y0167450D02*
D03*
Y0175718D02*
D03*
Y0172962D02*
D03*
X0265350Y0167450D02*
D03*
Y0175718D02*
D03*
Y0170206D02*
D03*
X0273617Y0172962D02*
D03*
Y0170206D02*
D03*
X0270861Y0167450D02*
D03*
Y0170206D02*
D03*
Y0175718D02*
D03*
X0276373Y0170206D02*
D03*
Y0172962D02*
D03*
X0273617Y0167450D02*
D03*
X0276373Y0175718D02*
D03*
X0281885D02*
D03*
Y0172962D02*
D03*
Y0170206D02*
D03*
X0279129Y0175718D02*
D03*
Y0172962D02*
D03*
Y0170206D02*
D03*
X0269721Y0228656D02*
D03*
X0272476Y0231412D02*
D03*
X0275232Y0234168D02*
D03*
X0277988Y0225900D02*
D03*
X0280744D02*
D03*
X0283500D02*
D03*
X0266965Y0231412D02*
D03*
X0269721Y0225900D02*
D03*
Y0234168D02*
D03*
Y0231412D02*
D03*
X0266965Y0225900D02*
D03*
Y0234168D02*
D03*
Y0228656D02*
D03*
X0275232Y0231412D02*
D03*
Y0228656D02*
D03*
X0272476Y0225900D02*
D03*
Y0228656D02*
D03*
Y0234168D02*
D03*
X0277988Y0228656D02*
D03*
Y0231412D02*
D03*
X0275232Y0225900D02*
D03*
X0277988Y0234168D02*
D03*
X0283500D02*
D03*
Y0231412D02*
D03*
Y0228656D02*
D03*
X0280744Y0234168D02*
D03*
Y0231412D02*
D03*
Y0228656D02*
D03*
X0368205Y0226533D02*
D03*
X0365700Y0226500D02*
D03*
X0365800Y0228800D02*
D03*
X0368572Y0228900D02*
D03*
X0352700Y0235900D02*
D03*
Y0238400D02*
D03*
X0349300Y0235500D02*
D03*
Y0238400D02*
D03*
X0360630Y0237795D02*
D03*
X0357874D02*
D03*
X0354764Y0220866D02*
D03*
X0356693Y0230315D02*
D03*
Y0227953D02*
D03*
X0357874Y0235433D02*
D03*
X0360630D02*
D03*
X0378346Y0201575D02*
D03*
Y0199213D02*
D03*
X0378740Y0207441D02*
D03*
X0370200Y0181499D02*
D03*
X0371476Y0183366D02*
D03*
X0349213Y0190945D02*
D03*
Y0193701D02*
D03*
X0352756D02*
D03*
X0322047Y0175984D02*
D03*
X0322835Y0199606D02*
D03*
Y0202362D02*
D03*
Y0205118D02*
D03*
X0322441Y0192126D02*
D03*
X0325551Y0192126D02*
D03*
X0318701D02*
D03*
X0323228Y0181496D02*
D03*
X0320866D02*
D03*
X0323228Y0183858D02*
D03*
X0320866D02*
D03*
X0366929Y0249606D02*
D03*
Y0252362D02*
D03*
Y0255118D02*
D03*
X0369685Y0249606D02*
D03*
Y0252362D02*
D03*
Y0255118D02*
D03*
X0364173D02*
D03*
X0361417Y0246850D02*
D03*
X0364173Y0252362D02*
D03*
Y0249606D02*
D03*
X0358661Y0255118D02*
D03*
Y0249606D02*
D03*
Y0246850D02*
D03*
X0361417Y0249606D02*
D03*
Y0252362D02*
D03*
X0353150Y0249606D02*
D03*
Y0255118D02*
D03*
Y0246850D02*
D03*
X0355906Y0252362D02*
D03*
Y0255118D02*
D03*
Y0246850D02*
D03*
X0353150Y0252362D02*
D03*
X0369685Y0246850D02*
D03*
X0366929D02*
D03*
X0364173D02*
D03*
X0361417Y0255118D02*
D03*
X0358661Y0252362D02*
D03*
X0355906Y0249606D02*
D03*
X0331890Y0194488D02*
D03*
X0334252D02*
D03*
X0336614Y0195276D02*
D03*
Y0199213D02*
D03*
Y0203150D02*
D03*
Y0207087D02*
D03*
X0341339Y0212598D02*
D03*
X0338189D02*
D03*
X0339764Y0214173D02*
D03*
X0352362Y0206299D02*
D03*
X0295636Y0174409D02*
D03*
X0310236Y0192126D02*
D03*
X0353543Y0190945D02*
D03*
X0361024Y0203150D02*
D03*
X0360630Y0205906D02*
D03*
X0368112Y0188979D02*
D03*
X0364567Y0190945D02*
D03*
X0357087D02*
D03*
X0355906Y0211024D02*
D03*
X0360236Y0190945D02*
D03*
X0376771Y0192519D02*
D03*
X0379527Y0191929D02*
D03*
X0316535Y0185039D02*
D03*
X0313997Y0182677D02*
D03*
X0344921Y0196128D02*
D03*
X0330314Y0178740D02*
D03*
X0328110Y0229095D02*
D03*
X0368898Y0202362D02*
D03*
X0314764Y0232283D02*
D03*
X0315748Y0198819D02*
D03*
M02*
