G04 Layer_Color=32896*
%FSAX25Y25*%
%MOIN*%
G70*
G01*
G75*
G36*
X0299147Y0175471D02*
X0299226Y0175451D01*
X0299304Y0175422D01*
X0299363Y0175392D01*
X0299412Y0175363D01*
X0299452Y0175333D01*
X0299472Y0175313D01*
X0299481Y0175304D01*
X0299540Y0175235D01*
X0299580Y0175166D01*
X0299609Y0175097D01*
X0299629Y0175028D01*
X0299639Y0174969D01*
X0299649Y0174920D01*
Y0174890D01*
Y0174881D01*
X0299639Y0174792D01*
X0299619Y0174703D01*
X0299600Y0174635D01*
X0299560Y0174566D01*
X0299531Y0174516D01*
X0299511Y0174477D01*
X0299491Y0174457D01*
X0299481Y0174448D01*
X0299412Y0174389D01*
X0299344Y0174349D01*
X0299265Y0174320D01*
X0299206Y0174300D01*
X0299147Y0174290D01*
X0299098Y0174280D01*
X0299058D01*
X0298970Y0174290D01*
X0298891Y0174310D01*
X0298812Y0174329D01*
X0298753Y0174369D01*
X0298704Y0174398D01*
X0298665Y0174418D01*
X0298645Y0174438D01*
X0298635Y0174448D01*
X0298576Y0174516D01*
X0298537Y0174595D01*
X0298497Y0174664D01*
X0298478Y0174733D01*
X0298468Y0174792D01*
X0298458Y0174841D01*
Y0174871D01*
Y0174881D01*
X0298468Y0174969D01*
X0298488Y0175048D01*
X0298517Y0175127D01*
X0298547Y0175186D01*
X0298576Y0175235D01*
X0298606Y0175274D01*
X0298625Y0175294D01*
X0298635Y0175304D01*
X0298704Y0175363D01*
X0298773Y0175402D01*
X0298842Y0175441D01*
X0298911Y0175461D01*
X0298970Y0175471D01*
X0299019Y0175481D01*
X0299058D01*
X0299147Y0175471D01*
D02*
G37*
G36*
X0374561Y0179810D02*
X0374757Y0179781D01*
X0374944Y0179742D01*
X0375131Y0179692D01*
X0375299Y0179633D01*
X0375456Y0179564D01*
X0375604Y0179486D01*
X0375732Y0179417D01*
X0375850Y0179338D01*
X0375958Y0179259D01*
X0376056Y0179190D01*
X0376135Y0179131D01*
X0376194Y0179082D01*
X0376233Y0179043D01*
X0376263Y0179013D01*
X0376273Y0179003D01*
X0376411Y0178846D01*
X0376529Y0178689D01*
X0376637Y0178521D01*
X0376725Y0178364D01*
X0376804Y0178197D01*
X0376863Y0178029D01*
X0376922Y0177872D01*
X0376962Y0177724D01*
X0376991Y0177586D01*
X0377021Y0177459D01*
X0377040Y0177340D01*
X0377050Y0177242D01*
Y0177163D01*
X0377060Y0177104D01*
Y0177065D01*
Y0177055D01*
X0377050Y0176839D01*
X0377030Y0176642D01*
X0376991Y0176445D01*
X0376932Y0176258D01*
X0376873Y0176081D01*
X0376814Y0175924D01*
X0376735Y0175776D01*
X0376666Y0175638D01*
X0376597Y0175510D01*
X0376519Y0175402D01*
X0376460Y0175313D01*
X0376391Y0175235D01*
X0376342Y0175166D01*
X0376302Y0175127D01*
X0376283Y0175097D01*
X0376273Y0175087D01*
X0376125Y0174949D01*
X0375968Y0174821D01*
X0375800Y0174713D01*
X0375643Y0174625D01*
X0375486Y0174546D01*
X0375328Y0174477D01*
X0375171Y0174428D01*
X0375023Y0174379D01*
X0374895Y0174349D01*
X0374767Y0174320D01*
X0374659Y0174310D01*
X0374561Y0174290D01*
X0374482D01*
X0374423Y0174280D01*
X0374374D01*
X0374147Y0174290D01*
X0373931Y0174320D01*
X0373734Y0174359D01*
X0373557Y0174408D01*
X0373419Y0174457D01*
X0373311Y0174497D01*
X0373272Y0174516D01*
X0373242Y0174526D01*
X0373232Y0174536D01*
X0373222D01*
X0373026Y0174644D01*
X0372849Y0174772D01*
X0372681Y0174900D01*
X0372543Y0175028D01*
X0372425Y0175136D01*
X0372337Y0175225D01*
X0372278Y0175294D01*
X0372258Y0175304D01*
Y0174418D01*
X0371579D01*
Y0179682D01*
X0372258D01*
Y0178708D01*
X0372415Y0178905D01*
X0372573Y0179072D01*
X0372730Y0179210D01*
X0372868Y0179328D01*
X0372996Y0179417D01*
X0373095Y0179486D01*
X0373134Y0179505D01*
X0373163Y0179525D01*
X0373173Y0179535D01*
X0373183D01*
X0373380Y0179633D01*
X0373587Y0179702D01*
X0373783Y0179751D01*
X0373960Y0179781D01*
X0374118Y0179810D01*
X0374187D01*
X0374246Y0179820D01*
X0374354D01*
X0374561Y0179810D01*
D02*
G37*
G36*
X0314960Y0174418D02*
X0314812D01*
X0313129Y0178187D01*
X0311437Y0174418D01*
X0311319D01*
X0309036Y0179682D01*
X0309735D01*
X0311378Y0175865D01*
X0313080Y0179682D01*
X0313198D01*
X0314881Y0175865D01*
X0316485Y0179682D01*
X0317184D01*
X0314960Y0174418D01*
D02*
G37*
G36*
X0328096Y0178708D02*
X0328254Y0178905D01*
X0328411Y0179072D01*
X0328568Y0179210D01*
X0328706Y0179328D01*
X0328834Y0179417D01*
X0328932Y0179486D01*
X0328972Y0179505D01*
X0329001Y0179525D01*
X0329011Y0179535D01*
X0329021D01*
X0329218Y0179633D01*
X0329425Y0179702D01*
X0329621Y0179751D01*
X0329799Y0179781D01*
X0329956Y0179810D01*
X0330025D01*
X0330084Y0179820D01*
X0330192D01*
X0330399Y0179810D01*
X0330595Y0179781D01*
X0330783Y0179742D01*
X0330969Y0179692D01*
X0331137Y0179633D01*
X0331294Y0179564D01*
X0331442Y0179486D01*
X0331570Y0179417D01*
X0331688Y0179338D01*
X0331796Y0179259D01*
X0331894Y0179190D01*
X0331973Y0179131D01*
X0332032Y0179082D01*
X0332071Y0179043D01*
X0332101Y0179013D01*
X0332111Y0179003D01*
X0332249Y0178846D01*
X0332367Y0178689D01*
X0332475Y0178521D01*
X0332563Y0178364D01*
X0332642Y0178197D01*
X0332701Y0178029D01*
X0332760Y0177872D01*
X0332800Y0177724D01*
X0332829Y0177586D01*
X0332859Y0177459D01*
X0332878Y0177340D01*
X0332888Y0177242D01*
Y0177163D01*
X0332898Y0177104D01*
Y0177065D01*
Y0177055D01*
X0332888Y0176839D01*
X0332869Y0176642D01*
X0332829Y0176445D01*
X0332770Y0176258D01*
X0332711Y0176081D01*
X0332652Y0175924D01*
X0332573Y0175776D01*
X0332504Y0175638D01*
X0332436Y0175510D01*
X0332357Y0175402D01*
X0332298Y0175313D01*
X0332229Y0175235D01*
X0332180Y0175166D01*
X0332140Y0175127D01*
X0332121Y0175097D01*
X0332111Y0175087D01*
X0331963Y0174949D01*
X0331806Y0174821D01*
X0331639Y0174713D01*
X0331481Y0174625D01*
X0331324Y0174546D01*
X0331166Y0174477D01*
X0331009Y0174428D01*
X0330861Y0174379D01*
X0330733Y0174349D01*
X0330605Y0174320D01*
X0330497Y0174310D01*
X0330399Y0174290D01*
X0330320D01*
X0330261Y0174280D01*
X0330212D01*
X0329985Y0174290D01*
X0329769Y0174320D01*
X0329572Y0174359D01*
X0329395Y0174408D01*
X0329257Y0174457D01*
X0329149Y0174497D01*
X0329110Y0174516D01*
X0329080Y0174526D01*
X0329070Y0174536D01*
X0329060D01*
X0328864Y0174644D01*
X0328686Y0174772D01*
X0328519Y0174900D01*
X0328381Y0175028D01*
X0328263Y0175136D01*
X0328175Y0175225D01*
X0328116Y0175294D01*
X0328096Y0175304D01*
Y0174418D01*
X0327417D01*
Y0181709D01*
X0328096D01*
Y0178708D01*
D02*
G37*
G36*
X0360844Y0174418D02*
X0360165D01*
X0359466Y0179545D01*
X0356927Y0174418D01*
X0356740D01*
X0354221Y0179505D01*
X0353513Y0174418D01*
X0352824D01*
X0353847Y0181532D01*
X0353946D01*
X0356829Y0175697D01*
X0359712Y0181532D01*
X0359840D01*
X0360844Y0174418D01*
D02*
G37*
G36*
X0344199Y0184234D02*
X0343461D01*
X0340499Y0192490D01*
X0341247D01*
X0344199Y0184234D01*
D02*
G37*
G36*
X0323024Y0191634D02*
X0319629D01*
X0322915Y0185317D01*
X0322315Y0185022D01*
X0318517Y0192313D01*
X0323024D01*
Y0191634D01*
D02*
G37*
G36*
X0357090Y0192205D02*
X0357237Y0191791D01*
X0357365Y0191388D01*
X0357414Y0191201D01*
X0357464Y0191024D01*
X0357513Y0190857D01*
X0357542Y0190699D01*
X0357582Y0190571D01*
X0357601Y0190453D01*
X0357621Y0190365D01*
X0357641Y0190296D01*
X0357651Y0190257D01*
Y0190237D01*
X0357729Y0189755D01*
X0357788Y0189282D01*
X0357818Y0189046D01*
X0357838Y0188830D01*
X0357857Y0188623D01*
X0357867Y0188426D01*
X0357877Y0188249D01*
X0357887Y0188082D01*
Y0187934D01*
X0357897Y0187816D01*
Y0187718D01*
Y0187639D01*
Y0187600D01*
Y0187580D01*
X0357887Y0187118D01*
X0357867Y0186675D01*
X0357847Y0186458D01*
X0357828Y0186261D01*
X0357808Y0186074D01*
X0357788Y0185897D01*
X0357779Y0185740D01*
X0357759Y0185592D01*
X0357739Y0185464D01*
X0357719Y0185356D01*
X0357710Y0185277D01*
X0357700Y0185208D01*
X0357690Y0185169D01*
Y0185159D01*
X0357601Y0184736D01*
X0357562Y0184539D01*
X0357513Y0184353D01*
X0357464Y0184175D01*
X0357414Y0184008D01*
X0357375Y0183851D01*
X0357326Y0183713D01*
X0357287Y0183585D01*
X0357247Y0183467D01*
X0357208Y0183369D01*
X0357178Y0183290D01*
X0357159Y0183221D01*
X0357139Y0183172D01*
X0357119Y0183142D01*
Y0183132D01*
X0356371D01*
X0356509Y0183487D01*
X0356627Y0183841D01*
X0356726Y0184195D01*
X0356775Y0184353D01*
X0356814Y0184520D01*
X0356854Y0184667D01*
X0356883Y0184795D01*
X0356913Y0184913D01*
X0356932Y0185022D01*
X0356952Y0185100D01*
X0356962Y0185169D01*
X0356972Y0185208D01*
Y0185218D01*
X0357041Y0185661D01*
X0357090Y0186104D01*
X0357129Y0186517D01*
X0357139Y0186714D01*
X0357149Y0186891D01*
X0357159Y0187058D01*
X0357168Y0187216D01*
Y0187344D01*
X0357178Y0187462D01*
Y0187550D01*
Y0187619D01*
Y0187669D01*
Y0187678D01*
X0357168Y0188190D01*
X0357139Y0188682D01*
X0357109Y0188908D01*
X0357090Y0189135D01*
X0357070Y0189341D01*
X0357041Y0189538D01*
X0357011Y0189715D01*
X0356991Y0189873D01*
X0356962Y0190010D01*
X0356942Y0190129D01*
X0356932Y0190227D01*
X0356913Y0190296D01*
X0356903Y0190345D01*
Y0190355D01*
X0356785Y0190827D01*
X0356726Y0191044D01*
X0356667Y0191260D01*
X0356598Y0191457D01*
X0356539Y0191644D01*
X0356470Y0191821D01*
X0356411Y0191979D01*
X0356352Y0192126D01*
X0356302Y0192254D01*
X0356253Y0192362D01*
X0356214Y0192461D01*
X0356184Y0192529D01*
X0356155Y0192589D01*
X0356145Y0192618D01*
X0356135Y0192628D01*
X0356922D01*
X0357090Y0192205D01*
D02*
G37*
G36*
X0367879Y0179800D02*
X0368125Y0179761D01*
X0368352Y0179702D01*
X0368558Y0179633D01*
X0368647Y0179594D01*
X0368725Y0179564D01*
X0368794Y0179535D01*
X0368863Y0179505D01*
X0368903Y0179486D01*
X0368942Y0179466D01*
X0368962Y0179446D01*
X0368971D01*
X0369198Y0179299D01*
X0369395Y0179131D01*
X0369572Y0178964D01*
X0369709Y0178807D01*
X0369828Y0178669D01*
X0369906Y0178551D01*
X0369936Y0178502D01*
X0369955Y0178472D01*
X0369975Y0178452D01*
Y0178443D01*
X0370093Y0178206D01*
X0370182Y0177960D01*
X0370241Y0177734D01*
X0370280Y0177527D01*
X0370310Y0177350D01*
X0370320Y0177272D01*
Y0177213D01*
X0370329Y0177154D01*
Y0177114D01*
Y0177094D01*
Y0177085D01*
X0370310Y0176819D01*
X0370270Y0176573D01*
X0370221Y0176337D01*
X0370152Y0176140D01*
X0370123Y0176051D01*
X0370093Y0175983D01*
X0370064Y0175914D01*
X0370034Y0175855D01*
X0370015Y0175805D01*
X0369995Y0175776D01*
X0369985Y0175756D01*
Y0175746D01*
X0369847Y0175530D01*
X0369690Y0175333D01*
X0369523Y0175166D01*
X0369365Y0175028D01*
X0369217Y0174920D01*
X0369109Y0174841D01*
X0369060Y0174812D01*
X0369030Y0174792D01*
X0369011Y0174772D01*
X0369001D01*
X0368755Y0174654D01*
X0368519Y0174566D01*
X0368283Y0174507D01*
X0368076Y0174467D01*
X0367987Y0174448D01*
X0367899Y0174438D01*
X0367820Y0174428D01*
X0367761D01*
X0367702Y0174418D01*
X0367633D01*
X0367407Y0174428D01*
X0367191Y0174457D01*
X0366994Y0174497D01*
X0366816Y0174546D01*
X0366669Y0174595D01*
X0366610Y0174615D01*
X0366561Y0174635D01*
X0366521Y0174654D01*
X0366482Y0174664D01*
X0366472Y0174674D01*
X0366462D01*
X0366256Y0174782D01*
X0366078Y0174900D01*
X0365921Y0175018D01*
X0365783Y0175136D01*
X0365665Y0175245D01*
X0365586Y0175333D01*
X0365537Y0175392D01*
X0365518Y0175402D01*
Y0175146D01*
Y0174989D01*
X0365528Y0174841D01*
X0365537Y0174713D01*
X0365547Y0174585D01*
X0365567Y0174467D01*
X0365586Y0174369D01*
X0365606Y0174270D01*
X0365616Y0174192D01*
X0365636Y0174123D01*
X0365655Y0174054D01*
X0365675Y0174005D01*
X0365695Y0173965D01*
X0365714Y0173906D01*
X0365724Y0173887D01*
X0365813Y0173749D01*
X0365921Y0173621D01*
X0366029Y0173513D01*
X0366147Y0173414D01*
X0366246Y0173336D01*
X0366334Y0173286D01*
X0366393Y0173247D01*
X0366403Y0173237D01*
X0366413D01*
X0366600Y0173149D01*
X0366797Y0173080D01*
X0366984Y0173040D01*
X0367171Y0173001D01*
X0367328Y0172981D01*
X0367397D01*
X0367456Y0172971D01*
X0367574D01*
X0367830Y0172981D01*
X0368056Y0173011D01*
X0368263Y0173050D01*
X0368430Y0173100D01*
X0368568Y0173149D01*
X0368666Y0173188D01*
X0368706Y0173208D01*
X0368735Y0173217D01*
X0368745Y0173227D01*
X0368755D01*
X0368922Y0173336D01*
X0369070Y0173454D01*
X0369208Y0173582D01*
X0369316Y0173709D01*
X0369404Y0173818D01*
X0369473Y0173916D01*
X0369513Y0173975D01*
X0369523Y0173985D01*
Y0173995D01*
X0370261D01*
X0370152Y0173778D01*
X0370044Y0173591D01*
X0369936Y0173434D01*
X0369847Y0173296D01*
X0369759Y0173198D01*
X0369700Y0173119D01*
X0369651Y0173080D01*
X0369641Y0173060D01*
X0369503Y0172942D01*
X0369365Y0172844D01*
X0369217Y0172755D01*
X0369080Y0172686D01*
X0368952Y0172627D01*
X0368853Y0172588D01*
X0368814Y0172568D01*
X0368784Y0172558D01*
X0368775Y0172548D01*
X0368765D01*
X0368558Y0172479D01*
X0368342Y0172430D01*
X0368145Y0172401D01*
X0367948Y0172381D01*
X0367791Y0172361D01*
X0367722D01*
X0367663Y0172352D01*
X0367545D01*
X0367210Y0172371D01*
X0366905Y0172411D01*
X0366639Y0172479D01*
X0366512Y0172509D01*
X0366403Y0172548D01*
X0366305Y0172588D01*
X0366216Y0172617D01*
X0366138Y0172657D01*
X0366078Y0172686D01*
X0366029Y0172706D01*
X0365990Y0172725D01*
X0365970Y0172745D01*
X0365960D01*
X0365734Y0172903D01*
X0365537Y0173090D01*
X0365380Y0173277D01*
X0365252Y0173454D01*
X0365154Y0173621D01*
X0365114Y0173690D01*
X0365085Y0173749D01*
X0365065Y0173798D01*
X0365045Y0173837D01*
X0365036Y0173857D01*
Y0173867D01*
X0364996Y0173965D01*
X0364967Y0174083D01*
X0364917Y0174339D01*
X0364888Y0174605D01*
X0364858Y0174871D01*
Y0174989D01*
X0364848Y0175107D01*
Y0175205D01*
X0364839Y0175304D01*
Y0175373D01*
Y0175432D01*
Y0175471D01*
Y0175481D01*
Y0179682D01*
X0365518D01*
Y0178767D01*
X0365695Y0178964D01*
X0365872Y0179131D01*
X0366039Y0179269D01*
X0366197Y0179377D01*
X0366324Y0179466D01*
X0366423Y0179525D01*
X0366462Y0179545D01*
X0366492Y0179564D01*
X0366502Y0179574D01*
X0366512D01*
X0366708Y0179653D01*
X0366895Y0179712D01*
X0367082Y0179761D01*
X0367249Y0179791D01*
X0367397Y0179810D01*
X0367456D01*
X0367515Y0179820D01*
X0367614D01*
X0367879Y0179800D01*
D02*
G37*
G36*
X0317277Y0192274D02*
X0317169Y0191919D01*
X0317061Y0191565D01*
X0317021Y0191398D01*
X0316982Y0191241D01*
X0316943Y0191093D01*
X0316913Y0190955D01*
X0316883Y0190837D01*
X0316864Y0190729D01*
X0316844Y0190650D01*
X0316834Y0190581D01*
X0316824Y0190542D01*
Y0190532D01*
X0316756Y0190089D01*
X0316697Y0189646D01*
X0316657Y0189233D01*
X0316647Y0189046D01*
X0316637Y0188859D01*
X0316628Y0188692D01*
X0316618Y0188534D01*
Y0188407D01*
X0316608Y0188288D01*
Y0188200D01*
Y0188131D01*
Y0188092D01*
Y0188072D01*
X0316618Y0187560D01*
X0316647Y0187068D01*
X0316677Y0186842D01*
X0316697Y0186616D01*
X0316726Y0186409D01*
X0316746Y0186222D01*
X0316775Y0186035D01*
X0316805Y0185878D01*
X0316824Y0185740D01*
X0316844Y0185622D01*
X0316864Y0185523D01*
X0316883Y0185454D01*
X0316893Y0185415D01*
Y0185396D01*
X0317011Y0184933D01*
X0317070Y0184707D01*
X0317129Y0184500D01*
X0317198Y0184303D01*
X0317257Y0184116D01*
X0317316Y0183939D01*
X0317375Y0183782D01*
X0317435Y0183634D01*
X0317484Y0183506D01*
X0317533Y0183398D01*
X0317572Y0183309D01*
X0317602Y0183231D01*
X0317631Y0183182D01*
X0317641Y0183142D01*
X0317651Y0183132D01*
X0316864D01*
X0316697Y0183555D01*
X0316549Y0183969D01*
X0316431Y0184372D01*
X0316372Y0184559D01*
X0316323Y0184736D01*
X0316283Y0184904D01*
X0316244Y0185051D01*
X0316214Y0185179D01*
X0316195Y0185297D01*
X0316175Y0185386D01*
X0316155Y0185454D01*
X0316145Y0185504D01*
Y0185514D01*
X0316057Y0185996D01*
X0315998Y0186468D01*
X0315968Y0186694D01*
X0315949Y0186921D01*
X0315939Y0187127D01*
X0315919Y0187324D01*
X0315909Y0187501D01*
X0315899Y0187659D01*
Y0187806D01*
X0315890Y0187924D01*
Y0188023D01*
Y0188101D01*
Y0188141D01*
Y0188161D01*
X0315899Y0188623D01*
X0315919Y0189076D01*
X0315939Y0189282D01*
X0315958Y0189479D01*
X0315978Y0189676D01*
X0315998Y0189853D01*
X0316018Y0190010D01*
X0316037Y0190158D01*
X0316057Y0190286D01*
X0316077Y0190384D01*
X0316086Y0190473D01*
X0316096Y0190542D01*
X0316106Y0190581D01*
Y0190591D01*
X0316185Y0191014D01*
X0316234Y0191211D01*
X0316283Y0191408D01*
X0316323Y0191585D01*
X0316372Y0191752D01*
X0316421Y0191910D01*
X0316460Y0192047D01*
X0316510Y0192175D01*
X0316539Y0192293D01*
X0316578Y0192392D01*
X0316608Y0192471D01*
X0316637Y0192539D01*
X0316647Y0192589D01*
X0316667Y0192618D01*
Y0192628D01*
X0317415D01*
X0317277Y0192274D01*
D02*
G37*
G36*
X0389439Y0179810D02*
X0389635Y0179781D01*
X0389813Y0179732D01*
X0389980Y0179682D01*
X0390108Y0179633D01*
X0390206Y0179584D01*
X0390246Y0179574D01*
X0390275Y0179554D01*
X0390285Y0179545D01*
X0390295D01*
X0390472Y0179436D01*
X0390639Y0179308D01*
X0390797Y0179171D01*
X0390925Y0179043D01*
X0391033Y0178925D01*
X0391121Y0178826D01*
X0391151Y0178787D01*
X0391171Y0178757D01*
X0391180Y0178748D01*
X0391190Y0178738D01*
Y0179682D01*
X0391869D01*
Y0174418D01*
X0391190D01*
Y0176347D01*
Y0176534D01*
Y0176711D01*
X0391180Y0176868D01*
Y0177016D01*
X0391171Y0177144D01*
X0391161Y0177262D01*
X0391151Y0177360D01*
X0391141Y0177459D01*
Y0177537D01*
X0391131Y0177606D01*
X0391121Y0177665D01*
X0391111Y0177705D01*
Y0177744D01*
X0391102Y0177764D01*
Y0177783D01*
X0391033Y0178000D01*
X0390934Y0178197D01*
X0390826Y0178364D01*
X0390718Y0178511D01*
X0390619Y0178630D01*
X0390541Y0178718D01*
X0390482Y0178767D01*
X0390472Y0178787D01*
X0390462D01*
X0390275Y0178925D01*
X0390078Y0179023D01*
X0389901Y0179102D01*
X0389724Y0179151D01*
X0389577Y0179181D01*
X0389517Y0179190D01*
X0389458D01*
X0389419Y0179200D01*
X0389360D01*
X0389163Y0179190D01*
X0388996Y0179161D01*
X0388848Y0179112D01*
X0388720Y0179072D01*
X0388622Y0179023D01*
X0388553Y0178974D01*
X0388504Y0178944D01*
X0388494Y0178935D01*
X0388376Y0178826D01*
X0388278Y0178698D01*
X0388199Y0178570D01*
X0388140Y0178443D01*
X0388101Y0178324D01*
X0388061Y0178236D01*
X0388051Y0178197D01*
Y0178167D01*
X0388041Y0178157D01*
Y0178147D01*
X0388032Y0178088D01*
X0388012Y0178010D01*
X0387992Y0177832D01*
X0387982Y0177626D01*
X0387972Y0177419D01*
X0387963Y0177232D01*
Y0177154D01*
Y0177075D01*
Y0177016D01*
Y0176967D01*
Y0176937D01*
Y0176927D01*
Y0174418D01*
X0387284D01*
Y0177124D01*
Y0177321D01*
X0387294Y0177498D01*
X0387303Y0177665D01*
X0387323Y0177823D01*
X0387333Y0177970D01*
X0387353Y0178098D01*
X0387372Y0178216D01*
X0387392Y0178315D01*
X0387421Y0178413D01*
X0387441Y0178492D01*
X0387461Y0178561D01*
X0387471Y0178610D01*
X0387490Y0178659D01*
X0387500Y0178689D01*
X0387510Y0178698D01*
Y0178708D01*
X0387599Y0178885D01*
X0387707Y0179053D01*
X0387815Y0179190D01*
X0387923Y0179308D01*
X0388022Y0179397D01*
X0388101Y0179466D01*
X0388159Y0179505D01*
X0388169Y0179515D01*
X0388179D01*
X0388356Y0179613D01*
X0388533Y0179692D01*
X0388710Y0179742D01*
X0388868Y0179781D01*
X0389016Y0179800D01*
X0389124Y0179820D01*
X0389222D01*
X0389439Y0179810D01*
D02*
G37*
G36*
X0399722Y0174418D02*
X0398934D01*
X0397832Y0176750D01*
X0394742D01*
X0393640Y0174418D01*
X0392863D01*
X0396179Y0181532D01*
X0396356D01*
X0399722Y0174418D01*
D02*
G37*
G36*
X0378142Y0179810D02*
X0378270Y0179781D01*
X0378398Y0179751D01*
X0378506Y0179712D01*
X0378595Y0179663D01*
X0378664Y0179633D01*
X0378703Y0179604D01*
X0378723Y0179594D01*
X0378851Y0179496D01*
X0378969Y0179387D01*
X0379077Y0179279D01*
X0379176Y0179161D01*
X0379254Y0179062D01*
X0379323Y0178984D01*
X0379363Y0178925D01*
X0379372Y0178915D01*
Y0179682D01*
X0380061D01*
Y0174418D01*
X0379372D01*
Y0176199D01*
Y0176445D01*
X0379363Y0176671D01*
Y0176878D01*
X0379353Y0177055D01*
X0379343Y0177222D01*
X0379333Y0177370D01*
X0379323Y0177508D01*
X0379313Y0177616D01*
X0379304Y0177714D01*
X0379294Y0177793D01*
X0379284Y0177862D01*
X0379274Y0177921D01*
X0379264Y0177960D01*
X0379254Y0177990D01*
Y0178000D01*
Y0178010D01*
X0379185Y0178216D01*
X0379107Y0178393D01*
X0379028Y0178541D01*
X0378949Y0178669D01*
X0378880Y0178757D01*
X0378821Y0178826D01*
X0378782Y0178866D01*
X0378772Y0178876D01*
X0378654Y0178974D01*
X0378536Y0179043D01*
X0378428Y0179092D01*
X0378329Y0179121D01*
X0378241Y0179151D01*
X0378182Y0179161D01*
X0378123D01*
X0378005Y0179141D01*
X0377887Y0179112D01*
X0377837Y0179092D01*
X0377798Y0179082D01*
X0377768Y0179062D01*
X0377759D01*
X0377404Y0179633D01*
X0377522Y0179692D01*
X0377631Y0179742D01*
X0377739Y0179771D01*
X0377828Y0179800D01*
X0377896Y0179810D01*
X0377955Y0179820D01*
X0378005D01*
X0378142Y0179810D01*
D02*
G37*
G36*
X0336283D02*
X0336480Y0179781D01*
X0336657Y0179732D01*
X0336824Y0179682D01*
X0336952Y0179633D01*
X0337051Y0179584D01*
X0337090Y0179574D01*
X0337119Y0179554D01*
X0337129Y0179545D01*
X0337139D01*
X0337316Y0179436D01*
X0337484Y0179308D01*
X0337641Y0179171D01*
X0337769Y0179043D01*
X0337877Y0178925D01*
X0337966Y0178826D01*
X0337995Y0178787D01*
X0338015Y0178757D01*
X0338025Y0178748D01*
X0338035Y0178738D01*
Y0179682D01*
X0338714D01*
Y0174418D01*
X0338035D01*
Y0176347D01*
Y0176534D01*
Y0176711D01*
X0338025Y0176868D01*
Y0177016D01*
X0338015Y0177144D01*
X0338005Y0177262D01*
X0337995Y0177360D01*
X0337985Y0177459D01*
Y0177537D01*
X0337976Y0177606D01*
X0337966Y0177665D01*
X0337956Y0177705D01*
Y0177744D01*
X0337946Y0177764D01*
Y0177783D01*
X0337877Y0178000D01*
X0337779Y0178197D01*
X0337670Y0178364D01*
X0337562Y0178511D01*
X0337464Y0178630D01*
X0337385Y0178718D01*
X0337326Y0178767D01*
X0337316Y0178787D01*
X0337306D01*
X0337119Y0178925D01*
X0336923Y0179023D01*
X0336746Y0179102D01*
X0336568Y0179151D01*
X0336421Y0179181D01*
X0336362Y0179190D01*
X0336303D01*
X0336263Y0179200D01*
X0336204D01*
X0336007Y0179190D01*
X0335840Y0179161D01*
X0335693Y0179112D01*
X0335565Y0179072D01*
X0335466Y0179023D01*
X0335397Y0178974D01*
X0335348Y0178944D01*
X0335338Y0178935D01*
X0335220Y0178826D01*
X0335122Y0178698D01*
X0335043Y0178570D01*
X0334984Y0178443D01*
X0334945Y0178324D01*
X0334905Y0178236D01*
X0334896Y0178197D01*
Y0178167D01*
X0334886Y0178157D01*
Y0178147D01*
X0334876Y0178088D01*
X0334856Y0178010D01*
X0334837Y0177832D01*
X0334827Y0177626D01*
X0334817Y0177419D01*
X0334807Y0177232D01*
Y0177154D01*
Y0177075D01*
Y0177016D01*
Y0176967D01*
Y0176937D01*
Y0176927D01*
Y0174418D01*
X0334128D01*
Y0177124D01*
Y0177321D01*
X0334138Y0177498D01*
X0334148Y0177665D01*
X0334167Y0177823D01*
X0334177Y0177970D01*
X0334197Y0178098D01*
X0334217Y0178216D01*
X0334236Y0178315D01*
X0334266Y0178413D01*
X0334285Y0178492D01*
X0334305Y0178561D01*
X0334315Y0178610D01*
X0334335Y0178659D01*
X0334345Y0178689D01*
X0334354Y0178698D01*
Y0178708D01*
X0334443Y0178885D01*
X0334551Y0179053D01*
X0334659Y0179190D01*
X0334768Y0179308D01*
X0334866Y0179397D01*
X0334945Y0179466D01*
X0335004Y0179505D01*
X0335014Y0179515D01*
X0335023D01*
X0335201Y0179613D01*
X0335378Y0179692D01*
X0335555Y0179742D01*
X0335712Y0179781D01*
X0335860Y0179800D01*
X0335968Y0179820D01*
X0336067D01*
X0336283Y0179810D01*
D02*
G37*
G36*
X0346566Y0174418D02*
X0345779D01*
X0344676Y0176750D01*
X0341587D01*
X0340485Y0174418D01*
X0339707D01*
X0343023Y0181532D01*
X0343200D01*
X0346566Y0174418D01*
D02*
G37*
G36*
X0385916Y0177144D02*
Y0176937D01*
X0385906Y0176750D01*
X0385896Y0176573D01*
X0385877Y0176406D01*
X0385857Y0176258D01*
X0385837Y0176120D01*
X0385818Y0175992D01*
X0385788Y0175884D01*
X0385768Y0175786D01*
X0385749Y0175697D01*
X0385729Y0175628D01*
X0385709Y0175569D01*
X0385690Y0175520D01*
X0385680Y0175491D01*
X0385670Y0175471D01*
Y0175461D01*
X0385562Y0175264D01*
X0385444Y0175087D01*
X0385316Y0174940D01*
X0385188Y0174812D01*
X0385080Y0174713D01*
X0384981Y0174644D01*
X0384922Y0174605D01*
X0384912Y0174585D01*
X0384902D01*
X0384696Y0174487D01*
X0384479Y0174408D01*
X0384263Y0174359D01*
X0384066Y0174320D01*
X0383879Y0174300D01*
X0383810Y0174290D01*
X0383741D01*
X0383692Y0174280D01*
X0383613D01*
X0383338Y0174290D01*
X0383092Y0174329D01*
X0382875Y0174379D01*
X0382688Y0174438D01*
X0382541Y0174487D01*
X0382472Y0174516D01*
X0382423Y0174536D01*
X0382383Y0174556D01*
X0382354Y0174575D01*
X0382344Y0174585D01*
X0382334D01*
X0382157Y0174713D01*
X0382000Y0174851D01*
X0381862Y0174999D01*
X0381754Y0175136D01*
X0381675Y0175264D01*
X0381616Y0175363D01*
X0381596Y0175402D01*
X0381576Y0175432D01*
X0381567Y0175441D01*
Y0175451D01*
X0381518Y0175559D01*
X0381478Y0175678D01*
X0381419Y0175943D01*
X0381370Y0176209D01*
X0381340Y0176484D01*
X0381330Y0176602D01*
X0381321Y0176721D01*
Y0176829D01*
X0381311Y0176917D01*
Y0176986D01*
Y0177045D01*
Y0177085D01*
Y0177094D01*
Y0179682D01*
X0382000D01*
Y0177222D01*
Y0177045D01*
Y0176878D01*
X0382010Y0176730D01*
X0382019Y0176602D01*
X0382029Y0176484D01*
Y0176376D01*
X0382039Y0176278D01*
X0382049Y0176199D01*
X0382059Y0176130D01*
X0382068Y0176071D01*
X0382078Y0176022D01*
X0382088Y0175983D01*
X0382098Y0175943D01*
X0382108Y0175924D01*
X0382177Y0175766D01*
X0382256Y0175628D01*
X0382344Y0175500D01*
X0382433Y0175402D01*
X0382521Y0175313D01*
X0382580Y0175254D01*
X0382629Y0175215D01*
X0382649Y0175205D01*
X0382806Y0175117D01*
X0382964Y0175048D01*
X0383131Y0175008D01*
X0383279Y0174969D01*
X0383417Y0174949D01*
X0383515Y0174940D01*
X0383613D01*
X0383820Y0174949D01*
X0384007Y0174979D01*
X0384174Y0175028D01*
X0384322Y0175077D01*
X0384440Y0175127D01*
X0384519Y0175176D01*
X0384578Y0175205D01*
X0384597Y0175215D01*
X0384735Y0175333D01*
X0384853Y0175451D01*
X0384952Y0175579D01*
X0385020Y0175707D01*
X0385080Y0175815D01*
X0385119Y0175904D01*
X0385139Y0175963D01*
X0385149Y0175973D01*
Y0175983D01*
X0385168Y0176051D01*
X0385178Y0176130D01*
X0385198Y0176317D01*
X0385217Y0176524D01*
X0385227Y0176730D01*
Y0176917D01*
X0385237Y0177006D01*
Y0177075D01*
Y0177134D01*
Y0177183D01*
Y0177213D01*
Y0177222D01*
Y0179682D01*
X0385916D01*
Y0177144D01*
D02*
G37*
G36*
X0350886Y0175471D02*
X0350964Y0175451D01*
X0351043Y0175422D01*
X0351102Y0175392D01*
X0351151Y0175363D01*
X0351191Y0175333D01*
X0351210Y0175313D01*
X0351220Y0175304D01*
X0351279Y0175235D01*
X0351319Y0175166D01*
X0351348Y0175097D01*
X0351368Y0175028D01*
X0351378Y0174969D01*
X0351387Y0174920D01*
Y0174890D01*
Y0174881D01*
X0351378Y0174792D01*
X0351358Y0174703D01*
X0351338Y0174635D01*
X0351299Y0174566D01*
X0351269Y0174516D01*
X0351250Y0174477D01*
X0351230Y0174457D01*
X0351220Y0174448D01*
X0351151Y0174389D01*
X0351082Y0174349D01*
X0351004Y0174320D01*
X0350945Y0174300D01*
X0350886Y0174290D01*
X0350836Y0174280D01*
X0350797D01*
X0350708Y0174290D01*
X0350630Y0174310D01*
X0350551Y0174329D01*
X0350492Y0174369D01*
X0350443Y0174398D01*
X0350403Y0174418D01*
X0350384Y0174438D01*
X0350374Y0174448D01*
X0350315Y0174516D01*
X0350275Y0174595D01*
X0350236Y0174664D01*
X0350216Y0174733D01*
X0350207Y0174792D01*
X0350197Y0174841D01*
Y0174871D01*
Y0174881D01*
X0350207Y0174969D01*
X0350226Y0175048D01*
X0350256Y0175127D01*
X0350285Y0175186D01*
X0350315Y0175235D01*
X0350344Y0175274D01*
X0350364Y0175294D01*
X0350374Y0175304D01*
X0350443Y0175363D01*
X0350512Y0175402D01*
X0350581Y0175441D01*
X0350649Y0175461D01*
X0350708Y0175471D01*
X0350758Y0175481D01*
X0350797D01*
X0350886Y0175471D01*
D02*
G37*
G36*
X0305356Y0174418D02*
X0303408D01*
X0303211Y0174428D01*
X0303034Y0174448D01*
X0302856Y0174477D01*
X0302699Y0174507D01*
X0302552Y0174556D01*
X0302414Y0174605D01*
X0302286Y0174654D01*
X0302168Y0174713D01*
X0302069Y0174772D01*
X0301981Y0174821D01*
X0301902Y0174871D01*
X0301843Y0174920D01*
X0301794Y0174949D01*
X0301754Y0174979D01*
X0301735Y0174999D01*
X0301725Y0175008D01*
X0301617Y0175127D01*
X0301518Y0175245D01*
X0301430Y0175363D01*
X0301361Y0175481D01*
X0301302Y0175609D01*
X0301253Y0175727D01*
X0301174Y0175953D01*
X0301144Y0176061D01*
X0301125Y0176150D01*
X0301115Y0176238D01*
X0301105Y0176317D01*
X0301095Y0176376D01*
Y0176416D01*
Y0176445D01*
Y0176455D01*
X0301105Y0176612D01*
X0301125Y0176760D01*
X0301144Y0176888D01*
X0301174Y0177006D01*
X0301213Y0177094D01*
X0301233Y0177173D01*
X0301253Y0177213D01*
X0301262Y0177232D01*
X0301331Y0177360D01*
X0301410Y0177478D01*
X0301489Y0177586D01*
X0301558Y0177675D01*
X0301626Y0177754D01*
X0301686Y0177803D01*
X0301725Y0177842D01*
X0301735Y0177852D01*
X0301853Y0177941D01*
X0301991Y0178029D01*
X0302128Y0178108D01*
X0302266Y0178167D01*
X0302394Y0178226D01*
X0302492Y0178266D01*
X0302532Y0178275D01*
X0302561Y0178285D01*
X0302571Y0178295D01*
X0302581D01*
X0302424Y0178393D01*
X0302286Y0178492D01*
X0302178Y0178600D01*
X0302079Y0178698D01*
X0302010Y0178787D01*
X0301951Y0178856D01*
X0301922Y0178905D01*
X0301912Y0178925D01*
X0301833Y0179072D01*
X0301774Y0179230D01*
X0301735Y0179367D01*
X0301705Y0179505D01*
X0301686Y0179623D01*
X0301676Y0179712D01*
Y0179771D01*
Y0179781D01*
Y0179791D01*
X0301686Y0179978D01*
X0301715Y0180145D01*
X0301764Y0180302D01*
X0301804Y0180440D01*
X0301853Y0180548D01*
X0301902Y0180637D01*
X0301932Y0180686D01*
X0301941Y0180706D01*
X0302050Y0180853D01*
X0302168Y0180981D01*
X0302286Y0181089D01*
X0302404Y0181178D01*
X0302502Y0181237D01*
X0302581Y0181286D01*
X0302640Y0181316D01*
X0302650Y0181326D01*
X0302660D01*
X0302847Y0181395D01*
X0303053Y0181444D01*
X0303270Y0181483D01*
X0303477Y0181503D01*
X0303663Y0181523D01*
X0303752D01*
X0303821Y0181532D01*
X0305356D01*
Y0174418D01*
D02*
G37*
G36*
X0320696Y0179810D02*
X0320923Y0179781D01*
X0321139Y0179732D01*
X0321336Y0179663D01*
X0321523Y0179584D01*
X0321690Y0179505D01*
X0321848Y0179417D01*
X0321995Y0179318D01*
X0322123Y0179230D01*
X0322232Y0179131D01*
X0322330Y0179053D01*
X0322409Y0178974D01*
X0322468Y0178905D01*
X0322507Y0178856D01*
X0322536Y0178826D01*
X0322546Y0178816D01*
X0322655Y0178669D01*
X0322743Y0178511D01*
X0322832Y0178364D01*
X0322901Y0178206D01*
X0322960Y0178059D01*
X0323009Y0177911D01*
X0323078Y0177636D01*
X0323107Y0177508D01*
X0323127Y0177390D01*
X0323137Y0177291D01*
X0323147Y0177203D01*
X0323156Y0177134D01*
Y0177085D01*
Y0177045D01*
Y0177035D01*
X0323147Y0176839D01*
X0323127Y0176642D01*
X0323088Y0176465D01*
X0323048Y0176288D01*
X0322989Y0176120D01*
X0322930Y0175953D01*
X0322861Y0175805D01*
X0322792Y0175678D01*
X0322733Y0175550D01*
X0322664Y0175441D01*
X0322605Y0175343D01*
X0322546Y0175264D01*
X0322507Y0175205D01*
X0322468Y0175156D01*
X0322448Y0175127D01*
X0322438Y0175117D01*
X0322290Y0174969D01*
X0322143Y0174841D01*
X0321986Y0174733D01*
X0321818Y0174635D01*
X0321651Y0174556D01*
X0321484Y0174487D01*
X0321316Y0174428D01*
X0321159Y0174389D01*
X0321002Y0174349D01*
X0320864Y0174329D01*
X0320746Y0174310D01*
X0320637Y0174290D01*
X0320549D01*
X0320480Y0174280D01*
X0320421D01*
X0320214Y0174290D01*
X0320018Y0174310D01*
X0319840Y0174329D01*
X0319683Y0174369D01*
X0319565Y0174398D01*
X0319466Y0174418D01*
X0319407Y0174438D01*
X0319388Y0174448D01*
X0319220Y0174516D01*
X0319063Y0174605D01*
X0318925Y0174684D01*
X0318797Y0174772D01*
X0318699Y0174841D01*
X0318620Y0174900D01*
X0318581Y0174949D01*
X0318561Y0174959D01*
X0318423Y0175097D01*
X0318296Y0175245D01*
X0318187Y0175392D01*
X0318089Y0175540D01*
X0318010Y0175658D01*
X0317951Y0175766D01*
X0317931Y0175805D01*
X0317912Y0175835D01*
X0317902Y0175845D01*
Y0175855D01*
X0318482Y0176160D01*
X0318591Y0175983D01*
X0318699Y0175825D01*
X0318797Y0175687D01*
X0318886Y0175589D01*
X0318955Y0175500D01*
X0319004Y0175451D01*
X0319043Y0175412D01*
X0319053Y0175402D01*
X0319161Y0175323D01*
X0319270Y0175254D01*
X0319378Y0175186D01*
X0319476Y0175136D01*
X0319565Y0175097D01*
X0319634Y0175067D01*
X0319683Y0175048D01*
X0319703Y0175038D01*
X0319840Y0174989D01*
X0319978Y0174959D01*
X0320116Y0174930D01*
X0320234Y0174920D01*
X0320332Y0174910D01*
X0320411Y0174900D01*
X0320480D01*
X0320637Y0174910D01*
X0320785Y0174930D01*
X0320923Y0174949D01*
X0321051Y0174989D01*
X0321297Y0175087D01*
X0321494Y0175195D01*
X0321582Y0175245D01*
X0321661Y0175294D01*
X0321730Y0175343D01*
X0321789Y0175392D01*
X0321828Y0175432D01*
X0321858Y0175451D01*
X0321877Y0175471D01*
X0321887Y0175481D01*
X0321986Y0175599D01*
X0322074Y0175717D01*
X0322143Y0175845D01*
X0322212Y0175963D01*
X0322310Y0176219D01*
X0322379Y0176465D01*
X0322409Y0176573D01*
X0322428Y0176671D01*
X0322438Y0176760D01*
X0322448Y0176839D01*
X0322458Y0176908D01*
Y0176957D01*
Y0176986D01*
Y0176996D01*
X0317725D01*
X0317735Y0177193D01*
X0317754Y0177380D01*
X0317784Y0177557D01*
X0317823Y0177734D01*
X0317863Y0177892D01*
X0317912Y0178039D01*
X0317971Y0178177D01*
X0318020Y0178295D01*
X0318079Y0178413D01*
X0318128Y0178511D01*
X0318177Y0178600D01*
X0318227Y0178669D01*
X0318266Y0178718D01*
X0318286Y0178767D01*
X0318305Y0178787D01*
X0318315Y0178797D01*
X0318473Y0178974D01*
X0318640Y0179131D01*
X0318807Y0179269D01*
X0318984Y0179387D01*
X0319161Y0179486D01*
X0319348Y0179574D01*
X0319516Y0179643D01*
X0319683Y0179692D01*
X0319840Y0179732D01*
X0319988Y0179771D01*
X0320126Y0179791D01*
X0320234Y0179800D01*
X0320332Y0179810D01*
X0320401Y0179820D01*
X0320460D01*
X0320696Y0179810D01*
D02*
G37*
G36*
X0324219D02*
X0324347Y0179781D01*
X0324475Y0179751D01*
X0324583Y0179712D01*
X0324672Y0179663D01*
X0324741Y0179633D01*
X0324780Y0179604D01*
X0324800Y0179594D01*
X0324928Y0179496D01*
X0325046Y0179387D01*
X0325154Y0179279D01*
X0325252Y0179161D01*
X0325331Y0179062D01*
X0325400Y0178984D01*
X0325439Y0178925D01*
X0325449Y0178915D01*
Y0179682D01*
X0326138D01*
Y0174418D01*
X0325449D01*
Y0176199D01*
Y0176445D01*
X0325439Y0176671D01*
Y0176878D01*
X0325430Y0177055D01*
X0325420Y0177222D01*
X0325410Y0177370D01*
X0325400Y0177508D01*
X0325390Y0177616D01*
X0325380Y0177714D01*
X0325370Y0177793D01*
X0325361Y0177862D01*
X0325351Y0177921D01*
X0325341Y0177960D01*
X0325331Y0177990D01*
Y0178000D01*
Y0178010D01*
X0325262Y0178216D01*
X0325184Y0178393D01*
X0325105Y0178541D01*
X0325026Y0178669D01*
X0324957Y0178757D01*
X0324898Y0178826D01*
X0324859Y0178866D01*
X0324849Y0178876D01*
X0324731Y0178974D01*
X0324613Y0179043D01*
X0324504Y0179092D01*
X0324406Y0179121D01*
X0324318Y0179151D01*
X0324258Y0179161D01*
X0324200D01*
X0324081Y0179141D01*
X0323963Y0179112D01*
X0323914Y0179092D01*
X0323875Y0179082D01*
X0323845Y0179062D01*
X0323835D01*
X0323481Y0179633D01*
X0323599Y0179692D01*
X0323708Y0179742D01*
X0323816Y0179771D01*
X0323904Y0179800D01*
X0323973Y0179810D01*
X0324032Y0179820D01*
X0324081D01*
X0324219Y0179810D01*
D02*
G37*
G36*
X0358305Y0194188D02*
X0355796D01*
X0355569Y0194208D01*
X0355353Y0194228D01*
X0355156Y0194248D01*
X0354969Y0194277D01*
X0354802Y0194307D01*
X0354644Y0194346D01*
X0354507Y0194385D01*
X0354389Y0194415D01*
X0354280Y0194454D01*
X0354182Y0194484D01*
X0354113Y0194513D01*
X0354054Y0194533D01*
X0354005Y0194553D01*
X0353985Y0194572D01*
X0353975D01*
X0353838Y0194651D01*
X0353710Y0194730D01*
X0353473Y0194917D01*
X0353267Y0195114D01*
X0353100Y0195310D01*
X0352962Y0195487D01*
X0352903Y0195566D01*
X0352854Y0195635D01*
X0352824Y0195684D01*
X0352795Y0195724D01*
X0352785Y0195753D01*
X0352775Y0195763D01*
X0352696Y0195920D01*
X0352617Y0196078D01*
X0352509Y0196403D01*
X0352421Y0196717D01*
X0352371Y0197013D01*
X0352352Y0197150D01*
X0352332Y0197268D01*
X0352322Y0197377D01*
Y0197475D01*
X0352312Y0197544D01*
Y0197603D01*
Y0197642D01*
Y0197652D01*
X0352322Y0197879D01*
X0352342Y0198105D01*
X0352371Y0198311D01*
X0352401Y0198508D01*
X0352450Y0198695D01*
X0352499Y0198872D01*
X0352549Y0199040D01*
X0352608Y0199187D01*
X0352667Y0199315D01*
X0352716Y0199443D01*
X0352765Y0199541D01*
X0352814Y0199630D01*
X0352844Y0199699D01*
X0352873Y0199748D01*
X0352893Y0199778D01*
X0352903Y0199787D01*
X0353021Y0199945D01*
X0353139Y0200102D01*
X0353267Y0200240D01*
X0353395Y0200358D01*
X0353533Y0200476D01*
X0353670Y0200575D01*
X0353798Y0200663D01*
X0353926Y0200752D01*
X0354044Y0200821D01*
X0354162Y0200880D01*
X0354261Y0200929D01*
X0354349Y0200968D01*
X0354418Y0200998D01*
X0354467Y0201017D01*
X0354507Y0201037D01*
X0354517D01*
X0354664Y0201086D01*
X0354822Y0201126D01*
X0354999Y0201165D01*
X0355186Y0201195D01*
X0355569Y0201234D01*
X0355943Y0201273D01*
X0356130Y0201283D01*
X0356298Y0201293D01*
X0356445D01*
X0356573Y0201303D01*
X0358305D01*
Y0194188D01*
D02*
G37*
G36*
X0363609D02*
X0359564D01*
Y0194887D01*
X0362900D01*
Y0197682D01*
X0359564D01*
Y0198380D01*
X0362900D01*
Y0200604D01*
X0359535D01*
Y0201303D01*
X0363609D01*
Y0194188D01*
D02*
G37*
G36*
X0337567Y0192480D02*
X0337744Y0192461D01*
X0337912Y0192431D01*
X0338069Y0192382D01*
X0338207Y0192333D01*
X0338345Y0192274D01*
X0338472Y0192215D01*
X0338591Y0192156D01*
X0338699Y0192087D01*
X0338787Y0192028D01*
X0338866Y0191969D01*
X0338935Y0191919D01*
X0338984Y0191870D01*
X0339023Y0191841D01*
X0339043Y0191821D01*
X0339053Y0191811D01*
X0339171Y0191683D01*
X0339279Y0191545D01*
X0339368Y0191398D01*
X0339447Y0191260D01*
X0339515Y0191113D01*
X0339575Y0190965D01*
X0339653Y0190699D01*
X0339683Y0190571D01*
X0339712Y0190453D01*
X0339722Y0190355D01*
X0339742Y0190266D01*
Y0190188D01*
X0339752Y0190138D01*
Y0190099D01*
Y0190089D01*
X0339073D01*
X0339033Y0190375D01*
X0338964Y0190630D01*
X0338886Y0190847D01*
X0338797Y0191034D01*
X0338709Y0191172D01*
X0338669Y0191231D01*
X0338630Y0191280D01*
X0338600Y0191309D01*
X0338581Y0191339D01*
X0338561Y0191349D01*
Y0191358D01*
X0338472Y0191437D01*
X0338384Y0191516D01*
X0338197Y0191624D01*
X0338000Y0191713D01*
X0337823Y0191762D01*
X0337666Y0191801D01*
X0337597Y0191811D01*
X0337538D01*
X0337498Y0191821D01*
X0337311D01*
X0337193Y0191801D01*
X0336987Y0191752D01*
X0336800Y0191683D01*
X0336632Y0191604D01*
X0336504Y0191516D01*
X0336406Y0191447D01*
X0336377Y0191418D01*
X0336347Y0191398D01*
X0336337Y0191388D01*
X0336327Y0191378D01*
X0336249Y0191299D01*
X0336180Y0191211D01*
X0336062Y0191034D01*
X0335983Y0190857D01*
X0335934Y0190699D01*
X0335894Y0190561D01*
X0335884Y0190443D01*
X0335875Y0190404D01*
Y0190375D01*
Y0190355D01*
Y0190345D01*
X0335884Y0190168D01*
X0335914Y0190001D01*
X0335953Y0189853D01*
X0336003Y0189715D01*
X0336052Y0189597D01*
X0336091Y0189518D01*
X0336121Y0189459D01*
X0336130Y0189450D01*
Y0189440D01*
X0336180Y0189351D01*
X0336249Y0189263D01*
X0336406Y0189056D01*
X0336573Y0188839D01*
X0336760Y0188623D01*
X0336928Y0188436D01*
X0337006Y0188347D01*
X0337065Y0188279D01*
X0337124Y0188220D01*
X0337164Y0188170D01*
X0337193Y0188141D01*
X0337203Y0188131D01*
X0339919Y0185199D01*
X0335087D01*
Y0185878D01*
X0338384D01*
X0336603Y0187787D01*
X0336455Y0187954D01*
X0336317Y0188111D01*
X0336190Y0188259D01*
X0336071Y0188397D01*
X0335973Y0188525D01*
X0335884Y0188643D01*
X0335796Y0188751D01*
X0335727Y0188849D01*
X0335668Y0188928D01*
X0335619Y0189007D01*
X0335570Y0189076D01*
X0335540Y0189125D01*
X0335511Y0189164D01*
X0335491Y0189204D01*
X0335481Y0189213D01*
Y0189223D01*
X0335383Y0189420D01*
X0335314Y0189627D01*
X0335255Y0189814D01*
X0335225Y0189991D01*
X0335206Y0190138D01*
X0335196Y0190197D01*
X0335186Y0190257D01*
Y0190296D01*
Y0190325D01*
Y0190345D01*
Y0190355D01*
X0335196Y0190512D01*
X0335215Y0190670D01*
X0335245Y0190817D01*
X0335284Y0190955D01*
X0335383Y0191211D01*
X0335432Y0191319D01*
X0335491Y0191427D01*
X0335550Y0191526D01*
X0335599Y0191604D01*
X0335658Y0191683D01*
X0335698Y0191742D01*
X0335737Y0191791D01*
X0335766Y0191821D01*
X0335786Y0191841D01*
X0335796Y0191850D01*
X0335914Y0191959D01*
X0336042Y0192057D01*
X0336170Y0192146D01*
X0336298Y0192225D01*
X0336436Y0192283D01*
X0336563Y0192333D01*
X0336819Y0192411D01*
X0336937Y0192441D01*
X0337046Y0192461D01*
X0337144Y0192471D01*
X0337223Y0192480D01*
X0337292Y0192490D01*
X0337390D01*
X0337567Y0192480D01*
D02*
G37*
G36*
X0350600Y0163637D02*
X0349813D01*
X0348711Y0165969D01*
X0345621D01*
X0344519Y0163637D01*
X0343742D01*
X0347058Y0170752D01*
X0347235D01*
X0350600Y0163637D01*
D02*
G37*
G36*
X0379240Y0185199D02*
X0379082D01*
X0375982Y0192313D01*
X0376750D01*
X0379151Y0186783D01*
X0381522Y0192313D01*
X0382290D01*
X0379240Y0185199D01*
D02*
G37*
G36*
X0368194Y0194188D02*
X0364750D01*
Y0194887D01*
X0367486D01*
Y0201303D01*
X0368194D01*
Y0194188D01*
D02*
G37*
G36*
X0348209D02*
X0347501D01*
Y0197623D01*
X0343860D01*
Y0194188D01*
X0343151D01*
Y0201303D01*
X0343860D01*
Y0198321D01*
X0347501D01*
Y0201303D01*
X0348209D01*
Y0194188D01*
D02*
G37*
G36*
X0335466D02*
X0334787D01*
Y0195153D01*
X0334630Y0194956D01*
X0334482Y0194789D01*
X0334325Y0194651D01*
X0334177Y0194533D01*
X0334059Y0194444D01*
X0333961Y0194376D01*
X0333921Y0194356D01*
X0333892Y0194336D01*
X0333882Y0194326D01*
X0333872D01*
X0333675Y0194238D01*
X0333469Y0194169D01*
X0333272Y0194120D01*
X0333095Y0194090D01*
X0332937Y0194070D01*
X0332869Y0194061D01*
X0332809Y0194051D01*
X0332701D01*
X0332495Y0194061D01*
X0332298Y0194090D01*
X0332111Y0194130D01*
X0331934Y0194179D01*
X0331766Y0194238D01*
X0331609Y0194307D01*
X0331461Y0194376D01*
X0331333Y0194454D01*
X0331206Y0194533D01*
X0331107Y0194602D01*
X0331009Y0194671D01*
X0330930Y0194730D01*
X0330871Y0194779D01*
X0330832Y0194828D01*
X0330802Y0194848D01*
X0330792Y0194858D01*
X0330655Y0195015D01*
X0330527Y0195173D01*
X0330418Y0195340D01*
X0330330Y0195507D01*
X0330251Y0195665D01*
X0330182Y0195832D01*
X0330133Y0195989D01*
X0330084Y0196137D01*
X0330054Y0196275D01*
X0330025Y0196403D01*
X0330005Y0196521D01*
X0329995Y0196619D01*
Y0196698D01*
X0329985Y0196757D01*
Y0196796D01*
Y0196806D01*
X0329995Y0197022D01*
X0330015Y0197229D01*
X0330054Y0197416D01*
X0330113Y0197603D01*
X0330172Y0197780D01*
X0330241Y0197938D01*
X0330310Y0198085D01*
X0330379Y0198223D01*
X0330458Y0198351D01*
X0330527Y0198459D01*
X0330595Y0198548D01*
X0330655Y0198626D01*
X0330704Y0198695D01*
X0330743Y0198735D01*
X0330773Y0198764D01*
X0330783Y0198774D01*
X0330930Y0198922D01*
X0331087Y0199040D01*
X0331245Y0199158D01*
X0331412Y0199246D01*
X0331570Y0199325D01*
X0331727Y0199394D01*
X0331885Y0199443D01*
X0332022Y0199492D01*
X0332160Y0199522D01*
X0332288Y0199551D01*
X0332396Y0199561D01*
X0332495Y0199581D01*
X0332573D01*
X0332632Y0199591D01*
X0332682D01*
X0332908Y0199581D01*
X0333124Y0199551D01*
X0333321Y0199502D01*
X0333498Y0199463D01*
X0333646Y0199414D01*
X0333695Y0199384D01*
X0333754Y0199364D01*
X0333793Y0199355D01*
X0333823Y0199335D01*
X0333833Y0199325D01*
X0333843D01*
X0334030Y0199217D01*
X0334207Y0199099D01*
X0334374Y0198971D01*
X0334512Y0198843D01*
X0334630Y0198725D01*
X0334709Y0198636D01*
X0334748Y0198597D01*
X0334768Y0198567D01*
X0334777Y0198557D01*
X0334787Y0198548D01*
Y0201480D01*
X0335466D01*
Y0194188D01*
D02*
G37*
G36*
X0341380Y0170919D02*
X0341538Y0170889D01*
X0341685Y0170860D01*
X0341813Y0170820D01*
X0341921Y0170771D01*
X0342010Y0170742D01*
X0342059Y0170712D01*
X0342079Y0170702D01*
X0342216Y0170614D01*
X0342344Y0170516D01*
X0342453Y0170417D01*
X0342541Y0170319D01*
X0342620Y0170240D01*
X0342669Y0170161D01*
X0342699Y0170122D01*
X0342708Y0170102D01*
X0342777Y0169955D01*
X0342836Y0169807D01*
X0342876Y0169669D01*
X0342896Y0169532D01*
X0342915Y0169423D01*
X0342925Y0169335D01*
Y0169276D01*
Y0169266D01*
Y0169256D01*
X0342905Y0169039D01*
X0342866Y0168833D01*
X0342807Y0168656D01*
X0342738Y0168488D01*
X0342669Y0168351D01*
X0342610Y0168252D01*
X0342581Y0168213D01*
X0342571Y0168183D01*
X0342551Y0168174D01*
Y0168164D01*
X0342502Y0168105D01*
X0342443Y0168036D01*
X0342364Y0167967D01*
X0342285Y0167888D01*
X0342108Y0167731D01*
X0341912Y0167563D01*
X0341734Y0167416D01*
X0341656Y0167357D01*
X0341587Y0167298D01*
X0341528Y0167258D01*
X0341478Y0167219D01*
X0341449Y0167199D01*
X0341439Y0167190D01*
X0341282Y0167071D01*
X0341134Y0166953D01*
X0340996Y0166835D01*
X0340878Y0166737D01*
X0340760Y0166629D01*
X0340662Y0166540D01*
X0340573Y0166452D01*
X0340494Y0166373D01*
X0340426Y0166304D01*
X0340367Y0166235D01*
X0340288Y0166137D01*
X0340258Y0166097D01*
X0340239Y0166068D01*
X0340219Y0166058D01*
Y0166048D01*
X0340140Y0165920D01*
X0340081Y0165802D01*
X0340032Y0165684D01*
X0340002Y0165576D01*
X0339983Y0165487D01*
X0339973Y0165409D01*
Y0165369D01*
Y0165349D01*
X0339983Y0165231D01*
X0340002Y0165123D01*
X0340022Y0165025D01*
X0340052Y0164936D01*
X0340091Y0164857D01*
X0340111Y0164798D01*
X0340130Y0164759D01*
X0340140Y0164749D01*
X0340209Y0164651D01*
X0340288Y0164562D01*
X0340367Y0164483D01*
X0340445Y0164425D01*
X0340514Y0164375D01*
X0340573Y0164336D01*
X0340613Y0164316D01*
X0340622Y0164306D01*
X0340740Y0164257D01*
X0340859Y0164218D01*
X0340977Y0164188D01*
X0341075Y0164169D01*
X0341174Y0164159D01*
X0341242Y0164149D01*
X0341301D01*
X0341459Y0164159D01*
X0341606Y0164198D01*
X0341744Y0164257D01*
X0341882Y0164336D01*
X0342010Y0164425D01*
X0342138Y0164523D01*
X0342354Y0164739D01*
X0342443Y0164848D01*
X0342531Y0164946D01*
X0342600Y0165044D01*
X0342659Y0165133D01*
X0342708Y0165212D01*
X0342748Y0165271D01*
X0342768Y0165310D01*
X0342777Y0165320D01*
X0343378Y0164956D01*
X0343289Y0164808D01*
X0343210Y0164671D01*
X0343122Y0164543D01*
X0343043Y0164434D01*
X0342954Y0164326D01*
X0342876Y0164228D01*
X0342797Y0164149D01*
X0342728Y0164070D01*
X0342600Y0163942D01*
X0342502Y0163864D01*
X0342462Y0163834D01*
X0342433Y0163814D01*
X0342423Y0163795D01*
X0342413D01*
X0342207Y0163687D01*
X0342000Y0163598D01*
X0341803Y0163539D01*
X0341626Y0163499D01*
X0341469Y0163480D01*
X0341400Y0163470D01*
X0341341D01*
X0341292Y0163460D01*
X0341232D01*
X0341075Y0163470D01*
X0340928Y0163480D01*
X0340790Y0163509D01*
X0340652Y0163549D01*
X0340406Y0163637D01*
X0340298Y0163687D01*
X0340199Y0163746D01*
X0340111Y0163795D01*
X0340022Y0163844D01*
X0339963Y0163893D01*
X0339904Y0163933D01*
X0339855Y0163972D01*
X0339825Y0164001D01*
X0339806Y0164011D01*
X0339796Y0164021D01*
X0339688Y0164129D01*
X0339599Y0164247D01*
X0339520Y0164356D01*
X0339452Y0164474D01*
X0339392Y0164592D01*
X0339353Y0164700D01*
X0339274Y0164907D01*
X0339235Y0165094D01*
X0339225Y0165172D01*
X0339215Y0165241D01*
X0339206Y0165290D01*
Y0165340D01*
Y0165359D01*
Y0165369D01*
X0339225Y0165566D01*
X0339264Y0165763D01*
X0339314Y0165940D01*
X0339383Y0166097D01*
X0339452Y0166235D01*
X0339501Y0166343D01*
X0339530Y0166383D01*
X0339540Y0166412D01*
X0339560Y0166422D01*
Y0166432D01*
X0339629Y0166530D01*
X0339717Y0166639D01*
X0339904Y0166845D01*
X0340111Y0167052D01*
X0340327Y0167239D01*
X0340514Y0167406D01*
X0340603Y0167475D01*
X0340682Y0167534D01*
X0340740Y0167583D01*
X0340790Y0167622D01*
X0340819Y0167642D01*
X0340829Y0167652D01*
X0340967Y0167750D01*
X0341095Y0167849D01*
X0341203Y0167928D01*
X0341301Y0168006D01*
X0341390Y0168065D01*
X0341459Y0168124D01*
X0341528Y0168174D01*
X0341587Y0168223D01*
X0341666Y0168292D01*
X0341715Y0168331D01*
X0341744Y0168351D01*
X0341754Y0168360D01*
X0341843Y0168459D01*
X0341921Y0168547D01*
X0341980Y0168626D01*
X0342030Y0168695D01*
X0342059Y0168754D01*
X0342089Y0168793D01*
X0342098Y0168823D01*
X0342108Y0168833D01*
X0342158Y0169000D01*
X0342177Y0169069D01*
X0342187Y0169138D01*
Y0169197D01*
X0342197Y0169246D01*
Y0169276D01*
Y0169286D01*
X0342187Y0169423D01*
X0342158Y0169541D01*
X0342108Y0169650D01*
X0342059Y0169748D01*
X0342020Y0169817D01*
X0341970Y0169876D01*
X0341941Y0169915D01*
X0341931Y0169925D01*
X0341823Y0170014D01*
X0341705Y0170082D01*
X0341587Y0170122D01*
X0341469Y0170161D01*
X0341370Y0170181D01*
X0341292Y0170191D01*
X0341223D01*
X0341095Y0170181D01*
X0340977Y0170161D01*
X0340878Y0170132D01*
X0340780Y0170102D01*
X0340711Y0170073D01*
X0340652Y0170043D01*
X0340613Y0170024D01*
X0340603Y0170014D01*
X0340494Y0169935D01*
X0340376Y0169836D01*
X0340258Y0169718D01*
X0340150Y0169600D01*
X0340052Y0169492D01*
X0339983Y0169404D01*
X0339934Y0169335D01*
X0339914Y0169325D01*
Y0169315D01*
X0339324Y0169748D01*
X0339412Y0169866D01*
X0339501Y0169984D01*
X0339678Y0170181D01*
X0339835Y0170338D01*
X0339973Y0170466D01*
X0340091Y0170555D01*
X0340180Y0170624D01*
X0340239Y0170663D01*
X0340248Y0170673D01*
X0340258D01*
X0340426Y0170762D01*
X0340593Y0170820D01*
X0340750Y0170870D01*
X0340888Y0170899D01*
X0341016Y0170919D01*
X0341114Y0170929D01*
X0341203D01*
X0341380Y0170919D01*
D02*
G37*
G36*
X0337700Y0163637D02*
X0336992D01*
Y0166944D01*
X0336253D01*
X0336027Y0166953D01*
X0335830D01*
X0335643Y0166963D01*
X0335476Y0166973D01*
X0335329Y0166983D01*
X0335201Y0166993D01*
X0335083Y0167003D01*
X0334984Y0167012D01*
X0334905Y0167022D01*
X0334827D01*
X0334777Y0167032D01*
X0334728Y0167042D01*
X0334699Y0167052D01*
X0334679D01*
X0334443Y0167130D01*
X0334236Y0167219D01*
X0334059Y0167317D01*
X0333912Y0167426D01*
X0333803Y0167524D01*
X0333715Y0167603D01*
X0333666Y0167652D01*
X0333646Y0167672D01*
X0333518Y0167859D01*
X0333420Y0168055D01*
X0333351Y0168252D01*
X0333311Y0168439D01*
X0333282Y0168597D01*
X0333272Y0168675D01*
Y0168734D01*
X0333262Y0168784D01*
Y0168823D01*
Y0168843D01*
Y0168852D01*
X0333282Y0169108D01*
X0333321Y0169335D01*
X0333390Y0169532D01*
X0333459Y0169709D01*
X0333528Y0169836D01*
X0333597Y0169945D01*
X0333616Y0169974D01*
X0333636Y0170004D01*
X0333656Y0170014D01*
Y0170024D01*
X0333813Y0170181D01*
X0333971Y0170319D01*
X0334138Y0170427D01*
X0334295Y0170506D01*
X0334433Y0170565D01*
X0334551Y0170614D01*
X0334591Y0170624D01*
X0334620Y0170633D01*
X0334640Y0170643D01*
X0334650D01*
X0334738Y0170663D01*
X0334837Y0170683D01*
X0334955Y0170693D01*
X0335083Y0170702D01*
X0335358Y0170722D01*
X0335634Y0170742D01*
X0335880D01*
X0335998Y0170752D01*
X0337700D01*
Y0163637D01*
D02*
G37*
G36*
X0341616Y0196914D02*
Y0196708D01*
X0341606Y0196521D01*
X0341597Y0196344D01*
X0341577Y0196176D01*
X0341557Y0196029D01*
X0341538Y0195891D01*
X0341518Y0195763D01*
X0341488Y0195655D01*
X0341469Y0195556D01*
X0341449Y0195468D01*
X0341429Y0195399D01*
X0341410Y0195340D01*
X0341390Y0195291D01*
X0341380Y0195261D01*
X0341370Y0195241D01*
Y0195232D01*
X0341262Y0195035D01*
X0341144Y0194858D01*
X0341016Y0194710D01*
X0340888Y0194582D01*
X0340780Y0194484D01*
X0340682Y0194415D01*
X0340622Y0194376D01*
X0340613Y0194356D01*
X0340603D01*
X0340396Y0194257D01*
X0340180Y0194179D01*
X0339963Y0194130D01*
X0339766Y0194090D01*
X0339579Y0194070D01*
X0339510Y0194061D01*
X0339442D01*
X0339392Y0194051D01*
X0339314D01*
X0339038Y0194061D01*
X0338792Y0194100D01*
X0338576Y0194149D01*
X0338389Y0194208D01*
X0338241Y0194257D01*
X0338172Y0194287D01*
X0338123Y0194307D01*
X0338084Y0194326D01*
X0338054Y0194346D01*
X0338044Y0194356D01*
X0338035D01*
X0337857Y0194484D01*
X0337700Y0194622D01*
X0337562Y0194769D01*
X0337454Y0194907D01*
X0337375Y0195035D01*
X0337316Y0195133D01*
X0337297Y0195173D01*
X0337277Y0195202D01*
X0337267Y0195212D01*
Y0195222D01*
X0337218Y0195330D01*
X0337178Y0195448D01*
X0337119Y0195714D01*
X0337070Y0195979D01*
X0337041Y0196255D01*
X0337031Y0196373D01*
X0337021Y0196491D01*
Y0196599D01*
X0337011Y0196688D01*
Y0196757D01*
Y0196816D01*
Y0196855D01*
Y0196865D01*
Y0199453D01*
X0337700D01*
Y0196993D01*
Y0196816D01*
Y0196649D01*
X0337710Y0196501D01*
X0337720Y0196373D01*
X0337730Y0196255D01*
Y0196147D01*
X0337739Y0196048D01*
X0337749Y0195970D01*
X0337759Y0195901D01*
X0337769Y0195842D01*
X0337779Y0195792D01*
X0337789Y0195753D01*
X0337798Y0195714D01*
X0337808Y0195694D01*
X0337877Y0195537D01*
X0337956Y0195399D01*
X0338044Y0195271D01*
X0338133Y0195173D01*
X0338222Y0195084D01*
X0338281Y0195025D01*
X0338330Y0194986D01*
X0338349Y0194976D01*
X0338507Y0194887D01*
X0338664Y0194818D01*
X0338832Y0194779D01*
X0338979Y0194740D01*
X0339117Y0194720D01*
X0339215Y0194710D01*
X0339314D01*
X0339520Y0194720D01*
X0339707Y0194749D01*
X0339875Y0194799D01*
X0340022Y0194848D01*
X0340140Y0194897D01*
X0340219Y0194946D01*
X0340278Y0194976D01*
X0340298Y0194986D01*
X0340436Y0195104D01*
X0340554Y0195222D01*
X0340652Y0195350D01*
X0340721Y0195478D01*
X0340780Y0195586D01*
X0340819Y0195674D01*
X0340839Y0195733D01*
X0340849Y0195743D01*
Y0195753D01*
X0340868Y0195822D01*
X0340878Y0195901D01*
X0340898Y0196088D01*
X0340918Y0196294D01*
X0340928Y0196501D01*
Y0196688D01*
X0340937Y0196776D01*
Y0196845D01*
Y0196904D01*
Y0196954D01*
Y0196983D01*
Y0196993D01*
Y0199453D01*
X0341616D01*
Y0196914D01*
D02*
G37*
G36*
X0355943Y0163637D02*
X0355235D01*
Y0166934D01*
X0354841D01*
X0352283Y0163637D01*
X0351397D01*
X0353956Y0166934D01*
X0353641Y0166944D01*
X0353493Y0166953D01*
X0353355Y0166973D01*
X0353237Y0166983D01*
X0353119Y0167003D01*
X0353011Y0167022D01*
X0352922Y0167052D01*
X0352834Y0167071D01*
X0352765Y0167091D01*
X0352706Y0167111D01*
X0352647Y0167121D01*
X0352608Y0167140D01*
X0352578Y0167150D01*
X0352568Y0167160D01*
X0352558D01*
X0352381Y0167258D01*
X0352224Y0167357D01*
X0352086Y0167475D01*
X0351968Y0167583D01*
X0351889Y0167682D01*
X0351820Y0167760D01*
X0351781Y0167809D01*
X0351771Y0167829D01*
X0351683Y0167996D01*
X0351614Y0168174D01*
X0351565Y0168351D01*
X0351525Y0168508D01*
X0351505Y0168646D01*
X0351496Y0168754D01*
Y0168793D01*
Y0168823D01*
Y0168843D01*
Y0168852D01*
X0351515Y0169108D01*
X0351555Y0169335D01*
X0351624Y0169532D01*
X0351693Y0169699D01*
X0351771Y0169836D01*
X0351840Y0169935D01*
X0351860Y0169974D01*
X0351879Y0170004D01*
X0351899Y0170014D01*
Y0170024D01*
X0352057Y0170191D01*
X0352224Y0170328D01*
X0352391Y0170437D01*
X0352558Y0170516D01*
X0352706Y0170584D01*
X0352814Y0170624D01*
X0352863Y0170633D01*
X0352893Y0170643D01*
X0352913Y0170653D01*
X0352922D01*
X0353011Y0170673D01*
X0353109Y0170683D01*
X0353227Y0170702D01*
X0353355Y0170712D01*
X0353621Y0170732D01*
X0353887Y0170742D01*
X0354015D01*
X0354133Y0170752D01*
X0355943D01*
Y0163637D01*
D02*
G37*
G36*
X0368760Y0186252D02*
X0368839Y0186232D01*
X0368917Y0186202D01*
X0368976Y0186173D01*
X0369026Y0186143D01*
X0369065Y0186114D01*
X0369085Y0186094D01*
X0369094Y0186084D01*
X0369153Y0186015D01*
X0369193Y0185947D01*
X0369222Y0185878D01*
X0369242Y0185809D01*
X0369252Y0185750D01*
X0369262Y0185701D01*
Y0185671D01*
Y0185661D01*
X0369252Y0185573D01*
X0369232Y0185484D01*
X0369213Y0185415D01*
X0369173Y0185346D01*
X0369144Y0185297D01*
X0369124Y0185258D01*
X0369104Y0185238D01*
X0369094Y0185228D01*
X0369026Y0185169D01*
X0368957Y0185130D01*
X0368878Y0185100D01*
X0368819Y0185081D01*
X0368760Y0185071D01*
X0368711Y0185061D01*
X0368671D01*
X0368583Y0185071D01*
X0368504Y0185090D01*
X0368425Y0185110D01*
X0368366Y0185150D01*
X0368317Y0185179D01*
X0368278Y0185199D01*
X0368258Y0185218D01*
X0368248Y0185228D01*
X0368189Y0185297D01*
X0368150Y0185376D01*
X0368110Y0185445D01*
X0368091Y0185514D01*
X0368081Y0185573D01*
X0368071Y0185622D01*
Y0185651D01*
Y0185661D01*
X0368081Y0185750D01*
X0368101Y0185828D01*
X0368130Y0185907D01*
X0368160Y0185966D01*
X0368189Y0186015D01*
X0368219Y0186055D01*
X0368238Y0186074D01*
X0368248Y0186084D01*
X0368317Y0186143D01*
X0368386Y0186183D01*
X0368455Y0186222D01*
X0368524Y0186242D01*
X0368583Y0186252D01*
X0368632Y0186261D01*
X0368671D01*
X0368760Y0186252D01*
D02*
G37*
G36*
X0327825Y0191614D02*
X0326704D01*
Y0185199D01*
X0325995D01*
Y0192313D01*
X0327402D01*
X0327825Y0191614D01*
D02*
G37*
G36*
X0364962Y0192471D02*
X0365198Y0192431D01*
X0365414Y0192362D01*
X0365591Y0192293D01*
X0365749Y0192215D01*
X0365808Y0192185D01*
X0365857Y0192146D01*
X0365897Y0192126D01*
X0365926Y0192106D01*
X0365946Y0192087D01*
X0365955D01*
X0366152Y0191919D01*
X0366320Y0191742D01*
X0366467Y0191545D01*
X0366585Y0191358D01*
X0366684Y0191191D01*
X0366723Y0191113D01*
X0366753Y0191053D01*
X0366782Y0190995D01*
X0366802Y0190955D01*
X0366812Y0190935D01*
Y0190926D01*
X0366861Y0190778D01*
X0366910Y0190611D01*
X0366979Y0190266D01*
X0367038Y0189902D01*
X0367068Y0189548D01*
X0367077Y0189391D01*
X0367087Y0189233D01*
X0367097Y0189105D01*
Y0188987D01*
X0367107Y0188889D01*
Y0188810D01*
Y0188771D01*
Y0188751D01*
Y0188495D01*
X0367097Y0188259D01*
X0367077Y0188033D01*
X0367058Y0187826D01*
X0367038Y0187629D01*
X0367008Y0187452D01*
X0366979Y0187285D01*
X0366949Y0187137D01*
X0366930Y0187009D01*
X0366900Y0186901D01*
X0366871Y0186803D01*
X0366851Y0186724D01*
X0366831Y0186655D01*
X0366812Y0186616D01*
X0366802Y0186586D01*
Y0186576D01*
X0366674Y0186301D01*
X0366536Y0186065D01*
X0366398Y0185868D01*
X0366261Y0185701D01*
X0366143Y0185573D01*
X0366044Y0185484D01*
X0366005Y0185445D01*
X0365975Y0185425D01*
X0365965Y0185405D01*
X0365955D01*
X0365739Y0185277D01*
X0365532Y0185179D01*
X0365316Y0185120D01*
X0365129Y0185071D01*
X0364962Y0185041D01*
X0364893Y0185031D01*
X0364834D01*
X0364785Y0185022D01*
X0364716D01*
X0364460Y0185041D01*
X0364233Y0185081D01*
X0364017Y0185150D01*
X0363830Y0185228D01*
X0363683Y0185297D01*
X0363614Y0185336D01*
X0363564Y0185366D01*
X0363525Y0185386D01*
X0363495Y0185405D01*
X0363476Y0185425D01*
X0363466D01*
X0363259Y0185592D01*
X0363082Y0185779D01*
X0362935Y0185976D01*
X0362807Y0186173D01*
X0362699Y0186350D01*
X0362659Y0186419D01*
X0362630Y0186488D01*
X0362600Y0186537D01*
X0362580Y0186586D01*
X0362571Y0186606D01*
Y0186616D01*
X0362511Y0186773D01*
X0362462Y0186940D01*
X0362384Y0187285D01*
X0362325Y0187639D01*
X0362285Y0187983D01*
X0362275Y0188141D01*
X0362265Y0188288D01*
X0362256Y0188416D01*
X0362246Y0188534D01*
Y0188623D01*
Y0188692D01*
Y0188731D01*
Y0188751D01*
Y0188997D01*
X0362256Y0189223D01*
X0362275Y0189450D01*
X0362295Y0189646D01*
X0362325Y0189843D01*
X0362354Y0190010D01*
X0362384Y0190178D01*
X0362413Y0190325D01*
X0362443Y0190453D01*
X0362472Y0190561D01*
X0362502Y0190660D01*
X0362531Y0190739D01*
X0362551Y0190807D01*
X0362571Y0190847D01*
X0362580Y0190876D01*
Y0190886D01*
X0362708Y0191172D01*
X0362856Y0191408D01*
X0363003Y0191614D01*
X0363141Y0191782D01*
X0363269Y0191919D01*
X0363377Y0192008D01*
X0363407Y0192047D01*
X0363437Y0192067D01*
X0363456Y0192087D01*
X0363466D01*
X0363683Y0192225D01*
X0363899Y0192323D01*
X0364106Y0192392D01*
X0364302Y0192441D01*
X0364470Y0192471D01*
X0364539Y0192480D01*
X0364598D01*
X0364647Y0192490D01*
X0364716D01*
X0364962Y0192471D01*
D02*
G37*
G36*
X0332263D02*
X0332500Y0192431D01*
X0332716Y0192362D01*
X0332893Y0192293D01*
X0333051Y0192215D01*
X0333110Y0192185D01*
X0333159Y0192146D01*
X0333198Y0192126D01*
X0333228Y0192106D01*
X0333247Y0192087D01*
X0333257D01*
X0333454Y0191919D01*
X0333621Y0191742D01*
X0333769Y0191545D01*
X0333887Y0191358D01*
X0333985Y0191191D01*
X0334025Y0191113D01*
X0334054Y0191053D01*
X0334084Y0190995D01*
X0334103Y0190955D01*
X0334113Y0190935D01*
Y0190926D01*
X0334162Y0190778D01*
X0334212Y0190611D01*
X0334281Y0190266D01*
X0334340Y0189902D01*
X0334369Y0189548D01*
X0334379Y0189391D01*
X0334389Y0189233D01*
X0334399Y0189105D01*
Y0188987D01*
X0334408Y0188889D01*
Y0188810D01*
Y0188771D01*
Y0188751D01*
Y0188495D01*
X0334399Y0188259D01*
X0334379Y0188033D01*
X0334359Y0187826D01*
X0334340Y0187629D01*
X0334310Y0187452D01*
X0334281Y0187285D01*
X0334251Y0187137D01*
X0334231Y0187009D01*
X0334202Y0186901D01*
X0334172Y0186803D01*
X0334153Y0186724D01*
X0334133Y0186655D01*
X0334113Y0186616D01*
X0334103Y0186586D01*
Y0186576D01*
X0333976Y0186301D01*
X0333838Y0186065D01*
X0333700Y0185868D01*
X0333562Y0185701D01*
X0333444Y0185573D01*
X0333346Y0185484D01*
X0333306Y0185445D01*
X0333277Y0185425D01*
X0333267Y0185405D01*
X0333257D01*
X0333041Y0185277D01*
X0332834Y0185179D01*
X0332618Y0185120D01*
X0332431Y0185071D01*
X0332263Y0185041D01*
X0332194Y0185031D01*
X0332135D01*
X0332086Y0185022D01*
X0332017D01*
X0331762Y0185041D01*
X0331535Y0185081D01*
X0331319Y0185150D01*
X0331132Y0185228D01*
X0330984Y0185297D01*
X0330915Y0185336D01*
X0330866Y0185366D01*
X0330827Y0185386D01*
X0330797Y0185405D01*
X0330778Y0185425D01*
X0330768D01*
X0330561Y0185592D01*
X0330384Y0185779D01*
X0330236Y0185976D01*
X0330108Y0186173D01*
X0330000Y0186350D01*
X0329961Y0186419D01*
X0329931Y0186488D01*
X0329902Y0186537D01*
X0329882Y0186586D01*
X0329872Y0186606D01*
Y0186616D01*
X0329813Y0186773D01*
X0329764Y0186940D01*
X0329685Y0187285D01*
X0329626Y0187639D01*
X0329587Y0187983D01*
X0329577Y0188141D01*
X0329567Y0188288D01*
X0329557Y0188416D01*
X0329548Y0188534D01*
Y0188623D01*
Y0188692D01*
Y0188731D01*
Y0188751D01*
Y0188997D01*
X0329557Y0189223D01*
X0329577Y0189450D01*
X0329597Y0189646D01*
X0329626Y0189843D01*
X0329656Y0190010D01*
X0329685Y0190178D01*
X0329715Y0190325D01*
X0329744Y0190453D01*
X0329774Y0190561D01*
X0329803Y0190660D01*
X0329833Y0190739D01*
X0329853Y0190807D01*
X0329872Y0190847D01*
X0329882Y0190876D01*
Y0190886D01*
X0330010Y0191172D01*
X0330158Y0191408D01*
X0330305Y0191614D01*
X0330443Y0191782D01*
X0330571Y0191919D01*
X0330679Y0192008D01*
X0330709Y0192047D01*
X0330738Y0192067D01*
X0330758Y0192087D01*
X0330768D01*
X0330984Y0192225D01*
X0331201Y0192323D01*
X0331407Y0192392D01*
X0331604Y0192441D01*
X0331771Y0192471D01*
X0331840Y0192480D01*
X0331899D01*
X0331948Y0192490D01*
X0332017D01*
X0332263Y0192471D01*
D02*
G37*
G36*
X0353065D02*
X0353301Y0192431D01*
X0353518Y0192362D01*
X0353695Y0192293D01*
X0353852Y0192215D01*
X0353911Y0192185D01*
X0353961Y0192146D01*
X0354000Y0192126D01*
X0354029Y0192106D01*
X0354049Y0192087D01*
X0354059D01*
X0354256Y0191919D01*
X0354423Y0191742D01*
X0354571Y0191545D01*
X0354689Y0191358D01*
X0354787Y0191191D01*
X0354826Y0191113D01*
X0354856Y0191053D01*
X0354886Y0190995D01*
X0354905Y0190955D01*
X0354915Y0190935D01*
Y0190926D01*
X0354964Y0190778D01*
X0355013Y0190611D01*
X0355082Y0190266D01*
X0355141Y0189902D01*
X0355171Y0189548D01*
X0355181Y0189391D01*
X0355191Y0189233D01*
X0355200Y0189105D01*
Y0188987D01*
X0355210Y0188889D01*
Y0188810D01*
Y0188771D01*
Y0188751D01*
Y0188495D01*
X0355200Y0188259D01*
X0355181Y0188033D01*
X0355161Y0187826D01*
X0355141Y0187629D01*
X0355112Y0187452D01*
X0355082Y0187285D01*
X0355053Y0187137D01*
X0355033Y0187009D01*
X0355004Y0186901D01*
X0354974Y0186803D01*
X0354954Y0186724D01*
X0354935Y0186655D01*
X0354915Y0186616D01*
X0354905Y0186586D01*
Y0186576D01*
X0354777Y0186301D01*
X0354640Y0186065D01*
X0354502Y0185868D01*
X0354364Y0185701D01*
X0354246Y0185573D01*
X0354148Y0185484D01*
X0354108Y0185445D01*
X0354079Y0185425D01*
X0354069Y0185405D01*
X0354059D01*
X0353842Y0185277D01*
X0353636Y0185179D01*
X0353419Y0185120D01*
X0353232Y0185071D01*
X0353065Y0185041D01*
X0352996Y0185031D01*
X0352937D01*
X0352888Y0185022D01*
X0352819D01*
X0352563Y0185041D01*
X0352337Y0185081D01*
X0352120Y0185150D01*
X0351934Y0185228D01*
X0351786Y0185297D01*
X0351717Y0185336D01*
X0351668Y0185366D01*
X0351628Y0185386D01*
X0351599Y0185405D01*
X0351579Y0185425D01*
X0351570D01*
X0351363Y0185592D01*
X0351186Y0185779D01*
X0351038Y0185976D01*
X0350910Y0186173D01*
X0350802Y0186350D01*
X0350763Y0186419D01*
X0350733Y0186488D01*
X0350704Y0186537D01*
X0350684Y0186586D01*
X0350674Y0186606D01*
Y0186616D01*
X0350615Y0186773D01*
X0350566Y0186940D01*
X0350487Y0187285D01*
X0350428Y0187639D01*
X0350389Y0187983D01*
X0350379Y0188141D01*
X0350369Y0188288D01*
X0350359Y0188416D01*
X0350349Y0188534D01*
Y0188623D01*
Y0188692D01*
Y0188731D01*
Y0188751D01*
Y0188997D01*
X0350359Y0189223D01*
X0350379Y0189450D01*
X0350398Y0189646D01*
X0350428Y0189843D01*
X0350458Y0190010D01*
X0350487Y0190178D01*
X0350517Y0190325D01*
X0350546Y0190453D01*
X0350576Y0190561D01*
X0350605Y0190660D01*
X0350635Y0190739D01*
X0350654Y0190807D01*
X0350674Y0190847D01*
X0350684Y0190876D01*
Y0190886D01*
X0350812Y0191172D01*
X0350959Y0191408D01*
X0351107Y0191614D01*
X0351245Y0191782D01*
X0351373Y0191919D01*
X0351481Y0192008D01*
X0351510Y0192047D01*
X0351540Y0192067D01*
X0351560Y0192087D01*
X0351570D01*
X0351786Y0192225D01*
X0352002Y0192323D01*
X0352209Y0192392D01*
X0352406Y0192441D01*
X0352573Y0192471D01*
X0352642Y0192480D01*
X0352701D01*
X0352750Y0192490D01*
X0352819D01*
X0353065Y0192471D01*
D02*
G37*
G36*
X0348627Y0191614D02*
X0347505D01*
Y0185199D01*
X0346797D01*
Y0192313D01*
X0348204D01*
X0348627Y0191614D01*
D02*
G37*
G36*
X0374251D02*
X0373129D01*
Y0185199D01*
X0372420D01*
Y0192313D01*
X0373828D01*
X0374251Y0191614D01*
D02*
G37*
G36*
X0361227Y0170919D02*
X0361424Y0170909D01*
X0361808Y0170850D01*
X0361985Y0170811D01*
X0362152Y0170771D01*
X0362300Y0170732D01*
X0362448Y0170683D01*
X0362576Y0170633D01*
X0362684Y0170594D01*
X0362792Y0170555D01*
X0362871Y0170516D01*
X0362940Y0170486D01*
X0362989Y0170456D01*
X0363018Y0170447D01*
X0363028Y0170437D01*
X0363343Y0170240D01*
X0363618Y0170014D01*
X0363855Y0169787D01*
X0363953Y0169679D01*
X0364052Y0169571D01*
X0364130Y0169463D01*
X0364209Y0169374D01*
X0364268Y0169286D01*
X0364317Y0169217D01*
X0364366Y0169158D01*
X0364396Y0169108D01*
X0364406Y0169079D01*
X0364416Y0169069D01*
X0364504Y0168902D01*
X0364583Y0168744D01*
X0364652Y0168577D01*
X0364701Y0168410D01*
X0364799Y0168095D01*
X0364829Y0167947D01*
X0364858Y0167809D01*
X0364878Y0167672D01*
X0364888Y0167554D01*
X0364898Y0167455D01*
X0364908Y0167367D01*
X0364917Y0167288D01*
Y0167239D01*
Y0167199D01*
Y0167190D01*
X0364908Y0166944D01*
X0364878Y0166698D01*
X0364839Y0166461D01*
X0364780Y0166245D01*
X0364711Y0166038D01*
X0364642Y0165841D01*
X0364563Y0165655D01*
X0364475Y0165487D01*
X0364396Y0165330D01*
X0364317Y0165202D01*
X0364248Y0165084D01*
X0364179Y0164985D01*
X0364120Y0164907D01*
X0364081Y0164848D01*
X0364052Y0164808D01*
X0364042Y0164798D01*
X0363815Y0164562D01*
X0363579Y0164356D01*
X0363323Y0164179D01*
X0363068Y0164021D01*
X0362802Y0163893D01*
X0362546Y0163785D01*
X0362290Y0163696D01*
X0362044Y0163628D01*
X0361818Y0163568D01*
X0361601Y0163529D01*
X0361404Y0163499D01*
X0361237Y0163480D01*
X0361100Y0163470D01*
X0361001Y0163460D01*
X0360912D01*
X0360617Y0163470D01*
X0360332Y0163499D01*
X0360066Y0163549D01*
X0359820Y0163608D01*
X0359594Y0163687D01*
X0359378Y0163765D01*
X0359181Y0163854D01*
X0359013Y0163942D01*
X0358856Y0164031D01*
X0358718Y0164120D01*
X0358600Y0164198D01*
X0358502Y0164277D01*
X0358423Y0164336D01*
X0358374Y0164385D01*
X0358334Y0164415D01*
X0358325Y0164425D01*
X0358157Y0164611D01*
X0358000Y0164818D01*
X0357872Y0165025D01*
X0357764Y0165251D01*
X0357665Y0165468D01*
X0357587Y0165684D01*
X0357518Y0165901D01*
X0357469Y0166107D01*
X0357429Y0166294D01*
X0357400Y0166481D01*
X0357370Y0166639D01*
X0357360Y0166776D01*
X0357350Y0166894D01*
X0357341Y0166983D01*
Y0167032D01*
Y0167052D01*
X0360401D01*
Y0166353D01*
X0358138D01*
X0358167Y0166176D01*
X0358216Y0165999D01*
X0358275Y0165841D01*
X0358344Y0165684D01*
X0358413Y0165546D01*
X0358492Y0165418D01*
X0358571Y0165290D01*
X0358649Y0165182D01*
X0358718Y0165084D01*
X0358797Y0164995D01*
X0358866Y0164926D01*
X0358925Y0164857D01*
X0358974Y0164818D01*
X0359013Y0164779D01*
X0359033Y0164759D01*
X0359043Y0164749D01*
X0359191Y0164641D01*
X0359338Y0164552D01*
X0359496Y0164464D01*
X0359653Y0164395D01*
X0359810Y0164336D01*
X0359958Y0164287D01*
X0360253Y0164218D01*
X0360381Y0164188D01*
X0360509Y0164169D01*
X0360617Y0164159D01*
X0360706Y0164149D01*
X0360785Y0164139D01*
X0360893D01*
X0361227Y0164159D01*
X0361532Y0164198D01*
X0361818Y0164267D01*
X0361946Y0164306D01*
X0362064Y0164346D01*
X0362172Y0164375D01*
X0362270Y0164415D01*
X0362349Y0164454D01*
X0362418Y0164483D01*
X0362477Y0164503D01*
X0362516Y0164523D01*
X0362546Y0164543D01*
X0362556D01*
X0362822Y0164710D01*
X0363058Y0164897D01*
X0363264Y0165084D01*
X0363432Y0165261D01*
X0363569Y0165428D01*
X0363618Y0165497D01*
X0363668Y0165556D01*
X0363697Y0165605D01*
X0363727Y0165645D01*
X0363737Y0165664D01*
X0363747Y0165674D01*
X0363825Y0165812D01*
X0363884Y0165950D01*
X0363993Y0166225D01*
X0364061Y0166481D01*
X0364120Y0166717D01*
X0364130Y0166816D01*
X0364150Y0166914D01*
X0364160Y0167003D01*
Y0167071D01*
X0364170Y0167130D01*
Y0167170D01*
Y0167199D01*
Y0167209D01*
X0364150Y0167495D01*
X0364101Y0167770D01*
X0364042Y0168016D01*
X0363963Y0168242D01*
X0363924Y0168341D01*
X0363884Y0168420D01*
X0363855Y0168498D01*
X0363825Y0168567D01*
X0363796Y0168616D01*
X0363776Y0168656D01*
X0363756Y0168675D01*
Y0168685D01*
X0363589Y0168941D01*
X0363402Y0169158D01*
X0363205Y0169354D01*
X0363018Y0169512D01*
X0362851Y0169640D01*
X0362782Y0169689D01*
X0362713Y0169728D01*
X0362664Y0169768D01*
X0362625Y0169787D01*
X0362605Y0169807D01*
X0362595D01*
X0362310Y0169945D01*
X0362024Y0170043D01*
X0361759Y0170122D01*
X0361513Y0170171D01*
X0361404Y0170191D01*
X0361306Y0170201D01*
X0361218Y0170210D01*
X0361139D01*
X0361080Y0170220D01*
X0361001D01*
X0360745Y0170210D01*
X0360499Y0170171D01*
X0360273Y0170122D01*
X0360056Y0170073D01*
X0359968Y0170043D01*
X0359879Y0170014D01*
X0359810Y0169984D01*
X0359742Y0169964D01*
X0359692Y0169945D01*
X0359653Y0169925D01*
X0359633Y0169915D01*
X0359624D01*
X0359368Y0169787D01*
X0359122Y0169650D01*
X0358905Y0169502D01*
X0358708Y0169354D01*
X0358551Y0169226D01*
X0358482Y0169177D01*
X0358423Y0169128D01*
X0358384Y0169089D01*
X0358354Y0169059D01*
X0358334Y0169039D01*
X0358325Y0169030D01*
X0357764Y0169551D01*
X0358049Y0169807D01*
X0358334Y0170014D01*
X0358600Y0170201D01*
X0358836Y0170338D01*
X0358935Y0170397D01*
X0359033Y0170456D01*
X0359122Y0170496D01*
X0359191Y0170535D01*
X0359250Y0170565D01*
X0359289Y0170574D01*
X0359318Y0170594D01*
X0359328D01*
X0359633Y0170702D01*
X0359928Y0170791D01*
X0360214Y0170850D01*
X0360470Y0170889D01*
X0360588Y0170899D01*
X0360696Y0170909D01*
X0360785Y0170919D01*
X0360863Y0170929D01*
X0361021D01*
X0361227Y0170919D01*
D02*
G37*
%LPC*%
G36*
X0374403Y0179171D02*
X0374305D01*
X0374147Y0179161D01*
X0373990Y0179141D01*
X0373842Y0179112D01*
X0373705Y0179072D01*
X0373449Y0178974D01*
X0373341Y0178915D01*
X0373242Y0178866D01*
X0373144Y0178807D01*
X0373065Y0178748D01*
X0372996Y0178698D01*
X0372937Y0178649D01*
X0372888Y0178610D01*
X0372858Y0178580D01*
X0372839Y0178561D01*
X0372829Y0178551D01*
X0372721Y0178433D01*
X0372632Y0178305D01*
X0372543Y0178177D01*
X0372475Y0178049D01*
X0372415Y0177921D01*
X0372366Y0177793D01*
X0372297Y0177547D01*
X0372268Y0177439D01*
X0372248Y0177340D01*
X0372238Y0177252D01*
X0372229Y0177173D01*
X0372219Y0177104D01*
Y0177055D01*
Y0177026D01*
Y0177016D01*
X0372229Y0176799D01*
X0372258Y0176593D01*
X0372307Y0176406D01*
X0372356Y0176248D01*
X0372406Y0176120D01*
X0372455Y0176022D01*
X0372465Y0175983D01*
X0372484Y0175953D01*
X0372494Y0175943D01*
Y0175933D01*
X0372602Y0175766D01*
X0372730Y0175619D01*
X0372858Y0175491D01*
X0372976Y0175382D01*
X0373085Y0175294D01*
X0373183Y0175225D01*
X0373242Y0175186D01*
X0373252Y0175176D01*
X0373262D01*
X0373449Y0175087D01*
X0373636Y0175018D01*
X0373803Y0174969D01*
X0373970Y0174940D01*
X0374108Y0174920D01*
X0374206Y0174900D01*
X0374305D01*
X0374511Y0174910D01*
X0374698Y0174940D01*
X0374875Y0174989D01*
X0375023Y0175038D01*
X0375161Y0175087D01*
X0375249Y0175136D01*
X0375289Y0175146D01*
X0375318Y0175166D01*
X0375328Y0175176D01*
X0375338D01*
X0375505Y0175294D01*
X0375663Y0175422D01*
X0375791Y0175550D01*
X0375899Y0175678D01*
X0375987Y0175796D01*
X0376056Y0175884D01*
X0376096Y0175953D01*
X0376105Y0175963D01*
Y0175973D01*
X0376194Y0176170D01*
X0376263Y0176356D01*
X0376312Y0176534D01*
X0376342Y0176701D01*
X0376361Y0176839D01*
X0376381Y0176937D01*
Y0176986D01*
Y0177016D01*
Y0177026D01*
Y0177035D01*
X0376371Y0177242D01*
X0376342Y0177439D01*
X0376292Y0177616D01*
X0376243Y0177773D01*
X0376194Y0177911D01*
X0376145Y0178010D01*
X0376135Y0178049D01*
X0376115Y0178078D01*
X0376105Y0178088D01*
Y0178098D01*
X0375987Y0178275D01*
X0375869Y0178433D01*
X0375741Y0178570D01*
X0375623Y0178689D01*
X0375515Y0178767D01*
X0375427Y0178836D01*
X0375367Y0178876D01*
X0375358Y0178885D01*
X0375348D01*
X0375161Y0178984D01*
X0374984Y0179053D01*
X0374807Y0179102D01*
X0374649Y0179131D01*
X0374511Y0179161D01*
X0374403Y0179171D01*
D02*
G37*
G36*
X0330241D02*
X0330143D01*
X0329985Y0179161D01*
X0329828Y0179141D01*
X0329680Y0179112D01*
X0329543Y0179072D01*
X0329287Y0178974D01*
X0329179Y0178915D01*
X0329080Y0178866D01*
X0328982Y0178807D01*
X0328903Y0178748D01*
X0328834Y0178698D01*
X0328775Y0178649D01*
X0328726Y0178610D01*
X0328696Y0178580D01*
X0328677Y0178561D01*
X0328667Y0178551D01*
X0328559Y0178433D01*
X0328470Y0178305D01*
X0328381Y0178177D01*
X0328313Y0178049D01*
X0328254Y0177921D01*
X0328204Y0177793D01*
X0328135Y0177547D01*
X0328106Y0177439D01*
X0328086Y0177340D01*
X0328077Y0177252D01*
X0328067Y0177173D01*
X0328057Y0177104D01*
Y0177055D01*
Y0177026D01*
Y0177016D01*
X0328067Y0176799D01*
X0328096Y0176593D01*
X0328145Y0176406D01*
X0328194Y0176248D01*
X0328244Y0176120D01*
X0328293Y0176022D01*
X0328303Y0175983D01*
X0328322Y0175953D01*
X0328332Y0175943D01*
Y0175933D01*
X0328440Y0175766D01*
X0328568Y0175619D01*
X0328696Y0175491D01*
X0328814Y0175382D01*
X0328923Y0175294D01*
X0329021Y0175225D01*
X0329080Y0175186D01*
X0329090Y0175176D01*
X0329100D01*
X0329287Y0175087D01*
X0329474Y0175018D01*
X0329641Y0174969D01*
X0329808Y0174940D01*
X0329946Y0174920D01*
X0330045Y0174900D01*
X0330143D01*
X0330349Y0174910D01*
X0330537Y0174940D01*
X0330714Y0174989D01*
X0330861Y0175038D01*
X0330999Y0175087D01*
X0331087Y0175136D01*
X0331127Y0175146D01*
X0331156Y0175166D01*
X0331166Y0175176D01*
X0331176D01*
X0331343Y0175294D01*
X0331501Y0175422D01*
X0331629Y0175550D01*
X0331737Y0175678D01*
X0331825Y0175796D01*
X0331894Y0175884D01*
X0331934Y0175953D01*
X0331944Y0175963D01*
Y0175973D01*
X0332032Y0176170D01*
X0332101Y0176356D01*
X0332150Y0176534D01*
X0332180Y0176701D01*
X0332199Y0176839D01*
X0332219Y0176937D01*
Y0176986D01*
Y0177016D01*
Y0177026D01*
Y0177035D01*
X0332209Y0177242D01*
X0332180Y0177439D01*
X0332131Y0177616D01*
X0332081Y0177773D01*
X0332032Y0177911D01*
X0331983Y0178010D01*
X0331973Y0178049D01*
X0331953Y0178078D01*
X0331944Y0178088D01*
Y0178098D01*
X0331825Y0178275D01*
X0331707Y0178433D01*
X0331579Y0178570D01*
X0331461Y0178689D01*
X0331353Y0178767D01*
X0331265Y0178836D01*
X0331206Y0178876D01*
X0331196Y0178885D01*
X0331186D01*
X0330999Y0178984D01*
X0330822Y0179053D01*
X0330645Y0179102D01*
X0330487Y0179131D01*
X0330349Y0179161D01*
X0330241Y0179171D01*
D02*
G37*
G36*
X0367623D02*
X0367525D01*
X0367318Y0179161D01*
X0367131Y0179131D01*
X0366954Y0179082D01*
X0366807Y0179033D01*
X0366679Y0178984D01*
X0366580Y0178935D01*
X0366551Y0178925D01*
X0366521Y0178905D01*
X0366512Y0178895D01*
X0366502D01*
X0366334Y0178787D01*
X0366177Y0178659D01*
X0366049Y0178541D01*
X0365951Y0178423D01*
X0365862Y0178315D01*
X0365803Y0178226D01*
X0365764Y0178167D01*
X0365754Y0178157D01*
Y0178147D01*
X0365665Y0177970D01*
X0365596Y0177783D01*
X0365557Y0177616D01*
X0365518Y0177449D01*
X0365498Y0177301D01*
X0365488Y0177193D01*
Y0177154D01*
Y0177124D01*
Y0177104D01*
Y0177094D01*
X0365498Y0176927D01*
X0365508Y0176770D01*
X0365537Y0176622D01*
X0365577Y0176475D01*
X0365616Y0176347D01*
X0365665Y0176229D01*
X0365724Y0176110D01*
X0365774Y0176012D01*
X0365823Y0175924D01*
X0365882Y0175845D01*
X0365931Y0175776D01*
X0365970Y0175717D01*
X0366010Y0175678D01*
X0366029Y0175648D01*
X0366049Y0175628D01*
X0366059Y0175619D01*
X0366167Y0175520D01*
X0366285Y0175432D01*
X0366413Y0175363D01*
X0366531Y0175294D01*
X0366659Y0175245D01*
X0366787Y0175195D01*
X0367023Y0175127D01*
X0367131Y0175107D01*
X0367240Y0175087D01*
X0367328Y0175077D01*
X0367407Y0175067D01*
X0367476Y0175058D01*
X0367564D01*
X0367732Y0175067D01*
X0367899Y0175077D01*
X0368046Y0175107D01*
X0368194Y0175146D01*
X0368322Y0175186D01*
X0368450Y0175235D01*
X0368558Y0175284D01*
X0368666Y0175343D01*
X0368755Y0175392D01*
X0368834Y0175441D01*
X0368903Y0175491D01*
X0368962Y0175530D01*
X0369011Y0175569D01*
X0369040Y0175599D01*
X0369060Y0175609D01*
X0369070Y0175619D01*
X0369168Y0175727D01*
X0369257Y0175845D01*
X0369336Y0175963D01*
X0369404Y0176081D01*
X0369463Y0176209D01*
X0369513Y0176327D01*
X0369582Y0176553D01*
X0369601Y0176652D01*
X0369621Y0176750D01*
X0369631Y0176839D01*
X0369641Y0176908D01*
X0369651Y0176976D01*
Y0177016D01*
Y0177045D01*
Y0177055D01*
X0369641Y0177262D01*
X0369611Y0177459D01*
X0369562Y0177646D01*
X0369513Y0177803D01*
X0369463Y0177931D01*
X0369414Y0178029D01*
X0369404Y0178069D01*
X0369385Y0178098D01*
X0369375Y0178108D01*
Y0178118D01*
X0369257Y0178295D01*
X0369129Y0178443D01*
X0369001Y0178580D01*
X0368883Y0178689D01*
X0368765Y0178777D01*
X0368676Y0178836D01*
X0368617Y0178876D01*
X0368607Y0178885D01*
X0368598D01*
X0368411Y0178984D01*
X0368224Y0179053D01*
X0368046Y0179102D01*
X0367879Y0179131D01*
X0367732Y0179161D01*
X0367623Y0179171D01*
D02*
G37*
G36*
X0396277Y0180027D02*
X0395057Y0177449D01*
X0397498D01*
X0396277Y0180027D01*
D02*
G37*
G36*
X0343122D02*
X0341902Y0177449D01*
X0344342D01*
X0343122Y0180027D01*
D02*
G37*
G36*
X0304657Y0180834D02*
X0303840D01*
X0303575Y0180824D01*
X0303358Y0180794D01*
X0303162Y0180745D01*
X0303014Y0180696D01*
X0302896Y0180637D01*
X0302817Y0180597D01*
X0302768Y0180558D01*
X0302748Y0180548D01*
X0302630Y0180440D01*
X0302552Y0180312D01*
X0302492Y0180184D01*
X0302443Y0180066D01*
X0302424Y0179958D01*
X0302414Y0179869D01*
X0302404Y0179810D01*
Y0179800D01*
Y0179791D01*
X0302414Y0179653D01*
X0302433Y0179535D01*
X0302473Y0179417D01*
X0302502Y0179318D01*
X0302542Y0179240D01*
X0302581Y0179171D01*
X0302601Y0179131D01*
X0302610Y0179121D01*
X0302689Y0179023D01*
X0302788Y0178935D01*
X0302876Y0178856D01*
X0302965Y0178797D01*
X0303044Y0178748D01*
X0303112Y0178718D01*
X0303152Y0178698D01*
X0303171Y0178689D01*
X0303319Y0178649D01*
X0303486Y0178620D01*
X0303663Y0178590D01*
X0303840Y0178580D01*
X0303998Y0178570D01*
X0304077Y0178561D01*
X0304657D01*
Y0180834D01*
D02*
G37*
G36*
Y0177842D02*
X0303949D01*
X0303811Y0177832D01*
X0303683D01*
X0303565Y0177823D01*
X0303467Y0177813D01*
X0303368Y0177803D01*
X0303290D01*
X0303221Y0177793D01*
X0303162Y0177783D01*
X0303102Y0177773D01*
X0303063Y0177764D01*
X0303014Y0177754D01*
X0302994D01*
X0302798Y0177695D01*
X0302630Y0177616D01*
X0302483Y0177537D01*
X0302364Y0177459D01*
X0302266Y0177380D01*
X0302197Y0177321D01*
X0302148Y0177281D01*
X0302138Y0177262D01*
X0302030Y0177124D01*
X0301951Y0176986D01*
X0301902Y0176848D01*
X0301863Y0176721D01*
X0301843Y0176612D01*
X0301823Y0176524D01*
Y0176465D01*
Y0176455D01*
Y0176445D01*
X0301833Y0176307D01*
X0301863Y0176170D01*
X0301892Y0176051D01*
X0301932Y0175943D01*
X0301981Y0175865D01*
X0302010Y0175796D01*
X0302040Y0175756D01*
X0302050Y0175737D01*
X0302138Y0175619D01*
X0302227Y0175530D01*
X0302325Y0175441D01*
X0302424Y0175382D01*
X0302502Y0175333D01*
X0302571Y0175294D01*
X0302610Y0175274D01*
X0302630Y0175264D01*
X0302699Y0175235D01*
X0302788Y0175215D01*
X0302965Y0175176D01*
X0303152Y0175156D01*
X0303339Y0175136D01*
X0303516Y0175127D01*
X0303585Y0175117D01*
X0304657D01*
Y0177842D01*
D02*
G37*
G36*
X0320529Y0179171D02*
X0320450D01*
X0320273Y0179161D01*
X0320106Y0179141D01*
X0319958Y0179102D01*
X0319821Y0179072D01*
X0319712Y0179033D01*
X0319624Y0178994D01*
X0319575Y0178974D01*
X0319555Y0178964D01*
X0319407Y0178885D01*
X0319270Y0178797D01*
X0319152Y0178708D01*
X0319053Y0178630D01*
X0318974Y0178561D01*
X0318925Y0178502D01*
X0318886Y0178452D01*
X0318876Y0178443D01*
X0318778Y0178315D01*
X0318699Y0178177D01*
X0318630Y0178029D01*
X0318571Y0177892D01*
X0318532Y0177773D01*
X0318502Y0177675D01*
X0318482Y0177636D01*
Y0177606D01*
X0318473Y0177596D01*
Y0177586D01*
X0322399D01*
X0322310Y0177842D01*
X0322212Y0178059D01*
X0322104Y0178246D01*
X0322005Y0178393D01*
X0321917Y0178511D01*
X0321848Y0178600D01*
X0321798Y0178649D01*
X0321779Y0178669D01*
X0321671Y0178757D01*
X0321562Y0178836D01*
X0321454Y0178905D01*
X0321336Y0178964D01*
X0321120Y0179053D01*
X0320903Y0179112D01*
X0320726Y0179141D01*
X0320647Y0179151D01*
X0320578Y0179161D01*
X0320529Y0179171D01*
D02*
G37*
G36*
X0357626Y0200604D02*
X0356849D01*
X0356593Y0200594D01*
X0356357Y0200585D01*
X0356140Y0200575D01*
X0355943Y0200555D01*
X0355756Y0200535D01*
X0355599Y0200516D01*
X0355451Y0200506D01*
X0355333Y0200486D01*
X0355225Y0200466D01*
X0355127Y0200447D01*
X0355058Y0200427D01*
X0354999Y0200417D01*
X0354959Y0200407D01*
X0354940Y0200398D01*
X0354930D01*
X0354772Y0200339D01*
X0354615Y0200279D01*
X0354339Y0200122D01*
X0354211Y0200043D01*
X0354103Y0199955D01*
X0353995Y0199876D01*
X0353906Y0199797D01*
X0353818Y0199709D01*
X0353749Y0199640D01*
X0353690Y0199571D01*
X0353631Y0199512D01*
X0353592Y0199463D01*
X0353562Y0199423D01*
X0353552Y0199404D01*
X0353542Y0199394D01*
X0353454Y0199256D01*
X0353375Y0199109D01*
X0353306Y0198961D01*
X0353247Y0198813D01*
X0353159Y0198518D01*
X0353100Y0198243D01*
X0353080Y0198115D01*
X0353070Y0197997D01*
X0353060Y0197898D01*
X0353050Y0197810D01*
X0353041Y0197731D01*
Y0197682D01*
Y0197642D01*
Y0197633D01*
Y0197455D01*
X0353060Y0197278D01*
X0353109Y0196963D01*
X0353149Y0196816D01*
X0353188Y0196678D01*
X0353227Y0196560D01*
X0353267Y0196442D01*
X0353316Y0196334D01*
X0353355Y0196245D01*
X0353395Y0196166D01*
X0353434Y0196098D01*
X0353464Y0196048D01*
X0353483Y0196009D01*
X0353493Y0195989D01*
X0353503Y0195979D01*
X0353690Y0195743D01*
X0353897Y0195546D01*
X0354103Y0195379D01*
X0354310Y0195251D01*
X0354487Y0195153D01*
X0354566Y0195114D01*
X0354635Y0195084D01*
X0354684Y0195064D01*
X0354723Y0195045D01*
X0354753Y0195035D01*
X0354763D01*
X0354881Y0195005D01*
X0355018Y0194976D01*
X0355166Y0194956D01*
X0355323Y0194936D01*
X0355658Y0194897D01*
X0356002Y0194877D01*
X0356160D01*
X0356307Y0194868D01*
X0356445D01*
X0356573Y0194858D01*
X0357626D01*
Y0200604D01*
D02*
G37*
G36*
X0347156Y0169246D02*
X0345936Y0166668D01*
X0348376D01*
X0347156Y0169246D01*
D02*
G37*
G36*
X0332839Y0198971D02*
X0332741D01*
X0332544Y0198961D01*
X0332357Y0198931D01*
X0332180Y0198882D01*
X0332022Y0198833D01*
X0331894Y0198774D01*
X0331796Y0198735D01*
X0331766Y0198715D01*
X0331737Y0198695D01*
X0331727Y0198685D01*
X0331717D01*
X0331550Y0198567D01*
X0331393Y0198439D01*
X0331265Y0198311D01*
X0331156Y0198184D01*
X0331068Y0198065D01*
X0330999Y0197977D01*
X0330960Y0197908D01*
X0330950Y0197898D01*
Y0197888D01*
X0330851Y0197701D01*
X0330783Y0197514D01*
X0330733Y0197327D01*
X0330704Y0197170D01*
X0330674Y0197032D01*
X0330664Y0196924D01*
Y0196885D01*
Y0196855D01*
Y0196835D01*
Y0196826D01*
X0330674Y0196619D01*
X0330704Y0196422D01*
X0330753Y0196235D01*
X0330802Y0196078D01*
X0330861Y0195940D01*
X0330901Y0195842D01*
X0330920Y0195802D01*
X0330940Y0195773D01*
X0330950Y0195763D01*
Y0195753D01*
X0331068Y0195576D01*
X0331186Y0195419D01*
X0331314Y0195291D01*
X0331442Y0195173D01*
X0331550Y0195094D01*
X0331639Y0195025D01*
X0331698Y0194986D01*
X0331707Y0194976D01*
X0331717D01*
X0331894Y0194887D01*
X0332081Y0194818D01*
X0332249Y0194769D01*
X0332406Y0194740D01*
X0332544Y0194720D01*
X0332652Y0194700D01*
X0332751D01*
X0332908Y0194710D01*
X0333065Y0194730D01*
X0333213Y0194759D01*
X0333351Y0194799D01*
X0333607Y0194897D01*
X0333715Y0194946D01*
X0333813Y0195005D01*
X0333912Y0195064D01*
X0333990Y0195114D01*
X0334059Y0195173D01*
X0334118Y0195212D01*
X0334167Y0195251D01*
X0334197Y0195281D01*
X0334217Y0195300D01*
X0334226Y0195310D01*
X0334335Y0195428D01*
X0334423Y0195546D01*
X0334502Y0195674D01*
X0334571Y0195802D01*
X0334630Y0195930D01*
X0334679Y0196058D01*
X0334748Y0196304D01*
X0334777Y0196412D01*
X0334797Y0196511D01*
X0334807Y0196609D01*
X0334817Y0196688D01*
X0334827Y0196747D01*
Y0196796D01*
Y0196826D01*
Y0196835D01*
X0334817Y0197062D01*
X0334787Y0197259D01*
X0334738Y0197446D01*
X0334689Y0197603D01*
X0334650Y0197741D01*
X0334600Y0197839D01*
X0334581Y0197869D01*
X0334571Y0197898D01*
X0334561Y0197908D01*
Y0197918D01*
X0334453Y0198085D01*
X0334335Y0198243D01*
X0334207Y0198371D01*
X0334079Y0198479D01*
X0333971Y0198567D01*
X0333882Y0198636D01*
X0333823Y0198676D01*
X0333813Y0198685D01*
X0333803D01*
X0333616Y0198784D01*
X0333429Y0198853D01*
X0333243Y0198902D01*
X0333085Y0198931D01*
X0332947Y0198961D01*
X0332839Y0198971D01*
D02*
G37*
G36*
X0336992Y0170053D02*
X0335742D01*
X0335486Y0170043D01*
X0335269Y0170033D01*
X0335092Y0170014D01*
X0334945Y0169994D01*
X0334837Y0169964D01*
X0334758Y0169945D01*
X0334709Y0169935D01*
X0334699Y0169925D01*
X0334591Y0169866D01*
X0334482Y0169807D01*
X0334394Y0169738D01*
X0334325Y0169669D01*
X0334266Y0169600D01*
X0334226Y0169551D01*
X0334197Y0169512D01*
X0334187Y0169502D01*
X0334118Y0169394D01*
X0334069Y0169276D01*
X0334039Y0169167D01*
X0334010Y0169059D01*
X0334000Y0168971D01*
X0333990Y0168902D01*
Y0168862D01*
Y0168843D01*
X0334000Y0168715D01*
X0334020Y0168587D01*
X0334049Y0168479D01*
X0334089Y0168380D01*
X0334128Y0168292D01*
X0334158Y0168233D01*
X0334177Y0168193D01*
X0334187Y0168183D01*
X0334266Y0168085D01*
X0334354Y0167996D01*
X0334443Y0167918D01*
X0334531Y0167859D01*
X0334610Y0167809D01*
X0334669Y0167780D01*
X0334709Y0167760D01*
X0334728Y0167750D01*
X0334866Y0167711D01*
X0335033Y0167682D01*
X0335210Y0167652D01*
X0335388Y0167642D01*
X0335545Y0167632D01*
X0335614Y0167622D01*
X0335791D01*
X0336992Y0167642D01*
Y0170053D01*
D02*
G37*
G36*
X0355235D02*
X0353847D01*
X0353729Y0170043D01*
X0353513Y0170033D01*
X0353326Y0170014D01*
X0353178Y0169994D01*
X0353070Y0169964D01*
X0352991Y0169945D01*
X0352942Y0169935D01*
X0352932Y0169925D01*
X0352824Y0169866D01*
X0352716Y0169807D01*
X0352627Y0169738D01*
X0352558Y0169669D01*
X0352499Y0169600D01*
X0352460Y0169551D01*
X0352431Y0169512D01*
X0352421Y0169502D01*
X0352352Y0169394D01*
X0352303Y0169276D01*
X0352273Y0169167D01*
X0352243Y0169069D01*
X0352234Y0168980D01*
X0352224Y0168912D01*
Y0168872D01*
Y0168852D01*
X0352234Y0168715D01*
X0352253Y0168597D01*
X0352283Y0168479D01*
X0352322Y0168380D01*
X0352362Y0168301D01*
X0352391Y0168233D01*
X0352411Y0168193D01*
X0352421Y0168183D01*
X0352499Y0168085D01*
X0352578Y0167996D01*
X0352667Y0167918D01*
X0352755Y0167859D01*
X0352834Y0167809D01*
X0352893Y0167780D01*
X0352932Y0167760D01*
X0352952Y0167750D01*
X0353100Y0167711D01*
X0353267Y0167682D01*
X0353444Y0167652D01*
X0353611Y0167642D01*
X0353769Y0167632D01*
X0353838Y0167622D01*
X0354015D01*
X0355235Y0167632D01*
Y0170053D01*
D02*
G37*
G36*
X0364775Y0191821D02*
X0364696D01*
X0364529Y0191811D01*
X0364362Y0191772D01*
X0364214Y0191723D01*
X0364086Y0191664D01*
X0363978Y0191595D01*
X0363889Y0191545D01*
X0363840Y0191506D01*
X0363820Y0191496D01*
X0363673Y0191358D01*
X0363535Y0191211D01*
X0363427Y0191044D01*
X0363328Y0190876D01*
X0363259Y0190729D01*
X0363230Y0190660D01*
X0363200Y0190601D01*
X0363181Y0190561D01*
X0363171Y0190522D01*
X0363161Y0190503D01*
Y0190493D01*
X0363082Y0190227D01*
X0363023Y0189932D01*
X0362974Y0189637D01*
X0362945Y0189361D01*
X0362935Y0189233D01*
X0362925Y0189115D01*
Y0189007D01*
X0362915Y0188918D01*
Y0188849D01*
Y0188790D01*
Y0188751D01*
Y0188741D01*
X0362925Y0188357D01*
X0362945Y0188170D01*
X0362954Y0188003D01*
X0362974Y0187836D01*
X0363003Y0187688D01*
X0363023Y0187550D01*
X0363053Y0187423D01*
X0363082Y0187304D01*
X0363102Y0187196D01*
X0363122Y0187108D01*
X0363151Y0187039D01*
X0363161Y0186980D01*
X0363181Y0186940D01*
X0363191Y0186911D01*
Y0186901D01*
X0363279Y0186685D01*
X0363377Y0186498D01*
X0363476Y0186330D01*
X0363574Y0186202D01*
X0363673Y0186094D01*
X0363741Y0186025D01*
X0363791Y0185986D01*
X0363810Y0185966D01*
X0363968Y0185868D01*
X0364125Y0185789D01*
X0364273Y0185740D01*
X0364411Y0185701D01*
X0364529Y0185681D01*
X0364617Y0185671D01*
X0364676Y0185661D01*
X0364696D01*
X0364873Y0185671D01*
X0365031Y0185710D01*
X0365188Y0185760D01*
X0365316Y0185819D01*
X0365434Y0185878D01*
X0365513Y0185927D01*
X0365572Y0185966D01*
X0365582Y0185976D01*
X0365591D01*
X0365739Y0186104D01*
X0365867Y0186252D01*
X0365975Y0186409D01*
X0366074Y0186566D01*
X0366143Y0186694D01*
X0366192Y0186812D01*
X0366211Y0186852D01*
X0366221Y0186881D01*
X0366231Y0186901D01*
Y0186911D01*
X0366270Y0187039D01*
X0366300Y0187167D01*
X0366349Y0187462D01*
X0366389Y0187767D01*
X0366408Y0188062D01*
X0366418Y0188200D01*
X0366428Y0188328D01*
Y0188446D01*
X0366438Y0188544D01*
Y0188623D01*
Y0188692D01*
Y0188731D01*
Y0188741D01*
Y0188958D01*
X0366428Y0189164D01*
X0366418Y0189361D01*
X0366408Y0189538D01*
X0366389Y0189696D01*
X0366369Y0189853D01*
X0366349Y0189981D01*
X0366329Y0190109D01*
X0366310Y0190217D01*
X0366290Y0190306D01*
X0366270Y0190384D01*
X0366251Y0190443D01*
X0366241Y0190493D01*
X0366231Y0190532D01*
X0366221Y0190552D01*
Y0190561D01*
X0366133Y0190778D01*
X0366034Y0190965D01*
X0365926Y0191132D01*
X0365828Y0191260D01*
X0365729Y0191368D01*
X0365660Y0191437D01*
X0365611Y0191487D01*
X0365591Y0191496D01*
X0365434Y0191604D01*
X0365277Y0191683D01*
X0365119Y0191742D01*
X0364981Y0191782D01*
X0364863Y0191801D01*
X0364775Y0191821D01*
D02*
G37*
G36*
X0332076D02*
X0331998D01*
X0331830Y0191811D01*
X0331663Y0191772D01*
X0331516Y0191723D01*
X0331388Y0191664D01*
X0331279Y0191595D01*
X0331191Y0191545D01*
X0331142Y0191506D01*
X0331122Y0191496D01*
X0330974Y0191358D01*
X0330837Y0191211D01*
X0330728Y0191044D01*
X0330630Y0190876D01*
X0330561Y0190729D01*
X0330532Y0190660D01*
X0330502Y0190601D01*
X0330482Y0190561D01*
X0330472Y0190522D01*
X0330463Y0190503D01*
Y0190493D01*
X0330384Y0190227D01*
X0330325Y0189932D01*
X0330276Y0189637D01*
X0330246Y0189361D01*
X0330236Y0189233D01*
X0330226Y0189115D01*
Y0189007D01*
X0330217Y0188918D01*
Y0188849D01*
Y0188790D01*
Y0188751D01*
Y0188741D01*
X0330226Y0188357D01*
X0330246Y0188170D01*
X0330256Y0188003D01*
X0330276Y0187836D01*
X0330305Y0187688D01*
X0330325Y0187550D01*
X0330354Y0187423D01*
X0330384Y0187304D01*
X0330404Y0187196D01*
X0330423Y0187108D01*
X0330453Y0187039D01*
X0330463Y0186980D01*
X0330482Y0186940D01*
X0330492Y0186911D01*
Y0186901D01*
X0330581Y0186685D01*
X0330679Y0186498D01*
X0330778Y0186330D01*
X0330876Y0186202D01*
X0330974Y0186094D01*
X0331043Y0186025D01*
X0331092Y0185986D01*
X0331112Y0185966D01*
X0331270Y0185868D01*
X0331427Y0185789D01*
X0331575Y0185740D01*
X0331712Y0185701D01*
X0331830Y0185681D01*
X0331919Y0185671D01*
X0331978Y0185661D01*
X0331998D01*
X0332175Y0185671D01*
X0332332Y0185710D01*
X0332490Y0185760D01*
X0332618Y0185819D01*
X0332736Y0185878D01*
X0332814Y0185927D01*
X0332874Y0185966D01*
X0332883Y0185976D01*
X0332893D01*
X0333041Y0186104D01*
X0333169Y0186252D01*
X0333277Y0186409D01*
X0333375Y0186566D01*
X0333444Y0186694D01*
X0333493Y0186812D01*
X0333513Y0186852D01*
X0333523Y0186881D01*
X0333533Y0186901D01*
Y0186911D01*
X0333572Y0187039D01*
X0333602Y0187167D01*
X0333651Y0187462D01*
X0333690Y0187767D01*
X0333710Y0188062D01*
X0333720Y0188200D01*
X0333730Y0188328D01*
Y0188446D01*
X0333739Y0188544D01*
Y0188623D01*
Y0188692D01*
Y0188731D01*
Y0188741D01*
Y0188958D01*
X0333730Y0189164D01*
X0333720Y0189361D01*
X0333710Y0189538D01*
X0333690Y0189696D01*
X0333670Y0189853D01*
X0333651Y0189981D01*
X0333631Y0190109D01*
X0333611Y0190217D01*
X0333592Y0190306D01*
X0333572Y0190384D01*
X0333552Y0190443D01*
X0333543Y0190493D01*
X0333533Y0190532D01*
X0333523Y0190552D01*
Y0190561D01*
X0333434Y0190778D01*
X0333336Y0190965D01*
X0333228Y0191132D01*
X0333129Y0191260D01*
X0333031Y0191368D01*
X0332962Y0191437D01*
X0332913Y0191487D01*
X0332893Y0191496D01*
X0332736Y0191604D01*
X0332578Y0191683D01*
X0332421Y0191742D01*
X0332283Y0191782D01*
X0332165Y0191801D01*
X0332076Y0191821D01*
D02*
G37*
G36*
X0352878D02*
X0352799D01*
X0352632Y0191811D01*
X0352465Y0191772D01*
X0352317Y0191723D01*
X0352189Y0191664D01*
X0352081Y0191595D01*
X0351993Y0191545D01*
X0351943Y0191506D01*
X0351924Y0191496D01*
X0351776Y0191358D01*
X0351638Y0191211D01*
X0351530Y0191044D01*
X0351432Y0190876D01*
X0351363Y0190729D01*
X0351333Y0190660D01*
X0351304Y0190601D01*
X0351284Y0190561D01*
X0351274Y0190522D01*
X0351264Y0190503D01*
Y0190493D01*
X0351186Y0190227D01*
X0351127Y0189932D01*
X0351077Y0189637D01*
X0351048Y0189361D01*
X0351038Y0189233D01*
X0351028Y0189115D01*
Y0189007D01*
X0351018Y0188918D01*
Y0188849D01*
Y0188790D01*
Y0188751D01*
Y0188741D01*
X0351028Y0188357D01*
X0351048Y0188170D01*
X0351058Y0188003D01*
X0351077Y0187836D01*
X0351107Y0187688D01*
X0351127Y0187550D01*
X0351156Y0187423D01*
X0351186Y0187304D01*
X0351205Y0187196D01*
X0351225Y0187108D01*
X0351255Y0187039D01*
X0351264Y0186980D01*
X0351284Y0186940D01*
X0351294Y0186911D01*
Y0186901D01*
X0351382Y0186685D01*
X0351481Y0186498D01*
X0351579Y0186330D01*
X0351678Y0186202D01*
X0351776Y0186094D01*
X0351845Y0186025D01*
X0351894Y0185986D01*
X0351914Y0185966D01*
X0352071Y0185868D01*
X0352229Y0185789D01*
X0352376Y0185740D01*
X0352514Y0185701D01*
X0352632Y0185681D01*
X0352721Y0185671D01*
X0352780Y0185661D01*
X0352799D01*
X0352977Y0185671D01*
X0353134Y0185710D01*
X0353291Y0185760D01*
X0353419Y0185819D01*
X0353537Y0185878D01*
X0353616Y0185927D01*
X0353675Y0185966D01*
X0353685Y0185976D01*
X0353695D01*
X0353842Y0186104D01*
X0353970Y0186252D01*
X0354079Y0186409D01*
X0354177Y0186566D01*
X0354246Y0186694D01*
X0354295Y0186812D01*
X0354315Y0186852D01*
X0354325Y0186881D01*
X0354334Y0186901D01*
Y0186911D01*
X0354374Y0187039D01*
X0354403Y0187167D01*
X0354453Y0187462D01*
X0354492Y0187767D01*
X0354512Y0188062D01*
X0354521Y0188200D01*
X0354531Y0188328D01*
Y0188446D01*
X0354541Y0188544D01*
Y0188623D01*
Y0188692D01*
Y0188731D01*
Y0188741D01*
Y0188958D01*
X0354531Y0189164D01*
X0354521Y0189361D01*
X0354512Y0189538D01*
X0354492Y0189696D01*
X0354472Y0189853D01*
X0354453Y0189981D01*
X0354433Y0190109D01*
X0354413Y0190217D01*
X0354394Y0190306D01*
X0354374Y0190384D01*
X0354354Y0190443D01*
X0354344Y0190493D01*
X0354334Y0190532D01*
X0354325Y0190552D01*
Y0190561D01*
X0354236Y0190778D01*
X0354138Y0190965D01*
X0354029Y0191132D01*
X0353931Y0191260D01*
X0353833Y0191368D01*
X0353764Y0191437D01*
X0353715Y0191487D01*
X0353695Y0191496D01*
X0353537Y0191604D01*
X0353380Y0191683D01*
X0353223Y0191742D01*
X0353085Y0191782D01*
X0352967Y0191801D01*
X0352878Y0191821D01*
D02*
G37*
%LPD*%
M02*
