G04 Layer_Color=32896*
%FSAX25Y25*%
%MOIN*%
G70*
G01*
G75*
G36*
X0273347Y0203071D02*
X0273426Y0203051D01*
X0273504Y0203022D01*
X0273563Y0202992D01*
X0273612Y0202963D01*
X0273652Y0202933D01*
X0273672Y0202913D01*
X0273681Y0202904D01*
X0273741Y0202835D01*
X0273780Y0202766D01*
X0273809Y0202697D01*
X0273829Y0202628D01*
X0273839Y0202569D01*
X0273849Y0202520D01*
Y0202490D01*
Y0202481D01*
X0273839Y0202392D01*
X0273819Y0202303D01*
X0273799Y0202235D01*
X0273760Y0202166D01*
X0273731Y0202116D01*
X0273711Y0202077D01*
X0273691Y0202057D01*
X0273681Y0202047D01*
X0273612Y0201989D01*
X0273544Y0201949D01*
X0273465Y0201920D01*
X0273406Y0201900D01*
X0273347Y0201890D01*
X0273298Y0201880D01*
X0273258D01*
X0273170Y0201890D01*
X0273091Y0201910D01*
X0273012Y0201929D01*
X0272953Y0201969D01*
X0272904Y0201998D01*
X0272865Y0202018D01*
X0272845Y0202038D01*
X0272835Y0202047D01*
X0272776Y0202116D01*
X0272737Y0202195D01*
X0272697Y0202264D01*
X0272678Y0202333D01*
X0272668Y0202392D01*
X0272658Y0202441D01*
Y0202471D01*
Y0202481D01*
X0272668Y0202569D01*
X0272688Y0202648D01*
X0272717Y0202727D01*
X0272747Y0202785D01*
X0272776Y0202835D01*
X0272806Y0202874D01*
X0272825Y0202894D01*
X0272835Y0202904D01*
X0272904Y0202963D01*
X0272973Y0203002D01*
X0273042Y0203041D01*
X0273111Y0203061D01*
X0273170Y0203071D01*
X0273219Y0203081D01*
X0273258D01*
X0273347Y0203071D01*
D02*
G37*
G36*
X0348761Y0207410D02*
X0348957Y0207381D01*
X0349144Y0207341D01*
X0349331Y0207292D01*
X0349499Y0207233D01*
X0349656Y0207164D01*
X0349804Y0207086D01*
X0349932Y0207017D01*
X0350050Y0206938D01*
X0350158Y0206859D01*
X0350256Y0206790D01*
X0350335Y0206731D01*
X0350394Y0206682D01*
X0350433Y0206643D01*
X0350463Y0206613D01*
X0350473Y0206604D01*
X0350610Y0206446D01*
X0350729Y0206289D01*
X0350837Y0206121D01*
X0350925Y0205964D01*
X0351004Y0205797D01*
X0351063Y0205629D01*
X0351122Y0205472D01*
X0351162Y0205324D01*
X0351191Y0205187D01*
X0351221Y0205059D01*
X0351240Y0204941D01*
X0351250Y0204842D01*
Y0204763D01*
X0351260Y0204704D01*
Y0204665D01*
Y0204655D01*
X0351250Y0204439D01*
X0351231Y0204242D01*
X0351191Y0204045D01*
X0351132Y0203858D01*
X0351073Y0203681D01*
X0351014Y0203523D01*
X0350935Y0203376D01*
X0350866Y0203238D01*
X0350798Y0203110D01*
X0350719Y0203002D01*
X0350660Y0202913D01*
X0350591Y0202835D01*
X0350542Y0202766D01*
X0350502Y0202727D01*
X0350483Y0202697D01*
X0350473Y0202687D01*
X0350325Y0202549D01*
X0350168Y0202421D01*
X0350001Y0202313D01*
X0349843Y0202225D01*
X0349686Y0202146D01*
X0349528Y0202077D01*
X0349371Y0202028D01*
X0349223Y0201979D01*
X0349095Y0201949D01*
X0348967Y0201920D01*
X0348859Y0201910D01*
X0348761Y0201890D01*
X0348682D01*
X0348623Y0201880D01*
X0348574D01*
X0348347Y0201890D01*
X0348131Y0201920D01*
X0347934Y0201959D01*
X0347757Y0202008D01*
X0347619Y0202057D01*
X0347511Y0202097D01*
X0347472Y0202116D01*
X0347442Y0202126D01*
X0347432Y0202136D01*
X0347422D01*
X0347226Y0202244D01*
X0347048Y0202372D01*
X0346881Y0202500D01*
X0346743Y0202628D01*
X0346625Y0202736D01*
X0346537Y0202825D01*
X0346478Y0202894D01*
X0346458Y0202904D01*
Y0202018D01*
X0345779D01*
Y0207282D01*
X0346458D01*
Y0206308D01*
X0346616Y0206505D01*
X0346773Y0206672D01*
X0346930Y0206810D01*
X0347068Y0206928D01*
X0347196Y0207017D01*
X0347294Y0207086D01*
X0347334Y0207105D01*
X0347363Y0207125D01*
X0347373Y0207135D01*
X0347383D01*
X0347580Y0207233D01*
X0347786Y0207302D01*
X0347983Y0207351D01*
X0348160Y0207381D01*
X0348318Y0207410D01*
X0348387D01*
X0348446Y0207420D01*
X0348554D01*
X0348761Y0207410D01*
D02*
G37*
G36*
X0289160Y0202018D02*
X0289012D01*
X0287330Y0205787D01*
X0285637Y0202018D01*
X0285519D01*
X0283236Y0207282D01*
X0283935D01*
X0285578Y0203465D01*
X0287280Y0207282D01*
X0287398D01*
X0289081Y0203465D01*
X0290685Y0207282D01*
X0291384D01*
X0289160Y0202018D01*
D02*
G37*
G36*
X0302296Y0206308D02*
X0302454Y0206505D01*
X0302611Y0206672D01*
X0302768Y0206810D01*
X0302906Y0206928D01*
X0303034Y0207017D01*
X0303133Y0207086D01*
X0303172Y0207105D01*
X0303201Y0207125D01*
X0303211Y0207135D01*
X0303221D01*
X0303418Y0207233D01*
X0303625Y0207302D01*
X0303821Y0207351D01*
X0303998Y0207381D01*
X0304156Y0207410D01*
X0304225D01*
X0304284Y0207420D01*
X0304392D01*
X0304599Y0207410D01*
X0304796Y0207381D01*
X0304982Y0207341D01*
X0305169Y0207292D01*
X0305337Y0207233D01*
X0305494Y0207164D01*
X0305642Y0207086D01*
X0305770Y0207017D01*
X0305888Y0206938D01*
X0305996Y0206859D01*
X0306094Y0206790D01*
X0306173Y0206731D01*
X0306232Y0206682D01*
X0306272Y0206643D01*
X0306301Y0206613D01*
X0306311Y0206604D01*
X0306449Y0206446D01*
X0306567Y0206289D01*
X0306675Y0206121D01*
X0306764Y0205964D01*
X0306842Y0205797D01*
X0306901Y0205629D01*
X0306960Y0205472D01*
X0307000Y0205324D01*
X0307029Y0205187D01*
X0307059Y0205059D01*
X0307078Y0204941D01*
X0307088Y0204842D01*
Y0204763D01*
X0307098Y0204704D01*
Y0204665D01*
Y0204655D01*
X0307088Y0204439D01*
X0307068Y0204242D01*
X0307029Y0204045D01*
X0306970Y0203858D01*
X0306911Y0203681D01*
X0306852Y0203523D01*
X0306773Y0203376D01*
X0306704Y0203238D01*
X0306636Y0203110D01*
X0306557Y0203002D01*
X0306498Y0202913D01*
X0306429Y0202835D01*
X0306380Y0202766D01*
X0306340Y0202727D01*
X0306321Y0202697D01*
X0306311Y0202687D01*
X0306163Y0202549D01*
X0306006Y0202421D01*
X0305838Y0202313D01*
X0305681Y0202225D01*
X0305524Y0202146D01*
X0305366Y0202077D01*
X0305209Y0202028D01*
X0305061Y0201979D01*
X0304933Y0201949D01*
X0304805Y0201920D01*
X0304697Y0201910D01*
X0304599Y0201890D01*
X0304520D01*
X0304461Y0201880D01*
X0304412D01*
X0304185Y0201890D01*
X0303969Y0201920D01*
X0303772Y0201959D01*
X0303595Y0202008D01*
X0303457Y0202057D01*
X0303349Y0202097D01*
X0303310Y0202116D01*
X0303280Y0202126D01*
X0303270Y0202136D01*
X0303260D01*
X0303064Y0202244D01*
X0302887Y0202372D01*
X0302719Y0202500D01*
X0302582Y0202628D01*
X0302463Y0202736D01*
X0302375Y0202825D01*
X0302316Y0202894D01*
X0302296Y0202904D01*
Y0202018D01*
X0301617D01*
Y0209310D01*
X0302296D01*
Y0206308D01*
D02*
G37*
G36*
X0335044Y0202018D02*
X0334365D01*
X0333666Y0207145D01*
X0331127Y0202018D01*
X0330940D01*
X0328421Y0207105D01*
X0327713Y0202018D01*
X0327024D01*
X0328047Y0209132D01*
X0328146D01*
X0331029Y0203297D01*
X0333912Y0209132D01*
X0334040D01*
X0335044Y0202018D01*
D02*
G37*
G36*
X0318399Y0211834D02*
X0317661D01*
X0314699Y0220090D01*
X0315447D01*
X0318399Y0211834D01*
D02*
G37*
G36*
X0297224Y0219234D02*
X0293829D01*
X0297115Y0212917D01*
X0296515Y0212622D01*
X0292717Y0219913D01*
X0297224D01*
Y0219234D01*
D02*
G37*
G36*
X0331290Y0219805D02*
X0331437Y0219391D01*
X0331565Y0218988D01*
X0331614Y0218801D01*
X0331664Y0218624D01*
X0331713Y0218457D01*
X0331742Y0218299D01*
X0331782Y0218171D01*
X0331801Y0218053D01*
X0331821Y0217965D01*
X0331841Y0217896D01*
X0331851Y0217857D01*
Y0217837D01*
X0331929Y0217355D01*
X0331988Y0216882D01*
X0332018Y0216646D01*
X0332037Y0216430D01*
X0332057Y0216223D01*
X0332067Y0216026D01*
X0332077Y0215849D01*
X0332087Y0215682D01*
Y0215534D01*
X0332097Y0215416D01*
Y0215318D01*
Y0215239D01*
Y0215200D01*
Y0215180D01*
X0332087Y0214718D01*
X0332067Y0214275D01*
X0332047Y0214058D01*
X0332028Y0213861D01*
X0332008Y0213674D01*
X0331988Y0213497D01*
X0331979Y0213340D01*
X0331959Y0213192D01*
X0331939Y0213064D01*
X0331920Y0212956D01*
X0331910Y0212877D01*
X0331900Y0212809D01*
X0331890Y0212769D01*
Y0212759D01*
X0331801Y0212336D01*
X0331762Y0212139D01*
X0331713Y0211952D01*
X0331664Y0211775D01*
X0331614Y0211608D01*
X0331575Y0211451D01*
X0331526Y0211313D01*
X0331487Y0211185D01*
X0331447Y0211067D01*
X0331408Y0210968D01*
X0331378Y0210890D01*
X0331359Y0210821D01*
X0331339Y0210772D01*
X0331319Y0210742D01*
Y0210732D01*
X0330571D01*
X0330709Y0211087D01*
X0330827Y0211441D01*
X0330926Y0211795D01*
X0330975Y0211952D01*
X0331014Y0212120D01*
X0331053Y0212267D01*
X0331083Y0212395D01*
X0331113Y0212513D01*
X0331132Y0212622D01*
X0331152Y0212700D01*
X0331162Y0212769D01*
X0331172Y0212809D01*
Y0212818D01*
X0331241Y0213261D01*
X0331290Y0213704D01*
X0331329Y0214117D01*
X0331339Y0214314D01*
X0331349Y0214491D01*
X0331359Y0214658D01*
X0331368Y0214816D01*
Y0214944D01*
X0331378Y0215062D01*
Y0215150D01*
Y0215219D01*
Y0215269D01*
Y0215278D01*
X0331368Y0215790D01*
X0331339Y0216282D01*
X0331309Y0216508D01*
X0331290Y0216735D01*
X0331270Y0216941D01*
X0331241Y0217138D01*
X0331211Y0217315D01*
X0331191Y0217473D01*
X0331162Y0217611D01*
X0331142Y0217728D01*
X0331132Y0217827D01*
X0331113Y0217896D01*
X0331103Y0217945D01*
Y0217955D01*
X0330985Y0218427D01*
X0330926Y0218644D01*
X0330867Y0218860D01*
X0330798Y0219057D01*
X0330739Y0219244D01*
X0330670Y0219421D01*
X0330611Y0219579D01*
X0330552Y0219726D01*
X0330503Y0219854D01*
X0330453Y0219962D01*
X0330414Y0220061D01*
X0330384Y0220129D01*
X0330355Y0220188D01*
X0330345Y0220218D01*
X0330335Y0220228D01*
X0331122D01*
X0331290Y0219805D01*
D02*
G37*
G36*
X0342079Y0207400D02*
X0342325Y0207361D01*
X0342552Y0207302D01*
X0342758Y0207233D01*
X0342847Y0207194D01*
X0342926Y0207164D01*
X0342994Y0207135D01*
X0343063Y0207105D01*
X0343103Y0207086D01*
X0343142Y0207066D01*
X0343162Y0207046D01*
X0343172D01*
X0343398Y0206899D01*
X0343595Y0206731D01*
X0343772Y0206564D01*
X0343910Y0206407D01*
X0344028Y0206269D01*
X0344106Y0206151D01*
X0344136Y0206102D01*
X0344156Y0206072D01*
X0344175Y0206052D01*
Y0206043D01*
X0344293Y0205806D01*
X0344382Y0205560D01*
X0344441Y0205334D01*
X0344480Y0205127D01*
X0344510Y0204950D01*
X0344520Y0204872D01*
Y0204813D01*
X0344529Y0204753D01*
Y0204714D01*
Y0204695D01*
Y0204685D01*
X0344510Y0204419D01*
X0344470Y0204173D01*
X0344421Y0203937D01*
X0344352Y0203740D01*
X0344323Y0203651D01*
X0344293Y0203583D01*
X0344264Y0203514D01*
X0344234Y0203455D01*
X0344215Y0203405D01*
X0344195Y0203376D01*
X0344185Y0203356D01*
Y0203346D01*
X0344047Y0203130D01*
X0343890Y0202933D01*
X0343723Y0202766D01*
X0343565Y0202628D01*
X0343418Y0202520D01*
X0343309Y0202441D01*
X0343260Y0202412D01*
X0343231Y0202392D01*
X0343211Y0202372D01*
X0343201D01*
X0342955Y0202254D01*
X0342719Y0202166D01*
X0342483Y0202107D01*
X0342276Y0202067D01*
X0342188Y0202047D01*
X0342099Y0202038D01*
X0342020Y0202028D01*
X0341961D01*
X0341902Y0202018D01*
X0341833D01*
X0341607Y0202028D01*
X0341390Y0202057D01*
X0341194Y0202097D01*
X0341017Y0202146D01*
X0340869Y0202195D01*
X0340810Y0202215D01*
X0340761Y0202235D01*
X0340721Y0202254D01*
X0340682Y0202264D01*
X0340672Y0202274D01*
X0340662D01*
X0340456Y0202382D01*
X0340279Y0202500D01*
X0340121Y0202618D01*
X0339983Y0202736D01*
X0339865Y0202845D01*
X0339787Y0202933D01*
X0339737Y0202992D01*
X0339718Y0203002D01*
Y0202746D01*
Y0202589D01*
X0339727Y0202441D01*
X0339737Y0202313D01*
X0339747Y0202185D01*
X0339767Y0202067D01*
X0339787Y0201969D01*
X0339806Y0201870D01*
X0339816Y0201792D01*
X0339836Y0201723D01*
X0339855Y0201654D01*
X0339875Y0201605D01*
X0339895Y0201565D01*
X0339914Y0201506D01*
X0339924Y0201487D01*
X0340013Y0201349D01*
X0340121Y0201221D01*
X0340229Y0201113D01*
X0340347Y0201014D01*
X0340446Y0200936D01*
X0340534Y0200886D01*
X0340593Y0200847D01*
X0340603Y0200837D01*
X0340613D01*
X0340800Y0200749D01*
X0340997Y0200680D01*
X0341184Y0200640D01*
X0341371Y0200601D01*
X0341528Y0200581D01*
X0341597D01*
X0341656Y0200571D01*
X0341774D01*
X0342030Y0200581D01*
X0342256Y0200611D01*
X0342463Y0200650D01*
X0342630Y0200699D01*
X0342768Y0200749D01*
X0342866Y0200788D01*
X0342906Y0200808D01*
X0342935Y0200817D01*
X0342945Y0200827D01*
X0342955D01*
X0343122Y0200936D01*
X0343270Y0201054D01*
X0343408Y0201182D01*
X0343516Y0201309D01*
X0343604Y0201418D01*
X0343673Y0201516D01*
X0343713Y0201575D01*
X0343723Y0201585D01*
Y0201595D01*
X0344461D01*
X0344352Y0201378D01*
X0344244Y0201191D01*
X0344136Y0201034D01*
X0344047Y0200896D01*
X0343959Y0200798D01*
X0343900Y0200719D01*
X0343850Y0200680D01*
X0343841Y0200660D01*
X0343703Y0200542D01*
X0343565Y0200444D01*
X0343418Y0200355D01*
X0343280Y0200286D01*
X0343152Y0200227D01*
X0343053Y0200188D01*
X0343014Y0200168D01*
X0342985Y0200158D01*
X0342975Y0200148D01*
X0342965D01*
X0342758Y0200079D01*
X0342542Y0200030D01*
X0342345Y0200001D01*
X0342148Y0199981D01*
X0341991Y0199961D01*
X0341922D01*
X0341863Y0199952D01*
X0341745D01*
X0341410Y0199971D01*
X0341105Y0200011D01*
X0340839Y0200079D01*
X0340711Y0200109D01*
X0340603Y0200148D01*
X0340505Y0200188D01*
X0340416Y0200217D01*
X0340338Y0200257D01*
X0340279Y0200286D01*
X0340229Y0200306D01*
X0340190Y0200325D01*
X0340170Y0200345D01*
X0340160D01*
X0339934Y0200503D01*
X0339737Y0200690D01*
X0339580Y0200877D01*
X0339452Y0201054D01*
X0339354Y0201221D01*
X0339314Y0201290D01*
X0339285Y0201349D01*
X0339265Y0201398D01*
X0339245Y0201437D01*
X0339235Y0201457D01*
Y0201467D01*
X0339196Y0201565D01*
X0339167Y0201683D01*
X0339117Y0201939D01*
X0339088Y0202205D01*
X0339058Y0202471D01*
Y0202589D01*
X0339049Y0202707D01*
Y0202805D01*
X0339039Y0202904D01*
Y0202973D01*
Y0203031D01*
Y0203071D01*
Y0203081D01*
Y0207282D01*
X0339718D01*
Y0206367D01*
X0339895Y0206564D01*
X0340072Y0206731D01*
X0340239Y0206869D01*
X0340397Y0206977D01*
X0340525Y0207066D01*
X0340623Y0207125D01*
X0340662Y0207145D01*
X0340692Y0207164D01*
X0340702Y0207174D01*
X0340711D01*
X0340908Y0207253D01*
X0341095Y0207312D01*
X0341282Y0207361D01*
X0341449Y0207391D01*
X0341597Y0207410D01*
X0341656D01*
X0341715Y0207420D01*
X0341814D01*
X0342079Y0207400D01*
D02*
G37*
G36*
X0291477Y0219874D02*
X0291369Y0219519D01*
X0291261Y0219165D01*
X0291221Y0218998D01*
X0291182Y0218841D01*
X0291143Y0218693D01*
X0291113Y0218555D01*
X0291083Y0218437D01*
X0291064Y0218329D01*
X0291044Y0218250D01*
X0291034Y0218181D01*
X0291024Y0218142D01*
Y0218132D01*
X0290955Y0217689D01*
X0290897Y0217246D01*
X0290857Y0216833D01*
X0290847Y0216646D01*
X0290837Y0216459D01*
X0290828Y0216292D01*
X0290818Y0216135D01*
Y0216007D01*
X0290808Y0215889D01*
Y0215800D01*
Y0215731D01*
Y0215692D01*
Y0215672D01*
X0290818Y0215160D01*
X0290847Y0214668D01*
X0290877Y0214442D01*
X0290897Y0214216D01*
X0290926Y0214009D01*
X0290946Y0213822D01*
X0290975Y0213635D01*
X0291005Y0213478D01*
X0291024Y0213340D01*
X0291044Y0213222D01*
X0291064Y0213123D01*
X0291083Y0213055D01*
X0291093Y0213015D01*
Y0212996D01*
X0291211Y0212533D01*
X0291270Y0212307D01*
X0291329Y0212100D01*
X0291398Y0211903D01*
X0291457Y0211716D01*
X0291516Y0211539D01*
X0291576Y0211382D01*
X0291634Y0211234D01*
X0291684Y0211106D01*
X0291733Y0210998D01*
X0291772Y0210909D01*
X0291802Y0210831D01*
X0291831Y0210782D01*
X0291841Y0210742D01*
X0291851Y0210732D01*
X0291064D01*
X0290897Y0211155D01*
X0290749Y0211569D01*
X0290631Y0211972D01*
X0290572Y0212159D01*
X0290523Y0212336D01*
X0290483Y0212504D01*
X0290444Y0212651D01*
X0290414Y0212779D01*
X0290395Y0212897D01*
X0290375Y0212986D01*
X0290355Y0213055D01*
X0290345Y0213104D01*
Y0213114D01*
X0290257Y0213596D01*
X0290198Y0214068D01*
X0290168Y0214294D01*
X0290149Y0214521D01*
X0290139Y0214727D01*
X0290119Y0214924D01*
X0290109Y0215101D01*
X0290099Y0215259D01*
Y0215406D01*
X0290090Y0215524D01*
Y0215623D01*
Y0215702D01*
Y0215741D01*
Y0215761D01*
X0290099Y0216223D01*
X0290119Y0216676D01*
X0290139Y0216882D01*
X0290159Y0217079D01*
X0290178Y0217276D01*
X0290198Y0217453D01*
X0290217Y0217611D01*
X0290237Y0217758D01*
X0290257Y0217886D01*
X0290277Y0217984D01*
X0290286Y0218073D01*
X0290296Y0218142D01*
X0290306Y0218181D01*
Y0218191D01*
X0290385Y0218614D01*
X0290434Y0218811D01*
X0290483Y0219008D01*
X0290523Y0219185D01*
X0290572Y0219352D01*
X0290621Y0219510D01*
X0290660Y0219647D01*
X0290709Y0219775D01*
X0290739Y0219893D01*
X0290778Y0219992D01*
X0290808Y0220071D01*
X0290837Y0220139D01*
X0290847Y0220188D01*
X0290867Y0220218D01*
Y0220228D01*
X0291615D01*
X0291477Y0219874D01*
D02*
G37*
G36*
X0363639Y0207410D02*
X0363836Y0207381D01*
X0364013Y0207332D01*
X0364180Y0207282D01*
X0364308Y0207233D01*
X0364406Y0207184D01*
X0364446Y0207174D01*
X0364475Y0207154D01*
X0364485Y0207145D01*
X0364495D01*
X0364672Y0207036D01*
X0364839Y0206908D01*
X0364997Y0206771D01*
X0365125Y0206643D01*
X0365233Y0206525D01*
X0365321Y0206426D01*
X0365351Y0206387D01*
X0365370Y0206358D01*
X0365380Y0206348D01*
X0365390Y0206338D01*
Y0207282D01*
X0366069D01*
Y0202018D01*
X0365390D01*
Y0203947D01*
Y0204134D01*
Y0204311D01*
X0365380Y0204468D01*
Y0204616D01*
X0365370Y0204744D01*
X0365361Y0204862D01*
X0365351Y0204960D01*
X0365341Y0205059D01*
Y0205137D01*
X0365331Y0205206D01*
X0365321Y0205265D01*
X0365312Y0205305D01*
Y0205344D01*
X0365302Y0205364D01*
Y0205383D01*
X0365233Y0205600D01*
X0365134Y0205797D01*
X0365026Y0205964D01*
X0364918Y0206112D01*
X0364820Y0206229D01*
X0364741Y0206318D01*
X0364682Y0206367D01*
X0364672Y0206387D01*
X0364662D01*
X0364475Y0206525D01*
X0364278Y0206623D01*
X0364101Y0206702D01*
X0363924Y0206751D01*
X0363776Y0206781D01*
X0363717Y0206790D01*
X0363658D01*
X0363619Y0206800D01*
X0363560D01*
X0363363Y0206790D01*
X0363196Y0206761D01*
X0363048Y0206712D01*
X0362920Y0206672D01*
X0362822Y0206623D01*
X0362753Y0206574D01*
X0362704Y0206544D01*
X0362694Y0206535D01*
X0362576Y0206426D01*
X0362478Y0206298D01*
X0362399Y0206171D01*
X0362340Y0206043D01*
X0362300Y0205925D01*
X0362261Y0205836D01*
X0362251Y0205797D01*
Y0205767D01*
X0362241Y0205757D01*
Y0205747D01*
X0362232Y0205688D01*
X0362212Y0205610D01*
X0362192Y0205433D01*
X0362182Y0205226D01*
X0362173Y0205019D01*
X0362163Y0204832D01*
Y0204753D01*
Y0204675D01*
Y0204616D01*
Y0204567D01*
Y0204537D01*
Y0204527D01*
Y0202018D01*
X0361484D01*
Y0204724D01*
Y0204921D01*
X0361494Y0205098D01*
X0361503Y0205265D01*
X0361523Y0205423D01*
X0361533Y0205570D01*
X0361553Y0205698D01*
X0361572Y0205816D01*
X0361592Y0205915D01*
X0361621Y0206013D01*
X0361641Y0206092D01*
X0361661Y0206161D01*
X0361671Y0206210D01*
X0361690Y0206259D01*
X0361700Y0206289D01*
X0361710Y0206298D01*
Y0206308D01*
X0361799Y0206485D01*
X0361907Y0206653D01*
X0362015Y0206790D01*
X0362123Y0206908D01*
X0362222Y0206997D01*
X0362300Y0207066D01*
X0362359Y0207105D01*
X0362369Y0207115D01*
X0362379D01*
X0362556Y0207213D01*
X0362733Y0207292D01*
X0362911Y0207341D01*
X0363068Y0207381D01*
X0363216Y0207400D01*
X0363324Y0207420D01*
X0363422D01*
X0363639Y0207410D01*
D02*
G37*
G36*
X0373921Y0202018D02*
X0373134D01*
X0372032Y0204350D01*
X0368942D01*
X0367840Y0202018D01*
X0367063D01*
X0370379Y0209132D01*
X0370556D01*
X0373921Y0202018D01*
D02*
G37*
G36*
X0352342Y0207410D02*
X0352470Y0207381D01*
X0352598Y0207351D01*
X0352706Y0207312D01*
X0352795Y0207263D01*
X0352864Y0207233D01*
X0352903Y0207204D01*
X0352923Y0207194D01*
X0353051Y0207095D01*
X0353169Y0206987D01*
X0353277Y0206879D01*
X0353376Y0206761D01*
X0353454Y0206663D01*
X0353523Y0206584D01*
X0353562Y0206525D01*
X0353572Y0206515D01*
Y0207282D01*
X0354261D01*
Y0202018D01*
X0353572D01*
Y0203799D01*
Y0204045D01*
X0353562Y0204271D01*
Y0204478D01*
X0353553Y0204655D01*
X0353543Y0204822D01*
X0353533Y0204970D01*
X0353523Y0205108D01*
X0353513Y0205216D01*
X0353503Y0205314D01*
X0353494Y0205393D01*
X0353484Y0205462D01*
X0353474Y0205521D01*
X0353464Y0205560D01*
X0353454Y0205590D01*
Y0205600D01*
Y0205610D01*
X0353385Y0205816D01*
X0353307Y0205993D01*
X0353228Y0206141D01*
X0353149Y0206269D01*
X0353080Y0206358D01*
X0353021Y0206426D01*
X0352982Y0206466D01*
X0352972Y0206475D01*
X0352854Y0206574D01*
X0352736Y0206643D01*
X0352628Y0206692D01*
X0352529Y0206721D01*
X0352441Y0206751D01*
X0352382Y0206761D01*
X0352323D01*
X0352205Y0206741D01*
X0352086Y0206712D01*
X0352037Y0206692D01*
X0351998Y0206682D01*
X0351968Y0206663D01*
X0351959D01*
X0351604Y0207233D01*
X0351722Y0207292D01*
X0351831Y0207341D01*
X0351939Y0207371D01*
X0352028Y0207400D01*
X0352096Y0207410D01*
X0352155Y0207420D01*
X0352205D01*
X0352342Y0207410D01*
D02*
G37*
G36*
X0310483D02*
X0310680Y0207381D01*
X0310857Y0207332D01*
X0311024Y0207282D01*
X0311152Y0207233D01*
X0311250Y0207184D01*
X0311290Y0207174D01*
X0311319Y0207154D01*
X0311329Y0207145D01*
X0311339D01*
X0311516Y0207036D01*
X0311684Y0206908D01*
X0311841Y0206771D01*
X0311969Y0206643D01*
X0312077Y0206525D01*
X0312166Y0206426D01*
X0312195Y0206387D01*
X0312215Y0206358D01*
X0312225Y0206348D01*
X0312234Y0206338D01*
Y0207282D01*
X0312913D01*
Y0202018D01*
X0312234D01*
Y0203947D01*
Y0204134D01*
Y0204311D01*
X0312225Y0204468D01*
Y0204616D01*
X0312215Y0204744D01*
X0312205Y0204862D01*
X0312195Y0204960D01*
X0312185Y0205059D01*
Y0205137D01*
X0312175Y0205206D01*
X0312166Y0205265D01*
X0312156Y0205305D01*
Y0205344D01*
X0312146Y0205364D01*
Y0205383D01*
X0312077Y0205600D01*
X0311979Y0205797D01*
X0311870Y0205964D01*
X0311762Y0206112D01*
X0311664Y0206229D01*
X0311585Y0206318D01*
X0311526Y0206367D01*
X0311516Y0206387D01*
X0311506D01*
X0311319Y0206525D01*
X0311123Y0206623D01*
X0310946Y0206702D01*
X0310768Y0206751D01*
X0310621Y0206781D01*
X0310562Y0206790D01*
X0310503D01*
X0310463Y0206800D01*
X0310404D01*
X0310208Y0206790D01*
X0310040Y0206761D01*
X0309893Y0206712D01*
X0309765Y0206672D01*
X0309666Y0206623D01*
X0309597Y0206574D01*
X0309548Y0206544D01*
X0309538Y0206535D01*
X0309420Y0206426D01*
X0309322Y0206298D01*
X0309243Y0206171D01*
X0309184Y0206043D01*
X0309145Y0205925D01*
X0309105Y0205836D01*
X0309096Y0205797D01*
Y0205767D01*
X0309086Y0205757D01*
Y0205747D01*
X0309076Y0205688D01*
X0309056Y0205610D01*
X0309036Y0205433D01*
X0309027Y0205226D01*
X0309017Y0205019D01*
X0309007Y0204832D01*
Y0204753D01*
Y0204675D01*
Y0204616D01*
Y0204567D01*
Y0204537D01*
Y0204527D01*
Y0202018D01*
X0308328D01*
Y0204724D01*
Y0204921D01*
X0308338Y0205098D01*
X0308348Y0205265D01*
X0308367Y0205423D01*
X0308377Y0205570D01*
X0308397Y0205698D01*
X0308417Y0205816D01*
X0308436Y0205915D01*
X0308466Y0206013D01*
X0308486Y0206092D01*
X0308505Y0206161D01*
X0308515Y0206210D01*
X0308535Y0206259D01*
X0308544Y0206289D01*
X0308554Y0206298D01*
Y0206308D01*
X0308643Y0206485D01*
X0308751Y0206653D01*
X0308859Y0206790D01*
X0308968Y0206908D01*
X0309066Y0206997D01*
X0309145Y0207066D01*
X0309204Y0207105D01*
X0309214Y0207115D01*
X0309224D01*
X0309401Y0207213D01*
X0309578Y0207292D01*
X0309755Y0207341D01*
X0309912Y0207381D01*
X0310060Y0207400D01*
X0310168Y0207420D01*
X0310266D01*
X0310483Y0207410D01*
D02*
G37*
G36*
X0320766Y0202018D02*
X0319979D01*
X0318877Y0204350D01*
X0315787D01*
X0314685Y0202018D01*
X0313907D01*
X0317223Y0209132D01*
X0317401D01*
X0320766Y0202018D01*
D02*
G37*
G36*
X0360116Y0204744D02*
Y0204537D01*
X0360106Y0204350D01*
X0360096Y0204173D01*
X0360077Y0204006D01*
X0360057Y0203858D01*
X0360037Y0203720D01*
X0360018Y0203592D01*
X0359988Y0203484D01*
X0359968Y0203386D01*
X0359949Y0203297D01*
X0359929Y0203228D01*
X0359909Y0203169D01*
X0359890Y0203120D01*
X0359880Y0203091D01*
X0359870Y0203071D01*
Y0203061D01*
X0359762Y0202864D01*
X0359644Y0202687D01*
X0359516Y0202539D01*
X0359388Y0202412D01*
X0359280Y0202313D01*
X0359181Y0202244D01*
X0359122Y0202205D01*
X0359112Y0202185D01*
X0359102D01*
X0358896Y0202087D01*
X0358679Y0202008D01*
X0358463Y0201959D01*
X0358266Y0201920D01*
X0358079Y0201900D01*
X0358010Y0201890D01*
X0357941D01*
X0357892Y0201880D01*
X0357813D01*
X0357538Y0201890D01*
X0357292Y0201929D01*
X0357075Y0201979D01*
X0356889Y0202038D01*
X0356741Y0202087D01*
X0356672Y0202116D01*
X0356623Y0202136D01*
X0356583Y0202156D01*
X0356554Y0202175D01*
X0356544Y0202185D01*
X0356534D01*
X0356357Y0202313D01*
X0356200Y0202451D01*
X0356062Y0202599D01*
X0355954Y0202736D01*
X0355875Y0202864D01*
X0355816Y0202963D01*
X0355796Y0203002D01*
X0355777Y0203031D01*
X0355767Y0203041D01*
Y0203051D01*
X0355717Y0203159D01*
X0355678Y0203277D01*
X0355619Y0203543D01*
X0355570Y0203809D01*
X0355540Y0204084D01*
X0355531Y0204203D01*
X0355521Y0204321D01*
Y0204429D01*
X0355511Y0204517D01*
Y0204586D01*
Y0204645D01*
Y0204685D01*
Y0204695D01*
Y0207282D01*
X0356200D01*
Y0204822D01*
Y0204645D01*
Y0204478D01*
X0356209Y0204330D01*
X0356219Y0204203D01*
X0356229Y0204084D01*
Y0203976D01*
X0356239Y0203878D01*
X0356249Y0203799D01*
X0356259Y0203730D01*
X0356269Y0203671D01*
X0356278Y0203622D01*
X0356288Y0203583D01*
X0356298Y0203543D01*
X0356308Y0203523D01*
X0356377Y0203366D01*
X0356455Y0203228D01*
X0356544Y0203100D01*
X0356633Y0203002D01*
X0356721Y0202913D01*
X0356780Y0202854D01*
X0356829Y0202815D01*
X0356849Y0202805D01*
X0357007Y0202717D01*
X0357164Y0202648D01*
X0357331Y0202608D01*
X0357479Y0202569D01*
X0357617Y0202549D01*
X0357715Y0202539D01*
X0357813D01*
X0358020Y0202549D01*
X0358207Y0202579D01*
X0358374Y0202628D01*
X0358522Y0202677D01*
X0358640Y0202727D01*
X0358719Y0202776D01*
X0358778Y0202805D01*
X0358797Y0202815D01*
X0358935Y0202933D01*
X0359053Y0203051D01*
X0359152Y0203179D01*
X0359221Y0203307D01*
X0359280Y0203415D01*
X0359319Y0203504D01*
X0359339Y0203563D01*
X0359349Y0203573D01*
Y0203583D01*
X0359368Y0203651D01*
X0359378Y0203730D01*
X0359398Y0203917D01*
X0359417Y0204124D01*
X0359427Y0204330D01*
Y0204517D01*
X0359437Y0204606D01*
Y0204675D01*
Y0204734D01*
Y0204783D01*
Y0204813D01*
Y0204822D01*
Y0207282D01*
X0360116D01*
Y0204744D01*
D02*
G37*
G36*
X0325086Y0203071D02*
X0325164Y0203051D01*
X0325243Y0203022D01*
X0325302Y0202992D01*
X0325351Y0202963D01*
X0325391Y0202933D01*
X0325410Y0202913D01*
X0325420Y0202904D01*
X0325479Y0202835D01*
X0325518Y0202766D01*
X0325548Y0202697D01*
X0325568Y0202628D01*
X0325578Y0202569D01*
X0325587Y0202520D01*
Y0202490D01*
Y0202481D01*
X0325578Y0202392D01*
X0325558Y0202303D01*
X0325538Y0202235D01*
X0325499Y0202166D01*
X0325469Y0202116D01*
X0325450Y0202077D01*
X0325430Y0202057D01*
X0325420Y0202047D01*
X0325351Y0201989D01*
X0325282Y0201949D01*
X0325204Y0201920D01*
X0325145Y0201900D01*
X0325086Y0201890D01*
X0325036Y0201880D01*
X0324997D01*
X0324908Y0201890D01*
X0324830Y0201910D01*
X0324751Y0201929D01*
X0324692Y0201969D01*
X0324643Y0201998D01*
X0324603Y0202018D01*
X0324584Y0202038D01*
X0324574Y0202047D01*
X0324515Y0202116D01*
X0324476Y0202195D01*
X0324436Y0202264D01*
X0324416Y0202333D01*
X0324407Y0202392D01*
X0324397Y0202441D01*
Y0202471D01*
Y0202481D01*
X0324407Y0202569D01*
X0324426Y0202648D01*
X0324456Y0202727D01*
X0324485Y0202785D01*
X0324515Y0202835D01*
X0324544Y0202874D01*
X0324564Y0202894D01*
X0324574Y0202904D01*
X0324643Y0202963D01*
X0324712Y0203002D01*
X0324781Y0203041D01*
X0324849Y0203061D01*
X0324908Y0203071D01*
X0324958Y0203081D01*
X0324997D01*
X0325086Y0203071D01*
D02*
G37*
G36*
X0279556Y0202018D02*
X0277608D01*
X0277411Y0202028D01*
X0277234Y0202047D01*
X0277057Y0202077D01*
X0276899Y0202107D01*
X0276751Y0202156D01*
X0276614Y0202205D01*
X0276486Y0202254D01*
X0276368Y0202313D01*
X0276269Y0202372D01*
X0276181Y0202421D01*
X0276102Y0202471D01*
X0276043Y0202520D01*
X0275994Y0202549D01*
X0275954Y0202579D01*
X0275935Y0202599D01*
X0275925Y0202608D01*
X0275817Y0202727D01*
X0275718Y0202845D01*
X0275630Y0202963D01*
X0275561Y0203081D01*
X0275502Y0203209D01*
X0275453Y0203327D01*
X0275374Y0203553D01*
X0275344Y0203661D01*
X0275325Y0203750D01*
X0275315Y0203838D01*
X0275305Y0203917D01*
X0275295Y0203976D01*
Y0204015D01*
Y0204045D01*
Y0204055D01*
X0275305Y0204212D01*
X0275325Y0204360D01*
X0275344Y0204488D01*
X0275374Y0204606D01*
X0275413Y0204695D01*
X0275433Y0204773D01*
X0275453Y0204813D01*
X0275462Y0204832D01*
X0275531Y0204960D01*
X0275610Y0205078D01*
X0275689Y0205187D01*
X0275758Y0205275D01*
X0275827Y0205354D01*
X0275886Y0205403D01*
X0275925Y0205442D01*
X0275935Y0205452D01*
X0276053Y0205541D01*
X0276191Y0205629D01*
X0276328Y0205708D01*
X0276466Y0205767D01*
X0276594Y0205826D01*
X0276693Y0205866D01*
X0276732Y0205875D01*
X0276761Y0205885D01*
X0276771Y0205895D01*
X0276781D01*
X0276624Y0205993D01*
X0276486Y0206092D01*
X0276378Y0206200D01*
X0276279Y0206298D01*
X0276210Y0206387D01*
X0276151Y0206456D01*
X0276122Y0206505D01*
X0276112Y0206525D01*
X0276033Y0206672D01*
X0275974Y0206830D01*
X0275935Y0206967D01*
X0275905Y0207105D01*
X0275886Y0207223D01*
X0275876Y0207312D01*
Y0207371D01*
Y0207381D01*
Y0207391D01*
X0275886Y0207578D01*
X0275915Y0207745D01*
X0275964Y0207902D01*
X0276004Y0208040D01*
X0276053Y0208148D01*
X0276102Y0208237D01*
X0276132Y0208286D01*
X0276141Y0208306D01*
X0276250Y0208453D01*
X0276368Y0208581D01*
X0276486Y0208689D01*
X0276604Y0208778D01*
X0276702Y0208837D01*
X0276781Y0208886D01*
X0276840Y0208916D01*
X0276850Y0208926D01*
X0276860D01*
X0277047Y0208995D01*
X0277253Y0209044D01*
X0277470Y0209083D01*
X0277677Y0209103D01*
X0277863Y0209122D01*
X0277952D01*
X0278021Y0209132D01*
X0279556D01*
Y0202018D01*
D02*
G37*
G36*
X0294897Y0207410D02*
X0295123Y0207381D01*
X0295339Y0207332D01*
X0295536Y0207263D01*
X0295723Y0207184D01*
X0295890Y0207105D01*
X0296048Y0207017D01*
X0296195Y0206918D01*
X0296323Y0206830D01*
X0296431Y0206731D01*
X0296530Y0206653D01*
X0296609Y0206574D01*
X0296668Y0206505D01*
X0296707Y0206456D01*
X0296737Y0206426D01*
X0296746Y0206417D01*
X0296855Y0206269D01*
X0296943Y0206112D01*
X0297032Y0205964D01*
X0297101Y0205806D01*
X0297160Y0205659D01*
X0297209Y0205511D01*
X0297278Y0205236D01*
X0297307Y0205108D01*
X0297327Y0204990D01*
X0297337Y0204891D01*
X0297347Y0204803D01*
X0297356Y0204734D01*
Y0204685D01*
Y0204645D01*
Y0204635D01*
X0297347Y0204439D01*
X0297327Y0204242D01*
X0297288Y0204065D01*
X0297248Y0203888D01*
X0297189Y0203720D01*
X0297130Y0203553D01*
X0297061Y0203405D01*
X0296992Y0203277D01*
X0296933Y0203150D01*
X0296864Y0203041D01*
X0296805Y0202943D01*
X0296746Y0202864D01*
X0296707Y0202805D01*
X0296668Y0202756D01*
X0296648Y0202727D01*
X0296638Y0202717D01*
X0296491Y0202569D01*
X0296343Y0202441D01*
X0296185Y0202333D01*
X0296018Y0202235D01*
X0295851Y0202156D01*
X0295684Y0202087D01*
X0295516Y0202028D01*
X0295359Y0201989D01*
X0295201Y0201949D01*
X0295064Y0201929D01*
X0294946Y0201910D01*
X0294837Y0201890D01*
X0294749D01*
X0294680Y0201880D01*
X0294621D01*
X0294414Y0201890D01*
X0294217Y0201910D01*
X0294040Y0201929D01*
X0293883Y0201969D01*
X0293765Y0201998D01*
X0293666Y0202018D01*
X0293607Y0202038D01*
X0293588Y0202047D01*
X0293420Y0202116D01*
X0293263Y0202205D01*
X0293125Y0202284D01*
X0292997Y0202372D01*
X0292899Y0202441D01*
X0292820Y0202500D01*
X0292781Y0202549D01*
X0292761Y0202559D01*
X0292623Y0202697D01*
X0292495Y0202845D01*
X0292387Y0202992D01*
X0292289Y0203140D01*
X0292210Y0203258D01*
X0292151Y0203366D01*
X0292131Y0203405D01*
X0292112Y0203435D01*
X0292102Y0203445D01*
Y0203455D01*
X0292683Y0203760D01*
X0292791Y0203583D01*
X0292899Y0203425D01*
X0292997Y0203287D01*
X0293086Y0203189D01*
X0293155Y0203100D01*
X0293204Y0203051D01*
X0293243Y0203012D01*
X0293253Y0203002D01*
X0293361Y0202923D01*
X0293470Y0202854D01*
X0293578Y0202785D01*
X0293676Y0202736D01*
X0293765Y0202697D01*
X0293834Y0202667D01*
X0293883Y0202648D01*
X0293903Y0202638D01*
X0294040Y0202589D01*
X0294178Y0202559D01*
X0294316Y0202530D01*
X0294434Y0202520D01*
X0294532Y0202510D01*
X0294611Y0202500D01*
X0294680D01*
X0294837Y0202510D01*
X0294985Y0202530D01*
X0295123Y0202549D01*
X0295251Y0202589D01*
X0295497Y0202687D01*
X0295693Y0202795D01*
X0295782Y0202845D01*
X0295861Y0202894D01*
X0295930Y0202943D01*
X0295989Y0202992D01*
X0296028Y0203031D01*
X0296058Y0203051D01*
X0296077Y0203071D01*
X0296087Y0203081D01*
X0296185Y0203199D01*
X0296274Y0203317D01*
X0296343Y0203445D01*
X0296412Y0203563D01*
X0296510Y0203819D01*
X0296579Y0204065D01*
X0296609Y0204173D01*
X0296628Y0204271D01*
X0296638Y0204360D01*
X0296648Y0204439D01*
X0296658Y0204507D01*
Y0204557D01*
Y0204586D01*
Y0204596D01*
X0291925D01*
X0291935Y0204793D01*
X0291954Y0204980D01*
X0291984Y0205157D01*
X0292023Y0205334D01*
X0292062Y0205491D01*
X0292112Y0205639D01*
X0292171Y0205777D01*
X0292220Y0205895D01*
X0292279Y0206013D01*
X0292328Y0206112D01*
X0292377Y0206200D01*
X0292427Y0206269D01*
X0292466Y0206318D01*
X0292486Y0206367D01*
X0292505Y0206387D01*
X0292515Y0206397D01*
X0292673Y0206574D01*
X0292840Y0206731D01*
X0293007Y0206869D01*
X0293184Y0206987D01*
X0293361Y0207086D01*
X0293548Y0207174D01*
X0293716Y0207243D01*
X0293883Y0207292D01*
X0294040Y0207332D01*
X0294188Y0207371D01*
X0294326Y0207391D01*
X0294434Y0207400D01*
X0294532Y0207410D01*
X0294601Y0207420D01*
X0294660D01*
X0294897Y0207410D01*
D02*
G37*
G36*
X0298419D02*
X0298547Y0207381D01*
X0298675Y0207351D01*
X0298783Y0207312D01*
X0298872Y0207263D01*
X0298941Y0207233D01*
X0298980Y0207204D01*
X0299000Y0207194D01*
X0299128Y0207095D01*
X0299246Y0206987D01*
X0299354Y0206879D01*
X0299452Y0206761D01*
X0299531Y0206663D01*
X0299600Y0206584D01*
X0299639Y0206525D01*
X0299649Y0206515D01*
Y0207282D01*
X0300338D01*
Y0202018D01*
X0299649D01*
Y0203799D01*
Y0204045D01*
X0299639Y0204271D01*
Y0204478D01*
X0299629Y0204655D01*
X0299620Y0204822D01*
X0299610Y0204970D01*
X0299600Y0205108D01*
X0299590Y0205216D01*
X0299580Y0205314D01*
X0299570Y0205393D01*
X0299561Y0205462D01*
X0299551Y0205521D01*
X0299541Y0205560D01*
X0299531Y0205590D01*
Y0205600D01*
Y0205610D01*
X0299462Y0205816D01*
X0299383Y0205993D01*
X0299305Y0206141D01*
X0299226Y0206269D01*
X0299157Y0206358D01*
X0299098Y0206426D01*
X0299059Y0206466D01*
X0299049Y0206475D01*
X0298931Y0206574D01*
X0298813Y0206643D01*
X0298705Y0206692D01*
X0298606Y0206721D01*
X0298518Y0206751D01*
X0298459Y0206761D01*
X0298399D01*
X0298281Y0206741D01*
X0298163Y0206712D01*
X0298114Y0206692D01*
X0298075Y0206682D01*
X0298045Y0206663D01*
X0298035D01*
X0297681Y0207233D01*
X0297799Y0207292D01*
X0297907Y0207341D01*
X0298016Y0207371D01*
X0298104Y0207400D01*
X0298173Y0207410D01*
X0298232Y0207420D01*
X0298281D01*
X0298419Y0207410D01*
D02*
G37*
G36*
X0332505Y0221789D02*
X0329996D01*
X0329769Y0221808D01*
X0329553Y0221828D01*
X0329356Y0221848D01*
X0329169Y0221877D01*
X0329002Y0221907D01*
X0328844Y0221946D01*
X0328707Y0221985D01*
X0328589Y0222015D01*
X0328480Y0222054D01*
X0328382Y0222084D01*
X0328313Y0222113D01*
X0328254Y0222133D01*
X0328205Y0222153D01*
X0328185Y0222172D01*
X0328175D01*
X0328038Y0222251D01*
X0327910Y0222330D01*
X0327674Y0222517D01*
X0327467Y0222713D01*
X0327300Y0222910D01*
X0327162Y0223087D01*
X0327103Y0223166D01*
X0327054Y0223235D01*
X0327024Y0223284D01*
X0326994Y0223324D01*
X0326985Y0223353D01*
X0326975Y0223363D01*
X0326896Y0223520D01*
X0326817Y0223678D01*
X0326709Y0224003D01*
X0326621Y0224317D01*
X0326571Y0224613D01*
X0326552Y0224750D01*
X0326532Y0224868D01*
X0326522Y0224977D01*
Y0225075D01*
X0326512Y0225144D01*
Y0225203D01*
Y0225242D01*
Y0225252D01*
X0326522Y0225479D01*
X0326542Y0225705D01*
X0326571Y0225911D01*
X0326601Y0226108D01*
X0326650Y0226295D01*
X0326699Y0226472D01*
X0326748Y0226640D01*
X0326808Y0226787D01*
X0326867Y0226915D01*
X0326916Y0227043D01*
X0326965Y0227141D01*
X0327014Y0227230D01*
X0327044Y0227299D01*
X0327073Y0227348D01*
X0327093Y0227378D01*
X0327103Y0227387D01*
X0327221Y0227545D01*
X0327339Y0227702D01*
X0327467Y0227840D01*
X0327595Y0227958D01*
X0327732Y0228076D01*
X0327870Y0228175D01*
X0327998Y0228263D01*
X0328126Y0228352D01*
X0328244Y0228421D01*
X0328362Y0228480D01*
X0328461Y0228529D01*
X0328549Y0228568D01*
X0328618Y0228598D01*
X0328667Y0228618D01*
X0328707Y0228637D01*
X0328716D01*
X0328864Y0228686D01*
X0329022Y0228726D01*
X0329199Y0228765D01*
X0329386Y0228795D01*
X0329769Y0228834D01*
X0330143Y0228873D01*
X0330330Y0228883D01*
X0330498Y0228893D01*
X0330645D01*
X0330773Y0228903D01*
X0332505D01*
Y0221789D01*
D02*
G37*
G36*
X0337809D02*
X0333764D01*
Y0222487D01*
X0337100D01*
Y0225282D01*
X0333764D01*
Y0225980D01*
X0337100D01*
Y0228204D01*
X0333735D01*
Y0228903D01*
X0337809D01*
Y0221789D01*
D02*
G37*
G36*
X0311767Y0220080D02*
X0311944Y0220061D01*
X0312111Y0220031D01*
X0312269Y0219982D01*
X0312407Y0219933D01*
X0312544Y0219874D01*
X0312672Y0219815D01*
X0312790Y0219756D01*
X0312899Y0219687D01*
X0312987Y0219628D01*
X0313066Y0219569D01*
X0313135Y0219519D01*
X0313184Y0219470D01*
X0313224Y0219441D01*
X0313243Y0219421D01*
X0313253Y0219411D01*
X0313371Y0219283D01*
X0313479Y0219145D01*
X0313568Y0218998D01*
X0313647Y0218860D01*
X0313716Y0218713D01*
X0313774Y0218565D01*
X0313853Y0218299D01*
X0313883Y0218171D01*
X0313912Y0218053D01*
X0313922Y0217955D01*
X0313942Y0217866D01*
Y0217788D01*
X0313952Y0217738D01*
Y0217699D01*
Y0217689D01*
X0313273D01*
X0313233Y0217974D01*
X0313164Y0218230D01*
X0313086Y0218447D01*
X0312997Y0218634D01*
X0312909Y0218772D01*
X0312869Y0218831D01*
X0312830Y0218880D01*
X0312800Y0218909D01*
X0312781Y0218939D01*
X0312761Y0218949D01*
Y0218959D01*
X0312672Y0219037D01*
X0312584Y0219116D01*
X0312397Y0219224D01*
X0312200Y0219313D01*
X0312023Y0219362D01*
X0311865Y0219401D01*
X0311797Y0219411D01*
X0311738D01*
X0311698Y0219421D01*
X0311511D01*
X0311393Y0219401D01*
X0311187Y0219352D01*
X0311000Y0219283D01*
X0310832Y0219205D01*
X0310704Y0219116D01*
X0310606Y0219047D01*
X0310577Y0219018D01*
X0310547Y0218998D01*
X0310537Y0218988D01*
X0310527Y0218978D01*
X0310449Y0218899D01*
X0310380Y0218811D01*
X0310262Y0218634D01*
X0310183Y0218457D01*
X0310134Y0218299D01*
X0310094Y0218162D01*
X0310085Y0218043D01*
X0310075Y0218004D01*
Y0217974D01*
Y0217955D01*
Y0217945D01*
X0310085Y0217768D01*
X0310114Y0217601D01*
X0310153Y0217453D01*
X0310203Y0217315D01*
X0310252Y0217197D01*
X0310291Y0217119D01*
X0310321Y0217059D01*
X0310331Y0217050D01*
Y0217040D01*
X0310380Y0216951D01*
X0310449Y0216863D01*
X0310606Y0216656D01*
X0310773Y0216440D01*
X0310960Y0216223D01*
X0311127Y0216036D01*
X0311206Y0215948D01*
X0311265Y0215879D01*
X0311324Y0215820D01*
X0311364Y0215770D01*
X0311393Y0215741D01*
X0311403Y0215731D01*
X0314119Y0212799D01*
X0309287D01*
Y0213478D01*
X0312584D01*
X0310803Y0215387D01*
X0310655Y0215554D01*
X0310518Y0215711D01*
X0310389Y0215859D01*
X0310272Y0215997D01*
X0310173Y0216125D01*
X0310085Y0216243D01*
X0309996Y0216351D01*
X0309927Y0216449D01*
X0309868Y0216528D01*
X0309819Y0216607D01*
X0309770Y0216676D01*
X0309740Y0216725D01*
X0309711Y0216764D01*
X0309691Y0216804D01*
X0309681Y0216813D01*
Y0216823D01*
X0309583Y0217020D01*
X0309514Y0217227D01*
X0309455Y0217414D01*
X0309425Y0217591D01*
X0309405Y0217738D01*
X0309396Y0217797D01*
X0309386Y0217857D01*
Y0217896D01*
Y0217925D01*
Y0217945D01*
Y0217955D01*
X0309396Y0218112D01*
X0309415Y0218270D01*
X0309445Y0218417D01*
X0309484Y0218555D01*
X0309583Y0218811D01*
X0309632Y0218919D01*
X0309691Y0219027D01*
X0309750Y0219126D01*
X0309799Y0219205D01*
X0309858Y0219283D01*
X0309897Y0219342D01*
X0309937Y0219391D01*
X0309966Y0219421D01*
X0309986Y0219441D01*
X0309996Y0219451D01*
X0310114Y0219559D01*
X0310242Y0219657D01*
X0310370Y0219746D01*
X0310498Y0219825D01*
X0310635Y0219883D01*
X0310764Y0219933D01*
X0311019Y0220011D01*
X0311137Y0220041D01*
X0311246Y0220061D01*
X0311344Y0220071D01*
X0311423Y0220080D01*
X0311492Y0220090D01*
X0311590D01*
X0311767Y0220080D01*
D02*
G37*
G36*
X0324800Y0191237D02*
X0324013D01*
X0322911Y0193569D01*
X0319821D01*
X0318719Y0191237D01*
X0317942D01*
X0321258Y0198352D01*
X0321435D01*
X0324800Y0191237D01*
D02*
G37*
G36*
X0353439Y0212799D02*
X0353282D01*
X0350183Y0219913D01*
X0350950D01*
X0353351Y0214383D01*
X0355722Y0219913D01*
X0356490D01*
X0353439Y0212799D01*
D02*
G37*
G36*
X0342394Y0221789D02*
X0338950D01*
Y0222487D01*
X0341686D01*
Y0228903D01*
X0342394D01*
Y0221789D01*
D02*
G37*
G36*
X0322409D02*
X0321701D01*
Y0225223D01*
X0318060D01*
Y0221789D01*
X0317351D01*
Y0228903D01*
X0318060D01*
Y0225921D01*
X0321701D01*
Y0228903D01*
X0322409D01*
Y0221789D01*
D02*
G37*
G36*
X0309666D02*
X0308987D01*
Y0222753D01*
X0308830Y0222556D01*
X0308682Y0222389D01*
X0308525Y0222251D01*
X0308377Y0222133D01*
X0308259Y0222044D01*
X0308161Y0221975D01*
X0308121Y0221956D01*
X0308092Y0221936D01*
X0308082Y0221926D01*
X0308072D01*
X0307875Y0221838D01*
X0307669Y0221769D01*
X0307472Y0221720D01*
X0307295Y0221690D01*
X0307137Y0221670D01*
X0307068Y0221661D01*
X0307010Y0221651D01*
X0306901D01*
X0306695Y0221661D01*
X0306498Y0221690D01*
X0306311Y0221729D01*
X0306134Y0221779D01*
X0305966Y0221838D01*
X0305809Y0221907D01*
X0305661Y0221975D01*
X0305534Y0222054D01*
X0305406Y0222133D01*
X0305307Y0222202D01*
X0305209Y0222271D01*
X0305130Y0222330D01*
X0305071Y0222379D01*
X0305032Y0222428D01*
X0305002Y0222448D01*
X0304992Y0222458D01*
X0304854Y0222615D01*
X0304727Y0222773D01*
X0304618Y0222940D01*
X0304530Y0223107D01*
X0304451Y0223265D01*
X0304382Y0223432D01*
X0304333Y0223589D01*
X0304284Y0223737D01*
X0304254Y0223875D01*
X0304225Y0224003D01*
X0304205Y0224121D01*
X0304195Y0224219D01*
Y0224298D01*
X0304185Y0224357D01*
Y0224396D01*
Y0224406D01*
X0304195Y0224622D01*
X0304215Y0224829D01*
X0304254Y0225016D01*
X0304313Y0225203D01*
X0304372Y0225380D01*
X0304441Y0225538D01*
X0304510Y0225685D01*
X0304579Y0225823D01*
X0304658Y0225951D01*
X0304727Y0226059D01*
X0304796Y0226148D01*
X0304854Y0226226D01*
X0304904Y0226295D01*
X0304943Y0226335D01*
X0304973Y0226364D01*
X0304982Y0226374D01*
X0305130Y0226522D01*
X0305288Y0226640D01*
X0305445Y0226758D01*
X0305612Y0226846D01*
X0305770Y0226925D01*
X0305927Y0226994D01*
X0306084Y0227043D01*
X0306222Y0227092D01*
X0306360Y0227122D01*
X0306488Y0227151D01*
X0306596Y0227161D01*
X0306695Y0227181D01*
X0306773D01*
X0306832Y0227191D01*
X0306882D01*
X0307108Y0227181D01*
X0307324Y0227151D01*
X0307521Y0227102D01*
X0307698Y0227063D01*
X0307846Y0227014D01*
X0307895Y0226984D01*
X0307954Y0226964D01*
X0307994Y0226955D01*
X0308023Y0226935D01*
X0308033Y0226925D01*
X0308043D01*
X0308230Y0226817D01*
X0308407Y0226699D01*
X0308574Y0226571D01*
X0308712Y0226443D01*
X0308830Y0226325D01*
X0308909Y0226236D01*
X0308948Y0226197D01*
X0308968Y0226167D01*
X0308978Y0226157D01*
X0308987Y0226148D01*
Y0229080D01*
X0309666D01*
Y0221789D01*
D02*
G37*
G36*
X0315580Y0198519D02*
X0315738Y0198489D01*
X0315885Y0198460D01*
X0316013Y0198421D01*
X0316121Y0198371D01*
X0316210Y0198342D01*
X0316259Y0198312D01*
X0316279Y0198302D01*
X0316417Y0198214D01*
X0316545Y0198116D01*
X0316653Y0198017D01*
X0316741Y0197919D01*
X0316820Y0197840D01*
X0316869Y0197761D01*
X0316899Y0197722D01*
X0316909Y0197702D01*
X0316977Y0197555D01*
X0317037Y0197407D01*
X0317076Y0197269D01*
X0317095Y0197132D01*
X0317115Y0197023D01*
X0317125Y0196935D01*
Y0196876D01*
Y0196866D01*
Y0196856D01*
X0317105Y0196640D01*
X0317066Y0196433D01*
X0317007Y0196256D01*
X0316938Y0196088D01*
X0316869Y0195951D01*
X0316810Y0195852D01*
X0316781Y0195813D01*
X0316771Y0195783D01*
X0316751Y0195774D01*
Y0195764D01*
X0316702Y0195705D01*
X0316643Y0195636D01*
X0316564Y0195567D01*
X0316485Y0195488D01*
X0316308Y0195331D01*
X0316111Y0195164D01*
X0315934Y0195016D01*
X0315856Y0194957D01*
X0315787Y0194898D01*
X0315728Y0194858D01*
X0315679Y0194819D01*
X0315649Y0194799D01*
X0315639Y0194790D01*
X0315482Y0194671D01*
X0315334Y0194553D01*
X0315196Y0194435D01*
X0315078Y0194337D01*
X0314960Y0194229D01*
X0314862Y0194140D01*
X0314773Y0194052D01*
X0314694Y0193973D01*
X0314626Y0193904D01*
X0314567Y0193835D01*
X0314488Y0193737D01*
X0314458Y0193697D01*
X0314439Y0193668D01*
X0314419Y0193658D01*
Y0193648D01*
X0314340Y0193520D01*
X0314281Y0193402D01*
X0314232Y0193284D01*
X0314202Y0193176D01*
X0314183Y0193087D01*
X0314173Y0193008D01*
Y0192969D01*
Y0192949D01*
X0314183Y0192831D01*
X0314202Y0192723D01*
X0314222Y0192625D01*
X0314252Y0192536D01*
X0314291Y0192457D01*
X0314311Y0192398D01*
X0314331Y0192359D01*
X0314340Y0192349D01*
X0314409Y0192251D01*
X0314488Y0192162D01*
X0314567Y0192084D01*
X0314645Y0192025D01*
X0314714Y0191975D01*
X0314773Y0191936D01*
X0314813Y0191916D01*
X0314822Y0191906D01*
X0314941Y0191857D01*
X0315059Y0191818D01*
X0315177Y0191788D01*
X0315275Y0191769D01*
X0315373Y0191759D01*
X0315442Y0191749D01*
X0315501D01*
X0315659Y0191759D01*
X0315806Y0191798D01*
X0315944Y0191857D01*
X0316082Y0191936D01*
X0316210Y0192025D01*
X0316338Y0192123D01*
X0316554Y0192339D01*
X0316643Y0192448D01*
X0316731Y0192546D01*
X0316800Y0192644D01*
X0316859Y0192733D01*
X0316909Y0192812D01*
X0316948Y0192871D01*
X0316968Y0192910D01*
X0316977Y0192920D01*
X0317578Y0192556D01*
X0317489Y0192408D01*
X0317410Y0192271D01*
X0317322Y0192143D01*
X0317243Y0192034D01*
X0317155Y0191926D01*
X0317076Y0191828D01*
X0316997Y0191749D01*
X0316928Y0191670D01*
X0316800Y0191542D01*
X0316702Y0191464D01*
X0316663Y0191434D01*
X0316633Y0191414D01*
X0316623Y0191395D01*
X0316613D01*
X0316407Y0191287D01*
X0316200Y0191198D01*
X0316003Y0191139D01*
X0315826Y0191100D01*
X0315669Y0191080D01*
X0315600Y0191070D01*
X0315541D01*
X0315492Y0191060D01*
X0315433D01*
X0315275Y0191070D01*
X0315127Y0191080D01*
X0314990Y0191109D01*
X0314852Y0191149D01*
X0314606Y0191237D01*
X0314498Y0191287D01*
X0314399Y0191346D01*
X0314311Y0191395D01*
X0314222Y0191444D01*
X0314163Y0191493D01*
X0314104Y0191533D01*
X0314055Y0191572D01*
X0314025Y0191601D01*
X0314006Y0191611D01*
X0313996Y0191621D01*
X0313888Y0191729D01*
X0313799Y0191847D01*
X0313720Y0191956D01*
X0313651Y0192074D01*
X0313593Y0192192D01*
X0313553Y0192300D01*
X0313474Y0192507D01*
X0313435Y0192694D01*
X0313425Y0192772D01*
X0313415Y0192841D01*
X0313405Y0192890D01*
Y0192940D01*
Y0192959D01*
Y0192969D01*
X0313425Y0193166D01*
X0313464Y0193363D01*
X0313514Y0193540D01*
X0313583Y0193697D01*
X0313651Y0193835D01*
X0313701Y0193943D01*
X0313730Y0193983D01*
X0313740Y0194012D01*
X0313760Y0194022D01*
Y0194032D01*
X0313829Y0194130D01*
X0313917Y0194238D01*
X0314104Y0194445D01*
X0314311Y0194652D01*
X0314527Y0194839D01*
X0314714Y0195006D01*
X0314803Y0195075D01*
X0314881Y0195134D01*
X0314941Y0195183D01*
X0314990Y0195222D01*
X0315019Y0195242D01*
X0315029Y0195252D01*
X0315167Y0195350D01*
X0315295Y0195449D01*
X0315403Y0195528D01*
X0315501Y0195606D01*
X0315590Y0195665D01*
X0315659Y0195724D01*
X0315728Y0195774D01*
X0315787Y0195823D01*
X0315865Y0195892D01*
X0315915Y0195931D01*
X0315944Y0195951D01*
X0315954Y0195960D01*
X0316043Y0196059D01*
X0316121Y0196148D01*
X0316180Y0196226D01*
X0316230Y0196295D01*
X0316259Y0196354D01*
X0316289Y0196394D01*
X0316299Y0196423D01*
X0316308Y0196433D01*
X0316357Y0196600D01*
X0316377Y0196669D01*
X0316387Y0196738D01*
Y0196797D01*
X0316397Y0196846D01*
Y0196876D01*
Y0196886D01*
X0316387Y0197023D01*
X0316357Y0197141D01*
X0316308Y0197249D01*
X0316259Y0197348D01*
X0316220Y0197417D01*
X0316171Y0197476D01*
X0316141Y0197515D01*
X0316131Y0197525D01*
X0316023Y0197614D01*
X0315905Y0197682D01*
X0315787Y0197722D01*
X0315669Y0197761D01*
X0315570Y0197781D01*
X0315492Y0197791D01*
X0315423D01*
X0315295Y0197781D01*
X0315177Y0197761D01*
X0315078Y0197732D01*
X0314980Y0197702D01*
X0314911Y0197673D01*
X0314852Y0197643D01*
X0314813Y0197624D01*
X0314803Y0197614D01*
X0314694Y0197535D01*
X0314577Y0197436D01*
X0314458Y0197318D01*
X0314350Y0197200D01*
X0314252Y0197092D01*
X0314183Y0197003D01*
X0314134Y0196935D01*
X0314114Y0196925D01*
Y0196915D01*
X0313524Y0197348D01*
X0313612Y0197466D01*
X0313701Y0197584D01*
X0313878Y0197781D01*
X0314035Y0197938D01*
X0314173Y0198066D01*
X0314291Y0198155D01*
X0314380Y0198224D01*
X0314439Y0198263D01*
X0314448Y0198273D01*
X0314458D01*
X0314626Y0198362D01*
X0314793Y0198421D01*
X0314950Y0198470D01*
X0315088Y0198499D01*
X0315216Y0198519D01*
X0315314Y0198529D01*
X0315403D01*
X0315580Y0198519D01*
D02*
G37*
G36*
X0311900Y0191237D02*
X0311192D01*
Y0194544D01*
X0310454D01*
X0310227Y0194553D01*
X0310030D01*
X0309843Y0194563D01*
X0309676Y0194573D01*
X0309528Y0194583D01*
X0309401Y0194593D01*
X0309282Y0194603D01*
X0309184Y0194612D01*
X0309105Y0194622D01*
X0309027D01*
X0308978Y0194632D01*
X0308928Y0194642D01*
X0308899Y0194652D01*
X0308879D01*
X0308643Y0194730D01*
X0308436Y0194819D01*
X0308259Y0194918D01*
X0308112Y0195026D01*
X0308003Y0195124D01*
X0307915Y0195203D01*
X0307866Y0195252D01*
X0307846Y0195272D01*
X0307718Y0195459D01*
X0307620Y0195656D01*
X0307551Y0195852D01*
X0307511Y0196039D01*
X0307482Y0196197D01*
X0307472Y0196275D01*
Y0196334D01*
X0307462Y0196384D01*
Y0196423D01*
Y0196443D01*
Y0196452D01*
X0307482Y0196708D01*
X0307521Y0196935D01*
X0307590Y0197132D01*
X0307659Y0197309D01*
X0307728Y0197436D01*
X0307797Y0197545D01*
X0307816Y0197574D01*
X0307836Y0197604D01*
X0307856Y0197614D01*
Y0197624D01*
X0308013Y0197781D01*
X0308171Y0197919D01*
X0308338Y0198027D01*
X0308495Y0198106D01*
X0308633Y0198165D01*
X0308751Y0198214D01*
X0308790Y0198224D01*
X0308820Y0198233D01*
X0308840Y0198243D01*
X0308850D01*
X0308938Y0198263D01*
X0309036Y0198283D01*
X0309155Y0198293D01*
X0309282Y0198302D01*
X0309558Y0198322D01*
X0309834Y0198342D01*
X0310080D01*
X0310198Y0198352D01*
X0311900D01*
Y0191237D01*
D02*
G37*
G36*
X0315816Y0224514D02*
Y0224308D01*
X0315806Y0224121D01*
X0315797Y0223943D01*
X0315777Y0223776D01*
X0315757Y0223629D01*
X0315738Y0223491D01*
X0315718Y0223363D01*
X0315688Y0223255D01*
X0315669Y0223156D01*
X0315649Y0223068D01*
X0315629Y0222999D01*
X0315610Y0222940D01*
X0315590Y0222891D01*
X0315580Y0222861D01*
X0315570Y0222841D01*
Y0222832D01*
X0315462Y0222635D01*
X0315344Y0222458D01*
X0315216Y0222310D01*
X0315088Y0222182D01*
X0314980Y0222084D01*
X0314881Y0222015D01*
X0314822Y0221975D01*
X0314813Y0221956D01*
X0314803D01*
X0314596Y0221857D01*
X0314380Y0221779D01*
X0314163Y0221729D01*
X0313966Y0221690D01*
X0313779Y0221670D01*
X0313710Y0221661D01*
X0313642D01*
X0313593Y0221651D01*
X0313514D01*
X0313238Y0221661D01*
X0312992Y0221700D01*
X0312776Y0221749D01*
X0312589Y0221808D01*
X0312441Y0221857D01*
X0312372Y0221887D01*
X0312323Y0221907D01*
X0312284Y0221926D01*
X0312254Y0221946D01*
X0312244Y0221956D01*
X0312234D01*
X0312057Y0222084D01*
X0311900Y0222221D01*
X0311762Y0222369D01*
X0311654Y0222507D01*
X0311575Y0222635D01*
X0311516Y0222733D01*
X0311496Y0222773D01*
X0311477Y0222802D01*
X0311467Y0222812D01*
Y0222822D01*
X0311418Y0222930D01*
X0311379Y0223048D01*
X0311319Y0223314D01*
X0311270Y0223579D01*
X0311241Y0223855D01*
X0311231Y0223973D01*
X0311221Y0224091D01*
Y0224199D01*
X0311211Y0224288D01*
Y0224357D01*
Y0224416D01*
Y0224455D01*
Y0224465D01*
Y0227053D01*
X0311900D01*
Y0224593D01*
Y0224416D01*
Y0224249D01*
X0311910Y0224101D01*
X0311920Y0223973D01*
X0311929Y0223855D01*
Y0223747D01*
X0311939Y0223648D01*
X0311949Y0223570D01*
X0311959Y0223501D01*
X0311969Y0223442D01*
X0311979Y0223393D01*
X0311988Y0223353D01*
X0311998Y0223314D01*
X0312008Y0223294D01*
X0312077Y0223137D01*
X0312156Y0222999D01*
X0312244Y0222871D01*
X0312333Y0222773D01*
X0312421Y0222684D01*
X0312480Y0222625D01*
X0312530Y0222586D01*
X0312549Y0222576D01*
X0312707Y0222487D01*
X0312864Y0222418D01*
X0313032Y0222379D01*
X0313179Y0222340D01*
X0313317Y0222320D01*
X0313415Y0222310D01*
X0313514D01*
X0313720Y0222320D01*
X0313907Y0222349D01*
X0314075Y0222399D01*
X0314222Y0222448D01*
X0314340Y0222497D01*
X0314419Y0222546D01*
X0314478Y0222576D01*
X0314498Y0222586D01*
X0314635Y0222704D01*
X0314754Y0222822D01*
X0314852Y0222950D01*
X0314921Y0223078D01*
X0314980Y0223186D01*
X0315019Y0223274D01*
X0315039Y0223333D01*
X0315049Y0223343D01*
Y0223353D01*
X0315068Y0223422D01*
X0315078Y0223501D01*
X0315098Y0223688D01*
X0315118Y0223894D01*
X0315127Y0224101D01*
Y0224288D01*
X0315137Y0224377D01*
Y0224445D01*
Y0224504D01*
Y0224554D01*
Y0224583D01*
Y0224593D01*
Y0227053D01*
X0315816D01*
Y0224514D01*
D02*
G37*
G36*
X0330143Y0191237D02*
X0329435D01*
Y0194534D01*
X0329041D01*
X0326483Y0191237D01*
X0325597D01*
X0328156Y0194534D01*
X0327841Y0194544D01*
X0327693Y0194553D01*
X0327555Y0194573D01*
X0327437Y0194583D01*
X0327319Y0194603D01*
X0327211Y0194622D01*
X0327122Y0194652D01*
X0327034Y0194671D01*
X0326965Y0194691D01*
X0326906Y0194711D01*
X0326847Y0194721D01*
X0326808Y0194740D01*
X0326778Y0194750D01*
X0326768Y0194760D01*
X0326758D01*
X0326581Y0194858D01*
X0326424Y0194957D01*
X0326286Y0195075D01*
X0326168Y0195183D01*
X0326089Y0195282D01*
X0326020Y0195360D01*
X0325981Y0195410D01*
X0325971Y0195429D01*
X0325883Y0195596D01*
X0325814Y0195774D01*
X0325764Y0195951D01*
X0325725Y0196108D01*
X0325706Y0196246D01*
X0325696Y0196354D01*
Y0196394D01*
Y0196423D01*
Y0196443D01*
Y0196452D01*
X0325715Y0196708D01*
X0325755Y0196935D01*
X0325824Y0197132D01*
X0325892Y0197299D01*
X0325971Y0197436D01*
X0326040Y0197535D01*
X0326060Y0197574D01*
X0326079Y0197604D01*
X0326099Y0197614D01*
Y0197624D01*
X0326256Y0197791D01*
X0326424Y0197929D01*
X0326591Y0198037D01*
X0326758Y0198116D01*
X0326906Y0198184D01*
X0327014Y0198224D01*
X0327063Y0198233D01*
X0327093Y0198243D01*
X0327113Y0198253D01*
X0327122D01*
X0327211Y0198273D01*
X0327309Y0198283D01*
X0327428Y0198302D01*
X0327555Y0198312D01*
X0327821Y0198332D01*
X0328087Y0198342D01*
X0328215D01*
X0328333Y0198352D01*
X0330143D01*
Y0191237D01*
D02*
G37*
G36*
X0342960Y0213852D02*
X0343039Y0213832D01*
X0343117Y0213802D01*
X0343176Y0213773D01*
X0343226Y0213743D01*
X0343265Y0213714D01*
X0343285Y0213694D01*
X0343295Y0213684D01*
X0343354Y0213615D01*
X0343393Y0213546D01*
X0343422Y0213478D01*
X0343442Y0213409D01*
X0343452Y0213350D01*
X0343462Y0213301D01*
Y0213271D01*
Y0213261D01*
X0343452Y0213173D01*
X0343432Y0213084D01*
X0343413Y0213015D01*
X0343373Y0212946D01*
X0343344Y0212897D01*
X0343324Y0212858D01*
X0343304Y0212838D01*
X0343295Y0212828D01*
X0343226Y0212769D01*
X0343157Y0212730D01*
X0343078Y0212700D01*
X0343019Y0212681D01*
X0342960Y0212671D01*
X0342911Y0212661D01*
X0342871D01*
X0342783Y0212671D01*
X0342704Y0212690D01*
X0342625Y0212710D01*
X0342566Y0212750D01*
X0342517Y0212779D01*
X0342478Y0212799D01*
X0342458Y0212818D01*
X0342448Y0212828D01*
X0342389Y0212897D01*
X0342350Y0212976D01*
X0342311Y0213045D01*
X0342291Y0213114D01*
X0342281Y0213173D01*
X0342271Y0213222D01*
Y0213251D01*
Y0213261D01*
X0342281Y0213350D01*
X0342301Y0213428D01*
X0342330Y0213507D01*
X0342360Y0213566D01*
X0342389Y0213615D01*
X0342419Y0213655D01*
X0342438Y0213674D01*
X0342448Y0213684D01*
X0342517Y0213743D01*
X0342586Y0213783D01*
X0342655Y0213822D01*
X0342724Y0213842D01*
X0342783Y0213852D01*
X0342832Y0213861D01*
X0342871D01*
X0342960Y0213852D01*
D02*
G37*
G36*
X0302026Y0219214D02*
X0300904D01*
Y0212799D01*
X0300195D01*
Y0219913D01*
X0301602D01*
X0302026Y0219214D01*
D02*
G37*
G36*
X0339162Y0220071D02*
X0339398Y0220031D01*
X0339614Y0219962D01*
X0339791Y0219893D01*
X0339949Y0219815D01*
X0340008Y0219785D01*
X0340057Y0219746D01*
X0340096Y0219726D01*
X0340126Y0219706D01*
X0340146Y0219687D01*
X0340156D01*
X0340352Y0219519D01*
X0340520Y0219342D01*
X0340667Y0219145D01*
X0340785Y0218959D01*
X0340884Y0218791D01*
X0340923Y0218713D01*
X0340953Y0218653D01*
X0340982Y0218595D01*
X0341002Y0218555D01*
X0341012Y0218535D01*
Y0218526D01*
X0341061Y0218378D01*
X0341110Y0218211D01*
X0341179Y0217866D01*
X0341238Y0217502D01*
X0341267Y0217148D01*
X0341277Y0216990D01*
X0341287Y0216833D01*
X0341297Y0216705D01*
Y0216587D01*
X0341307Y0216489D01*
Y0216410D01*
Y0216371D01*
Y0216351D01*
Y0216095D01*
X0341297Y0215859D01*
X0341277Y0215633D01*
X0341258Y0215426D01*
X0341238Y0215229D01*
X0341208Y0215052D01*
X0341179Y0214885D01*
X0341149Y0214737D01*
X0341130Y0214609D01*
X0341100Y0214501D01*
X0341071Y0214403D01*
X0341051Y0214324D01*
X0341031Y0214255D01*
X0341012Y0214216D01*
X0341002Y0214186D01*
Y0214176D01*
X0340874Y0213901D01*
X0340736Y0213665D01*
X0340598Y0213468D01*
X0340461Y0213301D01*
X0340342Y0213173D01*
X0340244Y0213084D01*
X0340205Y0213045D01*
X0340175Y0213025D01*
X0340165Y0213005D01*
X0340156D01*
X0339939Y0212877D01*
X0339732Y0212779D01*
X0339516Y0212720D01*
X0339329Y0212671D01*
X0339162Y0212641D01*
X0339093Y0212631D01*
X0339034D01*
X0338985Y0212622D01*
X0338916D01*
X0338660Y0212641D01*
X0338434Y0212681D01*
X0338217Y0212750D01*
X0338030Y0212828D01*
X0337882Y0212897D01*
X0337814Y0212936D01*
X0337764Y0212966D01*
X0337725Y0212986D01*
X0337696Y0213005D01*
X0337676Y0213025D01*
X0337666D01*
X0337459Y0213192D01*
X0337282Y0213379D01*
X0337135Y0213576D01*
X0337007Y0213773D01*
X0336898Y0213950D01*
X0336859Y0214019D01*
X0336830Y0214088D01*
X0336800Y0214137D01*
X0336780Y0214186D01*
X0336771Y0214206D01*
Y0214216D01*
X0336712Y0214373D01*
X0336662Y0214540D01*
X0336584Y0214885D01*
X0336525Y0215239D01*
X0336485Y0215583D01*
X0336475Y0215741D01*
X0336466Y0215889D01*
X0336456Y0216016D01*
X0336446Y0216135D01*
Y0216223D01*
Y0216292D01*
Y0216331D01*
Y0216351D01*
Y0216597D01*
X0336456Y0216823D01*
X0336475Y0217050D01*
X0336495Y0217246D01*
X0336525Y0217443D01*
X0336554Y0217611D01*
X0336584Y0217778D01*
X0336613Y0217925D01*
X0336643Y0218053D01*
X0336672Y0218162D01*
X0336702Y0218260D01*
X0336731Y0218339D01*
X0336751Y0218408D01*
X0336771Y0218447D01*
X0336780Y0218476D01*
Y0218486D01*
X0336908Y0218772D01*
X0337056Y0219008D01*
X0337204Y0219214D01*
X0337341Y0219382D01*
X0337469Y0219519D01*
X0337577Y0219608D01*
X0337607Y0219647D01*
X0337636Y0219667D01*
X0337656Y0219687D01*
X0337666D01*
X0337882Y0219825D01*
X0338099Y0219923D01*
X0338306Y0219992D01*
X0338502Y0220041D01*
X0338670Y0220071D01*
X0338739Y0220080D01*
X0338798D01*
X0338847Y0220090D01*
X0338916D01*
X0339162Y0220071D01*
D02*
G37*
G36*
X0306463D02*
X0306699Y0220031D01*
X0306916Y0219962D01*
X0307093Y0219893D01*
X0307251Y0219815D01*
X0307310Y0219785D01*
X0307359Y0219746D01*
X0307398Y0219726D01*
X0307428Y0219706D01*
X0307447Y0219687D01*
X0307457D01*
X0307654Y0219519D01*
X0307821Y0219342D01*
X0307969Y0219145D01*
X0308087Y0218959D01*
X0308185Y0218791D01*
X0308225Y0218713D01*
X0308254Y0218653D01*
X0308284Y0218595D01*
X0308303Y0218555D01*
X0308313Y0218535D01*
Y0218526D01*
X0308363Y0218378D01*
X0308412Y0218211D01*
X0308481Y0217866D01*
X0308540Y0217502D01*
X0308569Y0217148D01*
X0308579Y0216990D01*
X0308589Y0216833D01*
X0308599Y0216705D01*
Y0216587D01*
X0308609Y0216489D01*
Y0216410D01*
Y0216371D01*
Y0216351D01*
Y0216095D01*
X0308599Y0215859D01*
X0308579Y0215633D01*
X0308559Y0215426D01*
X0308540Y0215229D01*
X0308510Y0215052D01*
X0308481Y0214885D01*
X0308451Y0214737D01*
X0308431Y0214609D01*
X0308402Y0214501D01*
X0308372Y0214403D01*
X0308353Y0214324D01*
X0308333Y0214255D01*
X0308313Y0214216D01*
X0308303Y0214186D01*
Y0214176D01*
X0308175Y0213901D01*
X0308038Y0213665D01*
X0307900Y0213468D01*
X0307762Y0213301D01*
X0307644Y0213173D01*
X0307546Y0213084D01*
X0307506Y0213045D01*
X0307477Y0213025D01*
X0307467Y0213005D01*
X0307457D01*
X0307241Y0212877D01*
X0307034Y0212779D01*
X0306818Y0212720D01*
X0306631Y0212671D01*
X0306463Y0212641D01*
X0306395Y0212631D01*
X0306335D01*
X0306286Y0212622D01*
X0306217D01*
X0305961Y0212641D01*
X0305735Y0212681D01*
X0305519Y0212750D01*
X0305332Y0212828D01*
X0305184Y0212897D01*
X0305115Y0212936D01*
X0305066Y0212966D01*
X0305027Y0212986D01*
X0304997Y0213005D01*
X0304977Y0213025D01*
X0304968D01*
X0304761Y0213192D01*
X0304584Y0213379D01*
X0304436Y0213576D01*
X0304308Y0213773D01*
X0304200Y0213950D01*
X0304161Y0214019D01*
X0304131Y0214088D01*
X0304102Y0214137D01*
X0304082Y0214186D01*
X0304072Y0214206D01*
Y0214216D01*
X0304013Y0214373D01*
X0303964Y0214540D01*
X0303885Y0214885D01*
X0303826Y0215239D01*
X0303787Y0215583D01*
X0303777Y0215741D01*
X0303767Y0215889D01*
X0303757Y0216016D01*
X0303748Y0216135D01*
Y0216223D01*
Y0216292D01*
Y0216331D01*
Y0216351D01*
Y0216597D01*
X0303757Y0216823D01*
X0303777Y0217050D01*
X0303797Y0217246D01*
X0303826Y0217443D01*
X0303856Y0217611D01*
X0303885Y0217778D01*
X0303915Y0217925D01*
X0303944Y0218053D01*
X0303974Y0218162D01*
X0304003Y0218260D01*
X0304033Y0218339D01*
X0304053Y0218408D01*
X0304072Y0218447D01*
X0304082Y0218476D01*
Y0218486D01*
X0304210Y0218772D01*
X0304358Y0219008D01*
X0304505Y0219214D01*
X0304643Y0219382D01*
X0304771Y0219519D01*
X0304879Y0219608D01*
X0304909Y0219647D01*
X0304938Y0219667D01*
X0304958Y0219687D01*
X0304968D01*
X0305184Y0219825D01*
X0305401Y0219923D01*
X0305607Y0219992D01*
X0305804Y0220041D01*
X0305971Y0220071D01*
X0306040Y0220080D01*
X0306099D01*
X0306149Y0220090D01*
X0306217D01*
X0306463Y0220071D01*
D02*
G37*
G36*
X0327265D02*
X0327501Y0220031D01*
X0327718Y0219962D01*
X0327895Y0219893D01*
X0328052Y0219815D01*
X0328111Y0219785D01*
X0328161Y0219746D01*
X0328200Y0219726D01*
X0328229Y0219706D01*
X0328249Y0219687D01*
X0328259D01*
X0328456Y0219519D01*
X0328623Y0219342D01*
X0328771Y0219145D01*
X0328889Y0218959D01*
X0328987Y0218791D01*
X0329027Y0218713D01*
X0329056Y0218653D01*
X0329085Y0218595D01*
X0329105Y0218555D01*
X0329115Y0218535D01*
Y0218526D01*
X0329164Y0218378D01*
X0329214Y0218211D01*
X0329282Y0217866D01*
X0329341Y0217502D01*
X0329371Y0217148D01*
X0329381Y0216990D01*
X0329391Y0216833D01*
X0329400Y0216705D01*
Y0216587D01*
X0329410Y0216489D01*
Y0216410D01*
Y0216371D01*
Y0216351D01*
Y0216095D01*
X0329400Y0215859D01*
X0329381Y0215633D01*
X0329361Y0215426D01*
X0329341Y0215229D01*
X0329312Y0215052D01*
X0329282Y0214885D01*
X0329253Y0214737D01*
X0329233Y0214609D01*
X0329204Y0214501D01*
X0329174Y0214403D01*
X0329154Y0214324D01*
X0329135Y0214255D01*
X0329115Y0214216D01*
X0329105Y0214186D01*
Y0214176D01*
X0328977Y0213901D01*
X0328839Y0213665D01*
X0328702Y0213468D01*
X0328564Y0213301D01*
X0328446Y0213173D01*
X0328347Y0213084D01*
X0328308Y0213045D01*
X0328279Y0213025D01*
X0328269Y0213005D01*
X0328259D01*
X0328043Y0212877D01*
X0327836Y0212779D01*
X0327619Y0212720D01*
X0327432Y0212671D01*
X0327265Y0212641D01*
X0327196Y0212631D01*
X0327137D01*
X0327088Y0212622D01*
X0327019D01*
X0326763Y0212641D01*
X0326537Y0212681D01*
X0326321Y0212750D01*
X0326133Y0212828D01*
X0325986Y0212897D01*
X0325917Y0212936D01*
X0325868Y0212966D01*
X0325829Y0212986D01*
X0325799Y0213005D01*
X0325779Y0213025D01*
X0325769D01*
X0325563Y0213192D01*
X0325386Y0213379D01*
X0325238Y0213576D01*
X0325110Y0213773D01*
X0325002Y0213950D01*
X0324963Y0214019D01*
X0324933Y0214088D01*
X0324903Y0214137D01*
X0324884Y0214186D01*
X0324874Y0214206D01*
Y0214216D01*
X0324815Y0214373D01*
X0324766Y0214540D01*
X0324687Y0214885D01*
X0324628Y0215239D01*
X0324589Y0215583D01*
X0324579Y0215741D01*
X0324569Y0215889D01*
X0324559Y0216016D01*
X0324549Y0216135D01*
Y0216223D01*
Y0216292D01*
Y0216331D01*
Y0216351D01*
Y0216597D01*
X0324559Y0216823D01*
X0324579Y0217050D01*
X0324599Y0217246D01*
X0324628Y0217443D01*
X0324658Y0217611D01*
X0324687Y0217778D01*
X0324717Y0217925D01*
X0324746Y0218053D01*
X0324776Y0218162D01*
X0324805Y0218260D01*
X0324835Y0218339D01*
X0324854Y0218408D01*
X0324874Y0218447D01*
X0324884Y0218476D01*
Y0218486D01*
X0325012Y0218772D01*
X0325159Y0219008D01*
X0325307Y0219214D01*
X0325445Y0219382D01*
X0325573Y0219519D01*
X0325681Y0219608D01*
X0325710Y0219647D01*
X0325740Y0219667D01*
X0325760Y0219687D01*
X0325769D01*
X0325986Y0219825D01*
X0326202Y0219923D01*
X0326409Y0219992D01*
X0326606Y0220041D01*
X0326773Y0220071D01*
X0326842Y0220080D01*
X0326901D01*
X0326950Y0220090D01*
X0327019D01*
X0327265Y0220071D01*
D02*
G37*
G36*
X0322827Y0219214D02*
X0321706D01*
Y0212799D01*
X0320997D01*
Y0219913D01*
X0322404D01*
X0322827Y0219214D01*
D02*
G37*
G36*
X0348451D02*
X0347329D01*
Y0212799D01*
X0346620D01*
Y0219913D01*
X0348027D01*
X0348451Y0219214D01*
D02*
G37*
G36*
X0335427Y0198519D02*
X0335624Y0198509D01*
X0336008Y0198450D01*
X0336185Y0198411D01*
X0336352Y0198371D01*
X0336500Y0198332D01*
X0336648Y0198283D01*
X0336775Y0198233D01*
X0336884Y0198194D01*
X0336992Y0198155D01*
X0337071Y0198116D01*
X0337140Y0198086D01*
X0337189Y0198056D01*
X0337218Y0198047D01*
X0337228Y0198037D01*
X0337543Y0197840D01*
X0337819Y0197614D01*
X0338055Y0197387D01*
X0338153Y0197279D01*
X0338251Y0197171D01*
X0338330Y0197063D01*
X0338409Y0196974D01*
X0338468Y0196886D01*
X0338517Y0196817D01*
X0338566Y0196757D01*
X0338596Y0196708D01*
X0338606Y0196679D01*
X0338616Y0196669D01*
X0338704Y0196502D01*
X0338783Y0196344D01*
X0338852Y0196177D01*
X0338901Y0196010D01*
X0338999Y0195695D01*
X0339029Y0195547D01*
X0339058Y0195410D01*
X0339078Y0195272D01*
X0339088Y0195154D01*
X0339098Y0195055D01*
X0339108Y0194967D01*
X0339117Y0194888D01*
Y0194839D01*
Y0194799D01*
Y0194790D01*
X0339108Y0194544D01*
X0339078Y0194298D01*
X0339039Y0194061D01*
X0338980Y0193845D01*
X0338911Y0193638D01*
X0338842Y0193441D01*
X0338763Y0193254D01*
X0338675Y0193087D01*
X0338596Y0192930D01*
X0338517Y0192802D01*
X0338448Y0192684D01*
X0338379Y0192585D01*
X0338320Y0192507D01*
X0338281Y0192448D01*
X0338251Y0192408D01*
X0338242Y0192398D01*
X0338015Y0192162D01*
X0337779Y0191956D01*
X0337523Y0191779D01*
X0337267Y0191621D01*
X0337002Y0191493D01*
X0336746Y0191385D01*
X0336490Y0191296D01*
X0336244Y0191227D01*
X0336018Y0191168D01*
X0335801Y0191129D01*
X0335605Y0191100D01*
X0335437Y0191080D01*
X0335299Y0191070D01*
X0335201Y0191060D01*
X0335113D01*
X0334817Y0191070D01*
X0334532Y0191100D01*
X0334266Y0191149D01*
X0334020Y0191208D01*
X0333794Y0191287D01*
X0333577Y0191365D01*
X0333381Y0191454D01*
X0333213Y0191542D01*
X0333056Y0191631D01*
X0332918Y0191719D01*
X0332800Y0191798D01*
X0332702Y0191877D01*
X0332623Y0191936D01*
X0332574Y0191985D01*
X0332535Y0192015D01*
X0332525Y0192025D01*
X0332357Y0192211D01*
X0332200Y0192418D01*
X0332072Y0192625D01*
X0331964Y0192851D01*
X0331865Y0193068D01*
X0331787Y0193284D01*
X0331718Y0193500D01*
X0331668Y0193707D01*
X0331629Y0193894D01*
X0331600Y0194081D01*
X0331570Y0194238D01*
X0331560Y0194376D01*
X0331551Y0194494D01*
X0331541Y0194583D01*
Y0194632D01*
Y0194652D01*
X0334601D01*
Y0193953D01*
X0332338D01*
X0332367Y0193776D01*
X0332416Y0193599D01*
X0332475Y0193441D01*
X0332544Y0193284D01*
X0332613Y0193146D01*
X0332692Y0193018D01*
X0332771Y0192890D01*
X0332849Y0192782D01*
X0332918Y0192684D01*
X0332997Y0192595D01*
X0333066Y0192526D01*
X0333125Y0192457D01*
X0333174Y0192418D01*
X0333213Y0192379D01*
X0333233Y0192359D01*
X0333243Y0192349D01*
X0333390Y0192241D01*
X0333538Y0192152D01*
X0333696Y0192064D01*
X0333853Y0191995D01*
X0334010Y0191936D01*
X0334158Y0191887D01*
X0334453Y0191818D01*
X0334581Y0191788D01*
X0334709Y0191769D01*
X0334817Y0191759D01*
X0334906Y0191749D01*
X0334985Y0191739D01*
X0335093D01*
X0335427Y0191759D01*
X0335733Y0191798D01*
X0336018Y0191867D01*
X0336146Y0191906D01*
X0336264Y0191946D01*
X0336372Y0191975D01*
X0336470Y0192015D01*
X0336549Y0192054D01*
X0336618Y0192084D01*
X0336677Y0192103D01*
X0336716Y0192123D01*
X0336746Y0192143D01*
X0336756D01*
X0337021Y0192310D01*
X0337258Y0192497D01*
X0337464Y0192684D01*
X0337632Y0192861D01*
X0337769Y0193028D01*
X0337819Y0193097D01*
X0337868Y0193156D01*
X0337897Y0193205D01*
X0337927Y0193245D01*
X0337937Y0193264D01*
X0337947Y0193274D01*
X0338025Y0193412D01*
X0338084Y0193550D01*
X0338193Y0193825D01*
X0338261Y0194081D01*
X0338320Y0194317D01*
X0338330Y0194416D01*
X0338350Y0194514D01*
X0338360Y0194603D01*
Y0194671D01*
X0338370Y0194730D01*
Y0194770D01*
Y0194799D01*
Y0194809D01*
X0338350Y0195095D01*
X0338301Y0195370D01*
X0338242Y0195616D01*
X0338163Y0195842D01*
X0338124Y0195941D01*
X0338084Y0196020D01*
X0338055Y0196098D01*
X0338025Y0196167D01*
X0337996Y0196216D01*
X0337976Y0196256D01*
X0337956Y0196275D01*
Y0196285D01*
X0337789Y0196541D01*
X0337602Y0196757D01*
X0337405Y0196954D01*
X0337218Y0197112D01*
X0337051Y0197240D01*
X0336982Y0197289D01*
X0336913Y0197328D01*
X0336864Y0197368D01*
X0336825Y0197387D01*
X0336805Y0197407D01*
X0336795D01*
X0336510Y0197545D01*
X0336224Y0197643D01*
X0335959Y0197722D01*
X0335713Y0197771D01*
X0335605Y0197791D01*
X0335506Y0197801D01*
X0335418Y0197810D01*
X0335339D01*
X0335280Y0197820D01*
X0335201D01*
X0334945Y0197810D01*
X0334699Y0197771D01*
X0334473Y0197722D01*
X0334256Y0197673D01*
X0334168Y0197643D01*
X0334079Y0197614D01*
X0334010Y0197584D01*
X0333942Y0197564D01*
X0333892Y0197545D01*
X0333853Y0197525D01*
X0333833Y0197515D01*
X0333823D01*
X0333568Y0197387D01*
X0333322Y0197249D01*
X0333105Y0197102D01*
X0332908Y0196954D01*
X0332751Y0196826D01*
X0332682Y0196777D01*
X0332623Y0196728D01*
X0332584Y0196689D01*
X0332554Y0196659D01*
X0332535Y0196640D01*
X0332525Y0196630D01*
X0331964Y0197151D01*
X0332249Y0197407D01*
X0332535Y0197614D01*
X0332800Y0197801D01*
X0333036Y0197938D01*
X0333135Y0197997D01*
X0333233Y0198056D01*
X0333322Y0198096D01*
X0333390Y0198135D01*
X0333450Y0198165D01*
X0333489Y0198175D01*
X0333518Y0198194D01*
X0333528D01*
X0333833Y0198302D01*
X0334128Y0198391D01*
X0334414Y0198450D01*
X0334670Y0198489D01*
X0334788Y0198499D01*
X0334896Y0198509D01*
X0334985Y0198519D01*
X0335063Y0198529D01*
X0335221D01*
X0335427Y0198519D01*
D02*
G37*
%LPC*%
G36*
X0348603Y0206771D02*
X0348505D01*
X0348347Y0206761D01*
X0348190Y0206741D01*
X0348042Y0206712D01*
X0347904Y0206672D01*
X0347649Y0206574D01*
X0347540Y0206515D01*
X0347442Y0206466D01*
X0347344Y0206407D01*
X0347265Y0206348D01*
X0347196Y0206298D01*
X0347137Y0206249D01*
X0347088Y0206210D01*
X0347058Y0206180D01*
X0347039Y0206161D01*
X0347029Y0206151D01*
X0346920Y0206033D01*
X0346832Y0205905D01*
X0346743Y0205777D01*
X0346674Y0205649D01*
X0346616Y0205521D01*
X0346566Y0205393D01*
X0346497Y0205147D01*
X0346468Y0205039D01*
X0346448Y0204941D01*
X0346438Y0204852D01*
X0346428Y0204773D01*
X0346419Y0204704D01*
Y0204655D01*
Y0204626D01*
Y0204616D01*
X0346428Y0204399D01*
X0346458Y0204193D01*
X0346507Y0204006D01*
X0346556Y0203848D01*
X0346606Y0203720D01*
X0346655Y0203622D01*
X0346665Y0203583D01*
X0346684Y0203553D01*
X0346694Y0203543D01*
Y0203533D01*
X0346802Y0203366D01*
X0346930Y0203219D01*
X0347058Y0203091D01*
X0347176Y0202982D01*
X0347285Y0202894D01*
X0347383Y0202825D01*
X0347442Y0202785D01*
X0347452Y0202776D01*
X0347462D01*
X0347649Y0202687D01*
X0347836Y0202618D01*
X0348003Y0202569D01*
X0348170Y0202539D01*
X0348308Y0202520D01*
X0348406Y0202500D01*
X0348505D01*
X0348711Y0202510D01*
X0348898Y0202539D01*
X0349076Y0202589D01*
X0349223Y0202638D01*
X0349361Y0202687D01*
X0349449Y0202736D01*
X0349489Y0202746D01*
X0349518Y0202766D01*
X0349528Y0202776D01*
X0349538D01*
X0349705Y0202894D01*
X0349863Y0203022D01*
X0349991Y0203150D01*
X0350099Y0203277D01*
X0350187Y0203396D01*
X0350256Y0203484D01*
X0350296Y0203553D01*
X0350306Y0203563D01*
Y0203573D01*
X0350394Y0203769D01*
X0350463Y0203957D01*
X0350512Y0204134D01*
X0350542Y0204301D01*
X0350561Y0204439D01*
X0350581Y0204537D01*
Y0204586D01*
Y0204616D01*
Y0204626D01*
Y0204635D01*
X0350571Y0204842D01*
X0350542Y0205039D01*
X0350493Y0205216D01*
X0350443Y0205374D01*
X0350394Y0205511D01*
X0350345Y0205610D01*
X0350335Y0205649D01*
X0350315Y0205679D01*
X0350306Y0205688D01*
Y0205698D01*
X0350187Y0205875D01*
X0350069Y0206033D01*
X0349941Y0206171D01*
X0349823Y0206289D01*
X0349715Y0206367D01*
X0349626Y0206436D01*
X0349568Y0206475D01*
X0349558Y0206485D01*
X0349548D01*
X0349361Y0206584D01*
X0349184Y0206653D01*
X0349007Y0206702D01*
X0348849Y0206731D01*
X0348711Y0206761D01*
X0348603Y0206771D01*
D02*
G37*
G36*
X0304441D02*
X0304343D01*
X0304185Y0206761D01*
X0304028Y0206741D01*
X0303880Y0206712D01*
X0303743Y0206672D01*
X0303487Y0206574D01*
X0303379Y0206515D01*
X0303280Y0206466D01*
X0303182Y0206407D01*
X0303103Y0206348D01*
X0303034Y0206298D01*
X0302975Y0206249D01*
X0302926Y0206210D01*
X0302896Y0206180D01*
X0302877Y0206161D01*
X0302867Y0206151D01*
X0302759Y0206033D01*
X0302670Y0205905D01*
X0302582Y0205777D01*
X0302513Y0205649D01*
X0302454Y0205521D01*
X0302404Y0205393D01*
X0302336Y0205147D01*
X0302306Y0205039D01*
X0302286Y0204941D01*
X0302276Y0204852D01*
X0302267Y0204773D01*
X0302257Y0204704D01*
Y0204655D01*
Y0204626D01*
Y0204616D01*
X0302267Y0204399D01*
X0302296Y0204193D01*
X0302345Y0204006D01*
X0302395Y0203848D01*
X0302444Y0203720D01*
X0302493Y0203622D01*
X0302503Y0203583D01*
X0302522Y0203553D01*
X0302532Y0203543D01*
Y0203533D01*
X0302641Y0203366D01*
X0302768Y0203219D01*
X0302896Y0203091D01*
X0303014Y0202982D01*
X0303123Y0202894D01*
X0303221Y0202825D01*
X0303280Y0202785D01*
X0303290Y0202776D01*
X0303300D01*
X0303487Y0202687D01*
X0303674Y0202618D01*
X0303841Y0202569D01*
X0304008Y0202539D01*
X0304146Y0202520D01*
X0304244Y0202500D01*
X0304343D01*
X0304550Y0202510D01*
X0304736Y0202539D01*
X0304914Y0202589D01*
X0305061Y0202638D01*
X0305199Y0202687D01*
X0305288Y0202736D01*
X0305327Y0202746D01*
X0305356Y0202766D01*
X0305366Y0202776D01*
X0305376D01*
X0305543Y0202894D01*
X0305701Y0203022D01*
X0305829Y0203150D01*
X0305937Y0203277D01*
X0306026Y0203396D01*
X0306094Y0203484D01*
X0306134Y0203553D01*
X0306144Y0203563D01*
Y0203573D01*
X0306232Y0203769D01*
X0306301Y0203957D01*
X0306350Y0204134D01*
X0306380Y0204301D01*
X0306399Y0204439D01*
X0306419Y0204537D01*
Y0204586D01*
Y0204616D01*
Y0204626D01*
Y0204635D01*
X0306409Y0204842D01*
X0306380Y0205039D01*
X0306330Y0205216D01*
X0306281Y0205374D01*
X0306232Y0205511D01*
X0306183Y0205610D01*
X0306173Y0205649D01*
X0306153Y0205679D01*
X0306144Y0205688D01*
Y0205698D01*
X0306026Y0205875D01*
X0305907Y0206033D01*
X0305780Y0206171D01*
X0305661Y0206289D01*
X0305553Y0206367D01*
X0305465Y0206436D01*
X0305406Y0206475D01*
X0305396Y0206485D01*
X0305386D01*
X0305199Y0206584D01*
X0305022Y0206653D01*
X0304845Y0206702D01*
X0304687Y0206731D01*
X0304550Y0206761D01*
X0304441Y0206771D01*
D02*
G37*
G36*
X0341823D02*
X0341725D01*
X0341518Y0206761D01*
X0341331Y0206731D01*
X0341154Y0206682D01*
X0341007Y0206633D01*
X0340879Y0206584D01*
X0340780Y0206535D01*
X0340751Y0206525D01*
X0340721Y0206505D01*
X0340711Y0206495D01*
X0340702D01*
X0340534Y0206387D01*
X0340377Y0206259D01*
X0340249Y0206141D01*
X0340151Y0206023D01*
X0340062Y0205915D01*
X0340003Y0205826D01*
X0339964Y0205767D01*
X0339954Y0205757D01*
Y0205747D01*
X0339865Y0205570D01*
X0339796Y0205383D01*
X0339757Y0205216D01*
X0339718Y0205049D01*
X0339698Y0204901D01*
X0339688Y0204793D01*
Y0204753D01*
Y0204724D01*
Y0204704D01*
Y0204695D01*
X0339698Y0204527D01*
X0339708Y0204370D01*
X0339737Y0204222D01*
X0339777Y0204075D01*
X0339816Y0203947D01*
X0339865Y0203829D01*
X0339924Y0203711D01*
X0339973Y0203612D01*
X0340023Y0203523D01*
X0340082Y0203445D01*
X0340131Y0203376D01*
X0340170Y0203317D01*
X0340210Y0203277D01*
X0340229Y0203248D01*
X0340249Y0203228D01*
X0340259Y0203219D01*
X0340367Y0203120D01*
X0340485Y0203031D01*
X0340613Y0202963D01*
X0340731Y0202894D01*
X0340859Y0202845D01*
X0340987Y0202795D01*
X0341223Y0202727D01*
X0341331Y0202707D01*
X0341440Y0202687D01*
X0341528Y0202677D01*
X0341607Y0202667D01*
X0341676Y0202658D01*
X0341764D01*
X0341932Y0202667D01*
X0342099Y0202677D01*
X0342247Y0202707D01*
X0342394Y0202746D01*
X0342522Y0202785D01*
X0342650Y0202835D01*
X0342758Y0202884D01*
X0342866Y0202943D01*
X0342955Y0202992D01*
X0343034Y0203041D01*
X0343103Y0203091D01*
X0343162Y0203130D01*
X0343211Y0203169D01*
X0343240Y0203199D01*
X0343260Y0203209D01*
X0343270Y0203219D01*
X0343368Y0203327D01*
X0343457Y0203445D01*
X0343536Y0203563D01*
X0343604Y0203681D01*
X0343664Y0203809D01*
X0343713Y0203927D01*
X0343782Y0204153D01*
X0343801Y0204252D01*
X0343821Y0204350D01*
X0343831Y0204439D01*
X0343841Y0204507D01*
X0343850Y0204576D01*
Y0204616D01*
Y0204645D01*
Y0204655D01*
X0343841Y0204862D01*
X0343811Y0205059D01*
X0343762Y0205245D01*
X0343713Y0205403D01*
X0343664Y0205531D01*
X0343614Y0205629D01*
X0343604Y0205669D01*
X0343585Y0205698D01*
X0343575Y0205708D01*
Y0205718D01*
X0343457Y0205895D01*
X0343329Y0206043D01*
X0343201Y0206180D01*
X0343083Y0206289D01*
X0342965Y0206377D01*
X0342876Y0206436D01*
X0342817Y0206475D01*
X0342807Y0206485D01*
X0342798D01*
X0342611Y0206584D01*
X0342424Y0206653D01*
X0342247Y0206702D01*
X0342079Y0206731D01*
X0341932Y0206761D01*
X0341823Y0206771D01*
D02*
G37*
G36*
X0370478Y0207627D02*
X0369257Y0205049D01*
X0371698D01*
X0370478Y0207627D01*
D02*
G37*
G36*
X0317322D02*
X0316102Y0205049D01*
X0318542D01*
X0317322Y0207627D01*
D02*
G37*
G36*
X0278857Y0208434D02*
X0278041D01*
X0277775Y0208424D01*
X0277558Y0208394D01*
X0277362Y0208345D01*
X0277214Y0208296D01*
X0277096Y0208237D01*
X0277017Y0208197D01*
X0276968Y0208158D01*
X0276948Y0208148D01*
X0276830Y0208040D01*
X0276751Y0207912D01*
X0276693Y0207784D01*
X0276643Y0207666D01*
X0276624Y0207558D01*
X0276614Y0207469D01*
X0276604Y0207410D01*
Y0207400D01*
Y0207391D01*
X0276614Y0207253D01*
X0276633Y0207135D01*
X0276673Y0207017D01*
X0276702Y0206918D01*
X0276742Y0206840D01*
X0276781Y0206771D01*
X0276801Y0206731D01*
X0276811Y0206721D01*
X0276889Y0206623D01*
X0276988Y0206535D01*
X0277076Y0206456D01*
X0277165Y0206397D01*
X0277243Y0206348D01*
X0277312Y0206318D01*
X0277352Y0206298D01*
X0277371Y0206289D01*
X0277519Y0206249D01*
X0277686Y0206220D01*
X0277863Y0206190D01*
X0278041Y0206180D01*
X0278198Y0206171D01*
X0278277Y0206161D01*
X0278857D01*
Y0208434D01*
D02*
G37*
G36*
Y0205442D02*
X0278149D01*
X0278011Y0205433D01*
X0277883D01*
X0277765Y0205423D01*
X0277667Y0205413D01*
X0277568Y0205403D01*
X0277489D01*
X0277421Y0205393D01*
X0277362Y0205383D01*
X0277303Y0205374D01*
X0277263Y0205364D01*
X0277214Y0205354D01*
X0277194D01*
X0276997Y0205295D01*
X0276830Y0205216D01*
X0276683Y0205137D01*
X0276565Y0205059D01*
X0276466Y0204980D01*
X0276397Y0204921D01*
X0276348Y0204881D01*
X0276338Y0204862D01*
X0276230Y0204724D01*
X0276151Y0204586D01*
X0276102Y0204449D01*
X0276063Y0204321D01*
X0276043Y0204212D01*
X0276023Y0204124D01*
Y0204065D01*
Y0204055D01*
Y0204045D01*
X0276033Y0203907D01*
X0276063Y0203769D01*
X0276092Y0203651D01*
X0276132Y0203543D01*
X0276181Y0203465D01*
X0276210Y0203396D01*
X0276240Y0203356D01*
X0276250Y0203337D01*
X0276338Y0203219D01*
X0276427Y0203130D01*
X0276525Y0203041D01*
X0276624Y0202982D01*
X0276702Y0202933D01*
X0276771Y0202894D01*
X0276811Y0202874D01*
X0276830Y0202864D01*
X0276899Y0202835D01*
X0276988Y0202815D01*
X0277165Y0202776D01*
X0277352Y0202756D01*
X0277539Y0202736D01*
X0277716Y0202727D01*
X0277785Y0202717D01*
X0278857D01*
Y0205442D01*
D02*
G37*
G36*
X0294729Y0206771D02*
X0294651D01*
X0294473Y0206761D01*
X0294306Y0206741D01*
X0294158Y0206702D01*
X0294021Y0206672D01*
X0293912Y0206633D01*
X0293824Y0206594D01*
X0293775Y0206574D01*
X0293755Y0206564D01*
X0293607Y0206485D01*
X0293470Y0206397D01*
X0293352Y0206308D01*
X0293253Y0206229D01*
X0293174Y0206161D01*
X0293125Y0206102D01*
X0293086Y0206052D01*
X0293076Y0206043D01*
X0292978Y0205915D01*
X0292899Y0205777D01*
X0292830Y0205629D01*
X0292771Y0205491D01*
X0292732Y0205374D01*
X0292702Y0205275D01*
X0292683Y0205236D01*
Y0205206D01*
X0292673Y0205196D01*
Y0205187D01*
X0296599D01*
X0296510Y0205442D01*
X0296412Y0205659D01*
X0296304Y0205846D01*
X0296205Y0205993D01*
X0296117Y0206112D01*
X0296048Y0206200D01*
X0295999Y0206249D01*
X0295979Y0206269D01*
X0295871Y0206358D01*
X0295762Y0206436D01*
X0295654Y0206505D01*
X0295536Y0206564D01*
X0295320Y0206653D01*
X0295103Y0206712D01*
X0294926Y0206741D01*
X0294847Y0206751D01*
X0294778Y0206761D01*
X0294729Y0206771D01*
D02*
G37*
G36*
X0331826Y0228204D02*
X0331049D01*
X0330793Y0228194D01*
X0330557Y0228185D01*
X0330340Y0228175D01*
X0330143Y0228155D01*
X0329956Y0228135D01*
X0329799Y0228116D01*
X0329651Y0228106D01*
X0329533Y0228086D01*
X0329425Y0228066D01*
X0329327Y0228047D01*
X0329258Y0228027D01*
X0329199Y0228017D01*
X0329159Y0228007D01*
X0329140Y0227998D01*
X0329130D01*
X0328972Y0227939D01*
X0328815Y0227880D01*
X0328539Y0227722D01*
X0328412Y0227643D01*
X0328303Y0227555D01*
X0328195Y0227476D01*
X0328106Y0227397D01*
X0328018Y0227309D01*
X0327949Y0227240D01*
X0327890Y0227171D01*
X0327831Y0227112D01*
X0327792Y0227063D01*
X0327762Y0227023D01*
X0327752Y0227004D01*
X0327742Y0226994D01*
X0327654Y0226856D01*
X0327575Y0226709D01*
X0327506Y0226561D01*
X0327447Y0226413D01*
X0327359Y0226118D01*
X0327300Y0225843D01*
X0327280Y0225715D01*
X0327270Y0225597D01*
X0327260Y0225498D01*
X0327250Y0225410D01*
X0327240Y0225331D01*
Y0225282D01*
Y0225242D01*
Y0225233D01*
Y0225055D01*
X0327260Y0224878D01*
X0327309Y0224563D01*
X0327349Y0224416D01*
X0327388Y0224278D01*
X0327428Y0224160D01*
X0327467Y0224042D01*
X0327516Y0223934D01*
X0327555Y0223845D01*
X0327595Y0223766D01*
X0327634Y0223697D01*
X0327664Y0223648D01*
X0327683Y0223609D01*
X0327693Y0223589D01*
X0327703Y0223579D01*
X0327890Y0223343D01*
X0328097Y0223147D01*
X0328303Y0222979D01*
X0328510Y0222851D01*
X0328687Y0222753D01*
X0328766Y0222713D01*
X0328835Y0222684D01*
X0328884Y0222664D01*
X0328923Y0222645D01*
X0328953Y0222635D01*
X0328962D01*
X0329081Y0222605D01*
X0329218Y0222576D01*
X0329366Y0222556D01*
X0329523Y0222536D01*
X0329858Y0222497D01*
X0330202Y0222477D01*
X0330360D01*
X0330507Y0222467D01*
X0330645D01*
X0330773Y0222458D01*
X0331826D01*
Y0228204D01*
D02*
G37*
G36*
X0321356Y0196846D02*
X0320136Y0194268D01*
X0322576D01*
X0321356Y0196846D01*
D02*
G37*
G36*
X0307039Y0226571D02*
X0306941D01*
X0306744Y0226561D01*
X0306557Y0226531D01*
X0306380Y0226482D01*
X0306222Y0226433D01*
X0306094Y0226374D01*
X0305996Y0226335D01*
X0305966Y0226315D01*
X0305937Y0226295D01*
X0305927Y0226285D01*
X0305917D01*
X0305750Y0226167D01*
X0305592Y0226039D01*
X0305465Y0225911D01*
X0305356Y0225784D01*
X0305268Y0225665D01*
X0305199Y0225577D01*
X0305160Y0225508D01*
X0305150Y0225498D01*
Y0225488D01*
X0305051Y0225301D01*
X0304982Y0225114D01*
X0304933Y0224927D01*
X0304904Y0224770D01*
X0304874Y0224632D01*
X0304864Y0224524D01*
Y0224485D01*
Y0224455D01*
Y0224435D01*
Y0224426D01*
X0304874Y0224219D01*
X0304904Y0224022D01*
X0304953Y0223835D01*
X0305002Y0223678D01*
X0305061Y0223540D01*
X0305100Y0223442D01*
X0305120Y0223402D01*
X0305140Y0223373D01*
X0305150Y0223363D01*
Y0223353D01*
X0305268Y0223176D01*
X0305386Y0223019D01*
X0305514Y0222891D01*
X0305642Y0222773D01*
X0305750Y0222694D01*
X0305838Y0222625D01*
X0305898Y0222586D01*
X0305907Y0222576D01*
X0305917D01*
X0306094Y0222487D01*
X0306281Y0222418D01*
X0306449Y0222369D01*
X0306606Y0222340D01*
X0306744Y0222320D01*
X0306852Y0222300D01*
X0306950D01*
X0307108Y0222310D01*
X0307265Y0222330D01*
X0307413Y0222359D01*
X0307551Y0222399D01*
X0307806Y0222497D01*
X0307915Y0222546D01*
X0308013Y0222605D01*
X0308112Y0222664D01*
X0308190Y0222713D01*
X0308259Y0222773D01*
X0308318Y0222812D01*
X0308367Y0222851D01*
X0308397Y0222881D01*
X0308417Y0222901D01*
X0308426Y0222910D01*
X0308535Y0223028D01*
X0308623Y0223147D01*
X0308702Y0223274D01*
X0308771Y0223402D01*
X0308830Y0223530D01*
X0308879Y0223658D01*
X0308948Y0223904D01*
X0308978Y0224012D01*
X0308997Y0224111D01*
X0309007Y0224209D01*
X0309017Y0224288D01*
X0309027Y0224347D01*
Y0224396D01*
Y0224426D01*
Y0224435D01*
X0309017Y0224662D01*
X0308987Y0224859D01*
X0308938Y0225046D01*
X0308889Y0225203D01*
X0308850Y0225341D01*
X0308800Y0225439D01*
X0308781Y0225469D01*
X0308771Y0225498D01*
X0308761Y0225508D01*
Y0225518D01*
X0308653Y0225685D01*
X0308535Y0225843D01*
X0308407Y0225971D01*
X0308279Y0226079D01*
X0308171Y0226167D01*
X0308082Y0226236D01*
X0308023Y0226276D01*
X0308013Y0226285D01*
X0308003D01*
X0307816Y0226384D01*
X0307629Y0226453D01*
X0307442Y0226502D01*
X0307285Y0226531D01*
X0307147Y0226561D01*
X0307039Y0226571D01*
D02*
G37*
G36*
X0311192Y0197653D02*
X0309942D01*
X0309686Y0197643D01*
X0309470Y0197633D01*
X0309292Y0197614D01*
X0309145Y0197594D01*
X0309036Y0197564D01*
X0308958Y0197545D01*
X0308909Y0197535D01*
X0308899Y0197525D01*
X0308790Y0197466D01*
X0308682Y0197407D01*
X0308594Y0197338D01*
X0308525Y0197269D01*
X0308466Y0197200D01*
X0308426Y0197151D01*
X0308397Y0197112D01*
X0308387Y0197102D01*
X0308318Y0196994D01*
X0308269Y0196876D01*
X0308240Y0196767D01*
X0308210Y0196659D01*
X0308200Y0196571D01*
X0308190Y0196502D01*
Y0196462D01*
Y0196443D01*
X0308200Y0196315D01*
X0308220Y0196187D01*
X0308249Y0196079D01*
X0308289Y0195980D01*
X0308328Y0195892D01*
X0308358Y0195833D01*
X0308377Y0195793D01*
X0308387Y0195783D01*
X0308466Y0195685D01*
X0308554Y0195596D01*
X0308643Y0195518D01*
X0308732Y0195459D01*
X0308810Y0195410D01*
X0308869Y0195380D01*
X0308909Y0195360D01*
X0308928Y0195350D01*
X0309066Y0195311D01*
X0309233Y0195282D01*
X0309410Y0195252D01*
X0309588Y0195242D01*
X0309745Y0195232D01*
X0309814Y0195222D01*
X0309991D01*
X0311192Y0195242D01*
Y0197653D01*
D02*
G37*
G36*
X0329435D02*
X0328047D01*
X0327929Y0197643D01*
X0327713Y0197633D01*
X0327526Y0197614D01*
X0327378Y0197594D01*
X0327270Y0197564D01*
X0327191Y0197545D01*
X0327142Y0197535D01*
X0327132Y0197525D01*
X0327024Y0197466D01*
X0326916Y0197407D01*
X0326827Y0197338D01*
X0326758Y0197269D01*
X0326699Y0197200D01*
X0326660Y0197151D01*
X0326630Y0197112D01*
X0326621Y0197102D01*
X0326552Y0196994D01*
X0326502Y0196876D01*
X0326473Y0196767D01*
X0326444Y0196669D01*
X0326434Y0196580D01*
X0326424Y0196512D01*
Y0196472D01*
Y0196452D01*
X0326434Y0196315D01*
X0326453Y0196197D01*
X0326483Y0196079D01*
X0326522Y0195980D01*
X0326562Y0195902D01*
X0326591Y0195833D01*
X0326611Y0195793D01*
X0326621Y0195783D01*
X0326699Y0195685D01*
X0326778Y0195596D01*
X0326867Y0195518D01*
X0326955Y0195459D01*
X0327034Y0195410D01*
X0327093Y0195380D01*
X0327132Y0195360D01*
X0327152Y0195350D01*
X0327300Y0195311D01*
X0327467Y0195282D01*
X0327644Y0195252D01*
X0327811Y0195242D01*
X0327969Y0195232D01*
X0328038Y0195222D01*
X0328215D01*
X0329435Y0195232D01*
Y0197653D01*
D02*
G37*
G36*
X0338975Y0219421D02*
X0338896D01*
X0338729Y0219411D01*
X0338562Y0219372D01*
X0338414Y0219323D01*
X0338286Y0219264D01*
X0338178Y0219195D01*
X0338089Y0219145D01*
X0338040Y0219106D01*
X0338020Y0219096D01*
X0337873Y0218959D01*
X0337735Y0218811D01*
X0337627Y0218644D01*
X0337528Y0218476D01*
X0337459Y0218329D01*
X0337430Y0218260D01*
X0337400Y0218201D01*
X0337381Y0218162D01*
X0337371Y0218122D01*
X0337361Y0218103D01*
Y0218093D01*
X0337282Y0217827D01*
X0337223Y0217532D01*
X0337174Y0217236D01*
X0337144Y0216961D01*
X0337135Y0216833D01*
X0337125Y0216715D01*
Y0216607D01*
X0337115Y0216518D01*
Y0216449D01*
Y0216390D01*
Y0216351D01*
Y0216341D01*
X0337125Y0215957D01*
X0337144Y0215770D01*
X0337154Y0215603D01*
X0337174Y0215436D01*
X0337204Y0215288D01*
X0337223Y0215150D01*
X0337253Y0215023D01*
X0337282Y0214904D01*
X0337302Y0214796D01*
X0337322Y0214708D01*
X0337351Y0214639D01*
X0337361Y0214580D01*
X0337381Y0214540D01*
X0337390Y0214511D01*
Y0214501D01*
X0337479Y0214284D01*
X0337577Y0214098D01*
X0337676Y0213930D01*
X0337774Y0213802D01*
X0337873Y0213694D01*
X0337942Y0213625D01*
X0337991Y0213586D01*
X0338010Y0213566D01*
X0338168Y0213468D01*
X0338325Y0213389D01*
X0338473Y0213340D01*
X0338611Y0213301D01*
X0338729Y0213281D01*
X0338817Y0213271D01*
X0338876Y0213261D01*
X0338896D01*
X0339073Y0213271D01*
X0339231Y0213310D01*
X0339388Y0213360D01*
X0339516Y0213419D01*
X0339634Y0213478D01*
X0339713Y0213527D01*
X0339772Y0213566D01*
X0339782Y0213576D01*
X0339791D01*
X0339939Y0213704D01*
X0340067Y0213852D01*
X0340175Y0214009D01*
X0340274Y0214166D01*
X0340342Y0214294D01*
X0340392Y0214412D01*
X0340411Y0214452D01*
X0340421Y0214481D01*
X0340431Y0214501D01*
Y0214511D01*
X0340470Y0214639D01*
X0340500Y0214767D01*
X0340549Y0215062D01*
X0340588Y0215367D01*
X0340608Y0215662D01*
X0340618Y0215800D01*
X0340628Y0215928D01*
Y0216046D01*
X0340638Y0216144D01*
Y0216223D01*
Y0216292D01*
Y0216331D01*
Y0216341D01*
Y0216558D01*
X0340628Y0216764D01*
X0340618Y0216961D01*
X0340608Y0217138D01*
X0340588Y0217296D01*
X0340569Y0217453D01*
X0340549Y0217581D01*
X0340529Y0217709D01*
X0340510Y0217817D01*
X0340490Y0217906D01*
X0340470Y0217984D01*
X0340451Y0218043D01*
X0340441Y0218093D01*
X0340431Y0218132D01*
X0340421Y0218152D01*
Y0218162D01*
X0340333Y0218378D01*
X0340234Y0218565D01*
X0340126Y0218732D01*
X0340028Y0218860D01*
X0339929Y0218968D01*
X0339860Y0219037D01*
X0339811Y0219087D01*
X0339791Y0219096D01*
X0339634Y0219205D01*
X0339477Y0219283D01*
X0339319Y0219342D01*
X0339181Y0219382D01*
X0339063Y0219401D01*
X0338975Y0219421D01*
D02*
G37*
G36*
X0306276D02*
X0306198D01*
X0306030Y0219411D01*
X0305863Y0219372D01*
X0305715Y0219323D01*
X0305588Y0219264D01*
X0305479Y0219195D01*
X0305391Y0219145D01*
X0305342Y0219106D01*
X0305322Y0219096D01*
X0305174Y0218959D01*
X0305037Y0218811D01*
X0304928Y0218644D01*
X0304830Y0218476D01*
X0304761Y0218329D01*
X0304731Y0218260D01*
X0304702Y0218201D01*
X0304682Y0218162D01*
X0304673Y0218122D01*
X0304663Y0218103D01*
Y0218093D01*
X0304584Y0217827D01*
X0304525Y0217532D01*
X0304476Y0217236D01*
X0304446Y0216961D01*
X0304436Y0216833D01*
X0304427Y0216715D01*
Y0216607D01*
X0304417Y0216518D01*
Y0216449D01*
Y0216390D01*
Y0216351D01*
Y0216341D01*
X0304427Y0215957D01*
X0304446Y0215770D01*
X0304456Y0215603D01*
X0304476Y0215436D01*
X0304505Y0215288D01*
X0304525Y0215150D01*
X0304554Y0215023D01*
X0304584Y0214904D01*
X0304604Y0214796D01*
X0304623Y0214708D01*
X0304653Y0214639D01*
X0304663Y0214580D01*
X0304682Y0214540D01*
X0304692Y0214511D01*
Y0214501D01*
X0304781Y0214284D01*
X0304879Y0214098D01*
X0304977Y0213930D01*
X0305076Y0213802D01*
X0305174Y0213694D01*
X0305243Y0213625D01*
X0305292Y0213586D01*
X0305312Y0213566D01*
X0305469Y0213468D01*
X0305627Y0213389D01*
X0305775Y0213340D01*
X0305912Y0213301D01*
X0306030Y0213281D01*
X0306119Y0213271D01*
X0306178Y0213261D01*
X0306198D01*
X0306375Y0213271D01*
X0306532Y0213310D01*
X0306690Y0213360D01*
X0306818Y0213419D01*
X0306936Y0213478D01*
X0307014Y0213527D01*
X0307073Y0213566D01*
X0307083Y0213576D01*
X0307093D01*
X0307241Y0213704D01*
X0307369Y0213852D01*
X0307477Y0214009D01*
X0307575Y0214166D01*
X0307644Y0214294D01*
X0307693Y0214412D01*
X0307713Y0214452D01*
X0307723Y0214481D01*
X0307733Y0214501D01*
Y0214511D01*
X0307772Y0214639D01*
X0307802Y0214767D01*
X0307851Y0215062D01*
X0307890Y0215367D01*
X0307910Y0215662D01*
X0307920Y0215800D01*
X0307929Y0215928D01*
Y0216046D01*
X0307939Y0216144D01*
Y0216223D01*
Y0216292D01*
Y0216331D01*
Y0216341D01*
Y0216558D01*
X0307929Y0216764D01*
X0307920Y0216961D01*
X0307910Y0217138D01*
X0307890Y0217296D01*
X0307871Y0217453D01*
X0307851Y0217581D01*
X0307831Y0217709D01*
X0307811Y0217817D01*
X0307792Y0217906D01*
X0307772Y0217984D01*
X0307752Y0218043D01*
X0307743Y0218093D01*
X0307733Y0218132D01*
X0307723Y0218152D01*
Y0218162D01*
X0307634Y0218378D01*
X0307536Y0218565D01*
X0307428Y0218732D01*
X0307329Y0218860D01*
X0307231Y0218968D01*
X0307162Y0219037D01*
X0307113Y0219087D01*
X0307093Y0219096D01*
X0306936Y0219205D01*
X0306778Y0219283D01*
X0306621Y0219342D01*
X0306483Y0219382D01*
X0306365Y0219401D01*
X0306276Y0219421D01*
D02*
G37*
G36*
X0327078D02*
X0326999D01*
X0326832Y0219411D01*
X0326665Y0219372D01*
X0326517Y0219323D01*
X0326389Y0219264D01*
X0326281Y0219195D01*
X0326193Y0219145D01*
X0326143Y0219106D01*
X0326124Y0219096D01*
X0325976Y0218959D01*
X0325838Y0218811D01*
X0325730Y0218644D01*
X0325632Y0218476D01*
X0325563Y0218329D01*
X0325533Y0218260D01*
X0325504Y0218201D01*
X0325484Y0218162D01*
X0325474Y0218122D01*
X0325464Y0218103D01*
Y0218093D01*
X0325386Y0217827D01*
X0325327Y0217532D01*
X0325277Y0217236D01*
X0325248Y0216961D01*
X0325238Y0216833D01*
X0325228Y0216715D01*
Y0216607D01*
X0325218Y0216518D01*
Y0216449D01*
Y0216390D01*
Y0216351D01*
Y0216341D01*
X0325228Y0215957D01*
X0325248Y0215770D01*
X0325258Y0215603D01*
X0325277Y0215436D01*
X0325307Y0215288D01*
X0325327Y0215150D01*
X0325356Y0215023D01*
X0325386Y0214904D01*
X0325405Y0214796D01*
X0325425Y0214708D01*
X0325455Y0214639D01*
X0325464Y0214580D01*
X0325484Y0214540D01*
X0325494Y0214511D01*
Y0214501D01*
X0325583Y0214284D01*
X0325681Y0214098D01*
X0325779Y0213930D01*
X0325878Y0213802D01*
X0325976Y0213694D01*
X0326045Y0213625D01*
X0326094Y0213586D01*
X0326114Y0213566D01*
X0326271Y0213468D01*
X0326429Y0213389D01*
X0326576Y0213340D01*
X0326714Y0213301D01*
X0326832Y0213281D01*
X0326921Y0213271D01*
X0326980Y0213261D01*
X0326999D01*
X0327177Y0213271D01*
X0327334Y0213310D01*
X0327491Y0213360D01*
X0327619Y0213419D01*
X0327737Y0213478D01*
X0327816Y0213527D01*
X0327875Y0213566D01*
X0327885Y0213576D01*
X0327895D01*
X0328043Y0213704D01*
X0328170Y0213852D01*
X0328279Y0214009D01*
X0328377Y0214166D01*
X0328446Y0214294D01*
X0328495Y0214412D01*
X0328515Y0214452D01*
X0328525Y0214481D01*
X0328535Y0214501D01*
Y0214511D01*
X0328574Y0214639D01*
X0328603Y0214767D01*
X0328653Y0215062D01*
X0328692Y0215367D01*
X0328712Y0215662D01*
X0328721Y0215800D01*
X0328731Y0215928D01*
Y0216046D01*
X0328741Y0216144D01*
Y0216223D01*
Y0216292D01*
Y0216331D01*
Y0216341D01*
Y0216558D01*
X0328731Y0216764D01*
X0328721Y0216961D01*
X0328712Y0217138D01*
X0328692Y0217296D01*
X0328672Y0217453D01*
X0328653Y0217581D01*
X0328633Y0217709D01*
X0328613Y0217817D01*
X0328593Y0217906D01*
X0328574Y0217984D01*
X0328554Y0218043D01*
X0328544Y0218093D01*
X0328535Y0218132D01*
X0328525Y0218152D01*
Y0218162D01*
X0328436Y0218378D01*
X0328338Y0218565D01*
X0328229Y0218732D01*
X0328131Y0218860D01*
X0328033Y0218968D01*
X0327964Y0219037D01*
X0327915Y0219087D01*
X0327895Y0219096D01*
X0327737Y0219205D01*
X0327580Y0219283D01*
X0327423Y0219342D01*
X0327285Y0219382D01*
X0327167Y0219401D01*
X0327078Y0219421D01*
D02*
G37*
%LPD*%
M02*
