G04 Layer_Color=16711935*
%FSAX25Y25*%
%MOIN*%
G70*
G01*
G75*
%ADD53C,0.16548*%
%ADD54C,0.07100*%
%ADD55C,0.01200*%
%ADD56C,0.01800*%
D53*
X0405512Y0118110D02*
D03*
X0275590Y0248031D02*
D03*
D54*
X0395643Y0250000D02*
D03*
X0403543D02*
D03*
X0411443D02*
D03*
X0419317D02*
D03*
X0427191D02*
D03*
X0372047Y0151627D02*
D03*
Y0143727D02*
D03*
Y0135827D02*
D03*
Y0127953D02*
D03*
Y0120079D02*
D03*
X0395617Y0224409D02*
D03*
X0403517D02*
D03*
X0411417D02*
D03*
X0419291D02*
D03*
X0427165D02*
D03*
X0395643Y0198819D02*
D03*
X0403543D02*
D03*
X0411443D02*
D03*
X0419317D02*
D03*
X0427191D02*
D03*
X0395617Y0173228D02*
D03*
X0403517D02*
D03*
X0411417D02*
D03*
X0419291D02*
D03*
X0427165D02*
D03*
X0347669Y0151627D02*
D03*
Y0143727D02*
D03*
Y0135827D02*
D03*
Y0127953D02*
D03*
Y0120079D02*
D03*
X0324169Y0151627D02*
D03*
Y0143727D02*
D03*
Y0135827D02*
D03*
Y0127953D02*
D03*
Y0120079D02*
D03*
X0301181Y0151627D02*
D03*
Y0143727D02*
D03*
Y0135827D02*
D03*
Y0127953D02*
D03*
Y0120079D02*
D03*
X0278864Y0151627D02*
D03*
Y0143727D02*
D03*
Y0135827D02*
D03*
Y0127953D02*
D03*
Y0120079D02*
D03*
D55*
X0268106Y0170206D02*
D03*
X0270861Y0172962D02*
D03*
X0273617Y0175718D02*
D03*
X0276373Y0167450D02*
D03*
X0279129D02*
D03*
X0281885D02*
D03*
X0265350Y0172962D02*
D03*
X0268106Y0167450D02*
D03*
Y0175718D02*
D03*
Y0172962D02*
D03*
X0265350Y0167450D02*
D03*
Y0175718D02*
D03*
Y0170206D02*
D03*
X0273617Y0172962D02*
D03*
Y0170206D02*
D03*
X0270861Y0167450D02*
D03*
Y0170206D02*
D03*
Y0175718D02*
D03*
X0276373Y0170206D02*
D03*
Y0172962D02*
D03*
X0273617Y0167450D02*
D03*
X0276373Y0175718D02*
D03*
X0281885D02*
D03*
Y0172962D02*
D03*
Y0170206D02*
D03*
X0279129Y0175718D02*
D03*
Y0172962D02*
D03*
Y0170206D02*
D03*
X0288506Y0214506D02*
D03*
X0291261Y0217262D02*
D03*
X0294017Y0220018D02*
D03*
X0296773Y0211750D02*
D03*
X0299529D02*
D03*
X0302285D02*
D03*
X0285750Y0217262D02*
D03*
X0288506Y0211750D02*
D03*
Y0220018D02*
D03*
Y0217262D02*
D03*
X0285750Y0211750D02*
D03*
Y0220018D02*
D03*
Y0214506D02*
D03*
X0294017Y0217262D02*
D03*
Y0214506D02*
D03*
X0291261Y0211750D02*
D03*
Y0214506D02*
D03*
Y0220018D02*
D03*
X0296773Y0214506D02*
D03*
Y0217262D02*
D03*
X0294017Y0211750D02*
D03*
X0296773Y0220018D02*
D03*
X0302285D02*
D03*
Y0217262D02*
D03*
Y0214506D02*
D03*
X0299529Y0220018D02*
D03*
Y0217262D02*
D03*
Y0214506D02*
D03*
X0273306Y0228706D02*
D03*
X0276061Y0231462D02*
D03*
X0278817Y0234218D02*
D03*
X0281573Y0225950D02*
D03*
X0284329D02*
D03*
X0287085D02*
D03*
X0270550Y0231462D02*
D03*
X0273306Y0225950D02*
D03*
Y0234218D02*
D03*
Y0231462D02*
D03*
X0270550Y0225950D02*
D03*
Y0234218D02*
D03*
Y0228706D02*
D03*
X0278817Y0231462D02*
D03*
Y0228706D02*
D03*
X0276061Y0225950D02*
D03*
Y0228706D02*
D03*
Y0234218D02*
D03*
X0281573Y0228706D02*
D03*
Y0231462D02*
D03*
X0278817Y0225950D02*
D03*
X0281573Y0234218D02*
D03*
X0287085D02*
D03*
Y0231462D02*
D03*
Y0228706D02*
D03*
X0284329Y0234218D02*
D03*
Y0231462D02*
D03*
Y0228706D02*
D03*
X0368205Y0226533D02*
D03*
X0365700Y0226500D02*
D03*
X0365800Y0228800D02*
D03*
X0368572Y0228900D02*
D03*
X0352700Y0235900D02*
D03*
Y0238400D02*
D03*
X0349300Y0235500D02*
D03*
Y0238400D02*
D03*
X0360630Y0237795D02*
D03*
X0357874D02*
D03*
X0354764Y0220866D02*
D03*
X0356693Y0230315D02*
D03*
Y0227953D02*
D03*
X0357874Y0235433D02*
D03*
X0360630D02*
D03*
X0378346Y0201575D02*
D03*
Y0199213D02*
D03*
X0378740Y0207441D02*
D03*
X0370200Y0181499D02*
D03*
X0371476Y0183366D02*
D03*
X0349213Y0190945D02*
D03*
Y0193701D02*
D03*
X0352756D02*
D03*
X0322047Y0175984D02*
D03*
X0322835Y0199606D02*
D03*
Y0202362D02*
D03*
Y0205118D02*
D03*
X0322441Y0192126D02*
D03*
X0325551Y0192126D02*
D03*
X0318701D02*
D03*
X0323228Y0181496D02*
D03*
X0320866D02*
D03*
X0323228Y0183858D02*
D03*
X0320866D02*
D03*
X0366929Y0249606D02*
D03*
Y0252362D02*
D03*
Y0255118D02*
D03*
X0369685Y0249606D02*
D03*
Y0252362D02*
D03*
Y0255118D02*
D03*
X0364173D02*
D03*
X0361417Y0246850D02*
D03*
X0364173Y0252362D02*
D03*
Y0249606D02*
D03*
X0358661Y0255118D02*
D03*
Y0249606D02*
D03*
Y0246850D02*
D03*
X0361417Y0249606D02*
D03*
Y0252362D02*
D03*
X0353150Y0249606D02*
D03*
Y0255118D02*
D03*
Y0246850D02*
D03*
X0355906Y0252362D02*
D03*
Y0255118D02*
D03*
Y0246850D02*
D03*
X0353150Y0252362D02*
D03*
X0369685Y0246850D02*
D03*
X0366929D02*
D03*
X0364173D02*
D03*
X0361417Y0255118D02*
D03*
X0358661Y0252362D02*
D03*
X0355906Y0249606D02*
D03*
X0298031Y0201969D02*
D03*
X0300787Y0199213D02*
D03*
X0303543Y0196457D02*
D03*
X0295276Y0193701D02*
D03*
Y0190945D02*
D03*
Y0188189D02*
D03*
X0300787Y0204724D02*
D03*
X0295276Y0201969D02*
D03*
X0303543D02*
D03*
X0300787D02*
D03*
X0295276Y0204724D02*
D03*
X0303543D02*
D03*
X0298031D02*
D03*
X0300787Y0196457D02*
D03*
X0298031D02*
D03*
X0295276Y0199213D02*
D03*
X0298031D02*
D03*
X0303543D02*
D03*
X0298031Y0193701D02*
D03*
X0300787D02*
D03*
X0295276Y0196457D02*
D03*
X0303543Y0193701D02*
D03*
Y0188189D02*
D03*
X0300787D02*
D03*
X0298031D02*
D03*
X0303543Y0190945D02*
D03*
X0300787D02*
D03*
X0298031D02*
D03*
X0426378Y0119685D02*
D03*
X0429134D02*
D03*
X0431890D02*
D03*
X0426378Y0116929D02*
D03*
X0429134D02*
D03*
X0431890D02*
D03*
Y0122441D02*
D03*
X0423622Y0125197D02*
D03*
X0429134Y0122441D02*
D03*
X0426378D02*
D03*
X0431890Y0127953D02*
D03*
X0426378D02*
D03*
X0423622D02*
D03*
X0426378Y0125197D02*
D03*
X0429134D02*
D03*
X0426378Y0133465D02*
D03*
X0431890D02*
D03*
X0423622D02*
D03*
X0429134Y0130709D02*
D03*
X0431890D02*
D03*
X0423622D02*
D03*
X0429134Y0133465D02*
D03*
X0423622Y0116929D02*
D03*
Y0119685D02*
D03*
Y0122441D02*
D03*
X0431890Y0125197D02*
D03*
X0429134Y0127953D02*
D03*
X0426378Y0130709D02*
D03*
X0331890Y0194488D02*
D03*
X0334252D02*
D03*
X0336614Y0195276D02*
D03*
Y0199213D02*
D03*
Y0203150D02*
D03*
Y0207087D02*
D03*
X0341339Y0212598D02*
D03*
X0338189D02*
D03*
X0339764Y0214173D02*
D03*
X0295636Y0174409D02*
D03*
X0310236Y0192126D02*
D03*
X0353543Y0190945D02*
D03*
X0361024Y0203150D02*
D03*
X0360630Y0205906D02*
D03*
X0368112Y0188979D02*
D03*
X0364567Y0190945D02*
D03*
X0357087D02*
D03*
X0355906Y0211024D02*
D03*
X0360236Y0190945D02*
D03*
X0376771Y0192519D02*
D03*
X0379527Y0191929D02*
D03*
X0316535Y0185039D02*
D03*
X0313997Y0182677D02*
D03*
X0344921Y0196128D02*
D03*
X0330314Y0178740D02*
D03*
X0328110Y0229095D02*
D03*
X0368898Y0202362D02*
D03*
X0314764Y0232283D02*
D03*
X0315748Y0198819D02*
D03*
D56*
X0352362Y0206299D02*
D03*
M02*
