M48
;Layer_Color=9474304
;FILE_FORMAT=2:4
INCH
;TYPE=PLATED
T1F00S00C0.0100
T2F00S00C0.0315
T3F00S00C0.1200
%
T01
X033699Y026100
X034040Y026650
X033840Y027040
X034750Y026800
X034950
Y026550
X034750
X034600Y027450
Y027700
X034000Y028400
X036110Y029150
Y029370
X036410Y029150
X036830
X036950Y030950
X037190Y031200
X037450Y030950
X037950
X038400
X038170Y031220
X038950Y030950
X039450
X039950
X040450
X040950
X041450
X040230Y029635
X040276Y028166
X039800Y027400
Y027000
Y026600
Y026200
X039400
X039000
X038600
Y026600
X039000
X039400
Y027000
X039000
X038600
Y027400
X039000
X039400
X039270Y027650
X038200Y028100
X038220Y028400
X037730Y026075
X036764Y026048
X035863Y026250
X036450Y030950
Y031450
X036950
X037450
X037690Y031690
X037950Y031450
X038450
Y031950
X038680Y031730
X038190Y032180
X037950Y031950
Y032450
Y032900
X037450Y032950
Y033450
X037950
Y033950
X037450
X036950
Y033450
X036450
Y033950
Y032950
Y032450
Y031950
X036690Y031720
X036950Y031950
X037190Y032210
X036950Y032450
X037450
Y031950
X036950Y032950
X038450
X038690Y032690
X038950Y032450
X039450
X039680Y032210
X039950Y032450
Y032950
X039450
Y033450
X039950
X040450
X040950
Y032950
X041450
Y033450
Y033950
X040950
X040450
X039950
X039450
X038950
X038680Y033720
X038450Y033950
Y033450
X038950
Y032950
X040450
Y032450
X040700Y032210
X040950Y032450
X041450
Y031950
Y031450
X040950
X040450
X040680Y031700
X040190Y031690
X039950Y031450
X039690Y031690
X039450Y031450
X040190Y032180
X038999Y035100
X038301
X038550Y036150
X039150Y036200
Y036650
Y037100
X039700Y036200
X037700Y036400
X037300
X036900
X036500
X036100
X035700
X035300
Y036000
X035700
X036100
X036500
X036900
X037300
X037700
X034450Y034150
Y033800
Y033450
Y033100
X035400Y032937
T02
X033750Y031695
Y032485
Y033275
Y034063
Y034850
X039663Y037050
X040450
T03
X041100Y026600
X033800Y037000
M30
